<svg xmlns="http://www.w3.org/2000/svg" viewBox="0 0 210.82 283.9">
  <defs>
    <style>
      .a {
        fill: #fff;
      }

      .a, .d, .h {
        fill-rule: evenodd;
      }

      .b, .c, .e, .f, .g, .i, .j {
        fill: none;
        stroke: #17067a;
      }

      .b, .c, .e, .i {
        stroke-miterlimit: 10;
      }

      .b {
        stroke-width: 2.85px;
      }

      .c {
        stroke-width: 2.68px;
      }

      .d {
        fill: #313390;
      }

      .e {
        stroke-width: 1.64px;
      }

      .f, .g, .j {
        stroke-linejoin: round;
      }

      .f {
        stroke-width: 2.07px;
      }

      .g {
        stroke-width: 1.8px;
      }

      .h {
        fill: #17067a;
      }

      .i {
        stroke-width: 0.86px;
      }

      .j {
        stroke-linecap: round;
        stroke-width: 1.32px;
      }
    </style>
  </defs>
  <title>back</title>
  <g>
    <path class="a" d="M8.79,1.43A7,7,0,0,0,1.42,8.05V275.84a7,7,0,0,0,7.37,6.63H202a7,7,0,0,0,7.37-6.63V8.05A7,7,0,0,0,202,1.43Z" transform="translate(0 0)"/>
    <path class="b" d="M8.79,1.43A7,7,0,0,0,1.42,8.05V275.84a7,7,0,0,0,7.37,6.63H202a7,7,0,0,0,7.37-6.63V8.05A7,7,0,0,0,202,1.43Z" transform="translate(0 0)"/>
    <path class="a" d="M10.88,7.93A1.78,1.78,0,0,0,9,9.6V274.3A1.77,1.77,0,0,0,10.88,276H199.47a1.77,1.77,0,0,0,1.86-1.66h0V9.6a1.78,1.78,0,0,0-1.86-1.67Z" transform="translate(0 0)"/>
    <path class="c" d="M10.88,7.93A1.78,1.78,0,0,0,9,9.6V274.3A1.77,1.77,0,0,0,10.88,276H199.47a1.77,1.77,0,0,0,1.86-1.66h0V9.6a1.78,1.78,0,0,0-1.86-1.67Z" transform="translate(0 0)"/>
    <path class="d" d="M48.19,42.83a.85.85,0,0,0-.89.81h0V241.1a.85.85,0,0,0,.89.8H160.27a.84.84,0,0,0,.89-.79h0V43.64a.84.84,0,0,0-.87-.81H48.19Z" transform="translate(0 0)"/>
    <path class="e" d="M48.19,42.83a.85.85,0,0,0-.89.81h0V241.1a.85.85,0,0,0,.89.8H160.27a.84.84,0,0,0,.89-.79h0V43.64a.84.84,0,0,0-.87-.81H48.19Z" transform="translate(0 0)"/>
    <path class="a" d="M65.94,49.83c-5.74-.1-10.48,4.12-10.6,9.44V224.52c.06,5.32,4.75,9.59,10.49,9.54h76.23c5.74.1,10.48-4.12,10.6-9.44V59.37c-.06-5.32-4.76-9.59-10.5-9.54H65.94Z" transform="translate(0 0)"/>
    <path class="f" d="M65.94,49.83c-5.74-.1-10.48,4.12-10.6,9.44V224.52c.06,5.32,4.75,9.59,10.49,9.54h76.23c5.74.1,10.48-4.12,10.6-9.44V59.37c-.06-5.32-4.76-9.59-10.5-9.54H65.94Z" transform="translate(0 0)"/>
    <path class="d" d="M67.11,57.43a3.39,3.39,0,0,0-3.56,3.19V223.26a3.4,3.4,0,0,0,3.56,3.21H140.4a3.41,3.41,0,0,0,3.58-3.21V60.64a3.4,3.4,0,0,0-3.56-3.21H67.11Z" transform="translate(0 0)"/>
    <path class="g" d="M67.11,57.43a3.39,3.39,0,0,0-3.56,3.19V223.26a3.4,3.4,0,0,0,3.56,3.21H140.4a3.41,3.41,0,0,0,3.58-3.21V60.64a3.4,3.4,0,0,0-3.56-3.21H67.11Z" transform="translate(0 0)"/>
    <path class="h" d="M11,9.84h8.51l-8.39,7.52-.08-7.52Z" transform="translate(0 0)"/>
    <path class="i" d="M11,9.84h8.51l-8.39,7.52-.08-7.52Z" transform="translate(0 0)"/>
    <path class="h" d="M199.18,9.94h-8.46l8.37,7.52Z" transform="translate(0 0)"/>
    <path class="i" d="M199.18,9.94h-8.46l8.37,7.52Z" transform="translate(0 0)"/>
    <path class="h" d="M199.34,274.3h-8.47l8.39-7.52Z" transform="translate(0 0)"/>
    <path class="i" d="M199.34,274.3h-8.47l8.39-7.52Z" transform="translate(0 0)"/>
    <path class="h" d="M11,274.3h8.51l-8.39-7.53Z" transform="translate(0 0)"/>
    <path class="i" d="M11,274.3h8.51l-8.39-7.53Z" transform="translate(0 0)"/>
    <path class="d" d="M14.28,152.71v7.2l28.49-13.48v-7.38Z" transform="translate(0 0)"/>
    <path class="j" d="M14.28,152.71v7.2l28.49-13.48v-7.38Z" transform="translate(0 0)"/>
    <path class="d" d="M14.42,166.33v7.21l28.5-13.48v-7.38Z" transform="translate(0 0)"/>
    <path class="j" d="M14.42,166.33v7.21l28.5-13.48v-7.38Z" transform="translate(0 0)"/>
    <path class="a" d="M14.14,160v-7.21l28.5,13.48v7.38Z" transform="translate(0 0)"/>
    <path class="j" d="M14.14,160v-7.21l28.5,13.48v7.38Z" transform="translate(0 0)"/>
    <path class="d" d="M14.49,138.89v7.2L43,132.61v-7.37Z" transform="translate(0 0)"/>
    <path class="j" d="M14.49,138.89v7.2L43,132.61v-7.37Z" transform="translate(0 0)"/>
    <path class="a" d="M14.35,146.39v-7.2l28.5,13.48v7.39Z" transform="translate(0 0)"/>
    <path class="j" d="M14.35,146.39v-7.2l28.5,13.48v7.39Z" transform="translate(0 0)"/>
    <path class="d" d="M14.35,125.27v7.2L42.85,119V111.6Z" transform="translate(0 0)"/>
    <path class="j" d="M14.35,125.27v7.2L42.85,119V111.6Z" transform="translate(0 0)"/>
    <path class="a" d="M14.21,132.51V125.3L42.7,138.78v7.38Z" transform="translate(0 0)"/>
    <path class="j" d="M14.21,132.51V125.3L42.7,138.78v7.38Z" transform="translate(0 0)"/>
    <path class="a" d="M14.41,119v-7.2l28.5,13.48v7.38Z" transform="translate(0 0)"/>
    <path class="j" d="M14.41,119v-7.2l28.5,13.48v7.38Z" transform="translate(0 0)"/>
    <path class="d" d="M14.46,180.09v7.21L43,173.82v-7.37Z" transform="translate(0 0)"/>
    <path class="j" d="M14.46,180.09v7.21L43,173.82v-7.37Z" transform="translate(0 0)"/>
    <path class="a" d="M14.17,173.7v-7.2L42.67,180v7.38Z" transform="translate(0 0)"/>
    <path class="j" d="M14.17,173.7v-7.2L42.67,180v7.38Z" transform="translate(0 0)"/>
    <path class="d" d="M14.17,84v7.21l28.5-13.48V70.38Z" transform="translate(0 0)"/>
    <path class="j" d="M14.17,84v7.21l28.5-13.48V70.38Z" transform="translate(0 0)"/>
    <path class="d" d="M14.35,97.66v7.21l28.5-13.48V84Z" transform="translate(0 0)"/>
    <path class="j" d="M14.35,97.66v7.21l28.5-13.48V84Z" transform="translate(0 0)"/>
    <path class="a" d="M14,91.28V84.07L42.54,97.55v7.38Z" transform="translate(0 0)"/>
    <path class="j" d="M14,91.28V84.07L42.54,97.55v7.38Z" transform="translate(0 0)"/>
    <path class="d" d="M14.35,70.22v7.21L42.85,64V56.56Z" transform="translate(0 0)"/>
    <path class="j" d="M14.35,70.22v7.21L42.85,64V56.56Z" transform="translate(0 0)"/>
    <path class="a" d="M14.25,77.73V70.52L42.74,84v7.34Z" transform="translate(0 0)"/>
    <path class="j" d="M14.25,77.73V70.52L42.74,84v7.34Z" transform="translate(0 0)"/>
    <path class="d" d="M14.24,56.59V63.8L42.73,50.32V42.94Z" transform="translate(0 0)"/>
    <path class="j" d="M14.24,56.59V63.8L42.73,50.32V42.94Z" transform="translate(0 0)"/>
    <path class="a" d="M14.1,63.83V56.68L42.6,70.16v7.39Z" transform="translate(0 0)"/>
    <path class="j" d="M14.1,63.83V56.68L42.6,70.16v7.39Z" transform="translate(0 0)"/>
    <path class="a" d="M14.35,50.29V43.07l28.5,13.48v7.39Z" transform="translate(0 0)"/>
    <path class="j" d="M14.35,50.29V43.07l28.5,13.48v7.39Z" transform="translate(0 0)"/>
    <path class="d" d="M14.35,111.42v7.2l28.5-13.48V97.77Z" transform="translate(0 0)"/>
    <path class="j" d="M14.35,111.42v7.2l28.5-13.48V97.77Z" transform="translate(0 0)"/>
    <path class="a" d="M14.07,105V97.82l28.5,13.48v7.38Z" transform="translate(0 0)"/>
    <path class="j" d="M14.07,105V97.82l28.5,13.48v7.38Z" transform="translate(0 0)"/>
    <path class="d" d="M14.28,221.19v7.2l28.49-13.48v-7.38Z" transform="translate(0 0)"/>
    <path class="j" d="M14.28,221.19v7.2l28.49-13.48v-7.38Z" transform="translate(0 0)"/>
    <path class="d" d="M14.42,234.82V242l28.5-13.48v-7.39Z" transform="translate(0 0)"/>
    <path class="j" d="M14.42,234.82V242l28.5-13.48v-7.39Z" transform="translate(0 0)"/>
    <path class="a" d="M14.14,228.43v-7.21l28.5,13.48v7.39Z" transform="translate(0 0)"/>
    <path class="j" d="M14.14,228.43v-7.21l28.5,13.48v7.39Z" transform="translate(0 0)"/>
    <path class="d" d="M14.49,207.37v7.23L43,201.12v-7.38Z" transform="translate(0 0)"/>
    <path class="j" d="M14.49,207.37v7.23L43,201.12v-7.38Z" transform="translate(0 0)"/>
    <path class="a" d="M14.35,214.88v-7.21l28.5,13.48v7.39Z" transform="translate(0 0)"/>
    <path class="j" d="M14.35,214.88v-7.21l28.5,13.48v7.39Z" transform="translate(0 0)"/>
    <path class="d" d="M14.35,193.75V201l28.5-13.48v-7.38Z" transform="translate(0 0)"/>
    <path class="j" d="M14.35,193.75V201l28.5-13.48v-7.38Z" transform="translate(0 0)"/>
    <path class="a" d="M14.21,201v-7.21L42.7,207.26v7.38Z" transform="translate(0 0)"/>
    <path class="j" d="M14.21,201v-7.21L42.7,207.26v7.38Z" transform="translate(0 0)"/>
    <path class="a" d="M14.41,187.43v-7.2l28.5,13.48v7.41Z" transform="translate(0 0)"/>
    <path class="j" d="M14.41,187.43v-7.2l28.5,13.48v7.41Z" transform="translate(0 0)"/>
    <path class="d" d="M166.72,132.37v-7.21l28.5,13.48V146l-28.5-13.66Z" transform="translate(0 0)"/>
    <path class="j" d="M166.72,132.37v-7.21l28.5,13.48V146l-28.5-13.66Z" transform="translate(0 0)"/>
    <path class="d" d="M166.86,118.74v-7.18l28.5,13.49v7.38Z" transform="translate(0 0)"/>
    <path class="j" d="M166.86,118.74v-7.18l28.5,13.49v7.38Z" transform="translate(0 0)"/>
    <path class="a" d="M166.57,125.12v7.21l28.5-13.48v-7.39Z" transform="translate(0 0)"/>
    <path class="j" d="M166.57,125.12v7.21l28.5-13.48v-7.39Z" transform="translate(0 0)"/>
    <path class="d" d="M166.93,146.23V139l28.49,13.48v7.38Z" transform="translate(0 0)"/>
    <path class="j" d="M166.93,146.23V139l28.49,13.48v7.38Z" transform="translate(0 0)"/>
    <path class="a" d="M166.79,138.69v7.2l28.5-13.48v-7.36l-28.5,13.66Z" transform="translate(0 0)"/>
    <path class="j" d="M166.79,138.69v7.2l28.5-13.48v-7.36l-28.5,13.66Z" transform="translate(0 0)"/>
    <path class="d" d="M166.78,159.83v-7.21l28.5,13.48v7.39Z" transform="translate(0 0)"/>
    <path class="j" d="M166.78,159.83v-7.21l28.5,13.48v7.39Z" transform="translate(0 0)"/>
    <path class="a" d="M166.64,152.58v7.22l28.5-13.48v-7.4Z" transform="translate(0 0)"/>
    <path class="j" d="M166.64,152.58v7.22l28.5-13.48v-7.4Z" transform="translate(0 0)"/>
    <path class="a" d="M166.85,166.15v7.2l28.5-13.48v-7.38Z" transform="translate(0 0)"/>
    <path class="j" d="M166.85,166.15v7.2l28.5-13.48v-7.38Z" transform="translate(0 0)"/>
    <path class="d" d="M166.91,105V97.77l28.49,13.48v7.38Z" transform="translate(0 0)"/>
    <path class="j" d="M166.91,105V97.77l28.49,13.48v7.38Z" transform="translate(0 0)"/>
    <path class="a" d="M166.62,111.36v7.21l28.49-13.48V97.7Z" transform="translate(0 0)"/>
    <path class="j" d="M166.62,111.36v7.21l28.49-13.48V97.7Z" transform="translate(0 0)"/>
    <path class="d" d="M166.62,201.12V193.9l28.49,13.48v7.39Z" transform="translate(0 0)"/>
    <path class="j" d="M166.62,201.12V193.9l28.49,13.48v7.39Z" transform="translate(0 0)"/>
    <path class="d" d="M166.76,187.45v-7.21l28.5,13.48v7.4Z" transform="translate(0 0)"/>
    <path class="j" d="M166.76,187.45v-7.21l28.5,13.48v7.4Z" transform="translate(0 0)"/>
    <path class="a" d="M166.47,193.84v7.21L195,187.57v-7.39Z" transform="translate(0 0)"/>
    <path class="j" d="M166.47,193.84v7.21L195,187.57v-7.39Z" transform="translate(0 0)"/>
    <path class="d" d="M166.82,214.9v-7.21l28.5,13.48v7.39l-28.5-13.67Z" transform="translate(0 0)"/>
    <path class="j" d="M166.82,214.9v-7.21l28.5,13.48v7.39l-28.5-13.67Z" transform="translate(0 0)"/>
    <path class="a" d="M166.69,207.39v7.21l28.5-13.48v-7.4l-28.5,13.66Z" transform="translate(0 0)"/>
    <path class="j" d="M166.69,207.39v7.21l28.5-13.48v-7.4l-28.5,13.66Z" transform="translate(0 0)"/>
    <path class="d" d="M166.68,228.54v-7.2l28.51,13.48v7.38l-28.5-13.66Z" transform="translate(0 0)"/>
    <path class="j" d="M166.68,228.54v-7.2l28.51,13.48v7.38l-28.5-13.66Z" transform="translate(0 0)"/>
    <path class="a" d="M166.53,221.34v7.21L195,215.07v-7.39Z" transform="translate(0 0)"/>
    <path class="j" d="M166.53,221.34v7.21L195,215.07v-7.39Z" transform="translate(0 0)"/>
    <path class="a" d="M166.75,234.87v7.2l28.5-13.48V221.2Z" transform="translate(0 0)"/>
    <path class="j" d="M166.75,234.87v7.2l28.5-13.48V221.2Z" transform="translate(0 0)"/>
    <path class="d" d="M166.8,173.68v-7.23l28.5,13.48v7.39Z" transform="translate(0 0)"/>
    <path class="j" d="M166.8,173.68v-7.23l28.5,13.48v7.39Z" transform="translate(0 0)"/>
    <path class="a" d="M166.51,180.08v7.21L195,173.81v-7.36l-28.5,13.66Z" transform="translate(0 0)"/>
    <path class="j" d="M166.51,180.08v7.21L195,173.81v-7.36l-28.5,13.66Z" transform="translate(0 0)"/>
    <path class="d" d="M166.72,63.85V56.68l28.47,13.48v7.39Z" transform="translate(0 0)"/>
    <path class="j" d="M166.72,63.85V56.68l28.47,13.48v7.39Z" transform="translate(0 0)"/>
    <path class="d" d="M166.86,50.21V43l28.5,13.48v7.38Z" transform="translate(0 0)"/>
    <path class="j" d="M166.86,50.21V43l28.5,13.48v7.38Z" transform="translate(0 0)"/>
    <path class="a" d="M166.57,56.6v7.21l28.5-13.48V42.94Z" transform="translate(0 0)"/>
    <path class="j" d="M166.57,56.6v7.21l28.5-13.48V42.94Z" transform="translate(0 0)"/>
    <path class="d" d="M166.93,77.67v-7.2L195.42,84v7.39Z" transform="translate(0 0)"/>
    <path class="j" d="M166.93,77.67v-7.2L195.42,84v7.39Z" transform="translate(0 0)"/>
    <path class="a" d="M166.79,70.16v7.2l28.5-13.48V56.51Z" transform="translate(0 0)"/>
    <path class="j" d="M166.79,70.16v7.2l28.5-13.48V56.51Z" transform="translate(0 0)"/>
    <path class="d" d="M166.78,91.34V84.1l28.5,13.48V105Z" transform="translate(0 0)"/>
    <path class="j" d="M166.78,91.34V84.1l28.5,13.48V105Z" transform="translate(0 0)"/>
    <path class="a" d="M166.64,84.06v7.22l28.5-13.48V70.4Z" transform="translate(0 0)"/>
    <path class="j" d="M166.64,84.06v7.22l28.5-13.48V70.4Z" transform="translate(0 0)"/>
    <path class="a" d="M166.85,97.62v7.2l28.5-13.48V84Z" transform="translate(0 0)"/>
    <path class="j" d="M166.85,97.62v7.2l28.5-13.48V84Z" transform="translate(0 0)"/>
    <path class="d" d="M86.18,12.75h-8L93.13,38.38h8.19Z" transform="translate(0 0)"/>
    <path class="j" d="M86.18,12.75h-8L93.13,38.38h8.19Z" transform="translate(0 0)"/>
    <path class="d" d="M71.06,12.89h-8L78,38.51h8.19Z" transform="translate(0 0)"/>
    <path class="j" d="M71.06,12.89h-8L78,38.51h8.19Z" transform="translate(0 0)"/>
    <path class="a" d="M78.14,12.63h8L71.19,38.26H63Z" transform="translate(0 0)"/>
    <path class="j" d="M78.14,12.63h8L71.19,38.26H63Z" transform="translate(0 0)"/>
    <path class="d" d="M101.5,12.93h-8l15,25.64h8.19Z" transform="translate(0 0)"/>
    <path class="j" d="M101.5,12.93h-8l15,25.64h8.19Z" transform="translate(0 0)"/>
    <path class="a" d="M93.18,12.82h8L86.23,38.45H78Z" transform="translate(0 0)"/>
    <path class="j" d="M93.18,12.82h8L86.23,38.45H78Z" transform="translate(0 0)"/>
    <path class="d" d="M147.06,12.92h-8L154,38.56h8.19Z" transform="translate(0 0)"/>
    <path class="j" d="M147.06,12.92h-8L154,38.56h8.19Z" transform="translate(0 0)"/>
    <path class="d" d="M116.62,12.81h-8l14.95,25.63h8.22Z" transform="translate(0 0)"/>
    <path class="j" d="M116.62,12.81h-8l14.95,25.63h8.22Z" transform="translate(0 0)"/>
    <path class="a" d="M108.58,12.68h8L101.65,38.32H93.44Z" transform="translate(0 0)"/>
    <path class="j" d="M108.58,12.68h8L101.65,38.32H93.44Z" transform="translate(0 0)"/>
    <path class="d" d="M131.93,13.06h-8l15,25.63h8.18Z" transform="translate(0 0)"/>
    <path class="j" d="M131.93,13.06h-8l15,25.63h8.18Z" transform="translate(0 0)"/>
    <path class="a" d="M123.62,12.88h8l-15,25.63h-8.18Z" transform="translate(0 0)"/>
    <path class="j" d="M123.62,12.88h8l-15,25.63h-8.18Z" transform="translate(0 0)"/>
    <path class="a" d="M139.06,12.8h8l-15,25.63h-8.19Z" transform="translate(0 0)"/>
    <path class="j" d="M139.06,12.8h8l-15,25.63h-8.19Z" transform="translate(0 0)"/>
    <path class="d" d="M162.33,13h-8l14.95,25.63h8.23Z" transform="translate(0 0)"/>
    <path class="j" d="M162.33,13h-8l14.95,25.63h8.23Z" transform="translate(0 0)"/>
    <path class="a" d="M154.06,13h8l-15,25.63h-8.19Z" transform="translate(0 0)"/>
    <path class="j" d="M154.06,13h8l-15,25.63h-8.19Z" transform="translate(0 0)"/>
    <path class="d" d="M55.81,12.91h-8L62.76,38.55H71Z" transform="translate(0 0)"/>
    <path class="j" d="M55.81,12.91h-8L62.76,38.55H71Z" transform="translate(0 0)"/>
    <path class="d" d="M40.84,12.66h-8L47.79,38.3H56Z" transform="translate(0 0)"/>
    <path class="j" d="M40.84,12.66h-8L47.79,38.3H56Z" transform="translate(0 0)"/>
    <path class="a" d="M62.9,12.65h8l-15,25.64H47.74Z" transform="translate(0 0)"/>
    <path class="j" d="M62.9,12.65h8l-15,25.64H47.74Z" transform="translate(0 0)"/>
    <path class="d" d="M25.7,12.66h-8L32.66,38.3h8.19Z" transform="translate(0 0)"/>
    <path class="j" d="M25.7,12.66h-8L32.66,38.3h8.19Z" transform="translate(0 0)"/>
    <path class="a" d="M47.79,12.66h8l-15,25.64H32.65Z" transform="translate(0 0)"/>
    <path class="j" d="M47.79,12.66h8l-15,25.64H32.65Z" transform="translate(0 0)"/>
    <path class="a" d="M32.85,12.66h8L25.9,38.3H17.71Z" transform="translate(0 0)"/>
    <path class="j" d="M32.85,12.66h8L25.9,38.3H17.71Z" transform="translate(0 0)"/>
    <path class="d" d="M177.46,12.87h-8l15,25.63h8.19Z" transform="translate(0 0)"/>
    <path class="j" d="M177.46,12.87h-8l15,25.63h8.19Z" transform="translate(0 0)"/>
    <path class="a" d="M169.42,12.74h8L162.47,38.38h-8.2Z" transform="translate(0 0)"/>
    <path class="j" d="M169.42,12.74h8L162.47,38.38h-8.2Z" transform="translate(0 0)"/>
    <path class="a" d="M184.45,12.93h8L177.52,38.57h-8.21l15.14-25.64Z" transform="translate(0 0)"/>
    <path class="j" d="M184.45,12.93h8L177.52,38.57h-8.21l15.14-25.64Z" transform="translate(0 0)"/>
    <path class="d" d="M86.61,245.88h-8L93.56,271.5h8.19Z" transform="translate(0 0)"/>
    <path class="j" d="M86.61,245.88h-8L93.56,271.5h8.19Z" transform="translate(0 0)"/>
    <path class="d" d="M71.51,246h-8l14.94,25.63h8.19Z" transform="translate(0 0)"/>
    <path class="j" d="M71.51,246h-8l14.94,25.63h8.19Z" transform="translate(0 0)"/>
    <path class="a" d="M78.58,245.76h8L71.63,271.41H63.44Z" transform="translate(0 0)"/>
    <path class="j" d="M78.58,245.76h8L71.63,271.41H63.44Z" transform="translate(0 0)"/>
    <path class="d" d="M101.93,246.06h-8l15,25.64h8.18Z" transform="translate(0 0)"/>
    <path class="j" d="M101.93,246.06h-8l15,25.64h8.18Z" transform="translate(0 0)"/>
    <path class="a" d="M93.61,246h8l-15,25.62H78.46Z" transform="translate(0 0)"/>
    <path class="j" d="M93.61,246h8l-15,25.62H78.46Z" transform="translate(0 0)"/>
    <path class="d" d="M147.48,246.05h-8l15,25.64h8.19Z" transform="translate(0 0)"/>
    <path class="j" d="M147.48,246.05h-8l15,25.64h8.19Z" transform="translate(0 0)"/>
    <path class="d" d="M117.05,245.93h-8l15,25.63h8.18Z" transform="translate(0 0)"/>
    <path class="j" d="M117.05,245.93h-8l15,25.63h8.18Z" transform="translate(0 0)"/>
    <path class="a" d="M109,245.8h8l-14.94,25.61H93.88Z" transform="translate(0 0)"/>
    <path class="j" d="M109,245.8h8l-14.94,25.61H93.88Z" transform="translate(0 0)"/>
    <path class="d" d="M132.37,246.19h-8l14.94,25.62h8.19Z" transform="translate(0 0)"/>
    <path class="j" d="M132.37,246.19h-8l14.94,25.62h8.19Z" transform="translate(0 0)"/>
    <path class="a" d="M124.05,246h8l-14.95,25.62h-8.16Z" transform="translate(0 0)"/>
    <path class="j" d="M124.05,246h8l-14.95,25.62h-8.16Z" transform="translate(0 0)"/>
    <path class="a" d="M139.46,245.92h8l-14.94,25.64h-8.2Z" transform="translate(0 0)"/>
    <path class="j" d="M139.46,245.92h8l-14.94,25.64h-8.2Z" transform="translate(0 0)"/>
    <path class="d" d="M162.54,246.2h-8l14.95,25.63h8.19Z" transform="translate(0 0)"/>
    <path class="j" d="M162.54,246.2h-8l14.95,25.63h8.19Z" transform="translate(0 0)"/>
    <path class="a" d="M154.49,246.12h8l-14.95,25.62h-8.19Z" transform="translate(0 0)"/>
    <path class="j" d="M154.49,246.12h8l-14.95,25.62h-8.19Z" transform="translate(0 0)"/>
    <path class="d" d="M56.24,246h-8l15,25.64h8.19Z" transform="translate(0 0)"/>
    <path class="j" d="M56.24,246h-8l15,25.64h8.19Z" transform="translate(0 0)"/>
    <path class="d" d="M41,246.09H33.06L48,271.73h8.19Z" transform="translate(0 0)"/>
    <path class="j" d="M41,246.09H33.06L48,271.73h8.19Z" transform="translate(0 0)"/>
    <path class="a" d="M63.32,245.78h8L56.37,271.41H48.18l15.14-25.64Z" transform="translate(0 0)"/>
    <path class="j" d="M63.32,245.78h8L56.37,271.41H48.18l15.14-25.64Z" transform="translate(0 0)"/>
    <path class="d" d="M177.66,246.07h-8l15,25.64h8.19Z" transform="translate(0 0)"/>
    <path class="j" d="M177.66,246.07h-8l15,25.64h8.19Z" transform="translate(0 0)"/>
    <path class="a" d="M169.63,246h8l-14.94,25.62h-8.19Z" transform="translate(0 0)"/>
    <path class="j" d="M169.63,246h8l-14.94,25.62h-8.19Z" transform="translate(0 0)"/>
    <path class="a" d="M184.67,246.14h8l-15,25.63h-8.18Z" transform="translate(0 0)"/>
    <path class="j" d="M184.67,246.14h8l-15,25.63h-8.18Z" transform="translate(0 0)"/>
    <path class="a" d="M48.09,245.83h8L41.13,271.47H32.94Z" transform="translate(0 0)"/>
    <path class="j" d="M48.09,245.83h8L41.13,271.47H32.94Z" transform="translate(0 0)"/>
    <path class="d" d="M25.78,246.13h-8L32.7,271.76h8.19Z" transform="translate(0 0)"/>
    <path class="j" d="M25.78,246.13h-8L32.7,271.76h8.19Z" transform="translate(0 0)"/>
    <path class="a" d="M32.84,245.87h8L25.88,271.5H17.69Z" transform="translate(0 0)"/>
    <path class="j" d="M32.84,245.87h8L25.88,271.5H17.69Z" transform="translate(0 0)"/>
  </g>
</svg>
