<svg xmlns="http://www.w3.org/2000/svg" viewBox="0 0 210.99 284.49">
  <defs>
    <style>
      .a {
        fill: #fff;
      }

      .a, .d, .h {
        fill-rule: evenodd;
      }

      .b, .c, .e, .f, .g, .i, .j {
        fill: none;
        stroke: #17067a;
      }

      .b, .c, .e, .i {
        stroke-miterlimit: 10;
      }

      .b {
        stroke-width: 2.85px;
      }

      .c {
        stroke-width: 2.68px;
      }

      .d {
        fill: #313390;
      }

      .e {
        stroke-width: 1.64px;
      }

      .f, .g, .j {
        stroke-linejoin: round;
      }

      .f {
        stroke-width: 2.07px;
      }

      .g {
        stroke-width: 1.8px;
      }

      .h {
        fill: #17067a;
      }

      .i {
        stroke-width: 0.86px;
      }

      .j {
        stroke-linecap: round;
        stroke-width: 1.32px;
      }
    </style>
  </defs>
  <title>back</title>
  <g>
    <path class="a" d="M8.81,1.46A7,7,0,0,0,1.44,8v0h0V276.42a7,7,0,0,0,7.32,6.66H202.2a7,7,0,0,0,7.37-6.57V8.11a7,7,0,0,0-7.33-6.65H8.81Z" transform="translate(-0.01 -0.02)"/>
    <path class="b" d="M8.81,1.46A7,7,0,0,0,1.44,8v0h0V276.42a7,7,0,0,0,7.32,6.66H202.2a7,7,0,0,0,7.37-6.57V8.11a7,7,0,0,0-7.33-6.65H8.81Z" transform="translate(-0.01 -0.02)"/>
    <path class="a" d="M10.91,8A1.8,1.8,0,0,0,9,9.67H9V274.89a1.78,1.78,0,0,0,1.82,1.74H199.72a1.78,1.78,0,0,0,1.86-1.66h0V9.67A1.8,1.8,0,0,0,199.72,8Z" transform="translate(-0.01 -0.02)"/>
    <path class="c" d="M10.91,8A1.8,1.8,0,0,0,9,9.67H9V274.89a1.78,1.78,0,0,0,1.82,1.74H199.72a1.78,1.78,0,0,0,1.86-1.66h0V9.67A1.8,1.8,0,0,0,199.72,8Z" transform="translate(-0.01 -0.02)"/>
    <path class="d" d="M48.23,43a.86.86,0,0,0-.88.81h0V241.62a.86.86,0,0,0,.88.8h112.2a.84.84,0,0,0,.89-.77h0V43.77a.85.85,0,0,0-.87-.81H48.23Z" transform="translate(-0.01 -0.02)"/>
    <path class="e" d="M48.23,43a.86.86,0,0,0-.88.81h0V241.62a.86.86,0,0,0,.88.8h112.2a.84.84,0,0,0,.89-.77h0V43.77a.85.85,0,0,0-.87-.81H48.23Z" transform="translate(-0.01 -0.02)"/>
    <path class="a" d="M66,50c-5.75-.09-10.49,4.13-10.61,9.47V225c.06,5.33,4.75,9.61,10.5,9.55h76.3c5.75.11,10.49-4.12,10.61-9.46V59.54c-.06-5.33-4.76-9.62-10.51-9.57Z" transform="translate(-0.01 -0.02)"/>
    <path class="f" d="M66,50c-5.75-.09-10.49,4.13-10.61,9.47V225c.06,5.33,4.75,9.61,10.5,9.55h76.3c5.75.11,10.49-4.12,10.61-9.46V59.54c-.06-5.33-4.76-9.62-10.51-9.57Z" transform="translate(-0.01 -0.02)"/>
    <path class="d" d="M67.19,57.59a3.38,3.38,0,0,0-3.56,3.18h0v163a3.38,3.38,0,0,0,3.5,3.26h73.4a3.41,3.41,0,0,0,3.59-3.22V60.85a3.42,3.42,0,0,0-3.58-3.25H67.19Z" transform="translate(-0.01 -0.02)"/>
    <path class="g" d="M67.19,57.59a3.38,3.38,0,0,0-3.56,3.18h0v163a3.38,3.38,0,0,0,3.5,3.26h73.4a3.41,3.41,0,0,0,3.59-3.22V60.85a3.42,3.42,0,0,0-3.58-3.25H67.19Z" transform="translate(-0.01 -0.02)"/>
    <path class="h" d="M11.06,9.91h8.51l-8.4,7.54Z" transform="translate(-0.01 -0.02)"/>
    <path class="i" d="M11.06,9.91h8.51l-8.4,7.54Z" transform="translate(-0.01 -0.02)"/>
    <path class="h" d="M199.39,10.05h-8.48l8.38,7.53Z" transform="translate(-0.01 -0.02)"/>
    <path class="i" d="M199.39,10.05h-8.48l8.38,7.53Z" transform="translate(-0.01 -0.02)"/>
    <path class="h" d="M199.54,274.89h-8.48l8.4-7.53Z" transform="translate(-0.01 -0.02)"/>
    <path class="i" d="M199.54,274.89h-8.48l8.4-7.53Z" transform="translate(-0.01 -0.02)"/>
    <path class="h" d="M11.06,274.89h8.51l-8.4-7.54Z" transform="translate(-0.01 -0.02)"/>
    <path class="i" d="M11.06,274.89h8.51l-8.4-7.54Z" transform="translate(-0.01 -0.02)"/>
    <path class="d" d="M14.26,153v7.22l28.61-13.51v-7.4Z" transform="translate(-0.01 -0.02)"/>
    <path class="j" d="M14.26,153v7.22l28.61-13.51v-7.4Z" transform="translate(-0.01 -0.02)"/>
    <path class="d" d="M14.44,166.7v7.23l28.61-13.51V153Z" transform="translate(-0.01 -0.02)"/>
    <path class="j" d="M14.44,166.7v7.23l28.61-13.51V153Z" transform="translate(-0.01 -0.02)"/>
    <path class="a" d="M14.16,160.36v-7.22L42.7,166.63V174Z" transform="translate(-0.01 -0.02)"/>
    <path class="j" d="M14.16,160.36v-7.22L42.7,166.63V174Z" transform="translate(-0.01 -0.02)"/>
    <path class="d" d="M14.52,139.2v7.22L43,132.92v-7.39Z" transform="translate(-0.01 -0.02)"/>
    <path class="j" d="M14.52,139.2v7.22L43,132.92v-7.39Z" transform="translate(-0.01 -0.02)"/>
    <path class="a" d="M14.37,146.72V139.5L42.87,153v7.41Z" transform="translate(-0.01 -0.02)"/>
    <path class="j" d="M14.37,146.72V139.5L42.87,153v7.41Z" transform="translate(-0.01 -0.02)"/>
    <path class="d" d="M14.37,125.55v7.23l28.5-13.53v-7.42Z" transform="translate(-0.01 -0.02)"/>
    <path class="j" d="M14.37,125.55v7.23l28.5-13.53v-7.42Z" transform="translate(-0.01 -0.02)"/>
    <path class="a" d="M14.26,132.81v-7.23l28.53,13.51v7.4Z" transform="translate(-0.01 -0.02)"/>
    <path class="j" d="M14.26,132.81v-7.23l28.53,13.51v7.4Z" transform="translate(-0.01 -0.02)"/>
    <path class="a" d="M14.43,119.25V112L43,125.5v7.41Z" transform="translate(-0.01 -0.02)"/>
    <path class="j" d="M14.43,119.25V112L43,125.5v7.41Z" transform="translate(-0.01 -0.02)"/>
    <path class="d" d="M14.48,180.49v7.23L43,174.21v-7.38Z" transform="translate(-0.01 -0.02)"/>
    <path class="j" d="M14.48,180.49v7.23L43,174.21v-7.38Z" transform="translate(-0.01 -0.02)"/>
    <path class="a" d="M14.19,174.1v-7.22L42.73,180.4v7.39Z" transform="translate(-0.01 -0.02)"/>
    <path class="j" d="M14.19,174.1v-7.22L42.73,180.4v7.39Z" transform="translate(-0.01 -0.02)"/>
    <path class="d" d="M14.19,84.21v7.23L42.73,77.92V70.56Z" transform="translate(-0.01 -0.02)"/>
    <path class="j" d="M14.19,84.21v7.23L42.73,77.92V70.56Z" transform="translate(-0.01 -0.02)"/>
    <path class="d" d="M14.37,97.9v7.23l28.5-13.51V84.21Z" transform="translate(-0.01 -0.02)"/>
    <path class="j" d="M14.37,97.9v7.23l28.5-13.51V84.21Z" transform="translate(-0.01 -0.02)"/>
    <path class="a" d="M14.07,91.53V84.28L42.6,97.79v7.4Z" transform="translate(-0.01 -0.02)"/>
    <path class="j" d="M14.07,91.53V84.28L42.6,97.79v7.4Z" transform="translate(-0.01 -0.02)"/>
    <path class="d" d="M14.37,70.41v7.27l28.5-13.51V56.71Z" transform="translate(-0.01 -0.02)"/>
    <path class="j" d="M14.37,70.41v7.27l28.5-13.51V56.71Z" transform="translate(-0.01 -0.02)"/>
    <path class="a" d="M14.26,77.92V70.75L42.79,84.21v7.32Z" transform="translate(-0.01 -0.02)"/>
    <path class="j" d="M14.26,77.92V70.75L42.79,84.21v7.32Z" transform="translate(-0.01 -0.02)"/>
    <path class="d" d="M14.26,56.75V64L42.78,50.47V43Z" transform="translate(-0.01 -0.02)"/>
    <path class="j" d="M14.26,56.75V64L42.78,50.47V43Z" transform="translate(-0.01 -0.02)"/>
    <path class="a" d="M14.12,64V56.89L42.66,70.35v7.41Z" transform="translate(-0.01 -0.02)"/>
    <path class="j" d="M14.12,64V56.89L42.66,70.35v7.41Z" transform="translate(-0.01 -0.02)"/>
    <path class="a" d="M14.37,50.44V43.21l28.5,13.5v7.42Z" transform="translate(-0.01 -0.02)"/>
    <path class="j" d="M14.37,50.44V43.21l28.5,13.5v7.42Z" transform="translate(-0.01 -0.02)"/>
    <path class="d" d="M14.37,111.69v7.22l28.5-13.52V98Z" transform="translate(-0.01 -0.02)"/>
    <path class="j" d="M14.37,111.69v7.22l28.5-13.52V98Z" transform="translate(-0.01 -0.02)"/>
    <path class="a" d="M14.07,105.26V98l28.54,13.51V119Z" transform="translate(-0.01 -0.02)"/>
    <path class="j" d="M14.07,105.26V98l28.54,13.51V119Z" transform="translate(-0.01 -0.02)"/>
    <path class="d" d="M14.26,221.68v7.21l28.61-13.51V208Z" transform="translate(-0.01 -0.02)"/>
    <path class="j" d="M14.26,221.68v7.21l28.61-13.51V208Z" transform="translate(-0.01 -0.02)"/>
    <path class="d" d="M14.44,235.33v7.2L43.05,229v-7.39Z" transform="translate(-0.01 -0.02)"/>
    <path class="j" d="M14.44,235.33v7.2L43.05,229v-7.39Z" transform="translate(-0.01 -0.02)"/>
    <path class="a" d="M14.16,228.92v-7.21L42.7,235.2v7.42Z" transform="translate(-0.01 -0.02)"/>
    <path class="j" d="M14.16,228.92v-7.21L42.7,235.2v7.42Z" transform="translate(-0.01 -0.02)"/>
    <path class="d" d="M14.52,207.82v7.24L43,201.57v-7.4Z" transform="translate(-0.01 -0.02)"/>
    <path class="j" d="M14.52,207.82v7.24L43,201.57v-7.4Z" transform="translate(-0.01 -0.02)"/>
    <path class="a" d="M14.37,215.34v-7.21l28.5,13.5V229Z" transform="translate(-0.01 -0.02)"/>
    <path class="j" d="M14.37,215.34v-7.21l28.5,13.5V229Z" transform="translate(-0.01 -0.02)"/>
    <path class="d" d="M14.37,194.18v7.22l28.5-13.46v-7.4Z" transform="translate(-0.01 -0.02)"/>
    <path class="j" d="M14.37,194.18v7.22l28.5-13.46v-7.4Z" transform="translate(-0.01 -0.02)"/>
    <path class="a" d="M14.26,201.4v-7.22l28.53,13.5v7.39Z" transform="translate(-0.01 -0.02)"/>
    <path class="j" d="M14.26,201.4v-7.22l28.53,13.5v7.39Z" transform="translate(-0.01 -0.02)"/>
    <path class="a" d="M14.43,187.85v-7.23L43,194.11v7.43Z" transform="translate(-0.01 -0.02)"/>
    <path class="j" d="M14.43,187.85v-7.23L43,194.11v7.43Z" transform="translate(-0.01 -0.02)"/>
    <path class="d" d="M166.89,132.67v-7.22L195.42,139v7.37l-28.53-13.69Z" transform="translate(-0.01 -0.02)"/>
    <path class="j" d="M166.89,132.67v-7.22L195.42,139v7.37l-28.53-13.69Z" transform="translate(-0.01 -0.02)"/>
    <path class="d" d="M167,119v-7.2l28.53,13.52v7.39Z" transform="translate(-0.01 -0.02)"/>
    <path class="j" d="M167,119v-7.2l28.53,13.52v7.39Z" transform="translate(-0.01 -0.02)"/>
    <path class="a" d="M166.73,125.41v7.23l28.54-13.51v-7.4Z" transform="translate(-0.01 -0.02)"/>
    <path class="j" d="M166.73,125.41v7.23l28.54-13.51v-7.4Z" transform="translate(-0.01 -0.02)"/>
    <path class="d" d="M167.1,146.56v-7.25l28.52,13.51v7.4Z" transform="translate(-0.01 -0.02)"/>
    <path class="j" d="M167.1,146.56v-7.25l28.52,13.51v7.4Z" transform="translate(-0.01 -0.02)"/>
    <path class="a" d="M167,139.05v7.21l28.53-13.51v-7.37Z" transform="translate(-0.01 -0.02)"/>
    <path class="j" d="M167,139.05v7.21l28.53-13.51v-7.37Z" transform="translate(-0.01 -0.02)"/>
    <path class="d" d="M167,160.19V153l28.53,13.49v7.43Z" transform="translate(-0.01 -0.02)"/>
    <path class="j" d="M167,160.19V153l28.53,13.49v7.43Z" transform="translate(-0.01 -0.02)"/>
    <path class="a" d="M166.79,152.9v7.24l28.54-13.5v-7.4Z" transform="translate(-0.01 -0.02)"/>
    <path class="j" d="M166.79,152.9v7.24l28.54-13.5v-7.4Z" transform="translate(-0.01 -0.02)"/>
    <path class="a" d="M167,166.52v7.23l28.53-13.51v-7.4Z" transform="translate(-0.01 -0.02)"/>
    <path class="j" d="M167,166.52v7.23l28.53-13.51v-7.4Z" transform="translate(-0.01 -0.02)"/>
    <path class="d" d="M167.08,105.26V98l28.52,13.5v7.4Z" transform="translate(-0.01 -0.02)"/>
    <path class="j" d="M167.08,105.26V98l28.52,13.5v7.4Z" transform="translate(-0.01 -0.02)"/>
    <path class="a" d="M166.79,111.62v7.23l28.53-13.46V97.94Z" transform="translate(-0.01 -0.02)"/>
    <path class="j" d="M166.79,111.62v7.23l28.53-13.46V97.94Z" transform="translate(-0.01 -0.02)"/>
    <path class="d" d="M166.79,201.57v-7.25l28.53,13.51v7.43Z" transform="translate(-0.01 -0.02)"/>
    <path class="j" d="M166.79,201.57v-7.25l28.53,13.51v7.43Z" transform="translate(-0.01 -0.02)"/>
    <path class="d" d="M166.93,187.87v-7.25l28.53,13.5v7.42Z" transform="translate(-0.01 -0.02)"/>
    <path class="j" d="M166.93,187.87v-7.25l28.53,13.5v7.42Z" transform="translate(-0.01 -0.02)"/>
    <path class="a" d="M166.63,194.27v7.21L195.24,188v-7.39Z" transform="translate(-0.01 -0.02)"/>
    <path class="j" d="M166.63,194.27v7.21L195.24,188v-7.39Z" transform="translate(-0.01 -0.02)"/>
    <path class="d" d="M167,215.37v-7.22l28.53,13.5v7.41L167,215.36Z" transform="translate(-0.01 -0.02)"/>
    <path class="j" d="M167,215.37v-7.22l28.53,13.5v7.41L167,215.36Z" transform="translate(-0.01 -0.02)"/>
    <path class="a" d="M166.85,207.85v7.21l28.54-13.49v-7.42l-28.54,13.69Z" transform="translate(-0.01 -0.02)"/>
    <path class="j" d="M166.85,207.85v7.21l28.54-13.49v-7.42l-28.54,13.69Z" transform="translate(-0.01 -0.02)"/>
    <path class="d" d="M166.84,229v-7.22l28.55,13.5v7.4L166.85,229Z" transform="translate(-0.01 -0.02)"/>
    <path class="j" d="M166.84,229v-7.22l28.55,13.5v7.4L166.85,229Z" transform="translate(-0.01 -0.02)"/>
    <path class="a" d="M166.69,221.81V229l28.51-13.5v-7.41Z" transform="translate(-0.01 -0.02)"/>
    <path class="j" d="M166.69,221.81V229l28.51-13.5v-7.41Z" transform="translate(-0.01 -0.02)"/>
    <path class="a" d="M166.92,235.37v7.22l28.53-13.47v-7.41Z" transform="translate(-0.01 -0.02)"/>
    <path class="j" d="M166.92,235.37v7.22l28.53-13.47v-7.41Z" transform="translate(-0.01 -0.02)"/>
    <path class="d" d="M167,174.08v-7.25l28.53,13.49v7.42Z" transform="translate(-0.01 -0.02)"/>
    <path class="j" d="M167,174.08v-7.25l28.53,13.49v7.42Z" transform="translate(-0.01 -0.02)"/>
    <path class="a" d="M166.67,180.48v7.24L195.2,174.2v-7.37l-28.54,13.68Z" transform="translate(-0.01 -0.02)"/>
    <path class="j" d="M166.67,180.48v7.24L195.2,174.2v-7.37l-28.54,13.68Z" transform="translate(-0.01 -0.02)"/>
    <path class="d" d="M166.89,64V56.89l28.5,13.46v7.41Z" transform="translate(-0.01 -0.02)"/>
    <path class="j" d="M166.89,64V56.89l28.5,13.46v7.41Z" transform="translate(-0.01 -0.02)"/>
    <path class="d" d="M167,50.37V43.13l28.55,13.51V64Z" transform="translate(-0.01 -0.02)"/>
    <path class="j" d="M167,50.37V43.13l28.55,13.51V64Z" transform="translate(-0.01 -0.02)"/>
    <path class="a" d="M166.73,56.75V64l28.54-13.49V43Z" transform="translate(-0.01 -0.02)"/>
    <path class="j" d="M166.73,56.75V64l28.54-13.49V43Z" transform="translate(-0.01 -0.02)"/>
    <path class="d" d="M167.1,77.87V70.66l28.52,13.55v7.41Z" transform="translate(-0.01 -0.02)"/>
    <path class="j" d="M167.1,77.87V70.66l28.52,13.55v7.41Z" transform="translate(-0.01 -0.02)"/>
    <path class="a" d="M167,70.35v7.22L195.49,64V56.66Z" transform="translate(-0.01 -0.02)"/>
    <path class="j" d="M167,70.35v7.22L195.49,64V56.66Z" transform="translate(-0.01 -0.02)"/>
    <path class="d" d="M167,91.53V84.31l28.53,13.5v7.45Z" transform="translate(-0.01 -0.02)"/>
    <path class="j" d="M167,91.53V84.31l28.53,13.5v7.45Z" transform="translate(-0.01 -0.02)"/>
    <path class="a" d="M166.79,84.28v7.25l28.55-13.48V70.59Z" transform="translate(-0.01 -0.02)"/>
    <path class="j" d="M166.79,84.28v7.25l28.55-13.48V70.59Z" transform="translate(-0.01 -0.02)"/>
    <path class="a" d="M167,97.86V105l28.53-13.5V84.21Z" transform="translate(-0.01 -0.02)"/>
    <path class="j" d="M167,97.86V105l28.53-13.5V84.21Z" transform="translate(-0.01 -0.02)"/>
    <path class="d" d="M86.27,12.82h-8l15,25.74h8.2Z" transform="translate(-0.01 -0.02)"/>
    <path class="j" d="M86.27,12.82h-8l15,25.74h8.2Z" transform="translate(-0.01 -0.02)"/>
    <path class="d" d="M71.14,13h-8l15,25.68h8.18Z" transform="translate(-0.01 -0.02)"/>
    <path class="j" d="M71.14,13h-8l15,25.68h8.18Z" transform="translate(-0.01 -0.02)"/>
    <path class="a" d="M78.23,12.7h8l-15,25.74H63Z" transform="translate(-0.01 -0.02)"/>
    <path class="j" d="M78.23,12.7h8l-15,25.74H63Z" transform="translate(-0.01 -0.02)"/>
    <path class="d" d="M101.61,13.05h-8l15,25.69h8.19Z" transform="translate(-0.01 -0.02)"/>
    <path class="j" d="M101.61,13.05h-8l15,25.69h8.19Z" transform="translate(-0.01 -0.02)"/>
    <path class="a" d="M93.28,12.89h8l-15,25.69H78.09Z" transform="translate(-0.01 -0.02)"/>
    <path class="j" d="M93.28,12.89h8l-15,25.69H78.09Z" transform="translate(-0.01 -0.02)"/>
    <path class="d" d="M147.21,13h-8l15,25.74h8.2Z" transform="translate(-0.01 -0.02)"/>
    <path class="j" d="M147.21,13h-8l15,25.74h8.2Z" transform="translate(-0.01 -0.02)"/>
    <path class="d" d="M116.74,12.88h-8l15,25.74H132Z" transform="translate(-0.01 -0.02)"/>
    <path class="j" d="M116.74,12.88h-8l15,25.74H132Z" transform="translate(-0.01 -0.02)"/>
    <path class="a" d="M108.69,12.75h8l-14.9,25.74H93.54Z" transform="translate(-0.01 -0.02)"/>
    <path class="j" d="M108.69,12.75h8l-14.9,25.74H93.54Z" transform="translate(-0.01 -0.02)"/>
    <path class="d" d="M132.07,13.13h-8l15,25.73h8.19Z" transform="translate(-0.01 -0.02)"/>
    <path class="j" d="M132.07,13.13h-8l15,25.73h8.19Z" transform="translate(-0.01 -0.02)"/>
    <path class="a" d="M123.76,13h8l-15,25.74h-8.22Z" transform="translate(-0.01 -0.02)"/>
    <path class="j" d="M123.76,13h8l-15,25.74h-8.22Z" transform="translate(-0.01 -0.02)"/>
    <path class="a" d="M139.2,12.87h8l-15,25.69H124Z" transform="translate(-0.01 -0.02)"/>
    <path class="j" d="M139.2,12.87h8l-15,25.69H124Z" transform="translate(-0.01 -0.02)"/>
    <path class="d" d="M162.49,13.05h-8l15,25.74h8.24Z" transform="translate(-0.01 -0.02)"/>
    <path class="j" d="M162.49,13.05h-8l15,25.74h8.24Z" transform="translate(-0.01 -0.02)"/>
    <path class="a" d="M154.22,13.05h8l-15,25.74H139Z" transform="translate(-0.01 -0.02)"/>
    <path class="j" d="M154.22,13.05h8l-15,25.74H139Z" transform="translate(-0.01 -0.02)"/>
    <path class="d" d="M55.88,13h-8l15,25.74H71Z" transform="translate(-0.01 -0.02)"/>
    <path class="j" d="M55.88,13h-8l15,25.74H71Z" transform="translate(-0.01 -0.02)"/>
    <path class="d" d="M40.9,12.73h-8l15,25.74H56Z" transform="translate(-0.01 -0.02)"/>
    <path class="j" d="M40.9,12.73h-8l15,25.74H56Z" transform="translate(-0.01 -0.02)"/>
    <path class="a" d="M63,12.72h8L55.94,38.46H47.8Z" transform="translate(-0.01 -0.02)"/>
    <path class="j" d="M63,12.72h8L55.94,38.46H47.8Z" transform="translate(-0.01 -0.02)"/>
    <path class="d" d="M25.74,12.73h-8l15,25.74H41Z" transform="translate(-0.01 -0.02)"/>
    <path class="j" d="M25.74,12.73h-8l15,25.74H41Z" transform="translate(-0.01 -0.02)"/>
    <path class="a" d="M47.85,12.73h8l-15,25.74H32.69Z" transform="translate(-0.01 -0.02)"/>
    <path class="j" d="M47.85,12.73h8l-15,25.74H32.69Z" transform="translate(-0.01 -0.02)"/>
    <path class="a" d="M32.89,12.73h8l-15,25.74h-8.2Z" transform="translate(-0.01 -0.02)"/>
    <path class="j" d="M32.89,12.73h8l-15,25.74h-8.2Z" transform="translate(-0.01 -0.02)"/>
    <path class="d" d="M177.64,12.94h-8l15.07,25.69h8.2Z" transform="translate(-0.01 -0.02)"/>
    <path class="j" d="M177.64,12.94h-8l15.07,25.69h8.2Z" transform="translate(-0.01 -0.02)"/>
    <path class="a" d="M169.59,12.81h8l-15,25.74h-8.25Z" transform="translate(-0.01 -0.02)"/>
    <path class="j" d="M169.59,12.81h8l-15,25.74h-8.25Z" transform="translate(-0.01 -0.02)"/>
    <path class="a" d="M184.64,13.05h8L177.73,38.69h-8.22Z" transform="translate(-0.01 -0.02)"/>
    <path class="j" d="M184.64,13.05h8L177.73,38.69h-8.22Z" transform="translate(-0.01 -0.02)"/>
    <path class="d" d="M86.71,246.42h-8l15,25.66h8.2Z" transform="translate(-0.01 -0.02)"/>
    <path class="j" d="M86.71,246.42h-8l15,25.66h8.2Z" transform="translate(-0.01 -0.02)"/>
    <path class="d" d="M71.59,246.53h-8l15,25.67h8.2Z" transform="translate(-0.01 -0.02)"/>
    <path class="j" d="M71.59,246.53h-8l15,25.67h8.2Z" transform="translate(-0.01 -0.02)"/>
    <path class="a" d="M78.67,246.28h8L71.72,272H63.53Z" transform="translate(-0.01 -0.02)"/>
    <path class="j" d="M78.67,246.28h8L71.72,272H63.53Z" transform="translate(-0.01 -0.02)"/>
    <path class="d" d="M102.06,246.59H94l15,25.74h8.19Z" transform="translate(-0.01 -0.02)"/>
    <path class="j" d="M102.06,246.59H94l15,25.74h8.19Z" transform="translate(-0.01 -0.02)"/>
    <path class="a" d="M93.71,246.53h8l-15,25.67H78.55Z" transform="translate(-0.01 -0.02)"/>
    <path class="j" d="M93.71,246.53h8l-15,25.67H78.55Z" transform="translate(-0.01 -0.02)"/>
    <path class="d" d="M147.63,246.59h-8l15,25.68h8.2Z" transform="translate(-0.01 -0.02)"/>
    <path class="j" d="M147.63,246.59h-8l15,25.68h8.2Z" transform="translate(-0.01 -0.02)"/>
    <path class="d" d="M117.17,246.47h-8l15.07,25.67h8.18Z" transform="translate(-0.01 -0.02)"/>
    <path class="j" d="M117.17,246.47h-8l15.07,25.67h8.18Z" transform="translate(-0.01 -0.02)"/>
    <path class="a" d="M109.11,246.33h8l-15,25.67H94Z" transform="translate(-0.01 -0.02)"/>
    <path class="j" d="M109.11,246.33h8l-15,25.67H94Z" transform="translate(-0.01 -0.02)"/>
    <path class="d" d="M132.5,246.73h-8l15,25.66h8.27Z" transform="translate(-0.01 -0.02)"/>
    <path class="j" d="M132.5,246.73h-8l15,25.66h8.27Z" transform="translate(-0.01 -0.02)"/>
    <path class="a" d="M124.18,246.53h8l-15,25.67H109Z" transform="translate(-0.01 -0.02)"/>
    <path class="j" d="M124.18,246.53h8l-15,25.67H109Z" transform="translate(-0.01 -0.02)"/>
    <path class="a" d="M139.61,246.45h8l-15,25.69h-8.2Z" transform="translate(-0.01 -0.02)"/>
    <path class="j" d="M139.61,246.45h8l-15,25.69h-8.2Z" transform="translate(-0.01 -0.02)"/>
    <path class="d" d="M162.71,246.73h-8l15,25.73h8.22Z" transform="translate(-0.01 -0.02)"/>
    <path class="j" d="M162.71,246.73h-8l15,25.73h8.22Z" transform="translate(-0.01 -0.02)"/>
    <path class="a" d="M154.65,246.65h8l-15,25.68h-8.11Z" transform="translate(-0.01 -0.02)"/>
    <path class="j" d="M154.65,246.65h8l-15,25.68h-8.11Z" transform="translate(-0.01 -0.02)"/>
    <path class="d" d="M56.27,246.53h-8l15.08,25.74h8.19Z" transform="translate(-0.01 -0.02)"/>
    <path class="j" d="M56.27,246.53h-8l15.08,25.74h8.19Z" transform="translate(-0.01 -0.02)"/>
    <path class="d" d="M41,246.62H33.12L48,272.31h8.23Z" transform="translate(-0.01 -0.02)"/>
    <path class="j" d="M41,246.62H33.12L48,272.31h8.23Z" transform="translate(-0.01 -0.02)"/>
    <path class="a" d="M63.4,246.3h8L56.4,272H48.21L63.37,246.3Z" transform="translate(-0.01 -0.02)"/>
    <path class="j" d="M63.4,246.3h8L56.4,272H48.21L63.37,246.3Z" transform="translate(-0.01 -0.02)"/>
    <path class="d" d="M177.85,246.61h-8l15.07,25.74h8.19Z" transform="translate(-0.01 -0.02)"/>
    <path class="j" d="M177.85,246.61h-8l15.07,25.74h8.19Z" transform="translate(-0.01 -0.02)"/>
    <path class="a" d="M169.81,246.53h8l-15,25.67h-8.2Z" transform="translate(-0.01 -0.02)"/>
    <path class="j" d="M169.81,246.53h8l-15,25.67h-8.2Z" transform="translate(-0.01 -0.02)"/>
    <path class="a" d="M184.92,246.67h8L177.85,272.4h-8.19Z" transform="translate(-0.01 -0.02)"/>
    <path class="j" d="M184.92,246.67h8L177.85,272.4h-8.19Z" transform="translate(-0.01 -0.02)"/>
    <path class="a" d="M48.14,246.37h8L41.14,272H33Z" transform="translate(-0.01 -0.02)"/>
    <path class="j" d="M48.14,246.37h8L41.14,272H33Z" transform="translate(-0.01 -0.02)"/>
    <path class="d" d="M25.82,246.67h-8l14.89,25.67H40.9Z" transform="translate(-0.01 -0.02)"/>
    <path class="j" d="M25.82,246.67h-8l14.89,25.67H40.9Z" transform="translate(-0.01 -0.02)"/>
    <path class="a" d="M32.88,246.4h8l-15,25.67H17.72Z" transform="translate(-0.01 -0.02)"/>
    <path class="j" d="M32.88,246.4h8l-15,25.67H17.72Z" transform="translate(-0.01 -0.02)"/>
  </g>
</svg>
