<svg xmlns="http://www.w3.org/2000/svg" viewBox="0 0 202.96 294.72">
  <defs>
    <style>
      .a {
        fill: #fff;
      }

      .a, .d, .h {
        fill-rule: evenodd;
      }

      .b, .c, .e, .f, .g, .i, .j {
        fill: none;
        stroke: #17067a;
      }

      .b, .c, .e, .i {
        stroke-miterlimit: 10;
      }

      .b {
        stroke-width: 2.85px;
      }

      .c {
        stroke-width: 2.68px;
      }

      .d {
        fill: #313390;
      }

      .e {
        stroke-width: 1.64px;
      }

      .f, .g, .j {
        stroke-linejoin: round;
      }

      .f {
        stroke-width: 2.07px;
      }

      .g {
        stroke-width: 1.8px;
      }

      .h {
        fill: #17067a;
      }

      .i {
        stroke-width: 0.86px;
      }

      .j {
        stroke-linecap: round;
        stroke-width: 1.32px;
      }
    </style>
  </defs>
  <title>back</title>
  <g>
    <path class="a" d="M11.65,5.62A7,7,0,0,0,4.56,12.5V290.6a7,7,0,0,0,7.09,6.89H197.58a7,7,0,0,0,7.09-6.89V12.5a7,7,0,0,0-7.09-6.88Z" transform="translate(-3.13 -4.19)"/>
    <path class="b" d="M11.65,5.62A7,7,0,0,0,4.56,12.5V290.6a7,7,0,0,0,7.09,6.89H197.58a7,7,0,0,0,7.09-6.89V12.5a7,7,0,0,0-7.09-6.88Z" transform="translate(-3.13 -4.19)"/>
    <path class="a" d="M13.66,12.37a1.77,1.77,0,0,0-1.79,1.74V289a1.76,1.76,0,0,0,1.79,1.73H195.12a1.76,1.76,0,0,0,1.79-1.73V14.11a1.77,1.77,0,0,0-1.79-1.74Z" transform="translate(-3.13 -4.19)"/>
    <path class="c" d="M13.66,12.37a1.77,1.77,0,0,0-1.79,1.74V289a1.76,1.76,0,0,0,1.79,1.73H195.12a1.76,1.76,0,0,0,1.79-1.73V14.11a1.77,1.77,0,0,0-1.79-1.74Z" transform="translate(-3.13 -4.19)"/>
    <path class="d" d="M49.56,48.62a.85.85,0,0,0-.86.84V254.53a.85.85,0,0,0,.86.83H157.4a.84.84,0,0,0,.86-.83V49.46a.84.84,0,0,0-.86-.84Z" transform="translate(-3.13 -4.19)"/>
    <path class="e" d="M49.56,48.62a.85.85,0,0,0-.86.84V254.53a.85.85,0,0,0,.86.83H157.4a.84.84,0,0,0,.86-.83V49.46a.84.84,0,0,0-.86-.84Z" transform="translate(-3.13 -4.19)"/>
    <path class="a" d="M66.64,55.89a10,10,0,0,0-10.2,9.9V237.31a10,10,0,0,0,10.2,9.9h73.24a10,10,0,0,0,10.2-9.9V65.79a10,10,0,0,0-10.2-9.9Z" transform="translate(-3.13 -4.19)"/>
    <path class="f" d="M66.64,55.89a10,10,0,0,0-10.2,9.9V237.31a10,10,0,0,0,10.2,9.9h73.24a10,10,0,0,0,10.2-9.9V65.79a10,10,0,0,0-10.2-9.9Z" transform="translate(-3.13 -4.19)"/>
    <path class="d" d="M67.77,63.78a3.37,3.37,0,0,0-3.43,3.33V236a3.38,3.38,0,0,0,3.43,3.33h70.52a3.39,3.39,0,0,0,3.44-3.33V67.11a3.38,3.38,0,0,0-3.44-3.33Z" transform="translate(-3.13 -4.19)"/>
    <path class="g" d="M67.77,63.78a3.37,3.37,0,0,0-3.43,3.33V236a3.38,3.38,0,0,0,3.43,3.33h70.52a3.39,3.39,0,0,0,3.44-3.33V67.11a3.38,3.38,0,0,0-3.44-3.33Z" transform="translate(-3.13 -4.19)"/>
    <path class="h" d="M13.81,14.36H22l-8.07,7.81-.08-7.81Z" transform="translate(-3.13 -4.19)"/>
    <path class="i" d="M13.81,14.36H22l-8.07,7.81-.08-7.81Z" transform="translate(-3.13 -4.19)"/>
    <path class="h" d="M194.84,14.46H186.7l8.06,7.81.08-7.81Z" transform="translate(-3.13 -4.19)"/>
    <path class="i" d="M194.84,14.46H186.7l8.06,7.81.08-7.81Z" transform="translate(-3.13 -4.19)"/>
    <path class="h" d="M195,289h-8.15l8.07-7.81L195,289Z" transform="translate(-3.13 -4.19)"/>
    <path class="i" d="M195,289h-8.15l8.07-7.81L195,289Z" transform="translate(-3.13 -4.19)"/>
    <path class="h" d="M13.81,289H22l-8.07-7.82L13.81,289Z" transform="translate(-3.13 -4.19)"/>
    <path class="i" d="M13.81,289H22l-8.07-7.82L13.81,289Z" transform="translate(-3.13 -4.19)"/>
    <path class="d" d="M16.93,162.73v7.48l27.42-14v-7.67L16.93,162.73Z" transform="translate(-3.13 -4.19)"/>
    <path class="j" d="M16.93,162.73v7.48l27.42-14v-7.67L16.93,162.73Z" transform="translate(-3.13 -4.19)"/>
    <path class="d" d="M17.07,176.88v7.48l27.42-14V162.7L17.07,176.88Z" transform="translate(-3.13 -4.19)"/>
    <path class="j" d="M17.07,176.88v7.48l27.42-14V162.7L17.07,176.88Z" transform="translate(-3.13 -4.19)"/>
    <path class="a" d="M16.8,170.25v-7.49l27.42,14v7.67L16.8,170.25Z" transform="translate(-3.13 -4.19)"/>
    <path class="j" d="M16.8,170.25v-7.49l27.42,14v7.67L16.8,170.25Z" transform="translate(-3.13 -4.19)"/>
    <path class="d" d="M17.13,148.38v7.48l27.42-14V134.2L17.13,148.38Z" transform="translate(-3.13 -4.19)"/>
    <path class="j" d="M17.13,148.38v7.48l27.42-14V134.2L17.13,148.38Z" transform="translate(-3.13 -4.19)"/>
    <path class="a" d="M17,156.17v-7.48l27.42,14v7.67L17,156.17Z" transform="translate(-3.13 -4.19)"/>
    <path class="j" d="M17,156.17v-7.48l27.42,14v7.67L17,156.17Z" transform="translate(-3.13 -4.19)"/>
    <path class="d" d="M17,134.23v7.48l27.42-14v-7.67L17,134.23Z" transform="translate(-3.13 -4.19)"/>
    <path class="j" d="M17,134.23v7.48l27.42-14v-7.67L17,134.23Z" transform="translate(-3.13 -4.19)"/>
    <path class="a" d="M16.86,141.75v-7.49l27.42,14v7.67L16.86,141.75Z" transform="translate(-3.13 -4.19)"/>
    <path class="j" d="M16.86,141.75v-7.49l27.42,14v7.67L16.86,141.75Z" transform="translate(-3.13 -4.19)"/>
    <path class="a" d="M17.06,127.67v-7.48l27.42,14v7.67L17.06,127.67Z" transform="translate(-3.13 -4.19)"/>
    <path class="j" d="M17.06,127.67v-7.48l27.42,14v7.67L17.06,127.67Z" transform="translate(-3.13 -4.19)"/>
    <path class="d" d="M17.11,191.16v7.49l27.42-14V177Z" transform="translate(-3.13 -4.19)"/>
    <path class="j" d="M17.11,191.16v7.49l27.42-14V177Z" transform="translate(-3.13 -4.19)"/>
    <path class="a" d="M16.83,184.53v-7.48l27.42,14v7.67Z" transform="translate(-3.13 -4.19)"/>
    <path class="j" d="M16.83,184.53v-7.48l27.42,14v7.67Z" transform="translate(-3.13 -4.19)"/>
    <path class="d" d="M16.83,91.41V98.9l27.42-14V77.23Z" transform="translate(-3.13 -4.19)"/>
    <path class="j" d="M16.83,91.41V98.9l27.42-14V77.23Z" transform="translate(-3.13 -4.19)"/>
    <path class="d" d="M17,105.56v7.49l27.42-14V91.39Z" transform="translate(-3.13 -4.19)"/>
    <path class="j" d="M17,105.56v7.49l27.42-14V91.39Z" transform="translate(-3.13 -4.19)"/>
    <path class="a" d="M16.69,98.93V91.45l27.43,14v7.66Z" transform="translate(-3.13 -4.19)"/>
    <path class="j" d="M16.69,98.93V91.45l27.43,14v7.66Z" transform="translate(-3.13 -4.19)"/>
    <path class="d" d="M17,77.06v7.49l27.42-14V62.88Z" transform="translate(-3.13 -4.19)"/>
    <path class="j" d="M17,77.06v7.49l27.42-14V62.88Z" transform="translate(-3.13 -4.19)"/>
    <path class="a" d="M16.9,84.86V77.37l27.42,14V99Z" transform="translate(-3.13 -4.19)"/>
    <path class="j" d="M16.9,84.86V77.37l27.42,14V99Z" transform="translate(-3.13 -4.19)"/>
    <path class="d" d="M16.89,62.91V70.4l27.42-14V48.73Z" transform="translate(-3.13 -4.19)"/>
    <path class="j" d="M16.89,62.91V70.4l27.42-14V48.73Z" transform="translate(-3.13 -4.19)"/>
    <path class="a" d="M16.76,70.43V63l27.42,14v7.67Z" transform="translate(-3.13 -4.19)"/>
    <path class="j" d="M16.76,70.43V63l27.42,14v7.67Z" transform="translate(-3.13 -4.19)"/>
    <path class="a" d="M17,56.36V48.87l27.42,14v7.67Z" transform="translate(-3.13 -4.19)"/>
    <path class="j" d="M17,56.36V48.87l27.42,14v7.67Z" transform="translate(-3.13 -4.19)"/>
    <path class="d" d="M17,119.85v7.48l27.42-14v-7.66Z" transform="translate(-3.13 -4.19)"/>
    <path class="j" d="M17,119.85v7.48l27.42-14v-7.66Z" transform="translate(-3.13 -4.19)"/>
    <path class="a" d="M16.73,113.22v-7.49l27.42,14v7.66Z" transform="translate(-3.13 -4.19)"/>
    <path class="j" d="M16.73,113.22v-7.49l27.42,14v7.66Z" transform="translate(-3.13 -4.19)"/>
    <path class="d" d="M16.93,233.85v7.48l27.42-14v-7.67L16.93,233.85Z" transform="translate(-3.13 -4.19)"/>
    <path class="j" d="M16.93,233.85v7.48l27.42-14v-7.67L16.93,233.85Z" transform="translate(-3.13 -4.19)"/>
    <path class="d" d="M17.07,248v7.48l27.42-14v-7.67L17.07,248Z" transform="translate(-3.13 -4.19)"/>
    <path class="j" d="M17.07,248v7.48l27.42-14v-7.67L17.07,248Z" transform="translate(-3.13 -4.19)"/>
    <path class="a" d="M16.8,241.37v-7.49l27.42,14v7.67Z" transform="translate(-3.13 -4.19)"/>
    <path class="j" d="M16.8,241.37v-7.49l27.42,14v7.67Z" transform="translate(-3.13 -4.19)"/>
    <path class="d" d="M17.13,219.5V227l27.42-14v-7.66L17.13,219.5Z" transform="translate(-3.13 -4.19)"/>
    <path class="j" d="M17.13,219.5V227l27.42-14v-7.66L17.13,219.5Z" transform="translate(-3.13 -4.19)"/>
    <path class="a" d="M17,227.29v-7.48l27.42,14v7.67L17,227.29Z" transform="translate(-3.13 -4.19)"/>
    <path class="j" d="M17,227.29v-7.48l27.42,14v7.67L17,227.29Z" transform="translate(-3.13 -4.19)"/>
    <path class="d" d="M17,205.35v7.48l27.42-14v-7.66Z" transform="translate(-3.13 -4.19)"/>
    <path class="j" d="M17,205.35v7.48l27.42-14v-7.66Z" transform="translate(-3.13 -4.19)"/>
    <path class="a" d="M16.86,212.87v-7.49l27.42,14v7.67L16.86,212.87Z" transform="translate(-3.13 -4.19)"/>
    <path class="j" d="M16.86,212.87v-7.49l27.42,14v7.67L16.86,212.87Z" transform="translate(-3.13 -4.19)"/>
    <path class="a" d="M17.06,198.79v-7.48l27.42,14V213Z" transform="translate(-3.13 -4.19)"/>
    <path class="j" d="M17.06,198.79v-7.48l27.42,14V213Z" transform="translate(-3.13 -4.19)"/>
    <path class="d" d="M163.61,141.61v-7.49l27.42,14v7.67l-27.42-14.18Z" transform="translate(-3.13 -4.19)"/>
    <path class="j" d="M163.61,141.61v-7.49l27.42,14v7.67l-27.42-14.18Z" transform="translate(-3.13 -4.19)"/>
    <path class="d" d="M163.75,127.45V120l27.42,14v7.67Z" transform="translate(-3.13 -4.19)"/>
    <path class="j" d="M163.75,127.45V120l27.42,14v7.67Z" transform="translate(-3.13 -4.19)"/>
    <path class="a" d="M163.47,134.08v7.49l27.42-14v-7.68l-27.42,14.19Z" transform="translate(-3.13 -4.19)"/>
    <path class="j" d="M163.47,134.08v7.49l27.42-14v-7.68l-27.42,14.19Z" transform="translate(-3.13 -4.19)"/>
    <path class="d" d="M163.81,156v-7.48l27.42,14v7.67Z" transform="translate(-3.13 -4.19)"/>
    <path class="j" d="M163.81,156v-7.48l27.42,14v7.67Z" transform="translate(-3.13 -4.19)"/>
    <path class="a" d="M163.68,148.17v7.48l27.42-14V134l-27.42,14.19Z" transform="translate(-3.13 -4.19)"/>
    <path class="j" d="M163.68,148.17v7.48l27.42-14V134l-27.42,14.19Z" transform="translate(-3.13 -4.19)"/>
    <path class="d" d="M163.67,170.12v-7.48l27.42,14v7.67l-27.42-14.19Z" transform="translate(-3.13 -4.19)"/>
    <path class="j" d="M163.67,170.12v-7.48l27.42,14v7.67l-27.42-14.19Z" transform="translate(-3.13 -4.19)"/>
    <path class="a" d="M163.53,162.6v7.49l27.43-14v-7.68Z" transform="translate(-3.13 -4.19)"/>
    <path class="j" d="M163.53,162.6v7.49l27.43-14v-7.68Z" transform="translate(-3.13 -4.19)"/>
    <path class="a" d="M163.74,176.69v7.48l27.42-14V162.5Z" transform="translate(-3.13 -4.19)"/>
    <path class="j" d="M163.74,176.69v7.48l27.42-14V162.5Z" transform="translate(-3.13 -4.19)"/>
    <path class="d" d="M163.79,113.16v-7.49l27.42,14v7.67l-27.42-14.18Z" transform="translate(-3.13 -4.19)"/>
    <path class="j" d="M163.79,113.16v-7.49l27.42,14v7.67l-27.42-14.18Z" transform="translate(-3.13 -4.19)"/>
    <path class="a" d="M163.51,119.79v7.49l27.42-14V105.6Z" transform="translate(-3.13 -4.19)"/>
    <path class="j" d="M163.51,119.79v7.49l27.42-14V105.6Z" transform="translate(-3.13 -4.19)"/>
    <path class="d" d="M163.51,213v-7.49l27.42,14v7.67Z" transform="translate(-3.13 -4.19)"/>
    <path class="j" d="M163.51,213v-7.49l27.42,14v7.67Z" transform="translate(-3.13 -4.19)"/>
    <path class="d" d="M163.65,198.81v-7.49l27.42,14V213Z" transform="translate(-3.13 -4.19)"/>
    <path class="j" d="M163.65,198.81v-7.49l27.42,14V213Z" transform="translate(-3.13 -4.19)"/>
    <path class="a" d="M163.37,205.44v7.49l27.42-14v-7.67Z" transform="translate(-3.13 -4.19)"/>
    <path class="j" d="M163.37,205.44v7.49l27.42-14v-7.67Z" transform="translate(-3.13 -4.19)"/>
    <path class="d" d="M163.71,227.32v-7.49l27.42,14v7.67l-27.42-14.19Z" transform="translate(-3.13 -4.19)"/>
    <path class="j" d="M163.71,227.32v-7.49l27.42,14v7.67l-27.42-14.19Z" transform="translate(-3.13 -4.19)"/>
    <path class="a" d="M163.58,219.52V227L191,213v-7.68l-27.42,14.19Z" transform="translate(-3.13 -4.19)"/>
    <path class="j" d="M163.58,219.52V227L191,213v-7.68l-27.42,14.19Z" transform="translate(-3.13 -4.19)"/>
    <path class="d" d="M163.57,241.48V234L191,248v7.67l-27.42-14.19Z" transform="translate(-3.13 -4.19)"/>
    <path class="j" d="M163.57,241.48V234L191,248v7.67l-27.42-14.19Z" transform="translate(-3.13 -4.19)"/>
    <path class="a" d="M163.43,234v7.49l27.42-14v-7.67Z" transform="translate(-3.13 -4.19)"/>
    <path class="j" d="M163.43,234v7.49l27.42-14v-7.67Z" transform="translate(-3.13 -4.19)"/>
    <path class="a" d="M163.64,248.05v7.48l27.42-14v-7.67l-27.42,14.19Z" transform="translate(-3.13 -4.19)"/>
    <path class="j" d="M163.64,248.05v7.48l27.42-14v-7.67l-27.42,14.19Z" transform="translate(-3.13 -4.19)"/>
    <path class="d" d="M163.69,184.51V177l27.42,14v7.67Z" transform="translate(-3.13 -4.19)"/>
    <path class="j" d="M163.69,184.51V177l27.42,14v7.67Z" transform="translate(-3.13 -4.19)"/>
    <path class="a" d="M163.41,191.15v7.49l27.42-14V177l-27.42,14.19Z" transform="translate(-3.13 -4.19)"/>
    <path class="j" d="M163.41,191.15v7.49l27.42-14V177l-27.42,14.19Z" transform="translate(-3.13 -4.19)"/>
    <path class="d" d="M163.61,70.45V63L191,77v7.67L163.61,70.45Z" transform="translate(-3.13 -4.19)"/>
    <path class="j" d="M163.61,70.45V63L191,77v7.67L163.61,70.45Z" transform="translate(-3.13 -4.19)"/>
    <path class="d" d="M163.75,56.28V48.8l27.42,14v7.67L163.75,56.28Z" transform="translate(-3.13 -4.19)"/>
    <path class="j" d="M163.75,56.28V48.8l27.42,14v7.67L163.75,56.28Z" transform="translate(-3.13 -4.19)"/>
    <path class="a" d="M163.47,62.92v7.49l27.42-14V48.73L163.47,62.92Z" transform="translate(-3.13 -4.19)"/>
    <path class="j" d="M163.47,62.92v7.49l27.42-14V48.73L163.47,62.92Z" transform="translate(-3.13 -4.19)"/>
    <path class="d" d="M163.81,84.8V77.32l27.42,14V99L163.81,84.8Z" transform="translate(-3.13 -4.19)"/>
    <path class="j" d="M163.81,84.8V77.32l27.42,14V99L163.81,84.8Z" transform="translate(-3.13 -4.19)"/>
    <path class="a" d="M163.68,77v7.48l27.42-14V62.82L163.68,77Z" transform="translate(-3.13 -4.19)"/>
    <path class="j" d="M163.68,77v7.48l27.42-14V62.82L163.68,77Z" transform="translate(-3.13 -4.19)"/>
    <path class="d" d="M163.67,99V91.48l27.42,14v7.67L163.67,99Z" transform="translate(-3.13 -4.19)"/>
    <path class="j" d="M163.67,99V91.48l27.42,14v7.67L163.67,99Z" transform="translate(-3.13 -4.19)"/>
    <path class="a" d="M163.53,91.44v7.49l27.43-14V77.25Z" transform="translate(-3.13 -4.19)"/>
    <path class="j" d="M163.53,91.44v7.49l27.43-14V77.25Z" transform="translate(-3.13 -4.19)"/>
    <path class="a" d="M163.74,105.52V113l27.42-14V91.34Z" transform="translate(-3.13 -4.19)"/>
    <path class="j" d="M163.74,105.52V113l27.42-14V91.34Z" transform="translate(-3.13 -4.19)"/>
    <path class="d" d="M86.11,17.38H78.42L92.8,44h7.88Z" transform="translate(-3.13 -4.19)"/>
    <path class="j" d="M86.11,17.38H78.42L92.8,44h7.88Z" transform="translate(-3.13 -4.19)"/>
    <path class="d" d="M71.57,17.52h-7.7L78.26,44.13h7.88Z" transform="translate(-3.13 -4.19)"/>
    <path class="j" d="M71.57,17.52h-7.7L78.26,44.13h7.88Z" transform="translate(-3.13 -4.19)"/>
    <path class="a" d="M78.38,17.25h7.69L71.69,43.87H63.81Z" transform="translate(-3.13 -4.19)"/>
    <path class="j" d="M78.38,17.25h7.69L71.69,43.87H63.81Z" transform="translate(-3.13 -4.19)"/>
    <path class="d" d="M100.86,17.57h-7.7l14.39,26.62h7.88L100.86,17.57Z" transform="translate(-3.13 -4.19)"/>
    <path class="j" d="M100.86,17.57h-7.7l14.39,26.62h7.88L100.86,17.57Z" transform="translate(-3.13 -4.19)"/>
    <path class="a" d="M92.85,17.45h7.69L86.16,44.07H78.28L92.85,17.45Z" transform="translate(-3.13 -4.19)"/>
    <path class="j" d="M92.85,17.45h7.69L86.16,44.07H78.28L92.85,17.45Z" transform="translate(-3.13 -4.19)"/>
    <path class="d" d="M144.69,17.56H137l14.38,26.62h7.88Z" transform="translate(-3.13 -4.19)"/>
    <path class="j" d="M144.69,17.56H137l14.38,26.62h7.88Z" transform="translate(-3.13 -4.19)"/>
    <path class="d" d="M115.4,17.44h-7.69l14.38,26.62H130Z" transform="translate(-3.13 -4.19)"/>
    <path class="j" d="M115.4,17.44h-7.69l14.38,26.62H130Z" transform="translate(-3.13 -4.19)"/>
    <path class="a" d="M107.67,17.31h7.69L101,43.93H93.1l14.57-26.62Z" transform="translate(-3.13 -4.19)"/>
    <path class="j" d="M107.67,17.31h7.69L101,43.93H93.1l14.57-26.62Z" transform="translate(-3.13 -4.19)"/>
    <path class="d" d="M130.14,17.7h-7.69l14.39,26.62h7.87L130.14,17.7Z" transform="translate(-3.13 -4.19)"/>
    <path class="j" d="M130.14,17.7h-7.69l14.39,26.62h7.87L130.14,17.7Z" transform="translate(-3.13 -4.19)"/>
    <path class="a" d="M122.14,17.51h7.69L115.44,44.13h-7.87Z" transform="translate(-3.13 -4.19)"/>
    <path class="j" d="M122.14,17.51h7.69L115.44,44.13h-7.87Z" transform="translate(-3.13 -4.19)"/>
    <path class="a" d="M137,17.43h7.69L130.27,44.05h-7.88L137,17.43Z" transform="translate(-3.13 -4.19)"/>
    <path class="j" d="M137,17.43h7.69L130.27,44.05h-7.88L137,17.43Z" transform="translate(-3.13 -4.19)"/>
    <path class="d" d="M159.39,17.63H151.7l14.38,26.62H174L159.39,17.63Z" transform="translate(-3.13 -4.19)"/>
    <path class="j" d="M159.39,17.63H151.7l14.38,26.62H174L159.39,17.63Z" transform="translate(-3.13 -4.19)"/>
    <path class="a" d="M151.43,17.63h7.69L144.73,44.25h-7.88l14.58-26.62Z" transform="translate(-3.13 -4.19)"/>
    <path class="j" d="M151.43,17.63h7.69L144.73,44.25h-7.88l14.58-26.62Z" transform="translate(-3.13 -4.19)"/>
    <path class="d" d="M56.89,17.55H49.2L63.58,44.17h7.88Z" transform="translate(-3.13 -4.19)"/>
    <path class="j" d="M56.89,17.55H49.2L63.58,44.17h7.88Z" transform="translate(-3.13 -4.19)"/>
    <path class="d" d="M42.49,17.29H34.8L49.18,43.91h7.88L42.49,17.29Z" transform="translate(-3.13 -4.19)"/>
    <path class="j" d="M42.49,17.29H34.8L49.18,43.91h7.88L42.49,17.29Z" transform="translate(-3.13 -4.19)"/>
    <path class="a" d="M63.71,17.28H71.4L57,43.9H49.13L63.71,17.28Z" transform="translate(-3.13 -4.19)"/>
    <path class="j" d="M63.71,17.28H71.4L57,43.9H49.13L63.71,17.28Z" transform="translate(-3.13 -4.19)"/>
    <path class="d" d="M27.92,17.29H20.23L34.62,43.91H42.5Z" transform="translate(-3.13 -4.19)"/>
    <path class="j" d="M27.92,17.29H20.23L34.62,43.91H42.5Z" transform="translate(-3.13 -4.19)"/>
    <path class="a" d="M49.18,17.29h7.69L42.48,43.91H34.61L49.18,17.29Z" transform="translate(-3.13 -4.19)"/>
    <path class="j" d="M49.18,17.29h7.69L42.48,43.91H34.61L49.18,17.29Z" transform="translate(-3.13 -4.19)"/>
    <path class="a" d="M34.8,17.29h7.7L28.11,43.91H20.23L34.8,17.29Z" transform="translate(-3.13 -4.19)"/>
    <path class="j" d="M34.8,17.29h7.7L28.11,43.91H20.23L34.8,17.29Z" transform="translate(-3.13 -4.19)"/>
    <path class="d" d="M173.94,17.5h-7.7l14.39,26.62h7.88L173.94,17.5Z" transform="translate(-3.13 -4.19)"/>
    <path class="j" d="M173.94,17.5h-7.7l14.39,26.62h7.88L173.94,17.5Z" transform="translate(-3.13 -4.19)"/>
    <path class="a" d="M166.21,17.37h7.69L159.52,44h-7.89Z" transform="translate(-3.13 -4.19)"/>
    <path class="j" d="M166.21,17.37h7.69L159.52,44h-7.89Z" transform="translate(-3.13 -4.19)"/>
    <path class="a" d="M180.67,17.57h7.69L174,44.19H166.1l14.57-26.62Z" transform="translate(-3.13 -4.19)"/>
    <path class="j" d="M180.67,17.57h7.69L174,44.19H166.1l14.57-26.62Z" transform="translate(-3.13 -4.19)"/>
    <path class="d" d="M86.53,259.49H78.84L93.22,286.1h7.88L86.53,259.49Z" transform="translate(-3.13 -4.19)"/>
    <path class="j" d="M86.53,259.49H78.84L93.22,286.1h7.88L86.53,259.49Z" transform="translate(-3.13 -4.19)"/>
    <path class="d" d="M72,259.62H64.29l14.38,26.62h7.88L72,259.62Z" transform="translate(-3.13 -4.19)"/>
    <path class="j" d="M72,259.62H64.29l14.38,26.62h7.88L72,259.62Z" transform="translate(-3.13 -4.19)"/>
    <path class="a" d="M78.8,259.36h7.69L72.11,286H64.23L78.8,259.36Z" transform="translate(-3.13 -4.19)"/>
    <path class="j" d="M78.8,259.36h7.69L72.11,286H64.23L78.8,259.36Z" transform="translate(-3.13 -4.19)"/>
    <path class="d" d="M101.27,259.68H93.58L108,286.3h7.88Z" transform="translate(-3.13 -4.19)"/>
    <path class="j" d="M101.27,259.68H93.58L108,286.3h7.88Z" transform="translate(-3.13 -4.19)"/>
    <path class="a" d="M93.26,259.56H101L86.57,286.17H78.69Z" transform="translate(-3.13 -4.19)"/>
    <path class="j" d="M93.26,259.56H101L86.57,286.17H78.69Z" transform="translate(-3.13 -4.19)"/>
    <path class="d" d="M145.1,259.67h-7.69l14.39,26.62h7.88Z" transform="translate(-3.13 -4.19)"/>
    <path class="j" d="M145.1,259.67h-7.69l14.39,26.62h7.88Z" transform="translate(-3.13 -4.19)"/>
    <path class="d" d="M115.82,259.54h-7.7l14.39,26.62h7.88l-14.57-26.62Z" transform="translate(-3.13 -4.19)"/>
    <path class="j" d="M115.82,259.54h-7.7l14.39,26.62h7.88l-14.57-26.62Z" transform="translate(-3.13 -4.19)"/>
    <path class="a" d="M108.09,259.41h7.69L101.4,286H93.52Z" transform="translate(-3.13 -4.19)"/>
    <path class="j" d="M108.09,259.41h7.69L101.4,286H93.52Z" transform="translate(-3.13 -4.19)"/>
    <path class="d" d="M130.56,259.81h-7.69l14.38,26.61h7.88Z" transform="translate(-3.13 -4.19)"/>
    <path class="j" d="M130.56,259.81h-7.69l14.38,26.61h7.88Z" transform="translate(-3.13 -4.19)"/>
    <path class="a" d="M122.55,259.62h7.69l-14.38,26.61H108Z" transform="translate(-3.13 -4.19)"/>
    <path class="j" d="M122.55,259.62h7.69l-14.38,26.61H108Z" transform="translate(-3.13 -4.19)"/>
    <path class="a" d="M137.38,259.53h7.69l-14.38,26.63H122.8Z" transform="translate(-3.13 -4.19)"/>
    <path class="j" d="M137.38,259.53h7.69l-14.38,26.63H122.8Z" transform="translate(-3.13 -4.19)"/>
    <path class="d" d="M159.59,259.82H151.9l14.39,26.62h7.88l-14.58-26.62Z" transform="translate(-3.13 -4.19)"/>
    <path class="j" d="M159.59,259.82H151.9l14.39,26.62h7.88l-14.58-26.62Z" transform="translate(-3.13 -4.19)"/>
    <path class="a" d="M151.84,259.74h7.69l-14.38,26.61h-7.88Z" transform="translate(-3.13 -4.19)"/>
    <path class="j" d="M151.84,259.74h7.69l-14.38,26.61h-7.88Z" transform="translate(-3.13 -4.19)"/>
    <path class="d" d="M57.31,259.66H49.62L64,286.28h7.88Z" transform="translate(-3.13 -4.19)"/>
    <path class="j" d="M57.31,259.66H49.62L64,286.28h7.88Z" transform="translate(-3.13 -4.19)"/>
    <path class="d" d="M42.65,259.71H35l14.38,26.62h7.88L42.65,259.71Z" transform="translate(-3.13 -4.19)"/>
    <path class="j" d="M42.65,259.71H35l14.38,26.62h7.88L42.65,259.71Z" transform="translate(-3.13 -4.19)"/>
    <path class="a" d="M64.12,259.39h7.69L57.43,286H49.55l14.57-26.62Z" transform="translate(-3.13 -4.19)"/>
    <path class="j" d="M64.12,259.39h7.69L57.43,286H49.55l14.57-26.62Z" transform="translate(-3.13 -4.19)"/>
    <path class="d" d="M174.14,259.69h-7.69l14.38,26.62h7.88Z" transform="translate(-3.13 -4.19)"/>
    <path class="j" d="M174.14,259.69h-7.69l14.38,26.62h7.88Z" transform="translate(-3.13 -4.19)"/>
    <path class="a" d="M166.41,259.56h7.69l-14.38,26.61h-7.88l14.57-26.61Z" transform="translate(-3.13 -4.19)"/>
    <path class="j" d="M166.41,259.56h7.69l-14.38,26.61h-7.88l14.57-26.61Z" transform="translate(-3.13 -4.19)"/>
    <path class="a" d="M180.88,259.76h7.68l-14.38,26.62H166.3Z" transform="translate(-3.13 -4.19)"/>
    <path class="j" d="M180.88,259.76h7.68l-14.38,26.62H166.3Z" transform="translate(-3.13 -4.19)"/>
    <path class="a" d="M49.46,259.44h7.69L42.77,286.06H34.89l14.57-26.62Z" transform="translate(-3.13 -4.19)"/>
    <path class="j" d="M49.46,259.44h7.69L42.77,286.06H34.89l14.57-26.62Z" transform="translate(-3.13 -4.19)"/>
    <path class="d" d="M28,259.75H20.28l14.38,26.62h7.88Z" transform="translate(-3.13 -4.19)"/>
    <path class="j" d="M28,259.75H20.28l14.38,26.62h7.88Z" transform="translate(-3.13 -4.19)"/>
    <path class="a" d="M34.79,259.48h7.69L28.09,286.1H20.21l14.58-26.62Z" transform="translate(-3.13 -4.19)"/>
    <path class="j" d="M34.79,259.48h7.69L28.09,286.1H20.21l14.58-26.62Z" transform="translate(-3.13 -4.19)"/>
  </g>
</svg>
