<svg xmlns="http://www.w3.org/2000/svg" viewBox="0 0 211.9 284.14">
  <title>0C</title>
  <g>
    <path d="M216.1,267v31.5H213V267Z" transform="translate(-6.17 -14.34)"/>
    <path d="M203.77,298.47c3,0,5.4-2.68,5.4-6V273c0-3.34-2.41-6-5.4-6H202c-3,0-5.4,2.68-5.4,6v19.46c0,3.34,2.41,6,5.4,6Zm-.9-3a3.09,3.09,0,0,1-3.19-3V272.77a3.2,3.2,0,0,1,6.38,0v19.72A3.09,3.09,0,0,1,202.87,295.49Z" transform="translate(-6.17 -14.34)"/>
    <path d="M8.13,45.84V14.34h3.11v31.5Z" transform="translate(-6.17 -14.34)"/>
    <path d="M20.46,14.34c-3,0-5.41,2.68-5.41,6V39.82c0,3.34,2.41,6,5.41,6H22.2c3,0,5.41-2.68,5.41-6V20.36c0-3.34-2.41-6-5.41-6Zm.9,3a3.09,3.09,0,0,1,3.19,3V40a3.2,3.2,0,0,1-6.38,0V20.32A3.09,3.09,0,0,1,21.36,17.31Z" transform="translate(-6.17 -14.34)"/>
    <path d="M155.76,151.47c2.88-5.78,5-11.7,5.34-18,.35-2.33-1.07-2.37-1.28-.73-4.08,15.6-25.77,11.37-25-3.29.6-11.9,12.42-14.46,18.58-10.57,2.44,1.44,2.3.58,1-.91-9.16-10.21-3.61-23.36,8.76-23.6,13.38.79,16.85,14.87,8.64,23.15-1,1-3.28,4.19.13,2,8.28-5.89,19.79.45,19.55,9.52-.43,16.74-20.84,18-25.2,4-.42-1.55-1.63-2.33-1.3.3.61,4.77,1.86,12,5.44,18.21Z" transform="translate(-6.17 -14.34)"/>
    <path d="M52.22,151.47c2.88-5.78,5-11.7,5.35-18,.34-2.33-1.07-2.37-1.29-.73-4.07,15.6-25.76,11.37-25-3.29.6-11.9,12.42-14.46,18.58-10.57,2.43,1.44,2.3.58,1-.91-9.16-10.21-3.61-23.36,8.76-23.6,13.38.79,16.85,14.87,8.64,23.15-1,1-3.28,4.19.13,2,8.28-5.89,19.78.45,19.55,9.52-.43,16.74-20.84,18-25.21,4-.42-1.55-1.62-2.33-1.29.3.6,4.77,1.86,12,5.44,18.21Z" transform="translate(-6.17 -14.34)"/>
    <path d="M103.94,118.8c2.88-5.77,5-11.7,5.35-18,.34-2.34-1.08-2.37-1.29-.73-4.08,15.59-25.76,11.37-25-3.3.61-11.89,12.42-14.45,18.58-10.56,2.44,1.43,2.3.57,1-.91-9.15-10.22-3.61-23.37,8.76-23.61,13.38.8,16.85,14.87,8.65,23.15-1,1-3.29,4.19.12,2,8.29-5.89,19.79.44,19.55,9.52-.43,16.74-20.84,18-25.2,4-.42-1.55-1.63-2.32-1.29.31.6,4.76,1.85,12,5.43,18.2Z" transform="translate(-6.17 -14.34)"/>
    <path d="M155.76,86.14c2.88-5.78,5-11.7,5.34-18,.35-2.33-1.07-2.37-1.28-.73-4.08,15.6-25.77,11.37-25-3.29.6-11.9,12.42-14.46,18.58-10.57,2.44,1.43,2.3.58,1-.91-9.16-10.21-3.61-23.36,8.76-23.6,13.38.79,16.85,14.87,8.64,23.15-1,1-3.28,4.19.13,2,8.28-5.89,19.79.44,19.55,9.52-.43,16.74-20.84,18-25.2,4-.42-1.55-1.63-2.33-1.3.3.61,4.77,1.86,12,5.44,18.21Z" transform="translate(-6.17 -14.34)"/>
    <path d="M52.22,86.14c2.88-5.78,5-11.7,5.35-18,.34-2.33-1.07-2.37-1.29-.73-4.07,15.6-25.76,11.37-25-3.29.6-11.9,12.42-14.46,18.58-10.57,2.43,1.43,2.3.58,1-.91C41.66,42.39,47.21,29.24,59.58,29c13.38.79,16.85,14.87,8.64,23.15-1,1-3.28,4.19.13,2,8.28-5.89,19.78.44,19.55,9.52-.43,16.74-20.84,18-25.21,4-.42-1.55-1.62-2.33-1.29.3.6,4.77,1.86,12,5.44,18.21Z" transform="translate(-6.17 -14.34)"/>
    <path d="M66.93,161.34c-2.88,5.77-5,11.7-5.35,18-.34,2.33,1.07,2.37,1.29.72,4.07-15.59,25.76-11.37,25,3.3-.6,11.9-12.42,14.45-18.58,10.57-2.43-1.44-2.3-.58-1,.91,9.16,10.21,3.61,23.36-8.76,23.6-13.38-.79-16.85-14.87-8.64-23.15,1-1,3.28-4.19-.13-2-8.28,5.89-19.78-.44-19.55-9.52.43-16.73,20.84-18,25.2-4,.42,1.55,1.63,2.33,1.3-.31-.61-4.76-1.86-11.95-5.44-18.2Z" transform="translate(-6.17 -14.34)"/>
    <path d="M66.93,226.67c-2.88,5.77-5,11.7-5.35,18-.34,2.33,1.07,2.37,1.29.72,4.07-15.59,25.76-11.37,25,3.3-.6,11.9-12.42,14.45-18.58,10.57-2.43-1.44-2.3-.58-1,.91,9.16,10.21,3.61,23.36-8.76,23.6-13.38-.79-16.85-14.87-8.64-23.15,1-1,3.28-4.19-.13-2-8.28,5.88-19.78-.45-19.55-9.53.43-16.73,20.84-18,25.2-4,.42,1.55,1.63,2.33,1.3-.31-.61-4.76-1.86-12-5.44-18.2Z" transform="translate(-6.17 -14.34)"/>
    <path d="M170.46,161.34c-2.88,5.77-5,11.7-5.35,18-.34,2.33,1.07,2.37,1.29.72,4.07-15.59,25.76-11.37,25,3.3-.61,11.9-12.42,14.45-18.59,10.57-2.43-1.44-2.29-.58-1,.91,9.15,10.21,3.61,23.36-8.77,23.6-13.38-.79-16.85-14.87-8.64-23.15,1-1,3.28-4.19-.12-2-8.29,5.89-19.79-.44-19.56-9.52.44-16.73,20.84-18,25.21-4,.42,1.55,1.63,2.33,1.29-.31-.6-4.76-1.85-11.95-5.43-18.2Z" transform="translate(-6.17 -14.34)"/>
    <path d="M170.46,226.67c-2.88,5.77-5,11.7-5.35,18-.34,2.33,1.07,2.37,1.29.72,4.07-15.59,25.76-11.37,25,3.3-.61,11.9-12.42,14.45-18.59,10.57-2.43-1.44-2.29-.58-1,.91,9.15,10.21,3.61,23.36-8.77,23.6-13.38-.79-16.85-14.87-8.64-23.15,1-1,3.28-4.19-.12-2-8.29,5.88-19.79-.45-19.56-9.53.44-16.73,20.84-18,25.21-4,.42,1.55,1.63,2.33,1.29-.31-.6-4.76-1.85-12-5.43-18.2Z" transform="translate(-6.17 -14.34)"/>
    <path d="M119.11,194c-2.88,5.78-5,11.7-5.35,18-.34,2.33,1.08,2.37,1.29.73,4.08-15.59,25.76-11.37,25,3.3-.61,11.89-12.42,14.45-18.59,10.56-2.43-1.43-2.29-.57-1,.91,9.15,10.21,3.61,23.36-8.77,23.6-13.38-.79-16.85-14.87-8.64-23.14,1-1,3.28-4.19-.12-2-8.29,5.89-19.79-.44-19.56-9.52.44-16.74,20.84-18,25.21-4,.42,1.55,1.63,2.33,1.29-.3-.6-4.77-1.85-12-5.43-18.21Z" transform="translate(-6.17 -14.34)"/>
    <path d="M13.67,75.74a35.16,35.16,0,0,0,3-7.4c.42-2.53-.43-1.59-.92.07a4.78,4.78,0,0,1-4.58,3.37c-3.37,0-5.05-2.61-4.95-5.46-.37-3,2.67-5.12,5-5a7.92,7.92,0,0,1,4.14,1.78c.59.32,1.23.45.34-.36-1.68-1.83-3.08-3-3.05-5.71a5.23,5.23,0,1,1,10.46.3,5.91,5.91,0,0,1-2.41,4.7c-.94.77-.68,1.34.4.62a5.4,5.4,0,0,1,3.54-1.31c3.5-.06,4.86,3,4.66,5.76-.19,2.63-2.42,5.33-5.37,5-2.63-.3-4-2.51-4.8-4.78-.27-.69-.68-.88-.67.16a21.85,21.85,0,0,0,2.51,8.2Z" transform="translate(-6.17 -14.34)"/>
    <path d="M210.57,237.74a35.16,35.16,0,0,0-3,7.4c-.42,2.53.44,1.59.93-.06a4.75,4.75,0,0,1,4.58-3.37c3.37-.05,5.05,2.6,4.94,5.45.37,3-2.67,5.12-5,5a7.85,7.85,0,0,1-4.13-1.78c-.6-.31-1.24-.45-.35.36,1.68,1.83,3.08,3,3.05,5.71a5.23,5.23,0,1,1-10.46-.3,5.93,5.93,0,0,1,2.41-4.7c1-.76.68-1.34-.4-.61a5.48,5.48,0,0,1-3.54,1.31c-3.49,0-4.85-3-4.66-5.77.19-2.62,2.43-5.33,5.37-5,2.63.3,4,2.51,4.81,4.78.26.69.68.88.66-.16a22.05,22.05,0,0,0-2.5-8.2Z" transform="translate(-6.17 -14.34)"/>
  </g>
</svg>
