<svg xmlns="http://www.w3.org/2000/svg" viewBox="0 0 211 284.5">
  <title>c2</title>
  <g>
    <path d="M1.85,32.5l.17-2c.51-6.25,1.87-8.36,9.63-14.89,3.76-3.14,5-4.75,5.16-6.55.51-4.28-3.35-5.61-5.86-5.61C7.71,3.44,4,5.32,5.81,9.84l-3.61,1C1.47,6.63,2.2,2.69,5.64.93,10.17-1.31,16-.41,19,3.19a8.49,8.49,0,0,1,1.37,8.36C17.2,18.24,6.66,21.18,5.81,28.91H17.43v-4.3h3.39V32.5Z" transform="translate(0.09 0.29)"/>
    <path d="M208.65,251.43l-.16,2c-.5,6.24-1.89,8.36-9.65,14.88-3.76,3.16-5,4.72-5.17,6.53-.49,4.27,3.36,5.6,5.86,5.63,3.25,0,6.93-1.91,5.17-6.43l3.68-1c.72,4.21,0,8.15-3.44,9.91-4.54,2.28-10.39,1.39-13.33-2.21a8.39,8.39,0,0,1-1.37-8.37c3.1-6.69,13.63-9.62,14.5-17.35H193.08v4.3h-3.42v-7.94Z" transform="translate(0.09 0.29)"/>
    <path d="M98,71.18c2.89-5.78,5-11.72,5.35-18,.35-2.34-1.07-2.38-1.28-.73-4.09,15.63-25.8,11.4-25-3.3.6-11.93,12.42-14.48,18.6-10.62,2.44,1.44,2.3.58,1-.91C87.47,27.36,93,14.18,105.41,13.94c13.39.79,16.87,14.9,8.65,23.19-1,1-3.28,4.2.13,2,8.29-5.89,19.81.45,19.56,9.55-.42,16.76-20.85,18-25.22,4-.42-1.56-1.63-2.34-1.31.31.61,4.76,1.86,12,5.46,18.23Z" transform="translate(0.09 0.29)"/>
    <path d="M112.72,213.13c-2.89,5.78-5,11.72-5.36,18-.34,2.34,1.07,2.38,1.29.73,4.08-15.62,25.79-11.4,25,3.3-.61,11.93-12.43,14.49-18.61,10.6-2.43-1.45-2.29-.58-1,.92,9.16,10.22,3.62,23.39-8.78,23.64-13.39-.79-16.87-14.9-8.65-23.19,1-1,3.28-4.2-.12-2-8.25,6-19.75-.41-19.51-9.43.44-16.76,20.85-18,25.24-4,.41,1.55,1.62,2.33,1.29-.31-.6-4.76-1.85-12-5.46-18.24Z" transform="translate(0.09 0.29)"/>
    <path d="M7.4,60.55a36.07,36.07,0,0,0,3-7.41c.42-2.54-.45-1.6-.92.06a4.77,4.77,0,0,1-4.59,3.34C1.51,56.54-.2,54-.06,51.1c-.37-3,2.67-5.13,5-5a8.13,8.13,0,0,1,4.14,1.79c.6.31,1.24.45.35-.37-1.68-1.83-3.08-3-3-5.72a5.24,5.24,0,1,1,10.47.3h0a6,6,0,0,1-2.42,4.71c-1,.76-.68,1.35.4.61a5.63,5.63,0,0,1,3.55-1.31c3.48,0,4.86,3,4.66,5.78s-2.44,5.34-5.37,5c-2.64-.3-4-2.51-4.82-4.79-.26-.69-.67-.87-.66.17a21.72,21.72,0,0,0,2.5,8.21Z" transform="translate(0.09 0.29)"/>
    <path d="M203.37,223.27a35.69,35.69,0,0,0-3,7.43c-.42,2.53.44,1.59.91-.08a4.77,4.77,0,0,1,4.6-3.36c3.36,0,5.05,2.6,5,5.45.36,3-2.67,5.13-5,5a7.7,7.7,0,0,1-4.15-1.79c-.59-.3-1.22-.44-.34.36,1.67,1.85,3.09,3,3,5.74a5.24,5.24,0,0,1-10.46.52,3.38,3.38,0,0,1,0-.45,2.16,2.16,0,0,1,0-.36,5.86,5.86,0,0,1,2.42-4.72c.94-.77.67-1.35-.4-.61a5.54,5.54,0,0,1-3.56,1.3c-3.49.06-4.85-3-4.65-5.78s2.42-5.33,5.37-5c2.64.3,4,2.51,4.81,4.79.27.69.68.88.67-.14a22.49,22.49,0,0,0-2.51-8.24Z" transform="translate(0.09 0.29)"/>
  </g>
</svg>
