<svg xmlns="http://www.w3.org/2000/svg" viewBox="0 0 210.81 283.89">
  <title>2C</title>
  <g>
    <path d="M8.67,47.14l.17-2c.51-6.24,1.87-8.35,9.62-14.86,3.76-3.16,5-4.72,5.17-6.52.49-4.26-3.35-5.6-5.86-5.62-3.24,0-6.91,1.91-5.16,6.42L9,25.6c-.73-4.2,0-8.14,3.43-9.89,4.55-2.28,10.38-1.38,13.32,2.21a8.43,8.43,0,0,1,1.37,8.35C24,32.94,13.47,35.88,12.6,43.59H24.23V39.3h3.43v7.9Z" transform="translate(-6.71 -14.46)"/>
    <path d="M215.28,265.67l-.16,2c-.51,6.24-1.88,8.35-9.63,14.86-3.76,3.16-5,4.71-5.16,6.52-.49,4.26,3.35,5.59,5.85,5.62,3.24,0,6.91-1.91,5.16-6.42L215,287.2c.73,4.2,0,8.15-3.43,9.9-4.54,2.28-10.38,1.38-13.32-2.21a8.45,8.45,0,0,1-1.37-8.36c3.1-6.67,13.62-9.6,14.49-17.31H199.72v4.29H196.3V265.6Z" transform="translate(-6.71 -14.46)"/>
    <path d="M104.73,85.78c2.88-5.77,5-11.7,5.34-18,.35-2.33-1.07-2.37-1.28-.72-4.08,15.59-25.77,11.37-25-3.3.6-11.9,12.42-14.45,18.58-10.57,2.44,1.44,2.3.58,1-.91-9.16-10.21-3.61-23.36,8.76-23.6,13.38.79,16.85,14.87,8.64,23.15-1,1-3.28,4.19.13,2,8.28-5.88,19.79.45,19.55,9.53-.43,16.73-20.84,18-25.2,4-.42-1.55-1.63-2.33-1.3.31.61,4.76,1.86,12,5.44,18.2Z" transform="translate(-6.71 -14.46)"/>
    <path d="M119.43,227.45c-2.88,5.77-5,11.7-5.35,18-.34,2.33,1.07,2.37,1.29.72,4.07-15.59,25.76-11.37,25,3.3-.61,11.9-12.42,14.45-18.59,10.57-2.43-1.44-2.29-.58-1,.91,9.15,10.21,3.61,23.36-8.77,23.6-13.38-.79-16.85-14.87-8.64-23.15,1-1,3.28-4.19-.12-2C95,265.37,83.52,259,83.75,250c.44-16.73,20.84-18,25.21-4,.42,1.55,1.63,2.33,1.29-.31-.6-4.76-1.85-12-5.44-18.2Z" transform="translate(-6.71 -14.46)"/>
    <path d="M14.21,75.16a35.16,35.16,0,0,0,3-7.4c.42-2.53-.44-1.59-.92.06a4.77,4.77,0,0,1-4.58,3.37c-3.38,0-5.06-2.6-4.95-5.45-.37-3,2.67-5.12,5-5a7.85,7.85,0,0,1,4.13,1.78c.6.31,1.24.45.35-.36-1.68-1.83-3.08-3-3-5.71a5.23,5.23,0,1,1,10.46.3,5.93,5.93,0,0,1-2.41,4.7c-.95.76-.68,1.34.4.61a5.48,5.48,0,0,1,3.54-1.31c3.49,0,4.86,3,4.66,5.77-.19,2.62-2.43,5.33-5.37,5-2.63-.3-4-2.51-4.81-4.78-.26-.69-.67-.88-.66.16a22.05,22.05,0,0,0,2.5,8.2Z" transform="translate(-6.71 -14.46)"/>
    <path d="M210,237.57a35.81,35.81,0,0,0-3,7.41c-.41,2.52.44,1.58.93-.07a4.75,4.75,0,0,1,4.58-3.37c3.37,0,5.05,2.6,5,5.45.37,3-2.67,5.12-5,5a7.77,7.77,0,0,1-4.14-1.78c-.59-.31-1.23-.45-.34.36,1.68,1.84,3.08,3,3,5.71a5.23,5.23,0,1,1-10.45-.29,5.93,5.93,0,0,1,2.41-4.71c.94-.76.68-1.34-.4-.61a5.53,5.53,0,0,1-3.55,1.31c-3.49.05-4.85-3-4.65-5.77.19-2.62,2.42-5.32,5.37-5,2.63.3,4,2.51,4.8,4.78.27.69.68.88.67-.15a22,22,0,0,0-2.51-8.21Z" transform="translate(-6.71 -14.46)"/>
  </g>
</svg>
