<svg xmlns="http://www.w3.org/2000/svg" viewBox="0 0 211 284.5">
  <title>c3</title>
  <g>
    <path d="M1.24,25.37,3.8,23.53C6,27,8.5,29.4,12.29,29c5.71-.39,8-6.23,6.88-10.64A6.64,6.64,0,0,0,10.88,14a7.54,7.54,0,0,0-1.34.58c-.88.5-1.9,1.11-1.9,1.11l-1.3-2.17L15.1,3.29H5.55V7.55H1.88V0H20.56V2.54s-5,5.08-6.66,7.92a9,9,0,0,1,8.5,6.66,17.25,17.25,0,0,1-.51,8.93,11.53,11.53,0,0,1-9.37,6.42C6.25,32.89,2.9,28.52,1.24,25.37Z" transform="translate(0.32 0.02)"/>
    <path d="M208.54,259.1,206,260.94c-2.21-3.54-4.7-5.87-8.51-5.47-5.68.39-8,6.23-6.85,10.64a6.64,6.64,0,0,0,8.31,4.34,7.54,7.54,0,0,0,1.3-.57c.9-.5,1.91-1,1.91-1l1.59,2-9,10.25h9.56V276.9H208v7.58H189.21V281.9s5-5.08,6.66-7.86a9,9,0,0,1-8.54-6.67,17.31,17.31,0,0,1,.53-9,11.47,11.47,0,0,1,9.36-6.42c6.3-.42,9.65,3.91,11.32,7.1Z" transform="translate(0.32 0.02)"/>
    <path d="M97.5,170.85a46.87,46.87,0,0,0,5.37-18.07c.34-2.34-1.07-2.38-1.29-.72-4.1,15.61-25.89,11.37-25.09-3.31a12.36,12.36,0,0,1,18.67-10.58c2.43,1.44,2.3.58,1-.91C87,127,92.54,113.86,105,113.62c13.45.8,16.93,14.85,8.69,23.19-1,1-3.3,4.19.12,2,8.33-5.94,19.86.43,19.65,9.53-.45,16.76-20.95,18-25.33,4-.42-1.55-1.64-2.33-1.3.3.61,4.78,1.86,12,5.45,18.24Z" transform="translate(0.32 0.02)"/>
    <path d="M97.43,72.28a47.23,47.23,0,0,0,5.38-18.07c.34-2.33-1.07-2.37-1.29-.73-4.11,15.62-25.88,11.4-25.09-3.3C77,38.31,88.9,35.71,95.11,39.6c2.43,1.43,2.29.58,1-.91-9.2-10.22-3.63-23.39,8.79-23.63,13.44.79,16.94,14.84,8.69,23.17-1,1-3.29,4.2.13,2,8.32-5.94,19.86.45,19.64,9.54-.44,16.77-21,18-25.32,4-.43-1.56-1.64-2.34-1.3.3.61,4.78,1.86,12,5.46,18.24Z" transform="translate(0.32 0.02)"/>
    <path d="M112.2,212.45a47.2,47.2,0,0,0-5.36,18.07c-.35,2.33,1.07,2.37,1.29.73,4.09-15.62,25.88-11.4,25.14,3.29-.61,11.88-12.49,14.48-18.68,10.59-2.44-1.43-2.31-.58-1,.91,9.2,10.22,3.63,23.39-8.8,23.63-13.44-.79-16.94-14.84-8.68-23.17,1-1,3.29-4.2-.13-2-8.32,5.93-19.86-.45-19.64-9.54.42-16.77,20.93-18,25.32-4,.42,1.56,1.63,2.34,1.29-.31-.6-4.77-1.86-12-5.46-18.23Z" transform="translate(0.32 0.02)"/>
    <path d="M7.19,61.3a35.42,35.42,0,0,0,3-7.42c.43-2.53-.43-1.59-.93.07a4.81,4.81,0,0,1-4.6,3.39c-3.38,0-5-2.62-5-5.47-.37-3,2.69-5.13,5-5a8,8,0,0,1,4.15,1.78c.59.32,1.25.45.35-.36-1.69-1.84-3.1-3-3.07-5.72a5.28,5.28,0,0,1,10.56.25h0a6,6,0,0,1-2.43,4.71c-1,.76-.68,1.34.4.61a5.6,5.6,0,0,1,3.56-1.31c3.51,0,4.88,3,4.68,5.78s-2.43,5.37-5.39,5c-2.65-.3-4-2.52-4.84-4.8-.26-.69-.67-.88-.66.16A21.85,21.85,0,0,0,14.5,61.2Z" transform="translate(0.32 0.02)"/>
    <path d="M203.17,223.9a35.42,35.42,0,0,0-3,7.42c-.42,2.53.44,1.58.94-.07a4.72,4.72,0,0,1,4.59-3.37c3.39,0,5.08,2.6,5,5.46.37,3-2.68,5.12-5,4.94a7.86,7.86,0,0,1-4.15-1.77c-.6-.31-1.25-.45-.35.36,1.69,1.84,3.09,3,3.06,5.72a5.26,5.26,0,0,1-10.51-.3,6,6,0,0,1,2.43-4.71c.94-.76.67-1.34-.41-.61a5.49,5.49,0,0,1-3.55,1.3c-3.52.06-4.89-3-4.68-5.76s2.43-5.35,5.39-5c2.64.31,4,2.52,4.83,4.79.27.7.68.89.66-.15a21.83,21.83,0,0,0-2.51-8.22Z" transform="translate(0.32 0.02)"/>
  </g>
</svg>
