<svg xmlns="http://www.w3.org/2000/svg" viewBox="0 0 212.6 287.52">
  <title>3C</title>
  <g>
    <path d="M7.41,38.31,10,36.45C12.23,40,14.73,42.38,18.55,42c5.75-.39,8.12-6.3,6.92-10.75a6.67,6.67,0,0,0-9.69-3.81c-.89.5-1.92,1.12-1.92,1.12l-1.35-2.19L21.38,16H11.76V20.3H8.06V12.65H26.88v2.59s-5,5.13-6.71,8a9.09,9.09,0,0,1,8.59,6.73A17.43,17.43,0,0,1,28.24,39a11.59,11.59,0,0,1-9.43,6.49c-6.35.42-9.72-4-11.4-7.18Z" transform="translate(-5.81 -12.65)"/>
    <path d="M216.22,274.5l-2.58,1.86c-2.24-3.58-4.74-5.93-8.57-5.53-5.74.39-8.12,6.3-6.91,10.75a6.68,6.68,0,0,0,9.69,3.81c.89-.5,1.92-1,1.92-1l1.59,2.06-9.11,10.36h9.62v-4.27h3.7v7.65H196.75v-2.6s5-5.13,6.71-7.94a9.1,9.1,0,0,1-8.6-6.74,17.51,17.51,0,0,1,.53-9.07,11.59,11.59,0,0,1,9.43-6.49c6.35-.42,9.72,3.95,11.4,7.18Z" transform="translate(-5.81 -12.65)"/>
    <path d="M104.38,185.32c2.91-5.85,5-11.84,5.41-18.26.34-2.36-1.09-2.4-1.31-.73-4.12,15.78-26.07,11.5-25.31-3.34.61-12,12.57-14.63,18.8-10.69,2.46,1.45,2.33.58,1-.92-9.26-10.34-3.65-23.65,8.87-23.89,13.54.8,17.05,15,8.75,23.43-1,1-3.33,4.24.12,2,8.39-6,20,.44,19.79,9.63-.44,16.94-21.09,18.2-25.51,4.06-.42-1.57-1.65-2.36-1.31.3.61,4.83,1.88,12.1,5.5,18.43Z" transform="translate(-5.81 -12.65)"/>
    <path d="M104.31,85.71c2.91-5.84,5-11.84,5.41-18.25.35-2.36-1.08-2.4-1.3-.74C104.29,82.5,82.35,78.23,83.1,63.39c.61-12,12.57-14.63,18.81-10.7,2.46,1.45,2.32.59,1-.92-9.27-10.33-3.66-23.64,8.86-23.88,13.54.8,17.06,15,8.75,23.42-1,1-3.32,4.24.13,2,8.38-6,20,.45,19.78,9.64-.43,16.94-21.09,18.2-25.5,4.05-.43-1.57-1.65-2.36-1.31.31.61,4.82,1.88,12.1,5.5,18.42Z" transform="translate(-5.81 -12.65)"/>
    <path d="M119.19,227.36c-2.91,5.84-5,11.84-5.41,18.25-.35,2.36,1.08,2.4,1.3.74,4.13-15.78,26.07-11.51,25.32,3.33-.61,12-12.57,14.63-18.81,10.7-2.46-1.45-2.32-.59-1,.92,9.27,10.33,3.66,23.64-8.86,23.88-13.54-.8-17.06-15-8.75-23.42,1-1,3.32-4.24-.13-2-8.38,6-20-.45-19.78-9.64.43-16.94,21.09-18.2,25.5-4,.43,1.57,1.65,2.36,1.31-.31-.61-4.82-1.88-12.1-5.5-18.42Z" transform="translate(-5.81 -12.65)"/>
    <path d="M13.4,74.62a35.48,35.48,0,0,0,3-7.49c.43-2.56-.44-1.61-.93.07a4.84,4.84,0,0,1-4.64,3.41c-3.41,0-5.11-2.64-5-5.52-.37-3,2.71-5.18,5-5a8,8,0,0,1,4.18,1.8c.6.32,1.25.46.35-.36-1.7-1.86-3.12-3-3.09-5.78A5.3,5.3,0,1,1,22.9,56a6,6,0,0,1-2.44,4.76c-1,.77-.69,1.35.4.62a5.6,5.6,0,0,1,3.59-1.33c3.53,0,4.91,3,4.71,5.84C29,68.57,26.71,71.31,23.73,71c-2.67-.31-4.07-2.54-4.87-4.84-.26-.7-.68-.89-.67.16a22.2,22.2,0,0,0,2.54,8.3Z" transform="translate(-5.81 -12.65)"/>
    <path d="M210.82,238.93a35.59,35.59,0,0,0-3,7.49c-.42,2.56.45,1.6.94-.07a4.8,4.8,0,0,1,4.63-3.41c3.42-.05,5.12,2.63,5,5.52.37,3-2.7,5.18-5,5a7.91,7.91,0,0,1-4.18-1.79c-.61-.32-1.25-.46-.35.36,1.7,1.86,3.11,3,3.08,5.78a5.29,5.29,0,1,1-10.58-.3,6,6,0,0,1,2.44-4.76c.95-.77.68-1.36-.41-.62a5.49,5.49,0,0,1-3.58,1.32c-3.54.06-4.92-3-4.71-5.83.19-2.66,2.45-5.39,5.43-5.08,2.66.3,4.06,2.54,4.86,4.83.27.71.69.9.67-.15a22.23,22.23,0,0,0-2.53-8.3Z" transform="translate(-5.81 -12.65)"/>
  </g>
</svg>
