<svg xmlns="http://www.w3.org/2000/svg" viewBox="0 0 211 284.5">
  <title>c4</title>
  <g>
    <path d="M11.65,31.12V28.29h2.6V23.63H1.32v-3.3L15.37-.9h2.28V20.33h4v3.3h-4l-.08,4.66h2.18v2.83Zm2.6-24.24L5.33,20.33h8.91Z" transform="translate(0.32 0.9)"/>
    <path d="M199.81,251.59v2.83h-2.6v4.65h13v3.31l-14,21.22h-2.29V262.38h-4v-3.31h4l.08-4.65h-2.17v-2.83Zm-2.6,24.21,8.91-13.45h-8.91Z" transform="translate(0.32 0.9)"/>
    <path d="M147.47,68.37c2.89-5.82,5-11.78,5.37-18.12.34-2.34-1.07-2.38-1.29-.73-4.09,15.7-25.84,11.44-25.08-3.31.6-12,12.46-14.55,18.64-10.64,2.43,1.45,2.29.58,1-.92-9.19-10.27-3.62-23.5,8.79-23.75,13.42.8,16.9,15,8.66,23.3-1,1-3.29,4.22.14,2,8.3-5.91,19.84.46,19.61,9.59-.43,16.84-20.91,18.11-25.29,4-.42-1.56-1.63-2.34-1.3.3.61,4.8,1.87,12.08,5.46,18.33Z" transform="translate(0.32 0.9)"/>
    <path d="M47.63,68.37c2.89-5.82,5-11.78,5.36-18.12.35-2.34-1.09-2.38-1.3-.73C47.61,65.22,25.86,61,26.61,46.21c.61-12,12.47-14.55,18.65-10.64,2.44,1.45,2.31.58,1-.92C37,24.36,42.59,11.13,55,10.86c13.41.8,16.92,15,8.66,23.3-1,1-3.29,4.22.13,2,8.32-5.91,19.85.46,19.61,9.59-.43,16.84-20.9,18.11-25.28,4-.42-1.56-1.63-2.34-1.29.3.6,4.8,1.85,12.08,5.44,18.33Z" transform="translate(0.32 0.9)"/>
    <path d="M162.22,211c-2.9,5.81-5,11.78-5.38,18.12-.34,2.34,1.09,2.38,1.3.73,4.08-15.69,25.84-11.44,25.08,3.32-.6,12-12.46,14.54-18.64,10.63-2.44-1.44-2.31-.58-1,.91,9.19,10.29,3.63,23.52-8.78,23.76-13.43-.8-16.91-15-8.67-23.29,1-1,3.29-4.22-.13-2-8.31,5.93-19.84-.44-19.61-9.58.43-16.84,20.9-18.11,25.28-4,.42,1.56,1.63,2.33,1.3-.31-.61-4.8-1.86-12-5.46-18.32Z" transform="translate(0.32 0.9)"/>
    <path d="M62.37,211c-2.88,5.81-5,11.78-5.36,18.12-.34,2.34,1.08,2.38,1.29.73,4.09-15.69,25.85-11.44,25.08,3.32-.59,12-12.45,14.57-18.63,10.66-2.45-1.44-2.31-.58-1,.91C72.94,255,67.38,268.24,55,268.48c-13.42-.8-16.9-15-8.68-23.29,1-1,3.3-4.22-.12-2-8.31,5.93-19.85-.44-19.61-9.58.43-16.84,20.91-18.11,25.28-4,.42,1.56,1.64,2.33,1.31-.31-.62-4.8-1.87-12-5.46-18.32Z" transform="translate(0.32 0.9)"/>
    <path d="M7.19,60.36a35.66,35.66,0,0,0,3-7.45c.42-2.55-.45-1.6-.92.07a4.8,4.8,0,0,1-4.62,3.43c-3.34,0-5.07-2.66-4.95-5.53-.38-3,2.67-5.16,5-5a7.73,7.73,0,0,1,4.14,1.78c.61.32,1.25.46.36-.37-1.69-1.84-3.09-3-3-5.74a5.25,5.25,0,1,1,10.49.3h0a6,6,0,0,1-2.42,4.73c-.94.78-.68,1.35.4.62a5.39,5.39,0,0,1,3.55-1.31c3.51-.06,4.88,3,4.68,5.79s-2.43,5.37-5.39,5c-2.64-.3-4-2.52-4.82-4.8-.26-.7-.68-.89-.67.15a22.59,22.59,0,0,0,2.51,8.26Z" transform="translate(0.32 0.9)"/>
    <path d="M203.12,222.61a34.61,34.61,0,0,0-3,7.45c-.42,2.55.44,1.6.92-.07a4.79,4.79,0,0,1,4.6-3.39c3.38,0,5.07,2.63,5,5.49.38,3-2.67,5.16-5,5a7.82,7.82,0,0,1-4.14-1.79c-.61-.32-1.24-.46-.35.37,1.68,1.84,3.09,3,3,5.74a5.25,5.25,0,1,1-10.49-.3h0a6,6,0,0,1,2.42-4.73c1-.77.68-1.35-.39-.62a5.48,5.48,0,0,1-3.56,1.32c-3.51.06-4.87-3-4.67-5.8s2.43-5.36,5.39-5c2.64.3,4,2.52,4.81,4.8.26.7.69.89.68-.15a22.59,22.59,0,0,0-2.51-8.26Z" transform="translate(0.32 0.9)"/>
  </g>
</svg>
