<svg xmlns="http://www.w3.org/2000/svg" viewBox="0 0 210.31 282.7">
  <title>4C</title>
  <g>
    <path d="M18.91,46.87V44.06H21.5V39.42H8.57V36.15l14-21.1h2.28V36.15h3.95v3.27H24.84l-.08,4.64h2.17v2.81ZM21.5,22.78,12.62,36.15H21.5Z" transform="translate(-6.96 -15.05)"/>
    <path d="M206.47,265.94v2.81h-2.59v4.63h12.93v3.28l-14,21.09h-2.28V276.66h-4v-3.28h4l.07-4.63h-2.16v-2.81ZM203.88,290l8.88-13.37h-8.88Z" transform="translate(-6.96 -15.05)"/>
    <path d="M154.3,83.88c2.88-5.78,5-11.7,5.35-18,.34-2.33-1.07-2.37-1.29-.73-4.07,15.6-25.76,11.37-25-3.29.6-11.9,12.42-14.46,18.58-10.57,2.43,1.44,2.29.58,1-.91-9.16-10.21-3.61-23.36,8.76-23.6,13.38.79,16.85,14.87,8.64,23.15-1,1-3.28,4.19.13,2,8.28-5.88,19.78.45,19.55,9.52-.43,16.74-20.84,18-25.21,4-.42-1.55-1.62-2.33-1.29.3.6,4.77,1.86,12,5.44,18.21Z" transform="translate(-6.96 -15.05)"/>
    <path d="M54.77,83.88c2.88-5.78,5-11.7,5.35-18,.34-2.33-1.08-2.37-1.29-.73-4.08,15.6-25.76,11.37-25-3.29.61-11.9,12.42-14.46,18.59-10.57,2.43,1.44,2.29.58,1-.91C44.21,40.13,49.75,27,62.13,26.74,75.5,27.53,79,41.61,70.77,49.89c-1,1-3.28,4.19.12,2,8.29-5.88,19.79.45,19.55,9.52-.43,16.74-20.83,18-25.2,4-.42-1.55-1.63-2.33-1.29.3.6,4.77,1.85,12,5.43,18.21Z" transform="translate(-6.96 -15.05)"/>
    <path d="M169,225.59c-2.88,5.77-5,11.7-5.35,18-.34,2.33,1.07,2.37,1.29.73,4.07-15.59,25.76-11.37,25,3.3-.6,11.89-12.42,14.45-18.58,10.56-2.43-1.43-2.3-.57-1,.91,9.16,10.22,3.61,23.37-8.76,23.61-13.38-.8-16.85-14.87-8.64-23.15,1-1,3.28-4.19-.13-2-8.28,5.89-19.78-.44-19.55-9.52.43-16.74,20.84-18,25.2-4,.42,1.55,1.63,2.32,1.3-.31-.61-4.77-1.86-11.95-5.44-18.2Z" transform="translate(-6.96 -15.05)"/>
    <path d="M69.47,225.59c-2.88,5.77-5,11.7-5.35,18-.34,2.33,1.08,2.37,1.29.73,4.08-15.59,25.77-11.37,25,3.3C89.82,259.54,78,262.1,71.85,258.21c-2.44-1.43-2.3-.57-1,.91,9.15,10.22,3.61,23.37-8.76,23.61-13.38-.8-16.85-14.87-8.65-23.15,1-1,3.29-4.19-.12-2-8.29,5.89-19.79-.44-19.55-9.52.43-16.74,20.84-18,25.2-4,.42,1.55,1.63,2.32,1.3-.31-.61-4.77-1.86-11.95-5.44-18.2Z" transform="translate(-6.96 -15.05)"/>
    <path d="M14.46,75.92a34.94,34.94,0,0,0,3-7.4c.42-2.53-.44-1.59-.92.07A4.77,4.77,0,0,1,11.94,72C8.57,72,6.88,69.35,7,66.5c-.37-3,2.67-5.12,5-5a7.8,7.8,0,0,1,4.13,1.77c.6.32,1.24.46.35-.36-1.68-1.83-3.08-3-3-5.71a5.23,5.23,0,1,1,10.46.3,5.91,5.91,0,0,1-2.41,4.7c-.94.77-.68,1.34.4.62a5.4,5.4,0,0,1,3.54-1.31c3.49-.06,4.86,3,4.66,5.76-.19,2.63-2.42,5.33-5.37,5-2.63-.3-4-2.51-4.81-4.77-.26-.7-.67-.89-.66.15a22.19,22.19,0,0,0,2.5,8.2Z" transform="translate(-6.96 -15.05)"/>
    <path d="M209.77,237.18a34.45,34.45,0,0,0-3,7.4c-.42,2.53.44,1.59.93-.07a4.76,4.76,0,0,1,4.58-3.37c3.37,0,5.05,2.61,5,5.46.36,3-2.68,5.12-5,5a7.84,7.84,0,0,1-4.13-1.77c-.6-.32-1.23-.46-.34.36,1.67,1.83,3.07,3,3,5.71a5.23,5.23,0,1,1-10.46-.3,5.93,5.93,0,0,1,2.41-4.7c1-.77.68-1.34-.39-.62a5.47,5.47,0,0,1-3.55,1.31c-3.49.06-4.85-3-4.65-5.76.18-2.63,2.42-5.33,5.37-5,2.63.3,4,2.51,4.8,4.77.26.7.68.89.67-.15a22.07,22.07,0,0,0-2.51-8.2Z" transform="translate(-6.96 -15.05)"/>
  </g>
</svg>
