<svg xmlns="http://www.w3.org/2000/svg" viewBox="0 0 209.8 284.52">
  <title>5C</title>
  <g>
    <path d="M8.75,38,12,38c.62,1.94,2,3.92,3.82,4.47,5.21,1.23,8.57-1.69,9.67-5,1.34-4.07,0-9.79-3.61-11.82-3-1.69-7.4-.27-9.43,3.34l-2.25-1.38,1.21-13.43H26.11v3.18H14.17L14,22.91a9.56,9.56,0,0,1,9.09-.52c4.86,2.32,7.12,7.59,6.18,13.81-1.31,6.18-4.2,9.68-10.72,10.19-7.25.06-9.81-4.92-9.78-8.35Z" transform="translate(-7.21 -14.14)"/>
    <path d="M215.62,274.77l-3.22,0c-.61-1.94-2-3.93-3.81-4.47-5.22-1.23-8.57,1.68-9.68,5-1.34,4.08,0,9.8,3.62,11.83,3,1.69,7.4.26,9.42-3.34l2.26,1.38L213,298.66H198.27v-3.17h11.94l.18-5.59a9.57,9.57,0,0,1-9.08.52c-4.87-2.32-7.13-7.59-6.18-13.81,1.31-6.18,4.2-9.69,10.72-10.19,7.24-.06,9.8,4.92,9.77,8.35Z" transform="translate(-7.21 -14.14)"/>
    <path d="M104.77,185c2.88-5.78,5-11.7,5.35-18,.34-2.33-1.08-2.37-1.29-.73-4.08,15.6-25.77,11.37-25-3.29.61-11.9,12.42-14.46,18.58-10.57,2.44,1.44,2.3.58,1-.91-9.15-10.21-3.61-23.36,8.76-23.6,13.38.79,16.85,14.87,8.65,23.15-1,1-3.29,4.19.12,2,8.29-5.88,19.79.45,19.55,9.52-.43,16.74-20.84,18-25.2,4-.42-1.55-1.63-2.33-1.3.3.61,4.77,1.86,12,5.44,18.21Z" transform="translate(-7.21 -14.14)"/>
    <path d="M154,85.74c2.88-5.78,5-11.7,5.35-18,.34-2.33-1.08-2.37-1.29-.73-4.08,15.59-25.76,11.37-25-3.29.61-11.9,12.42-14.46,18.59-10.57,2.43,1.43,2.29.58,1-.91C143.45,42,149,28.84,161.36,28.6c13.38.79,16.86,14.87,8.65,23.14-1,1-3.29,4.2.12,2,8.29-5.89,19.79.44,19.55,9.52-.43,16.74-20.83,18-25.2,4-.42-1.55-1.63-2.33-1.29.3.6,4.77,1.85,12,5.43,18.21Z" transform="translate(-7.21 -14.14)"/>
    <path d="M55.33,85.74c2.88-5.78,5-11.7,5.35-18,.34-2.33-1.08-2.37-1.29-.73-4.08,15.59-25.76,11.37-25-3.29C35,51.78,46.79,49.22,53,53.11c2.44,1.43,2.3.58,1-.91C44.77,42,50.31,28.84,62.68,28.6c13.38.79,16.85,14.87,8.65,23.14-1,1-3.29,4.2.12,2,8.29-5.89,19.79.44,19.55,9.52-.43,16.74-20.84,18-25.2,4-.42-1.55-1.63-2.33-1.3.3.61,4.77,1.86,12,5.44,18.21Z" transform="translate(-7.21 -14.14)"/>
    <path d="M168.71,225.25c-2.88,5.77-5,11.7-5.35,18-.34,2.33,1.08,2.37,1.29.72,4.08-15.59,25.76-11.37,25,3.3-.61,11.9-12.42,14.45-18.58,10.56-2.44-1.43-2.3-.57-1,.92,9.15,10.21,3.61,23.36-8.76,23.6-13.38-.79-16.85-14.87-8.65-23.15,1-1,3.29-4.19-.12-2-8.29,5.89-19.79-.44-19.55-9.52.43-16.74,20.84-18,25.2-4,.42,1.55,1.63,2.33,1.3-.31-.61-4.76-1.86-11.95-5.44-18.2Z" transform="translate(-7.21 -14.14)"/>
    <path d="M70,225.25c-2.88,5.77-5,11.7-5.35,18-.34,2.33,1.08,2.37,1.29.72,4.08-15.59,25.76-11.37,25,3.3-.61,11.9-12.42,14.45-18.58,10.56-2.44-1.43-2.3-.57-1,.92,9.15,10.21,3.61,23.36-8.76,23.6C49.3,281.6,45.83,267.52,54,259.24c1-1,3.29-4.19-.12-2-8.29,5.89-19.79-.44-19.55-9.52.43-16.74,20.84-18,25.2-4,.42,1.55,1.63,2.33,1.29-.31-.6-4.76-1.85-11.95-5.43-18.2Z" transform="translate(-7.21 -14.14)"/>
    <path d="M14.71,75.52a34.45,34.45,0,0,0,3-7.4c.42-2.53-.44-1.59-.93.07a4.76,4.76,0,0,1-4.58,3.37c-3.37,0-5-2.61-4.94-5.45-.37-3,2.67-5.13,5-5a7.84,7.84,0,0,1,4.13,1.77c.6.32,1.23.46.34-.36-1.67-1.83-3.07-3-3-5.71a5.23,5.23,0,1,1,10.46.3,5.93,5.93,0,0,1-2.41,4.7c-1,.77-.68,1.34.39.62a5.53,5.53,0,0,1,3.55-1.31c3.49-.06,4.85,3,4.65,5.76-.18,2.63-2.42,5.33-5.37,5-2.63-.3-4-2.5-4.8-4.77-.26-.7-.68-.88-.66.15a21.88,21.88,0,0,0,2.5,8.2Z" transform="translate(-7.21 -14.14)"/>
    <path d="M209.51,237.53a34.94,34.94,0,0,0-3,7.4c-.42,2.52.43,1.59.92-.07a4.76,4.76,0,0,1,4.58-3.37c3.37-.05,5.05,2.6,4.95,5.45.37,3-2.67,5.12-5,5a7.8,7.8,0,0,1-4.13-1.77c-.6-.32-1.24-.46-.35.35,1.68,1.84,3.08,3,3.05,5.71a5.23,5.23,0,1,1-10.46-.29,5.9,5.9,0,0,1,2.41-4.7c.94-.77.68-1.34-.4-.62a5.5,5.5,0,0,1-3.54,1.31c-3.49.06-4.86-3-4.66-5.76.19-2.63,2.42-5.33,5.37-5,2.63.31,4,2.51,4.81,4.78.26.7.67.88.66-.15a21.77,21.77,0,0,0-2.51-8.2Z" transform="translate(-7.21 -14.14)"/>
  </g>
</svg>
