<svg xmlns="http://www.w3.org/2000/svg" viewBox="0 0 211 284.5">
  <title>c5</title>
  <g>
    <path d="M.91,23.82H4.18c.62,1.94,2,3.92,3.84,4.47,5.24,1.23,8.62-1.69,9.73-5,1.35-4.07,0-9.79-3.63-11.82-3-1.69-7.45-.27-9.49,3.34L2.37,13.43,3.59,0H18.37V3.18h-12L6.19,8.73a9.63,9.63,0,0,1,9.14-.52C20.22,10.53,22.5,15.8,21.55,22c-1.32,6.18-4.22,9.68-10.78,10.19C3.47,32.27.9,27.29.93,23.86Z" transform="translate(0.62 0.04)"/>
    <path d="M209,260.59h-3.24c-.61-1.94-2-3.93-3.83-4.47-5.25-1.23-8.62,1.68-9.74,5-1.35,4.08,0,9.8,3.64,11.83,3,1.69,7.45.26,9.48-3.34l2.28,1.36-1.21,13.49H191.55v-3.17h12l.18-5.59a9.64,9.64,0,0,1-9.13.52c-4.9-2.32-7.18-7.59-6.22-13.81,1.32-6.18,4.22-9.69,10.78-10.19,7.29-.06,9.86,4.92,9.83,8.35Z" transform="translate(0.62 0.04)"/>
    <path d="M97.5,170.82c2.89-5.78,5-11.7,5.38-18,.34-2.33-1.09-2.37-1.3-.73-4.1,15.6-25.92,11.37-25.15-3.29.62-11.9,12.5-14.46,18.69-10.57,2.46,1.44,2.32.58,1-.91-9.21-10.21-3.63-23.36,8.81-23.6,13.46.79,17,14.87,8.7,23.15-1,1-3.31,4.19.12,2,8.34-5.88,19.91.45,19.67,9.52-.43,16.74-21,18-25.35,4-.42-1.55-1.64-2.33-1.31.3.61,4.77,1.87,12,5.47,18.21Z" transform="translate(0.62 0.04)"/>
    <path d="M147,71.56c2.89-5.78,5-11.7,5.38-18,.34-2.33-1.09-2.37-1.3-.73C147,68.42,125.19,64.2,126,49.54c.62-11.9,12.5-14.46,18.66-10.57,2.45,1.43,2.31.58,1-.91-9.26-10.24-3.67-23.4,8.76-23.64,13.46.79,17,14.87,8.7,23.14-1,1-3.31,4.2.12,2,8.34-5.89,19.91.44,19.67,9.52-.43,16.74-21,18-25.35,4-.42-1.55-1.64-2.33-1.3.3.6,4.77,1.86,12,5.46,18.21Z" transform="translate(0.62 0.04)"/>
    <path d="M47.76,71.56c2.9-5.78,5-11.7,5.39-18,.34-2.33-1.09-2.37-1.3-.73C47.74,68.42,25.92,64.2,26.7,49.54,27.31,37.6,39.17,35,45.42,38.93c2.46,1.43,2.31.58,1-.91-9.29-10.2-3.71-23.36,8.73-23.6,13.46.79,17,14.87,8.7,23.14-1,1-3.31,4.2.12,2,8.34-5.89,19.91.44,19.67,9.52-.44,16.74-21,18-25.35,4-.43-1.55-1.64-2.33-1.31.3.61,4.77,1.87,12,5.47,18.21Z" transform="translate(0.62 0.04)"/>
    <path d="M161.81,211.07c-2.89,5.77-5,11.7-5.38,18-.34,2.33,1.09,2.37,1.3.72,4.1-15.59,25.91-11.37,25.15,3.3-.62,11.9-12.5,14.45-18.69,10.56-2.46-1.43-2.32-.57-1,.92,9.21,10.21,3.63,23.36-8.81,23.6-13.46-.79-17-14.87-8.7-23.15,1-1,3.31-4.19-.12-2-8.34,5.89-19.91-.44-19.67-9.52.44-16.74,21-18,25.35-4,.42,1.55,1.64,2.33,1.31-.31-.61-4.76-1.87-11.95-5.47-18.2Z" transform="translate(0.62 0.04)"/>
    <path d="M62.52,211.07c-2.9,5.77-5,11.7-5.38,18-.34,2.33,1.09,2.37,1.3.72,4.1-15.59,25.91-11.37,25.15,3.3C83,245,71.09,247.54,64.9,243.65c-2.46-1.43-2.32-.57-1,.92,9.2,10.21,3.63,23.4-8.8,23.6-13.38-.75-16.87-14.83-8.65-23.11,1-1,3.31-4.19-.12-2-8.34,5.89-19.91-.44-19.67-9.52.43-16.74,21-18,25.35-4,.42,1.55,1.64,2.33,1.3-.31-.61-4.76-1.86-11.95-5.46-18.2Z" transform="translate(0.62 0.04)"/>
    <path d="M6.9,61.34a34.45,34.45,0,0,0,3-7.4c.43-2.53-.44-1.59-.93.07a4.79,4.79,0,0,1-4.61,3.37c-3.39,0-5-2.61-5-5.41-.37-3,2.69-5.13,5-5a7.74,7.74,0,0,1,4.15,1.77c.61.32,1.24.46.35-.36-1.68-1.83-3.09-3-3-5.71a5.26,5.26,0,0,1,10.52.3h0A5.91,5.91,0,0,1,14,47.67c-1,.77-.69,1.34.39.62A5.56,5.56,0,0,1,18,47c3.51-.06,4.88,3,4.68,5.76s-2.44,5.33-5.4,5c-2.65-.3-4-2.5-4.83-4.77-.26-.7-.69-.88-.67.15a21.75,21.75,0,0,0,2.52,8.2Z" transform="translate(0.62 0.04)"/>
    <path d="M202.86,223.35a34.45,34.45,0,0,0-3,7.4c-.43,2.52.43,1.59.92-.07a4.79,4.79,0,0,1,4.61-3.37c3.39-.05,5,2.6,5,5.45.37,3-2.69,5.12-5,5a7.74,7.74,0,0,1-4.15-1.77c-.61-.32-1.25-.46-.36.35,1.69,1.84,3.1,3,3,5.71a5.26,5.26,0,0,1-10.52-.29h0a5.91,5.91,0,0,1,2.42-4.7c1-.77.69-1.34-.4-.62a5.52,5.52,0,0,1-3.56,1.31c-3.51.06-4.89-3-4.69-5.76s2.44-5.33,5.4-5c2.65.31,4,2.51,4.84,4.78.26.7.68.88.67-.15a21.77,21.77,0,0,0-2.53-8.2Z" transform="translate(0.62 0.04)"/>
  </g>
</svg>
