<svg xmlns="http://www.w3.org/2000/svg" viewBox="0 0 211.9 284.97">
  <title>6C</title>
  <g>
    <path d="M8.62,36.5a63.68,63.68,0,0,1-.06-11.94c1-6.43,3.53-9.37,7.72-10.34s9.79.11,11,5.49l-3.4.06c-1.84-3.63-6.5-2.66-9.12-1.08-2.09,1.26-3,6.52-2.63,6.84,0,0,4-2.88,7.07-2.66,6.67.68,9.42,6.35,9.19,11.71-.21,6.45-2.3,11.61-9.36,12C12.35,46.28,9.27,42.68,8.62,36.5Zm16.57-1.71c0-4.47-2-7.82-6-8.19S11.38,30,11.65,34.54,13.73,43,18.48,43c5.11,0,6.69-5,6.71-8.16Z" transform="translate(-6.16 -13.92)"/>
    <path d="M215.37,276.31a64.58,64.58,0,0,1,.07,11.94c-1,6.43-3.54,9.37-7.73,10.33s-9.78-.1-11-5.48l3.41-.06c1.84,3.63,6.49,2.66,9.11,1.08,2.1-1.26,3-6.52,2.64-6.84,0,0-4,2.88-7.08,2.66-6.67-.68-9.42-6.35-9.18-11.72.21-6.45,2.29-11.6,9.36-11.94,6.71.25,9.8,3.85,10.44,10ZM198.8,278c0,4.48,2,7.83,5.95,8.2s7.86-3.39,7.59-7.95-2.08-8.43-6.83-8.41c-5.1,0-6.68,5-6.71,8.16Z" transform="translate(-6.16 -13.92)"/>
    <path d="M154.55,185.07c2.88-5.77,5-11.7,5.35-18,.34-2.33-1.07-2.37-1.29-.72-4.07,15.59-25.76,11.37-25-3.3.61-11.9,12.42-14.45,18.59-10.56,2.43,1.43,2.29.57,1-.92-9.16-10.21-3.62-23.36,8.76-23.6,13.38.79,16.85,14.87,8.64,23.15-1,1-3.28,4.19.12,2,8.29-5.89,19.79.44,19.56,9.52-.44,16.74-20.84,18-25.21,4-.42-1.55-1.63-2.33-1.29.31.6,4.76,1.85,11.95,5.44,18.2Z" transform="translate(-6.16 -13.92)"/>
    <path d="M55,185.07c2.88-5.77,5-11.7,5.35-18,.34-2.33-1.08-2.37-1.29-.72-4.08,15.59-25.76,11.37-25-3.3.61-11.9,12.42-14.45,18.58-10.56,2.44,1.43,2.3.57,1-.92-9.15-10.21-3.61-23.36,8.76-23.6,13.38.79,16.85,14.87,8.65,23.15-1,1-3.29,4.19.12,2,8.29-5.89,19.79.44,19.55,9.52-.43,16.74-20.84,18-25.2,4-.42-1.55-1.63-2.33-1.29.31.6,4.76,1.85,11.95,5.43,18.2Z" transform="translate(-6.16 -13.92)"/>
    <path d="M154.55,86.18c2.88-5.78,5-11.7,5.35-18,.34-2.33-1.07-2.37-1.29-.73-4.07,15.6-25.76,11.37-25-3.29.61-11.9,12.42-14.46,18.59-10.57,2.43,1.43,2.29.58,1-.91C144,42.43,149.53,29.28,161.91,29c13.38.79,16.85,14.87,8.64,23.15-1,1-3.28,4.19.12,2,8.29-5.89,19.79.44,19.56,9.52-.44,16.74-20.84,18-25.21,4-.42-1.55-1.63-2.33-1.29.3.6,4.77,1.85,12,5.44,18.21Z" transform="translate(-6.16 -13.92)"/>
    <path d="M55,86.18c2.88-5.78,5-11.7,5.35-18,.34-2.33-1.08-2.37-1.29-.73C55,83,33.32,78.78,34.06,64.12c.61-11.9,12.42-14.46,18.58-10.57,2.44,1.43,2.3.58,1-.91C44.46,42.43,50,29.28,62.37,29c13.38.79,16.85,14.87,8.65,23.15-1,1-3.29,4.19.12,2,8.29-5.89,19.79.44,19.55,9.52-.43,16.74-20.84,18-25.2,4-.42-1.55-1.63-2.33-1.29.3.6,4.77,1.85,12,5.43,18.21Z" transform="translate(-6.16 -13.92)"/>
    <path d="M169.25,226.53c-2.87,5.78-5,11.7-5.34,18-.35,2.33,1.07,2.37,1.28.73,4.08-15.6,25.77-11.37,25,3.29-.6,11.9-12.42,14.46-18.58,10.57-2.43-1.44-2.3-.58-1,.91,9.16,10.21,3.61,23.36-8.76,23.6-13.38-.79-16.85-14.87-8.64-23.15,1-1,3.28-4.19-.13-1.95-8.28,5.88-19.79-.45-19.55-9.52.43-16.74,20.84-18,25.2-4,.42,1.55,1.63,2.33,1.3-.3-.61-4.77-1.86-12-5.44-18.21Z" transform="translate(-6.16 -13.92)"/>
    <path d="M69.72,226.53c-2.88,5.78-5,11.7-5.35,18-.34,2.33,1.08,2.37,1.29.73,4.08-15.6,25.76-11.37,25,3.29-.61,11.9-12.42,14.46-18.58,10.57-2.44-1.44-2.3-.58-1,.91,9.15,10.21,3.61,23.36-8.76,23.6-13.38-.79-16.85-14.87-8.65-23.15,1-1,3.29-4.19-.12-1.95-8.29,5.88-19.79-.45-19.55-9.52.43-16.74,20.84-18,25.2-4,.42,1.55,1.63,2.33,1.29-.3-.6-4.77-1.85-12-5.43-18.21Z" transform="translate(-6.16 -13.92)"/>
    <path d="M13.66,74.3a35.16,35.16,0,0,0,3-7.4c.42-2.53-.43-1.59-.92.07a4.78,4.78,0,0,1-4.58,3.37c-3.37,0-5.05-2.61-4.95-5.46-.37-3,2.67-5.12,5-4.95a7.84,7.84,0,0,1,4.14,1.77c.59.32,1.23.45.34-.36-1.68-1.83-3.08-3-3.05-5.71a5.23,5.23,0,1,1,10.46.3,5.91,5.91,0,0,1-2.41,4.7c-.94.77-.68,1.34.4.62a5.4,5.4,0,0,1,3.54-1.31c3.5-.06,4.86,3,4.66,5.76-.19,2.63-2.42,5.33-5.37,5-2.63-.3-4-2.51-4.8-4.78-.27-.69-.68-.88-.67.16a21.85,21.85,0,0,0,2.51,8.2Z" transform="translate(-6.16 -13.92)"/>
    <path d="M210.56,236.3a35.16,35.16,0,0,0-3,7.4c-.42,2.53.44,1.59.93-.06a4.75,4.75,0,0,1,4.58-3.37c3.37-.05,5,2.6,4.94,5.45.37,3-2.67,5.12-5,5a7.85,7.85,0,0,1-4.13-1.78c-.6-.31-1.23-.45-.35.36,1.68,1.83,3.08,3,3,5.71a5.23,5.23,0,1,1-10.46-.3,6,6,0,0,1,2.41-4.7c.95-.76.68-1.34-.39-.61a5.53,5.53,0,0,1-3.55,1.31c-3.49.05-4.85-3-4.65-5.77.18-2.62,2.42-5.33,5.36-5,2.63.3,4,2.51,4.81,4.78.26.69.68.88.66-.16a22.05,22.05,0,0,0-2.5-8.2Z" transform="translate(-6.16 -13.92)"/>
  </g>
</svg>
