<svg xmlns="http://www.w3.org/2000/svg" viewBox="0 0 211 284.5">
  <title>c6</title>
  <g>
    <path d="M2.41,22.58a64.14,64.14,0,0,1-.06-11.92C3.35,4.24,5.87,1.31,10,.34S19.79.45,21,5.82l-3.38.06C15.78,2.26,11.14,3.22,8.53,4.8c-2.09,1.26-3,6.51-2.62,6.83,0,0,4-2.88,7-2.66,6.64.68,9.38,6.34,9.15,11.69-.21,6.44-2.29,11.59-9.32,12C6.13,32.34,3.06,28.75,2.41,22.58Zm16.5-1.71c0-4.46-2-7.8-6-8.17s-7.75,3.39-7.48,7.92,2.07,8.45,6.8,8.45c5.09,0,6.66-5,6.68-8.15Z" transform="translate(-0.01 -0.02)"/>
    <path d="M208.36,262a64.14,64.14,0,0,1,.07,11.92c-1,6.42-3.53,9.36-7.7,10.31s-9.74-.1-11-5.47l3.39-.06c1.83,3.63,6.47,2.66,9.08,1.08,2.09-1.26,3-6.51,2.62-6.83,0,0-4,2.88-7,2.66-6.64-.68-9.38-6.34-9.14-11.7.21-6.44,2.28-11.58,9.32-11.92,6.69.25,9.76,3.84,10.4,10Zm-16.5,1.69c0,4.47,2,7.82,5.92,8.19s7.83-3.39,7.56-7.94-2.07-8.42-6.8-8.4C193.46,255.52,191.89,260.52,191.86,263.67Z" transform="translate(-0.01 -0.02)"/>
    <path d="M147.78,170.87c2.87-5.76,5-11.68,5.33-18,.33-2.32-1.07-2.36-1.29-.72-4,15.57-25.66,11.35-24.91-3.29.62-11.88,12.38-14.43,18.53-10.54,2.42,1.43,2.28.57,1-.92-9.12-10.19-3.6-23.32,8.73-23.56,13.32.79,16.79,14.84,8.6,23.11-1,1-3.26,4.18.12,2,8.27-5.88,19.72.44,19.49,9.5-.44,16.71-20.76,18-25.12,4-.41-1.54-1.62-2.32-1.28.31.6,4.75,1.84,11.93,5.42,18.17Z" transform="translate(-0.01 -0.02)"/>
    <path d="M48.61,170.87c2.87-5.76,5-11.68,5.33-18,.34-2.32-1.08-2.36-1.28-.72C48.59,167.72,27,163.5,27.75,148.86c.6-11.88,12.38-14.43,18.51-10.54,2.43,1.43,2.29.57,1-.92-9.13-10.19-3.6-23.32,8.72-23.56,13.33.79,16.78,14.84,8.62,23.11-1,1-3.28,4.18.12,2,8.25-5.88,19.72.44,19.48,9.5-.43,16.71-20.77,18-25.11,4-.42-1.54-1.62-2.32-1.29.31.6,4.75,1.85,11.93,5.41,18.17Z" transform="translate(-0.01 -0.02)"/>
    <path d="M147.78,72.16c2.87-5.77,5-11.68,5.33-18,.33-2.32-1.07-2.36-1.29-.72-4,15.57-25.66,11.35-24.91-3.29.62-11.87,12.38-14.42,18.53-10.54,2.42,1.42,2.28.57,1-.91-9.16-10.23-3.65-23.36,8.68-23.64,13.32.79,16.79,14.85,8.6,23.11-1,1-3.26,4.18.12,2,8.27-5.87,19.72.44,19.49,9.5-.44,16.71-20.76,18-25.12,4-.41-1.55-1.62-2.33-1.28.3.6,4.76,1.84,12,5.42,18.17Z" transform="translate(-0.01 -0.02)"/>
    <path d="M48.61,72.16c2.87-5.77,5-11.68,5.33-18,.34-2.32-1.08-2.36-1.28-.72C48.61,69,27,64.78,27.75,50.14c.6-11.87,12.38-14.42,18.51-10.54,2.43,1.42,2.29.57,1-.91C38.11,28.5,43.63,15.37,56,15.09c13.33.79,16.78,14.85,8.62,23.11-1,1-3.28,4.18.12,2,8.25-5.87,19.72.44,19.48,9.5-.43,16.71-20.77,18-25.11,4-.42-1.55-1.62-2.33-1.29.3.6,4.76,1.85,12,5.41,18.17Z" transform="translate(-0.01 -0.02)"/>
    <path d="M162.42,212.25c-2.86,5.77-5,11.68-5.32,18-.35,2.32,1.07,2.36,1.27.73,4.07-15.58,25.68-11.35,24.91,3.28-.6,11.87-12.38,14.43-18.51,10.54-2.42-1.42-2.29-.57-1,.91,9.13,10.19,3.6,23.32-8.72,23.56-13.33-.79-16.78-14.84-8.61-23.11,1-1,3.27-4.17-.13-2-8.24,5.86-19.72-.45-19.48-9.5.43-16.71,20.77-18,25.11-4,.42,1.54,1.62,2.32,1.3-.3-.61-4.76-1.86-12-5.42-18.18Z" transform="translate(-0.01 -0.02)"/>
    <path d="M63.27,212.25c-2.87,5.77-5,11.68-5.33,18-.33,2.32,1.08,2.36,1.29.73,4.06-15.58,25.66-11.35,24.91,3.28-.62,11.87-12.38,14.43-18.52,10.54-2.43-1.42-2.29-.57-1,.91,9.11,10.19,3.59,23.32-8.73,23.56-13.32-.79-16.79-14.84-8.61-23.11,1-1,3.27-4.17-.12-2-8.27,5.86-19.72-.45-19.48-9.5.43-16.71,20.76-18,25.11-4,.41,1.54,1.62,2.32,1.28-.3-.6-4.76-1.84-12-5.41-18.18Z" transform="translate(-0.01 -0.02)"/>
    <path d="M7.43,60.3a35.06,35.06,0,0,0,3-7.38c.42-2.53-.43-1.59-.92.07A4.76,4.76,0,0,1,5,56.35c-3.36,0-5-2.6-4.93-5.45-.37-3,2.66-5.11,5-4.94a7.87,7.87,0,0,1,4.12,1.77c.59.32,1.23.45.34-.36-1.67-1.83-3.07-3-3-5.7a5.21,5.21,0,0,1,10.42.3,5.9,5.9,0,0,1-2.4,4.69c-.93.77-.68,1.34.4.62A5.38,5.38,0,0,1,18.36,46C21.84,46,23.2,49,23,51.76s-2.41,5.32-5.35,5c-2.62-.3-4-2.51-4.78-4.77-.27-.69-.68-.88-.67.16a21.93,21.93,0,0,0,2.5,8.18Z" transform="translate(-0.01 -0.02)"/>
    <path d="M203.57,222a35.14,35.14,0,0,0-3,7.39c-.42,2.53.44,1.59.93-.06a4.72,4.72,0,0,1,4.56-3.36c3.36,0,5,2.59,4.92,5.44.37,3-2.66,5.11-5,5a7.94,7.94,0,0,1-4.11-1.78c-.6-.31-1.23-.45-.35.36,1.67,1.83,3.07,3,3,5.7a5.21,5.21,0,0,1-10.42-.3h0a6,6,0,0,1,2.4-4.69c.94-.76.68-1.34-.39-.61a5.58,5.58,0,0,1-3.54,1.31c-3.47,0-4.83-3-4.63-5.76s2.41-5.32,5.34-5c2.62.3,4,2.5,4.79,4.77.26.69.68.88.66-.16a21.84,21.84,0,0,0-2.49-8.19Z" transform="translate(-0.01 -0.02)"/>
  </g>
</svg>
