<svg xmlns="http://www.w3.org/2000/svg" viewBox="0 0 211.9 282.57">
  <title>7C</title>
  <g>
    <path d="M12.54,47C14.68,35.92,17,27.6,22.92,18.56H10.79v3.89H7.56V15.12H25.32l2.19,3.44C21.16,25.35,15.36,47.33,16.39,47Z" transform="translate(-6.16 -15.12)"/>
    <path d="M211.09,265.8c-2.14,11.09-4.41,19.41-10.38,28.44h12.13v-3.89h3.23v7.33H198.31l-2.19-3.44c6.35-6.79,12.15-28.76,11.12-28.44Z" transform="translate(-6.16 -15.12)"/>
    <path d="M155.62,87.62c2.88-5.78,5-11.7,5.35-18,.34-2.33-1.08-2.37-1.29-.73-4.08,15.6-25.76,11.37-25-3.29.61-11.9,12.42-14.46,18.58-10.57,2.44,1.44,2.3.58,1-.91-9.15-10.21-3.61-23.36,8.76-23.6,13.38.79,16.86,14.87,8.65,23.15-1,1-3.29,4.19.12,1.95,8.29-5.88,19.79.45,19.55,9.52-.43,16.74-20.84,18-25.2,4-.42-1.55-1.63-2.33-1.29.3.6,4.77,1.85,12,5.43,18.21Z" transform="translate(-6.16 -15.12)"/>
    <path d="M155.62,187.87c2.88-5.78,5-11.7,5.35-18,.34-2.33-1.08-2.37-1.29-.73-4.08,15.59-25.76,11.37-25-3.29.61-11.9,12.42-14.46,18.58-10.57,2.44,1.43,2.3.58,1-.91-9.15-10.21-3.61-23.36,8.76-23.6,13.38.79,16.86,14.87,8.65,23.15-1,1-3.29,4.19.12,2,8.29-5.89,19.79.44,19.55,9.52-.43,16.74-20.84,18-25.2,4-.42-1.55-1.63-2.33-1.29.3.6,4.77,1.85,12,5.43,18.21Z" transform="translate(-6.16 -15.12)"/>
    <path d="M54.09,187.87c2.88-5.78,5-11.7,5.34-18,.35-2.33-1.07-2.37-1.28-.73-4.08,15.59-25.77,11.37-25-3.29.6-11.9,12.42-14.46,18.58-10.57,2.44,1.43,2.3.58,1-.91-9.15-10.21-3.61-23.36,8.76-23.6,13.38.79,16.85,14.87,8.65,23.15-1,1-3.29,4.19.12,2,8.29-5.89,19.79.44,19.55,9.52-.43,16.74-20.84,18-25.2,4-.42-1.55-1.63-2.33-1.3.3.61,4.77,1.86,12,5.44,18.21Z" transform="translate(-6.16 -15.12)"/>
    <path d="M104.52,137.74c2.88-5.77,5-11.7,5.35-18,.34-2.34-1.08-2.37-1.29-.73-4.08,15.59-25.76,11.37-25-3.3.61-11.89,12.42-14.45,18.59-10.56,2.43,1.43,2.29.57,1-.91C94,94,99.5,80.84,111.88,80.6c13.37.8,16.85,14.87,8.64,23.15-1,1-3.28,4.19.12,2,8.29-5.89,19.79.44,19.55,9.52-.43,16.74-20.83,18-25.2,4-.42-1.55-1.63-2.32-1.29.31.6,4.76,1.85,12,5.43,18.2Z" transform="translate(-6.16 -15.12)"/>
    <path d="M54.09,87.62c2.88-5.78,5-11.7,5.34-18,.35-2.33-1.07-2.37-1.28-.73-4.08,15.6-25.77,11.37-25-3.29C33.73,53.66,45.55,51.1,51.71,55c2.44,1.44,2.3.58,1-.91-9.15-10.21-3.61-23.36,8.76-23.6,13.38.79,16.85,14.87,8.65,23.15-1,1-3.29,4.19.12,1.95C78.5,49.7,90,56,89.76,65.1c-.43,16.74-20.84,18-25.2,4-.42-1.55-1.63-2.33-1.3.3.61,4.77,1.86,12,5.44,18.21Z" transform="translate(-6.16 -15.12)"/>
    <path d="M170.32,229.33c-2.88,5.77-5,11.7-5.35,18-.34,2.33,1.08,2.37,1.29.73,4.08-15.59,25.76-11.37,25,3.3-.61,11.89-12.42,14.45-18.58,10.56-2.44-1.43-2.3-.57-1,.91,9.15,10.22,3.61,23.37-8.76,23.61-13.38-.8-16.85-14.87-8.65-23.15,1-1,3.29-4.19-.12-2-8.29,5.89-19.79-.44-19.55-9.52.43-16.74,20.84-18,25.2-4,.42,1.55,1.63,2.32,1.3-.31-.61-4.77-1.86-11.95-5.44-18.2Z" transform="translate(-6.16 -15.12)"/>
    <path d="M68.79,229.33c-2.88,5.77-5,11.7-5.35,18-.34,2.33,1.08,2.37,1.29.73,4.08-15.59,25.76-11.37,25,3.3-.61,11.89-12.42,14.45-18.59,10.56-2.43-1.43-2.29-.57-1,.91,9.15,10.22,3.61,23.37-8.77,23.61-13.38-.8-16.85-14.87-8.64-23.15,1-1,3.28-4.19-.12-2-8.29,5.89-19.79-.44-19.56-9.52.44-16.74,20.84-18,25.21-4,.42,1.55,1.63,2.32,1.29-.31-.6-4.77-1.85-11.95-5.43-18.2Z" transform="translate(-6.16 -15.12)"/>
    <path d="M13.66,76.88a34.94,34.94,0,0,0,3-7.4c.42-2.53-.44-1.59-.92.07a4.78,4.78,0,0,1-4.58,3.37c-3.38,0-5.06-2.61-4.95-5.46-.37-3,2.67-5.12,5-4.95a7.84,7.84,0,0,1,4.13,1.77c.6.32,1.24.46.35-.36-1.68-1.83-3.08-3-3.05-5.71a5.23,5.23,0,1,1,10.46.3,5.9,5.9,0,0,1-2.41,4.7c-.95.77-.68,1.34.4.62a5.48,5.48,0,0,1,3.54-1.31c3.49-.06,4.86,3,4.66,5.76-.19,2.63-2.43,5.33-5.37,5-2.63-.3-4-2.51-4.81-4.77-.26-.7-.67-.88-.66.15a22.1,22.1,0,0,0,2.5,8.2Z" transform="translate(-6.16 -15.12)"/>
    <path d="M210.56,238.89a34.94,34.94,0,0,0-3,7.4c-.42,2.52.44,1.59.92-.07a4.75,4.75,0,0,1,4.58-3.37c3.37,0,5,2.6,4.95,5.45.37,3-2.67,5.12-5,5a7.8,7.8,0,0,1-4.13-1.77c-.6-.32-1.24-.46-.35.35,1.68,1.84,3.08,3,3,5.71a5.23,5.23,0,1,1-10.46-.29,5.93,5.93,0,0,1,2.41-4.71c.94-.76.68-1.33-.4-.61a5.5,5.5,0,0,1-3.54,1.31c-3.49.05-4.86-3-4.66-5.76.19-2.63,2.42-5.33,5.37-5,2.63.31,4,2.51,4.81,4.78.26.7.67.88.66-.15a22.1,22.1,0,0,0-2.5-8.2Z" transform="translate(-6.16 -15.12)"/>
  </g>
</svg>
