<svg xmlns="http://www.w3.org/2000/svg" viewBox="0 0 211 284.5">
  <title>c7</title>
  <g>
    <path d="M6.31,31.11C8.45,20,10.76,11.58,16.65,2.47H4.57V6.39H1.36V-.95H19l2.18,3.42c-6.32,6.84-12.1,29-11.07,28.64Z" transform="translate(-0.01 0.95)"/>
    <path d="M204.1,251.45c-2.13,11.16-4.39,19.54-10.34,28.64h12.08v-3.92H209v7.38H191.37l-2.18-3.46c6.32-6.84,12.1-29,11.07-28.64Z" transform="translate(-0.01 0.95)"/>
    <path d="M148.84,72c2.87-5.81,5-11.77,5.33-18.13.34-2.34-1.07-2.38-1.28-.73-4.07,15.71-25.67,11.45-24.9-3.32.61-12,12.37-14.56,18.5-10.64,2.43,1.45,2.29.58,1-.92-9.11-10.28-3.6-23.52,8.72-23.76,13.33.79,16.8,15,8.62,23.31-1,1-3.28,4.22.12,2,8.26-5.92,19.72.46,19.48,9.59-.43,16.86-20.77,18.13-25.11,4-.42-1.56-1.62-2.35-1.28.3.59,4.8,1.84,12.08,5.4,18.34Z" transform="translate(-0.01 0.95)"/>
    <path d="M148.84,173c2.87-5.82,5-11.78,5.33-18.13.34-2.34-1.07-2.38-1.28-.73-4.07,15.7-25.67,11.45-24.9-3.3.61-12,12.37-14.58,18.5-10.66,2.43,1.44,2.29.59,1-.91-9.11-10.29-3.6-23.53,8.72-23.77,13.33.8,16.8,15,8.62,23.31-1,1-3.28,4.22.12,2,8.26-5.93,19.72.44,19.48,9.58-.43,16.86-20.77,18.13-25.11,4-.42-1.56-1.62-2.35-1.28.3.59,4.81,1.84,12.09,5.4,18.34Z" transform="translate(-0.01 0.95)"/>
    <path d="M47.71,173c2.86-5.82,5-11.78,5.31-18.13.35-2.34-1.06-2.38-1.27-.73-4.06,15.7-25.68,11.45-24.91-3.3.6-12,12.37-14.58,18.52-10.66,2.43,1.44,2.29.59,1-.91-9.12-10.29-3.59-23.53,8.73-23.77,13.32.8,16.78,15,8.61,23.31-1,1-3.28,4.22.12,2,8.26-5.93,19.71.44,19.47,9.58-.43,16.86-20.75,18.13-25.1,4-.42-1.56-1.62-2.35-1.29.3.61,4.81,1.85,12.09,5.42,18.34Z" transform="translate(-0.01 0.95)"/>
    <path d="M97.94,122.5c2.87-5.82,5-11.78,5.33-18.13.34-2.35-1.08-2.39-1.29-.74-4.06,15.71-25.66,11.46-24.9-3.33.6-12,12.38-14.55,18.52-10.62,2.42,1.44,2.28.57,1-.92C87.46,78.45,92.94,65.2,105.27,65c13.32.8,16.78,15,8.61,23.31-1,1-3.27,4.22.12,2,8.25-5.93,19.71.45,19.48,9.6-.43,16.86-20.76,18.13-25.11,4-.42-1.57-1.63-2.34-1.29.3.6,4.81,1.85,12.09,5.41,18.33Z" transform="translate(-0.01 0.95)"/>
    <path d="M47.71,72c2.86-5.81,5-11.77,5.31-18.13.35-2.34-1.06-2.38-1.27-.73-4.06,15.71-25.68,11.45-24.91-3.32.58-12,12.35-14.6,18.5-10.67,2.43,1.45,2.29.58,1-.92C37.22,28,42.75,14.73,55.07,14.49c13.32.79,16.78,15,8.61,23.31-1,1-3.28,4.22.12,2,8.23-5.93,19.68.42,19.44,9.58-.43,16.86-20.75,18.13-25.1,4-.41-1.56-1.62-2.35-1.29.3.61,4.8,1.85,12.08,5.42,18.34Z" transform="translate(-0.01 0.95)"/>
    <path d="M163.48,214.72c-2.87,5.82-5,11.78-5.32,18.13-.34,2.35,1.07,2.38,1.28.73,4.06-15.7,25.67-11.45,24.91,3.33-.61,12-12.37,14.55-18.52,10.64-2.43-1.44-2.29-.57-1,.92,9.12,10.29,3.59,23.53-8.73,23.76-13.32-.79-16.78-15-8.61-23.3,1-1,3.28-4.22-.12-2-8.26,5.93-19.71-.45-19.47-9.59.43-16.87,20.75-18.13,25.1-4,.41,1.56,1.62,2.34,1.29-.31-.61-4.82-1.85-12-5.42-18.33Z" transform="translate(-0.01 0.95)"/>
    <path d="M62.35,214.72c-2.87,5.82-5,11.78-5.33,18.13-.34,2.35,1.07,2.38,1.28.73,4.07-15.7,25.67-11.45,24.9,3.33-.61,12-12.37,14.55-18.51,10.64-2.42-1.44-2.28-.57-1,.92C72.8,258.76,67.29,272,55,272.23c-13.33-.79-16.8-15-8.61-23.3,1-1,3.27-4.22-.12-2-8.25,5.9-19.72-.45-19.49-9.59.44-16.87,20.77-18.13,25.12-4,.42,1.56,1.62,2.34,1.28-.31-.59-4.82-1.84-12-5.4-18.33Z" transform="translate(-0.01 0.95)"/>
    <path d="M7.43,61.2a35.63,35.63,0,0,0,3-7.45c.42-2.55-.44-1.6-.92.07A4.76,4.76,0,0,1,5,57.21c-3.37,0-5-2.62-4.93-5.49-.37-3,2.66-5.16,5-5a7.86,7.86,0,0,1,4.11,1.78c.6.33,1.24.47.35-.36-1.67-1.84-3.07-3-3-5.75a5.21,5.21,0,1,1,10.42.3,6,6,0,0,1-2.4,4.74c-.94.77-.68,1.35.4.62a5.51,5.51,0,0,1,3.53-1.32c3.47-.06,4.84,3,4.64,5.8s-2.42,5.37-5.35,5c-2.62-.3-4-2.53-4.79-4.81-.26-.69-.67-.87-.66.16a22.51,22.51,0,0,0,2.49,8.25Z" transform="translate(-0.01 0.95)"/>
    <path d="M203.57,224.35a36.18,36.18,0,0,0-3,7.45c-.42,2.54.44,1.6.92-.07a4.75,4.75,0,0,1,4.56-3.39c3.36,0,5,2.61,4.93,5.48.37,3-2.66,5.16-5,5a7.7,7.7,0,0,1-4.11-1.78c-.6-.33-1.24-.47-.35.35,1.67,1.85,3.07,3,3,5.75a5.21,5.21,0,1,1-10.42-.29,6.07,6.07,0,0,1,2.4-4.75c.93-.76.68-1.34-.4-.61a5.38,5.38,0,0,1-3.53,1.32c-3.47.05-4.84-3-4.64-5.8s2.41-5.37,5.35-5c2.62.32,4,2.53,4.79,4.82.26.7.67.88.66-.15a22.56,22.56,0,0,0-2.49-8.26Z" transform="translate(-0.01 0.95)"/>
  </g>
</svg>
