<svg xmlns="http://www.w3.org/2000/svg" viewBox="0 0 211 284.5">
  <title>c8</title>
  <g>
    <path d="M0,23.08c.16-4.41,1.77-6,4.93-8.36A7.57,7.57,0,0,1,1.6,8c.52-5.48,4.8-8.22,9.48-8s8.68,3.78,9,7.76c.27,3.47-.77,5.14-3.25,7,3,2.45,4.83,4,4.76,8.41a10.25,10.25,0,0,1-10.32,9.57c-6.51.2-11.41-5.2-11.25-9.6Zm18.15,0c.28-4-3.29-6.67-7.3-6.71s-7.44,3.27-7.44,6.85c0,3.84,4.55,5.94,7.5,6,3.57,0,7-2.64,7.22-6ZM16.9,8.83c.08-3.36-3-5.76-6.27-5.66-2.88.08-5.92,2.25-5.93,5,0,3.51,3.47,5.26,6.42,5.33C13.79,13.62,16.85,11.37,16.9,8.83Z" transform="translate(0 0.02)"/>
    <path d="M209.29,261.28c-.16,4.39-1.77,6-4.93,8.36a7.54,7.54,0,0,1,3.37,6.73c-.52,5.47-4.8,8.22-9.47,8.1s-8.69-3.79-9-7.77c-.28-3.47.77-5.14,3.24-7-2.94-2.46-4.83-4.08-4.76-8.41a10.26,10.26,0,0,1,10.31-9.66c6.5-.15,11.4,5.2,11.24,9.61Zm-18.14,0c-.28,4,3.28,6.68,7.3,6.72s7.42-3.27,7.42-6.85c0-3.84-4.56-5.93-7.5-5.94-3.58,0-7,2.63-7.22,6Zm1.28,14.26c-.08,3.36,3,5.77,6.29,5.67,2.86-.08,5.91-2.26,5.91-5,0-3.52-3.46-5.27-6.41-5.34-2.68-.11-5.73,2.15-5.79,4.68Z" transform="translate(0 0.02)"/>
    <path d="M149.78,70.78c2.88-5.81,5-11.77,5.35-18.11.34-2.36-1.08-2.4-1.29-.74-4.08,15.69-25.73,11.44-25-3.32.61-12,12.41-14.55,18.56-10.63,2.43,1.44,2.29.57,1-.93-9.14-10.27-3.61-23.5,8.74-23.74,13.37.79,16.83,15,8.64,23.29-1,1-3.28,4.22.12,2,8.28-5.92,19.76.45,19.52,9.59-.42,16.84-20.81,18.11-25.16,4-.42-1.56-1.63-2.35-1.3.31.61,4.79,1.86,12.07,5.43,18.31Z" transform="translate(0 0.02)"/>
    <path d="M149.78,171.65c2.88-5.8,5-11.77,5.35-18.11.34-2.34-1.08-2.38-1.29-.72-4.08,15.68-25.73,11.44-25-3.32.61-12,12.41-14.55,18.56-10.64,2.43,1.45,2.29.59,1-.91-9.14-10.28-3.61-23.51,8.74-23.75,13.37.8,16.83,15,8.64,23.29-1,1-3.28,4.22.12,2,8.28-5.92,19.76.45,19.52,9.58-.42,16.84-20.81,18.11-25.16,4-.42-1.56-1.63-2.35-1.3.31.61,4.79,1.86,12,5.43,18.31Z" transform="translate(0 0.02)"/>
    <path d="M46.39,171.65c2.86-5.8,5-11.77,5.33-18.11.35-2.34-1.07-2.38-1.28-.72-4.07,15.68-25.73,11.44-25-3.32C26,137.5,37.84,135,44,138.86c2.43,1.45,2.3.59,1-.91-9.19-10.27-3.64-23.55,8.71-23.79,13.36.8,16.82,15,8.62,23.29-1,1-3.27,4.22.13,2,8.27-5.91,19.76.46,19.53,9.59-.43,16.84-20.81,18.11-25.17,4-.42-1.56-1.63-2.35-1.3.31.61,4.79,1.86,12,5.44,18.31Z" transform="translate(0 0.02)"/>
    <path d="M96.51,121.22c2.87-5.81,5-11.78,5.34-18.12.34-2.34-1.08-2.38-1.29-.73-4.07,15.7-25.72,11.45-25-3.32.61-12,12.4-14.54,18.55-10.62,2.44,1.43,2.3.57,1-.92C86,77.24,91.54,64,103.9,63.77c13.36.79,16.82,15,8.64,23.28-1,1-3.29,4.22.12,2,8.27-5.93,19.76.44,19.52,9.58-.43,16.85-20.81,18.12-25.17,4-.42-1.56-1.62-2.34-1.3.3.61,4.8,1.86,12,5.44,18.33Z" transform="translate(0 0.02)"/>
    <path d="M46.39,70.78c2.86-5.81,5-11.77,5.33-18.11.35-2.36-1.07-2.4-1.28-.74-4.07,15.69-25.73,11.44-25-3.32C26,36.6,37.84,34.06,44,38c2.43,1.44,2.3.57,1-.93-9.19-10.3-3.64-23.53,8.71-23.77,13.36.79,16.82,15,8.62,23.29-1,1-3.27,4.22.13,2C70.72,32.65,82.21,39,82,48.16c-.43,16.84-20.81,18.11-25.17,4-.42-1.55-1.63-2.34-1.3.32.61,4.79,1.86,12.07,5.44,18.31Z" transform="translate(0 0.02)"/>
    <path d="M164.46,213.37c-2.87,5.81-5,11.78-5.34,18.11-.34,2.35,1.08,2.39,1.29.73,4.07-15.69,25.72-11.44,25,3.32-.6,12-12.4,14.55-18.56,10.64-2.43-1.45-2.29-.58-1,.92,9.14,10.27,3.61,23.5-8.75,23.74-13.36-.79-16.83-15-8.63-23.29,1-1,3.28-4.21-.12-2-8.28,5.92-19.77-.45-19.53-9.6.43-16.83,20.81-18.11,25.17-4,.42,1.56,1.63,2.34,1.29-.31-.6-4.79-1.85-12.08-5.43-18.32Z" transform="translate(0 0.02)"/>
    <path d="M111.19,163.76c-2.88,5.81-5,11.78-5.35,18.12-.34,2.35,1.08,2.39,1.29.74,4.08-15.71,25.73-11.46,25,3.31-.61,12-12.4,14.55-18.56,10.63-2.43-1.45-2.29-.58-1,.92,9.13,10.27,3.6,23.5-8.75,23.74-13.36-.79-16.83-15-8.64-23.29,1-1,3.28-4.22-.12-2-8.28,5.91-19.76-.45-19.52-9.58.43-16.85,20.81-18.12,25.16-4,.42,1.56,1.63,2.34,1.29-.32-.6-4.79-1.85-12-5.42-18.32Z" transform="translate(0 0.02)"/>
    <path d="M61.08,213.37c-2.88,5.81-5,11.78-5.35,18.11-.34,2.35,1.07,2.39,1.29.73,4.07-15.69,25.73-11.44,25,3.32-.6,12-12.41,14.55-18.56,10.64-2.42-1.45-2.28-.58-1,.92,9.15,10.27,3.61,23.5-8.74,23.74-13.36-.79-16.83-15-8.63-23.29,1-1,3.27-4.21-.12-2-8.28,5.92-19.76-.45-19.53-9.6.44-16.83,20.81-18.11,25.17-4,.42,1.56,1.63,2.34,1.29-.31-.6-4.79-1.85-12.08-5.43-18.32Z" transform="translate(0 0.02)"/>
    <path d="M7.44,63.12a35.63,35.63,0,0,0,3-7.45c.42-2.54-.44-1.59-.92.07A4.78,4.78,0,0,1,5,59.13c-3.37,0-5-2.62-4.94-5.49-.37-3,2.67-5.15,5-5a7.74,7.74,0,0,1,4.13,1.79c.6.32,1.24.46.35-.36-1.68-1.84-3.08-3-3-5.75A5.23,5.23,0,1,1,17,44.58h0a6,6,0,0,1-2.41,4.75c-1,.76-.68,1.35.4.61a5.43,5.43,0,0,1,3.54-1.32c3.48,0,4.85,3,4.65,5.81-.19,2.63-2.43,5.35-5.36,5-2.63-.3-4-2.53-4.81-4.81-.26-.69-.67-.89-.66.15A22.44,22.44,0,0,0,14.82,63Z" transform="translate(0 0.02)"/>
    <path d="M203.44,225.18a36.32,36.32,0,0,0-3,7.44c-.41,2.55.44,1.6.93-.07a4.79,4.79,0,0,1,4.6-3.39c3.36,0,5,2.63,5,5.49.37,3-2.67,5.16-5,5a7.67,7.67,0,0,1-4.14-1.79c-.59-.32-1.23-.46-.34.37,1.68,1.85,3.07,3,3,5.75a5.23,5.23,0,0,1-10.45.5,3.38,3.38,0,0,1,0-.45v-.35a6,6,0,0,1,2.41-4.74c.94-.78.68-1.35-.4-.62a5.4,5.4,0,0,1-3.55,1.32c-3.48.06-4.84-3-4.64-5.8s2.42-5.36,5.36-5c2.63.3,4,2.52,4.8,4.8.27.7.68.89.67-.15a22.22,22.22,0,0,0-2.51-8.25Z" transform="translate(0 0.02)"/>
  </g>
</svg>
