<svg xmlns="http://www.w3.org/2000/svg" viewBox="0 0 211.31 282.82">
  <title>8C</title>
  <g>
    <path d="M6.59,38.05c.16-4.38,1.77-6,4.94-8.31a7.52,7.52,0,0,1-3.38-6.69c.52-5.44,4.81-8.17,9.49-8s8.7,3.76,9,7.72c.27,3.44-.77,5.1-3.26,6.92,3,2.44,4.84,4,4.77,8.36a10.23,10.23,0,0,1-10.32,9.59c-6.51.16-11.42-5.17-11.26-9.54Zm18.17,0c.28-4-3.29-6.63-7.31-6.67S10,34.63,10,38.19c0,3.82,4.56,5.9,7.51,5.91,3.58,0,7-2.62,7.23-6ZM23.47,23.89c.08-3.34-3-5.73-6.28-5.63-2.88.08-5.92,2.24-5.93,5,0,3.49,3.47,5.23,6.42,5.3C20.36,28.65,23.42,26.41,23.47,23.89Z" transform="translate(-6.46 -15)"/>
    <path d="M216.13,274.76c-.16,4.37-1.77,6-4.94,8.31a7.49,7.49,0,0,1,3.38,6.69c-.52,5.44-4.81,8.17-9.49,8.05s-8.7-3.76-9-7.72c-.28-3.45.77-5.11,3.25-6.92-2.95-2.44-4.84-4.05-4.77-8.36a10.25,10.25,0,0,1,10.32-9.6c6.51-.15,11.42,5.17,11.26,9.55Zm-18.17,0c-.28,4,3.29,6.64,7.31,6.68s7.43-3.25,7.43-6.8c0-3.82-4.56-5.9-7.51-5.91-3.58,0-7,2.62-7.23,6Zm1.29,14.18c-.08,3.34,3.05,5.73,6.29,5.63,2.87-.08,5.92-2.24,5.92-5,0-3.49-3.46-5.23-6.42-5.3C202.36,284.16,199.31,286.4,199.25,288.92Z" transform="translate(-6.46 -15)"/>
    <path d="M156.54,85.45c2.88-5.77,5-11.7,5.35-18,.34-2.34-1.08-2.38-1.29-.73-4.08,15.59-25.76,11.37-25-3.3.61-11.89,12.42-14.45,18.58-10.56,2.44,1.43,2.3.57,1-.92-9.15-10.21-3.61-23.36,8.76-23.6,13.38.79,16.85,14.87,8.65,23.15-1,1-3.29,4.19.12,2,8.29-5.89,19.79.44,19.55,9.52-.43,16.74-20.84,18-25.2,4-.42-1.55-1.63-2.33-1.3.31.61,4.76,1.86,12,5.44,18.2Z" transform="translate(-6.46 -15)"/>
    <path d="M156.54,185.7c2.88-5.77,5-11.7,5.35-18,.34-2.33-1.08-2.37-1.29-.72-4.08,15.59-25.76,11.37-25-3.3.61-11.9,12.42-14.46,18.58-10.57,2.44,1.44,2.3.58,1-.91-9.15-10.21-3.61-23.36,8.76-23.6,13.38.79,16.85,14.87,8.65,23.15-1,1-3.29,4.19.12,1.95,8.29-5.88,19.79.45,19.55,9.53-.43,16.73-20.84,18-25.2,4-.42-1.55-1.63-2.33-1.3.31.61,4.76,1.86,11.95,5.44,18.2Z" transform="translate(-6.46 -15)"/>
    <path d="M53,185.7c2.87-5.77,5-11.7,5.34-18,.35-2.33-1.07-2.37-1.28-.72-4.08,15.59-25.77,11.37-25-3.3.6-11.9,12.42-14.46,18.58-10.57,2.43,1.44,2.3.58,1-.91C42.44,142,48,128.8,60.36,128.56c13.38.79,16.85,14.87,8.64,23.15-1,1-3.28,4.19.13,1.95,8.28-5.88,19.78.45,19.55,9.53-.43,16.73-20.84,18-25.2,4-.42-1.55-1.63-2.33-1.3.31.61,4.76,1.86,11.95,5.44,18.2Z" transform="translate(-6.46 -15)"/>
    <path d="M103.19,135.58c2.88-5.78,5-11.7,5.35-18,.34-2.33-1.08-2.37-1.29-.73-4.08,15.59-25.76,11.37-25-3.3.61-11.89,12.42-14.45,18.58-10.56,2.44,1.43,2.3.57,1-.91-9.15-10.21-3.61-23.36,8.76-23.6,13.38.79,16.85,14.87,8.65,23.14-1,1-3.29,4.2.12,2,8.29-5.89,19.79.44,19.55,9.52-.43,16.74-20.84,18-25.2,4-.42-1.55-1.63-2.33-1.3.3.61,4.77,1.86,11.95,5.44,18.21Z" transform="translate(-6.46 -15)"/>
    <path d="M53,85.45c2.87-5.77,5-11.7,5.34-18,.35-2.34-1.07-2.38-1.28-.73-4.08,15.59-25.77,11.37-25-3.3.6-11.89,12.42-14.45,18.58-10.56,2.43,1.43,2.3.57,1-.92C42.44,41.7,48,28.55,60.36,28.31,73.74,29.1,77.21,43.18,69,51.46c-1,1-3.28,4.19.13,2,8.28-5.89,19.78.44,19.55,9.52-.43,16.74-20.84,18-25.2,4-.42-1.55-1.63-2.33-1.3.31.61,4.76,1.86,12,5.44,18.2Z" transform="translate(-6.46 -15)"/>
    <path d="M171.24,227.16c-2.88,5.77-5,11.7-5.35,18-.34,2.33,1.08,2.37,1.29.72,4.08-15.59,25.76-11.37,25,3.3-.61,11.9-12.42,14.45-18.59,10.57-2.43-1.44-2.29-.58-1,.91,9.15,10.21,3.61,23.36-8.76,23.6-13.38-.79-16.86-14.87-8.65-23.15,1-1,3.29-4.19-.12-1.95-8.29,5.88-19.79-.45-19.55-9.53.43-16.73,20.84-18,25.2-4,.42,1.55,1.63,2.33,1.29-.31-.6-4.76-1.85-12-5.43-18.2Z" transform="translate(-6.46 -15)"/>
    <path d="M117.89,177.86c-2.88,5.77-5,11.7-5.35,18-.34,2.33,1.08,2.37,1.29.73,4.08-15.6,25.76-11.38,25,3.29-.61,11.9-12.42,14.46-18.58,10.57-2.44-1.44-2.3-.58-1,.91,9.15,10.21,3.61,23.36-8.76,23.6-13.38-.79-16.85-14.87-8.65-23.15,1-1,3.29-4.19-.12-1.95-8.29,5.88-19.79-.45-19.55-9.52.43-16.74,20.84-18,25.2-4,.42,1.55,1.63,2.33,1.29-.31-.6-4.76-1.85-11.95-5.43-18.2Z" transform="translate(-6.46 -15)"/>
    <path d="M67.71,227.16c-2.88,5.77-5,11.7-5.35,18-.34,2.33,1.07,2.37,1.29.72,4.07-15.59,25.76-11.37,25,3.3-.6,11.9-12.42,14.45-18.58,10.57-2.43-1.44-2.29-.58-1,.91,9.16,10.21,3.61,23.36-8.76,23.6-13.38-.79-16.85-14.87-8.64-23.15,1-1,3.28-4.19-.12-1.95-8.29,5.88-19.79-.45-19.56-9.53.44-16.73,20.84-18,25.21-4,.42,1.55,1.63,2.33,1.29-.31-.6-4.76-1.85-12-5.44-18.2Z" transform="translate(-6.46 -15)"/>
    <path d="M14,77.84a35,35,0,0,0,3-7.41c.42-2.52-.44-1.58-.92.07a4.77,4.77,0,0,1-4.58,3.37c-3.38,0-5.06-2.6-4.95-5.45-.37-3,2.67-5.12,5-5a7.77,7.77,0,0,1,4.13,1.78c.6.31,1.24.45.35-.36-1.68-1.83-3.08-3-3-5.71a5.23,5.23,0,1,1,10.46.29,5.93,5.93,0,0,1-2.41,4.71c-.95.76-.68,1.34.4.61a5.48,5.48,0,0,1,3.54-1.31c3.49,0,4.86,3,4.66,5.77-.19,2.62-2.43,5.32-5.37,5-2.63-.3-4-2.51-4.81-4.78-.26-.69-.67-.88-.66.15a22.06,22.06,0,0,0,2.5,8.21Z" transform="translate(-6.46 -15)"/>
    <path d="M210.27,238.89a35.51,35.51,0,0,0-3,7.4c-.41,2.53.44,1.59.93-.07a4.76,4.76,0,0,1,4.58-3.37c3.37,0,5.05,2.61,5,5.46.37,3-2.67,5.12-5,4.95a7.84,7.84,0,0,1-4.14-1.77c-.59-.32-1.23-.46-.34.36,1.68,1.83,3.07,3,3,5.71a5.23,5.23,0,1,1-10.45-.3,5.9,5.9,0,0,1,2.41-4.7c.94-.77.68-1.34-.4-.62a5.42,5.42,0,0,1-3.55,1.31c-3.49.06-4.85-3-4.65-5.76.19-2.63,2.42-5.33,5.37-5,2.63.3,4,2.51,4.8,4.77.27.7.68.89.67-.15a21.85,21.85,0,0,0-2.51-8.2Z" transform="translate(-6.46 -15)"/>
  </g>
</svg>
