<svg xmlns="http://www.w3.org/2000/svg" viewBox="0 0 211.9 285.56">
  <title>9C</title>
  <g>
    <path d="M8.72,39.85l3-.94a5.38,5.38,0,0,0,5.89,3.69c4.39-.34,5.84-5.15,6.17-9.4a8.83,8.83,0,0,1-6.46,2.58c-7-.37-8.77-5.85-8.84-11.6-.19-4.84,1.85-8.35,5.35-10,1.85-.82,6.1-.82,8,.15,4.28,2.21,5.87,6.05,5.58,15.19,0,7.52-1.62,16.29-9.84,16.47a7.94,7.94,0,0,1-8.84-6.18Zm11.89-8.24a7.08,7.08,0,0,0,2.87-3c.52-1,.7-1.55.55-3.67-.38-5.45-3.3-8.54-7.52-7.93-2.36.34-3.65,1.64-4.39,4.05-1.36,4.45.37,9.65,3.61,10.85A6.43,6.43,0,0,0,20.61,31.61Z" transform="translate(-6.16 -13.62)"/>
    <path d="M214.76,273l-3,.94a5.38,5.38,0,0,0-5.89-3.69c-4.38.34-5.83,5.15-6.16,9.4a8.85,8.85,0,0,1,6.46-2.59c7,.37,8.77,5.86,8.83,11.6.2,4.85-1.85,8.36-5.35,10-1.85.81-6.09.81-8-.15-4.28-2.22-5.86-6.05-5.58-15.19,0-7.53,1.63-16.29,9.84-16.48a7.94,7.94,0,0,1,8.84,6.19Zm-11.89,8.24a7.09,7.09,0,0,0-2.86,3c-.53,1-.71,1.56-.56,3.68.39,5.45,3.3,8.54,7.53,7.93,2.35-.34,3.64-1.64,4.38-4,1.37-4.45-.36-9.66-3.61-10.86a6.48,6.48,0,0,0-4.88.34Z" transform="translate(-6.16 -13.62)"/>
    <path d="M155.53,151.82c2.88-5.77,5-11.7,5.35-18,.34-2.33-1.07-2.37-1.29-.72-4.07,15.59-25.76,11.37-25-3.3.6-11.9,12.41-14.45,18.58-10.57,2.43,1.44,2.29.58,1-.91-9.16-10.21-3.61-23.36,8.76-23.6,13.38.79,16.85,14.87,8.64,23.15-1,1-3.28,4.19.12,2,8.29-5.89,19.79.44,19.56,9.52-.44,16.73-20.84,18-25.21,4-.42-1.55-1.63-2.33-1.29.31.6,4.76,1.85,11.95,5.44,18.2Z" transform="translate(-6.16 -13.62)"/>
    <path d="M104.71,179c2.88-5.77,5-11.7,5.35-18,.34-2.33-1.07-2.37-1.29-.73-4.07,15.59-25.76,11.37-25-3.3.6-11.89,12.41-14.45,18.58-10.56,2.43,1.43,2.29.57,1-.91-9.16-10.22-3.61-23.37,8.76-23.61,13.38.8,16.85,14.87,8.64,23.15-1,1-3.28,4.19.12,2,8.29-5.89,19.79.44,19.56,9.52-.44,16.74-20.84,18-25.21,4-.42-1.55-1.63-2.32-1.29.31.6,4.77,1.85,11.95,5.44,18.2Z" transform="translate(-6.16 -13.62)"/>
    <path d="M54,151.82c2.88-5.77,5-11.7,5.35-18,.34-2.33-1.08-2.37-1.29-.72-4.08,15.59-25.76,11.37-25-3.3.61-11.9,12.42-14.45,18.58-10.57,2.44,1.44,2.3.58,1-.91-9.15-10.21-3.61-23.36,8.76-23.6,13.38.79,16.86,14.87,8.65,23.15-1,1-3.29,4.19.12,2,8.29-5.89,19.79.44,19.55,9.52-.43,16.73-20.84,18-25.2,4-.42-1.55-1.63-2.33-1.29.31.6,4.76,1.85,11.95,5.43,18.2Z" transform="translate(-6.16 -13.62)"/>
    <path d="M155.53,86.49c2.88-5.77,5-11.7,5.35-18,.34-2.33-1.07-2.37-1.29-.72-4.07,15.59-25.76,11.37-25-3.3.6-11.9,12.41-14.45,18.58-10.57,2.43,1.44,2.29.58,1-.91-9.16-10.21-3.61-23.36,8.76-23.6,13.38.79,16.85,14.87,8.64,23.15-1,1-3.28,4.19.12,2,8.29-5.88,19.79.45,19.56,9.53-.44,16.73-20.84,18-25.21,4-.42-1.55-1.63-2.33-1.29.31.6,4.76,1.85,11.95,5.44,18.2Z" transform="translate(-6.16 -13.62)"/>
    <path d="M54,86.49c2.88-5.77,5-11.7,5.35-18,.34-2.33-1.08-2.37-1.29-.72C54,83.32,32.3,79.1,33,64.43,33.65,52.53,45.46,50,51.62,53.86c2.44,1.44,2.3.58,1-.91C43.44,42.74,49,29.59,61.35,29.35,74.73,30.14,78.21,44.22,70,52.5c-1,1-3.29,4.19.12,2,8.29-5.88,19.79.45,19.55,9.53-.43,16.73-20.84,18-25.2,4-.42-1.55-1.63-2.33-1.29.31.6,4.76,1.85,11.95,5.43,18.2Z" transform="translate(-6.16 -13.62)"/>
    <path d="M68.7,226.68c-2.88,5.78-5,11.7-5.35,18-.34,2.33,1.08,2.37,1.29.73,4.08-15.59,25.76-11.37,25,3.3-.61,11.89-12.42,14.45-18.58,10.56-2.44-1.43-2.3-.57-1,.91,9.15,10.21,3.61,23.36-8.76,23.6C48,283,44.5,269,52.7,260.68c1-1,3.29-4.2-.12-2-8.29,5.89-19.79-.44-19.55-9.52.43-16.74,20.84-18,25.2-4,.42,1.55,1.63,2.33,1.3-.3-.61-4.77-1.86-11.95-5.44-18.21Z" transform="translate(-6.16 -13.62)"/>
    <path d="M170.23,226.68c-2.87,5.78-5,11.7-5.34,18-.35,2.33,1.07,2.37,1.28.73,4.08-15.59,25.77-11.37,25,3.3-.6,11.89-12.42,14.45-18.58,10.56-2.43-1.43-2.3-.57-1,.91,9.16,10.21,3.61,23.36-8.76,23.6C149.5,283,146,269,154.24,260.68c1-1,3.28-4.2-.13-2-8.28,5.89-19.78-.44-19.55-9.52.43-16.74,20.84-18,25.2-4,.42,1.55,1.63,2.33,1.3-.3-.61-4.77-1.86-11.95-5.44-18.21Z" transform="translate(-6.16 -13.62)"/>
    <path d="M170.23,161.58c-2.87,5.77-5,11.7-5.34,18-.35,2.34,1.07,2.38,1.28.73,4.08-15.59,25.77-11.37,25,3.3-.6,11.89-12.42,14.45-18.58,10.56-2.43-1.43-2.3-.57-1,.92,9.16,10.21,3.61,23.36-8.76,23.6-13.38-.79-16.85-14.87-8.64-23.15,1-1,3.28-4.19-.13-2-8.28,5.89-19.78-.44-19.55-9.52.43-16.74,20.84-18,25.2-4,.42,1.55,1.63,2.33,1.3-.31-.61-4.76-1.86-11.95-5.44-18.2Z" transform="translate(-6.16 -13.62)"/>
    <path d="M68.7,161.58c-2.88,5.77-5,11.7-5.35,18-.34,2.34,1.08,2.38,1.29.73,4.08-15.59,25.76-11.37,25,3.3-.61,11.89-12.42,14.45-18.58,10.56-2.44-1.43-2.3-.57-1,.92,9.15,10.21,3.61,23.36-8.76,23.6C48,217.93,44.5,203.85,52.7,195.57c1-1,3.29-4.19-.12-2-8.29,5.89-19.79-.44-19.55-9.52.43-16.74,20.84-18,25.2-4,.42,1.55,1.63,2.33,1.3-.31-.61-4.76-1.86-11.95-5.44-18.2Z" transform="translate(-6.16 -13.62)"/>
    <path d="M13.66,73.25a34.94,34.94,0,0,0,3-7.4c.42-2.53-.43-1.59-.92.07a4.76,4.76,0,0,1-4.58,3.37c-3.37,0-5.05-2.61-4.95-5.46-.37-3,2.67-5.12,5-4.95a7.84,7.84,0,0,1,4.14,1.77c.59.32,1.23.46.34-.36-1.68-1.83-3.08-3-3.05-5.71a5.23,5.23,0,1,1,10.46.3,5.9,5.9,0,0,1-2.41,4.7c-.94.77-.68,1.34.4.62a5.4,5.4,0,0,1,3.54-1.31c3.5-.06,4.86,3,4.66,5.76-.19,2.63-2.42,5.33-5.37,5-2.63-.3-4-2.51-4.8-4.77-.27-.7-.68-.89-.67.15a21.85,21.85,0,0,0,2.51,8.2Z" transform="translate(-6.16 -13.62)"/>
    <path d="M210.56,237.92a35.16,35.16,0,0,0-3,7.4c-.42,2.53.44,1.59.93-.06a4.75,4.75,0,0,1,4.58-3.37c3.37,0,5,2.6,4.94,5.45.37,3-2.67,5.12-5,5a7.77,7.77,0,0,1-4.13-1.78c-.6-.31-1.24-.45-.35.36,1.68,1.83,3.08,3,3,5.71a5.23,5.23,0,1,1-10.46-.29,5.93,5.93,0,0,1,2.41-4.71c.95-.76.68-1.34-.4-.61a5.48,5.48,0,0,1-3.54,1.31c-3.49.05-4.85-3-4.65-5.77.18-2.62,2.42-5.32,5.36-5,2.63.3,4,2.51,4.81,4.78.26.69.68.88.66-.15a22.06,22.06,0,0,0-2.5-8.21Z" transform="translate(-6.16 -13.62)"/>
  </g>
</svg>
