<svg xmlns="http://www.w3.org/2000/svg" viewBox="0 0 211 284.5">
  <title>c9</title>
  <g>
    <path d="M2.51,26.18l3-.94a5.35,5.35,0,0,0,5.86,3.68c4.38-.34,5.82-5.13,6.15-9.36a8.79,8.79,0,0,1-6.43,2.57c-7-.37-8.74-5.83-8.81-11.56-.2-4.81,1.83-8.3,5.32-10a12.26,12.26,0,0,1,8,.15c4.26,2.21,5.84,6,5.55,15.12,0,7.49-1.61,16.23-9.8,16.4a7.89,7.89,0,0,1-8.8-6.15ZM14.35,18a7,7,0,0,0,2.86-3c.52-1,.7-1.55.55-3.66-.38-5.42-3.29-8.49-7.49-7.89-2.35.34-3.64,1.64-4.37,4-1.36,4.43.37,9.61,3.59,10.8A6.35,6.35,0,0,0,14.35,18Z" transform="translate(-0.01 -0.02)"/>
    <path d="M207.75,258.34l-3,.93a5.35,5.35,0,0,0-5.86-3.67c-4.36.34-5.81,5.13-6.14,9.36a8.87,8.87,0,0,1,6.44-2.58c7,.37,8.73,5.84,8.79,11.55.2,4.82-1.84,8.32-5.33,10a12.19,12.19,0,0,1-8-.15c-4.27-2.21-5.84-6-5.56-15.11,0-7.5,1.62-16.23,9.8-16.42a7.9,7.9,0,0,1,8.8,6.17Zm-11.84,8.2a7.05,7.05,0,0,0-2.85,3c-.53,1-.7,1.56-.56,3.67.39,5.41,3.29,8.49,7.5,7.88,2.34-.33,3.63-1.63,4.37-4,1.36-4.43-.36-9.62-3.6-10.82a6.5,6.5,0,0,0-4.86.34Z" transform="translate(-0.01 -0.02)"/>
    <path d="M148.75,137.67c2.87-5.74,5-11.65,5.33-17.92.34-2.32-1.06-2.36-1.28-.72-4.06,15.53-25.67,11.32-24.9-3.29.6-11.84,12.36-14.38,18.5-10.51,2.42,1.43,2.28.57,1-.91-9.12-10.17-3.6-23.27,8.72-23.5,13.33.78,16.79,14.81,8.61,23-1,1-3.27,4.17.12,2,8.26-5.86,19.72.44,19.49,9.47-.44,16.67-20.77,17.93-25.12,4-.42-1.55-1.62-2.32-1.28.31.59,4.74,1.84,11.9,5.41,18.12Z" transform="translate(-0.01 -0.02)"/>
    <path d="M98.13,164.74c2.87-5.74,5-11.65,5.33-17.92.34-2.33-1.07-2.37-1.29-.73-4,15.52-25.66,11.32-24.9-3.29.59-11.84,12.36-14.39,18.51-10.52,2.42,1.43,2.28.57,1-.9-9.13-10.18-3.6-23.27,8.72-23.51,13.33.8,16.78,14.8,8.6,23-1,1-3.26,4.17.12,2,8.26-5.86,19.72.44,19.49,9.48-.43,16.67-20.76,17.93-25.11,4-.42-1.55-1.63-2.31-1.29.31.6,4.75,1.85,11.9,5.42,18.12Z" transform="translate(-0.01 -0.02)"/>
    <path d="M47.62,137.67c2.86-5.74,5-11.65,5.32-17.92.34-2.32-1.07-2.36-1.28-.72C47.6,134.56,26,130.35,26.75,115.74c.61-11.84,12.37-14.38,18.52-10.51,2.43,1.43,2.29.57,1-.91C37.14,94.15,42.67,81,55,80.82c13.32.78,16.79,14.81,8.61,23-1,1-3.28,4.17.12,2,8.26-5.86,19.71.44,19.47,9.47-.43,16.67-20.75,17.93-25.1,4-.41-1.55-1.62-2.32-1.28.31.6,4.74,1.84,11.9,5.41,18.12Z" transform="translate(-0.01 -0.02)"/>
    <path d="M148.75,72.62c2.87-5.75,5-11.65,5.33-17.92.34-2.32-1.06-2.36-1.28-.71-4.06,15.51-25.67,11.31-24.9-3.29.6-11.85,12.36-14.39,18.5-10.53,2.42,1.44,2.28.58,1-.9-9.12-10.17-3.6-23.27,8.72-23.51,13.33.79,16.79,14.81,8.61,23.06-1,1-3.27,4.17.12,2,8.26-5.86,19.72.45,19.49,9.49-.44,16.65-20.77,17.92-25.12,4-.42-1.54-1.62-2.32-1.28.31.59,4.74,1.84,11.89,5.41,18.12Z" transform="translate(-0.01 -0.02)"/>
    <path d="M47.62,72.62c2.86-5.75,5-11.65,5.32-17.92.34-2.32-1.07-2.36-1.28-.71-4,15.47-25.67,11.27-25-3.33.65-11.85,12.41-14.37,18.56-10.53,2.43,1.44,2.29.58,1-.9C37.09,29,42.64,16,55,15.72c13.32.79,16.79,14.81,8.61,23.06-1,1-3.28,4.17.12,2,8.26-5.86,19.71.45,19.47,9.49-.43,16.65-20.75,17.92-25.1,4-.41-1.54-1.62-2.32-1.28.31.6,4.74,1.84,11.89,5.41,18.12Z" transform="translate(-0.01 -0.02)"/>
    <path d="M62.26,212.22c-2.87,5.75-5,11.64-5.33,17.91-.34,2.32,1.07,2.36,1.28.73,4.07-15.52,25.67-11.31,24.9,3.29-.61,11.84-12.37,14.39-18.5,10.51-2.43-1.42-2.29-.56-1,.91,9.11,10.17,3.6,23.26-8.72,23.5-13.25-.77-16.75-14.72-8.57-23,1-1,3.28-4.19-.12-2-8.22,5.91-19.72-.43-19.48-9.48.43-16.66,20.77-17.91,25.11-4,.42,1.54,1.62,2.32,1.29-.3-.6-4.75-1.85-11.89-5.41-18.12Z" transform="translate(-0.01 -0.02)"/>
    <path d="M163.39,212.22c-2.85,5.75-5,11.64-5.31,17.91-.35,2.32,1.06,2.36,1.27.73,4.06-15.52,25.68-11.31,24.91,3.29-.6,11.84-12.37,14.39-18.52,10.51-2.42-1.42-2.29-.56-1,.91,9.13,10.17,3.59,23.26-8.73,23.5-13.27-.77-16.76-14.72-8.55-23,1-1,3.27-4.19-.13-2-8.25,5.86-19.7-.44-19.47-9.49.43-16.66,20.75-17.91,25.1-4,.41,1.54,1.62,2.32,1.29-.3-.61-4.75-1.85-11.89-5.42-18.12Z" transform="translate(-0.01 -0.02)"/>
    <path d="M163.39,147.39c-2.85,5.75-5,11.65-5.31,17.93-.35,2.33,1.06,2.37,1.27.73,4.06-15.53,25.68-11.33,24.91,3.28-.6,11.83-12.37,14.38-18.52,10.51-2.42-1.42-2.29-.57-1,.92,9.13,10.16,3.59,23.26-8.73,23.5-13.32-.79-16.78-14.81-8.6-23.06,1-1,3.27-4.17-.13-2-8.25,5.87-19.7-.44-19.47-9.48.43-16.66,20.75-17.92,25.1-4,.41,1.54,1.62,2.32,1.29-.31-.61-4.74-1.85-11.9-5.42-18.13Z" transform="translate(-0.01 -0.02)"/>
    <path d="M62.26,147.39c-2.87,5.75-5,11.65-5.33,17.93-.34,2.33,1.07,2.37,1.28.73,4.07-15.53,25.67-11.33,24.9,3.28-.61,11.83-12.37,14.38-18.5,10.51-2.43-1.42-2.29-.57-1,.92,9.11,10.16,3.6,23.26-8.72,23.5-13.25-.76-16.75-14.78-8.57-23,1-1,3.28-4.17-.12-2-8.26,5.87-19.72-.44-19.48-9.48.43-16.66,20.77-17.92,25.11-4,.42,1.54,1.62,2.32,1.29-.31-.6-4.74-1.85-11.9-5.41-18.13Z" transform="translate(-0.01 -0.02)"/>
    <path d="M7.43,59.44a35.19,35.19,0,0,0,3-7.37c.42-2.52-.43-1.58-.92.07A4.75,4.75,0,0,1,5,55.5c-3.36,0-5-2.6-4.93-5.44-.37-3,2.66-5.1,5-4.93A7.79,7.79,0,0,1,9.17,46.9c.59.31,1.23.45.34-.36-1.67-1.83-3.07-3-3-5.69a5.21,5.21,0,0,1,10.42.3,5.9,5.9,0,0,1-2.4,4.68c-.93.77-.68,1.33.4.62a5.32,5.32,0,0,1,3.53-1.31c3.48-.06,4.84,3,4.64,5.74s-2.41,5.31-5.35,5c-2.62-.3-4-2.5-4.78-4.75-.27-.7-.68-.89-.67.15a22,22,0,0,0,2.5,8.16Z" transform="translate(-0.01 -0.02)"/>
    <path d="M203.57,223.41a35.43,35.43,0,0,0-3,7.36c-.42,2.52.44,1.58.93-.06a4.75,4.75,0,0,1,4.56-3.36c3.36,0,5,2.59,4.92,5.43.37,3-2.66,5.1-5,5a7.69,7.69,0,0,1-4.11-1.77c-.6-.31-1.24-.45-.35.36,1.67,1.82,3.07,3,3,5.68a5.21,5.21,0,0,1-10.42-.28,6,6,0,0,1,2.4-4.7c.94-.75.68-1.33-.4-.6a5.44,5.44,0,0,1-3.53,1.3c-3.47,0-4.83-3-4.63-5.74s2.41-5.3,5.34-5c2.62.29,4,2.5,4.79,4.76.26.68.68.87.66-.15a21.93,21.93,0,0,0-2.49-8.17Z" transform="translate(-0.01 -0.02)"/>
  </g>
</svg>
