<svg xmlns="http://www.w3.org/2000/svg" viewBox="0 0 211 284.51">
  <title>ca</title>
  <g>
    <path d="M1.76,32.09V29.4H4.45L10.11,0h3.21l6.23,29.4h2.14v2.73h-7.3V29.4h2l-.79-4.51H8.21L7.64,29.4h2v2.73ZM15,21.66,11.76,5.94l-3,15.72Z" transform="translate(0)"/>
    <path d="M210.12,252.4v2.76h-2.65l-5.65,29.35H198.6l-6.23-29.35h-2.15V252.4h7.31v2.74h-2l.79,4.51h7.38l.56-4.51h-2V252.4ZM197,262.84l3.2,15.72,3-15.72Z" transform="translate(0)"/>
    <path d="M98.62,170.92c2.88-5.79,5-11.73,5.34-18,.34-2.34-1.06-2.38-1.28-.73-4.07,15.63-25.71,11.4-25-3.31.61-11.92,12.39-14.49,18.55-10.59,2.42,1.43,2.28.57,1-.91-9.13-10.25-3.61-23.44,8.75-23.68,13.35.8,16.81,14.91,8.62,23.22-1,1-3.27,4.2.12,2,8.27-5.91,19.75.44,19.52,9.55-.44,16.78-20.8,18-25.16,4-.42-1.56-1.62-2.33-1.28.31.59,4.78,1.84,12,5.42,18.25Z" transform="translate(0)"/>
    <path d="M7.46,61.3a35.69,35.69,0,0,0,3-7.43c.42-2.53-.44-1.59-.92.07A4.76,4.76,0,0,1,5,57.32c-3.36,0-5-2.61-4.94-5.47-.37-3,2.66-5.14,5-5a7.77,7.77,0,0,1,4,1.82c.6.32,1.24.46.35-.36-1.68-1.84-3.07-3-3-5.73a5.22,5.22,0,0,1,10.44,0c0,.11,0,.23,0,.34a5.94,5.94,0,0,1-2.37,4.71c-.94.77-.68,1.34.4.62a5.32,5.32,0,0,1,3.53-1.31c3.48-.06,4.85,3,4.65,5.77s-2.42,5.35-5.36,5c-2.62-.31-4-2.52-4.8-4.79-.26-.7-.67-.89-.66.15a22.48,22.48,0,0,0,2.5,8.23Z" transform="translate(0)"/>
    <path d="M203.53,223.58a34.85,34.85,0,0,0-3,7.42c-.42,2.53.44,1.59.93-.06a4.74,4.74,0,0,1,4.57-3.38c3.36,0,5,2.6,4.94,5.46.36,3-2.67,5.14-5,5a7.79,7.79,0,0,1-4.12-1.79c-.6-.31-1.23-.45-.34.36,1.67,1.84,3.06,3,3,5.73a5.22,5.22,0,1,1-10.44,0c0-.11,0-.23,0-.34h0a6,6,0,0,1,2.4-4.72c1-.76.68-1.34-.39-.61a5.48,5.48,0,0,1-3.54,1.32c-3.48.05-4.84-3-4.64-5.79.18-2.63,2.41-5.34,5.36-5,2.62.3,4,2.51,4.79,4.79.26.69.68.88.67-.16a22.39,22.39,0,0,0-2.51-8.22Z" transform="translate(0)"/>
  </g>
</svg>
