<svg xmlns="http://www.w3.org/2000/svg" viewBox="0 0 211.47 283.7">
  <title>AC</title>
  <g>
    <path d="M7.73,46.56V43.83h2.66l5.67-29.27h3.22l6.24,29.27h2.15v2.73H20.35V43.83h2l-.79-4.49H14.16l-.57,4.49h2v2.73ZM20.91,36.15,17.7,20.48l-3,15.67Z" transform="translate(-5.91 -14.56)"/>
    <path d="M216.49,266.24V269h-2.66l-5.66,29.27h-3.23L198.7,269h-2.15v-2.74h7.32V269h-2l.79,4.49h7.39l.57-4.49h-2v-2.74Zm-13.18,10.42,3.21,15.67,3-15.67Z" transform="translate(-5.91 -14.56)"/>
    <path d="M104.76,185c2.88-5.77,5-11.7,5.35-18,.34-2.33-1.07-2.37-1.29-.73-4.07,15.59-25.76,11.37-25-3.3.61-11.89,12.42-14.45,18.59-10.56,2.43,1.43,2.29.57,1-.91-9.15-10.22-3.61-23.37,8.77-23.61,13.38.8,16.85,14.87,8.64,23.15-1,1-3.28,4.19.12,2,8.29-5.89,19.79.44,19.56,9.52-.44,16.74-20.84,18-25.21,4-.42-1.55-1.63-2.32-1.29.31.6,4.77,1.85,11.95,5.44,18.2Z" transform="translate(-5.91 -14.56)"/>
    <path d="M13.41,75.68a35.16,35.16,0,0,0,3-7.4c.42-2.53-.44-1.59-.92.07a4.78,4.78,0,0,1-4.58,3.37c-3.37,0-5.06-2.61-4.95-5.46-.37-3,2.67-5.12,5-5A7.84,7.84,0,0,1,15,63.08c.6.32,1.24.46.35-.36-1.68-1.83-3.08-3-3.05-5.71a5.23,5.23,0,1,1,10.46.3A5.91,5.91,0,0,1,20.38,62c-.94.77-.68,1.34.4.62a5.38,5.38,0,0,1,3.54-1.31c3.49-.06,4.86,3,4.66,5.76-.19,2.63-2.43,5.33-5.37,5-2.63-.3-4-2.51-4.81-4.77-.26-.7-.67-.89-.66.15a22.19,22.19,0,0,0,2.5,8.2Z" transform="translate(-5.91 -14.56)"/>
    <path d="M209.88,237.51a34.66,34.66,0,0,0-3,7.4c-.42,2.53.44,1.59.93-.06a4.75,4.75,0,0,1,4.58-3.37c3.37,0,5,2.6,4.95,5.45.36,3-2.68,5.12-5,5a7.85,7.85,0,0,1-4.13-1.78c-.6-.31-1.23-.45-.34.36,1.67,1.83,3.07,3,3,5.71a5.23,5.23,0,1,1-10.46-.3,6,6,0,0,1,2.41-4.7c.95-.76.68-1.34-.39-.61a5.53,5.53,0,0,1-3.55,1.31c-3.49.05-4.85-3-4.65-5.77.18-2.62,2.42-5.33,5.37-5,2.63.3,4,2.51,4.8,4.78.26.69.68.88.67-.16a22.16,22.16,0,0,0-2.51-8.2Z" transform="translate(-5.91 -14.56)"/>
  </g>
</svg>
