<svg xmlns="http://www.w3.org/2000/svg" viewBox="0 0 212.6 284.38">
  <defs>
    <style>
      .a {
        fill: #e2cf00;
      }

      .b {
        fill: #d40000;
      }

      .c {
        fill: #131f67;
      }
    </style>
  </defs>
  <title>KC</title>
  <g>
    <path class="a" d="M161.25,30.51l-80.52.39L91,50.27c20.92-1.88,39.26-.21,58.37.41Zm-55,68.11c-.09.11-3.35.95-3,1.69,8.53,18.26,12.34,33.11,15.9,51.87a8.31,8.31,0,0,1,4.71-1.4c-1.44-7,7.35-7.83,7.41-.54,1.68.39,3.42.39,4.94,2.1.68-20.51,8-41.72,17.54-56.42-10.83,4.29-26.71,15-26.71,15s-13.23-5.46-20.77-12.27Zm65.82,2.18c-14.41,13.68-20.05,51.65-19,52.17-18.58-.62-24.21,19.86-8.1,30.9-.64,2.14-2.21,3.88-3.43,5.77a12.94,12.94,0,0,0,5.28,1.35c1.38,1.63,2.73,3.51,4.22,3.67a27.58,27.58,0,0,0,4.12-3.81,27.85,27.85,0,0,0,4.95-1.63c-1.41-2-3.09-4-3.13-5.82,14-9.86,12.08-23.28-.54-30.15,3.76-22.6,9.24-37,15.61-47.3ZM72.82,118.26c-1.83.89-2.83,2.78-4.16,4.26A14.63,14.63,0,0,0,63.35,124s4.17,5.76,3.91,6.07c-13.54,8.87-13.43,21.83-.42,30.36,2.2,18.45-13.48,47.64-14.27,46.79l0,6c10.91-12.06,17.08-34,18.17-52,22.28-1.48,23.07-23,7.73-31.09-1.18-1.08,3.85-6.08,3.85-6.08-1.27-1.26-3.41-1.41-5.29-1.56A22.17,22.17,0,0,0,72.82,118.26Zm94.24,14.89c3.15,7,14.66-1.53,16.66,2.2,1.62,2.11,5.15,2.33,5-1.23-.66-3.53-3-4.31-12.2-2.77-3.5.58-4.93.92-4.91-.67C169.15,127.76,167.08,131.73,167.06,133.15Zm10.69,10.22c-2.58,0-3,10.1-3,13.13-7.48,11.81,15.34,10.47,5.47-2.4.34-1.68-1.26-4.42-1.21-5.63C178.22,148.37,177.86,143.81,177.75,143.37ZM46.16,149.45c-4,.1-8.5,3.81-2,9.16.43.14-.22,1.27,0,3,1.83,3.95,1.34,9.79,2.7,8.9,1.57-1,2.89-5.4,2.55-11.49,0-.4-.55-.82-.45-1.25,3.64-6,.56-8.41-2.79-8.32Zm41.42,11.31c-1,19.73-5.87,39.08-16.83,55.86,9.43-4.39,18.58-10.06,27.44-14.91l20.69,12.8A8,8,0,0,0,121.7,213c-9.53-13.94-12.48-34-16.64-52.17a14.51,14.51,0,0,1-4.55,1.69c-.22,6.29-6.82,8.33-8.17.12ZM37.63,176.15c-2.2.14-3.86,5.6,2.39,6.41,4.41.62,10.06-1.55,12.86-.54,3.26,5.19,6.19-2.45,1.83-3.7-4.67-1.34-14.2,2.15-15.26-.82C38.91,176.49,38.25,176.11,37.63,176.15Zm37.54,85.44-12.49,22,79.82-.48-10.43-21C132.24,261.89,97.21,266.29,75.17,261.59Z" transform="translate(-5.81 -14.21)"/>
    <path class="b" d="M92.49,52.15l1.29,3.1c17.15-2.08,35.09-4.22,53.05.34,0,0,1.31-2.86,1.29-3.06C131.39,48.27,94,49.38,92.49,52.15Zm17.35,43.44,16.31,10.55s7.82-5.52,11.15-7.85l-2-3c-6.9,15.21-19,3.18-23.57-4C111.7,91.34,110.46,94.11,109.84,95.59Zm43.82,5.1a2.28,2.28,0,0,1,2.32,1.57c.64,1.3.89,1,.48-.64-.65-2.56,2.06-4.22,4.62-2.52,1.84,1.24,1.76,4.22-.26,4.77-1.62.44-1.67.87-.24.8,2.57-.12,3.25,3.3,1.43,5a2.92,2.92,0,0,1-5-1.86c-.11-.68-.25-.67-.48-.28a6.52,6.52,0,0,0-.58,3.87L152.13,109a9.69,9.69,0,0,0,3.15-2.09c.12-.13.22-.23.22-.29s-.42,0-1.2.12c-2.29.24-4.05-1.25-3.58-3.4.4-1.84,1.35-2.64,2.94-2.68Zm-16.73,59.53c4.13-4.72,9.25-7.75,16.37-7.32.91-19.78,7.77-37.37,18.75-53.21L160,92.42l-4.85,2.92C143.46,111.88,136.29,132.87,136.93,160.22ZM46.34,114s-8.18,6.12-12,9.08l.19,54.54,1.05.36c.08.12-.09-.81.4-1.23a5.42,5.42,0,0,1,1.39-.88c1-.38,1.1-1.08.12-1.69a2.27,2.27,0,0,1-1-2.4,2.07,2.07,0,0,0-.33-1.62,2.81,2.81,0,0,1-.11-2.57c.18-.44.16-.56-.15-1.15a3,3,0,0,1-.15-2.44,6.12,6.12,0,0,0,.18-1.63c0-2.17,1.76-3.61,5.07-4.07,1.3-.17,1.34-.23.74-1.31-3.35-6.13,4.18-9.32,4.75-8.34Zm103.22,3a5.54,5.54,0,1,1-5.46,5.62A5.53,5.53,0,0,1,149.56,117.05Zm.05,1a4.44,4.44,0,1,0,4.51,4.37A4.43,4.43,0,0,0,149.61,118Zm.12,1.4a3,3,0,1,1-3,3.06A3,3,0,0,1,149.73,119.44Zm-110,2.28a2.22,2.22,0,0,1,.7.11,1.77,1.77,0,0,1,1.12,2.81c-.59.9-.52,1,.51.6a1.46,1.46,0,0,1,1.86.42c1.91,1.9-.94,5.08-2.81,3.15-.93-1-1-.67-.37,1,.21.53.55,1.36.55,1.36l-2.75,0,.63-1.61c.47-1.25.49-1.43-.5-.65a2.11,2.11,0,1,1-2.71-3.23c.42-.4,1.09-.41,2,0,.68.27.76.08.25-.56A2,2,0,0,1,39.69,121.72Zm56.89,4.89c-1.12,7.31-.14,17.56-.17,23,3,.56,3,2.59,3.47,5.11,1.45-.5,4.61,1.63,5,1.44C105.25,148.8,101.4,127.27,96.58,126.61ZM146,133.93c4.23.34,3.42,3.61,2.16,4.95-.6.68-.49,1,.17.6,1.78-1.08,3.2-.3,3.78,1.56,1,3.17-3.19,5.9-5,3.05-.63-1-1-.74-.86.27a13.63,13.63,0,0,0,1,3l-4.14-.38s1.26-2.1,1.48-2.67c.47-1.18.22-1.49-.66-.54-2.6,2.37-6.19-.67-4.51-3.81a2.45,2.45,0,0,1,4-.82c1.1.72,1.34.41.35-.47-1.85-1.64-.23-4.93,2.25-4.73ZM39.89,136.52H40a2.41,2.41,0,0,1,1.1.32,1.82,1.82,0,0,1,.66,2.71c-.37.57-.26.93.17.56a1.79,1.79,0,0,1,2.35.61c1.28,2-1.22,4.62-2.81,3-.71-.74-1-.77-.89-.28.23.9.82,2.45.82,2.45l-2.87.05a18.94,18.94,0,0,0,.76-2.45c.11-.66-.16-.56-.84.21a1.4,1.4,0,0,1-2.12.27c-2.09-1.39-.41-5,1.77-3.75.75.41.86.17.27-.61a1.89,1.89,0,0,1,1.49-3ZM189,135.25c-4.65,4.81-3.19,2-1,5.63,0,2.41,1.42,4.3.3,8.11a2.21,2.21,0,0,0-.19,1.85c-.34,4.2-3.71,4.15-7,4.8.55,0,5.19,8.56-3.48,9.23l.1,34.92,13.6-10-.06-54.51ZM86.88,153.69c-3.86,2.49-9.28,8.7-16.09,7.35-.82,21.78-8,38.65-18.17,53.15a115.88,115.88,0,0,0,11,6.18c3-1.57,4.76-2.22,7.75-4.68C83.62,196.74,87.51,176,86.88,153.69Zm32,4c.69,11.19,2.51,21.79,8.33,30.29l.39-23.78c-2.07-.49-3.77-1.84-4.38-5.64Zm-42.07,6.61,3.89.09s-.88,1.76-1.27,2.74c-.46,1.2-.24,1.45.65.61a2.94,2.94,0,0,1,4-.22c2.57,2.58-.12,6.77-3.16,4.93-1.3-.79-1.52-.52-.49.59,2,1.87-.08,4.55-2.43,4.57a3,3,0,0,1-2.93-2.86,2.5,2.5,0,0,1,1.22-2.35c.85-.48.24-.79-.68-.29-3,1.62-5-2.55-2.76-4.92,1.31-1.37,2.7-1.24,4,.06.94.92,1.27.84,1-.24a13.67,13.67,0,0,0-1-2.71Zm105,3.27h2.79c-.28.69-.63,1.4-.85,2.08s-.07.84.67.12c1.92-1.29,4,0,3.56,2a1.93,1.93,0,0,1-2.84,1.49c-1.2-.54-.81-.31-.13.51a1.84,1.84,0,0,1-.47,2.88c-1.9,1.34-4.41-.89-3.15-2.82.74-1.16.4-1-.28-.47-1,.74-2.54-.31-2.57-1.77-.12-2.09,2-3.27,3.48-1.79.71.6.89.53.57-.34A15,15,0,0,0,181.82,167.55Zm.15,15.23,2.92,0a5.11,5.11,0,0,1-.49,1.06c-.53,1-.45,2,.11,1.33a2.13,2.13,0,0,1,3.55.59c.76,1.67-.71,3.52-2.24,2.82-1-.46-1.06-.36-.4.6a1.88,1.88,0,0,1-.69,2.73c-2,1.31-4.51-1.3-2.8-3,.46-.44.31-.66-.24-.36-2.27,1.23-3.94-1.83-2-3.62.84-.76,1.47-.71,2.84.24.43.29.51,0,.21-.76A8.59,8.59,0,0,0,182,182.78ZM73.55,184.61a5.89,5.89,0,1,1-5.8,6A5.89,5.89,0,0,1,73.55,184.61Zm.06,1a4.84,4.84,0,1,0,4.91,4.76A4.83,4.83,0,0,0,73.61,185.66Zm.06,1.86a3,3,0,1,1-2.94,3A3,3,0,0,1,73.67,187.52Zm-7.4,14.26,3.4,1.66s-1.61,1.31-2.25,2c-.81.87-.76,1.28.35.86,2.1-.79,4.21.39,4.25,2.58,0,2.91-3.4,4.32-5,2.11-.5-.66-1.08-.93-.85-.39a3.1,3.1,0,0,1-.76,3.62,3.35,3.35,0,0,1-2.93.32c-2.49-1.28-2.61-4.14-.24-5.27,1.19-.57,1.23-1.1.06-.81-2.45.61-3.87-2.34-2.11-4.37s4.92-1.71,5.26,1.48c.06.56.44.15.62-.72A20.71,20.71,0,0,0,66.27,201.78Zm31.67,4.79S85.5,213.65,85.88,214c.07.05,2.76,3.82,2.76,3.82,6.17-14,21-2.4,23.32,4.74a6.91,6.91,0,0,0,1.16.48c.06-.51,1.08-5.47,1.08-5.47ZM78,258c-.62.78-2.71,3-2.45,3.08,18.29,3.93,37.15,3.62,56.35,1.53L130.42,258c-19,4.83-52.43,0-52.43,0Z" transform="translate(-5.81 -14.21)"/>
    <path class="c" d="M31.82,28.67l1.12,257.08,160.48-.57-1-256.81Zm48.81,1.84,80-.33c-3.75,9.75-14.56,25.14-14,25.18-16.65-2.75-33.81-4.14-53,0Zm-47,.62,44.92-.05L93.4,57.63A5,5,0,0,1,93.75,61a16.87,16.87,0,0,1-1.56,3.7c0-.56-4.27-1.1-3.91,2.6a3.44,3.44,0,0,0,5.77,2c.38,0,.38.32.29.93-.21,1.43-1.74,6-2.78,6.29-5.32-4.37-7.22,3.6-3.63,5.19a5.63,5.63,0,0,0,6.76-2.34c1.14-1.91,1-1.59,1.37.72.14.86.33,1.86.42,2.31.31,1.41,0,1.68-2.36,2.32a37,37,0,0,1-5.79,1.57c-3.58.59-5.42,3.29-5.51,6.58,0,.71,0,1-.14,1.25a169.41,169.41,0,0,0-48.19,27.56ZM135.51,94.18a51.56,51.56,0,0,1-2.92-7.84c-1.32-9.87-1.56-21.58-3-30.76l1.85.2a76.34,76.34,0,0,1,1.45,9.85c.37,3.56.76,11,1.07,14.37.46,5,2.75,13.14,4.17,15.18,2.3,3.33,6.94,1.18,5.39-2.78-.8-2.05-3.92-1.71-3.49.41,0,.38.3-.27.75-.67a1.77,1.77,0,0,1,2.08,2.58c-1,2.16-3.89,1.17-4.86-1.54-1.15-3.25,2.73-5.68,5.64-3.7,3.23,2.2,3.24,7.79.63,9.56-4.38,1.6-7.36-1.6-8.79-4.86Zm10.83,4.11c-.17-.1,0-.44.23-1.25a7.54,7.54,0,0,0-1.66-7.59c-1.08-1.23-1.49-1.45-.92-1.68,1.2-.47,3.87,1.47,4.61,3.37a7.05,7.05,0,0,1-.12,5.92C147.77,97.51,146.67,98.42,146.34,98.29Zm3.31-2c0-.35.23-1.46.29-2a7.37,7.37,0,0,0-2.52-5.91c-1.46-1.4-1.59-1.55-.21-1.57,3.57-.06,5.84,5.71,4.2,8.55C151,95.79,149.69,96.71,149.65,96.28Zm3-2c1.05-4.92-3.71-8.19-3.8-8,.23-1.1,2.12-.47,2.77,0,2.4,1.61,3.78,5.83,2.31,8.23a1.48,1.48,0,0,1-.62.62c-.5.32-.79.57-.89.35s.2-.88.23-1.12Zm-41.85-16c.5-.49.65-.51,1.6-.15,3,1.13,5.38-1,4.68-3.27A3.11,3.11,0,0,0,115,73.18c-1.13-.11-1.15.48.07.94,1.49.56,1.64,2.14.32,2.85-1.54,1-4.07-1.6-5.92-1.38a1.43,1.43,0,0,0-1,2.11C108.94,78.41,110.28,78.84,110.82,78.38Zm-3.32-.33c-1-.48-1.43-.47-1.24-1.6.14-.75,1.2-5.76,1.7-7.7,1.52-5.81.09-9-4.19-10.33-2.9-.88-5.41-.43-8.36,1.14l-.54-1.64c12.41-3.24,33.58-2.52,33.5-2.4a33.29,33.29,0,0,1,.74,5,59,59,0,0,0-6-2.59c-3.19-1-8.23.09-9.12,1.92-.51,1-.24,1.73,1.9.58,3.5-1.89,10.66-.45,13.19,1.55.58.46.55.56.56,1.1,0,.83.07.87-1.08.26-6-3.08-11.16-2.72-12.93,1.32-.41-.12-2-.39-2-.39l1.67,2.48.32,2.59s2.74,1.52,4.25,2.16.63,0-1.2-1.31c-1.33-.93-.27-1.23.61-.87a9.12,9.12,0,0,0,7.55-1c1-.6,3.14-.08,3.17.2,0,0,.29,2.26.58,7,.14,2.24.41,5.17.57,6.37.47,3.62.61,3.83-1.3,2.09a22.14,22.14,0,0,0-1.72-1.49c-.24,1.12,2.57,3.1,3.23,3.77,1,1,1.79,3.67,1.39,3.82-.25.1-2.92-2.17-5-4.21a21.41,21.41,0,0,0-2-1.75c-.44.29,1.33,2.28,3,3.78,1.94,1.74,2.16,1.89,1.51,2.15-1.2.49-2.28-.11-5.19-2.52a8.21,8.21,0,0,0-1.44-1c-.26.35,2.42,2.9,3,3.11,1.14.41,1.46,1.5.57,1.93-.6.29-2.82-.93-4.6-2.47a3.6,3.6,0,0,0-1.27-.68c-.35.22,1.64,1.94,3.54,3.09s2.16,1.4,1.69,2.33S122,92.61,120,90.32c-.43-.49-.78-.7-.69-.53.89,2.46,3.82,4.23,6,4.93a4.84,4.84,0,0,1,1.21.49c.62.49.48,1-.19,1.29-2.32.65-6-2.16-8.6-5.11-.31-.12-.13.26,0,.39,2.19,3.49,6.37,6.14,8.89,5.65,1.48-.29,2.66.15,2.67.65s-.8,1-2.39,1.16c-3.58.25-9.18-3.67-12.46-8.66-.1-.16-.22-.21-.23-.12-.09,1.06,2,3.65,3.51,5.14,4.64,4.41,9,5.9,12.45,3.42,1.93-1.5,3.8-4.77.93-5.86-1.53-.58-2.49,1.52-1.19.92,1.71-.21,2.1.7,1.88,1.55a2,2,0,0,1-3.07,1.08c-2-1.11-1.62-4.92,1-5.59a4.09,4.09,0,0,1,4.76,3.38c.43,3-2.95,6.23-5.65,7-9.24,2.75-16.45-10.08-16.49-10.37-.47-.9-1-1.37-1.38-.33-.37,1.51-2.46,5.92-3.57,5.89.34-1.55,1.81-4.17,1.45-6.46-.62,1.88-1.91,5.9-4.4,8-.65.58-2.54,1.27-1.23-.24,1.57-2.21,3.62-5.23,3.2-8.06-.42.63-.65,2.25-1.12,3.31-1.2,2.67-3.81,5.84-5.53,6.35-1.27.38-1.15,0,.15-1.42s3.87-5.79,3.71-7.65c-.08-.82-2.57,7.11-7.25,9.28a2.09,2.09,0,0,1-2-.12c1.84-1.06,6.93-6.08,6.45-11.77l-.67,2.1c-1.73,5.44-5.43,9-8.32,9.32-2.31.23-3.92-.7-3.34-1.11a8.07,8.07,0,0,0,7.36-3.92c2-3,2.68-7.73,1.5-12.76a85.24,85.24,0,0,1-1.67-13c3.27,1.12,6.57,1.87,9.76.62-.32,1.3-.86,1.46-1.7,2.45-.61.71-.4.88,2-.8.7-.49,1-.88,1.07-.75s-.11,1.55-.8,4.22c-1,4-.77,4.28,3.06,5.79a2.63,2.63,0,0,1,1.24.85c.12.14.75,1.27.8,1.31s.11-1.15,0-1.47a2.89,2.89,0,0,0-1-1.71,7.82,7.82,0,0,0-2.54-1.08Zm72.42,52.08,0-4.14,4,2.85,0,1.37ZM173,131l-.15-76.68,4.63-3.07c1,3,1,9.56.6,12.46-.6,1.89-.87,10.31-.19,14.59a43,43,0,0,1-.07,11.76,75.14,75.14,0,0,0,.34,10.58,31.4,31.4,0,0,1-.22,8.49,34.88,34.88,0,0,0,.16,8.55,72.37,72.37,0,0,1,.41,12.72C177.88,131.18,172.69,131.29,173,131Zm6.12-80.24s3.11,2.05,4.61,3.08l0,3.31-4.5-2.94Zm-46.47,5.34,1.92.12A111.51,111.51,0,0,1,136,69.33c.09,7,1,14.41,2.61,19.27l-1.42,1.48c-2.41-5.56-2.6-14.33-3.14-20.26a112.84,112.84,0,0,0-1.38-13.69Zm46.84-.7,4.19,2.83,0,3.59-4.21-2.8Zm-44.07,1,1.7.18c.51,4.74,1.3,8,1.6,13.18.39,6.76,1.56,12.3,2.29,17.58l-1.27.42c-.85.39-2.25-5.84-2.88-18.48-.19-3.83-.84-8.13-1.44-12.88Zm2.56.18,2,.36c.89,12,2.31,23.27,3.78,29.73l-1.75.11c-2.18-9.23-2.32-19.91-4-30.2Zm2.92.42,1.86.32c2.23,27.45,3.61,27.09,4,28.17l-2,.82c-2.17-7.89-2.61-19-3.89-29.31Zm8.43,27c-.32.92-1.07.84-1.9.93a42,42,0,0,1-1.84-8.47c-.84-6.47-1.15-12.53-2-18.91l2.21.23c-.07.05,1.57,22.5,3.56,26.22ZM101.73,59.83c2.92.14,5.34,1.45,5.57,3.36.06.44-.28.23-.68-.08a8.7,8.7,0,0,0-8.81-1.28c-.76.27-1.37.7-1.71.64a.78.78,0,0,1-.16-1C96.74,60.08,100.29,59.76,101.73,59.83ZM95,63.68c.06,3-.68,4.68-2.26,5.38-1.92.85-4.37-1-3.18-3,.9-1.53,2.45-1.07,2.75.54l2.43-5.42s.25,1.72.26,2.48Zm88.83-.49,0,3.12-4.48-3,.3-3Zm-79.61-.4c2.21.87,3,1.94,3.1,2.42-.13.35-.35.11-2-.76a7.73,7.73,0,0,0-8.58.16c-.71.14-.78-.26-.07-1A7.71,7.71,0,0,1,104.19,62.79ZM121,62.2a13.53,13.53,0,0,1,6.23,1.42,10.84,10.84,0,0,1,2.22,1.21c.45.23.48,1.26.15,1.34s-.78-.19-1.5-.7c-4.67-3-8-2.65-10.73-.79a1.81,1.81,0,0,1-.79.2c-.52,0-.54-.25-.33-.53A6.79,6.79,0,0,1,121,62.2Zm58.32,2.18,4.5,3.15v3.09L179,67.29ZM98.11,65.64l.66,0c1.53,3.71,3.45,1.8,4.25.31l.8.13c-1.25,5-6.35,2.37-5.71-.46ZM97,66.13c.74.09.71.93,1,1.55.52,1.36-1.46.21-1.79-.13C95.58,67,96.4,66.2,97,66.13ZM119.26,66c1.94,3,3,1.2,4.16-.08l.53.17c-.14,2.11-3.71,4.37-5.4,0Zm6,.33a4,4,0,0,1,1,.31c1.06.43,1,.74-.17,1.26-1.88.84-2.53,1-2-.23.32-.54.54-1.26,1.13-1.34Zm-7.37.45a1.78,1.78,0,0,1,.84,1.36c0,.44-1.43-.07-1.43-.77C117.31,66.91,117.55,66.55,117.85,66.77Zm-13,.17c1,.36.85.82.17,1.23-1.2.67-1.72.54-.94-.51C104.45,67.17,104.53,67,104.86,66.94ZM179,68.5l4.87,3.42,0,3.14L179,71.75a12.35,12.35,0,0,1,0-3.25ZM94.82,73.36c.23,0,.33.77.38,1.89.09,1.85-1.8,4.44-3.71,5.33-2.3,1.07-4.76-.44-4.35-2.66.38-2.06,3.3-2.14,3.41-.24-.29.49.11.91.28.87A7.11,7.11,0,0,0,94.06,75a7.21,7.21,0,0,1,.66-1.57A.14.14,0,0,1,94.82,73.36Zm84.05-.58,4.86,3.55,0,3.12-4.83-3.32a16,16,0,0,1-.06-3.35Zm-59.06,5c-.37.61-.07,1.72.69.78a2,2,0,0,1,3.24,2.36c-1.36,1.63-3,1.11-6.58-.25-2.59-1-3-.65-3.63.06s-.26,1.77.42,1.76c2.09.47,3.91.93,6.07,1.38,4.58.94,7.37-4.95,3.19-7.12C122.21,76.18,120.14,76.86,119.81,77.73Zm-20.2.68c-1.79,1.6-.32,5.8,2.3,6.18a5.72,5.72,0,0,0,2.31-.22c1.84-.53,3.86-1.61,4-2.25.37-2.88-3.91-.29-4.48,0-1.35.82-2.78.71-3.5-.26-1.63-2.2,1.28-4.72,3-2,.45.67.29-.47-.2-1.25C102.36,77.52,100.58,77.59,99.61,78.41Zm79.58-.91,4.57,3.23,0,3-4.44-3.2Zm.34,4.4L183.86,85l.08,3.12-4.55-3c.09-1.13.11-2.18.14-3.25Zm-24.29,1.8c3.81.06,6,5.69,3.95,8-.6.7-1.07.88-1.34.62a8.46,8.46,0,0,1,.07-1.39,6.57,6.57,0,0,0-2-5.55C154.66,84.12,154.19,83.72,155.24,83.7Zm-46.9.89c-.72.26-1.49.78-2.07.65s-.87.16-1.09.62c-.88,1.75-.61,2.31,1.12,1.32.82-.47,1.11-.3,3.3.11a8.23,8.23,0,0,0,4-.09c1.72-.45,2.74-.48,3.61,0s1.46,1.13,1.48.6-.64-2.22-.76-2.75c-.06-.25-.49,0-.89,0-1.43.11-3.12-1.17-4.22-.5-.88.54-1,.69-2.2,0A2.34,2.34,0,0,0,108.34,84.59Zm45.88.39c2.58,2.16,3.24,4.07,3,5.64-.13,1.14-.22,2.4-1.33,3.08a3.45,3.45,0,0,1-.8.21c.86-3.24-.16-6.15-3.8-9.24A2.63,2.63,0,0,1,154.22,85ZM96,85a1.29,1.29,0,0,1,.37.06c.45.15.52,1.32.16,1.69s-.63.06-1-.87C95.23,85.35,95.54,85,96,85Zm-2.38.91c.94,0,1.3.84,1.46,1.53s0,2.33-.54,1.73a5.4,5.4,0,0,0-1-1.88C92.63,86.58,92.72,85.91,93.66,85.89ZM91,86.76a2.79,2.79,0,0,1,.52,0c1.47.24,2.6,2.58,2.26,3.91-.78,1.43-1.07.47-1.32-.83a8.28,8.28,0,0,0-1.18-1.81C90.53,87.18,90.41,86.78,91,86.76Zm88.4-.68,4.47,3.21v3.43l-4.69-3.15c.11-1.2.16-2.35.21-3.49ZM88.1,87.47c2.19,0,4.06,2.55,3.37,5-.86,2.56-5.12,2-4.42-.54a1.18,1.18,0,0,1,1.74-.81c1.08.66,1-.42.28-.8a1.92,1.92,0,0,0-2.85,1c-1.13,4.18,4.25,5.61,7.17,1.29a48.59,48.59,0,0,1,2.88-4c.57-.64.7-.58.6.26-.37,3.88-3.08,8.74-8.16,8.47-4.94-.47-6.48-5.7-2.75-9a3.32,3.32,0,0,1,1.93-.87Zm26.16.21a5.84,5.84,0,0,1-5.22.43c-1.32-.57-1.3,0-.73.56,1.65,1.41,4.66.77,6,0,.41-.25.55-1,0-1Zm69.64,6.21V97l-5-3.35a14.35,14.35,0,0,1,.17-3.06Zm-4.82,1,4.76,3.13.12,3.09-4.62-2.86Zm.33,4.34,4.55,3.14.06,3.38-4.5-3ZM68.55,102.83l-2.78,8.4,1.82.11,1.23,2.22,1.27-2.27,1.91-.15ZM179.6,104l4.38,3,.07,3.12-4.55-3.14Zm-.18,3.82,4.49,3.25.09,3.31-5.09-3.39ZM78.93,109.65l-2.76,9,1.56-.22,1.45,2.41,1.47-2.16,1.39.08Zm-20.74.67-2.62,8.94h1.76l1.48,2.26,1.3-2.18,2,0ZM178.84,112l5.27,3.7,0,3.52L179,115.76Zm5.21,8.36.06,3.09-4.44-3.16-.48-3.42Zm-94.1.54L86.73,130l2.16,0,1.31,2.18,1-2.19H93Zm90,.9,4.12,2.82,0,3.17L180,125Zm-78,36.79-2.35-2.26a3.41,3.41,0,0,1,3.12-.52,3.25,3.25,0,0,1,.62,5.13,3.3,3.3,0,0,1-3.6.07Zm-2.09-3.72c0-3.48-1.79-4.37-3.31-5.08,0,0-.25-22-.22-22.71,0,.09-.39-2.39-.43-2.54h0l-.36-.09c.06,2.24.21,25.15.17,25.3-2.84.33-3.63,2.25-3.89,4.83a4.27,4.27,0,0,0-3.69,1.38c-.82-1.12-.21-2.77-.86-3.94-2,6.85,1.86,11,5.18,10.58.54,6.58,7.79,7.77,7.54-.22C108.8,161.83,105.83,153.76,99.89,154.83ZM58.67,127.14l-3.18,8.91,2.23-.26.81,1.65c3.57-3.15,5.37,1.71,3.55-2.45ZM179.42,143a1.1,1.1,0,0,1,1.05.84c.08,1.5-1.94,1.17-2,.22A1,1,0,0,1,179.42,143Zm1.32,9.78c.87-.72,2.26-.31,2.28.76s-1.08,1.27-1.93.74a1,1,0,0,1-.35-1.5Zm.12,2.65c4.78.36,8.33-2.88,6.81-5.21,1.28-1.62.24-2.54.59-3.47,1-1,.16-3.27-.09-3.28-.21-3-1.08-3.38-2.38-5-.39-.47.91-.92,1.41-1.72a2.34,2.34,0,0,1-2.61-.69l-.56-.7c-8.85.41-16.79,1-16.49,13-1.27,5.09.88,9.63,7.06,8.23,1.35-1.21.46-3,.29-3.8a10.34,10.34,0,0,1,.25-4.9c.53-3.35,3-6.46,3.25-1.21.43-.66.23-.76.94-1,1.7-.61,1.69,1.1,1.35,1.79-.23.36-.56.33-.91.29s-1.14-.24-1.15-.42c-.13.54.9,1.56.79,2.07s-.22.44.23.12c2.13-1.52,3.46,1.88.38,1.49C181.54,151.83,179.29,154.2,180.86,155.42Zm-3.15-18.31c1.68-.08,2.08-.1,2,.78.32,1.63.73,2.38,2.85,2.21s2.81-.41.66.88a4.18,4.18,0,0,1-2.72.45c-1.3-.11-1.2-.24-1.94.2a4.53,4.53,0,0,1-1.2.61c-.5.09-1.38.28-1.38.28a9.68,9.68,0,0,1-2.3,5c-1.48,1.68-2.23,2-.42,1.85.67,0,.33-.3.62,2.42a14.07,14.07,0,0,0,.42,2.43c.47,1.24.53,1.85-1.26,1.94-4.47.34-5.51-4-4.92-6.24a24,24,0,0,0,.3-2.42c0-.5-.08-.93-.06-1.44.1-4.15,1.08-5.24,4.76-7.94C174.23,137.3,176.23,137.13,177.71,137.11Zm3.93.23c2.06-.05,4.06.95,3.06,1.59a5.19,5.19,0,0,1-3.61-.22C180.26,138.12,180.57,137.36,181.64,137.34Zm-92.07,3.52-.82,1.45-.86,6.75.16,1.37,1.68,2.21,1.34-2.29,2.1,0Zm96.54-.68a1.51,1.51,0,0,1,1,2.24c-.75,1.66-5.75,2.46-5.75,2.46a3.8,3.8,0,0,0-.46-2.2s3.33-.87,4-1.51c.47-.43.76-1,1.13-1Zm1,3.76c.48,0,.74.36.87,1.08a1.44,1.44,0,0,1-.39,1.12c-1.27,1.38-4.84,2.34-6.13,2a12.58,12.58,0,0,1,.22-2.22C183.39,146,186.28,144.44,187.1,143.94Zm-50.89,8.5c-1.71-2.46-5.49-2.1-5.08-1.93,0-2.1-.34-5-3.54-5.31s-4.88,4-3.65,5.82c-2-.83-5,1.24-5,1.44-.26,0-2.54,6,4.37,6.34.63,2.85,1.7,4.23,3.91,5.4l.05,23.23.78,1,.07-24.34c3.53-.16,4-4.2,3.71-5.13a6.24,6.24,0,0,0,4.19-1.17l.42,4s.83-1.4.64-2.14c-1.53-22.82,6.72-47.5,17.55-63.49.58-.68.76-1.48,1-1.48,2.64-1.43,4.31-2.39,4.31-2.39,4.36,2.1,12.14,7.15,12.14,7.15l.12,32.51c-.12-.32,14.5-1.63,14.28-1.23,0,0-1.28-.5-1.3-1.36l-.38-76.08-6.4-4.17s-5.25,3.43-6.72,4.61l.16,44.79-11.33-6.64s.18-1.58.2-2.1c-.18-6.11-3.19-8.16-8.9-6.35-.76.25-1.3.46-1.67.15-2.41-7-3.49-25.51-3.49-25.51l16.13-27.32,27.35-.15L190.67,135l1,54.7-14,10.17-.2-35a17.08,17.08,0,0,0-2.53-1,.35.35,0,0,0-.09.65,12.27,12.27,0,0,0,1.77.78l.3,34.73s-5.43,3.65-7.86,5.18c-1.8,1.12-7.53,4-10.91,5.66-1.32.64-2.65,1.16-2.77,1.26-4.62,2-8.78,3.37-12.63,5.42-2.65,1.09-2.53,0-3.1-.85a16.28,16.28,0,0,0-18.48-3.27,12.8,12.8,0,0,0-2.76,1.14,2.87,2.87,0,0,1-.85.4,4,4,0,0,0-1.53.72,7.24,7.24,0,0,0-1.86,2.8,32.31,32.31,0,0,0-1.3,4.65c0,.15.29.12.31.14s.89-3.73,1.22-4.45a5.12,5.12,0,0,1,2.11-2.59c.22,0,.41.3.12.84a16,16,0,0,0-1.22,4.38c-.13.94-.15,1.7,0,1.74s.87-2.87,1.25-3.89c1-2.67,1.6-3.78,2.55-4.35s1.2-.5,1,.12a19.87,19.87,0,0,0-2.33,8c0,.59.26.61.5-.38.79-3.15,1.88-7.4,4.44-8.68,1.1-.49,1.58-.47,1.47-.11a17.16,17.16,0,0,0-3.79,9.52c0,.46.2.37.6-.63,1-3.8,2.56-7,4.38-8.62a4.14,4.14,0,0,1,2.27-.87c2.16-.27,2.23.53.36,1.62-2.14,1.25-4.61,5.78-4.89,9.18-.09,1.18.32,1.3.62-.27,1.27-6.76,7.06-11.23,11.71-9.16,2.09.94,2.47,2.23.65,1.65-3.69-1.16-7.78,1.45-9.46,5.09-1.53,3.29-1.49,5-.42,9.43.73,4.08,2.15,9.28,1.68,13.27-.5.78-2.1-.32-4-.55a7.06,7.06,0,0,0-3.72.19c-1,.39-1.63.49-1.82-.07-.06-.18.8-1,1.18-1.54.62-.78.27-.9-.6-.06a9.31,9.31,0,0,1-1.58,1.43c-.55.11-.57-.5-.13-2.07,1.55-6.08,1.13-6.19-1.52-7.42-2.63-1-1.8-1.51-3-2.5-.82.64,1.07,3.58,3.21,4.22,1.75.53,1.54,1.42.77,3.83-.78,3.37-2.1,7.83-1.34,10.83,1.62,6.29,8,6.16,12.9,3.62l.59,1.6c-4.13,1.68-25.93,3.11-33.28,2.26a20.22,20.22,0,0,1-.85-4.83,38.91,38.91,0,0,0,6.8,2.4c2.83.45,7.19.47,8.3-2.14.34-.76,0-1.4-1-1a16.17,16.17,0,0,1-13.67-.47,1.44,1.44,0,0,1-.64-2c.42-.09,1,.37,1.31.54,3.75,1.9,5.81,2.26,8.25,1.54,1.86-.55,4.36-2.56,3.74-3.12-.63.21-2.71,2-4.14,2.34-3,.79-6.1-.42-9.16-2.4-1-.82-.52-1.42.64-.76,4.59,2.31,6.51,3.84,10.9.6,1-.73,1.53-.64,2.11-.2,2.28,2.05,2.27.9.6-1.22a6.25,6.25,0,0,1-1-1.88,3.91,3.91,0,0,0-.51-1.41,7.26,7.26,0,0,0-2.52-1.36c-1.54-.68-2-.35-.91.2,2,1,3,2,.48,1.45-2.24-1-6-.44-8.11,1-1.66.82-2.4,1.68-2.79-.15-.82-3.83,0-9-1.12-15.72-.21-1.27-.47-2.08-.2-2.26s1.19.61,2.25,2.09c.49.68,1.45,2,1.44,1.71,0-1.41-2.17-4.07-4-5.12-1-.57-1.68-3.23-.54-2.65a34,34,0,0,1,6.35,5.91c.4.66.75.24.32-.55a18,18,0,0,0-2.39-2.88c-1.86-1.81-2.07-1.73-1.72-2.1.71-.73,2.22.21,4.92,2.65.69.88,1.6,1.66,1.49,1.23.28-.68-2.42-3.58-4-4.36-.3-.18-.34-.38-.32-.74.16-1.37,3.25.64,5.83,3,1,.88.16-.78-1-1.9a11.52,11.52,0,0,0-3.24-2.36c-1-.4-1-1.22-.27-1.57,2.58-.11,5.24,2.52,6.82,4.59.44.57.84,1,.39-.07a9.71,9.71,0,0,0-6.64-5.44c-1.72-.3-1.68-1.85-.07-1.67,1.78.19,4.69,1.79,7.16,4.28.71.72,1.92,2.36,1.67,1.4a8.35,8.35,0,0,0-1.63-2.28c-2-2-4.37-3.78-6.86-4.3-1.16-.33-4.61.33-4.63-.27,0-.44.36-.7,1.46-1.07,4.27-1.42,10.51,2.25,13.92,7.88.25.4.71.58.74.49-1.65-4.61-6.77-8.78-10.85-9.5-2.77-.44-5.56.27-6.89,2.13-1.49,2.1-.91,4.92,1.33,4.69,1.18-.11,1.09-.78,1.07-.8s-.77.24-1.19.16c-1.54-.3-1.38-3.08.87-2.8,2.59.31,2.95,4.39.06,5.24-2.66.79-3.64-.42-4.37-1.87-1.07-2.11.08-5.52,2-6.83,5.27-3.66,11.94-.59,15.7,3a16.53,16.53,0,0,1,4.08,6.23c.22.53.62.5.48-.07-5.3-13.51-21.1-15-23.45-4.61,0,0-.08.32-1.6-1.84-2.47-3.5-6.15-4.28-10.68-1.9a66,66,0,0,0-9.3,4.46c-.46.17-3.4,2.19-3.87,1.77-4.49-3-8.41-4-10.55-6.18.07-.41-.31-6.46-.31-6.46l.11-26.13c0-.25-2.38.17-6.4.8-10.68,2.14-9.74-3.48-11.15-3.87-.75-.15-.7.17-.9-20-.06-5.85-.17-16.13-.26-22.85s-.11-12.32,0-12.44A7.93,7.93,0,0,1,35,122.13c2.6-1.84,4.07-3,9.76-7.3a16.65,16.65,0,0,1,1.61-1.16c.66,12.11.07,24.81.39,35.22h.48L47.09,114c-1-.26,22.45-14,35.29-18.42.25-.09.85.18.85.18,7.37,9,26.76,6.3,28.33-4.7,3.21,6.71,17.33,19.73,23.78,4,0,0,2.34,4.51,4.34,4.81,4.51.6,5-.11,14.93-4.93a107.66,107.66,0,0,0-18.4,57.51Zm-6-4.29a4.69,4.69,0,0,1,.12,2.52c-.29.6-.72.6-.72.6l-2.2-1.88-2.15,2a3.05,3.05,0,0,1-.59-3.16A3.09,3.09,0,0,1,130.18,148.15Zm56.77-.3c1.41-.09.68,1.53-1.4,2.62-1.3.69-2.39.88-2.86.64a2.4,2.4,0,0,1,.12-1.77,37.86,37.86,0,0,1,4.14-1.49Zm-90.81,3a2.9,2.9,0,0,1,3,3.05,3.84,3.84,0,0,1-.39,1.6l-2.61-1.92-2,2.12c-.34.12-1.56-1.4-.72-3.06A3.14,3.14,0,0,1,96.14,150.89Zm37.73.91a3,3,0,0,1,.45,5.25c-1,.56-2.62.87-3.36-.27l2.15-2.35-2.47-2.08a3.67,3.67,0,0,1,3.23-.55Zm52.7-.81c.38,0,.47.15.58.5.31,1-.47,2-1.83,2.33s-1.13.44-1.72-.67c-.46-.88-.58-.84.14-1.12C184.62,151.75,185.56,151.41,186.57,151Zm-62.44,1.51s-1.56,1.58-2.24,2.24l2.35,2.45c.11.3-2.71,1.57-4.19-.35a3.34,3.34,0,0,1,1-4.44C122.39,151.57,124.39,152.26,124.13,152.5Zm3.36-.28a2.51,2.51,0,1,1-2.47,2.54A2.51,2.51,0,0,1,127.49,152.22Zm-34.25,4.22L91,158.79l2.43,2.65a12.38,12.38,0,0,1-2.6.18c-3.31-.62-3-4.5-.43-5.52A3,3,0,0,1,93.24,156.44Zm-44.12.8s.44,5,.85,6.68c-.27,2-1.52,3.27-2.09,5.26-.3.89-1.43,2.08-1.65.83-.82-1.54,0-3.45-.71-4.55a19.77,19.77,0,0,1-.47-2.7c-.5-.87-.9-1.28-.83-2.08-.14-3.52-1-2.82-2.58-2.53-1.29.42-3,.59-4,1.35-2.22,1.56-1,2.45-1.85,4.8a5.87,5.87,0,0,1,.21,2.3c-.86,4.2.72,3.86.67,3.92-.66,1,.16,3.14.47,3,1.92.47,1.23,1.88,1.85,2.62s.6,1.09,3.24,1.15c4.76.38,12.33-.33,14-6.14C57.17,163,58.66,155.78,49.12,157.24Zm47.36-.81a2.42,2.42,0,1,1-2.38,2.46A2.43,2.43,0,0,1,96.48,156.43Zm-45.27,1.28a3.81,3.81,0,0,1,2.83,1c1.87,1.79,2,3.42,1.12,10.31a6.58,6.58,0,0,1-1.82,4.28,16.61,16.61,0,0,1-5.89,2.89,9.63,9.63,0,0,1-2.46.23c-.71,0-1.12-.33-1.18-.92.16-1.61-1.48-1.76-2.43-1.67-1.69.06-1.87.24-.81-.58s4-.94,4.51-.4a5.32,5.32,0,0,1,3.6-1.37,3,3,0,0,1-.37-2.28c.71-1.25,1.92-3.48,3.18-4.31,1.25-1.63.19-.9-.59-.87-.44,0-.4-.13-.47-.42a26.93,26.93,0,0,1-.76-5.08C49.67,157.85,50.31,157.72,51.21,157.71Zm-8,1.76a.93.93,0,0,1,0,1.49,1.08,1.08,0,0,1-1.79-.74A1.12,1.12,0,0,1,43.24,159.47Zm84.41,3.45a3.13,3.13,0,0,1-2.93-4.23c.42-.59.6-.5.6-.5l2.31,2.06,2.22-2.32A3,3,0,0,1,127.65,162.92Zm-86.89-3.36a4.12,4.12,0,0,0,.08,1.57c-.4.29-2.11.79-3,1.24a.79.79,0,0,1-1-.92c.24-1,1.74-1.69,2.83-2A1.41,1.41,0,0,1,40.76,159.56Zm.38,2.92c.62-.07.44,1.27.2,2-.23.49-.91.47-1.52.51-1.08.06-2.44,1.31-3,1.11-.19-.09-.33-.6-.35-.93.13-1.8,3.11-2.46,4.7-2.65Zm3.27,1.87a1.47,1.47,0,0,1-1.43.3,1.11,1.11,0,0,1-.25-2C44.14,162.18,45,163.5,44.41,164.35Zm89.71-3-1.23,1.87-1.87,0,3,9.28,1.4-3.63c.19-1.67.41-3.33.58-5Zm-39.82.78,2.39,2,2-2.1c1.53,3.41-.23,5-2.1,4.92C94.57,166.9,92.37,164.94,94.3,162.17Zm-52.56,3.52c.76-.15.44,1.9.33,2-.48.18-2.57.45-3.45,1.2-1.87,1.46-2.67.57-1.8-1.19C37.64,166.64,40.66,165.71,41.74,165.69Zm2.39.1a1.08,1.08,0,0,1,.91,1.72,1.13,1.13,0,0,1-1.9-.74A1,1,0,0,1,44.13,165.79ZM42.89,171c.12.47,0,.33-.92.58a14.39,14.39,0,0,0-2,.87c-1.16.58-1.48.9-1.9.83s-.7-.21-.8-.54c-.41-1.33.67-2.68,3.19-3.6a9.61,9.61,0,0,1,1.77-.39C43.05,168.74,42.13,170.05,42.89,171Zm1.49-2c1.21,0,1.44,1.6.53,1.88C42.79,171.42,43,169,44.38,169Zm-1.5,5.94a.75.75,0,0,1,0,1.15c-.7.34-3.4,0-3.42-.71,0-.5.89-.66,1.73-.68S42.61,174.67,42.88,174.93Zm121.66.83-2.22,3,3,7.46,2.72-9-2.14.84ZM38.92,183.42c.51,23,.42,75.61.42,75.61l6.54,4.44,6.88-4.94c-.07-16.57-.13-28-.2-43.34l10.09,5.54s.31.45.26,2.52c-.7,5.72,4.84,9.44,8.51,7.18,1.42-.6,1.53-.7,1.83-.25.83,1.23,1.76,6.5,1.92,9.86.23,5.07,1.56,15.41,1.89,15.48L60.64,283.33l-25.59.13L34.76,180c1.33,1.57,1.93,2.6,4.16,3.41Zm95.25-2.21-1.23,1.88h-1.48l2.6,9.61,3.16-9.4-1.74-.22ZM52,257.87s-3.19,2.29-4.21,2.95c-.54.2-.8.24-.92-.27a16.72,16.72,0,0,1,.31-3.8,13.42,13.42,0,0,0-.1-4.52,23.41,23.41,0,0,1-.09-6.41,58.33,58.33,0,0,0,0-10.28,67.55,67.55,0,0,1-.06-10.4,36.72,36.72,0,0,0-.28-9.27c-.83-4.6-1-6.19-.1-9.65a12.33,12.33,0,0,0,.42-4.16,51.58,51.58,0,0,0-1-8.55c-.5-3.07-.53-3.5-.07-8.37.1-1,.13-1.64.5-1.95s5-.63,5-.63ZM40,183.51l5,0a17.23,17.23,0,0,0-.51,3.86L40,184.42Zm.08,2,4.36,2.85a23.36,23.36,0,0,0,.09,3.55L40.1,189Zm0,4.52,4.67,3.2c.19,1.24.57,2.5.71,3.62l-5.29-3.59Zm151,1.26.24,91.72-46.48.21-14.74-28.31a26.33,26.33,0,0,1,.51-3.93c.45-1.61.56-2,1.18-2a3.11,3.11,0,0,0,4.06-1.54c.7-1.54-.71-3.88-2.87-4.39a3.76,3.76,0,0,0-3,1c-.61.51-.75.56-.87.12-.28-1,.61-3.71,2.2-6,.88-1.29,1.12-1.67,1.4-1.17a2.85,2.85,0,0,0,4.57.45,3.47,3.47,0,0,0-1.67-5.3c-5-1.61-7.35,3.45-7.29,3.44l-1.08-6.07c6.07-1.48,9.57-2,11.49-3.85a7.93,7.93,0,0,0,2.06-6.17s16.85-6.85,24.73-11.1a188.64,188.64,0,0,0,25.6-17Zm-25.66.67-1.24,2.19h-1.77l3.57,9.26,2.74-9.67-1.71.16ZM40.29,194.59l5.35,3.69a15.48,15.48,0,0,1,.11,3.63l-5.63-3.73Zm104.4-1.13-1.33,1.77-1.53-.16,3,9.16c.91-2.65,1.75-6.24,2.65-8.9l-1.42.07ZM40.2,199.31,45.74,203a6.88,6.88,0,0,1-.32,3l-5.23-3.35Zm114.87.53-1.34,2.58-1.79-.24,3.2,8.78,3.5-8.7-2.17.12ZM40.21,203.58,45,207.1c.07.05-.27,1.61-.19,2.49l-4.57-2.81Zm.13,4.36L44.82,211a18.45,18.45,0,0,0,.27,3.26l-4.86-3.16Zm-.08,4.44,5.18,3.68.27,3-5.48-3.44Zm42.61,1.23c5,1.86,9.62,11.3,9.48,23.53-.1,8.49,2.46,20.6,2.41,20.46s-1.44.2-1.84-.12a79.06,79.06,0,0,1-2.79-18.25c-.25-4.53-.51-9-.79-10-.82-3.65-1.7-7.91-4-10.69-1.82-2.09-3.89-2.46-5.13-.11-1,1.93,1.12,5.12,2.9,4.06.43-.25.68-.65.12-.64-1.84.27-3.08-2.28-1.91-3.49,2-2.14,5.64,2.63,4,5.25-.73,1.13-2.65,1.33-4.19.91a6.6,6.6,0,0,1-3.13-8.36c.88-2,2.79-3.24,4.94-2.53Zm-6,1.22c.4,0,.13.76-.25,1.92-.88,2.78.77,7.11,3.06,8,.68.46.64.64.19.9-1.49.84-4.2-1.68-4.91-4.47-.52-2-.39-4.42.58-5.43a2.77,2.77,0,0,1,1.24-.89Zm-36.65,1.64,5.52,3.61a9.8,9.8,0,0,1,0,3.54l-5.54-3.85Zm33.35-.05c.41,0,.25.68.14,1.93a7.37,7.37,0,0,0,2.69,6.77c.86.73,1.1,1,.73,1.35-.53.56-2.05-.18-3.24-1.42-2.17-2.27-2.89-6.55-1.2-8.1a1.67,1.67,0,0,1,.88-.53Zm61.47.51c2.36-.1,4.35.82,4.57,3.71.32,4.22-3.61,6.53-6.36,4.11-2.46-2.44,0-6.25,2.89-4.47,1.43.91-.28,3-1.44,1.91-.53-.48-.76-.19-.38.37,1.12,1.68,3.33.28,3.17-1.19-.31-2.91-3.88-2.87-5.22-1.73a31.23,31.23,0,0,0-4.67,5.51c-1,1.45-1.2,1.41-1-.38.39-4.73,4.8-7.7,8.49-7.84Zm-64.31.92c.37,0,.22.53.25,1.92.15,3.57,1.66,5.79,3.57,7,.64.71-.18,1.21-1.39.87-2.74-.85-5.54-6.74-3.21-9.27C70.26,218,70.52,217.86,70.72,217.85ZM68.05,219c.38,0,.17.77.2,2.25.08,3.14,1,4.64,3.38,6.56.76.62.85.55.55.89-.8.92-3.5-.38-4.65-2.25-1.38-2.24-1.58-5.61-.3-6.88.36-.36.62-.56.82-.57Zm-2.65,1.51c.31,0,.14.57.19,1.92.11,3.28.86,4.91,3,6.43,1.3,1,1.62.66,1.22,1-.7.66-2.62.09-4.05-1.12-2.16-1.82-2.76-6.31-1-7.84C65,220.68,65.23,220.53,65.4,220.53ZM40.3,221l5.31,3.68-.15,3.11-5.28-3.57Zm92.86,5.83a3.13,3.13,0,0,1-2.72-3.77c.09-.59.43-.93.8-.16.32,1.23,1.14,2.93,2.26,3.26.45.13.07.76-.34.67Zm-46.5-3.67c2.44,6.14,2.4,12.85,2.8,19.18.54,8.42,2,14.1,2.52,15,0,0-2.39,0-2.51-.31,0,0-2.24-11.17-1.9-16.7a51.55,51.55,0,0,0-1.92-14.05c-.78-2.17-.81-.74,1-3.17Zm-46.39,2.4,5.11,3.34c-.07,1.14-.08,2.28-.07,3.43l-5-3.55Zm68.7-.29c0,.19.74.35,1.89.07a7.27,7.27,0,0,1,3.54,0c1,.29,1.16-.05.21-.46a4.83,4.83,0,0,0-2.29-.64C111.22,224.26,109,224.86,109,225.26Zm20.7-.13a8.19,8.19,0,0,0,.86,1.15c.66.76.84.77.54,1.08-.69.72-2.13-.32-2.29-1.65C128.65,224.74,129.13,224.13,129.67,225.13Zm-45.75.27c2.39,3.4,2.74,11.37,2.79,17a85,85,0,0,0,1.91,14.42,2.08,2.08,0,0,1-1.77-.05c-.62-.8-1-3-1.71-9.11-.18-1.57-.54-6.54-.62-10.55-.07-3.54-2-11.19-2-11.19a3.15,3.15,0,0,1,1.45-.56Zm-2.65.85c2.17,4.85,2.52,9.67,2.62,15.51a105.68,105.68,0,0,0,1.79,14.87c-.74.08-1.51.14-1.82-.19a3.05,3.05,0,0,1-.45-1.23,106.55,106.55,0,0,1-1.51-14.38c-.42-6.82-.53-8.51-1.5-11.91-.55-1.93-.74-1.89-.32-2.26a2,2,0,0,1,1.19-.41Zm24.45,1.11c.06,2.26.35,1.34,1.14,1,.6-.05,1.09.28,2.21.69,1.42.52,1.29.69,2.29.2.62-.3,1.11-.4,1.4-.16a2.73,2.73,0,0,0,3.53-.36,3.34,3.34,0,0,1,1.94-.1c.81.07.6-.44.7-1.47s-.26-1-1.19-.68a4.57,4.57,0,0,1-2.75.11,9.22,9.22,0,0,0-4.75-.06c-2.49.39-2.62.14-3.19-.22a4.67,4.67,0,0,0-1.36-.74c-.24,0-.16.83,0,1.81Zm22.12-1c.24-.12.35.21.68.64.55.72.71,1,.25,1.12-1.22.18-1.53,0-1.49-.71s.17-.85.56-1.05ZM78.7,227.4c1.8,1.81,2.26,12,2.46,14.16.65,11.85,1.77,13.55,1.2,14.44-.68,0-.92.24-1.37-.35-1.53-4.34-1.45-8.81-1.69-13.34a53.35,53.35,0,0,0-1.8-12.22c-.56-2-.55-2,.46-2.55a1.83,1.83,0,0,1,.74-.14Zm-2.42,1.42c.63,1.44,1.91,8,2.08,13.64a106,106,0,0,0,1.41,13.3A1.92,1.92,0,0,1,78,255.2c-2-8.65-1.34-17-3.61-25.73a1.35,1.35,0,0,1,1.88-.65Zm-35.93,1.07,5.29,3.8.12,3.24-5.41-3.83Zm78.75-.41c-3,1.16-3.77,2.12-3.3,3s1.59.46,4.78-.87c2.38-1,3.12-.56,3.61.94,0,2.22-2.17,2.47-3.39,2.17-.52,0-.44,0,.11.72,2.47,1.94,5.5-1.85,4-4.25C123.72,229,121.68,228.33,119.1,229.48Zm-18.78.9c-2.47,1.94-1.59,5.43.47,6a2.08,2.08,0,0,0,1.76-.07c.3-.2.3-.53-.33-.64-1.91-.32-3-1.71-2.07-3.13s2.55-1.11,5.74.26c2.75,1.19,4,.82,4.29-.61.14-.62,0-1.21-1.36-1.26C105.15,230.74,102.71,228.5,100.32,230.38Zm33,5.34c-.16-1-1.79,0-2.87,1.81s-1.18,2-1.4.18c-.32-2.71,2.5-4.83,4.25-4.9,2.11-.24,3.5.94,3.56,2.3a1.8,1.8,0,1,1-3.54.61Zm-93.12-1.6L45.84,238a21.79,21.79,0,0,1,.07,3.18l-5.64-3.61Zm67.37,1.3a2.79,2.79,0,0,0,.7,5c1.8.36,1.93-.9.14-1.27a1.39,1.39,0,0,1-.83-2c.86-1.39,2.43-.49,3.35,0,2,1,3.09,1.32,3.73.65,1.15-1.19.13-3.31-1.38-2.56a1.86,1.86,0,0,1-1.58.18,6.62,6.62,0,0,0-4.13,0ZM40.28,238.7l5.52,3.78-.17,3.34L40.44,242Zm.11,4.6L45.58,247a18.93,18.93,0,0,0,0,2.88l-5.25-3.39Zm91.8.71c4.17.4,2.79,5.19-.12,3.89-.77-.58-1-.53-1.87,1.57-1.1,2.68-1.37,2.46-1.22-.64S130.49,244,132.19,244Zm-32.8.72a.45.45,0,0,1,.23.06c.28.32-.56,1.57-1.28,2.3-.52.35-1.81-.59-1.5-1.05a6,6,0,0,1,2.55-1.31ZM105,247.2l-.74.1c-1.13-2.5-3.46-1.93-4.18.4l-1-.12c1-2.85,4.73-4.6,6-.38Zm21,.57-1.26.07c-1.13-2.71-2.73-3.12-4.08-.43l-1-.29c1.68-3.42,4.49-3.7,6.32.65Zm-6.29-3.1c.64,0,.56.26-.11,1.18s-.73.92-1.31.48C117.23,245.62,118.83,244.72,119.62,244.67Zm6,.08a2.59,2.59,0,0,1,.43.06c1.3.32,1.89.94,1.26,1.73-.4.49-.79.68-1,.35-.87-1.44-1.36-2.18-.64-2.14Zm-19.61.86c.14.53-.29.92-.76.47a1,1,0,0,1-.34-.72.81.81,0,0,1,1.1.25Zm-65.63,1.84,5.33,3.84a22.14,22.14,0,0,1,.21,3.29l-5.5-3.64Zm77.8,1.16c3.08,2.11,6.68,2.08,8.94.23.5-.41.94-.43,1,0-.32,1.48-4.24,3.37-7.31,2.3a7.5,7.5,0,0,1-4.16-2.75C115.9,247.34,117.25,248,118.14,248.61Zm-1.3,1c4.49,3.88,8.07,2.8,10.77.85.4-.1.41.26.5.93.11.85-.6,1.28-2.55,1.86-3.76,1.13-8.18-.11-9-2.63-.09-.5-.29-1.14.25-1ZM40.32,252l5.41,3.71-.17,2.84L40.29,255Zm.08,4.35,5.11,3.46v2.35l-5-3.54Zm37.11,1.1c21.79,4.93,37.24,2.59,52.4-.08l13.43,26.34-80.93.1C67.7,275.21,72.09,265.86,77.51,257.41Z" transform="translate(-5.81 -14.21)"/>
    <path d="M7.81,14.21v2.87h2.94v25H7.81v3.09h8.53V42.06H14.08V35l3.43-4.74,5.14,11.83H19.36v3.09h9.31V42.06H26.45L19.63,26.85,26.11,17l2.4,0V14.21H19.27v2.87h2.66L14.08,29.13v-12h2.33V14.21ZM79.55,29.63l4,7.54v.36l2.23,4.35.33.21.51.95,0,.46,1.25,2v.42l5.28,9.82c4.35-1.62,40.12-4.55,53.37.24l1.93-3.27H149l3.4-6,0-.5,1.14-1.31.17-.59,3.75-5.88v-.94l4.7-7.83Zm81,1.13s-2.45,4.71-3.71,6.61c-1-.81-4-.26-3.81,2.86-4.82-1.83-6,3.93-2.26,5.23-1.91,1.67-3.74-.22-5.19-1.51-1.42.36-4.37,1.4-6-1.67,0,0,.7.38,1.4.79,3.94,1.2,4.26-4.13,1.32-5a6.85,6.85,0,0,0-1.06-.14c1-4.09-5.35-5.52-5.47-.6a4.41,4.41,0,0,0-1.32,0c-3.36.61-2.59,5.56.84,5.33a3.5,3.5,0,0,1,.9,0c-.06.79-4.22,2.31-7.21-.42-1.42,1.08-3.66,2.43-6.59-.26,1.92-.08,3.77-.63,3.75-2.81A3,3,0,0,0,123,36.44a3.36,3.36,0,0,0-2.82-3.22,3,3,0,0,0-2.85,3.22c-1.59.17-3.09,1.57-2.74,3.18.47,2.2,2.16,2.47,4.09,2.05-2.35,3.79-6.18,1.81-7.36.61-1.41,1.31-3.86,3.09-6.88.66,1.61-.28,3.4-1.22,3.1-3.47-.24-1.77-2.23-2.29-3.09-2.2a2.8,2.8,0,0,0-3-2.9c-2.27.22-2.14,3.1-2.11,3.12A2.78,2.78,0,0,0,96.61,41c.65,1.72,2,2.25,4.53,1.79-2.93,2.75-4.79,1.68-6.38,1.1a3.81,3.81,0,0,1-5.24.65c4.33.21,3.64-7.45-1.5-4.67-.44-1.44-1.1-3.21-3.79-2.79l-3.07-5.92ZM61.39,35.65l-.67,0c-8.3.53-11.36,6.3-11,11.4a10,10,0,0,0,4.87,8c1.18.9,1.42,1.23,1.22,1.65s-.58.44-1.24-.17c-9.49-9.07-22.85,1.59-16.94,13.36,4.7,9.36,17.89,7.19,20.72-3.34.22-.83.58-1.2,1-1s.06,1.25-.16,2.9c0,6-6.19,15.35-6.54,15.66H68.92a30.5,30.5,0,0,1-6.37-17.37c0-2.2.77-1.73,1.47.76,3.18,11.39,17.66,11.29,21,.19,3.06-10.35-8.46-19-16.1-12-1.1,1-1.85,1.19-1.86.46A6.52,6.52,0,0,1,69,54a9.5,9.5,0,0,0,3.51-7.08A10.9,10.9,0,0,0,61.39,35.65Zm-8.74,48.5h0ZM120.19,38.3a1.31,1.31,0,0,1,.65.15q1,.51.39,1.83a2,2,0,0,0-.32,1c4.77,8.8,15.28,4.87,16.27.78a1.28,1.28,0,0,0-.2-.82,1.18,1.18,0,0,1,.18-1.68,1.29,1.29,0,0,1,2.07,1.5,1.61,1.61,0,0,0-.22,1.19c2.7,6.13,8.07,6.59,12.58,4.17-2.07,3.72-10.13,6-13.51-3-5.39,7.3-14,7.16-17.85-1.08-3.49,8.43-14,8.63-17.88,1.63-3.49,8-11.6,6.19-13.89,1.18C96,50.63,101,45,101.84,42.52a3.56,3.56,0,0,0-.42-.52c-1-.94-.94-2,.06-2.49a1.35,1.35,0,0,1,1.82,1.86c-.18.34-.34.41-.22.71,2.34,5.45,13.88,7,16.21-.62a1.64,1.64,0,0,0-.16-1.17A1.31,1.31,0,0,1,120.19,38.3ZM86.5,41.4c1.82.1,1.32,1.66,1,1.78Zm67.58,1s-1.12,2-1.12,2C152.36,43.44,152.52,42.25,154.08,42.37Zm-6.15,10.1a14.1,14.1,0,0,1-1.55,2.78c-21.55-5.52-51.63-.72-52.37-.19l-1.32-2.49C111.59,48.79,130.43,49.6,147.93,52.47ZM17.5,51.59a5.25,5.25,0,0,0-2.1.49c-3.75,1.71-4.07,6-.7,9.4a6.52,6.52,0,0,1,1,1.14c0,.38-.38.31-1.29-.24-5.16-3.1-10.18.62-8.09,6,1.69,4.34,8.37,3.68,9.41-.93.13-.62.58-1,.77-.66a11.64,11.64,0,0,1-.82,3.94A25.57,25.57,0,0,1,14.23,74c-.48.85-.51,1.13-.14,1.22a49.11,49.11,0,0,0,6.37-.18,9.37,9.37,0,0,0-.55-1.27c-1.17-2.44-2.07-6.66-1.51-7.14.31-.27.41-.14.84,1.11,2.09,6.18,9.85,4.69,9.7-1.86-.1-4.45-4.17-6.41-7.85-3.77-.84.6-1.08.63-1.16.17,0-.19.11-.4.41-.6C25,58.57,22.17,51.54,17.5,51.59Zm94,39.07c-2.09,8-7.12,8.85-13.21,9.82-7.54,1.21-12.45-1.53-14.75-5.73,0,0-10.78,4.07-14.71,6.44,8.18,3.75,19,12,25.13,21.47,2.19,2.87,2.08,2.22,2.07,8.52,0,13.67,0,18.75,0,18.75,3.37.5,3.55,2.82,3.37,5.43,2.71-1.2,5.32.27,5.3,2.82,0,4.7-4.63,3.42-5.59,2.91,1.5,4.14-.26,5.85-2.06,6.06-2.22.25-4.76-.82-4-5.56A4.55,4.55,0,0,1,87.17,158l-.11-4.83c6-11.25-1.53-20.4-8.58-23.41,0,0,2-4.12,4.57-5.28.27-.08-1.56-2.76-4.63-2.18-1.41,0-1.09,0-2.41-1.7-2.63-3.41-3.87-3.65-6.43,0-1.13,1.61-1.4,1.65-2.73,1.68s-3.72,1.09-4.21,2c-.11.21.47.43,1.23,1.33,1.11,1.28,2.8,3,2.54,4.85-5.81,2.36-15.44,12.72-5.31,26l-7.32.1-.35-47.24-5.09,2.84.22,37-1.45-.48c.11-11.8-.07-23.59-.44-35.39l-13.43,9.79.6,55.47,1.43.3c1.06,7.56,16,2.27,16.91,2.93l.18,30.82-.66,1.53,11.92,6.51L74.54,215a10.36,10.36,0,0,0,2-.55c4.53-2.39,7.91-1.85,10.37,1.65,1.52,2.16,1.78,2.48,1.78,2.48.92-6.24,6.45-8.53,11.81-6.9,3.94,1.19,9.33,5.12,11,9.92a4.94,4.94,0,0,0,.59,1l.23.1c0-.13-.26-.73-.36-1C106.44,209,90.86,207,88.46,217.41l-2.21-3.09,11.6-7.12,15.86,10.44a52.89,52.89,0,0,0-.83,5.25l.27.13a11.75,11.75,0,0,0,.26-1.44,12.6,12.6,0,0,1,1.33-4.3,5.68,5.68,0,0,1,1.3-1.62c.95-.55,1.83-.5,2.79-1.4l-2.32-1.73-.05-5.55,4.65,6.51c1.47-.34,7.17-2,10.55-.15.38.12,5.33-1.3,8.42,5.62l14.86-6.17s.95-.54,1-.68c-14.82-5.47-29.78-24.83-28.34-25.14,0,0,0-2,.07-6.86.12-5.43.05-11,.15-16.42-5-1.61-3.79-5.68-3.79-5.68-3,.67-3.52.08-4.29-.46l-.52-5.14c1.82-1.55,2.91-1.69,5.16-1.2a5,5,0,0,1-.1-4.07,3.68,3.68,0,0,1,4.83-1.35c2.3,1.56,1.57,4.84,1.24,5.3a4.41,4.41,0,0,1,6,2.48c.36-7,1-14.78,2.37-20.86,2.58-11,6.8-22.47,12.09-31.51.86-1.51,2-3,2.86-4.44a18.73,18.73,0,0,0,1.22-2.07,12.85,12.85,0,0,1-2.33,1,14.17,14.17,0,0,0-3.21,1.1,17.68,17.68,0,0,1-4.26,2.44c-4.76,1.85-8-.91-9.94-5.13-1.1,5.36-6,9.89-13.25,7.07-4.09-2.17-5.38-3.56-9.2-9.22a5.92,5.92,0,0,0-1.15-1.25Zm.15.88c2.71,5.35,6.76,9.14,10.7,10.66,7,2.31,11.68-2.2,13-6.33l1.35,2.29-10.65,7.57L110,95.51a27.45,27.45,0,0,0,1.68-4Zm48.37.37-4.77,2.81s-3.17,5.11-4.24,7a108.45,108.45,0,0,0-11.92,31.13,145.55,145.55,0,0,0-2.13,14.4,86.55,86.55,0,0,0-.33,12.66l.38.41s-.59,1-1,1.89a11.55,11.55,0,0,0-1.35,6.4c.16,6.27,4,12.27,9.36,14.72l.7.31a14.23,14.23,0,0,1-2.59,4.26c-1.12,1.17-1.36,1.22-1,1.8.54.8,2.32,1.5,4.52,1.47.78,0,.78,0,2.22,1.55,2.81,3.07,3.66,3,6.22-.47a2.4,2.4,0,0,1,2.3-1.3c1.64,0,4.62-1.36,4.61-2-2-.89-4.35-5.49-4-5.53,11-5.83,13.34-17.9,5.3-26.78l7.68-.12.28,48.16c1.51-1,4.91-3.15,4.91-3.15l-.11-37.47a16.82,16.82,0,0,0,2.09.64l.3,35.44a13.29,13.29,0,0,0,1.87-1c4.29-2.83,12.69-9.37,12.69-9.37l-.29-54.61h-1.12l.18,54.59-13,9.51-.08-33.92,1.41-.21c3.82-.53,5.58-5.39,3.05-8.57-.9-1.13-.26-1.05,1.65-1.42,3.39-.29,5.27-2.86,4.28-4.68-.42-.78.13-.7.49-1.44a3.69,3.69,0,0,0,.09-1.89,2.32,2.32,0,0,1,.37-1.57,2.52,2.52,0,0,0-.49-2.31,3.12,3.12,0,0,1-.39-2.05c0-1.11-.43-1.27-1.6-2.34-.89-.81-.17-1,1.13-1.66,2.06-1.06,2.2-4.8-.54-6.4-1.46-.85-4.12-.78-9.88.13-2.19.35-4.75.58-4.75.58s0-21.36-.17-32.36Zm0,.75s11.7,6.85,11.61,7c-3.93,5.39-18.59,26.84-18.7,52.78-10.75-1.35-15.15,7.05-15.67,7a105.64,105.64,0,0,1,18.07-64.11Zm-7.38,4.18,0,.78-2.32,3.46-.06-3.46Zm-3.59,1.21.09,5.58-4.76,3.63-.27-5.82Zm-44,1.27,2.45,1.69-.09,5.54-3.68-6.69Zm66.86,1.87,0,4c-9.37,13.21-14.29,28.31-15.79,47.43l-2.29-.08A90.5,90.5,0,0,1,171.88,101.19Zm-63.46.41,5.78,3.78L114,111.7l-5.25-3.37-.49-1.29Zm35,.27,0,5.87-4.47,3.32-.21-5.83ZM89.3,103.41c.66,0,1.19.49,1.31,1.4.49,3.91,3.46,2.78,4.17,4,.27.4-.37.75-2.4.59-3.73-.28-6.45-3.3-4.54-5.28A2.16,2.16,0,0,1,89.3,103.41Zm25.76,2.51,4.94,3.15,0,6.49-4.83-3Zm22.52,0,.38,5.74-5.4,3.59-.19-5.7Zm10.29,0-3.11,6.6-18.1,13-15-9.72-2.78-6.38,17.52,11.44Zm-48.82,2.62c4.81-.06,8.51,5,9.77,9.52.92,3,1.06,4,1.15,8.71s.25,5.61,1.15,6.29c.55.42.71.3.78-.54.16-1.88,2.4-.72,2.44,1.26,0,2.2-2.37,2.9-4.16,1.21-1-.9-1-.89-1.27.88-.2,1.18-1.58,8.6,2,10.44.66.06.82-.47.33-1.09-1-1.24,1-2.67,2.6-1.88,1.94,1,1.75,4.09-.33,5.21-2.38,1.27-5.46-.18-6.89-3.25-1.06-2.26-1-5.39,0-10a29.59,29.59,0,0,0,.82-5.15,10.93,10.93,0,0,1,.15-1.31c.11-.5-.14-.52-1-.09-2.33,1.17-4.87.34-5.49-1.81-.75-2.56,2.11-5.21,3.87-3.59.67.61.59,1.23-.21,1.62-1.39.68-.91,2.48.56,2.13,4.86-1.46.42-15.1-5.06-16.05-3.62-.62-6.46,3.5-3.84,5.71,1,.86,2.07.4,1.84-.82-.31-1.71,2-1.52,2.79.22,1.36,2.84-2.15,5.15-5.44,3.58C89.69,116.26,93.72,108.7,99.05,108.59Zm21.81,1.08,4.85,3.26,0,6.33-4.81-2.85Zm10.69.55,0,5.81-4.68,3.41v-6.19ZM144.16,114l-2.4,6.67L126.65,131l-12.46-7.81L112,117.05l14.69,9.51Zm-98.07.48v33.78c-4.9.2-7.71,5.05-4,9.62l-1.39.19c-3.31.46-5.53,2.21-5.09,4.34a2.55,2.55,0,0,1-.19,1.63,2.64,2.64,0,0,0,.18,2.3,1.2,1.2,0,0,1,.08,1.27A2.47,2.47,0,0,0,35.8,170c.54.53.39,1,.32,1.82-.09,1.21.13,1.69.89,2.16,1,.61,1.35,1.6.23,1.52-.55,0-2.5,1.84-2.5,1.84l-.19-54.19Zm26.55,4.34c.88,0,1.78,1.1,3.07,3,.79,1.33.8,1.15,2.59,1.08,1.83.14,3,.62,3.42,1.17.18.21-.3.27-1.45,1.44a11.59,11.59,0,0,0-2.17,3.06.69.69,0,0,1-1.2.09c-.24-.36.37-1.54,1.5-2.93,1.61-1.55,1.27-1.7-1.06-1.46-1.64.17-1.82.09-2.44-.9-1.85-3.7-2.84-3.57-4.62.11-.48,1-.29,1-2.39.8-1.66-.13-2.07.29-1.13,1.16a7.31,7.31,0,0,1,1.94,4l-1.12.1a9.63,9.63,0,0,1-.5-1,10.7,10.7,0,0,0-2-3c-1.26-1.36-.57-2.11,2.25-2.41,1.57-.17,1.61-.19,2.33-1.25C70.91,120,71.76,118.85,72.64,118.85Zm68.54,3.36L139.55,128l-12.89,9-10.48-7-1.39-5.42,12,7.63Zm-44.44,4.56a87.32,87.32,0,0,1,5.08,12c1.17,4.09,2.81,15.94,2.38,16.67-.92-1.26-3.94-1-4-1a4.57,4.57,0,0,0-3.44-4.74Zm42.41,2.66-1.29,5.67-11,7.93-9.06-6.18-1.19-5.49,10,6.7Zm-63.81.31,1.42.5L77,140.48l11,1.83.25,1.75L75.55,142C75.41,137.64,75.34,129.74,75.34,129.74Zm-5.57.31.3,11.91c-.11,0-9.15,1.25-12.61,2.16l.21-1.63s6.28-1.37,10.82-1.89c0-3.34,0-6.84,0-10.23Zm102.15,2.19a20,20,0,0,0,4.69-.42c8.25-1.44,10.48-.86,11.53,1.68,1.15,3.94-3.17,4-3.94,1.53-.49-1.62-2.26-1.26-8.17.14-5.05,1.2-8.25.24-8.19-2.62S171.26,129.34,171.92,132.24Zm-67.73-2.15a1.85,1.85,0,1,1-1.81,1.87A1.85,1.85,0,0,1,104.19,130.09Zm-26.77.32,1.3.39s.19,7.78.23,7.79c2.8.61,8.68,1.72,8.68,1.72l.31,1.54c-2.46-.58-10.3-1.87-10.3-1.87C77.39,136.61,77.42,130.41,77.42,130.41Zm-9.5.15s0,6.2-.1,9.53c0,0-6.66,1.07-10.06,1.77l.26-1.24c2.7-.61,5.62-1.22,8.59-1.84-.06-2.44-.06-7.79-.06-7.79Zm4.79,1.33a1.49,1.49,0,0,1,1.5,1.47,1.48,1.48,0,0,1-3,0A1.49,1.49,0,0,1,72.71,131.89Zm111.5,3.87a2.21,2.21,0,0,0,2.58,1.18c-.23.07-1.29.7-1.23.9s-.44,1.81.28,1.88c2.74.27,1.35,3.11,1.68,3.54.74.85,1.28,1.38.77,2.43s-1.09.91-.59,1.7c1.09,1.64-.42,2-.28,3.1a4.63,4.63,0,0,1,.08,2.11c-.75,1.58-3.4,2.48-6.34,2.61-.41,0-.1-.67-.29-1.1-.73-.46-.33-1.24-.09-1.74.24-.67.25-.67-.21-1-1.25-.77-1.18-1.13-1.08-1.7.27-1.66,0-1.83-.49-2.07s-.55-1-.27-1.92c.2-.62.06-.78-.24-1.34a1.6,1.6,0,0,1-.24-.73c.09-.86-.68-.86-1.76,0-.91,1.57-1.23,3.64-1.8,4.95-.44,1-.51,2.05,0,4.36,1,3.54.26,4.13-3.72,3.37-3-.73-3.88-3.93-3.05-7.84a5.42,5.42,0,0,0,0-1.74,8.08,8.08,0,0,1,2.25-7c3.13-2.95,4.68-3.4,11.17-3a9.92,9.92,0,0,1,2.73.34,7.33,7.33,0,0,1,.08-1.23Zm-46.68.81-.76,5.49-6.08,4.29c-2.87-2.26-5.08-1.51-7.1.92-1.6-.81-4.79-3-4.79-3L118,138l8.85,6.14Zm-64.69,1.31a1.48,1.48,0,1,1-1.47,1.5A1.49,1.49,0,0,1,72.84,137.88Zm63.67,5.61-.34,5.28L134,150.4l-2.18-.22-.51-3.28Zm-63.71,0a1.49,1.49,0,1,1,0,3,1.49,1.49,0,0,1,0-3Zm6,.17a1.48,1.48,0,1,1-1.46,1.5A1.47,1.47,0,0,1,78.77,143.7ZM66.9,144a1.49,1.49,0,1,1-1.46,1.5A1.49,1.49,0,0,1,66.9,144Zm110.22.24c.42,0,1,.59.74,1.51s-.12,1.42.55,2.28.47.83.38,1.29c-.13,3,1.84,1.73,1,3.95a3.93,3.93,0,0,0,.15,1.74c-.19-.52-3.8-.47-4.11.06-.52-.08-1.17-3.47-.65-3.92a4.28,4.28,0,0,1,.64.91c.48.82.59.79.44-.16C175.64,148.09,176,144.24,177.12,144.22Zm-92.37.27a1.48,1.48,0,1,1-1.46,1.5A1.47,1.47,0,0,1,84.75,144.49Zm-24,.27a1.48,1.48,0,1,1-1.46,1.5A1.48,1.48,0,0,1,60.74,144.76Zm58.13.43,4.44,2.88c.07.91,0,2.21.25,2.65a5.27,5.27,0,0,0-4.36,1.38Zm-45.59,2.38a46.4,46.4,0,0,1,14,2.22l-.34,1.57a55.79,55.79,0,0,0-27.88.1l-.73-1.64a49.25,49.25,0,0,1,14-2.25ZM45.8,149.7a4.5,4.5,0,0,1,3.49,1.48c1.73,1.93.9,5.51-1.54,6.64a4.38,4.38,0,0,1-5.89-5.69A4.24,4.24,0,0,1,45.8,149.7Zm90.19.45-.05,1.57-1.11-.92Zm-23.19.07a2.92,2.92,0,1,1-2.86,3A2.91,2.91,0,0,1,112.8,150.22Zm-66.92.1a2.31,2.31,0,0,0-1.34.44c-.78.71,0,.73,1,.92,1.82.33,2.32,1.9,2.15,3.59-.15,1.54.37,1.52.79.95A3.71,3.71,0,0,0,45.88,150.32Zm84.42.77-.08,0S130.27,151.13,130.3,151.09ZM72.81,152c2.18,0,2.41,3.53.48,7.53-.57,1.2-.87,1.05-1.5-.76Q69.44,152.06,72.81,152Zm5,.1a1.41,1.41,0,0,1,1.16.52c1.17,1.33.27,3.49-2.85,6.81-.76.81-1.15,1.12-1.43,1.13-.78,0-.77-.12.11-3,.39-1.27.78-2.67.86-3.1A2.67,2.67,0,0,1,77.85,152.11ZM70,155.31a31.06,31.06,0,0,0,.83,3.06,5.47,5.47,0,0,1,.35,1.47c-.19.53-1.58-.19-2.57-1.34-2-2.32-2.79-4.34-2.38-5.42.6-.87,2.15-1.26,2.87-.5A5.5,5.5,0,0,1,70,155.31ZM83.74,153c2.11,1.24-.32,4.08-5,6.43-2,1-1.87.55-.34-1.43a21.1,21.1,0,0,0,1.75-2.76C81,153.57,81.81,151.9,83.74,153Zm-21,0c.67,0,1.36.71,2.63,2.55a27.67,27.67,0,0,0,2,2.58,4.17,4.17,0,0,1,1,1.34c-.21,1.29-6.78-2.79-7.26-4.5A1.69,1.69,0,0,1,62.71,153Zm94,3.73c1.19,2.44,1.29,3.95.31,4.51a2.29,2.29,0,0,1-3.22-2.15,17.81,17.81,0,0,0-1.16-3.94c-.45-1.08-.51-1.75-.14-1.81C154,153.58,156.14,155.6,156.75,156.74Zm-7.86-1.84a20.56,20.56,0,0,0-.94,4.2,3.44,3.44,0,0,1-.33,1.13c-1.2,2.47-4.05.45-3-2.13.94-2.34,3.34-4.77,4.29-4.85C149.56,153.2,149,154.69,148.89,154.9Zm1.92-1.34c.47-.05.87,1,1.48,2.74.83,2.36.8,4.2-.1,5-1.91,1.68-3.92-.76-3.15-3.82C149.66,155,150.27,153.61,150.81,153.56ZM86.58,154C89,189.06,71,216,69.7,216.78l-6.11,3.34-10.73-5.84a92,92,0,0,0,18.27-53A16.64,16.64,0,0,0,86.58,154Zm59,.11c.75-.2.23.45-.52,1.52s-1.82,4.26-2.64,4.76c-1.83.88-3.91-.8-2.8-2.26A14.94,14.94,0,0,1,145.53,154.1Zm10.92.24a4.74,4.74,0,0,1,1.6.57c3.82,1.86,5.71,4.33,4.07,5.5-1.15.83-2.37.19-3.52-2A20.41,20.41,0,0,0,157,156C156.17,154.88,156,154.34,156.45,154.34Zm21.47,1.25a4.45,4.45,0,1,1-4.38,4.5A4.44,4.44,0,0,1,177.92,155.59Zm-1.35,1.15c-2.89,1.28-2,5.82.47,6.47,1.05.3,2.33-.14,1.8-.65-3.29-1-3.31-3.45-2-5.23C177.07,157.05,176.78,156.65,176.57,156.74ZM56.25,163c-.11,2.56.44,5.54-.78,8.32-1.86,4.27-7.82,6.23-11,5.85a2.81,2.81,0,0,0-2.09-.25,1.71,1.71,0,0,1-1.31-.05c-.4-.19-.79.05-1.19-.09-.46-.31-1.21-1-1.12-1.54.14-.75.08-1.3-.79-1.54-1.2-.34-1.45-1-1.09-2.9.08-.41.17-.59-.1-.77a2.13,2.13,0,0,1-.64-2.86c.38-.66.67-1.14,0-1.67-.27-.61-.22-.84.36-1.62s.72-.82.33-1.45c-.89-1.43.12-2.47,1.32-3.06a16.91,16.91,0,0,1,4.71-1.2c.63,0,.61.59,1,1.13.56.87-.23,2.13.22,2.57a1.47,1.47,0,0,1,.91,1.43,3.28,3.28,0,0,0,.38,2.13,2.65,2.65,0,0,1,.16,2.29c-.3.62-.27.58.12.94a3.6,3.6,0,0,1,.45,2.15l1.65-.15a16,16,0,0,1,2.51-6.18c-.11-2.17-.94-4.17-.86-7,4.08-1.46,7,2,6.87,5.56Zm63.39-4.88a12.79,12.79,0,0,0,3.62,1.18,5.15,5.15,0,0,0,3.81,5c0,3.9,0,21.93,0,21.93-4.24-7.12-6.87-16.3-7.43-28.14Zm-71,.63a11.54,11.54,0,0,1,.31,1.53c.26,2.05,0,2.33-.57.92-.63-1.64-.67-.36,0,3.4a2.42,2.42,0,0,1-.06,1.73c-.14.39-.39,1.28-.58,2-.57,2.07-.91,2.66-1.5,1-.3-.84-.55-1-.34-1.63a2.26,2.26,0,0,0-.33-2.23,2.17,2.17,0,0,1-.32-1.28c.17-1.9-.68-1.92-.85-2.41,0-.75-.32-2.55.2-2.5a8.28,8.28,0,0,0,2.67-.19c.32-.12,1.32-.34,1.32-.34Zm63.3.24a2.86,2.86,0,1,1-2.82,2.9A2.86,2.86,0,0,1,111.91,159Zm-44.09,1.74,2.16.41c.48.16.13,30-17.19,51.53l-.15-5C60.88,195.73,66.82,181.11,67.82,160.71Zm36.69.63.4,7.12c-1.22-1-4.32-3-4.29-3v-2.64s2.66.2,3.88-1.47Zm-16.68.09a6.72,6.72,0,0,1,1.42,1.09l-1.41,1Zm49.58.36a54.17,54.17,0,0,0,27.64.67l.62,1.74a51,51,0,0,1-29.43-.59Zm-45.25,1.34.5,3.07-5.28,3.41.26-4.66,2.75-1.79Zm46.68,2.56a1.53,1.53,0,0,1,1.56,1.52,1.54,1.54,0,1,1-3.08,0A1.53,1.53,0,0,1,138.84,165.69Zm24,.12a1.55,1.55,0,1,1-1.51,1.57A1.55,1.55,0,0,1,162.84,165.81Zm-45,4.8c.69,2.44.54,7.94-.35,11.67a48.55,48.55,0,0,0-.43,5.1c-.16.21,5.29-4.51,7.05,1.68.6,2.13-1.85,4.15-3.49,3.56-.32-.11-.22-1.17.08-1.79.91-1.85-1.68-2.82-3.16-1.17-3.42,3.79.1,13.4,5.45,14.33,4.45.77,8-3.65,5.05-6.29-1.3-1.15-3.38.44-2.43,1.9s-.85,2.2-2.26.74c-2.47-2.53.3-6.35,4-5.47,6,1.36,4.73,10.66-1.51,11.19a9.66,9.66,0,0,1-10-5.37c-1.9-3.54-2-6.36-1.17-12.58.51-3.68.09-6.79-.94-6.77a1,1,0,0,0-1.09.94c-.18,1.35-.33,1.61-1.18,1.11a2.38,2.38,0,0,1,.09-4c1.8-1.4,4.13.78,4,1.15a6.83,6.83,0,0,0,.46-2c.79-5.15-1-10.59-3.12-9.71-.47.19-.42.4.2.75,1.44.81.17,2.88-1.63,2.67-2.56-.29-3.14-3.86-.89-5.44,3.55-1.92,6.44,1.08,7.21,3.78Zm-17.47-4.29s4.54,2.77,4.78,3.48c.16.46.34,4.43.34,4.43l-7.88-4.93-11.29,7c.19-1.53,1-5.48,1-5.48l6-3.8C93.39,167.23,97.52,170,100.41,166.32Zm56.4.27a1.55,1.55,0,1,1-1.51,1.57A1.54,1.54,0,0,1,156.81,166.59Zm-12,0a1.55,1.55,0,1,1-1.52,1.57A1.55,1.55,0,0,1,144.79,166.61Zm6.05.35a1.55,1.55,0,1,1-1.52,1.57A1.53,1.53,0,0,1,150.84,167Zm-15.14,2.19c4.09.85,8.19,1.72,12.11,2.15l.16,12-1.14-.07-.17-10.75a60,60,0,0,1-10.71-2Zm30.42.39L165.9,171s-7.07,1.23-10.77,1.71c-.06,2.42,0,10.51,0,10.51l-1.42.26V171.18c4.2-.46,8.39-.93,12.46-1.64Zm-68.48.68,8.33,5.5,1,5.84-9.71-6.45s-8.8,5.92-12.1,8.12l1-5.5Zm38.46,1.09A83.64,83.64,0,0,0,146.16,173l.14,9.69-1.54-.41-.12-7.86a68.61,68.61,0,0,1-8-1.31Zm29.67.28-.29,1.32s-5.36.81-8.13,1.31c-.25.05-.16,8.52-.16,8.52l-1.32.2-.16-9.88Zm-15,1.09a1.55,1.55,0,1,1-1.52,1.57A1.54,1.54,0,0,1,150.73,172.68Zm-53.22,3.49,9.85,6.65a40.35,40.35,0,0,1,1.39,5.38l-11.34-7.32-14.18,9.4,1.64-5.81Zm-59.69.2a1.65,1.65,0,0,1,1.47,1.3c.43,1.27,1.22,1.64,3.32,1.6,4.12-.22,8.44-2.16,12.33-.7,1.89.69,2.56,3.48,1,4.21s-2.45.29-3-1.06c-.55-.57-1.24-.48-4.93.15-1.63.27-3.54.5-5.15.63-4.12.34-6.39-1-6.91-3.41A2.23,2.23,0,0,1,37.82,176.37Zm112.83,2.25a1.55,1.55,0,1,1-1.53,1.57A1.56,1.56,0,0,1,150.65,178.62Zm-30.18,1.88a2,2,0,0,1,2,2,2,2,0,1,1-2-2Zm-22.94,1.41,11.85,7.92,2.08,5.95-13.81-9-16.89,11,2-6.13ZM156,183.77a15.56,15.56,0,0,0,3.48,5s-.78,1.49-3.58,1.4c-1.53,0-1.62.2-2.14,1.23a11.39,11.39,0,0,1-2.11,2.61c-1,.75-2.82-.38-4.34-2.67-.55-.84-.78-1-2.45-1-2.55,0-3.48-.66-2.15-1.81,1.16-1.41,2-3,3-4.44l1.15.13a9.59,9.59,0,0,1-2.22,4.18c-.68.76.27,1,1.91.68,1-.31,1.31-.19,2.08,1.41,1.61,3,2.45,2.9,4.36-.19.67-1.38.64-1.51,2.48-1.12,2,.2,2.56,0,1.75-.73-1.64-1.39-2.54-4.66-2.54-4.66ZM97.6,187.85s14.66,9.6,14.62,9.39l2.94,6.92L98,192.72l-21,13.67,3.15-6.85Zm.56,6.3,5.11,3.37v6L98,200.06Zm-1.31.18.1,6L92.36,203l-.25-5.6ZM91,198.18l0,.23.11.05h0l.17,5.38L86,207.5l0-6.08Zm13.5.06,4.8,3.21.2,6.4-5.21-3.41Zm5.93,3.91,4.82,3.35.17,6.39-4.93-3.31Zm-25.5,0,0,5.91-4.79,3.35-.23-6Zm50.71,7.63c-1,1-1.3.87-2.12-.77a4,4,0,0,0-3.95-2.46c-2.32,0-.8-1.48,1.65-1.66C135.51,204.72,137.67,207.57,135.68,209.8Zm-56.84-3.47.13,5.93-4.77,2.48-.15-2.81,2.46-4.3Zm-6.15,7.92.17,1.08-.89.34ZM155,229.09a0,0,0,0,0,0,0H155Zm0,0c.61.41,6.1,8.37,6.49,17,.21,2.27-.78,2.71-1.27.54a12.66,12.66,0,0,0-5.89-8.21c-14.52-5.38-20.73,12.85-11.15,20.22,3.41,2.47,10,2.19,12.29-1.22.72-1.06,1.44-1,1.54-.29,0,.33-.12.56-1,1.36-3.59,3.22-5.74,7.78-4.6,11.12a12.78,12.78,0,0,0,10.42,8.19c5.11.75,10.43-2.85,12-7.53,1.44-4.29.17-7.91-3.81-11.52-1.87-1.7-2-1.84-1.58-2.24s.62-.3,1.55.6c2.86,2.76,8.2,4.25,11.71,2.62,5.63-2.6,8.05-11.36,4.2-17.1-2.33-4.66-8.68-6.4-14-3.82a12.2,12.2,0,0,0-6.06,7.8c-.33,1.44-1.16,1.71-1.29.4.4-5.23,1.13-8.65,6.87-17.87Zm48.34,9s2.09,4.32,2.41,6.6c.23,1.67.26,2.35-.2,2.36-.14,0-.5-.8-.64-1.44-1.13-5.18-8.65-5.1-9.74.08s3.65,9,7.81,5.72c1.71-1.17,1.79-.63.1,1.08-3.26,3.26-1.83,7.83,2.27,9,5.58,1.66,9-5.14,4.28-9.46a6.66,6.66,0,0,1-1.15-1.37c0-.33.4-.36.73,0,2.71,2.84,8.18,2,9-1.69,1.57-6.84-7.27-9.77-9.71-3.65-.59,1.53-.5,1.74-.81,1.44s-.12-.8.07-1.65a60.07,60.07,0,0,1,2.86-7ZM130.11,257c-20.08,4.29-39.33,2.77-53.14.22L70.65,268h-.43l-1.63,2.79.18.32s-5.25,10.06-7.46,13.24c25.81-.25,82.45-.38,82.45-.38L140.31,277l.19-.18-3.41-7.25L136,268.3a23.9,23.9,0,0,1-1.18-2.71c-.47-1.29-2.47-4.84-2.47-4.84l-.28,0Zm-52.42,1.51c.27.22,25.72,5,52.1.08l1.45,2.42c-23.09,5.31-56.5.24-55.18-.26Zm.44,4.75a7.79,7.79,0,0,1,6.28,3.25,19.27,19.27,0,0,1,1.33,2.63A13.4,13.4,0,0,1,88,266.34a9.63,9.63,0,0,1,6.89-2.45c2.86.1,6,1.64,8.84,6.11.72-2.58,10.1-11.33,17.83-.41.88-2.9,5-8.7,11.71-4.65.46,1,.93,2.05.93,2.05-4-2.76-10.47-.91-12,3.41a1.81,1.81,0,0,0,.24,1.31c2,2.91-3.26,2.84-1.69.49a1.41,1.41,0,0,0-.15-1.68c-1.24-1.86-5-4.18-7.73-4.12-3.17.07-6.68,2.17-7.85,4.08a1.85,1.85,0,0,0-.15,2,1.18,1.18,0,0,1-.29,1.52,1.23,1.23,0,0,1-1.93-1.46c.34-.58.29-1.3-.42-2.29-1.42-2-4.73-4.1-7.62-4-4.13.1-8.3,3.07-8,5.52.11,1.08-.18,1.48-1.06,1.35-1.06-.15-1.19-1.16-.43-2a1.46,1.46,0,0,0,0-1.36c-4.36-5.9-10.89-4.18-12.38-2.86a6.68,6.68,0,0,1,5.53-3.68Zm-3.88,4.09a5.29,5.29,0,0,1,4,2.22c.4-.42,4.1-2.18,5.9.34-4.71-.36-4.77,4.64-1.29,5.12-1.58,4.83,5.53,5.12,5.08.59,5.32.78,4.66-6-.34-5.24,2.62-1.91,4.4-1.3,7.55.89,1.06-1.38,5.38-2.67,6.44-.26-5-.3-4.1,5.43-.41,5.48-1.1,4,6.18,5.44,5.06-.5,4.61.32,4-5.91-.48-5.4.33-1.13,4.82-1.62,6.8.55,1.83-1.67,3.84-2.81,7.48-.43-5-.83-5,5.61-.42,5.22-.43,4.27,6.08,4.34,5-.58,5-1.34,2.24-6.65-1.4-5.19,1.62-1.92,4.37-1,5.46-.62,3.37-3.86,6.31-.63,6.31-.63-5.87-.62-4.59,7.75,1.13,4.71a3.1,3.1,0,0,0,3.07,3.46l2.78,5.75-78.69.52,4.34-7.64a2.84,2.84,0,0,0,3.48-2.58c5.18,1.64,5.52-4.38,1.66-5.33a2.69,2.69,0,0,1,1.54-.45Zm121.83.72V271h2.31L205,285.69,198.66,296h-2.42v2.62h9.18V296h-3.06l8.41-12.13V296h-2.53v2.62h8.38v-2.55h-2.75V271h2.75V268h-8.38V271h2.53v7.42L207.2,283l-5.36-12h3.58V268ZM71.18,269.5c.52.83.09,1.37-.8,1.39A9.49,9.49,0,0,0,71.18,269.5Zm64.74,1.07.51,1.07C135.88,271.41,135.81,271.18,135.92,270.57Z" transform="translate(-5.81 -14.21)"/>
  </g>
</svg>
