<svg xmlns="http://www.w3.org/2000/svg" viewBox="0 0 210.99 284.5">
  <defs>
    <style>
      .a {
        fill: #e2cf00;
      }

      .b {
        fill: #d40000;
      }

      .c {
        fill: #131f67;
      }
    </style>
  </defs>
  <title>ck</title>
  <g>
    <path class="a" d="M154.28,16.27l-79.93.39L84.55,36c20.76-1.88,39-.21,57.94.41ZM99.68,84.42c-.09.11-3.32,1-3,1.69,8.52,18.28,12.27,33.13,15.81,51.94a8.19,8.19,0,0,1,4.67-1.4c-1.43-7,7.3-7.83,7.36-.54,1.67.39,3.39.39,4.9,2.1.68-20.53,7.94-41.75,17.41-56.46-10.75,4.29-26.51,15-26.51,15S107.2,91.26,99.7,84.45ZM165,86.6c-14.3,13.7-19.9,51.69-18.86,52.21-18.44-.62-24,19.88-8,30.92-.64,2.14-2.2,3.88-3.41,5.77a12.77,12.77,0,0,0,5.25,1.35c1.36,1.63,2.71,3.51,4.18,3.67a26.82,26.82,0,0,0,4.09-3.81,26.94,26.94,0,0,0,4.93-1.65c-1.4-2-3.07-4-3.11-5.82,13.9-9.86,12-23.3-.54-30.17,3.74-22.62,9.18-37,15.5-47.34ZM66.5,104c-1.82.89-2.81,2.78-4.13,4.26a14.22,14.22,0,0,0-5.27,1.48s4.14,5.76,3.88,6.07c-13.44,8.87-13.33,21.85-.42,30.38C62.75,164.74,47.2,194,46.4,193.07v6c10.83-12.07,17-34,18-52,22.12-1.48,22.9-23,7.68-31.11-1.17-1.08,3.82-6.08,3.82-6.08-1.26-1.26-3.39-1.41-5.25-1.56A22.33,22.33,0,0,0,66.5,104Zm93.55,14.89c3.12,7,14.55-1.53,16.53,2.2,1.61,2.11,5.12,2.33,5-1.23-.66-3.53-3-4.31-12.11-2.77-3.48.58-4.9.92-4.88-.67-2.44-2.92-4.49,1.05-4.51,2.47Zm10.61,10.24c-2.56,0-3,10.1-3,13.13-7.43,11.81,15.23,10.47,5.43-2.4.34-1.68-1.25-4.42-1.2-5.63-.79-.1-1.14-4.66-1.25-5.1ZM40,135.29c-4,.1-8.43,3.81-2,9.16.43.14-.22,1.27,0,3,1.82,4,1.33,9.8,2.68,8.9,1.56-1,2.87-5.4,2.53-11.49,0-.4-.55-.82-.45-1.25,3.62-6,.56-8.41-2.77-8.32ZM81.2,146.6c-1,19.75-5.83,39.11-16.71,55.9,9.36-4.39,18.45-10.06,27.24-14.92l20.47,12.81a7.85,7.85,0,0,0,2.8-1.51c-9.46-13.95-12.39-34-16.52-52.21A14.07,14.07,0,0,1,94,148.36c-.22,6.29-6.77,8.34-8.11.12ZM31.57,162.06c-2.19.14-3.83,5.6,2.37,6.41,4.38.62,10-1.55,12.77-.54,3.23,5.19,6.14-2.45,1.81-3.7-4.63-1.34-14.09,2.15-15.15-.82C32.84,162.35,32.2,162,31.57,162.06Zm37.26,85.49-12.4,22,79.24-.48-10.36-21c.17-.27-34.6,4.13-56.48-.57Z" transform="translate(-0.03 0)"/>
    <path class="b" d="M86,37.92,87.3,41c17-2.08,34.84-4.22,52.67.34,0,0,1.3-2.86,1.28-3.06C124.64,34,87.52,35.15,86,37.92Zm17.23,43.47,16.19,10.55s7.76-5.52,11.07-7.85l-2-3c-6.85,15.22-18.86,3.18-23.4-4C105.09,77.14,103.86,79.91,103.25,81.39Zm43.49,5.1A2.27,2.27,0,0,1,149.05,88c.63,1.3.88,1,.47-.64-.64-2.56,2-4.22,4.59-2.52,1.83,1.24,1.75,4.22-.26,4.77-1.61.44-1.66.87-.24.8,2.56-.12,3.23,3.3,1.42,5a2.89,2.89,0,0,1-4.09,0v0a3,3,0,0,1-.86-1.91c-.11-.68-.25-.67-.48-.28a6.58,6.58,0,0,0-.57,3.88L145.2,94.8a9.41,9.41,0,0,0,3.12-2.09c.12-.13.22-.23.22-.29s-.42,0-1.19.12c-2.27.24-4-1.25-3.55-3.4.39-1.84,1.34-2.64,2.91-2.68Zm-16.6,59.56c4.1-4.72,9.18-7.75,16.25-7.32.9-19.8,7.71-37.39,18.61-53.25l-12-7.27-4.8,2.93c-11.6,16.55-18.72,37.55-18.08,64.92ZM40.2,99.82s-8.12,6.12-11.91,9.08l.19,54.58,1,.36c.08.12-.09-.81.4-1.23a4.91,4.91,0,0,1,1.38-.88c1-.38,1.09-1.08.12-1.69a2.27,2.27,0,0,1-1-2.41,2.18,2.18,0,0,0-.33-1.63,2.81,2.81,0,0,1-.11-2.57c.18-.44.16-.56-.15-1.15a3,3,0,0,1-.15-2.44,6.37,6.37,0,0,0,.18-1.63c0-2.17,1.75-3.61,5-4.07,1.29-.17,1.33-.23.74-1.31-3.33-6.13,4.15-9.32,4.71-8.34Zm102.46,3a5.54,5.54,0,1,1-5.41,5.67v0a5.51,5.51,0,0,1,5.4-5.62Zm.05,1a4.44,4.44,0,1,0,4.48,4.4v0a4.42,4.42,0,0,0-4.47-4.37Zm.12,1.4a3,3,0,1,1-.06,0ZM33.65,107.5a2.38,2.38,0,0,1,.7.11,1.77,1.77,0,0,1,1.44,2,1.82,1.82,0,0,1-.33.77c-.59.9-.52,1,.5.6a1.45,1.45,0,0,1,1.85.42c1.9,1.9-.93,5.08-2.79,3.15-.92-1-1-.67-.37,1,.21.53.55,1.36.55,1.36H32.47l.63-1.61c.46-1.25.48-1.43-.5-.65a2.07,2.07,0,0,1-2.94-.07l-.06-.06a2.14,2.14,0,0,1,.13-3l.14-.11c.42-.4,1.08-.41,2,0,.68.27.76.08.25-.56a2,2,0,0,1,1.47-3.36Zm56.47,4.89C89,119.7,90,130,90,135.4c3,.56,3,2.59,3.44,5.11,1.44-.5,4.58,1.63,5,1.44.33-7.32-3.49-28.87-8.28-29.53Zm49,7.36c4.2.34,3.4,3.61,2.15,5-.6.68-.49,1,.16.6,1.77-1.08,3.18-.3,3.76,1.57,1,3.18-3.17,5.91-5,3-.62-1-1-.74-.85.27a13.91,13.91,0,0,0,1,3l-4.11-.38s1.25-2.1,1.47-2.67c.47-1.18.22-1.49-.65-.54-2.58,2.37-6.15-.67-4.48-3.83a2.41,2.41,0,0,1,3.14-1.35h0a2.42,2.42,0,0,1,.81.53c1.09.72,1.33.41.35-.47-1.84-1.64-.23-4.93,2.23-4.73ZM33.81,122.34h.11a2.46,2.46,0,0,1,1.09.32,1.83,1.83,0,0,1,.82,2.44,1.75,1.75,0,0,1-.16.27c-.37.57-.26.93.17.56a1.78,1.78,0,0,1,2.33.62c1.27,2-1.21,4.63-2.79,3-.71-.74-1-.77-.88-.28.22.9.81,2.45.81,2.45H32.46a17.74,17.74,0,0,0,.75-2.45c.11-.66-.15-.56-.83.21a1.4,1.4,0,0,1-1.92.41.86.86,0,0,1-.18-.14c-2.08-1.39-.41-5,1.75-3.77.75.42.86.17.27-.61a1.9,1.9,0,0,1,.42-2.64,2,2,0,0,1,1.06-.36Zm148-1.27c-4.62,4.81-3.17,2-1,5.64,0,2.42,1.41,4.31.3,8.12a2.22,2.22,0,0,0-.19,1.85c-.34,4.2-3.68,4.15-7,4.8.55,0,5.16,8.56-3.45,9.23l.1,34.95,13.5-10L184,121.1ZM80.46,139.53c-3.84,2.49-9.22,8.7-16,7.35-.81,21.8-7.94,38.68-18,53.19a113.83,113.83,0,0,0,10.92,6.18c3-1.57,4.72-2.22,7.69-4.68C77.2,182.6,81.08,161.86,80.46,139.53Zm31.76,4c.69,11.19,2.49,21.81,8.27,30.31l.39-23.8c-2.06-.49-3.75-1.84-4.35-5.64Zm-41.76,6.61,3.86.09S73.45,152,73.06,153c-.46,1.2-.24,1.45.65.61a2.92,2.92,0,0,1,4-.22c2.55,2.58-.12,6.79-3.14,4.95-1.29-.8-1.51-.53-.49.59,2,1.87-.08,4.55-2.41,4.57a3,3,0,0,1-2.91-2.86A2.49,2.49,0,0,1,70,158.26c.85-.49.24-.8-.67-.3-3,1.63-5-2.56-2.74-4.93,1.3-1.37,2.68-1.24,4,.06.93.92,1.27.84,1-.24a14,14,0,0,0-1-2.71Zm104.23,3.27h2.77c-.28.69-.63,1.4-.85,2.08s-.07.84.67.12c1.9-1.29,4,0,3.53,2a1.91,1.91,0,0,1-2.08,1.72h0a2.18,2.18,0,0,1-.71-.22c-1.19-.54-.8-.31-.13.51a1.84,1.84,0,0,1-.08,2.6,1.78,1.78,0,0,1-.38.28c-1.89,1.34-4.38-.89-3.13-2.82.74-1.16.4-1-.28-.47-1,.74-2.52-.31-2.55-1.78-.12-2.1,2-3.28,3.46-1.8.7.6.88.53.56-.34a14.89,14.89,0,0,0-.76-1.91Zm.15,15.25h2.9a6,6,0,0,1-.49,1.06c-.53,1-.45,2,.11,1.33a2.09,2.09,0,0,1,3-.2l0,0a2,2,0,0,1,.54.76c.76,1.67-.7,3.52-2.22,2.82-1-.46-1.05-.36-.4.6a1.89,1.89,0,0,1-.49,2.61.76.76,0,0,1-.19.12c-2,1.31-4.48-1.3-2.78-3,.45-.44.3-.66-.24-.36-2.25,1.23-3.91-1.83-2-3.62.84-.76,1.46-.71,2.82.24.43.29.51,0,.21-.76a8.09,8.09,0,0,0-.72-1.65ZM67.2,170.47a5.89,5.89,0,1,1-5.75,6v0a5.87,5.87,0,0,1,5.74-6Zm.06,1a4.84,4.84,0,1,0,4.94,4.77h0a4.81,4.81,0,0,0-4.88-4.71Zm.06,1.86a3,3,0,1,1-2.92,3.08v-.08A3,3,0,0,1,67.32,173.33ZM60,187.6l3.37,1.66s-1.6,1.32-2.23,2c-.81.87-.76,1.28.35.86a2.93,2.93,0,0,1,3.92,1.35,3.08,3.08,0,0,1,.29,1.23c0,2.91-3.37,4.32-5,2.11-.5-.66-1.07-.93-.84-.39A3.11,3.11,0,0,1,59.1,200a3.32,3.32,0,0,1-2.91.32c-2.47-1.28-2.59-4.14-.23-5.27,1.18-.57,1.22-1.1.06-.81-2.44.61-3.85-2.34-2.1-4.37s4.89-1.72,5.22,1.48c.06.56.44.15.62-.72a21.6,21.6,0,0,0,.2-3Zm31.43,4.8s-12.34,7.13-12,7.48c.07.05,2.74,3.82,2.74,3.82,6.13-14,20.85-2.4,23.15,4.74a6.08,6.08,0,0,0,1.15.48c.06-.51,1.07-5.47,1.07-5.47ZM71.64,243.91c-.61.78-2.69,3-2.43,3.08,18.15,3.93,36.88,3.62,55.93,1.53l-1.46-4.61c-18.86,4.83-52,0-52,0Z" transform="translate(-0.03 0)"/>
    <path class="c" d="M25.8,14.43l1.11,257.25,159.29-.58-1-257Zm48.45,1.84,79.41-.33c-3.72,9.75-14.45,25.15-13.89,25.19-16.57-2.75-33.57-4.12-52.57,0Zm-46.65.62,44.6-.05L86.93,43.41a5,5,0,0,1,.34,3.37,16.63,16.63,0,0,1-1.54,3.7c0-.56-4.24-1.1-3.88,2.6A3.42,3.42,0,0,0,85.69,56h0a3.35,3.35,0,0,0,1.85-.91c.38,0,.38.32.29.93-.21,1.43-1.73,6-2.76,6.29-5.28-4.37-7.17,3.61-3.6,5.2a5.59,5.59,0,0,0,6.7-2.37c1.13-1.91,1-1.59,1.36.72.14.86.33,1.86.41,2.31.31,1.41,0,1.68-2.34,2.32a36.78,36.78,0,0,1-5.75,1.58c-3.55.59-5.38,3.29-5.46,6.58a2.54,2.54,0,0,1-.14,1.25A168,168,0,0,0,28.44,107.5ZM128.73,80a51.24,51.24,0,0,1-2.9-7.84c-1.31-9.89-1.55-21.6-3-30.79l1.84.2a78.36,78.36,0,0,1,1.44,9.86c.36,3.56.75,11,1.06,14.38.46,5,2.73,13.15,4.14,15.19,2.28,3.33,6.89,1.18,5.35-2.78-.79-2-3.89-1.71-3.47.41,0,.38.3-.27.75-.67a1.76,1.76,0,0,1,2.26,1,1.78,1.78,0,0,1-.16,1.46c-1,2.16-3.86,1.17-4.82-1.54-1.14-3.25,2.71-5.68,5.6-3.7,3.2,2.2,3.21,7.79.62,9.56-4.34,1.6-7.3-1.6-8.72-4.86Zm10.75,4.11c-.17-.1,0-.44.23-1.25a7.6,7.6,0,0,0-1.65-7.59c-1.07-1.23-1.48-1.45-.91-1.68,1.19-.47,3.84,1.47,4.57,3.37a7.08,7.08,0,0,1-.12,5.92c-.7.4-1.79,1.31-2.12,1.18Zm3.28-2c0-.35.23-1.46.29-2a7.38,7.38,0,0,0-2.5-5.91c-1.45-1.4-1.58-1.55-.21-1.57,3.55-.06,5.8,5.71,4.17,8.55-.41.43-1.71,1.35-1.75.92Zm3-2c1-4.92-3.68-8.19-3.77-8,.23-1.11,2.1-.47,2.75,0,2.38,1.61,3.75,5.83,2.29,8.23a1.52,1.52,0,0,1-.61.62c-.5.32-.79.57-.89.35s.2-.88.23-1.12ZM104.2,64.08c.5-.49.64-.51,1.59-.15,3,1.13,5.34-1,4.64-3.28A3.13,3.13,0,0,0,108.37,59c-1.12-.11-1.14.48.07.94,1.48.56,1.63,2.14.32,2.85-1.53,1-4-1.6-5.88-1.38A1.43,1.43,0,0,0,101.73,63a1.26,1.26,0,0,0,.16.46c.46.71,1.79,1.14,2.33.68Zm-3.3-.33c-1-.48-1.42-.47-1.23-1.61.14-.75,1.19-5.76,1.69-7.7,1.51-5.81.09-9-4.16-10.33-2.88-.88-5.37-.43-8.3,1.14l-.53-1.64c12.32-3.25,33.33-2.53,33.25-2.41a33.82,33.82,0,0,1,.74,5,56.81,56.81,0,0,0-6-2.59c-3.17-1-8.17.09-9,1.92-.51,1-.24,1.73,1.88.58,3.48-1.89,10.58-.45,13.1,1.55.57.46.54.56.55,1.1,0,.83.07.87-1.07.26-6-3.08-11.08-2.72-12.84,1.32-.4-.12-2-.39-2-.39l1.66,2.48L109,55s2.72,1.52,4.22,2.16.63,0-1.19-1.31c-1.32-.93-.27-1.23.61-.87a9,9,0,0,0,7.49-1c1-.6,3.12-.08,3.15.2,0,0,.29,2.26.57,7,.14,2.25.41,5.18.57,6.38.47,3.63.61,3.84-1.29,2.09a20.27,20.27,0,0,0-1.71-1.49c-.24,1.12,2.55,3.11,3.21,3.78,1,1,1.78,3.67,1.38,3.82-.25.1-2.9-2.17-5-4.21a20.81,20.81,0,0,0-2-1.76c-.44.29,1.32,2.29,3,3.79,1.92,1.74,2.14,1.89,1.5,2.15-1.19.49-2.27-.11-5.16-2.52a7,7,0,0,0-1.42-1c-.26.35,2.4,2.9,3,3.11,1.14.41,1.45,1.5.57,1.93-.6.29-2.8-.93-4.57-2.47a3.59,3.59,0,0,0-1.26-.68c-.34.22,1.63,1.94,3.52,3.09s2.14,1.4,1.67,2.33-4.5-1.14-6.49-3.43c-.42-.49-.77-.7-.68-.53.88,2.46,3.79,4.23,6,4.93a4.46,4.46,0,0,1,1.2.49c.62.49.48,1-.18,1.29-2.31.65-6-2.16-8.54-5.11-.31-.12-.13.26,0,.39,2.17,3.49,6.32,6.14,8.82,5.65,1.47-.29,2.64.15,2.65.65s-.79,1-2.37,1.16c-3.55.25-9.11-3.67-12.37-8.66-.1-.16-.22-.21-.23-.12-.08,1.06,2,3.65,3.49,5.14,4.6,4.41,8.93,5.9,12.36,3.42,1.91-1.5,3.77-4.77.92-5.86-1.52-.58-2.47,1.52-1.18.92,1.7-.21,2.08.7,1.87,1.55a2,2,0,0,1-2.46,1.37,2.16,2.16,0,0,1-.59-.29c-2-1.11-1.61-4.92,1-5.59a4,4,0,0,1,4.7,3.27v.11c.42,3-2.93,6.23-5.61,7-9.2,2.73-16.36-10.08-16.4-10.37-.47-.9-1-1.37-1.37-.33-.37,1.51-2.44,5.92-3.55,5.89.34-1.55,1.8-4.17,1.44-6.46-.61,1.88-1.89,5.9-4.36,8-.65.58-2.52,1.27-1.22-.24,1.55-2.21,3.59-5.23,3.17-8.06-.42.63-.64,2.25-1.11,3.31-1.19,2.67-3.78,5.84-5.49,6.35-1.26.38-1.14,0,.15-1.42s3.84-5.79,3.68-7.65c-.08-.82-2.55,7.11-7.19,9.28a2,2,0,0,1-2-.12c1.83-1.06,6.88-6.08,6.4-11.77l-.66,2.1c-1.72,5.44-5.39,9-8.26,9.32-2.29.23-3.89-.7-3.32-1.11a8,8,0,0,0,7.31-3.92c2-3,2.66-7.73,1.49-12.77a86.34,86.34,0,0,1-1.64-13c3.25,1.12,6.52,1.87,9.69.62-.32,1.3-.85,1.46-1.69,2.45-.6.71-.4.88,2-.8.69-.49,1-.88,1.06-.75a17.88,17.88,0,0,1-.8,4.22c-1,4-.76,4.29,3,5.8a2.54,2.54,0,0,1,1.23.85c.12.14.75,1.27.8,1.31a4.53,4.53,0,0,0,0-1.47,2.84,2.84,0,0,0-1-1.71A7.72,7.72,0,0,0,101,63.76Zm71.89,52.11v-4.14l4,2.85v1.37Zm-6.85,1-.15-76.73,4.6-3.07c1,3,1,9.57.6,12.47-.6,1.89-.87,10.31-.19,14.6a43.36,43.36,0,0,1-.07,11.77,76.3,76.3,0,0,0,.33,10.58,31.84,31.84,0,0,1-.21,8.5,34.54,34.54,0,0,0,.16,8.56,73.07,73.07,0,0,1,.4,12.72c-.62.78-5.77.85-5.47.56ZM172,36.57s3.09,2,4.57,3.08V43l-4.46-3Zm-46.13,5.34,1.91.12a112.66,112.66,0,0,1,1.4,13.08c.09,7,1,14.42,2.6,19.29l-1.41,1.48c-2.4-5.57-2.59-14.35-3.12-20.28a114.53,114.53,0,0,0-1.37-13.7Zm46.5-.7L176.54,44v3.59l-4.17-2.8Zm-43.75,1,1.69.18c.5,4.75,1.29,8,1.58,13.19.39,6.76,1.55,12.31,2.28,17.6l-1.26.42c-.85.39-2.24-5.85-2.86-18.5-.19-3.83-.84-8.13-1.43-12.89Zm2.54.18,2,.37c.88,12,2.29,23.28,3.75,29.75l-1.74.11c-2.16-9.24-2.3-19.93-4-30.23Zm2.9.43,1.84.32c2.22,27.46,3.59,27.1,4,28.19l-2,.82c-2.15-7.9-2.59-19-3.86-29.33Zm8.37,27c-.32.92-1.07.84-1.89.93a42.32,42.32,0,0,1-1.83-8.48c-.83-6.47-1.14-12.53-2-18.91l2.19.23c-.07,0,1.56,22.51,3.54,26.23ZM95.2,45.61c2.89.14,5.3,1.45,5.53,3.36,0,.44-.28.23-.68-.08a8.58,8.58,0,0,0-8.74-1.28c-.76.27-1.36.7-1.7.64a.78.78,0,0,1-.16-1C90.2,45.86,93.77,45.54,95.2,45.61Zm-6.68,3.85c.06,3-.68,4.68-2.25,5.38-1.9.85-4.34-1-3.15-3,.89-1.53,2.43-1.07,2.73.54L88.26,47s.25,1.72.26,2.48ZM176.69,49v3.12l-4.44-3,.29-3Zm-79-.4c2.19.87,3,1.94,3.08,2.42-.13.35-.35.11-2-.76a7.62,7.62,0,0,0-8.52.16c-.7.14-.77-.26-.07-1a7.61,7.61,0,0,1,7.47-.82Zm16.63-.6a13.42,13.42,0,0,1,6.19,1.42,10.24,10.24,0,0,1,2.2,1.21c.45.23.48,1.26.15,1.34s-.77-.19-1.49-.7c-4.63-3-7.94-2.65-10.65-.79a1.65,1.65,0,0,1-.78.2c-.52,0-.54-.25-.33-.53A6.72,6.72,0,0,1,114.32,48Zm57.88,2.14,4.46,3.15V56.4l-4.78-3.33ZM91.6,51.42h.66c1.52,3.71,3.42,1.8,4.22.31l.79.13c-1.24,5-6.3,2.37-5.67-.46Zm-1.1.49c.74.09.71.93,1,1.55.52,1.36-1.45.21-1.77-.13C89.09,52.78,89.91,52,90.5,51.91Zm22.1-.13c1.92,3,3,1.2,4.13-.08l.52.17c-.14,2.11-3.68,4.37-5.36,0Zm6,.33a3.87,3.87,0,0,1,1,.31c1,.43,1,.74-.17,1.26-1.87.84-2.51,1-2-.23.32-.54.54-1.26,1.12-1.34Zm-7.31.45a1.81,1.81,0,0,1,.83,1.36c0,.44-1.42-.07-1.42-.77,0-.46.25-.82.55-.6Zm-12.91.17c1,.36.85.82.17,1.23-1.19.67-1.71.54-.93-.51.33-.5.41-.67.73-.73Zm73.57,1.55,4.83,3.42v3.14l-4.83-3.31a12.63,12.63,0,0,1,0-3.25ZM88.34,59.14c.23,0,.32.77.37,1.89.09,1.85-1.78,4.45-3.68,5.34-2.28,1.07-4.72-.44-4.32-2.66s3.28-2.15,3.39-.24c-.29.49.11.91.28.87a7.08,7.08,0,0,0,3.2-3.56,8.14,8.14,0,0,1,.62-1.57A.19.19,0,0,1,88.34,59.14Zm83.43-.58,4.82,3.55v3.13l-4.79-3.33a15.63,15.63,0,0,1-.06-3.35Zm-58.63,5c-.36.61-.07,1.72.69.78A2,2,0,1,1,117,66.7h0c-1.35,1.63-3,1.11-6.53-.25-2.57-1-3-.65-3.6.06s-.26,1.77.42,1.76c2.07.47,3.88.93,6,1.38,4.55.94,7.32-5,3.17-7.13a2.92,2.92,0,0,0-3.38,1Zm-20,.68c-1.78,1.6-.32,5.8,2.28,6.18a5.6,5.6,0,0,0,2.3-.22c1.82-.53,3.83-1.61,4-2.25.37-2.88-3.88-.29-4.45,0-1.34.82-2.76.71-3.47-.26-1.62-2.2,1.27-4.73,3-2,.44.67.28-.47-.2-1.25-.68-1.14-2.45-1.07-3.41-.25Zm79-.91,4.53,3.23v3l-4.4-3.2Zm.33,4.4,4.3,3,.08,3.13-4.51-3c.09-1.13.11-2.18.13-3.25Zm-24.11,1.8c3.79.06,6,5.7,3.92,8-.59.7-1.06.88-1.33.62a9.18,9.18,0,0,1,.07-1.39,6.61,6.61,0,0,0-2-5.55c-1.25-1.32-1.72-1.72-.68-1.74Zm-46.55.89c-.72.26-1.48.79-2.06.65s-.86.17-1.08.63c-.87,1.75-.6,2.31,1.11,1.32.82-.47,1.1-.3,3.28.11a8.21,8.21,0,0,0,4-.09c1.71-.45,2.72-.48,3.58,0s1.45,1.13,1.47.6a20.08,20.08,0,0,0-.75-2.76c-.06-.25-.49,0-.89,0-1.42.11-3.09-1.17-4.19-.5-.87.54-1,.69-2.18,0a2.28,2.28,0,0,0-2.26,0Zm45.54.39c2.56,2.17,3.22,4.08,3,5.65-.13,1.14-.22,2.4-1.32,3.08a3.78,3.78,0,0,1-.8.21c.86-3.24-.15-6.15-3.77-9.25a2.57,2.57,0,0,1,2.91.28Zm-57.79,0a2.2,2.2,0,0,1,.37.06c.44.15.51,1.33.15,1.7s-.62.06-1-.87c-.34-.55,0-.91.43-.91Zm-2.36.9c.93,0,1.29.84,1.45,1.53s0,2.33-.54,1.73a5.17,5.17,0,0,0-1-1.88c-.91-.71-.82-1.38.12-1.4Zm-2.6.85a2.17,2.17,0,0,1,.51,0c1.46.24,2.58,2.58,2.24,3.91-.77,1.43-1.06.47-1.31-.83a8,8,0,0,0-1.17-1.81c-.79-.8-.91-1.25-.32-1.27Zm87.75-.68,4.43,3.21v3.43l-4.65-3.15c.11-1.2.16-2.35.21-3.49ZM81.67,73.27c2.17,0,4,2.55,3.34,5-.85,2.56-5.08,2-4.39-.54A1.17,1.17,0,0,1,82,76.79a.92.92,0,0,1,.36.13c1.07.66,1-.42.28-.8a1.88,1.88,0,0,0-2.61.56l0,0a2,2,0,0,0-.2.41c-1.12,4.18,4.22,5.61,7.12,1.29a45.35,45.35,0,0,1,2.86-4c.56-.64.69-.58.59.26-.37,3.88-3.06,8.74-8.1,8.47-4.9-.47-6.43-5.7-2.73-9a3.24,3.24,0,0,1,1.92-.87Zm26,.21a5.75,5.75,0,0,1-5.18.43c-1.31-.57-1.29,0-.72.56,1.64,1.41,4.62.77,6,0,.41-.25.55-1,0-1Zm69.13,6.21V82.8l-5-3.35a14.22,14.22,0,0,1,.17-3.06Zm-4.78,1,4.72,3.13.12,3.09L172.2,84Zm.33,4.34,4.51,3.14.06,3.38-4.47-3Zm-110,3.6L59.5,97l1.81.11,1.22,2.22,1.26-2.27,1.89-.15ZM172.58,89.8l4.35,3,.07,3.13-4.51-3.15Zm-.17,3.82,4.45,3.26.09,3.32-5-3.4ZM72.56,95.46l-2.74,9,1.55-.22,1.44,2.41,1.46-2.16,1.38.08ZM52,96.13,49.38,105h1.74l1.47,2.26,1.29-2.18h2Zm119.76,1.68,5.23,3.71V105l-5.07-3.46Zm5.17,8.37.06,3.09-4.41-3.16-.47-3.42Zm-93.41.54-3.19,9.1h2.14l1.3,2.18,1-2.19h1.79Zm89.34.9,4.09,2.82v3.17l-4-2.79ZM95.41,144.43l-2.33-2.26a3.37,3.37,0,0,1,3.1-.52,3.26,3.26,0,0,1,1.14,4.45,2.9,2.9,0,0,1-.53.68,3.22,3.22,0,0,1-3.57.07Zm-2.07-3.72c0-3.48-1.78-4.37-3.29-5.08,0,0-.24-22-.21-22.73,0,.09-.39-2.39-.43-2.54h0l-.36-.09c.06,2.24.21,25.17.17,25.32-2.82.33-3.6,2.25-3.86,4.83a4.22,4.22,0,0,0-3.66,1.38c-.82-1.12-.21-2.77-.86-3.94-2,6.85,1.85,11,5.14,10.58.54,6.58,7.74,7.77,7.49-.22,8.74-.55,5.8-8.62-.1-7.55ZM52.45,113l-3.15,8.91,2.21-.26.8,1.65c3.55-3.15,5.33,1.71,3.53-2.45Zm119.87,15.88a1.07,1.07,0,0,1,1,.84c.08,1.5-1.93,1.17-2,.22a1,1,0,0,1,.93-1.06Zm1.31,9.78a1.33,1.33,0,0,1,1.88,0,1.29,1.29,0,0,1,.38.76c0,1.07-1.07,1.27-1.92.74a1,1,0,0,1-.44-1.34.86.86,0,0,1,.1-.16Zm.12,2.65c4.74.36,8.26-2.88,6.76-5.21,1.27-1.62.23-2.54.58-3.47,1-1,.16-3.27-.09-3.28-.21-3-1.07-3.4-2.36-5-.39-.47.9-.92,1.4-1.72a2.3,2.3,0,0,1-2.59-.69l-.56-.7c-8.78.41-16.66,1-16.37,13-1.26,5.09.88,9.63,7,8.23,1.34-1.21.46-3,.29-3.8a10.42,10.42,0,0,1,.25-4.9c.52-3.35,3-6.47,3.22-1.21.43-.66.23-.76.94-1,1.68-.61,1.67,1.1,1.34,1.79-.23.36-.56.33-.91.29s-1.13-.24-1.14-.42c-.13.54.89,1.56.79,2.07s-.22.44.22.12c2.12-1.52,3.44,1.88.38,1.49,1.51.81-.72,3.18.84,4.4Zm-3.13-18.33c1.67-.08,2.06-.1,2,.78.32,1.63.73,2.38,2.83,2.21s2.79-.41.66.89a4.16,4.16,0,0,1-2.7.45c-1.29-.11-1.19-.24-1.93.2a4.47,4.47,0,0,1-1.19.61l-1.37.29a9.77,9.77,0,0,1-2.28,5c-1.47,1.68-2.22,2-.42,1.85.67,0,.33-.3.62,2.42a14,14,0,0,0,.36,2.41c.47,1.24.53,1.85-1.25,1.94-4.43.34-5.47-4-4.88-6.24.14-.8.24-1.61.3-2.42,0-.5-.08-.93-.06-1.44.1-4.16,1.07-5.25,4.72-8,1.1-.83,3.09-1,4.56-1Zm3.9.23c2,0,4,1,3,1.59a5,5,0,0,1-3.59-.22c-.82-.6-.51-1.36.55-1.38ZM83.13,126.7l-.82,1.46-.85,6.75.16,1.37,1.66,2.21,1.33-2.29H86.7ZM179,126a1.52,1.52,0,0,1,1.16,1.79,1.56,1.56,0,0,1-.17.47c-.75,1.66-5.71,2.46-5.71,2.46a3.82,3.82,0,0,0-.46-2.2s3.31-.88,4-1.52c.46-.43.75-1,1.12-1Zm1,3.78c.48,0,.73.36.86,1.08a1.45,1.45,0,0,1-.38,1.12c-1.27,1.38-4.81,2.34-6.09,2a12.66,12.66,0,0,1,.22-2.22c1.7.07,4.57-1.49,5.38-2Zm-50.52,8.5c-1.69-2.46-5.45-2.1-5-1.93,0-2.1-.34-5-3.51-5.31s-4.85,4-3.63,5.82c-2-.83-5,1.24-5,1.44-.26,0-2.52,6,4.34,6.34.62,2.85,1.69,4.23,3.88,5.4V173.3l.77,1,.07-24.36c3.51-.16,4-4.2,3.69-5.13a6.11,6.11,0,0,0,4.15-1.17l.42,4s.83-1.4.64-2.14C128.74,122.66,136.93,98,147.68,82c.57-.68.75-1.48,1-1.48C151.3,79.06,153,78.1,153,78.1c4.33,2.1,12,7.15,12,7.15l.12,32.53c-.12-.32,14.39-1.63,14.17-1.23,0,0-1.27-.5-1.29-1.36l-.37-76.13-6.36-4.17s-5.21,3.43-6.67,4.61l.16,44.82-11.25-6.64s.18-1.58.2-2.1c-.18-6.12-3.16-8.17-8.83-6.36-.76.25-1.29.46-1.66.15-2.39-7-3.46-25.52-3.46-25.52l16-27.34,27.15-.15.52,104.46,1,54.74-13.9,10.18-.2-35a18.74,18.74,0,0,0-2.51-1,.35.35,0,0,0-.27.42h0a.38.38,0,0,0,.18.23,11.08,11.08,0,0,0,1.76.78l.29,34.76s-5.39,3.65-7.8,5.19c-1.79,1.12-7.47,4-10.83,5.66-1.31.64-2.63,1.16-2.75,1.26-4.58,2-8.71,3.37-12.54,5.42-2.63,1.09-2.51,0-3.07-.85a16.07,16.07,0,0,0-18.35-3.27,12.4,12.4,0,0,0-2.74,1.14,3,3,0,0,1-.84.4,4.1,4.1,0,0,0-1.52.72,7.3,7.3,0,0,0-1.85,2.8,34.08,34.08,0,0,0-1.29,4.65c0,.15.29.12.31.14s.89-3.73,1.21-4.45a5.1,5.1,0,0,1,2.1-2.59c.22,0,.4.3.12.84a15.94,15.94,0,0,0-1.21,4.38c-.13.94-.15,1.7,0,1.74s.86-2.87,1.24-3.89c1-2.67,1.58-3.78,2.53-4.35s1.19-.5,1,.12a20.06,20.06,0,0,0-2.31,8c0,.59.26.61.49-.38.79-3.15,1.87-7.4,4.41-8.68,1.09-.49,1.57-.47,1.46-.11a17.23,17.23,0,0,0-3.76,9.52c0,.46.2.37.59-.63,1-3.8,2.55-7,4.35-8.62a4.08,4.08,0,0,1,2.26-.87c2.14-.27,2.21.53.35,1.62-2.12,1.25-4.57,5.78-4.85,9.18-.09,1.18.32,1.3.61-.27,1.26-6.76,7-11.23,11.63-9.16,2.07.94,2.45,2.23.64,1.65-3.66-1.16-7.72,1.45-9.39,5.09-1.52,3.29-1.48,5-.41,9.44.72,4.08,2.13,9.29,1.66,13.28-.49.78-2.08-.32-4-.55a6.91,6.91,0,0,0-3.69.19c-1,.39-1.62.49-1.81-.07-.06-.18.8-1,1.17-1.54.62-.78.27-.9-.59-.06a10.14,10.14,0,0,1-1.57,1.43c-.55.11-.57-.5-.13-2.07,1.54-6.09,1.12-6.2-1.51-7.43-2.61-1-1.78-1.51-3-2.5-.81.64,1.07,3.58,3.19,4.23,1.74.53,1.53,1.42.77,3.83-.78,3.37-2.09,7.83-1.33,10.83,1.6,6.3,7.94,6.17,12.8,3.62l.59,1.6c-4.1,1.69-25.74,3.12-33,2.27a20.46,20.46,0,0,1-.84-4.84,37.65,37.65,0,0,0,6.75,2.4c2.81.45,7.13.47,8.24-2.14.33-.76,0-1.4-1-1a16,16,0,0,1-13.57-.47,1.44,1.44,0,0,1-.67-1.92v-.08c.42-.09,1,.37,1.3.54,3.72,1.9,5.77,2.26,8.19,1.54,1.84-.55,4.33-2.56,3.71-3.12-.62.21-2.69,2-4.11,2.34-3,.79-6-.42-9.09-2.4-1-.82-.52-1.42.63-.76,4.56,2.31,6.47,3.84,10.82.6,1-.73,1.52-.64,2.1-.2,2.26,2,2.25.9.59-1.22a6.3,6.3,0,0,1-1-1.88,4.17,4.17,0,0,0-.5-1.41,7.13,7.13,0,0,0-2.51-1.36c-1.53-.68-2-.35-.9.2,2,1,3,2,.48,1.45-2.23-1-6-.44-8,1-1.65.82-2.39,1.68-2.77-.15-.82-3.83,0-9-1.11-15.73-.21-1.27-.47-2.09-.2-2.27s1.18.62,2.23,2.1c.49.68,1.44,2,1.43,1.71,0-1.41-2.15-4.08-4-5.13-1-.57-1.67-3.23-.54-2.65a33.92,33.92,0,0,1,6.41,5.91c.39.66.74.24.31-.55a18.23,18.23,0,0,0-2.37-2.89c-1.85-1.81-2-1.73-1.71-2.1.71-.73,2.21.21,4.89,2.65.68.88,1.59,1.67,1.48,1.23.27-.68-2.41-3.58-4-4.36-.3-.18-.34-.38-.32-.74.16-1.37,3.22.64,5.79,3,1,.88.15-.78-1-1.9a11.3,11.3,0,0,0-3.21-2.36c-1-.4-1-1.22-.27-1.57,2.56-.11,5.2,2.52,6.77,4.59.44.57.83,1,.39-.07a9.66,9.66,0,0,0-6.6-5.44c-1.7-.3-1.66-1.85-.06-1.67,1.76.19,4.65,1.79,7.1,4.28.71.72,1.91,2.36,1.66,1.4a8.19,8.19,0,0,0-1.62-2.3c-2-2-4.34-3.78-6.81-4.3-1.15-.33-4.57.33-4.59-.27,0-.44.35-.7,1.45-1.07,4.23-1.42,10.43,2.25,13.81,7.88.25.4.71.58.74.49-1.64-4.61-6.72-8.78-10.77-9.5-2.75-.44-5.52.27-6.84,2.13-1.48,2.1-.9,4.92,1.32,4.69,1.17-.11,1.08-.78,1.06-.8a3.91,3.91,0,0,1-1.18.16c-1.53-.3-1.37-3.08.86-2.8,2.57.31,2.93,4.39.06,5.24-2.64.79-3.61-.42-4.34-1.87-1.06-2.11.08-5.52,2-6.83,5.23-3.66,11.85-.59,15.58,3a16.54,16.54,0,0,1,4.06,6.23c.21.53.61.5.47-.07-5.26-13.51-20.94-15-23.28-4.61,0,0-.08.32-1.58-1.84-2.46-3.5-6.11-4.28-10.61-1.9a65.91,65.91,0,0,0-9.23,4.46c-.45.17-3.37,2.19-3.84,1.77-4.46-3-8.35-4-10.47-6.18.07-.41-.31-6.46-.31-6.46l.11-26.15c0-.25-2.36.17-6.35.8-10.6,2.14-9.67-3.48-11.07-3.87-.75-.15-.7.17-.89-20-.06-5.85-.17-16.13-.26-22.87s-.11-12.32,0-12.44A7.23,7.23,0,0,1,29,107.94c2.58-1.84,4-3,9.68-7.3a16,16,0,0,1,1.55-1.16c.66,12.12.07,24.82.39,35.25h.48l-.15-34.91c-1-.27,22.28-14,35-18.44.25-.09.84.18.84.18,7.32,9,26.57,6.3,28.12-4.7,3.19,6.71,17.21,19.74,23.61,4,0,0,2.32,4.51,4.31,4.81,4.47.6,5-.11,14.82-4.93a108.3,108.3,0,0,0-18.27,57.55Zm-6-4.24a4.79,4.79,0,0,1,.12,2.52c-.29.6-.72.6-.72.6l-2.18-1.88-2.14,2a3,3,0,1,1,4.17-4.31,3,3,0,0,1,.71,1.06Zm56.35-.3c1.4-.09.68,1.53-1.39,2.62-1.29.69-2.37.88-2.84.64a2.46,2.46,0,0,1,.12-1.77,35.37,35.37,0,0,1,4.11-1.49Zm-90.14,3a2.88,2.88,0,0,1,3,2.76v.29a4,4,0,0,1-.39,1.6l-2.59-1.92-2,2.12c-.34.12-1.55-1.4-.71-3.06a3.12,3.12,0,0,1,2.66-1.76Zm37.45.91a3,3,0,0,1,.45,5.25c-1,.56-2.6.87-3.34-.27l2.14-2.35-2.46-2.08a3.61,3.61,0,0,1,3.21-.55Zm52.31-.81c.38,0,.47.15.58.5.31,1-.47,2-1.82,2.33s-1.12.44-1.71-.67c-.45-.88-.57-.84.14-1.12s1.77-.59,2.77-1Zm-62,1.51s-1.55,1.58-2.22,2.24l2.33,2.45c.11.3-2.69,1.57-4.16-.35a3.37,3.37,0,0,1,1-4.44c1.29-.8,3.28-.11,3,.13Zm3.34-.28a2.51,2.51,0,1,1-2.45,2.57v0h0a2.5,2.5,0,0,1,2.42-2.51Zm-34,4.22-2.26,2.38,2.41,2.65a12.4,12.4,0,0,1-2.58.18c-3.29-.62-3-4.5-.43-5.52a3,3,0,0,1,2.82.34Zm-43.8.8s.44,5,.85,6.68c-.27,2-1.51,3.27-2.08,5.26-.3.89-1.42,2.09-1.64.83-.81-1.54,0-3.45-.7-4.55a20.6,20.6,0,0,1-.47-2.7c-.49-.87-.89-1.28-.82-2.08-.14-3.52-1-2.82-2.56-2.53-1.28.42-3,.59-4,1.35-2.21,1.56-1,2.45-1.84,4.8a6,6,0,0,1,.21,2.3c-.85,4.21.71,3.86.66,3.92-.65,1,.16,3.16.47,3,1.91.47,1.22,1.88,1.84,2.62s.59,1.09,3.21,1.15c4.73.38,12.24-.33,13.9-6.15.89-8.13,2.37-15.35-7.1-13.89Zm47-.81a2.42,2.42,0,1,1-2.36,2.48v0A2.42,2.42,0,0,1,90,142.29Zm-44.93,1.28a3.75,3.75,0,0,1,2.81,1c1.85,1.79,2,3.42,1.11,10.31a6.65,6.65,0,0,1-1.78,4.25,16.78,16.78,0,0,1-5.85,2.93,9.53,9.53,0,0,1-2.44.23c-.7,0-1.11-.33-1.17-.92.16-1.61-1.47-1.76-2.41-1.67-1.68.06-1.86.24-.8-.58s4-.94,4.47-.4a5.23,5.23,0,0,1,3.58-1.38,3,3,0,0,1-.38-2.29c.7-1.25,1.9-3.48,3.15-4.31,1.25-1.63.19-.9-.58-.87-.44,0-.4-.13-.47-.42a27.2,27.2,0,0,1-.75-5.08c0-.64.59-.77,1.49-.78Zm-7.86,1.71a.94.94,0,0,1,.18,1.3.81.81,0,0,1-.18.19,1.06,1.06,0,0,1-1.51-.09,1.05,1.05,0,0,1-.27-.65,1.09,1.09,0,0,1,1.24-.93h0a1.16,1.16,0,0,1,.5.21ZM121,148.73a3.12,3.12,0,0,1-3.11-3.13h0a3.19,3.19,0,0,1,.2-1.1c.41-.59.59-.5.59-.5l2.3,2.06,2.2-2.32A3,3,0,0,1,123,148h0a3,3,0,0,1-2,.78Zm-86.26-3.36a4.35,4.35,0,0,0,.08,1.57c-.39.29-2.09.79-3,1.24a.78.78,0,0,1-1-.49v0a.86.86,0,0,1,0-.39c.24-1,1.73-1.69,2.81-2a1.38,1.38,0,0,1,1.07.14Zm.38,2.92c.62-.07.44,1.27.2,2-.23.49-.9.47-1.51.51-1.07.06-2.42,1.31-3,1.11-.19-.09-.32-.6-.34-.93.12-1.8,3.08-2.46,4.66-2.65Zm3.25,1.87a1.45,1.45,0,0,1-1.42.3,1.11,1.11,0,0,1-.75-1.38v0a1.14,1.14,0,0,1,.47-.61c1.39-.44,2.24.88,1.66,1.73Zm89.05-3-1.27,1.89h-1.86l3,9.3,1.39-3.65c.19-1.67.41-3.33.57-5Zm-39.53.78,2.37,2,2-2.1c1.52,3.41-.23,5-2.09,4.92s-4.19-2-2.28-4.75Zm-52.17,3.52c.75-.15.43,1.9.32,2-.47.18-2.55.45-3.42,1.2-1.86,1.46-2.65.57-1.79-1.19.81-1,3.8-1.92,4.88-1.94Zm2.37.1a1.09,1.09,0,0,1,1.11,1,1,1,0,0,1-.21.68,1.12,1.12,0,0,1-1.88-.74,1,1,0,0,1,1-.91Zm-1.24,5.29c.12.47,0,.33-.91.58a12.27,12.27,0,0,0-2,.88c-1.15.58-1.47.9-1.89.83s-.69-.21-.79-.54c-.41-1.34.66-2.7,3.17-3.62a10.53,10.53,0,0,1,1.75-.39c.78,0-.14,1.3.62,2.26Zm1.48-2c1.2,0,1.43,1.6.52,1.89-2.15.54-1.94-1.89-.57-1.89Zm-1.49,6a.75.75,0,0,1,.09,1l-.09.1c-.7.34-3.38,0-3.4-.71,0-.5.89-.66,1.72-.68a2.87,2.87,0,0,1,1.68.23Zm120.76.83-2.2,3,3,7.46,2.7-9L159,164Zm-124.74,7.6c.5,23,.41,75.66.41,75.66l6.5,4.44,6.83-4.94c-.07-16.58-.13-28-.2-43.37l10,5.54s.31.45.26,2.52c-.69,5.73,4.81,9.45,8.45,7.19,1.41-.6,1.52-.7,1.82-.25.82,1.23,1.74,6.51,1.9,9.87.23,5.07,1.55,15.41,1.88,15.48L54.4,269.25l-25.4.13-.28-103.52c1.32,1.57,1.91,2.6,4.13,3.41Zm94.55-2.22L126.2,169h-1.47l2.58,9.61,3.14-9.4-1.73-.22ZM45.83,243.78s-3.17,2.29-4.18,2.95c-.53.2-.79.24-.91-.27a16.68,16.68,0,0,1,.31-3.8,13.77,13.77,0,0,0-.1-4.53,23.72,23.72,0,0,1-.09-6.41,58.82,58.82,0,0,0,0-10.28,66.48,66.48,0,0,1-.06-10.37,36.89,36.89,0,0,0-.28-9.27c-.82-4.6-1-6.19-.1-9.65a12.5,12.5,0,0,0,.42-4.17,53.46,53.46,0,0,0-1-8.56c-.5-3.07-.53-3.5-.07-8.37.1-1,.13-1.64.49-2s5-.63,5-.63ZM33.92,169.37h5a17.31,17.31,0,0,0-.5,3.86L34,170.28Zm.08,2,4.33,2.85a23.36,23.36,0,0,0,.09,3.55L34,174.86Zm0,4.52,4.63,3.2c.19,1.24.57,2.5.71,3.62l-5.25-3.59Zm149.89,1.26.24,91.78-46.14.21-14.63-28.33a27.43,27.43,0,0,1,.5-3.93c.45-1.61.56-2,1.18-2a3.08,3.08,0,0,0,4-1.54c.69-1.54-.71-3.88-2.85-4.39a3.69,3.69,0,0,0-3,1c-.61.51-.75.56-.86.12-.28-1,.6-3.71,2.18-6,.87-1.29,1.11-1.67,1.39-1.17a2.82,2.82,0,0,0,3.86,1h0a3.39,3.39,0,0,0,.66-.54,3.5,3.5,0,0,0-.79-4.85,3.3,3.3,0,0,0-.87-.46c-5-1.61-7.3,3.46-7.24,3.45l-1.07-6.08c6-1.48,9.5-2,11.4-3.86a8,8,0,0,0,2-6.17s16.73-6.85,24.55-11.1a187.6,187.6,0,0,0,25.41-17Zm-25.47.67-1.22,2.24h-1.76l3.54,9.27,2.72-9.68-1.69.16ZM34.2,180.45l5.31,3.69a15.85,15.85,0,0,1,.11,3.64L34,184.06Zm103.63-1.13-1.31,1.74L135,180.9l3,9.18c.9-2.66,1.74-6.26,2.63-8.92l-1.41.07ZM34.12,185.18l5.5,3.69a7.11,7.11,0,0,1-.32,3l-5.19-3.36Zm114,.53-1.33,2.58-1.77-.24,3.17,8.79,3.48-8.71-2.16.12Zm-114,3.74L38.87,193c.07.05-.27,1.61-.19,2.49l-4.48-2.81Zm.13,4.37,4.44,3.06a19.83,19.83,0,0,0,.27,3.26L34.2,197Zm0,4.44,5.14,3.68.27,3L34.2,201.5Zm42.29,1.23c5,1.86,9.55,11.3,9.42,23.55-.1,8.49,2.44,20.61,2.39,20.47s-1.43.2-1.83-.12a79.48,79.48,0,0,1-2.77-18.26c-.25-4.54-.5-9-.78-10-.82-3.66-1.69-7.92-4-10.7-1.81-2.09-3.86-2.46-5.1-.11-1,1.93,1.12,5.12,2.88,4.06.43-.25.68-.65.12-.64-1.82.27-3.06-2.28-1.89-3.49,2-2.14,5.59,2.63,4,5.25-.73,1.13-2.63,1.33-4.16.91a6.61,6.61,0,0,1-3.13-8.34c.87-2,2.77-3.24,4.9-2.53Zm-6,1.22c.4,0,.13.76-.25,1.92-.87,2.78.77,7.11,3,8,.67.46.63.64.19.9-1.48.84-4.17-1.68-4.88-4.47-.51-2-.38-4.42.58-5.43a2.67,2.67,0,0,1,1.23-.89Zm-36.38,1.64L39.59,206a10,10,0,0,1,0,3.54l-5.5-3.85Zm33.1,0c.41,0,.25.68.14,1.93A7.43,7.43,0,0,0,70,211c.86.73,1.09,1,.73,1.35-.53.56-2-.18-3.22-1.42-2.15-2.27-2.87-6.55-1.19-8.1a1.61,1.61,0,0,1,.86-.53Zm61,.51c2.34-.1,4.32.82,4.54,3.71.32,4.22-3.59,6.53-6.32,4.11-2.44-2.44,0-6.25,2.87-4.47,1.42.91-.27,3-1.43,1.91-.52-.48-.75-.19-.37.37,1.11,1.68,3.3.28,3.14-1.19-.3-2.91-3.85-2.87-5.18-1.73a30.89,30.89,0,0,0-4.63,5.51c-1,1.45-1.19,1.41-1-.38.39-4.73,4.77-7.7,8.43-7.84Zm-63.84.92c.37,0,.22.53.25,1.92.15,3.57,1.65,5.79,3.55,7,.63.71-.18,1.22-1.38.88-2.72-.86-5.5-6.75-3.19-9.28a1.2,1.2,0,0,1,.76-.52Zm-2.66,1.15c.38,0,.17.77.2,2.25.08,3.14,1,4.64,3.36,6.57.75.62.84.55.54.89-.79.92-3.47-.38-4.61-2.26-1.37-2.24-1.57-5.61-.3-6.88.36-.36.62-.56.81-.57Zm-2.63,1.51c.31,0,.14.57.19,1.92.11,3.28.86,4.91,3,6.44,1.29,1,1.61.66,1.21,1-.69.66-2.6.09-4-1.12-2.14-1.83-2.74-6.32-1-7.85a1.13,1.13,0,0,1,.63-.37Zm-24.88.49,5.27,3.68-.15,3.12-5.22-3.61Zm92.18,5.83a3.12,3.12,0,0,1-2.76-3.45.61.61,0,0,1,.06-.32c.08-.59.42-.93.79-.16.32,1.23,1.13,2.93,2.24,3.26.45.13.07.76-.33.67ZM80.2,209.07c2.42,6.15,2.38,12.87,2.78,19.2.53,8.42,2,14.11,2.5,15,0,0-2.37,0-2.49-.31,0,0-2.23-11.18-1.89-16.71a51.71,51.71,0,0,0-1.9-14.1c-.77-2.17-.8-.74,1-3.17Zm-46,2.37,5.07,3.35c-.07,1.14-.07,2.29-.07,3.43l-5-3.55Zm68.19-.29c0,.19.74.35,1.88.07a7.19,7.19,0,0,1,3.51,0c1,.29,1.15-.05.21-.46a4.76,4.76,0,0,0-2.27-.64c-1.09,0-3.3.62-3.3,1Zm20.55-.13a8.76,8.76,0,0,0,.85,1.15c.66.76.84.77.54,1.08-.68.73-2.11-.32-2.27-1.65-.13-1,.35-1.59.88-.59Zm-45.41.27c2.37,3.41,2.72,11.39,2.77,17a85.62,85.62,0,0,0,1.9,14.44,2,2,0,0,1-1.75-.05c-.62-.8-1-3-1.7-9.12-.18-1.57-.54-6.54-.62-10.55-.07-3.55-2-11.21-2-11.21a3.27,3.27,0,0,1,1.44-.56Zm-2.63.85c2.15,4.86,2.5,9.69,2.6,15.53a106.55,106.55,0,0,0,1.77,14.88c-.73.08-1.49.14-1.8-.19a3.09,3.09,0,0,1-.45-1.24,108.35,108.35,0,0,1-1.5-14.38c-.41-6.83-.52-8.52-1.49-11.92-.54-1.94-.73-1.9-.31-2.27a2.07,2.07,0,0,1,1.17-.41Zm24.3,1.11c.06,2.27.34,1.35,1.13,1,.59,0,1.08.28,2.19.69,1.41.52,1.28.69,2.28.2.61-.3,1.1-.4,1.39-.16a2.69,2.69,0,0,0,3.5-.36,3.26,3.26,0,0,1,1.93-.1c.8.07.59-.44.69-1.48s-.26-1-1.18-.68a4.4,4.4,0,0,1-2.73.11,9.21,9.21,0,0,0-4.72-.06c-2.47.39-2.6.14-3.16-.22a5.21,5.21,0,0,0-1.35-.74c-.24,0-.16.83,0,1.81Zm22-1c.24-.12.35.21.68.64.55.73.7,1,.25,1.13-1.21.18-1.52,0-1.48-.72s.17-.85.55-1Zm-48.77,1c1.78,1.82,2.24,12,2.44,14.18.64,11.85,1.75,13.55,1.19,14.45-.68,0-.91.24-1.36-.36-1.52-4.34-1.44-8.81-1.68-13.34A53.21,53.21,0,0,0,71.23,216c-.55-2-.54-2,.46-2.55A1.88,1.88,0,0,1,72.43,213.25ZM70,214.68c.63,1.44,1.9,8,2.07,13.65a106,106,0,0,0,1.4,13.3,1.88,1.88,0,0,1-1.76-.56c-2-8.65-1.33-17-3.58-25.74a1.33,1.33,0,0,1,1.76-.7H70Zm-35.75,1.1,5.25,3.8.12,3.25L34.27,219Zm78.17-.41c-3,1.16-3.74,2.12-3.28,3s1.58.46,4.75-.87c2.36-1,3.09-.56,3.58.94,0,2.22-2.15,2.47-3.36,2.17-.52,0-.44,0,.11.73,2.45,1.94,5.45-1.86,4-4.26C117,214.89,115,214.22,112.44,215.37Zm-18.64.9c-2.46,1.94-1.58,5.44.46,6A2.1,2.1,0,0,0,96,222.2c.3-.2.3-.53-.33-.64-1.89-.33-3-1.72-2-3.14s2.53-1.11,5.7.26c2.73,1.19,4,.82,4.25-.61.14-.62,0-1.21-1.35-1.26-3.64-.19-6.06-2.43-8.43-.55Zm32.75,5.35c-.15-1-1.77,0-2.84,1.81s-1.18,2-1.39.18c-.32-2.72,2.48-4.84,4.21-4.91,2.1-.24,3.48.94,3.54,2.3a1.79,1.79,0,0,1-3.48.85h0v-.23ZM34.12,220l5.6,3.89a22.52,22.52,0,0,1,.07,3.18l-5.59-3.61Zm66.87,1.3a2.8,2.8,0,0,0,.7,5c1.79.36,1.91-.9.14-1.27a1.4,1.4,0,0,1-.94-1.73c0-.09.07-.18.11-.27.86-1.39,2.42-.49,3.33,0,2,1,3.07,1.32,3.7.65,1.14-1.19.13-3.32-1.37-2.57a1.82,1.82,0,0,1-1.57.18,6.53,6.53,0,0,0-4.1,0ZM34.2,224.6l5.48,3.78-.17,3.34-5.15-3.82Zm.11,4.6,5.15,3.7a19.77,19.77,0,0,0,0,2.88l-5.21-3.39Zm91.12.71c4.14.4,2.77,5.19-.12,3.89-.76-.58-1-.53-1.85,1.57-1.09,2.68-1.36,2.46-1.21-.64s1.5-4.83,3.18-4.83Zm-32.56.72a.46.46,0,0,1,.23.06c.28.32-.55,1.57-1.27,2.3-.51.35-1.8-.59-1.49-1a6,6,0,0,1,2.53-1.36Zm5.57,2.45-.73.1c-1.12-2.5-3.44-1.93-4.15.4l-1-.12c1-2.85,4.69-4.6,6-.38Zm20.85.57-1.25.07c-1.12-2.71-2.71-3.12-4-.43l-1-.29c1.67-3.42,4.46-3.7,6.28.65Zm-6.25-3.1c.64,0,.56.26-.1,1.18s-.73.92-1.31.48c-1-.71.54-1.61,1.32-1.66Zm6,.08a3.18,3.18,0,0,1,.43.06c1.29.32,1.87.94,1.25,1.73-.4.49-.79.68-1,.35-.87-1.44-1.35-2.18-.64-2.14Zm-19.47.86c.14.53-.28.92-.75.47a1,1,0,0,1-.34-.72.79.79,0,0,1,1,.27Zm-65.14,1.84,5.29,3.84a22.63,22.63,0,0,1,.21,3.29l-5.46-3.64Zm77.22,1.16c3.06,2.11,6.64,2.08,8.88.23.5-.41.93-.43,1,0-.32,1.48-4.21,3.37-7.25,2.3a7.46,7.46,0,0,1-4.13-2.75c-.84-1.05.5-.39,1.39.22Zm-1.29,1c4.46,3.88,8,2.8,10.7.85.39-.1.4.26.49.93.11.85-.59,1.28-2.53,1.86-3.73,1.13-8.12-.11-8.93-2.63-.09-.5-.29-1.14.24-1ZM34.2,237.9l5.37,3.71-.17,2.85-5.2-3.56Zm.08,4.36,5.07,3.46v2.37l-5-3.54Zm36.92,1.1c21.63,4.93,37,2.59,52-.08l13.33,26.35-80.33.1c5.25-8.6,9.6-18,15-26.41Z" transform="translate(-0.03 0)"/>
    <path d="M2,0V2.83H4.88v25H2v3.09h8.46V27.82H8.2V20.76L11.59,16,16.7,27.85H13.43v3.09h9.24V27.82h-2.2L13.7,12.6l6.43-9.85h2.38V0H13.34V2.83H16L8.2,14.89v-12h2.3V0ZM73.2,15.39l4,7.54v.36l2.21,4.35.33.21.51.95v.46l1.24,2v.43l5.24,9.82c4.32-1.62,39.82-4.55,53,.24l1.91-3.27h.55l3.37-6V32l1.14-1.32.16-.59,3.73-5.88v-.94l4.61-7.86Zm80.4,1.13s-2.43,4.71-3.68,6.61c-1-.81-4-.26-3.78,2.86-4.79-1.83-6,3.93-2.24,5.23-1.9,1.68-3.72-.22-5.16-1.51-1.41.36-4.33,1.4-6-1.67,0,0,.69.38,1.39.79,3.91,1.2,4.23-4.13,1.31-5a7.56,7.56,0,0,0-1.05-.14c1-4.09-5.31-5.52-5.43-.6a4.79,4.79,0,0,0-1.31,0c-3.34.61-2.58,5.56.83,5.33a4.41,4.41,0,0,1,.89,0c-.06.79-4.19,2.31-7.15-.42-1.41,1.08-3.64,2.43-6.55-.26,1.91-.08,3.75-.63,3.73-2.81a3,3,0,0,0-3.12-2.73,3.35,3.35,0,0,0-2.8-3.22,3,3,0,0,0-2.83,3.14v.08c-1.58.17-3.07,1.57-2.72,3.18.47,2.2,2.15,2.47,4.06,2.05-2.33,3.79-6.13,1.81-7.3.61-1.4,1.31-3.84,3.09-6.83.66,1.59-.28,3.37-1.22,3.07-3.47-.23-1.77-2.21-2.29-3.06-2.2a2.79,2.79,0,0,0-2.67-2.9h-.31c-2.25.22-2.13,3.1-2.1,3.12A2.77,2.77,0,0,0,90,26a2.85,2.85,0,0,0,.09.77c.65,1.72,2,2.25,4.5,1.79-2.91,2.75-4.75,1.68-6.33,1.1a3.75,3.75,0,0,1-5.2.65c4.29.21,3.61-7.45-1.49-4.67-.44-1.44-1.09-3.21-3.77-2.79l-3-5.92ZM55.2,21.41h-.66c-8.24.53-11.28,6.3-10.92,11.41a10,10,0,0,0,4.83,8c1.17.9,1.41,1.23,1.21,1.65s-.57.45-1.23-.17C39,33.23,25.75,43.9,31.62,55.67,36.2,65,49.33,62.86,52.13,52.33c.22-.83.58-1.2,1-1s.06,1.25-.16,2.9c0,6-6.15,15.36-6.49,15.67H62.63A30.78,30.78,0,0,1,56.3,52.52c0-2.2.77-1.73,1.46.76,3.16,11.4,17.53,11.3,20.85.19,3-10.35-8.4-19-16-12-1.09,1-1.84,1.19-1.85.46a6.42,6.42,0,0,1,1.93-2.15,9.52,9.52,0,0,0,3.51-7.08A10.86,10.86,0,0,0,55.77,21.42H55.2Zm58.28,2.65a1.44,1.44,0,0,1,.65.15c.66.34.79.95.38,1.83a2,2,0,0,0-.31,1c4.73,8.81,15.16,4.88,16.15.78a1.42,1.42,0,0,0-.15-.81,1.18,1.18,0,0,1,.15-1.66h0a1.28,1.28,0,0,1,1.81,0,1.3,1.3,0,0,1,.24,1.54,1.62,1.62,0,0,0-.2,1.12c2.68,6.14,8,6.6,12.49,4.18-2.05,3.72-10.06,6-13.41-3-5.35,7.31-13.9,7.17-17.72-1.08-3.46,8.44-13.9,8.64-17.75,1.63-3.46,8-11.51,6.2-13.79,1.18,7.49,5.49,12.45-.15,13.29-2.63a5.3,5.3,0,0,0-.42-.52c-1-.94-.93-2,.06-2.49a1.34,1.34,0,0,1,1.8,1.86c-.17.34-.33.41-.21.71,2.32,5.46,13.77,7,16.09-.62a1.7,1.7,0,0,0-.16-1.17,1.3,1.3,0,0,1,.43-1.8,1.26,1.26,0,0,1,.62-.2ZM80,27.16c1.8.1,1.31,1.66,1,1.78Zm67.08,1-1.11,2C145.41,29.16,145.57,28,147.12,28.16ZM141,38.27a14,14,0,0,1-1.5,2.74c-21.39-5.52-51.25-.72-52-.19L86.2,38.37c18.76-3.81,37.47-3,54.84-.13ZM11.58,37.36a5,5,0,0,0-2.08.49c-3.72,1.71-4,6-.69,9.41a6.39,6.39,0,0,1,1,1.14c0,.38-.38.31-1.28-.24-5.12-3.1-10.11.62-8,6,1.67,4.34,8.31,3.68,9.34-.93.13-.62.57-1,.76-.66a11.84,11.84,0,0,1-.81,3.94,28,28,0,0,1-1.44,3.27c-.48.85-.51,1.13-.14,1.22a47.61,47.61,0,0,0,6.32-.18A10.08,10.08,0,0,0,14,59.55c-1.16-2.44-2.06-6.66-1.5-7.14.31-.27.41-.14.83,1.11,2.08,6.18,9.78,4.69,9.63-1.86-.1-4.45-4.14-6.41-7.79-3.77-.84.6-1.07.63-1.15.17a.73.73,0,0,1,.4-.6C19,44.35,16.2,37.31,11.58,37.36Zm93.31,39.1c-2.07,8-7.06,8.85-13.11,9.82-7.48,1.21-12.36-1.53-14.64-5.73,0,0-10.7,4.07-14.6,6.44,8.12,3.75,18.86,12,24.94,21.49,2.18,2.87,2.07,2.22,2.06,8.52v18.77c3.34.5,3.52,2.82,3.34,5.43,2.69-1.2,5.28.27,5.26,2.82,0,4.7-4.59,3.42-5.54,2.91,1.48,4.14-.26,5.85-2,6.06-2.2.25-4.72-.82-4-5.56a4.5,4.5,0,0,1-5.67-2.92v0a4.74,4.74,0,0,1-.16-.65l-.08-4.79c6-11.26-1.51-20.42-8.51-23.43,0,0,2-4.12,4.53-5.28.27-.08-1.55-2.76-4.59-2.18-1.4,0-1.08,0-2.39-1.7-2.62-3.41-3.85-3.65-6.39,0C62.2,108,61.89,108,60.57,108.1s-3.69,1.09-4.18,2c-.11.21.47.43,1.22,1.33,1.11,1.28,2.78,3,2.53,4.85-5.77,2.36-15.33,12.74-5.28,26l-7.26.1-.35-47.26-5,2.84.22,37L41,134.51c.11-11.82-.07-23.61-.44-35.42L27.2,108.9l.59,55.51,1.42.3C30.27,172.27,45.1,167,46,167.64l.2,30.84L45.54,200l11.84,6.51,10.82-5.64a10.78,10.78,0,0,0,2-.55c4.5-2.39,7.85-1.85,10.3,1.65,1.5,2.16,1.76,2.48,1.76,2.48.92-6.24,6.4-8.53,11.73-6.9,3.91,1.19,9.26,5.12,10.91,9.92a5.26,5.26,0,0,0,.59,1l.23.1a9.19,9.19,0,0,0-.36-1c-5.48-12.7-20.94-14.7-23.33-4.29l-2.19-3.09,11.5-7.13,15.75,10.44c-.36,1.73-.64,3.49-.83,5.25l.27.13a11.41,11.41,0,0,0,.26-1.44,12.79,12.79,0,0,1,1.32-4.3,5.77,5.77,0,0,1,1.29-1.62c.94-.55,1.82-.5,2.77-1.4l-2.3-1.73v-5.55l4.61,6.51c1.46-.34,7.12-2,10.48-.15.37.12,5.29-1.3,8.35,5.62l14.76-6.17a5.68,5.68,0,0,0,1-.68c-14.71-5.47-29.56-24.85-28.13-25.16,0,0,0-2,.07-6.86.11-5.43,0-11,.14-16.44-5-1.61-3.76-5.68-3.76-5.68-3,.67-3.49.08-4.26-.46l-.51-5.14c1.8-1.55,2.89-1.69,5.12-1.2a5.06,5.06,0,0,1-.1-4.07,3.63,3.63,0,0,1,4.8-1.35c2.28,1.56,1.55,4.84,1.23,5.3a4.35,4.35,0,0,1,5.79,2.11l0,0a3.45,3.45,0,0,1,.14.34A134.41,134.41,0,0,1,132,118.52c2.57-11,6.75-22.48,12-31.53.85-1.51,2-3,2.83-4.44A17.84,17.84,0,0,0,148,80.48a12.89,12.89,0,0,1-2.32,1,14.26,14.26,0,0,0-3.18,1.1A17.58,17.58,0,0,1,138.2,85c-4.73,1.85-7.94-.91-9.87-5.13-1.09,5.36-6,9.89-13.15,7.07-4.06-2.17-5.34-3.56-9.13-9.22a5.94,5.94,0,0,0-1.15-1.25Zm.15.88c2.69,5.35,6.71,9.14,10.62,10.66a9.8,9.8,0,0,0,12.67-5.64q.13-.35.24-.69L129.91,84l-10.57,7.57L103.41,81.31a27.87,27.87,0,0,0,1.66-4Zm48,.37-4.74,2.81s-3.14,5.11-4.21,7a109.41,109.41,0,0,0-11.83,31.15q-1.39,7.17-2.06,14.38a86.3,86.3,0,0,0-.33,12.66l.38.41s-.59,1-1,1.89a11.68,11.68,0,0,0-1.34,6.4c.16,6.29,4,12.29,9.3,14.74l.69.31a14.26,14.26,0,0,1-2.57,4.26c-1.11,1.17-1.35,1.22-1,1.8.53.8,2.3,1.5,4.48,1.47.78,0,.78,0,2.21,1.55,2.79,3.07,3.63,3,6.17-.47a2.39,2.39,0,0,1,2.28-1.3c1.63,0,4.59-1.36,4.58-2-2-.89-4.32-5.49-4-5.53,10.92-5.83,13.24-17.92,5.26-26.8l7.62-.12.28,48.2c1.5-1,4.88-3.16,4.88-3.16l-.11-37.5a15.44,15.44,0,0,0,2.07.64l.3,35.47a11.94,11.94,0,0,0,1.86-1c4.25-2.83,12.59-9.37,12.59-9.37l-.28-54.65H183.4l.18,54.63-12.9,9.52-.08-34,1.4-.21c3.79-.53,5.54-5.39,3-8.57-.9-1.13-.26-1,1.63-1.42,3.37-.29,5.23-2.86,4.25-4.68-.41-.78.13-.7.49-1.44a3.79,3.79,0,0,0,.09-1.89,2.34,2.34,0,0,1,.36-1.57,2.53,2.53,0,0,0-.48-2.31,3.13,3.13,0,0,1-.39-2c0-1.12-.43-1.28-1.59-2.35-.88-.81-.17-1,1.12-1.66,2.05-1.06,2.19-4.8-.53-6.4-1.45-.85-4.09-.78-9.81.13-2.17.35-4.71.58-4.71.58s0-21.37-.17-32.38Zm0,.75s11.61,6.85,11.52,7c-3.9,5.39-18.45,26.86-18.56,52.82-10.67-1.35-15,7.05-15.55,7a106.35,106.35,0,0,1,18-64.15Zm-7.33,4.18v.78l-2.3,3.46-.06-3.46Zm-3.51,1.21.09,5.58L137.53,93l-.27-5.82ZM98.49,85.12l2.43,1.69-.09,5.54L97.2,85.66ZM164.86,87v4c-9.3,13.23-14.18,28.33-15.67,47.47l-2.28-.08A91.1,91.1,0,0,1,164.83,87Zm-63,.41,5.73,3.78-.22,6.33-5.17-3.42-.48-1.29Zm34.74.27v5.87l-4.4,3.29L132,91Zm-53.74,1.5c.65,0,1.18.49,1.3,1.4.48,3.91,3.43,2.78,4.14,4,.27.41-.37.76-2.39.6-3.7-.28-6.4-3.31-4.5-5.29A2.17,2.17,0,0,1,82.86,89.21Zm25.57,2.51,4.9,3.16v6.5l-4.79-3Zm22.35,0,.38,5.75L125.8,101l-.19-5.71Zm10.22,0-3.09,6.61-18,13L105,101.62l-2.76-6.39,17.4,11.45ZM92.54,94.34c4.77-.06,8.44,5,9.69,9.54.92,3,1.06,4,1.15,8.71s.24,5.61,1.14,6.29c.54.42.7.3.77-.54.16-1.88,2.38-.72,2.42,1.26,0,2.2-2.35,2.9-4.13,1.21-1-.9-1-.89-1.26.88-.19,1.18-1.56,8.62,2,10.46.65.06.81-.47.33-1.09-1-1.24,1-2.67,2.58-1.88,1.92,1,1.73,4.09-.33,5.21-2.36,1.27-5.42-.18-6.84-3.25-1-2.26-1-5.41,0-10a29.85,29.85,0,0,0,.81-5.15,8.21,8.21,0,0,1,.15-1.31c.07-.43-.14-.52-1-.09-2.31,1.17-4.83.34-5.45-1.81-.74-2.56,2.1-5.21,3.84-3.59.67.61.59,1.23-.21,1.62-1.38.68-.9,2.48.56,2.13,4.82-1.46.42-15.11-5-16-3.6-.62-6.42,3.51-3.81,5.72,1,.86,2,.4,1.82-.82-.31-1.71,2-1.52,2.77.22,1.35,2.84-2.13,5.15-5.4,3.58-5.88-3.48-1.87-11,3.42-11.17Zm21.66,1.09L119,98.69V105l-4.81-2.86Zm10.6.6v5.82l-4.6,3.36V99Zm12.51,3.84-2.38,6.67-15,10.33L107.56,109l-2.17-6.14L120,112.41ZM40,100.35v33.8c-4.86.2-7.65,5-4,9.62l-1.38.19c-3.28.46-5.48,2.21-5,4.34a2.55,2.55,0,0,1-.19,1.63,2.69,2.69,0,0,0,.18,2.3,1.19,1.19,0,0,1,.08,1.27,2.48,2.48,0,0,0,.12,2.39c.54.53.39,1,.32,1.83-.09,1.22.13,1.7.88,2.17,1,.61,1.34,1.6.23,1.52-.55,0-2.48,1.84-2.48,1.84L28.53,109Zm26.36,4.34c.87,0,1.77,1.1,3,3,.78,1.33.79,1.15,2.57,1.08,1.81.14,3,.62,3.39,1.17.18.21-.29.27-1.44,1.44a11.9,11.9,0,0,0-2.15,3.06.66.66,0,0,1-.88.34h0a.65.65,0,0,1-.28-.24c-.24-.36.37-1.54,1.49-2.93,1.6-1.55,1.26-1.7-1-1.46-1.63.17-1.81.09-2.43-.9-1.83-3.7-2.82-3.57-4.58.11-.48,1-.29,1-2.38.8-1.64-.13-2,.29-1.12,1.16a7.38,7.38,0,0,1,1.93,4l-1.11.1a9.33,9.33,0,0,1-.5-1,10.63,10.63,0,0,0-2-3c-1.26-1.36-.57-2.11,2.23-2.41,1.56-.17,1.6-.19,2.31-1.25,1.24-1.88,2.09-3,3-3Zm68,3.36-1.62,5.82-12.8,9-10.4-7-1.3-5.47L120.07,118ZM90.2,112.56a88,88,0,0,1,5,12c1.16,4.11,2.78,16,2.36,16.69-.92-1.26-3.91-1-4-1a4.55,4.55,0,0,0-3.42-4.74Zm42.1,2.66L131,120.89l-10.92,8-9-6.2-1.18-5.49,9.92,6.7ZM69,115.53l1.41.5.24,10.27,10.92,1.85.25,1.75L69.2,127.83c-.14-4.37-.21-12.27-.21-12.27Zm-5.53.31.3,11.92c-.11,0-9.08,1.26-12.52,2.17l.21-1.63s6.23-1.38,10.74-1.91V116.16ZM164.87,118a19.22,19.22,0,0,0,4.66-.42c8.19-1.44,10.4-.86,11.44,1.68,1.14,3.94-3.15,4-3.91,1.53-.49-1.62-2.24-1.26-8.11.14-5,1.2-8.19.24-8.13-2.62s3.4-3.18,4-.28Zm-67.23-2.15a1.85,1.85,0,1,1-1.8,1.9h0a1.85,1.85,0,0,1,1.8-1.84Zm-26.58.32,1.3.39s.18,7.78.22,7.79c2.78.61,8.62,1.72,8.62,1.72l.31,1.55c-2.44-.58-10.23-1.88-10.23-1.88-.24-3.34-.22-9.54-.22-9.54Zm-9.43.15s0,6.2-.09,9.53c0,0-6.62,1.08-10,1.78l.26-1.24c2.68-.62,5.58-1.23,8.52-1.85-.06-2.44-.06-7.79-.06-7.79Zm4.76,1.33a1.49,1.49,0,1,1-1.49,1.49v0A1.49,1.49,0,0,1,66.39,117.69Zm110.68,3.87a2.17,2.17,0,0,0,2.56,1.18c-.23.07-1.28.7-1.22.9s-.44,1.81.28,1.88c2.72.27,1.34,3.13,1.67,3.56.73.85,1.27,1.38.76,2.43s-1.08.91-.59,1.7c1.09,1.64-.41,2-.27,3.1a4.85,4.85,0,0,1,.08,2.11C179.59,140,177,140.9,174,141c-.4,0-.1-.67-.28-1.1-.73-.46-.33-1.24-.09-1.74.23-.67.24-.67-.21-1-1.24-.77-1.17-1.13-1.07-1.7.26-1.66,0-1.83-.49-2.07s-.55-1-.27-1.92c.2-.62.06-.78-.24-1.34a1.8,1.8,0,0,1-.24-.73c.09-.86-.67-.86-1.74,0-.91,1.57-1.22,3.64-1.79,4.95-.44,1-.51,2.05,0,4.36,1,3.54.26,4.13-3.69,3.37-3-.73-3.85-3.93-3-7.84a5.64,5.64,0,0,0,0-1.74,8.18,8.18,0,0,1,2.23-7c3.11-3,4.65-3.4,11.09-3a9.92,9.92,0,0,1,2.71.34,7.26,7.26,0,0,1,.08-1.23Zm-46.34.81-.75,5.5-6,4.3c-2.85-2.26-5-1.51-7,.92-1.59-.81-4.76-3-4.76-3l-.79-6.26,8.78,6.16Zm-64.21,1.31a1.5,1.5,0,0,1,0,3A1.47,1.47,0,0,1,65,125.22h0a1.5,1.5,0,0,1,1.46-1.47Zm63.2,5.63-.34,5.28-2.18,1.65L125,136l-.51-3.28Zm-63.24,0A1.5,1.5,0,1,1,65,130.82h0a1.49,1.49,0,0,1,1.49-1.51h0Zm6,.17a2.85,2.85,0,1,0,0,.07Zm-11.81.37a1.49,1.49,0,1,1-1.47,1.51h0a1.48,1.48,0,0,1,1.42-1.52Zm109.41.24c.42,0,1,.59.74,1.51a2.17,2.17,0,0,0,.54,2.28c.67.86.47.83.38,1.29-.13,3,1.83,1.73,1,4a4,4,0,0,0,.15,1.74c-.19-.52-3.77-.47-4.08.06-.51-.08-1.16-3.47-.64-3.92a4.1,4.1,0,0,1,.63.91c.48.82.59.79.44-.16-.62-3.81-.26-7.66.85-7.68Zm-91.69.27a1.48,1.48,0,1,1-1.45,1.51h0a1.46,1.46,0,0,1,1.4-1.52h0Zm-23.82.27a1.48,1.48,0,1,1-1.45,1.51h0a1.46,1.46,0,0,1,1.44-1.5Zm57.63.42,4.41,2.88a10.27,10.27,0,0,0,.25,2.65,5.2,5.2,0,0,0-4.33,1.38ZM67,133.43a45.2,45.2,0,0,1,13.89,2.22l-.34,1.57a55,55,0,0,0-27.67.1l-.73-1.64A48.58,48.58,0,0,1,66,133.43Zm-27.29,2.11a4.4,4.4,0,0,1,3.48,1.51c1.72,1.93.89,5.51-1.53,6.64a4.32,4.32,0,0,1-5.76-2.07l0,0a4.4,4.4,0,0,1-.06-3.59,4.18,4.18,0,0,1,3.91-2.46Zm89.52.45v1.57l-1.11-.92Zm-23,.06a2.92,2.92,0,1,1-2.83,3h0a2.91,2.91,0,0,1,2.82-3Zm-66.42.1a2.21,2.21,0,0,0-1.33.44c-.78.71,0,.73,1,.92,1.81.33,2.3,1.9,2.13,3.59-.15,1.54.37,1.52.79,1a3.72,3.72,0,0,0-.77-5.19,3.62,3.62,0,0,0-1.84-.7Zm83.8.77h0Zm-57.07.91c2.16,0,2.39,3.53.48,7.53-.57,1.2-.87,1-1.49-.76q-2.36-6.69,1-6.76Zm5,.1a1.39,1.39,0,0,1,1.15.52c1.16,1.33.27,3.49-2.83,6.81-.75.81-1.14,1.12-1.42,1.13-.77,0-.76-.12.11-3,.39-1.27.78-2.67.86-3.1a2.65,2.65,0,0,1,2.17-2.35Zm-7.81,3.22c.22,1,.5,2.06.82,3.06a5.34,5.34,0,0,1,.35,1.47c-.19.53-1.57-.19-2.55-1.34-2-2.32-2.77-4.34-2.36-5.42.59-.87,2.13-1.26,2.85-.5A5.53,5.53,0,0,1,63.7,141.15Zm13.64-2.31c2.09,1.24-.32,4.08-5,6.43-2,1-1.86.55-.34-1.43a20.22,20.22,0,0,0,1.77-2.79c.85-1.64,1.65-3.31,3.57-2.21Zm-20.85,0c.67,0,1.35.71,2.61,2.55a27.76,27.76,0,0,0,2,2.58,4.24,4.24,0,0,1,1,1.34c-.21,1.29-6.73-2.79-7.21-4.5a1.7,1.7,0,0,1,1.38-1.95h.21Zm93.31,3.73c1.18,2.44,1.28,4,.31,4.51a2.26,2.26,0,0,1-3-1.13v0a2.29,2.29,0,0,1-.2-1,17.46,17.46,0,0,0-1.15-3.94c-.44-1.08-.5-1.75-.14-1.81,1.46.24,3.59,2.26,4.19,3.4Zm-7.8-1.84a20.08,20.08,0,0,0-.93,4.2,3.76,3.76,0,0,1-.33,1.13c-1.19,2.47-4,.45-3-2.13.93-2.34,3.32-4.77,4.26-4.85.65,0,.1,1.45,0,1.66Zm1.91-1.34c.46,0,.86,1,1.46,2.74.83,2.36.8,4.2-.09,5-1.9,1.68-3.9-.76-3.13-3.82.62-2.47,1.23-3.86,1.77-3.91Zm-63.71.45c2.4,35.08-15.47,62-16.76,62.82L57.38,206l-10.65-5.84a92.52,92.52,0,0,0,18.13-53A16.48,16.48,0,0,0,80.2,139.84Zm58.56.11c.75-.2.23.45-.51,1.52s-1.81,4.26-2.62,4.76c-1.82.88-3.88-.8-2.78-2.26a14.79,14.79,0,0,1,5.86-4Zm10.84.24a4.53,4.53,0,0,1,1.59.57c3.79,1.86,5.67,4.33,4,5.5-1.14.83-2.35.19-3.49-2a21.88,21.88,0,0,0-1.64-2.42c-.82-1.12-1-1.66-.55-1.66Zm21.32,1.25a4.45,4.45,0,1,1-4.35,4.55v0h0a4.42,4.42,0,0,1,4.3-4.51Zm-1.34,1.15c-2.87,1.28-2,5.82.46,6.47,1,.3,2.32-.14,1.79-.65-3.27-1-3.29-3.45-2-5.23.18-.29-.1-.69-.31-.6ZM50.05,148.84c-.11,2.56.44,5.54-.77,8.33-1.85,4.28-7.77,6.24-10.92,5.86a2.79,2.79,0,0,0-2.08-.25,1.77,1.77,0,0,1-1.3-.05c-.4-.19-.78.05-1.18-.09-.46-.31-1.2-1-1.11-1.54.14-.75.08-1.3-.79-1.54-1.19-.34-1.43-1-1.08-2.91.08-.42.17-.6-.1-.78a2.14,2.14,0,0,1-.63-2.86c.38-.66.66-1.14,0-1.67-.27-.61-.22-.84.36-1.62s.71-.82.32-1.45c-.88-1.43.12-2.47,1.31-3.06a16.79,16.79,0,0,1,4.68-1.2c.62,0,.6.59,1,1.13.56.87-.23,2.13.22,2.57a1.47,1.47,0,0,1,.9,1.43,3.35,3.35,0,0,0,.38,2.13,2.67,2.67,0,0,1,.16,2.29c-.3.62-.27.58.12.94a3.62,3.62,0,0,1,.44,2.16l1.64-.15a16.16,16.16,0,0,1,2.49-6.19c-.1-2.17-.93-4.17-.85-7,4.05-1.46,7,2,6.82,5.56ZM113,144a12.68,12.68,0,0,0,3.6,1.18,5.14,5.14,0,0,0,3.78,5v21.92c-4.21-7.12-6.82-16.32-7.38-28.16Zm-70.47.63a9.85,9.85,0,0,1,.3,1.53c.26,2,0,2.33-.56.92-.63-1.64-.67-.36,0,3.4a2.45,2.45,0,0,1-.06,1.73c-.14.39-.39,1.28-.58,2-.56,2.07-.9,2.67-1.49,1-.29-.84-.54-1-.33-1.63a2.3,2.3,0,0,0-.33-2.23,2.13,2.13,0,0,1-.32-1.28c.17-1.9-.67-1.92-.84-2.41,0-.75-.32-2.55.2-2.5a8.15,8.15,0,0,0,2.65-.19c.31-.12,1.31-.34,1.31-.34Zm62.83.24a2.86,2.86,0,1,1-2.8,2.92v0a2.86,2.86,0,0,1,2.8-2.9Zm-43.76,1.74,2.14.41c.48.16.13,30-17.06,51.57l-.15-5c8.15-12,14-26.58,15-47ZM98,147.2l.39,7.12c-1.21-1-4.29-3-4.26-3v-2.64s2.64.2,3.86-1.47Zm-16.56.09a7.09,7.09,0,0,1,1.41,1.09l-1.4,1Zm49.21.36a53.42,53.42,0,0,0,27.44.67l.62,1.74a50.17,50.17,0,0,1-29.22-.59ZM85.73,149l.47,3.06L81,155.46l.26-4.66L84,149.05Zm46.33,2.56a1.53,1.53,0,0,1,1.55,1.5h0a1.53,1.53,0,1,1-1.58-1.54Zm23.83.12a1.55,1.55,0,1,1-1.5,1.6h0a1.56,1.56,0,0,1,1.47-1.59Zm-44.69,4.8c.68,2.46.53,8-.35,11.69a51.07,51.07,0,0,0-.43,5.1c-.16.21,5.25-4.51,7,1.68.6,2.13-1.83,4.15-3.46,3.56-.32-.11-.22-1.17.08-1.79.9-1.85-1.67-2.82-3.14-1.17-3.39,3.79.1,13.41,5.41,14.35,4.42.77,7.94-3.66,5-6.31-1.29-1.15-3.35.44-2.41,1.91s-.84,2.2-2.24.74c-2.45-2.54.3-6.36,4-5.48,6,1.36,4.69,10.68-1.5,11.21a9.59,9.59,0,0,1-9.93-5.38c-1.88-3.55-2-6.37-1.16-12.59.51-3.68.09-6.79-.93-6.77a1,1,0,0,0-1.08.9h0c-.18,1.35-.33,1.61-1.18,1.11a2.4,2.4,0,0,1-.63-3.31,2.26,2.26,0,0,1,.72-.69c1.79-1.4,4.1.78,4,1.15a6.61,6.61,0,0,0,.46-2c.79-5.15-1-10.61-3.1-9.73-.46.19-.41.4.2.75,1.43.81.17,2.9-1.62,2.69-2.54-.3-3.11-3.88-.88-5.46,3.53-1.92,6.39,1.08,7.16,3.78Zm-17.34-4.29s4.5,2.77,4.74,3.48c.16.46.34,4.45.34,4.45l-7.82-5-11.21,7c.19-1.53,1-5.49,1-5.49l6-3.81c0,.19,4.14,3,7-.72Zm56,.27a1.55,1.55,0,1,1-1.5,1.6h0a1.56,1.56,0,0,1,1.48-1.59h0Zm-11.91,0a1.55,1.55,0,1,1-1.51,1.59h0a1.57,1.57,0,0,1,1.5-1.57Zm6,.35a1.55,1.55,0,1,1-1.51,1.59h0a1.52,1.52,0,0,1,1.5-1.53ZM129,155c4.06.85,8.13,1.73,12,2.16l.16,12-1.14-.07-.16-10.75a60.14,60.14,0,0,1-10.64-2Zm30.19.39-.23,1.47s-7,1.24-10.69,1.72c-.06,2.42,0,10.51,0,10.51l-1.41.26V157.06c4.17-.46,8.33-.94,12.37-1.65Zm-67.94.67,8.27,5.52,1,5.84L90.83,161l-12,8.12,1-5.5Zm38.17,1.1a82.54,82.54,0,0,0,10,1.7l.14,9.69-1.53-.41-.12-7.86a71,71,0,0,1-7.94-1.31Zm29.46.28-.29,1.33s-5.32.81-8.07,1.31c-.25,0-.16,8.52-.16,8.52l-1.31.2-.16-9.88Zm-14.89,1.1a1.53,1.53,0,0,1,1.56,1.5v0a1.54,1.54,0,0,1-3.07.3v-.24h0a1.53,1.53,0,0,1,1.46-1.57Zm-52.88,3.53,9.77,6.65a39.6,39.6,0,0,1,1.37,5.35L91,166.74l-14.08,9.4,1.63-5.81Zm-59.25.2a1.61,1.61,0,0,1,1.45,1.3c.43,1.27,1.22,1.64,3.3,1.6,4.09-.22,8.38-2.16,12.24-.7,1.88.69,2.54,3.48,1,4.21s-2.43.29-3-1.06c-.54-.57-1.23-.48-4.89.15-1.62.27-3.51.5-5.11.63-4.09.34-6.34-1-6.86-3.41a2.24,2.24,0,0,1,1.64-2.69h.17Zm112,2.25a1.5,1.5,0,1,1-.05,0Zm-30,1.88a2,2,0,1,1-2,2,2,2,0,0,1,2-2h.07ZM91,167.8l11.76,7.92,2.06,6-13.7-9-16.77,11,2-6.13Zm58,1.86a15.44,15.44,0,0,0,3.45,5s-.77,1.49-3.55,1.4c-1.52,0-1.61.2-2.13,1.23a11.21,11.21,0,0,1-2.09,2.61c-1,.75-2.8-.38-4.31-2.67-.54-.84-.77-1-2.43-1-2.53,0-3.45-.66-2.13-1.81,1.15-1.41,2-3,3-4.44l1.14.13a9.54,9.54,0,0,1-2.2,4.18c-.67.76.27,1,1.9.68,1-.31,1.3-.19,2.06,1.41,1.6,3,2.43,2.9,4.33-.19.66-1.38.64-1.51,2.46-1.12,2,.2,2.54,0,1.74-.73-1.63-1.39-2.52-4.66-2.52-4.66Zm-58,4.08s14.55,9.6,14.51,9.39l2.92,6.94-17-11.46L70.65,192.27l3.12-6.86Zm.55,6.3,5.07,3.37v6L91.43,186Zm-1.3.18.1,6-4.49,2.64-.25-5.61Zm-5.74,3.84v.23h.1l.17,5.4-5.24,3.66v-6.09Zm13.4.06,4.76,3.22.2,6.41-5.17-3.41Zm5.88,3.92,4.79,3.36.17,6.39-4.9-3.31Zm-25.31,0V194l-4.76,3.35-.22-6Zm50.34,7.64c-1,1-1.29.87-2.11-.77a4,4,0,0,0-3.92-2.46c-2.3,0-.79-1.48,1.64-1.66,4.26-.17,6.4,2.68,4.43,4.91Zm-56.43-3.47.13,5.93-4.73,2.48-.15-2.81,2.44-4.3Zm-6.1,7.86.17,1.08-.88.34Zm81.75,14.87c.6.41,6,8.38,6.44,17,.21,2.27-.78,2.71-1.26.54a12.67,12.67,0,0,0-5.85-8.21c-14.41-5.39-20.58,12.85-11.07,20.23,3.39,2.47,9.93,2.19,12.2-1.22.72-1.06,1.43-1,1.53-.29,0,.33-.12.56-1,1.36-3.57,3.22-5.7,7.78-4.57,11.13a12.68,12.68,0,0,0,10.34,8.19c5.08.75,10.36-2.85,11.92-7.53,1.43-4.3.17-7.92-3.79-11.53-1.85-1.7-2-1.84-1.56-2.24s.61-.3,1.53.6c2.84,2.76,8.14,4.25,11.63,2.62,5.59-2.6,8-11.37,4.17-17.11-2.31-4.66-8.62-6.4-13.9-3.82a12.16,12.16,0,0,0-6,7.8c-.33,1.44-1.16,1.71-1.29.4.4-5.23,1.13-8.65,6.82-17.88Zm48,9a33,33,0,0,1,2.39,6.6c.23,1.67.26,2.35-.2,2.36-.14,0-.49-.8-.63-1.44-1.12-5.18-8.59-5.1-9.67.08s3.62,9,7.75,5.72c1.7-1.17,1.78-.63.1,1.08-3.23,3.26-1.81,7.84,2.26,9,5.53,1.66,8.93-5.14,4.24-9.47a6.54,6.54,0,0,1-1.14-1.37c0-.33.4-.36.73,0,2.69,2.84,8.12,2,8.93-1.69,1.56-6.84-7.22-9.77-9.64-3.65-.58,1.53-.49,1.74-.8,1.44s-.12-.8.07-1.65a60.67,60.67,0,0,1,2.84-7Zm-72.69,18.92c-19.93,4.29-39,2.77-52.75.22l-6.28,10.79h-.42l-1.62,2.79.18.32s-5.23,10.11-7.43,13.29c25.62-.25,81.85-.38,81.85-.38l-3.43-7,.19-.18-3.38-7.25-1.1-1.24A26.2,26.2,0,0,1,128,251.5c-.46-1.29-2.45-4.84-2.45-4.84h-.28Zm-52,1.51c.27.22,25.53,5,51.72.08l1.44,2.42c-22.92,5.31-56.09.24-54.78-.26Zm.44,4.75a7.72,7.72,0,0,1,6.23,3.25,19.17,19.17,0,0,1,1.26,2.72,13.29,13.29,0,0,1,2.25-2.81,9.53,9.53,0,0,1,6.84-2.45c2.84.1,6,1.64,8.77,6.12.72-2.58,10-11.34,17.7-.41.87-2.91,5-8.71,11.62-4.66.46,1,.93,2.05.93,2.05-4-2.76-10.4-.91-11.91,3.42a1.82,1.82,0,0,0,.23,1.31c2,2.91-3.23,2.84-1.67.49a1.43,1.43,0,0,0-.15-1.68c-1.23-1.86-5-4.19-7.68-4.13-3.14.07-6.63,2.18-7.79,4.09a1.88,1.88,0,0,0-.15,2A1.2,1.2,0,0,1,98,260a1.23,1.23,0,0,1-1.92-1.46c.34-.58.29-1.3-.42-2.29-1.41-2-4.69-4.11-7.56-4-4.1.1-8.24,3.08-7.94,5.53.11,1.08-.18,1.48-1,1.35-1.06-.15-1.19-1.16-.43-2a1.48,1.48,0,0,0,0-1.36c-4.33-5.91-10.81-4.19-12.29-2.87a6.62,6.62,0,0,1,5.44-3.76ZM68,253.22a5.2,5.2,0,0,1,4,2.22c.4-.42,4.07-2.18,5.86.34-4.68-.36-4.74,4.64-1.29,5.12-1.56,4.83,5.49,5.12,5,.59,5.28.78,4.62-6-.34-5.24,2.6-1.91,4.37-1.3,7.49.89,1.06-1.38,5.35-2.67,6.4-.26-5-.3-4.07,5.43-.41,5.48-1.09,4,6.13,5.44,5-.5,4.58.32,4-5.91-.47-5.4.32-1.13,4.78-1.62,6.75.55,1.81-1.67,3.81-2.81,7.42-.43-5-.83-5,5.61-.42,5.22-.42,4.27,6,4.34,5-.58,5-1.34,2.22-6.65-1.39-5.19,1.61-1.92,4.34-1,5.42-.62,3.34-3.87,6.26-.63,6.26-.63-5.82-.62-4.55,7.75,1.12,4.71a3.1,3.1,0,0,0,2.7,3.44h.35l2.76,5.75-78.11.52,4.31-7.64a2.82,2.82,0,0,0,3.38-2.12h0a2.32,2.32,0,0,0,.07-.46c5.14,1.64,5.48-4.38,1.65-5.33A2.52,2.52,0,0,1,68,253.2Zm120.93.72v2.93h2.29l6.56,14.7-6.3,10.31h-2.4v2.62h9.11v-2.62h-3l8.35-12.14v12.14H201v2.62h8.2V282h-2.73V256.92h2.73v-3h-8.32v3h2.52v7.42l-3.55,4.58-5.32-12h3.55v-3Zm-124,1.43c.52.83.09,1.37-.79,1.39a8.81,8.81,0,0,0,.75-1.34Zm64.27,1.07.5,1.07c-.58-.18-.65-.42-.54-1Z" transform="translate(-0.03 0)"/>
  </g>
</svg>
