<svg xmlns="http://www.w3.org/2000/svg" viewBox="0 0 211 284.5">
  <defs>
    <style>
      .a {
        fill: #d40000;
      }

      .b {
        fill: #e2cf00;
      }

      .c {
        fill: #131f67;
      }
    </style>
  </defs>
  <title>cq</title>
  <g>
    <path class="a" d="M113.16,268.77c.53-7.92.08-16.42.43-22.86-.25-.46.63-1.71.68-1.71a8.74,8.74,0,0,1,0-5.58c5.15-19.73,14.48-35.1,24.1-49.43,7.81,23.68-16.73,40.29-21.85,61-1.73,7.16-1.47,12.17-2.12,18.63Zm-40.81.29L43.14,223.77l6.35-3.11,30,48.3Zm37.73-84c.26,1.3,1.27,2,2.35,1.4s1.18-.62.53.41a2.12,2.12,0,0,0,.4,3l0,0a2.11,2.11,0,0,0,2.94-.44h0a1.72,1.72,0,0,0,.17-2.38c-.68-.65-.83-1,.18-.49,2.55,1,4-2.68,1.49-3.93a2.44,2.44,0,0,0-2.35.45c-.57.59-.65.39-.5-.07a11,11,0,0,1,.37-1.24,7.12,7.12,0,0,0,.29-1h-2.62s.21.6.43,1.1.28.83.38,1c.35.71-.07.45-.78-.08a2,2,0,0,0-2.82.24l0,0-.11.15a3,3,0,0,0-.31,1.89Zm3.76-36.94,5.62-.17,6.17,17.13c-5,8.24-6.27,17.54-.53,27H107.27c4.21-14.13,4.85-29.17,6.57-43.88Zm5.87,22.28a2,2,0,0,0,.17-2.72c-.87-1-.67-1.08.48-.41,1.68,1,3.28-1.13,2.29-3a2.19,2.19,0,0,0-3-.69,2.88,2.88,0,0,0-.39.3c-.64.87-.56.07-.07-1.08.18-.43.44-1.23.44-1.23l-2.72.06s.36.77.55,1.27c.49,1.31.51,1.73-.25.89a2.09,2.09,0,0,0-2.94-.18l-.06.06a2.11,2.11,0,0,0-.67,1.74c0,1.55,1.41,2.55,2.63,1.82.75-.44,1.08-.54.24.47a2.13,2.13,0,0,0,.4,2.76,2.37,2.37,0,0,0,2.94,0Zm-37.59,5.34c.21-.16.29,0,.15.17s-.42.49-.65.72c-1.27,1.42.38,3.23,2.42,3,1.39-.19,2.21-2.4,1.18-3.27a3.21,3.21,0,0,1-.85-.56c0-.13,0-.21.17-.16a8.37,8.37,0,0,1,.73.43,2,2,0,0,0,2.6-1.09h0a2.7,2.7,0,0,0-.86-2.8,2,2,0,0,0-2.68.54c-.71,1-.8,0-.23-1.26a6.85,6.85,0,0,0,.37-1.19l-2.5.13s.13.55.34,1.17c.56,1.42,1,1.83.25,1.09-3.06-1.81-4.07.66-4.12,1.64-.09,1.84,2.57,2.88,3.67,1.51ZM94.34,148h4.52c-3.41,18.19-10.38,33.43-22.11,43.93l-22-.07-10.64-7.48L48.23,179c28,3,40-11,46.19-31ZM74.07,190.12a2,2,0,0,0,1.3-2.5,2.11,2.11,0,0,0-.3-.6c-.79-.91-.87-1.2.34-.49,1.62,1,3.19-.94,2.4-2.8A2.13,2.13,0,0,0,75,182.8l-.32.2c-1,.74-1,.41-.46-.76a9.24,9.24,0,0,0,.51-1.45H71.91a8.82,8.82,0,0,0,.41,1.12c.45,1,.62,1.51.4,1.51a2.26,2.26,0,0,1-.64-.5,2.4,2.4,0,0,0-2.61-.07c-1.66,1.59-.73,4.38,1.38,3.86,1.36-.33,1.67-.85.54.44C70,188.71,72.11,191,74.07,190.12Zm-17.44-.56a1.85,1.85,0,0,0,1-2.38,1.35,1.35,0,0,0-.17-.34c-.64-.86-1-1.41.19-.64,1.52.77,2.85-.25,2.83-2a2.16,2.16,0,0,0-2.23-2.09,2.1,2.1,0,0,0-1.33.51,2.57,2.57,0,0,1-.62.36c-.18,0,.15-1,.52-1.63.15-.28.43-.85.43-.85l-2.76-.11a9,9,0,0,0,.37,1.35c.44,1.17.55,1.57-.23.89-2.07-1.94-4.29.54-3.41,2.69a1.76,1.76,0,0,0,2.33.86,2.34,2.34,0,0,0,.39-.25c.75-.59.36.19-.15.82-1.42,1.71.65,3.82,2.79,2.81ZM182.92,144l.14,3.36-35.79,29.95-1.5-2.31ZM50,150.27c5.16-3.69,10.93-10.3,16.53-13.74C70.65,146.06,61,155.42,50,150.27Zm94.45-2.43C139.27,130,163.72,131.16,160.65,135ZM28.26,136.17l35.39-28.95,1.62,2.43L27.92,140.4Zm96.92-29.26c.1.31,1.17,1.46,1.17,1.56-.31-.22-2.12-1.24-3-.25a3.47,3.47,0,0,0-.66,2.13A2.11,2.11,0,0,0,125.2,112a2,2,0,0,0,1-.53c.38-.31.7-.7.78-.57a3.34,3.34,0,0,1-.31,1.12c-.2.45-.9,1.4-.39,1.4h2.51a5.49,5.49,0,0,0-.39-1.25c-.56-1.23-.54-1.89.14-1,1.32,1.72,3.88.29,3.61-1.78a1.93,1.93,0,0,0-2-1.84,2,2,0,0,0-.79.22c-.12.08-.48.43-.53.44a6.13,6.13,0,0,1,.48-1c.82-1.56-.4-3-2.24-2.85a2.63,2.63,0,0,0-1.26.48A2.07,2.07,0,0,0,125.18,106.91Zm30.55-14.55a60.5,60.5,0,0,0,10.63,7.77l-3.31,5.32c-22.64-2.12-39.1,6.89-46,31.29l-3.74.72c1.4-15.22,6.48-30.31,21.47-45.07ZM134,96c0,.72,1.32,1.58,1,1.78-.13.07-.91-.62-1.28-.65-2.61-.28-3.15,3.81-.57,4.27a3.28,3.28,0,0,0,1.88-.49c.42-.34.71-.62.78-.59a3.38,3.38,0,0,1-.48,1.33,13.54,13.54,0,0,0-.63,1.47,7.22,7.22,0,0,0,3,0s-.27-.86-.53-1.5c-.35-.83-.42-1.36-.19-1.31s.21.29.42.47a2.21,2.21,0,0,0,3.11-.09l0,0a2.18,2.18,0,0,0,.54-1c.46-1.64-1.47-3.32-2.83-2.4-.47.31-.47.07,0-.64a2.18,2.18,0,0,0-.06-2.23c-1.4-1.48-4.22-.4-4.15,1.6Zm21.33,4.85c-.07-.37,0-.26.4.13a2.19,2.19,0,0,0,3.08.36,2.07,2.07,0,0,0,.69-1c.52-1.65-1.08-3.54-2.47-2.89-.71.34-.72.22-.31-.32,1.06-1.39-.11-3.22-1.94-3.2a2,2,0,0,0-2.1,1.89A2,2,0,0,0,153,97c.33.57.22.69-.35.41-1.71-.84-3.31,1.88-2.06,3.5a2.41,2.41,0,0,0,3.41.1h0c.51-.5.5-.26.12.78a14.25,14.25,0,0,1-.68,1.62h3a14,14,0,0,1-1-2.51ZM92.12,137.34s-4.39-12.27-5.85-18.15c3.24-7.83,7.69-15.42.22-26.68h18.17c-5.61,12.8-5.73,45.1-7,45.17ZM93.7,123a5.51,5.51,0,0,1-1-2.25c-.1-.64.06-.68.4,0,1.62,1.8,3.8.06,3.81-1.52.19-1.46-1.51-2.71-2.59-2-.77.51-1,.37-.29-.58a2,2,0,0,0-1.76-3.06c-2.22,0-3.07,2.12-1.48,3.62,1.19,1.1.08.45-.86,0-1.83-.77-3,1.1-2.2,3a1.92,1.92,0,0,0,2.5,1.06h0a1.8,1.8,0,0,0,.68-.48c.54-.57,1-.9.75,0a13.34,13.34,0,0,1-1,2.21Zm2.82-19.67a7.39,7.39,0,0,1-1.25-2.37c-.07-.38.2-.29.81.24,2,1.68,4.64-1.34,2.82-3.19a1.57,1.57,0,0,0-2-.43c-.9.48-.83.24-.38-.25a2,2,0,0,0-.1-2.7c-2-1.78-5.13.88-3.28,2.78.8.83.41.72-.47.18-1.67-1-3.52,1.76-2.26,3.38,1.49,1.26,2.6.65,3.63-.15.23-.12.42-.17.42-.08s-1,2.62-1,2.62ZM72.69,95.67c-1.1-.08-1.89-10.5-.53-13.79C75,68,83.85,57.88,89.33,49.32c8.81-12.69,7.72-33.76,8.09-32.95l1.25.14s-1,12.36-.42,18c.57,4.92.45,5.22.09,5.71a16.89,16.89,0,0,0,0,2.25c-4,18.18-13.27,36.86-22.93,51ZM163.27,64,133.48,16.77l7.15-.65c2.65,4.23,28.5,44.51,28.5,44.51Z" transform="translate(-0.01 0)"/>
    <path class="b" d="M40.78,269.86c3.38-12.47-5.78-41.45-11.51-45.23,6.71-.29,14.79-.17,14.54-.8,0,0,28.56,45.14,28.33,45.38S40.78,269.86,40.78,269.86Zm115.73-70.71c-7-1-4.2-6.76.26-7.36-.59.09.47-2.88,4.06-4.07.81-1.49,1.45-4,2.19-5.21-2.14.7-4.75,2.53-14.53,1.09.85-4.65,10.2-5.45,13.57-4.73,2,.46,3.87,3.38,4.47,3.44,5.95-1,13.63,4.45,11.32,10-.36.79-1.27-.94-3.29-1.68-6.52-2.37-6.95-5.93-8.49-7.52-.56-.11-3.44,5.64-3.44,5.64l.91,3.9c1.56-.14,8.53,4.18-.14,7.11-2.4,8.3-7,2.44-6.89-.6Zm16.4-37.06c-.38-.38.29-3,1.17-4.44a2.5,2.5,0,0,1,2.21-1.23c1.15.2,1,1.86-.55,6.77C175.68,163.89,174.13,164,172.91,162.09ZM35.1,127.77c-1.9,0-.2-5.2,1-6.85.39-.5,1.9.58,2,1.34C38.19,123.59,36.13,128.3,35.1,127.77Zm-1.35-35.3c2.32.57,6,2.92,7.72,4.2,2.18,1.63,1.58,4.84,3.32,5.12C46,101.21,48.14,96,48.14,96s.53-2.69-1-3.53c-3.82-2.06-3.75-4.29-3.51-4.49,1.13-3,3.4-2.42,4.61-2.59,0-1.61,0-5,3.29-4.66,2.9.28,3.19,4.44,2,4.48,0-.07,5.49-.79,5.44,2.87,0,2-3.31,4.52-4.32,3.59,0,0,.55,4-4.4,5.31-1.15,1.18-2.09,6.21-2.09,5.76,3-2.7,7.64-3.33,15-2.36C58.6,108.83,46,104.86,45,103.21c-6.38-1.93-12.33-4.44-11.25-10.75ZM88.08,72.08c6.72.62,14.06-1.49,19.64-.38.64.09,1.32,1,1.71,1.24,2.88,1.59,6,1.1,10.55-.67,1.15-.44,22.43-.27,22.43-.27,4.86,7.2,13.46,20.77,13.65,20.28,0,0-11.8-.13-17.24.19-3.81.23-1.57.76-4.22.87-18.59,14-22.14,44.43-22.14,44.43s6-1.57,7.46.08c7.31-21.51,21.19-31.32,40.54-29.41,8.95.89,19.63,9.74,19.63,9.74l-19.15,15.59c-14.83-7.52-21.18,14.64-16.69,14.7l38.56-31.68s.66,2.59.59,2.68c-2.74,3.62-48.67,41.12-48.67,41.12l-2-2.25s-1.27,1.14-1.94,1.89a4.19,4.19,0,0,0,1.29,3.24c-9.09,7.34-9.4,20.81-2.69,28.17,0,0-3,.21-3.29.27-3.78.65-7.69-18.1-.19-26.83-3.79-7.45-6.12-17.6-6.59-18.07.1,1.2-6,.8-6,.8-.46,15.16-2,30-5.66,44.33l27.89.61-11.87,20.7s-13.32-.32-19.06-.73c-6-3.51-9.45-.84-15.07.46-8,.23-19.79-.14-19.79,0-4-8-8.29-13.84-14.12-20.68-.74-1.25,23.69-.48,23.69-.48s12.21-18.57,14.43-23.82c1.74-4.1,5.63-19,5.63-19,.18.78-2.21-3.88-7.8-3.77-4.7,30.8-41.17,41.2-63.13,21.32l-.2-3.59,48.4-39.39,2.15,2.5c-.46-.37-29.69,24.09-29.2,24,8.66,4.5,18.66.85,17.52-14.12A166.43,166.43,0,0,0,86,119.42c.13-.23,6.66,14.75,6.5,17.64,3.77-1.28,6,1.39,6,.94-1.35-8.67,6.2-41.53,6.34-45.31-4.2-.34-9.75-.18-18.46-.53,7,13.63,4.56,22.86-5.23,31.25l-2-2.59c.83.47,14.3-11.25,3.45-28.75-.49,0-5.72-.47-5.72-.47S87.59,74.5,88.08,72.08Zm52-56.31s30.55-.74,30.56.16a71.91,71.91,0,0,0,12,45.44s-13.52-.48-13.27-.31Z" transform="translate(-0.01 0)"/>
    <path class="c" d="M184.47,14.7,25.75,14.5l1,256.11H185.28ZM170,15.7s-2,27.08,12,44.84c-8.59-1.31-13.52,0-18.53,3.57l.68.71c6.9-4.26,12.74-3.14,18.73-2.47l-.17,34.87c0,1.69-6.95.94-11.38-2.38a20.81,20.81,0,0,1-6-5.79c-.37-.59-.76-1.18-.87-1.31-.4-.46-2.91-5.16-7.51-14-2.33-4.51-5.43-10.68-7.94-15.45-1.62-3.1-4.65-9-4.85-9.41-.45-1-3.74-7.43-5-9.77-3.41-6.19-8.88-17-10.86-20.9-.43-1-1.08-1.47.09-1.44a2.54,2.54,0,0,1,.67.06c.22.06.46-.36.46-.36ZM28.63,162.37l-.11-2.75,46.16-38.25,1.48,1.91Zm44.56-67-.61.21c-1.18-5.31-.5-12.4.89-17.74,2-7.4,5.84-13.34,10.07-19.31C93.2,44.9,97.44,34.62,97.27,16.31l1.38.15c0,2.89-.44,5.07-.55,8.92a70.86,70.86,0,0,0,.33,11.28c.22,2,.35,3.27,0,3.52a1.24,1.24,0,0,0-.16,1.06c0,.55-.1,1.65-.1,1.65C96,53.77,84.14,81.77,73.19,95.37ZM79,120.16l-2.44-3a2.1,2.1,0,0,1-.48-2.94l0-.06a1.32,1.32,0,0,1,.25-.28c4.88-5,5-11.32.2-17-.32-.72,1.46-4.37,1.46-4.37l3.72.06C87.5,99.67,89.09,112.2,79,120.16ZM82.37,92c.12-.48-5.5-.3-5.5-.3,3.49-5.23,6.46-10.61,9.38-16C90.77,67.56,97.06,53.25,99,42.87,100.5,55,102.62,73,113,73.69c3.39.24,7.32-2.1,7.94-1.71l21.46-.21c4.4,9,9.13,14.76,14.72,20.9A55.22,55.22,0,0,0,170.76,98c2.7.68,3,.23,8.27,1a11,11,0,0,0,3.51-.39c-4.25,3.37-9.14,2.41-14.53,1-.3-.08-.62-.18-.94-.29L163,105.46c-9.06-2.16-38.17-.63-45.84,31.19,0,0,.78.4.6.18,6.1-27.62,31.84-33.12,44.11-30.37l-1.06,1.63c-20.36-2.51-36.94,10.29-40.88,28.45l.38.36C128,109.44,160,99.29,180,118.32l3.66-2.61-.12,3.53-49,41.24-2-2s-.35.26-.74.59c-1.26,1.06-1.75,1.32-1.41,1.91s1.73,1.92,1.79,2.07c-8.12,6.66-10.69,19.48-3,28.47.87,1,.71,1.21.55.13-7-7.57-6-21,2.58-27.32l1.75,2.3c-3.81,8.39-5.83,21.47,4.16,22.6,3.58,9.65-.54,21.08-5.14,28.74-4.83,8.71-10.73,16.07-14.42,25.69-1.79,4-4.64,15.9-4.49,25h-1.07c0-3.72.24-8.11.27-10.93.15-13.7.13-12.9.44-13.24.1-.12.39-.24.42-.34s-.23-.42-.33-.75a4.54,4.54,0,0,1-.27-1.46c0-.51.49-1.25.4-1.42-2.15-7.56-2.32-21.16-9.27-27.4-3.39-2.94-7.94-3.06-13.77-.65-12.91,0-11,.7-21.43.1-4.3-8-9.54-15.69-15.2-21.42-2.65-3-6.32-4.59-9.8-6.74a16.5,16.5,0,0,1,4.73-5.85,7.83,7.83,0,0,1,1.06-1.5c35.16,3.4,42.79-30.85,41.18-29.95l-.31.27c-9.61,35.28-43.83,34-61,18.74,0,0-2.43,2.13-2.43-.21,0-2.11.76-2.72.76-2.72L76.8,123.61c.88.56,1.83,2.45,2.23,2.24.89-.48,2.2-1.43,2.15-2a24,24,0,0,0-1.75-3.18c12.9-13.45,7.08-19.45,3-28.67Zm18.3-75.55a.75.75,0,0,1,.62.37c.3.47-.87,3.2-1.6,3.68s-.73-.08-.24-2.72A1.53,1.53,0,0,1,100.67,16.46Zm70.84,0h11.18l.08,43.17c-8.35-11.81-12.58-25.4-11.26-43.17Zm-67.84.1c.28,0,.53.07.61.27.29.73-1.35,3.88-3.38,6.48-1,1.35-1.59,1.75-1.91,1.42-.28-.61-.27-1.33.7-2.46A24.71,24.71,0,0,0,102.41,18C102.65,17.26,102.89,16.61,103.67,16.56Zm11.48.16c.33,0,.67,0,.76.15a22.3,22.3,0,0,0,9.41,9.55c.55.31.29,1.1.48,1.65-4.23-.63-9.77-6.65-11.26-11,0-.3.29-.3.61-.3Zm6.61,0c.85.86,2.17,1.9,2.47,2.88a3.32,3.32,0,0,1,.19,1.62c-.74.46-4.39-3.8-4.24-4.3a1.88,1.88,0,0,1,1.58-.21ZM106,16.66c.35,0,.9,0,1,.27.46,1.85-3.75,9.09-6.83,11.14-1.09.72-1.16.53-1.07-.69,0-.82.12-.75,1.25-1.83a21.9,21.9,0,0,0,4.32-6c1.22-2.73.91-2.9,1.34-2.91Zm2.86,0a1.09,1.09,0,0,1,.87.32c.14.24,0,.63-.18,1.12A31.66,31.66,0,0,1,100.57,31c-1.57,1.23-1.84,1.22-2,0-.07-.73.27-1,1-1.46a21.54,21.54,0,0,0,7.84-10.74c.25-.83.16-1.57.6-1.83a1.6,1.6,0,0,1,.8-.19Zm21.35,6.85c.15.28,1.34,2.14.37,1.44-.79-.76-1.55-1.56-2.26-2.39-2.7-3.08-2.78-2.89-2.73-3.66,0-1-.69-2.65.85-2.23,1.48,1.8,2.43,4.68,3.73,6.91Zm-12.34-6.74a6.65,6.65,0,0,1,1,.11c1.78,3.38,6.13,6.33,6.11,6.32a7.07,7.07,0,0,1,0,1.72c-.1.46-7-4.75-7.67-7.87,0-.19.26-.25.56-.26Zm-4.84.06c1.6,3,4.9,9.68,12.67,12.38.55.13,1.15,1.73.72,2.17-4.26-1.25-12-5.43-14.6-14.51a1.3,1.3,0,0,1,1.21,0Zm-2.09.58c-.27,0,3.67,11.41,14.9,14.82,1,.3,1.54.73,1.47,1.3-.07.73,0,.81-1.14.28-3-1.61-7.4-2.36-11-.5-.56.29-1.14,1.07-.68,1.57.26.25.9.07,1.71-.25C120.38,33,126.87,34,128,36.55c.81,1.85,1,3.22.51,3.44s-.92-.45-1.93-1.34c-3.22-2.83-7.1-3.63-10.17-.88-.66.59-1.32.49-1.55.73s0,.77.23,1.29a1.16,1.16,0,0,1,0,1.14,4.84,4.84,0,0,0-.25,2c.07,1.45,1,2.71,3.79,4.62,2.14,1.5,3.82,2.34,1.21.21-4.51-3.67-5.33-5.17-2.4-3.89s7,0,9.83-2.21c1,0,1.54-.19,2.06.19,2.14,5,3.88,11.76,6.73,18.27-3.39,3.86-15.21,13.29-23.63,13-7.28-.29-9.84-12.25-11.45-18.87a41.39,41.39,0,0,1-1.08-9.6.41.41,0,0,1,.32-.07,13.42,13.42,0,0,0,4.38.15c1.93-.46,2.32-.81,2.44-.52s-.68,1.1-2.09,2.07c-.61.41-2.39,1.28-2.2,1.41.43.28,2.58-.87,3-1.17.56-.48,1-.51,1.22-.25s.39,0-.66,2.58c-1.15,2.87-1,3.13,1.21,4.89a11.76,11.76,0,0,1,1.65,1.5c.22.36.36.77.46.91.39.51.15-.31-.08-1.62a4.93,4.93,0,0,0-1.87-2.38c-1.22-.86-1-1.7,0-4.62,3-8.59,2.23-12.43-1.06-14.29-1.49-.84-5.64-.62-7,.49-.64.54-.55-.53-.46-.6,7.9-5.45,9.76-10.67,11.77-15.68Zm15.23,4.22a88.8,88.8,0,0,1,6.72,7.4A27.8,27.8,0,0,1,135,32.58c.14.22.28.47.18.57s-.36-.15-.54-.28c-1.64-1.25-8.42-9-8.42-9-.3-1.26-.52-1.69-.07-2.23Zm1.34,5.26s5.88,6.45,9.24,9.62a37.75,37.75,0,0,1,1.91,3.75c0,.15-.73-.39-.73-.39-3.71-3.45-7.15-7.32-10.72-11a21.2,21.2,0,0,1-.29-2.1c.09-.29.44,0,.59.16Zm12.75,16.55c.8,1.29,1.37,2.45,1.75,3.2.63,1.21.42,1.24-.13.8-4.21-3.46-7.72-7.66-11.68-11.53-.52-.53-1.54-1.7-1.54-1.7s-1.29-2.79-.46-2.73c.65.25,1.08,1,1.5,1.42C131.71,35.13,135.67,39,140.21,43.44Zm-36.67-9.21a5.3,5.3,0,0,1,4.3,1.46c.79,1,1.11,2.51.67,3-.27.28-1.23-.51-1.23-.51-4.08-2.31-5.49-1.19-7.71-.52-.31.1-.64-.76-.25-1.61.82-1.41,2.88-1.75,4.22-1.78Zm25.73,2.17c4.37,4.4,8.8,9.3,13.53,13.08.66.57,1.12.93,1.42,1.24.62,1.24,2.05,4.2,2.05,4.2-5.06-3.56-16.46-15.83-16.34-15.75S128.93,36.92,129.27,36.4Zm-8.55.73a6.43,6.43,0,0,1,2.37.52c2.2.88,3.58,1.82,1.3,1.5a17.61,17.61,0,0,0-5.42-.27c-2.15.35-2.32.59-2.51.25-.53-.91,1.81-2,4.22-2Zm-18,.26a6,6,0,0,1,2.5.54c2.68,1.19,3.16,2,.88,1.59a13.79,13.79,0,0,0-5,.23,9.65,9.65,0,0,0-1.16.46c-.56.18-.71-.24-.48-.94a3.15,3.15,0,0,1,3.23-1.88Zm19.46,3.44h.56c-.7,4-4.62,3.57-5.67.17h.55c2,3.28,3.59,1.37,4.53-.17Zm2.18.18c1.8,0,1.68,1.08-.2,1.81-1.45.57-1.61.46-1.08-.63s.44-1.18,1.25-1.18Zm-18.69.14c.18,3.57-4.75,4.22-5.06.33h.47c1.62,3.06,3.49,1.21,4.07-.31Zm2.19.49c.56.38.22.91-1,1.65s-1.38-.14-.48-1.29a1.26,1.26,0,0,1,1.49-.33Zm8.56,0c.21-.06.73.9.29,1.13-.26.14-.64-.26-.68-.55a.54.54,0,0,1,.38-.56Zm14.77.23c3.28,3.65,6.6,7.3,16.29,15.24a29.41,29.41,0,0,1,1.7,3.42c-.24.29-.37.26-1-.08A110.93,110.93,0,0,1,131.27,44c-.19-.76-.69-1.51-.1-2.12Zm-31.38.36a1,1,0,0,1,.65,1.26l0,.07c-.25.19-.62-.1-.78-.33a1,1,0,0,1-.06-.84.27.27,0,0,1,.24-.14Zm32.77,5c0-.13,15.31,15.5,17.28,15.2.91.54,3.18,5,3.18,5s.06.4-.31.22c-2.59-1.3-13.43-10.33-19-17.06a25.85,25.85,0,0,1-1.19-3.33Zm-18.25,2.34c2.67,1.31,1.53,4-1.29,2.28-2.23-1.36-4-1.49-4-.31a1.34,1.34,0,0,0,1.23,1.13,21.62,21.62,0,0,1,3.17.7c1.68.37,3-.08,3.37-1.1.71-1.75-1-3.66-2.11-3.56s-.84.65-.36.86Zm21.17,4.27a108.45,108.45,0,0,0,18.27,15.55,28.6,28.6,0,0,1,1.61,3.29c0,.24-.28,0-.28,0-5.38-3.12-12.48-9.32-19.21-16.36a19.29,19.29,0,0,1-.84-2.57.65.65,0,0,1,.45.11ZM117.75,57c-.24,0-.56.41-1,.63-.82.45-1.08.57-3.09,0-1.09-.33-1.27-.31-1.92.18a1.24,1.24,0,0,1-1.52.2c-1.15-.51-1.68-.14-2.73.24s-1.36-.08-2.27-.29a19.51,19.51,0,0,0,0,3.82l1.45-.81c.89-.45.76-.38,2-.33a9.87,9.87,0,0,0,5-.28,4,4,0,0,1,3.91.53c.67.55,1.54.46,1-.55a6.33,6.33,0,0,1-.54-2.09c.07-.72-.08-1.17-.35-1.19ZM138,59.86c3.59,3.47,8,8.76,18.45,14.89.54,1,1.28,2.23,1.75,3.22,0,.27,0,.52-.29.42-6.45-4.1-10-6.1-19-15a23.71,23.71,0,0,1-1.57-3.62c.1-.35.51,0,.66.09Zm-1.52,1.32,4,7.53H127a51.83,51.83,0,0,0,9.46-7.56Zm-22.22.18c-2.21.88-2.54,1.06-4.73.52-1.28-.31-.92.44-.28.74a5.85,5.85,0,0,0,5-.38c.54-.41.95-1.26,0-.91ZM112,63.68c-2.31,0-4.48.85-4.65,1.78,0,.18.16.39.51.17,1.57-.94,5.45-1.25,8.39-.19.48.17.56-.12.07-.52A6.69,6.69,0,0,0,112,63.65Zm29.27,3.21A85.9,85.9,0,0,0,159.14,80a24.18,24.18,0,0,0,1.83,3.4c-8.76-4.28-18.31-12.67-18.31-12.67a32.47,32.47,0,0,1-1.86-3.85c0-.42.41-.1.48,0Zm3,6.29A101.14,101.14,0,0,0,161.4,84.6c.37.36,1.28,2.55,1.58,2.79s-.36.23-1-.11C157.2,85,147,78,147,78c-1-1.6-2.4-3.29-2.69-4.8ZM48.49,101.59a50.92,50.92,0,0,0,2-4.76,4.52,4.52,0,0,0,4-1.78c1.1,0,2,0,3.45-.07V91.36c1.53-1.57,2.56-3.39.2-6.18,0,0-.1-1.31-.13-3.52a26.15,26.15,0,0,0-3.54-.06,3.81,3.81,0,0,0-5.2-1.29A3.68,3.68,0,0,0,48,81.6s-1.58.09-2.65.09c0,.59-.22,3.21-.22,3.21s-4.64,3.16.14,6.87l-.08,3.16a17.61,17.61,0,0,1,2.71.24s-1.83,4.26-3,6.29c-.41.11-.31-.13-.8-1.55a10.72,10.72,0,0,0-3.14-4.41c-1.58-1.21-3.68-1.58-5.19-2.63s-2.44-2.32-2.89-2.1a14.65,14.65,0,0,0,.22,5.28c.76,3.09,5.17,5,8.84,6.52.28.18.54.46.54.56,0,.51-.49.35-1.69.23-1.83-.18-2.58.32-3.22,1.89a8.26,8.26,0,0,1-1,1.49,5.18,5.18,0,0,0-.8,1.06c-.24.66-.51,1.3-.81,1.93a4.28,4.28,0,0,0-.64,1.72,39,39,0,0,0,.2,7c.25,1.37,2,2.16,2.57,2.27.91.17,1.07,1.1.93,1.86-.71,3.75-2.85,6-3.54,4.81-.17-.32-.37-1.85-.42-1.83a5.09,5.09,0,0,0-.23,1.82,1.17,1.17,0,0,0,1.46.76h.1c1-.38,1.87-1.42,2.52-3.8.27-1,.53-1.52,1-1.59.84.06,2.13,1.78,2.13,1.78-4.31,3.6-12.6,10.16-12.6,10.16L28.1,16.51l68.25.13a59,59,0,0,1-4.08,25.61c-4,9-10.11,15.68-14.83,24-5.68,10-7.51,20.36-5.57,30.78a70.71,70.71,0,0,1-15.35,14.91s-3.49-3.68-5.41-5.75c0,0,.81-.06,1.76-.1,4.41-.5,9.2-1.13,11-5.75.26-.51.15-.74-.16-.81-3.46.48-6.46,0-8.42.13-4.79.34-6.82,2-6.82,2ZM49,105s-5.56-2.65-6-2.73c-2.42-.43-8.25-3.49-9.23-5.57-.13-.27-.46-4.06-.56-4.84,0-.24.13-.23.38-.06a41.5,41.5,0,0,0,4,2.46c3.69,1.79,5.11,3.07,6,5.79a9.17,9.17,0,0,0,.6,1.53c.29.32.41.29.79,0a18.61,18.61,0,0,0,3-6c.09-.25.3-.5.18-.85-.29-1-1-2.24-.28-3.2-2.3.11-4.53-1.59-4.24-3.28.61-3.15,2-2.58,4.44-3-.25-7.3,6.5-5.52,6.48-.46,7.45.64,4,7.56-.4,6.5C55.9,95.22,50.75,96.69,50,96c-.29,1.27-2.25,5.37-2.67,6.58,5.51-3.93,14.39-2.18,15.68-2.43C59.84,106.91,49.37,105.27,49,105Zm99.3-24.81c1.4,1.08,13.27,8.55,15.47,8.72l1.92,2.26c.91,1.08,1.1,1.16,1.2,1.37s-.3.19-.37.18c-5.36-2.34-10.79-4.79-15.41-8.68a5.34,5.34,0,0,1-1-1.17c-.45-.54-1.67-2.48-1.79-2.68Zm4,6c5.43,3.08,10,6,15,7.65a7.41,7.41,0,0,1,1.42.54c.35.25,1.86,1.19,2.22,1.4,2.26,1.32,2.49,1.26,2,1.48s-4.59-.92-7.95-2.16c-6-2.21-8-3.46-10.2-5.41-.53-.47-2.79-3.19-2.47-3.47ZM44,103.32a3.56,3.56,0,0,1,2,.87,24.64,24.64,0,0,0,3.65,2.3,4.53,4.53,0,0,0,.55.23l5.34,6.1L41.71,124.06l-1.45-1.53c-.33-.37-.24-.67.18-1.08a1.76,1.76,0,0,0,.31-1.39,1.46,1.46,0,0,1,.59-1.6,1.56,1.56,0,0,0,.58-1.27,1.89,1.89,0,0,1,.75-1,2.11,2.11,0,0,0,.93-2.57c-.14-.43-.21-.54.34-.91a2.57,2.57,0,0,0,1.31-2.25,2.12,2.12,0,0,0-.06-.43c-.19-1,.71-.77,1.45.52a10.75,10.75,0,0,1,.72,3.16c.24,1.53.4,2,.48,1.73.48-1.23-.08-5.91-1.5-6.54-2.08-.92-3.79-2.81-3.28-3.56.18-.25.21-.17,1.47.42a11.94,11.94,0,0,0,1.53.62c1.46,0,.58-.58.1-.64a6.69,6.69,0,0,1-2.48-1.49C43.32,103.64,43.51,103.33,44,103.32Zm-3.52.8c1.34,0,1.6.35,1.61,1.52,0,.69.27,1.21,1.34,2.58.44.55.73,1,.7,1.2s-.18,0-1.66-.19c-.53-.06-.8-.07-1,.2-.51.77-1.58,0-2.25-1.14C37.62,105.61,38.19,104.15,40.45,104.12Zm25.62,1.65,14.62,18L79,125.06,64.36,107.27Zm-2.44,1.1,1.56,2.66s-4.53,3.9-5.72,5c-9.61,7.84-31.37,25.63-31.37,25.63l-.3-3.57Zm-26.37.46c.29,0,.62.37,1.09,1.07a15.29,15.29,0,0,0,2.17,2.7c1.78,1.66,2,1.51.51,1.66-.58.07-.77,0-1.11.88-1.07,1.32-4.2-3.44-3.47-5.27C36.69,107.67,36.94,107.32,37.26,107.33Zm5.11,2.57a2,2,0,0,1,1,.34c.78.32.83.51.7,1.25s-.67.9-1.73,0c-.81-.76-.67-1.51,0-1.55Zm23.35.44,1.72,2.24-39,31.7v-3.66c1,.13,26-21.72,37.28-30.29Zm-30.25.37c.1,0,.26.34.69,1a11.46,11.46,0,0,0,2.61,2.9c.88.67,1,1,.37,1a1.17,1.17,0,0,0-.78.59c-.37.64-.4.49-1,.15a4.34,4.34,0,0,1-2-2.14,6.22,6.22,0,0,1-.09-3.26c.09-.15.13-.24.18-.25Zm6.15,2.53a1.3,1.3,0,0,1,1.06,2.06c-.37.36-.7.54-1.43.1-1-.57-1.14-1.43-.35-1.93a1.58,1.58,0,0,1,.72-.24Zm-6.45,2.53c.22,0,.59.3,1.22,1a7.45,7.45,0,0,0,1.66,1.12c.75.42.79.57.39.91-.18.14-.76.15-.92.61-.44,1.31-2.33-.21-2.52-2.09,0-1,0-1.54.17-1.56Zm4.75.14a1.25,1.25,0,0,1,.84,2.23c-.55.39-1.91-.3-2-1-.11-.49.7-1.25,1.16-1.25ZM69,117a1.32,1.32,0,1,1-1.28,1.36h0A1.31,1.31,0,0,1,69,117Zm-3.9.54a1.32,1.32,0,0,1,1.35,1.29,1.33,1.33,0,0,1-1.3,1.35,1.31,1.31,0,0,1-1.34-1.27,1.32,1.32,0,0,1,1.27-1.37Zm-26.19,1.77h.25c1.19.06,1.26,1.2.55,1.81a.91.91,0,0,1-1.28.13h0a.46.46,0,0,1-.07-.07c-1-.81-.58-1.82.56-1.88ZM68,121.22a1.32,1.32,0,0,1,.1,2.64h0a1.3,1.3,0,0,1-1.36-1.24v0h0a1.32,1.32,0,0,1,1.3-1.32Zm114.63.08.06,3.32-46.12,38.55-1.56-2Zm-117.28.28-3.42,7.7-1-2H58.39l.79-2.29-1.5-1.84Zm72.56,32,6.07-4.89c-2.61-13.25,7.81-18.52,17.71-14.68l6.18-5.28c-11.41-9.67-38.29-3.11-29.92,24.85Zm-82-25.9A1.32,1.32,0,1,1,54.6,129h0a1.31,1.31,0,0,1,1.3-1.31Zm-4,.32a1.24,1.24,0,0,1,1.27,1.2v.07A1.29,1.29,0,1,1,51.86,128ZM73,130.67l-6,4.84c1.56,12.69-4.57,19.15-17.77,14.8l-6.4,5.09C60.05,167.33,82.62,152,73,130.67Zm-18.51,1.2a1.32,1.32,0,1,1-1.31,1.33v0h0a1.3,1.3,0,0,1,1.3-1.3h0Zm126.55.33a1.32,1.32,0,1,1-1.32,1.32h0a1.32,1.32,0,0,1,1.27-1.35h0Zm-129.26.31L48,140.16l-1-2.3H44.34l.84-2.67-1.62-1.42Zm124.13.8,1.19,2,2.53.06-1,1.93,1.83,1.88-8.23,2ZM42.59,138.86a1.32,1.32,0,1,1-1.3,1.34v0h0a1.32,1.32,0,0,1,1.3-1.32Zm-3.76.15a1.32,1.32,0,1,1-1.31,1.33v0A1.31,1.31,0,0,1,38.83,139Zm130.68.77a1.32,1.32,0,1,1-1.31,1.33h0a1.33,1.33,0,0,1,1.28-1.34h0Zm13.21.21v2.92c-12,10.67-37.33,31.28-37.33,31.28l-1.58-2S169.56,151,182.67,140ZM41.44,142.77a1.32,1.32,0,1,1-1.3,1.34h0a1.31,1.31,0,0,1,1.29-1.33Zm130.75.32a1.32,1.32,0,1,1-1.31,1.33h0a1.3,1.3,0,0,1,1.29-1.31h0Zm-3.71.24a1.32,1.32,0,0,1,.23,2.62.88.88,0,0,1-.23,0,1.31,1.31,0,1,1-.22-2.62h0a.86.86,0,0,1,.22,0Zm14.6.46L183,147.5c-11.66,10-35.52,29.84-35.43,29.85l-1.81-2.49s26.16-22.63,37.35-31.09Zm-144-.54-3.59,8.16-1.56-2.2-2.27-.16.51-2.23-2.08-1.43Zm124.74,3.21,2.3-.44-.41,2.37,1.62,1.71L158.84,152l4.09-7.62Zm12.64,39.76c1.71,2.57,1.6,5.39.89,5.83-.71-.54-1.44-1.05-2.19-1.52-4-1.71-7.09-3.11-7.66-5.62-2.18-5.69,7.48-.84,8.93,1.31Zm-20.76-15.11L169,160.25a14.49,14.49,0,0,1,2.41,1.54c.14.52-.23.69-.76,1.18a1.89,1.89,0,0,0-.42,1.31c0,.75.23,1.08-.07,1.41-.51,0-.9.63-.88,1.16s-.51.86-.82,1.16c-.55.55-.71.66-1.06,2.49a1.25,1.25,0,0,1-.29.91c-.76.07-1.33,2-1.68,2.08a2.21,2.21,0,0,1-1.7-1.71,9.19,9.19,0,0,1,.05-2.77,7.49,7.49,0,0,0,.2-2.11c-.13-.55-.49-.21-.49.56a12.74,12.74,0,0,1-.32,2.13c-.19.88-.72,2-.49,2.75.36,1,1.68,1.48,2.29,2a9,9,0,0,1,2.09,2.47c1.25,2.31,1.26,2.71.95,4.45-.18,1-1.16.83-1.73.42,0,0-3.75-2.73-5.36-4.09a18.34,18.34,0,0,1-5.24-6.48Zm5,7.46a42.91,42.91,0,0,1,5.13,3.28l-3.37,7.05a13.76,13.76,0,0,1,.85,3.85c4.28-.33,6.59,6.91-.06,6.24.75,4.46-6.4,8-6.21,0-7.45.58-5-7.92-.35-6.32-.14-3.6,2.24-4.07,4-5,1.38-1.57,2.22-5.13,2.22-5.13l-.34-1.07h0c-1.41,2.47-7.43,3.19-14.05,1.87,1.79-4.27,7.22-4.15,12.25-4.78Zm-13.16,5.37c-.23.85-.23.84.79.73h4c2.66.21,6.85.23,8.93-1.38.41-.39.63-.37.71-.15.18,1-1.86,4.47-1.86,4.47l-3.37,1.86s-1.38.07-3.09,0v3.05a4,4,0,0,0,.06,6.82l-.12,3.31,3.25.06c2.16,2.09,3.92,2.08,5.9.12h3.77v-3.56a4,4,0,0,0,.63-5.61,4.47,4.47,0,0,0-.42-.45v-3.64h-2.89s-.6-.46-.62-.83a50.49,50.49,0,0,1,2.52-4.91c.53-.76.39-.33,1.22,1.43,1.2,2.51,2.4,3.52,5.44,5a16.69,16.69,0,0,1,4.47,2.69c.64.61,1,.42,1.24-.48a7.35,7.35,0,0,0-.72-5.83c-2.31-3.87-6.35-4-7-4.93-.09-.22.73-.46,1.62-.86a12.66,12.66,0,0,0,4-4.88,6.87,6.87,0,0,1,.56-2.64c.31-.68.34-1,.33-2.81a6.15,6.15,0,0,1,.1-2.83c.14-.94-.36-2-1.06-3.42-.27-1.25-.21-.92.6-3.77.14-.46,1.06-4.42-.11-4.69,0,.07.1.15.15.22a6.12,6.12,0,0,1,.12,2.59,8.63,8.63,0,0,0-.29,1.11c-.71,3.19-1.13,4-1.76,3.29-.16-.17-.75-.41-1.19-.71-.86-.56-.78-.84-.57-1.91,0-.16.39-1.62.35-1.58-.18.51-.31,1.8-.89,2.11-.31.07-.74-.21-1.54-.91-.31-.27-1-.74-1-.74s9.58-8.1,13.15-10.79V268.6H115.37c-.85-7.45,1.38-17.29,5.06-27.15,2.28-6.09,5.54-10.61,9.24-16.06,7.07-10.41,12.42-21,10.35-34.36a21.25,21.25,0,0,1-.44-3.47c.86-1.62,4.27-6.54,6.76-8.59,3.65-3,8.75-7.49,9.16-7.22a16.09,16.09,0,0,0,4.55,5.7c.33.36.34.68-.42.85-5.06-.05-10.25,1.07-11.92,5.56ZM30,149.84a1.21,1.21,0,1,1-.23,0Zm126.64.29a1.32,1.32,0,1,1-1.31,1.33h0a1.31,1.31,0,0,1,1.27-1.32Zm2.84,3.6a1.32,1.32,0,1,1-1.3,1.34h0a1.32,1.32,0,0,1,1.26-1.32Zm-4.22.56a1.32,1.32,0,1,1-1.31,1.33h0a1.31,1.31,0,0,1,1.27-1.32Zm-4.67,3,2.36-.12a19.42,19.42,0,0,0-.62,2.61l1.92,1.42-8.32,1.43,3.59-7.42ZM144.9,178.9l-14-18.19,1.7-1.38,14.12,18Zm-1.71-17.67a1.32,1.32,0,1,1-1.3,1.34h0A1.32,1.32,0,0,1,143.19,161.23Zm29.44,2c1.14.88,0,2.13-1.09,1.63a.92.92,0,0,1-.65-1.13.89.89,0,0,1,.52-.6,1.08,1.08,0,0,1,1.18.14Zm1.51.84c1.16,0,2.46,2.8,2.22,3.62s-.67,1-2.32-.42-1.64-1.44-1-2.19c.36-.42.54-1,1.08-1Zm-27.72.51a1.32,1.32,0,1,1-1.3,1.34h0a1.3,1.3,0,0,1,1.26-1.27Zm-4,.5a1.32,1.32,0,1,1-1.3,1.34h0a1.32,1.32,0,0,1,1.26-1.28Zm28.69.94c1.29.19,1.62,1.17,1,1.9-.81,1-2.61.09-2.19-1.08A1.23,1.23,0,0,1,171,166Zm2.31,1.48c.5,0,1.27.66,2.1,1.82s1,1.73.75,2.52c-.39,1.17-.64,1.38-1.47.25-.32-.43-1.05-1.43-1.58-2-1.11-1.17-1.29-.87-.63-1.77.27-.37.45-.75.79-.78Zm-3,1.38c1.16.6,1.27,1.37.59,1.93a2,2,0,0,1-2.51-.88c-.39-1.12.8-1.73,1.88-1Zm2,1.72c.65,0,1.19.64,2,1.94,1.36,2.22,1.44,3,.28,4.42-.84,1-.92,1.1-1.75-.57a13.1,13.1,0,0,0-3.12-3.93c-.48-.4-.66-1-.3-1h1a1.44,1.44,0,0,0,1.2-.45,1.18,1.18,0,0,1,.66-.37Zm-4.7,1.73a2.59,2.59,0,0,1,2,1c.67.7.59,1.35-.71,1.47-.59.24-2.18-.82-2.19-1.53a.86.86,0,0,1,.83-.9h0Zm3.07,2.57h.1c.54,0,.82.56,1.44,1.79.94,1.91.67,3-1,3.8-1.1.57-2,.74-2.09.09a6.11,6.11,0,0,0-.13-1.28,5.76,5.76,0,0,0-.91-2.4c-1-1.5-1.18-2-.08-1.6a2.16,2.16,0,0,0,1.87-.14,1.85,1.85,0,0,1,.77-.26ZM165.19,178c-.38,0-.63.23-.52.85.35.17.88,0,1.31.16s.89,1.11,1.49,1c.06-.76-1.44-2-2.28-2ZM52.05,191.29c-3.06-1.46-10.63-4.84-14.27-4.89-6.75-1.91-7.21-1-9.57-1.65a25.39,25.39,0,0,1,24.33,6.07C54,192.26,53.19,191.84,52.05,191.29ZM60,221c7.17,12.51,13.9,26.63,25.09,47.53l-1.09.33L41.26,269c2.1-23.09-10.28-45.08-11.14-44.18,9.69.18,17.74-1.7,19.44-5.3l-1.38-.39c-5.65,4.9-13.83,5.12-19.46,3.61.12-12-.55-24.74-.17-36.77,6.66-.49,11.91,2,15.56,6.86C50.33,201,54.54,211.48,60,221.06ZM40.4,187.68c1.72-.13,11.09,3.74,15.28,6.64a24.09,24.09,0,0,1,2.86,3.51c0,.56-.81-.13-4.86-2.45a94,94,0,0,0-9.35-4.44l-.44-.17a4.34,4.34,0,0,0-.63-.58c-1.1-.85-3.24-2.37-2.89-2.5ZM45,192.07a68.62,68.62,0,0,1,16.76,9.37c1,.79,2.22,3.76,2.22,3.76-.67-1.26-12.46-8.35-16.6-10Zm3.32,4.53c.51-.31,14.23,7.83,16.24,9.94.91.69,3,4.1,3,4.79s-.66.08-1.89-1.06A65.19,65.19,0,0,0,50.15,200Zm2.58,4.73c6.42,2.74,14.52,9.33,18.62,13.25a7.83,7.83,0,0,1,1.88,3.19c.08.42-.13.4-.21.62-5.29-6.11-16.87-13.09-18.46-13.62C52.66,205.14,51.36,202.38,50.85,201.33Zm21.39,19c.73.76,1.91,3.43,1.64,3.75s-.1.08-.42-.14c-1.76-1.69-10.42-9.46-17.65-13.81-.68-.34-3-4-2.48-4,3.79,1.24,14.65,10,18.87,14.23Zm-15.73-8.56a3.49,3.49,0,0,1,.74.39c6.68,3.7,16.35,13,18.18,15.26a6.14,6.14,0,0,1,1,2.74c-.08.61-.33.09-3-2.58a97.54,97.54,0,0,0-14.66-11.92c-1-.7-.82-.79-1.56-2.08s-1-1.87-.75-1.85Zm42.69.15c4.77.13,6.64,3.76,9.57,10.44a55.42,55.42,0,0,1,3.5,17.36c0,.33-.57.05-.84,0a8.87,8.87,0,0,0-4.71-.2c-1.35.34-2.64.31-1.25-.61.45-.3,1.66-1.42,2.3-1.82,1.31-.82.52-.81-.78-.17-1,.49-1.64,1.1-2,1.2s-.1-.76.14-1.36c1.39-3.43,1.81-5.45-.26-6.09a5,5,0,0,1-1.66-1c-.28-.28-.52-1.39-.62-1.43s-.16,1-.16,1.17a4,4,0,0,0,1.56,2.28c1.44,1,1.72,1.31,1,3.77-1.09,3.43-1.33,4.27-1.53,5.07-.11.46-.33,1.24-.45,1.75a19.33,19.33,0,0,0-.3,5.26c.48,3.61,4.35,5.4,9.55,3.39.49-.2.7,0,.7,0-4.14,4.24-8.8,6.94-11.51,15.51C98,259.37,93,253.84,84.83,251.62l-.17-1.52c2.87,1.37,8.42,3.25,11.91,1.14,1.89-1.29,1.32-2.12-1-1.23-2.72,1.06-7.64.93-10.11-.45a1.29,1.29,0,0,0-1.15,0c-.13-.83-1.31-4-1.14-5.15-.1-.16.75-.17.91,0,.69.91,4.13,3.64,7.73,3.42a6.61,6.61,0,0,0,4.79-2.29c.13-.12.77-.2.85-.3s0-.39,0-.47-.27-.47-.43-.85a1.59,1.59,0,0,1-.21-1c0-.23.16-.35.28-.51a1.36,1.36,0,0,0,0-.89.55.55,0,0,1-.14-.76h0c.49-.55-4.18-4.83-5.09-4.82-.33,0-.13.62.53,1.07,2.38,1.57,4.1,3.64,3.71,3.91s-1.36-.25-2.45-.5a8.51,8.51,0,0,0-7.5,1.3c-1.06.88-3.86,1-3.86,1,0-1.53-6.46-18.62-6.47-17.87,2.33-2.75,9.69-9.24,17-12a15.49,15.49,0,0,1,6.33-.91Zm-27.93,3.79,13.37.2c-3.37,1.67-9.46,7.86-9.46,7.86-1.75-3.54-2.29-5.3-3.91-8Zm-11.56,1.77c1,0,11.61,8.7,13.12,10.75.18.25,1.26,1.39,2.39,2.54,2.75,2.76,3.88,4.36,3.9,5.5,0,.54-.49.19-1.22-.62A78.88,78.88,0,0,0,62,221.46c-.77-.41-3.17-3.61-2.35-4ZM96,219.08c-.3,0-.25.28-.09.54,1.69,1.5,6.12,1.43,7.66.22s-.43-.51-1-.27a6.76,6.76,0,0,1-4.61,0,20.15,20.15,0,0,0-2-.5Zm4.1,2.44c-1.56,0-3.19.48-2.82,1.06.13.2.55.6,1.57,0,1.47-.73,4.49.23,4.56.25.31.08-1-.87-1.44-1.06a4.63,4.63,0,0,0-1.88-.29Zm-37.47,1.62c5.7,3.51,12.65,10.53,16.81,15.54a5.24,5.24,0,0,1,1.17,2.51c0,.91-.19.41-4-3.45a107.77,107.77,0,0,0-10.36-9.46c-1.78-1.31-2.1-1.48-3-3s-1.07-2.18-.69-2.16Zm35.53,1.18a5.31,5.31,0,0,1-3.88-.08c-1.25-.43-1-.06-.49,1.3a7.85,7.85,0,0,1,.36,1.65c0,.31,0,.33.88-.17s.94-.58,2.59-.2,1.69.25,2.48-.16.82-.58,1.29-.39a3.51,3.51,0,0,0,3.14-.09,1.31,1.31,0,0,1,1.61.06c.56.28.78.1.56-.47a8.45,8.45,0,0,1-.26-1.49c0-.58-.16-1.11-.39-1a5.76,5.76,0,0,1-2.49.93c-1.58,0-3-1-5.4.1Zm-69.51,1.19c14.22,17.77,11.7,43.43,11.25,43.26H28.77Zm37,3.6a88.4,88.4,0,0,1,16.19,15.8c.63.83.12,1.1.43,2.1.12.38-.51-.17-2.31-2.13-2.25-2.42-6-6.07-8.38-8.18-2.66-2.33-3.43-2.91-4-3.7s-2.27-3.8-1.93-3.89Zm32,1.6H97.5a2.21,2.21,0,0,0-1.31,4c.65.61,1.68,1,1.67.64a1.92,1.92,0,0,0-.59-.58c-1.44-1.12-1.29-2.86.35-2.88.57,0,.6.2,1.92,1.15,1.55,1.12,3.38,1.12,3.36,0,0-.83-.33-1.67-1.71-1.53a4.5,4.5,0,0,1-1.27,0,4.45,4.45,0,0,1-.91-.43,3.38,3.38,0,0,0-1.39-.37ZM69.42,236c4.33,2.93,10.28,9.56,13.36,13.47a2.5,2.5,0,0,1,.47,2.47c-.07.11-.61-.23-.61-.23-3.52-4.17-7.52-8-11.46-11.82-.06,0-2.38-3.77-1.82-3.89Zm42.11,6.34-1,.47c-1.42-2.15-2.72-2.18-3.81.33l-.69-.17c-.52-.58,1.87-6,5.45-.63Zm-.22-1.83a1.49,1.49,0,0,1,1.24.63.52.52,0,0,1-.19.71.48.48,0,0,1-.37.06,4.84,4.84,0,0,1-.86-1c-.25-.28-.17-.41.14-.4Zm-16,2.63-1,0c-2-2.65-3.5-.88-4.39.23l-1.12-.15c.12-2.91,5.22-3.92,6.47-.13Zm10.22-2.26a1.22,1.22,0,0,1,.46.09,4.13,4.13,0,0,0-.58,1.73c-.41.17-1,.52-1.42.07-.81-.74.42-1.95,1.53-1.89Zm-16.4.29c.49,0,.34,0,.13.25a4.69,4.69,0,0,0-.68,1.24c-.06.31-.12.42-.41.43a13.31,13.31,0,0,1-1.67-.17C86.08,242.46,87.85,241.17,89.13,241.12Zm6.35.37c.33,0,.25.44.14.63s-.29.33-.41,0a1.31,1.31,0,0,0-.21-.36c-.16-.21-.14-.22,0-.26Zm17.16,2.12c1.22,0,.41,2-1.29,2.55-1.89,1-4,.73-6.24-.53-1.25-.72-1.63-1.48-.53-1.17,4.11,1.14,5.1.92,7.58-.68a.65.65,0,0,1,.48-.17Zm-39.51-.46c4.08,3.48,7.16,7.42,10.44,11.06a2.86,2.86,0,0,1,.82,2.13c-.16.65-1.5-.91-1.5-.91L75,246.83s-2.08-3.66-1.83-3.68Zm12.21,1.2a12,12,0,0,1,1.76.38c4,1.2,5.12,1.15,7.39.11,1.44-.67,2-.57,1.42.43-1.14,1.84-5.15,2-8.15,1a8.36,8.36,0,0,1-2.27-1.33C85.08,244.53,85,244.34,85.34,244.35Zm18.14,1.22a3.52,3.52,0,0,1,1.21.56c3.29,1.88,5.73,1.54,7.76.28.37-.34.57-.18.62.15.17,1.14.21,2-.3,2.52a4.2,4.2,0,0,1-1.59.73c-3.2,1.07-7.08.3-7.82-2.11-.25-1.23-.4-2.1.11-2.13Zm-26.15,5.2h0c.23,0,.75.5,1.6,1.46,4.39,5,6.81,7.88,6.36,9.33,0,0-.07.31-.24.15a29.17,29.17,0,0,1-5.85-6.78C77.66,252.3,77,250.8,77.33,250.77Zm35.35,3.52c-3.69,2.84-8.18,9.62-8.59,13-.08.63,0,1.11-.25,1.34s-.6.2-1.16.09c-.34-.06-.26-.1-.34-.49-.32-1.53,1.13-5.38,4.14-9.9,1.58-2.37,5.18-5.59,6.18-5.61.66.26,0,1.62,0,1.59Zm-27.41-1.62a3.57,3.57,0,0,1,1.23.37c3.32,1.43,4.56,2,6.71,3.71,4,3.29,8.47,11.1,7.16,11.83-.58.31-1,.11-1.22-.61a19.2,19.2,0,0,0-1-2.16,24.12,24.12,0,0,0-11.06-10.74c-1.82-.9-2-.8-2.14-1.55-.1-.56,0-.81.33-.81Zm27.35,2.87c.33,0,.41.58.3,1.8-.09,1-.15,1-1.26,2.16-1.78,1.45-3.88,4.84-4.85,8.3a.84.84,0,0,1-.26.53c-.45.39-1,.2-1.43.19s-.21-.77-.16-1.13A25.64,25.64,0,0,1,111,257c.89-1,1.41-1.45,1.71-1.47ZM86,255.67c1.76,0,8,4.65,10.54,8.76,1.65,2.69,2.1,3.79,1.72,4.18a2.1,2.1,0,0,1-1.56.06c-.41-.17-.58-.82-1.37-2.31A18.35,18.35,0,0,0,87,258.13a3.4,3.4,0,0,1-1.11-.67c-.2-.45-.48-1.69.06-1.79Zm1,3.48a14.38,14.38,0,0,1,3.32,2c2.23,1.64,5.63,6.68,5,7.41a1.78,1.78,0,0,1-1.41.08c-2.39-4.29-5.5-6.32-6.76-7.51-.48-.62-1.34-2.14-.15-2Zm-5,.76c.11,0,.52.39,1.28,1.19,2.24,2.36,3.67,5,3.34,6.32-.27,1.13-.6.51-3.17-4.42-1.14-2.07-1.65-3.05-1.5-3.09Zm30.71.06a8,8,0,0,1-.2,2.43c-.1.48-.43.71-.72,1.1a14.1,14.1,0,0,0-2.08,3.95c-.37,1.08-.19,1.33-1.51,1.19-.61-.08-.47-.25-.23-1,.84-2.34,2.83-6.12,4.74-7.71Zm-25.51,2.57c0-.69,6,5.37,5.19,6.06-.77.13-1.24.16-1.57-.12-.63-1.44-3.49-4.18-3.49-4.18Zm25.18,1.91h0c.27.06.12,3.8-.1,4.1a2.11,2.11,0,0,1-1.67,0,.55.55,0,0,1-.24-.7c.23-.72,1.52-3.31,2-3.4Zm-22.63,4.11a1.81,1.81,0,0,1-1.8,0,5.75,5.75,0,0,1-.11-2.3c.4-.27,2,1.9,1.86,2.3Z" transform="translate(-0.01 0)"/>
    <path d="M11.88,0c-4.65.09-7,4-7,8V18.24H2.11v3.42H4.89v2.5c0,4.62,1.59,7.43,4.77,8.21,3,.56,4.63-.1,7-1.31.84.35,1.43,1.08,2.32,1.17s3.08.06,3.08.06V28.77l-1-.15c-2,0-2.85-.72-2.63-2a4.93,4.93,0,0,0,.51-2.39V6.83A6.87,6.87,0,0,0,12,0h-.13Zm-.14,3.4c2.22,0,4.08,2.56,4,5.23V22.09a3.71,3.71,0,0,1-.44,2.26C15,23.48,10.41,18.76,8.11,19c0,0-.1.24-.16-5.68,0-2.91-.79-7.24,1.81-9.2A3.31,3.31,0,0,1,11.74,3.4ZM132.35,15.06l.74,1h-4.38c.71.61,17,33.53,37.8,71.57,3.44,6.68,10,9.08,17.64,9.37L163.94,64.31c2.16-1.18,6.43-4.34,9-3.75.17.8.93.48.94-.23h.94l.33.51h4l.32-.46,3.38.49c-9.08-11.19-13.81-28.47-12.31-45.33l-30,.07-.4-.53ZM94.27,38C90.8,49.09,82.37,58.21,77.34,67.38c-5.37,10-6.63,18.72-5.07,28.25l1,.09A164.36,164.36,0,0,0,98.48,42.77c.11-.41-.08-1.12,0-1.52a1.21,1.21,0,0,1,.11-1.15c.29-.31.18-1.51,0-3.49a80.31,80.31,0,0,1,0-15.81c.38-4.1.36-4.74.36-4.74H97a61.88,61.88,0,0,1-2.82,22Zm47.12-21.47,3.21.07c.5,9.9,8.78,11.18,10.06,11-2.11,6.68,1.39,14,9.82,15.07-1.92,6.2,1.5,14.38,8.25,14.16l.72.45a8.32,8.32,0,0,0-.51,2.75,21.16,21.16,0,0,0-3.28.53c-8.78-13.19-28.32-44-28.32-44Zm28.61,0c-1,11.06,1.23,26.23,6.4,35.2a5.46,5.46,0,0,1-.28.77c-.49.74-.74.1-1-.5-1.1-2-3.18-2.37-4.08-1.23-2,2.75.16,3.84,1.85,5.4-6.95-.43-9.22-8.08-7.62-11.86a5,5,0,0,0,.86,2.58c2,3,4.78.46,4-1.87a13.7,13.7,0,0,0-1.58-2.59,9,9,0,0,0,2.38-.67,2,2,0,0,0,.88-2.08,4.34,4.34,0,0,0-.59-1.82,2.75,2.75,0,0,0-2.15-1c-1.43.1-1.6,1.09-2.53,1.76-.24-1.78-1.38-3.13-3.23-2.8-1.4.26-2.41,1.77-1.56,3.65.44,1,1.05,1.25,1.67,2.08-9.93-1.11-8.85-13-7.76-12.76,0,0,.3,0,.22.4-.56,2.9,3,4.64,4.59,2.53,1-1.71-1.15-4.41-1.15-4.41a9.93,9.93,0,0,0,2.08-.68c2.6-1.51-.18-5.83-2.59-4.76-.84.37-1.05,1.16-1.88,1.59-.55-.62-.59-1.3-1.58-1.85-2.72-1.52-4.42,2.08-2.91,3.67.61.64,1.71,1.23,1.49,1.31-8.44-1.08-8.36-10-8.17-9.9Zm-72.57.08h1.13C98.22,21.91,97.48,28.86,98,34c.57,4.91.6,5.61.24,6.1s-.22.78-.13,1.22a2.32,2.32,0,0,1,0,1.28,106.43,106.43,0,0,1-4,12.71C88.61,70.38,79.75,86.77,72.8,95.41h-.33a43.84,43.84,0,0,1,4.29-26.14c4.3-8.34,11.07-15.5,15.08-24.18a60.7,60.7,0,0,0,5.5-28.44Zm42.76-.06,28.33,44.27-5.25,2.55-29-46.62ZM54.88,21.21c-10,.15-15,12.82-6.52,19,1.5,1.09,2,1.73,1.55,2.15s-.8.19-1.55-.56c-6.56-6.46-16.67-2.92-17.61,6-1.56,14.82,16.82,18.71,21.52,4.59,1.35-4.06,1.92.34.61,4.64a42.24,42.24,0,0,1-5.2,11.44c-.38.56-.91,1.27-.91,1.27H62.9s-.5-.69-1.24-1.55a31.2,31.2,0,0,1-5-14.46c-.12-1.46-.07-2.57.22-2.76.48-.31.76.08,1.29,1.83,1.07,3.58,3.09,6.51,5.36,7.62C69,62.71,73.46,62,77.2,57,85.27,46.17,72,32.77,62.58,41.53c-.86.79-1.41.88-1.48.22,0-.31.19-.62,1.38-1.73,8.12-6.48,4.05-17.61-6.08-18.73A11.14,11.14,0,0,0,54.88,21.21ZM14.1,28c.21.4-.55.81-1.35,1-2.29.63-4.49-.8-4.59-4.08,0-1-.09-2.08.26-2.23C9.43,22.25,13.44,26.77,14.1,28Zm142.68-2.77a1.34,1.34,0,1,1-1.32,1.36h0a1.34,1.34,0,0,1,1.27-1.39h0ZM11.43,36.91c-4.59,0-6.95,6.29-2.62,10,.76.65,1.06,1.25,1,1.39-.12.32-.24,0-1.17-.61-4.11-2.9-9-.3-8.61,3.88.61,6,7.3,7.38,9.66,1.85.43-1,.63-1.27.85-1.27s.23.4.13,1a21,21,0,0,1-3.08,7.52H15.1a17,17,0,0,1-2.56-7.48c0-.75.07-1.25.36-1.25s.31.27.63,1.54c1.19,4.73,8.44,4.48,9.65-.31,1.35-5.34-3.67-9.14-7.79-5.77-.59.48-1.24.83-1.36.5a3.11,3.11,0,0,1,1-1.37C19.17,42.43,16.36,36.9,11.43,36.91ZM166.14,40a1.36,1.36,0,1,1-1.34,1.38v0h0A1.34,1.34,0,0,1,166.14,40ZM98.67,42.65c.49,1.93-8.94,30.88-22.44,49.31l5.88.12.16.69c8.24,12.22,3.09,23-3.56,28.05l2.3,3.1L79,125.61l-2.08-2.49C60,135.77,27.16,163.9,27.16,163.9l.18,4.52,2.57-2c16.68,16.22,52,15.34,61.31-18.16l2.48.06C88.09,172.87,65.27,182.48,48,178.41l-4,5.82,1.08.59c-.2-.31-.39-.42-.09-.71l3.44-4.43c25.76,3.31,41.32-11.34,46.37-31.21l3.28.06A81.09,81.09,0,0,1,76.42,191.4c-8,0-22.09-.22-22.09-.22,5.13,5,14.9,20.24,15.3,21.79,0,0,10.07.31,20.86.05,4-1.79,9.26-2.51,11.73-1.25,4.35,2.19,8.43,10.37,10.27,23.49.48,3.37.9,4.81,1,5.49,0,.12.32.21.37.19a5.94,5.94,0,0,0-.29,1.1,3,3,0,0,0,.24,1.55.65.65,0,0,1,.23.69,4.77,4.77,0,0,1-.62.65c-.09,7.64,0,14.58-.45,24h1.49c0-15.12,4.52-29.11,11.52-38.74,4.25-6.32,8.75-13.14,11.24-19.62a37.28,37.28,0,0,0,1.68-21.46l-1,.06c-6.15-4.24-8.66-13.28-1.08-19.75l-2.66-3.65c-7.57,5.88-9.31,16.73-1.46,25.71h-3.07c-7.66-9.59-6-20.62,2.88-28.48l-2-2.53,2.16-1.91,2,2.14L184,119.25v-4.48l-3.74,3.07c-22.14-20.58-55-6.14-59.78,18.64h-3c6.31-26.67,29.56-34.21,46.37-30.65L168,99.52a24.9,24.9,0,0,1-8.86-5.31,23.27,23.27,0,0,1-2.79-2.65C148.44,83.1,143,71.34,142.76,71.32H121.09c-3.18,1.58-8.62,3.38-11.61,1-6.4-5.2-8.56-15.7-9.44-22.45-.26-2.11-.49-5.77-.69-7a.49.49,0,0,0-.57-.2Zm76.77,11.68a1.32,1.32,0,1,1-1.3,1.34h0a1.31,1.31,0,0,1,1.28-1.35h0Zm2.84,1.55a16.94,16.94,0,0,1,2.56,4.34,2,2,0,0,1-1.52-.29,6,6,0,0,0-1.55-3.47Zm-4,2c.44.21.79,1.87.48,2.15-.53.12-.89.08-1.06-.11a2.45,2.45,0,0,1,.58-2.15ZM88.18,72.24h20.09c3.51,2.7,7,2.34,11.92.17h22.35l1.27,2.36H87.09C87.41,73.9,88.18,72.24,88.18,72.24Zm-1.66,3.61h57.85l1.46,2.36H85.09Zm5.59,3.43H98.6l-2.4,4.11H89.49Zm14.41,0h6.19L110,83.39h-6.14Zm20,0-2.6,4.11h-6.3l2.7-4.07Zm7.78,0h6.2l-2.23,4.11h-6.43ZM51,80c-4,0-3.28,5.32-2.9,5.15-2.52-.58-4.4.63-4.71,2.79a3.72,3.72,0,0,0,3.54,3.88h0a3.39,3.39,0,0,0,.78,0c-.39.45,0,3,.4,3.29a18.58,18.58,0,0,1-1.49,3.6c-1.84,3.83-2.21,4-3,1.5-.89-2.71-2.26-4.09-5.86-5.83a24.14,24.14,0,0,1-3-1.81c-1.57-1.28-1.59-1.26-1.5,1.25.1,3.2,1.07,4.6,4.46,6.49a24.9,24.9,0,0,0,5.43,2.22,17.7,17.7,0,0,1,4.11,1.86,10,10,0,0,0,3.81,1.23c2,.14,6.52-.33,9.14-1.86,1.47-.85,2-1.61,3.13-3.8a25.11,25.11,0,0,1-5.41-.25c-3.53-.21-5.28,0-8,1.39-2.23,1.16-2.36,1.37-1.43-.55a32.26,32.26,0,0,0,1.19-3c.39-1,.49-1.12,1.47-1.22a3.64,3.64,0,0,0,3.56-3.62,5.92,5.92,0,0,0,0-1.19c1.46.22,4.45-.51,4.36-3.55-.09-2.74-2-3.37-4.41-3.55A3.84,3.84,0,0,0,51.49,80,4.71,4.71,0,0,0,51,80Zm0,.85c3.52,0,3.44,3.28,1.9,5.13l-1.79-1.59-1.51,1.43c-1.69-1.06-1.64-5,1.48-5Zm96.43,0,1.74,2.58h-3.58ZM81.63,84.51h6.64l-2.66,3.77H79.37S80.78,85.87,81.63,84.51Zm20.92,0L100,88.42H94.27l2.32-3.83Zm7.78,0h6L114,88.68h-6Zm14.11,0h6.06L128,88.68h-6Zm13.75,0h6.25l-2.58,4.17h-6Zm-87.11.77,3,3L51.17,91.2l-3-2.87Zm7.56,3c-.52,3.51-3.89,3.32-4.84,1.6l1.37-1.57-1.68-1.66c1.67-2.71,5.59-1.08,5.19,1.58Zm-10-1.68L47,88.43l1.84,1.65c-1.14,1.59-5.54,1.47-4.61-2.31a2.49,2.49,0,0,1,4.46-1.17Zm102.28-.45,1.83,2.55h-3.48Zm-72,3.14,74.21.24,2,2.43c-25.91.45-51.28-.42-77.75-.44ZM52.83,90.82c3,1.81.77,5.63-2.39,5-2.35-1-2.83-3.5-.71-4.93l1.65,1.38Zm25.44,1.46h-2l-2,2.32c7.46,7.89,7.18,14.75.24,20.72l2.79,3.15c7.76-6.69,9.49-17.22.93-26.19Zm7.67.3c4.18,6.57,7.79,19-4.66,30.4l-1.51-1.83c10.85-10.65,8.3-19.6,3.45-28.49Zm1.16.17,16.88.06c-3.6,13.83-6.14,22-6.52,43.59H92.59c.53-.5-2.52-13.06-6.09-17.41,7.43-12.72,3.41-19.91.59-26.24Zm-53,0a7.27,7.27,0,0,1,2.06,1.09c1,.63,2.42,1.43,3,1.78,2.31,1.3,3.47,2.53,4.12,4.41.5,1.41.19,1.44-1.23.11a38.28,38.28,0,0,0-5-3.77c-1-.67-1.31-.56-.73.26A10.61,10.61,0,0,0,39.42,99c1.3.8,3.1,2.41,3,2.65s-.35.19-1-.08l-2.08-.87c-3.67-1.5-5.23-3.34-5.45-6.39-.12-1.06-.19-1.55.14-1.56Zm76.91.07a4.15,4.15,0,0,1,.58,1c.14.6-.45,1.16-2.32,2-.64.27-1.17.43-1.15.8.08.89,1.76,2.24,1.56,3.44-.39.92-2.72,1.82-3.31,2.9,0,.74,1.52,1.89,1.3,2.9-.11.3-.6.61-1.33,1.25-1.48,1.28-1.56,1.48-1,2.48,1.26,2.34,1.3,2.17-.42,3.83s-1.69,1.64-.87,3.1.85,1.5-.35,2.5-1.13,1.18-.49,2.4.74,1.2-.28,2.11c-1.2,1.07-1.42,1.18-.58,2.53s.94,1.32,0,2.46-1,1.12-.53,1.86c.63.92.75,1.16.09,2.17s-.72,1-.06,2a3.11,3.11,0,0,1,.46,1.81h-2a5.42,5.42,0,0,0-.26-1.65c-.6-1.07-.58-1.41.13-2.35s.59-1.07-.08-2-.58-1,.31-2.11.84-1.51.38-2.1c-1.09-1.4-1.09-2,0-2.92.84-.71.92-1,.19-2.23s-.79-1.28.51-2.47,1.31-1.18.43-2.54-.83-1.42.56-2.71,1.42-1.31.5-3-.87-1.52.81-3,2.25-1.58.58-3.59c-.93-1.59-.27-1.75,1.26-2.54,2.67-1.65,1.46-1.55.33-4-.94-1.63-.4-1.64,1.24-2.46.41-.18.85-.38,1.32-.64,1.09-.61.5-1.18.5-1.18Zm3.51,0,8,.1c-9.32,12-13.81,27.29-15.42,43.44h-3c-.2-12.61,3.74-28.37,10.41-43.49Zm41.3.28c4.61,3.89,8,6.12,10.45,7,0,0-3.25,5.42-3.51,5.22a39.39,39.39,0,0,0-45.87,31h-3a65.24,65.24,0,0,1,7.94-25.06c4.43-7.83,8.51-12.4,14.66-18.17Zm-32.11-.2,4,.07s.75.9,1.08,1.22c1.71,2,1.86,1.57-1.91,3.7-2.38,1.36-3.44,2-3.58,2.55s1,1.71,1.18,2.46c0,.09-3.24,2.27-3.83,2.58-.81.4-.85.74,0,2.16.94,1.62.87,1.57-1.15,3s-2.34,1.24-1.51,2.62c1.16,1.89.62,2.32-2.12,3.81-.69.37-.71.75-.22,2,.66,1.8.84,1.62-.57,2.6-1.67,1.15-2,1.19-1.6,1.89,1.08,2.06,1.5,2.56.07,3.23-1.09.51-1.12.8-.51,2.16s.76,1.31-.31,2.08-1.6.55-.62,1.72c.77.91.7,1.64.07,2.21-.53.23-.79,1.26-.63,1.28h-1.39a1.58,1.58,0,0,1,.13-2.23l.19-.14c.16-.34,0-.58-.49-1.37-.61-1.1-.58-1.23.29-1.88s.9-.48.31-1.92c-.67-1.67-.64-1.86.43-2.63s1.07-.93.35-2.39-.76-1.55,1.12-2.8c1.32-.88,1.34-.82.64-2.46-.48-1.13-.14-1.52,1.65-2.76,1-.7,1.11-.84.62-1.67-1.33-2.33-1.31-2.4,1-3.89,1.88-1.23,1.86-1.33,1.14-3s-.86-1.63,1.71-3.19c2.13-1.28,2.24-1.2,1.36-2.73-1.08-1.92-1-1.6,3.23-4,1.53-1,2.9-.69,1.38-2.47l-1.48-1.78ZM48.86,96.09c.3,0,.53.35.52,1a8.81,8.81,0,0,1-.93,2.83c-.9,1.92-1.79,3.33-2.26,3.34-1.12,0-1.09-.24.4-3.13C47.25,98.81,48,97.3,48.06,97,48.27,96.4,48.59,96.1,48.86,96.09Zm13.63,4.35c0,4.06-12.65,6.11-13.31,4.06,2.2-1.75,8.74-1,10.12-2.52-1.67-.1-4,.17-5.47.2-2,0-5.06.86-5.09,1.21-.2-1.07,3.32-3.07,6.11-3.2,2.59-.11,5.42.2,7.63.25Zm1.08,6.2s-24.72,20.55-36.93,30.5l.08,4.43L65.8,109.4Zm-.08,1,1.58,1.92-36.7,30.05-.11-3.14Zm116,10.54-1.32,1.42c-35.91-26.83-68.91,13.89-50.68,43a7.08,7.08,0,0,1-1.44,1.29c-20.27-33.78,18.53-73.34,53.41-45.71Zm-19.73-5.87c2,0,5.78,1.42,7.37,3.33,1.85,2.23,1.31,3.23-1,1.12-2.52-1.84-4.6-2.27-1.1-.09a6,6,0,0,1,1.51,1.51c.12.38-.52,0-3.46-1.09a9.88,9.88,0,0,1-4.52-3.53c-.46-.86.12-1.24,1.19-1.23Zm-7.53.06a6.59,6.59,0,0,1,1.6.16c2.56.74,3.36,1.13,4.32,1.88.65.5.44.87-.31.54a18.84,18.84,0,0,0-4.19-1.15c-.73.07,0,.55,1,.8,2.31.59,3.47,1.19,1.81,1.22a41.12,41.12,0,0,1-5.66,0c-1.72-.2-4.29-1.77-3.7-2.33s3.16-1.08,5.07-1.1Zm-7.39,2.4c3,0,4.69,1.18,1.36,1.41-5.71.91-6.8,2.16-.48.67,1.48-.35,1.45.19.43.69-.83.41-1.87.61-2.73,1a12.28,12.28,0,0,1-6.53.27c-2.08-.74,4.39-4.06,7.94-4Zm24.47.52c1.54,0,4.81,2.28,6.27,4.38,1,1.37.48,2.36-1,1.25-.29-.22-2.36-2-2.47-2s1.71,1.74,2,2.26.8,1.43-.24,1.46c-1.6-.2-5.39-4.45-5.42-6.55a.75.75,0,0,1,.7-.8h.16Zm-19,1.22c.65,0,.32.32-.9,1.18-2.19,1.55-1,1.24,1.52-.09a9.22,9.22,0,0,1,2-.78,8.63,8.63,0,0,0,.88-.2c.68-.21.16.65-1,1.55a20.13,20.13,0,0,1-6.86,3.85c-2.33.58-2.83.65-2-.82,1.37-2.33,3.37-4.2,5.29-4.56a6.8,6.8,0,0,1,1-.11Zm7.89,0a18.7,18.7,0,0,1,4.08.6c1.34.42,1,.51-.62.69-3,.33-1.76.68,1.17.63,4,0-2,1.45-4,1.74-1.52.07-2,0-5.27-.61-1.26-.23-.51-1.16,1.88-2.31a6.13,6.13,0,0,1,2.68-.69Zm24.69.55.1,2.59L134.57,160.3l-1.64-1.83Zm-16.45,2.23c1.92,0,4.7,1.32,4.41,2.12-.11.3-.33.29-1.8-.11-1-.25-2.69-.53-2.46-.31a13.59,13.59,0,0,0,2,.72c1.7.41,3.75,1.38,3.29,1.67-.78.48-1.51.1-2.44,0-2.35-.33-6.19-1.51-6.82-2.11s1.74-1.91,3.83-1.93Zm-22.57.15c.35,0,.47.34.15.79a14.85,14.85,0,0,0-1.19,2,12.33,12.33,0,0,1-4.19,4.48c-1.55,1-1.77.8-1.64-1.22a7,7,0,0,1,3.79-5.35c1-.14,1.53-.39.51.83-1.82,2.19-.58,2,1.12-.51a2,2,0,0,1,1.44-1Zm-6.28.29c1,0,1.4.37.06,1a21.94,21.94,0,0,0-3.89,2.59c-.1.34.85-.19,2.43-1,2.12-1.17,2.31-1.14,1.28.19a15,15,0,0,1-6.13,4.08c-3,.83-3,.24-1.27-2,1.62-2.48,3-3.66,5.09-4.33a8.05,8.05,0,0,1,2.42-.47Zm-51.79.38c11.07,19.2,5,38.73-7.94,48.69-13.44,10.4-34.36,9.78-46.68-2.71l1.72-1.63s19.46,20,44,2.26c12.4-8.95,17.51-30.18,7.24-44.95Zm-49.66,0H36c-.36.24-1.77,4.39-2,6.12a1.53,1.53,0,0,0,.44,1.39.8.8,0,0,0,.91,0c.93-.42,1.45-1.07,2.27-3.14a5.54,5.54,0,0,0,.52-3,1.85,1.85,0,0,0-.73-.88,3.31,3.31,0,0,0-1.27-.4Zm.22.86a2,2,0,0,1,1.42,1.24c0,.9-.5,2.4-.88,2.18-.64-.8-1.38-.3-1.5-.59a6.25,6.25,0,0,1,.87-2.82Zm119.68.72a20.2,20.2,0,0,1,13.44,4.66l-1.93,1.76a21,21,0,0,0-24.09-.2c-5.76,4.05-10.86,13-5.87,25.57l-1.79,1.65c-5.6-10.12-2.61-23.51,7.3-29.84a24.35,24.35,0,0,1,12.47-3.6Zm-72.86,1.57c.15,0,.38.49.36,1.09s-.34,1.68-.83,1.88-.9-1.43-.9-1.43a5.85,5.85,0,0,1,1.35-1.54Zm88.22.56a2.71,2.71,0,0,1,.57,0c.54.07.55.57,0,1s-.86.54-1.42.13-.53-.64-.09-1a1.91,1.91,0,0,1,.92-.13Zm-94.64.12,1.64,2-5.65,4.6-.67.06L28.65,166.7v-3.2Zm90.56,4.93-5.92,4.9c-11.79-6.17-21.27,4.83-17.92,14.81L138.33,153C129.27,127.82,155.94,119.21,167.28,128.87ZM136.35,125h0a.35.35,0,0,1,.12.07,12.78,12.78,0,0,1-.52,4.17,2.05,2.05,0,0,0-.19.64,27,27,0,0,1-2,4.08,9.31,9.31,0,0,0-.76,1.67c-.68,3.31-2.16-2-1.63-5.1.23-1.45,2.29-4.44,2.88-4.22.3.11.28.34-.25,1.49-1.48,3.24-1.85,4.92-.29,1.78C135.54,126,136,125,136.28,125Zm-100.3.06a.51.51,0,0,1,.49.4,1.53,1.53,0,0,1,0,.9,1.72,1.72,0,0,1-1.62,1,.66.66,0,0,1-.61-.56,1.37,1.37,0,0,1,.37-1.09A2,2,0,0,1,36,125Zm45,.21c.7,0,1.43,1.92,1,2.79-.39.71-.46.57-1.13-.8a13.68,13.68,0,0,1-.66-1.52l.56-.46a.38.38,0,0,1,.15,0Zm-1.18.8a9.84,9.84,0,0,1,.92,2.4c.1.66.08.53-.62.26a3,3,0,0,1-1-1c-.15-.24-.3-.48-.47-.71Zm4.42.29c.38,0,.78.37,1.14,1.28,1.37,3.48,1.24,7.37-.3,9.21-.25.31-.31.32-.62.13a3.56,3.56,0,0,1,0-2.28,7.51,7.51,0,0,0,.32-1.7c0-1.33-.32-1.5-.5-.26-.2,1.42-.42,2.42-.8,1.56a10.4,10.4,0,0,1-.45-1.33c-.83-3,.07-6.62,1.18-6.66Zm-6,.88s1.32,1.72,1.87,2.33c.19.33.19.42-.12.54-.53.2-2.27-1-3-1.34-.37-.3-.21-.53-.21-.53a10.81,10.81,0,0,1,1.39-1Zm52.1.06c.71,0,.71.24,0,1.33-4.2,6.08-3.34,5.17-.67,1.85,1.48-1.85,1.74-2,1.9-1.61s-1.64,3.91-2.56,5.21a10.66,10.66,0,0,1-2.9,2.22c-2,1-1.77.61-1-1.92.79-4,3.16-7.11,5.17-7.13Zm-54.53,2.11c11.47,28.74-20.06,41.33-34.31,28.07l1.7-1.33c19.8,13.5,39.34-8.13,30.4-25,0,0,.81-.68,2.2-1.74Zm2.67.7c1.9.19,4.7,3.67,4.84,5.62.29,1.38-.09,1.62-.77.65-1.13-2.12-1-.78,0,1.32.52,1.06.64,2.32.1,2.39-.73-.15-2.31-2.67-2.79-3.72a12.32,12.32,0,0,1-1.87-5.28c-.19-.69,0-1,.44-1Zm-5.73.94c8.77,16.91-10.1,37.24-29.31,24.1l5.77-4.58c10,4.83,21.19-1.17,18-15.06Zm87.51,3.15-15.88,13.21c-3.23-11,8.68-17.26,15.83-13.26Zm-29.39,0c.52-.11,1,3.23,1,7.9s.21,5-1.2,3.33a14.37,14.37,0,0,1-1.65-2c-.93-1.78-.63-3.65-.38-6.26.24-2.44,1.12-2.06,1,.5-.1,1.63-.08,3.68.18,3.67.09,0,.12-.16.06-.38a42.73,42.73,0,0,1,.66-6.38c0-.31.13-.45.23-.47Zm-43.61,2c1.14.45,1.47,4.28.23,8A5.37,5.37,0,0,1,85,147.5c-.87.46-1.08.31-.68-.49a13.49,13.49,0,0,0,1.4-4.33c.11-1.64-.74-.32-.67.38-.68,3.05-1.56,3.52-1.45.3a7.8,7.8,0,0,1,1.5-5c.52-.91,1.12-2,2.19-2.19Zm39.72.39c.46,0,.58.64.17,1.87a34.77,34.77,0,0,0-1.18,3.62c.07,0,1.15-2.5,1.36-2.91.36-.66.49-.79.8-.76a12,12,0,0,1-.16,4.05c-.65,3.32-2.9,6.76-3.75,5.73-1.41-1.67-.76-8.41,1.11-10.45.62-.84,1.2-1.22,1.57-1.21Zm-60.28.51c1.7,11.76-7.94,16.78-16.29,13.24.1-.11,16.27-13.3,16.27-13.3Zm39.46.21,1.69,2.22,3.08.16-1.58,2.34,1.57,3-3.43.06-2,2.28-1.73-2.06-3-.15,1.75-2.82-1.41-2.69,3.25-.16Zm-25.81,1c.39,0,2.29,2.52,2.48,3.44.57,2.25.36,6.5-.45,6.35-.87-3-.53-4.64-.84-4.28-.55.56.34,5.25,0,6.41-.14.29-.61-.06-1.13-.82-1.4-2-1.21-9.94-.14-11.09Zm102.87,4.76-38.1,31.67,2.19,2.84,35.91-29.84Zm-54.92.55c.16,0,.54.23,1.25,1a19.58,19.58,0,0,1,3,5.79,19.45,19.45,0,0,0,.65,2c.26.65.29.83.13,1-.65.82-3.41-1.24-4.3-3.2-1.25-2.77-1.28-5.25,0-2.83.46.88,1,2.17,1,1.66a15.87,15.87,0,0,0-1-2.83c-.38-.47-1.33-2.53-.87-2.62Zm54.52.77L183,147l-35.52,29.74-1.39-1.69ZM127.58,146c.16,0,.25.26.2.79-.16,1.74-.58,5.5-.49,5.83a20.62,20.62,0,0,0,.67-3c.61-2.5,1.53,3.47,1,6.15-.09.42-.26,1.1-.35,1.52a6.35,6.35,0,0,1-.51,1.31c-1,1.59-3.37-4.73-3-8,.12-2,1.76-4.73,2.35-4.67Zm-41,1.39c.46,0,.55.43.47,1.39-.27,3.29-2.44,6.76-4.83,7.68s-2.6.73-1.19-1c1.08-1.3,1.72-2.66,1.54-2.84s-.34.45-1.21,1.57c-1.08,1.4-1.26.21-.27-1.85a8.27,8.27,0,0,1,3.25-3.79,6.19,6.19,0,0,1,2.12-1.2Zm21.53,1a105,105,0,0,1-10.78,43H90.92c7.77-11.5,12.73-25.75,14.11-42.93Zm2.79,0a10.78,10.78,0,0,1,1.34,1.67c.43.74.55,1.38-.23,1.93-.9.77-1.28.48.19,2.38.78,1,.53,1.17-.43,2s-1,.92-.13,2.09,1.17,1.45-.12,2.42-1.17,1.09-.27,2.51,1.08,1.29-.51,2.65c-1.37,1.16-1.4.84-.08,3,.48.78.45.83-.43,1.61-2.19,1.94-2.07,1.82-1.76,2.33,2.38,3.44,1.31,3.34-1,5-.47.41-.35.86.7,2.59.89,1.46.77,1.77-1.33,3.22s-2.26,1.72-1.17,3.27,1.1,1.41-.65,3c-.78.71-1.44,1.37-1.44,1.37H99.71s.82-.76,1.38-1.17c3.18-2.36,3.17-2.11,1.83-3.82-1.19-1.52-1.07-1.62.13-2.48.86-.62,2-1.27,2.91-1.89.46-.34.12-.62-.67-2.12-.87-1.67-.92-1.48.72-2.83s1.81-1.42.84-3.31-1-1.72.24-2.73c1.83-1.49,1.91-1.41,1-3.15-.76-1.39-.77-1.35.53-2.66s1.14-1.23.36-2.42-.74-1.39.3-2.32,1-.94,0-2.22-.9-1.16.21-2.13c.59-.52,1.17-1,1.14-1.28a7.24,7.24,0,0,0-1.25-2.36c-.22-.32.22-.42.92-1.13s.67-.56.13-1.54c-.28-.53-.83-1.42-.83-1.42Zm-10.38,0h1.11a5.37,5.37,0,0,0,.44.51c.71.73.74,1.16,0,1.55s-.41.9.15,1.73.61.8-.26,1.68-1.36.94-.37,2.33c.56.64.49,1.31-.38,1.88-.68.44-1.79.81-.62,2.5.58,1.2.63,1.13-.57,2-1.59,1.14-1.89.94-1.16,2.59.81,1.84.89,1.87-.78,3.11-2,1.43-2,1.55-1.19,3.26s.83,1.29-1.22,2.9c-1.5,1.18-1.85,1.25-1.4,2.21.83,1.83,1.19,2.32-1.24,3.57-2.81,1.45-3,1.56-1.6,3.71,1.09,1.75.84,1.5-1,2.55-2.62,1.52-3.78,2.17-3.86,2.64s2,2.12,2,2.12l-3.65.1s-1.53-1.26-2.13-1.84c-1.66-1.61-1.68-1.08,3.82-3.77,3-1.48,2.78-1.14,2.29-2-1.47-2.54-1.52-2.81,1.23-4.2,2.38-1.21,2-1.29,1.39-3.12-.51-1.58-.43-1.43.83-2.37,3-2.27,3-2,2.49-3.15s-.83-1.59-.48-2.13c1.09-1.58,3.41-1.92,2.47-3.8-.45-1.2-.6-1.48.74-2.53s1.21-.89.43-2.22c-1-1.23-.8-1.43.58-2.4,1-.89,1-.87.42-1.75-.77-1.22-.73-1.26.36-2.21.89-.78,1-.83.47-1.69-.74-1.13-.63-1.38.37-2,.6-.35.59-.49.54-1.07a6.26,6.26,0,0,0-.32-.75Zm13.71.06h5.08a42.26,42.26,0,0,0,6.1,16.37c-6.43,10.39-5,19-1,26.64l-16.11-.06a143.07,143.07,0,0,0,5.85-42.94Zm-34.92,0c.18,0,.31.29.63.83,1,1.75.3,4.22-1.19,6.82-1.11,2-1.32.46-.8-2.34.31-1.76-.57.88-1,3-.23,1.14-.78,2.08-1.38,2s-.3-1.71-.3-2c.13-2.56,1.08-4.36,2.91-6.89.59-.86.87-1.28,1.08-1.3Zm51.93,5a2,2,0,0,1,1,.33c.33.18.9.54,1.31.76,1.41.79,1.53,1,.85,1.81-.82,1-1.36.6-2.79-1-1.09-1.06-1.1-1.83-.48-1.85Zm-.47,2.13a2,2,0,0,1,1.15.78c.93,1.08.82,2-.21,1.71-.37-.73-.7-1.48-1-2.24-.26-.11-.21-.2-.07-.2Zm45.51.16a3.55,3.55,0,0,0-2.69,2.41c-.88,3.71-.88,3.55-.09,4.09l.51.35c.46.37,1.09.93,1.18.82.74,0,1.87-4.76,1.84-5.74s.08-1.15-.18-1.62a.6.6,0,0,0-.69-.22Zm-46.13.08a.26.26,0,0,1,.22.1,7.3,7.3,0,0,1,1.13,2.39,1.56,1.56,0,0,1-.15.6c-.51,1-1.3,0-1.38-1.66-.05-1,0-1.39.18-1.43Zm46,.74h.12c.59,0,.5.65-.34,1.56-.44.48-1.35.7-1.65.41s.47-1.61,1.45-1.89H176ZM74,157.11h.1a1.07,1.07,0,0,1,.79.4,2.16,2.16,0,0,1,0,1.92c-.49,1.7-3.65,5-4.78,5-.67-.12,2.15-3.72,2.24-4.33-.21-.21-2,1.83-2.78,3.24a8,8,0,0,1-1,1.56c-.59.06-1.27.44-1.28,0,.1-1.79,3.61-5.72,4.81-6.82a3,3,0,0,1,1.87-1Zm8.46.17c2.71,0-2.63,5.93-6.07,6.78-1.09.27-3.06.34-3.2.11s0-.4.46-.51a18.91,18.91,0,0,0,4.24-2.72c0-.33-1.46.22-2.71,1-.81.53-1.19.42-.75-.22a9.53,9.53,0,0,1,8-4.47Zm46.91,0c.15,0,.31.32.4,1,.49,1.28.51,1.63.06,2-.8.64-1,.46-1-1,0-1.22.27-2,.53-2ZM40,159s1,.38.57.85-1.5,0-1.5,0Zm136.15,0c.33,0,.34.28.16,1-.09.39-.48,2.49-1.16,3.07a4.73,4.73,0,0,1-1.36-.83c-.13-.12-.52-.42-.57-.61a1.91,1.91,0,0,1,.49-1.86,1.54,1.54,0,0,1,.76-.26,4.07,4.07,0,0,0,1-.34,2.28,2.28,0,0,1,.69-.13ZM40.26,160.47a7,7,0,0,1,2.14.3,28,28,0,0,1,6.23,2.78c.82.78-1.32,1.62-3.91,1.65-1.36,0-1.62-.27-3.51-1.4-.24-.16-1.34-.89-1-1.15s1.41.1,2.72.78c.43.21,1.47.15,1.47,0a25.63,25.63,0,0,0-4.58-1.84c-1.29-.42-1.26-.83-.48-1,.23,0,.57-.06,1-.07Zm-2.58.91s.55.48,1.25,1a9.32,9.32,0,0,1,2.33,2.23c.89,1.1,2.3,3.83,2.15,4.33-.37,1.12-4.14-.86-7.23-4-.56-.55-1.09-1.14-1.6-1.75l1.19-1.08L38,164c2.24,2,2.22,1.31,0-.78-.64-.6-1.23-1.13-1.23-1.13C36.72,161.82,37.08,161.46,37.68,161.38Zm92.29.09s1.21,1.26,1.65,1.84c-7.34,7.22-10.15,17.32-3.06,28.07h-3.41c-6.37-12.62-3.35-22.11,4.82-29.89Zm-62.17.3c.45,0,0,.52-.77,1.91-1.52,2.59-1.81,3.24-4.28,3.89a12.08,12.08,0,0,1-1.9.08c-1.06.13-.59,0,1-1.06,2.24-1.47.34-.71-1.74.36-1.2.63-2.46.6-2.57.27-.06-.17.49-.64.84-1,3.16-2.84,4.14-2.72,7.07-3.75a13.5,13.5,0,0,1,2.36-.65Zm-13.22,2.59a15.27,15.27,0,0,1,3.16.33c.63.15,1.66.27.79,1.06A10.67,10.67,0,0,1,53,168c-.28,0-4.3-.27-3.43-1.14a9.06,9.06,0,0,1,1.18-.16c2.23-.43,1.63-.79-1.11-.64-3.44.18-3.6-.17-1-.89a23.51,23.51,0,0,1,5.48-.83Zm18.36.26c1.53,0,2.71.26,2.72.85,0,1-2.89,3-4.78,3.45l-1.41.31a25.45,25.45,0,0,1-4.7-.11c-1.72-.62-.53-.87,2.63-1.24,1.37-.16,2-.52,2-.78a5.69,5.69,0,0,0-2.53,0c-1.67.22-1.35-.28.75-1.37a13,13,0,0,1,5.32-1.11Zm-28.31,1.32a7.57,7.57,0,0,1,1.6.55c1.83.53,4.34,1.14,6.07,3,1.39,1.35,1.73,1.79,1.43,2.26s-4.67.14-6.49-.64A8.59,8.59,0,0,1,44,168.54c-1.59-2.32-.93-2.94,1.09-1.31,2.43,2,2.79,2.15,3.22,2.06.18,0-.25-.43-1.07-1-2-1.53-3-2.35-2.57-2.34Zm14.91,2.49A7.82,7.82,0,0,1,64,169.5c2.48.86,1.88,1.64-2.5,2.74a8,8,0,0,1-6-.84c-3.52-2.17-3.29-2.61.65-1.63,1.29.31,2.58.37,2.66.13s-1.51-.58-2.78-1-.19-.42,2.56-.45Zm101.53,9.43s-.46.21-.66.32a16.33,16.33,0,0,1-2.71.34,19.32,19.32,0,0,0-6,1.27c-2.41,1-4,4-4,4,1.8-.12,12,1.73,14.82-2,.59-.78-1.52,5.83-2.61,6.12-2.68-.32-3.81,3.91-3.54,3.74-2.71,1-4.81,1.67-4.12,4.83.3,1.38,1.69,3,4.64,2.61-.81,5.48,5.86,6.9,6.6.29,0,0,1.3-.25,1.8-.31,3-.72,3.79-5.19-.69-6.61-1.23-.37-1.31-.6-1.31-.6a4.1,4.1,0,0,0-.55-3.25c1-2.36,3.45-6.9,3.45-6.9Zm.46,1.36c.62.83-2.58,2.19-6,2.49a20.72,20.72,0,0,0-2.48.3c-.37.64,6.59.18,8.76-1,.74-.42.8,0,.49.6-2.53,3.25-8.59,2.44-13.35,1.87-.27-.27,0-.61,1-1.47,2-1.59,3.36-2.13,6.45-2.44.84,0,4.72-.73,5.1-.3Zm3.77,3.36a60.59,60.59,0,0,1-2.73,5.69c-.27.27-1.28.47-1.21-.61s2.18-5.94,2.76-6a1,1,0,0,1,1.16.8s0,.08,0,.12Zm1.46.33c.67,4.91,4.36,6.07,7.94,7.62.93.43,1.73,1.19,2.66,1.69,1.76-2.41-.22-7.08-3.31-8.6-2.29-1.08-4.39-1.93-5.68-1.83-.75,0-1.58.54-1.59,1.12Zm1.9-.29a14.12,14.12,0,0,1,3,.66,7.93,7.93,0,0,1,6,6.22c0,.12.19,2.5-.36,2.41-.81-.23-1.25-1.06-2.56-1.61a19.15,19.15,0,0,1-5.32-2.87,5.49,5.49,0,0,1-1.9-3.11c-.14-1,.19-1.09,1-.29,1.86,1.48,3.69,2,5.52,3.43.52.4,2.35,1.41,1.1.15a24,24,0,0,0-4.67-3c-1.84-.89-2.84-2-1.78-2Zm-141,4.9,21,32.94c-5.18,2.74-7.72,3.94-16.29,3.27v.43L28.76,224c6.3,9.87,14.06,22.76,11.86,45.23H66.17s.4.39.44.41c.37.26.93-.44.93-.44l11.53-.07.31.38h5.38S60.2,223.18,47.87,200.22c-5.08-9.21-10.36-13.3-20.17-12.7ZM160,188.6a2.64,2.64,0,0,1,2.76,2.51,1.13,1.13,0,0,1,0,.26,5.59,5.59,0,0,1-.8,2.31l-1.88-1.79-1.78,1.8a3.13,3.13,0,0,1-1.12-2.92A3.35,3.35,0,0,1,160,188.6Zm-21.69.66c1.77,7,3.69,16.56-11.71,38.72-9.11,13.12-12.08,25.49-12.45,40.59h-.87c.42-8.29.48-23.32.48-23.32l.87-.77a4.91,4.91,0,0,1-.57-1.38c-.29-1.27,0-.84.7-4.24,3.11-16.39,23.52-49.61,23.52-49.61Zm-82.22,3.2,78,.36-1,2-75.51-.54Zm104,.59,2.9,2.83-2.83,3.21-3-3.14Zm-2.37,1.21-1.62,1.68,1.37,1.45c-1.41,3-5.17.66-5-1.57.15-2.6,3.17-3.67,5.25-1.56Zm5,3.35L164,196l-1.42-1.56c2.32-2.32,4.53-.27,4.75,1.65s-2.94,4.39-4.56,1.52Zm-92.42-2,6.39.06-2.41,4.48H67.8Zm14.24,0h5.88l-2.49,4.54h-6Zm13.9,0h6.23l-2.54,4.54H95.7Zm13.9,0h6.37l-2.29,4.61h-6.64Zm14.19,0h6.15l-2.49,4.54h-6.32Zm-67.84,0h4.13l-1.68,3Zm103,2.86a2.85,2.85,0,0,1,.52,4,2.79,2.79,0,0,1-2.27,1.11,2.9,2.9,0,0,1-1.49-5.19l1.77,1.63Zm-86.84,2.41h6L78.58,205H72.69Zm13.34,0h6.59L92.44,205H86.15Zm14.1,0h6.55L106.69,205h-6.61Zm14,0h6.51l-2,4.09h-6.86ZM62.66,201h4.21l-1.76,3.27Zm3.08,4.73,60.83.54-1,2H67.36Zm2.14,3.54,57,.15-1.31,2.74-19.7-.09c-3.84-2.88-8.23-1.55-13.23.09,0,0-15.09.16-21,0Zm80,7a36.79,36.79,0,0,1,6.39,14.21c.91,4.57-.08,6.81-1.24,2.81-1.92-10-13.73-11.47-19-3.72-7.32,10.77,5.5,23.84,14.68,15.08.79-.74,1.22-.92,1.48-.61s.1.69-1.54,2.35c-6.38,6.46-4,15.78,4.64,18,12.26,3.08,19.69-12,8.94-19.12-1.11-.85-1.23-1.07-.83-1.52s.68-.37,1.67.53c9.21,8.36,21.76-2.56,15.9-13.85-4.48-8.7-16.95-7.1-19.93,2.56-.56,1.8-.6,1.91-.91,2.11-1.27,0-.38-4.2-.18-5.32,1.45-5,3-9.61,6.09-13.44Zm-98.95,4.62L79,268.65l-6.64-.08L43.89,223.83Zm147.66,2.84c.2.15,3,7.9,2.46,8.6-.17.56-.65.37-.83-.33-1.75-6.69-9.93-5.57-9.93,1.35.05,4.29,4.43,6.14,8.23,3.48.57-.39.83-.4.83,0a6,6,0,0,1-1,1.3c-3.06,3.43-1.91,8.16,2.22,9.13,5.54,1.31,8.23-5,4.06-9.48a9.41,9.41,0,0,1-1.1-1.35c0-.34.46-.28,1,.13,3.84,2.86,8.54.93,8.48-3.51-.07-5.86-7.31-7.41-9.3-2-.5,1.34-.74,1.7-1,1.46-1-.52,2.62-8.87,2.71-8.87Zm-153.71.32,28.39,44.55c-1.3,0-2.51.05-3.81,0a11.36,11.36,0,0,0-10-12.27c2.35-9.74-4.72-13.83-9.42-14.61,1.9-12.66-8.52-14.45-8.67-14.33a10.77,10.77,0,0,0-.29-2.65l3.85-.6Zm-4.62.68c-.06.27.53,2.78-.59,2.32l-.05-2.32Zm-6,.06c.4,1.67,1.26,2,2.42,3.13,0,0-1.49.26-1.83,0A14.87,14.87,0,0,1,31,224.77Zm4.44,2.84A1.31,1.31,0,1,1,35.4,229h0a1.32,1.32,0,0,1,1.41-1.21h0Zm2.57,1C43,228.42,48.43,232.44,47,240a11.81,11.81,0,0,0-1.15-2.5c-2.58-3.5-5.61,1.28-3.57,3.24,1,1,1.48,1.33,1.37,1.42a2.72,2.72,0,0,0-3.3,2,2.78,2.78,0,0,0,.21,1.88c1.6,3,3.81,1.39,5.1-.36,0,0,.8,2.64,1.58,3a2.7,2.7,0,0,0,3.43-1.6c.84-2.18-1.2-2.73-1.65-4,4.31.15,9.82,6.49,7.31,12,.34-1.26-1-4.08-3.61-3.35-1.3.46-1.74,2.36-.7,4.32a5.69,5.69,0,0,0,.52.85,6.13,6.13,0,0,0-1.42.34c-3.38,2.09,1,7.79,3.48,4.23a6,6,0,0,1,.68-.91c.41.79.54,1.91,1.3,2.29,3.1,1.57,4.49-1.74,3.18-3.37l-1.56-2c-.13-.59,9.32,1.9,8.17,11.15h-25c2.32-14.19-3.31-30.44-6.17-35.38l1.3-1.5c.31.61.82,2.16,1.74,2.45,2.91.94,3.79-1.1,3.4-3.19-.21-1.12-1.76-2-2.26-2.18ZM45.91,242a1.25,1.25,0,1,1-1.25,1.26h0a1.27,1.27,0,0,1,1.31-1.1Zm148.93,11.65c-1.67-1.57-3.52-1.52-5.18-1.34l-.09,3.53s4.12-.21,3.58,1.93a16.57,16.57,0,0,0-.35,1.84l-.08,18c.68,7.93,10.82,9.52,13.34,2a10.49,10.49,0,0,0,.39-3.86v-9.51l2.89-.06-.06-3.43h-2.7c.2-4.74-.61-9.32-4-10.41A8.14,8.14,0,0,0,194.84,253.67Zm8.6,8.12c-1.67.31-4-2.88-5.95-5.17.88-1.7,3.57-1.39,4.57-.34,1.44,1.49,1.35,4.31,1.36,5.48ZM55.49,257a1.26,1.26,0,1,1-1.22,1.3v0a1.27,1.27,0,0,1,1.22-1.29Zm140.67,3c1.76,3.48,7.21,6.15,7.28,5.62v9.56c.28,3.84-1.06,5.71-3.47,6-4.24,0-4.19-5.24-4.19-8.18l-.06-9.45a7.86,7.86,0,0,1,.41-3.5Z" transform="translate(-0.01 0)"/>
  </g>
</svg>
