<svg xmlns="http://www.w3.org/2000/svg" viewBox="0 0 212.6 284.97">
  <defs>
    <style>
      .a {
        fill: #d40000;
      }

      .b {
        fill: #e2cf00;
      }

      .c {
        fill: #131f67;
      }
    </style>
  </defs>
  <title>QC</title>
  <g>
    <path class="a" d="M119.75,283.07c.54-7.93.08-16.44.44-22.89-.25-.46.63-1.71.68-1.71a8.77,8.77,0,0,1,0-5.59c5.19-19.77,14.59-35.16,24.27-49.51,7.87,23.71-16.85,40.35-22,61.07-1.74,7.18-1.48,12.19-2.14,18.67Zm-41.1.3L49.25,238l6.38-3.11,30.23,48.38Zm38-84.14c.26,1.3,1.28,2,2.37,1.4s1.19-.62.53.41a2.12,2.12,0,0,0,3.41,2.52,1.73,1.73,0,0,0,.17-2.39c-.69-.65-.84-1,.18-.49,2.57,1,4-2.68,1.5-3.93a2.47,2.47,0,0,0-2.37.45c-.57.59-.65.39-.5-.07a12.53,12.53,0,0,1,.37-1.25,6.73,6.73,0,0,0,.29-1l-2.63,0s.21.6.43,1.1.28.84.38,1c.35.71-.07.45-.78-.08a2.05,2.05,0,0,0-3,.44A2.94,2.94,0,0,0,116.69,199.23Zm3.79-37,5.66-.17,6.21,17.16c-5,8.25-6.31,17.57-.53,27l-17.92,0C118.1,192.07,118.75,177,120.48,162.27Zm5.91,22.32a2,2,0,0,0,.17-2.73c-.87-1-.67-1.08.49-.41,1.69,1,3.3-1.13,2.3-3a2.22,2.22,0,0,0-3.45-.39c-.65.87-.57.07-.07-1.09.18-.43.44-1.23.44-1.23l-2.74.06s.36.77.55,1.27c.5,1.32.52,1.74-.25.89a2.11,2.11,0,0,0-3.65,1.63c0,1.55,1.42,2.55,2.65,1.82.75-.44,1.08-.54.24.47a2.14,2.14,0,0,0,.4,2.77A2.41,2.41,0,0,0,126.39,184.59Zm-37.86,5.34c.22-.16.3-.05.16.17a8.64,8.64,0,0,1-.66.73c-1.28,1.42.38,3.23,2.44,2.95,1.4-.19,2.22-2.4,1.19-3.27a3.22,3.22,0,0,1-.86-.57c0-.13,0-.21.17-.16a7.89,7.89,0,0,0,.74.43,2,2,0,0,0,2.62-1.11,2.67,2.67,0,0,0-.86-2.8,2,2,0,0,0-2.7.54c-.72.95-.81,0-.23-1.26a7.2,7.2,0,0,0,.37-1.19l-2.52.13s.13.55.35,1.17c.56,1.42,1,1.83.25,1.09-3.08-1.81-4.1.66-4.15,1.64-.09,1.84,2.59,2.89,3.69,1.51Zm12.31-27.82,4.55,0c-3.43,18.22-10.45,33.48-22.26,44L60.89,206l-10.71-7.49,4.14-5.37C82.54,196.09,94.56,182.09,100.84,162.11ZM80.39,204.35a2,2,0,0,0,1-3.11c-.79-.91-.87-1.2.35-.49,1.63,1,3.21-.94,2.41-2.8a2.14,2.14,0,0,0-3.2-.73c-1,.74-1,.41-.46-.77A9.52,9.52,0,0,0,81,195l-2.79,0a10.08,10.08,0,0,0,.41,1.12c.46,1,.63,1.52.41,1.52a2.44,2.44,0,0,1-.65-.5,2.41,2.41,0,0,0-2.63-.07c-1.67,1.59-.73,4.38,1.39,3.86,1.37-.33,1.69-.85.55.44C76.24,202.94,78.41,205.22,80.39,204.35Zm-17.57-.56a1.85,1.85,0,0,0,.89-2.73c-.65-.86-1-1.41.19-.64,1.53.77,2.87-.25,2.85-2a2.17,2.17,0,0,0-3.58-1.58,2.48,2.48,0,0,1-.63.36c-.18,0,.15-1,.52-1.64.16-.28.44-.85.44-.85l-2.78-.11a10.32,10.32,0,0,0,.37,1.35c.44,1.18.55,1.58-.23.9-2.09-1.95-4.32.54-3.44,2.69a1.77,1.77,0,0,0,2.74.61c.76-.59.37.19-.15.82C58.58,202.68,60.67,204.8,62.82,203.79ZM190,158.12l.14,3.37-36,30-1.51-2.32ZM56.14,164.43c5.19-3.69,11-10.31,16.64-13.76C76.94,160.22,67.19,169.59,56.14,164.43ZM151.26,162c-5.21-17.9,19.41-16.71,16.32-12.91Zm-117-11.69,35.63-29,1.62,2.44-37.59,30.8ZM131.86,121c.1.31,1.18,1.47,1.18,1.57-.31-.23-2.14-1.25-3-.26a3.44,3.44,0,0,0-.67,2.14,2.12,2.12,0,0,0,3.53,1.08c.38-.31.7-.7.78-.57a3.14,3.14,0,0,1-.31,1.12c-.2.45-.91,1.4-.39,1.4h2.53a5.5,5.5,0,0,0-.4-1.25c-.56-1.23-.54-1.89.14-1,1.33,1.72,3.91.29,3.64-1.78a1.93,1.93,0,0,0-2.81-1.63c-.12.08-.48.43-.53.44s.24-.56.48-1c.82-1.56-.4-3-2.26-2.85a2.62,2.62,0,0,0-1.27.48A2.06,2.06,0,0,0,131.86,121Zm30.77-14.57a61.16,61.16,0,0,0,10.69,7.78L170,119.54c-22.8-2.12-39.38,6.9-46.3,31.34l-3.76.72c1.41-15.24,6.52-30.36,21.62-45.14Zm-21.85,3.65c0,.72,1.33,1.58,1,1.78-.13.07-.92-.62-1.29-.65-2.63-.28-3.17,3.81-.57,4.27a3.31,3.31,0,0,0,1.89-.49c.42-.34.71-.62.79-.59s-.2.79-.49,1.33-.63,1.48-.63,1.48a7.35,7.35,0,0,0,3,0s-.27-.86-.54-1.51c-.35-.83-.42-1.36-.19-1.31s.22.29.43.47a2.23,2.23,0,0,0,3.69-1.1c.47-1.64-1.48-3.32-2.85-2.4-.47.31-.47.07,0-.64a2.17,2.17,0,0,0-.06-2.24C143.55,107,140.71,108.08,140.78,110.09Zm21.48,4.85c-.07-.37,0-.26.41.13a2.2,2.2,0,0,0,3.79-.6c.53-1.65-1.08-3.54-2.48-2.89-.72.34-.73.22-.32-.32,1.07-1.4-.11-3.23-1.95-3.21a2,2,0,0,0-1.85,3c.33.57.22.69-.36.41-1.72-.84-3.33,1.88-2.07,3.5a2.43,2.43,0,0,0,3.44.1c.52-.5.51-.26.13.78s-.69,1.63-.69,1.63l3,0A13.12,13.12,0,0,1,162.26,114.94Zm-63.7,36.55s-4.42-12.29-5.93-18.18c3.27-7.84,7.75-15.44.22-26.72l18.3,0c-5.65,12.82-5.77,45.17-7.1,45.24Zm1.6-14.38a5.49,5.49,0,0,1-1-2.25c-.1-.65.06-.69.4,0,1.63,1.8,3.83.06,3.84-1.53.19-1.46-1.52-2.71-2.61-2-.77.51-1,.37-.29-.58a2,2,0,0,0-1.82-3.07c-2.24,0-3.1,2.13-1.49,3.63,1.19,1.1.08.45-.87.05-1.84-.77-3,1.1-2.22,3a1.94,1.94,0,0,0,3.22.59c.54-.58,1-.91.75,0a13.12,13.12,0,0,1-1,2.21Zm2.84-19.7a7.05,7.05,0,0,1-1.27-2.38c-.07-.38.2-.29.81.24,2,1.69,4.68-1.34,2.84-3.19a1.57,1.57,0,0,0-2-.43c-.91.48-.84.24-.38-.25a2,2,0,0,0-.1-2.71c-2-1.78-5.17.88-3.31,2.79.81.83.42.72-.47.18-1.68-1-3.55,1.76-2.28,3.38,1.5,1.27,2.62.65,3.66-.15.23-.12.42-.17.42-.08s-1,2.63-1,2.63Zm-24-7.66c-1.11-.08-1.91-10.51-.54-13.81C81.36,82,90.24,71.85,95.76,63.32c8.87-12.71,7.77-33.82,8.14-33l1.26.14s-1,12.38-.42,18c.57,4.92.45,5.22.09,5.71-.09.46,0,1.8,0,2.26-4,18.21-13.37,36.92-23.09,51.06ZM170.17,78,140.22,30.73l7.2-.65c2.67,4.23,28.69,44.58,28.69,44.58Z" transform="translate(-5.81 -13.92)"/>
    <path class="b" d="M46.87,284.22c3.4-12.49-5.82-41.52-11.59-45.31,6.76-.29,14.89-.17,14.64-.8,0,0,28.75,45.22,28.52,45.46s-31.57.65-31.57.65Zm116.54-70.83c-7-1-4.23-6.77.26-7.37-.59.09.48-2.88,4.09-4.08.82-1.49,1.46-4,2.21-5.21-2.16.7-4.79,2.53-14.63,1.09.85-4.66,10.27-5.46,13.66-4.74,2,.46,3.89,3.38,4.49,3.44,6-1,13.73,4.46,11.4,10-.36.79-1.28-.94-3.31-1.68-6.57-2.38-7-5.94-8.55-7.53-.55-.11-3.45,5.65-3.45,5.65l.91,3.9c1.57-.14,8.58,4.19-.14,7.12-2.42,8.32-7,2.45-6.94-.6Zm16.51-37.12c-.38-.38.29-3,1.18-4.45a2.55,2.55,0,0,1,2.22-1.23c1.16.2,1,1.87-.55,6.78C182.71,178.08,181.15,178.16,179.92,176.27ZM41.15,141.89c-1.91,0-.2-5.21,1-6.86.39-.51,1.91.58,2,1.34C44.26,137.71,42.19,142.43,41.15,141.89Zm-1.36-35.36c2.34.57,6,2.92,7.78,4.21,2.19,1.63,1.59,4.84,3.34,5.12,1.19-.58,3.36-5.84,3.36-5.84s.54-2.69-1-3.53c-3.84-2.06-3.77-4.3-3.53-4.5,1.14-2.95,3.41-2.42,4.63-2.59,0-1.61,0-5,3.32-4.67,2.92.28,3.21,4.45,2,4.49,0-.07,5.53-.79,5.48,2.87,0,2-3.33,4.53-4.35,3.6,0,0,.55,4-4.43,5.32-1.16,1.18-2.11,6.22-2.11,5.77,3-2.71,7.7-3.34,15.11-2.37-4.59,8.51-17.29,4.53-18.28,2.88C44.7,115.36,38.7,112.85,39.79,106.53ZM94.5,86.12c6.76.62,14.16-1.5,19.78-.38.64.09,1.33,1,1.72,1.24,2.9,1.59,6,1.1,10.62-.67,1.16-.44,22.59-.27,22.59-.27,4.88,7.21,13.56,20.77,13.75,20.31,0,0-11.88-.13-17.36.19-3.84.23-1.58.76-4.25.87-18.73,14.07-22.3,44.46-22.3,44.46s6-1.57,7.51.08c7.36-21.54,21.34-31.37,40.83-29.45,9,.89,19.76,9.75,19.76,9.75l-19.28,15.69c-14.93-7.54-21.33,14.66-16.8,14.72l38.82-31.73s.66,2.59.59,2.68c-2.76,3.63-49,41.19-49,41.19l-2-2.25s-1.28,1.14-1.95,1.89a4.17,4.17,0,0,0,1.3,3.24c-9.16,7.36-9.47,20.85-2.71,28.22,0,0-3,.21-3.31.27-3.81.65-7.75-18.13-.2-26.87-3.81-7.47-6.16-17.63-6.63-18.1.1,1.2-6,.8-6,.8-.47,15.18-2.05,30.06-5.7,44.4l28.08.61-11.95,20.74s-13.42-.33-19.2-.74c-6-3.51-9.51-.84-15.17.46-8.06.24-19.93-.14-19.93,0-4-8-8.35-13.86-14.22-20.71-.75-1.25,23.85-.48,23.85-.48s12.3-18.6,14.54-23.86c1.75-4.1,5.67-19,5.67-19,.18.78-2.23-3.88-7.86-3.77C93.36,190.5,56.63,200.91,34.52,181l-.2-3.6L83,137.91l2.16,2.5c-.46-.37-29.9,24.13-29.41,24,8.72,4.57,18.82.87,17.65-14.12a166.13,166.13,0,0,0,19-16.76c.13-.23,6.71,14.78,6.55,17.67,3.79-1.28,6,1.39,6,.94-1.36-8.68,6.24-41.59,6.39-45.38-4.23-.34-9.82-.18-18.6-.53,7,13.65,4.6,22.9-5.26,31.3l-2.06-2.59c.84.47,14.4-11.27,3.48-28.8-.5,0-5.76-.47-5.76-.47S94,88.54,94.5,86.12Zm52.34-56.41s30.75-.74,30.76.17a71.78,71.78,0,0,0,12.16,45.51s-13.62-.48-13.37-.31Z" transform="translate(-5.81 -13.92)"/>
    <path class="c" d="M191.56,28.64l-159.83-.2,1,256.53H192.36Zm-14.62,1s-2.06,27.13,12.11,44.92c-8.65-1.31-13.61,0-18.65,3.57l.69.71c6.94-4.26,12.82-3.14,18.85-2.47l-.17,34.93c0,1.69-7,.94-11.46-2.39a21,21,0,0,1-6-5.8c-.37-.59-.76-1.18-.87-1.31-.4-.46-2.93-5.17-7.56-14.07-2.35-4.52-5.47-10.7-8-15.48-1.63-3.1-4.68-9-4.89-9.42-.45-1-3.76-7.44-5.05-9.79C142.5,46.84,137,36,135,32.11c-.43-1-1.09-1.47.09-1.44a5.18,5.18,0,0,1,.68.06c.21.11.46-.36.46-.36ZM34.63,176.55l-.11-2.75L81,135.49l1.49,1.91ZM79.5,109.44l-.61.21c-1.19-5.31-.51-12.42.89-17.76,2-7.42,5.88-13.37,10.14-19.35,9.73-13.65,14-23.94,13.87-42.28l1.39.15c-.05,2.89-.44,5.07-.55,8.93a70.8,70.8,0,0,0,.33,11.3c.22,2,.35,3.27,0,3.52a1.26,1.26,0,0,0-.16,1.07c0,.55-.1,1.65-.1,1.65C102.49,67.8,90.53,95.79,79.5,109.44Zm5.81,24.83-2.46-3a2.12,2.12,0,0,1-.19-3.25c4.92-5,5-11.33.2-17-.32-.72,1.47-4.38,1.47-4.38l3.75.06C93.91,113.75,95.51,126.3,85.31,134.27Zm3.44-28.19c.12-.48-5.54-.3-5.54-.3,3.51-5.24,6.5-10.63,9.44-16,4.56-8.19,10.89-22.52,12.87-32.92C107,69,109.14,87,119.54,87.73c3.42.24,7.37-2.1,8-1.71l21.61-.18c4.43,9,9.2,14.78,14.83,20.93a55.69,55.69,0,0,0,13.77,5.32c2.72.68,3,.23,8.33,1a10.94,10.94,0,0,0,3.54-.39c-4.28,3.37-9.21,2.41-14.64,1-.3-.08-.62-.18-.94-.29l-4.1,6.17c-9.13-2.16-38.44-.63-46.17,31.24,0,0,.79.4.61.18,6.14-27.66,32.06-33.17,44.42-30.42l-1.07,1.63c-20.5-2.51-37.2,10.31-41.17,28.5l.39.36c7.7-27.5,40-37.67,60.1-18.61l3.68-2.61-.12,3.53-49.31,41.31-2-2s-.35.26-.74.59c-1.27,1.06-1.77,1.32-1.42,1.91s1.74,1.92,1.8,2.07c-8.18,6.67-10.77,19.52-3,28.52.87,1,.71,1.21.55.13-7-7.58-6.09-21,2.6-27.36l1.76,2.3c-3.83,8.4-5.87,21.5,4.19,22.64,3.61,9.66-.54,21.11-5.17,28.78C135,241,129.06,248.37,125.34,258c-1.8,4-4.67,15.93-4.52,25h-1.08c0-3.72.25-8.12.28-10.94.15-13.73.13-12.92.44-13.26.1-.12.39-.24.42-.34s-.23-.43-.33-.76a4.69,4.69,0,0,1-.27-1.46c0-.51.49-1.25.4-1.42-2.16-7.57-2.34-21.19-9.33-27.45-3.42-2.94-8-3.06-13.87-.65-13,0-11.08.7-21.58.1-4.34-8-9.61-15.71-15.31-21.45-2.67-3-6.37-4.6-9.86-6.75a16.56,16.56,0,0,1,4.72-5.85,8.35,8.35,0,0,1,1.07-1.5c35.41,3.4,43.09-30.9,41.47-30l-.31.27c-9.68,35.34-44.14,34-61.46,18.77,0,0-2.45,2.13-2.45-.21,0-2.12.76-2.73.76-2.73l48.62-39.64c.88.56,1.84,2.45,2.24,2.24.9-.48,2.22-1.43,2.17-2a23.57,23.57,0,0,0-1.77-3.19c13-13.47,7.14-19.48,3-28.71Zm18.43-75.67a.72.72,0,0,1,.62.37c.3.47-.88,3.2-1.61,3.68s-.74-.08-.24-2.72A1.51,1.51,0,0,1,107.18,30.41Zm71.33.05h11.26l.08,43.24C181.44,61.87,177.18,48.25,178.51,30.46Zm-68.31.1c.28,0,.53.07.61.27.29.73-1.36,3.88-3.4,6.49-1.06,1.35-1.6,1.75-1.93,1.42-.28-.61-.27-1.33.71-2.46A24.92,24.92,0,0,0,108.93,32C109.17,31.26,109.41,30.61,110.2,30.56Zm11.56.16c.33,0,.67,0,.76.15A22.44,22.44,0,0,0,132,40.43c.55.31.29,1.1.48,1.65-4.26-.63-9.84-6.66-11.34-11.06C121.12,30.7,121.44,30.71,121.76,30.72Zm6.66,0c.85.86,2.18,1.9,2.48,2.88a3.21,3.21,0,0,1,.19,1.62c-.74.46-4.42-3.8-4.27-4.3A1.9,1.9,0,0,1,128.42,30.71Zm-15.93-.06c.36,0,.91,0,1,.27.46,1.85-3.78,9.1-6.88,11.15-1.1.73-1.17.54-1.08-.69,0-.82.13-.75,1.26-1.83a21.67,21.67,0,0,0,4.35-6C112.37,30.83,112.06,30.66,112.49,30.65Zm2.88,0a1.1,1.1,0,0,1,.88.32c.14.24,0,.63-.18,1.12a31.72,31.72,0,0,1-9,12.89c-1.58,1.23-1.85,1.22-2,0-.07-.73.27-1,1-1.46a21.65,21.65,0,0,0,7.89-10.83c.26-.83.16-1.57.61-1.83A1.57,1.57,0,0,1,115.37,30.68Zm21.5,6.86c.16.28,1.35,2.14.38,1.44A31.87,31.87,0,0,1,135,36.52c-2.72-3.09-2.8-2.9-2.75-3.67,0-1-.69-2.65.86-2.23C134.6,32.42,135.56,35.3,136.87,37.54Zm-12.42-6.8a5.35,5.35,0,0,1,1,.11c1.8,3.38,6.18,6.34,6.16,6.33a6.79,6.79,0,0,1,0,1.72c-.1.46-7-4.76-7.73-7.88C123.89,30.81,124.15,30.75,124.45,30.74Zm-4.88.06c1.61,3,4.94,9.69,12.76,12.4.56.13,1.16,1.73.73,2.17-4.29-1.25-12.07-5.44-14.71-14.53A1.32,1.32,0,0,1,119.57,30.8Zm-2.1.58c-.27,0,3.69,11.43,15,14.84,1,.3,1.55.73,1.48,1.3-.07.73,0,.82-1.14.28-3.07-1.61-7.46-2.36-11.12-.5-.57.29-1.15,1.08-.69,1.58.26.25.91.07,1.73-.25,4.26-1.66,10.79-.69,11.94,1.92.82,1.85,1,3.22.51,3.44s-.92-.45-1.94-1.34C130,49.8,126.09,49,123,51.75c-.67.59-1.33.49-1.56.73s0,.77.23,1.29a1.18,1.18,0,0,1,0,1.15,4.78,4.78,0,0,0-.25,2c.07,1.45,1,2.71,3.81,4.63,2.16,1.5,3.85,2.34,1.22.21-4.54-3.68-5.37-5.18-2.42-3.9s7,0,9.9-2.21c1,0,1.56-.19,2.08.19,2.15,5.05,3.91,11.78,6.78,18.3-3.42,3.86-15.32,13.31-23.8,13-7.33-.29-9.91-12.27-11.53-18.9a41.15,41.15,0,0,1-1.09-9.62.44.44,0,0,1,.32-.07,13.48,13.48,0,0,0,4.41.15c1.95-.46,2.34-.81,2.46-.52s-.68,1.1-2.1,2.07c-.62.42-2.41,1.29-2.22,1.42.43.28,2.6-.87,3-1.18.57-.48,1-.51,1.23-.25s.39,0-.66,2.59c-1.16,2.87-1.05,3.13,1.21,4.9a11.4,11.4,0,0,1,1.67,1.5c.22.36.36.77.46.91.39.51.15-.31-.08-1.62a5,5,0,0,0-1.88-2.39c-1.23-.86-1-1.7,0-4.62,3-8.61,2.24-12.45-1.07-14.32-1.5-.84-5.68-.62-7,.49-.65.54-.56-.53-.46-.6,7.95-5.46,9.82-10.68,11.85-15.7Zm15.34,4.22A89.85,89.85,0,0,1,139.57,43a28.44,28.44,0,0,1,2.15,3.55c.14.22.28.47.18.57s-.36-.15-.54-.28c-1.65-1.25-8.48-9-8.48-9C132.57,36.58,132.35,36.15,132.81,35.6Zm1.35,5.27s5.92,6.46,9.3,9.64a40.15,40.15,0,0,1,1.92,3.75c0,.15-.73-.39-.73-.39-3.74-3.45-7.2-7.33-10.8-11,0,0-.28-1.52-.29-2.14C133.65,40.42,134,40.75,134.16,40.87ZM147,57.43c.8,1.29,1.38,2.45,1.76,3.21.63,1.21.42,1.24-.13.8-4.24-3.47-7.78-7.68-11.77-11.55-.52-.53-1.55-1.71-1.55-1.71s-1.3-2.79-.46-2.73c.66.25,1.09,1,1.51,1.42C138.44,49.11,142.42,53,147,57.43ZM110.07,48.2a5.37,5.37,0,0,1,4.33,1.47c.79,1,1.11,2.51.67,3-.27.28-1.24-.51-1.24-.51-4.11-2.31-5.53-1.19-7.76-.52-.31.1-.65-.76-.25-1.61.82-1.41,2.9-1.75,4.25-1.79Zm25.87,2.18c4.4,4.41,8.86,9.31,13.62,13.1.67.57,1.13.93,1.43,1.24.63,1.24,2.07,4.21,2.07,4.21-5.1-3.57-16.58-15.86-16.46-15.78S135.64,50.9,135.94,50.38Zm-8.61.73a6.46,6.46,0,0,1,2.38.52c2.22.88,3.61,1.82,1.31,1.5-3.19-.43-4.28-.45-5.45-.27-2.17.35-2.34.59-2.53.25C122.54,52.2,124.92,51.13,127.33,51.11Zm-18.12.26a6.19,6.19,0,0,1,2.52.54c2.7,1.19,3.18,2,.88,1.59a14,14,0,0,0-5,.23,10.46,10.46,0,0,0-1.17.46c-.56.18-.71-.24-.48-.94A3.18,3.18,0,0,1,109.21,51.37Zm19.6,3.45.56,0c-.7,4-4.65,3.57-5.71.17h.56C126.3,58.27,127.86,56.36,128.81,54.82ZM131,55c1.82,0,1.7,1.08-.2,1.81-1.46.57-1.62.46-1.09-.63S130.19,55,131,55Zm-18.82.14c.18,3.57-4.78,4.22-5.09.33l.47,0c1.63,3.06,3.51,1.21,4.1-.31Zm2.21.49c.56.38.22.91-1,1.65s-1.39-.14-.48-1.29A1.26,1.26,0,0,1,114.41,55.66Zm8.62,0c.21-.06.73.9.29,1.13-.26.14-.65-.26-.69-.55A.53.53,0,0,1,123,55.65Zm14.87.23c3.31,3.65,6.65,7.31,16.41,15.26A31.7,31.7,0,0,1,156,74.55c-.24.29-.37.26-1.05-.08A111.61,111.61,0,0,1,138,58C137.81,57.24,137.31,56.49,137.9,55.88Zm-31.6.36c.38,0,.91.83.62,1.33-.25.19-.62-.1-.78-.33a.93.93,0,0,1-.06-.84A.25.25,0,0,1,106.3,56.24Zm33,5.06c0-.13,15.42,15.52,17.4,15.22.92.54,3.21,5,3.21,5s.06.4-.31.22c-2.61-1.3-13.53-10.35-19.1-17.09A26.78,26.78,0,0,1,139.28,61.3Zm-18.35,2.29c2.69,1.31,1.54,4-1.3,2.28-2.24-1.36-4-1.49-4-.31a1.33,1.33,0,0,0,1.21,1.13,22.34,22.34,0,0,1,3.2.71c1.69.37,3-.08,3.39-1.11.72-1.75-1-3.66-2.12-3.56s-.85.65-.37.86Zm21.32,4.28a109,109,0,0,0,18.4,15.57,28.41,28.41,0,0,1,1.62,3.3c-.05.24-.28,0-.28,0-5.42-3.13-12.57-9.34-19.34-16.39a17.68,17.68,0,0,1-.85-2.57C142,67.72,142.11,67.81,142.25,67.87ZM124.38,71c-.24,0-.57.41-1,.63-.83.45-1.09.57-3.11,0-1.1-.33-1.28-.31-1.94.18a1.25,1.25,0,0,1-1.53.2c-1.15-.51-1.69-.14-2.75.24s-1.37-.08-2.28-.29a19.19,19.19,0,0,0,0,3.8s1-.55,1.46-.81c.89-.45.76-.38,2.05-.33a10.07,10.07,0,0,0,5.08-.28,4,4,0,0,1,3.94.53c.67.55,1.55.46,1-.55a6.25,6.25,0,0,1-.54-2.1c.07-.72-.08-1.17-.35-1.19Zm20.4,2.88c3.62,3.47,8.08,8.77,18.58,14.91.55,1,1.29,2.23,1.76,3.23,0,.27,0,.52-.29.42-6.49-4.11-10.1-6.11-19.09-15a23.15,23.15,0,0,1-1.62-3.68C144.22,73.41,144.63,73.76,144.78,73.85Zm-1.53,1.32,4,7.54-13.53,0A52.06,52.06,0,0,0,143.25,75.17Zm-22.41.18c-2.22.88-2.56,1.06-4.76.52-1.29-.31-.93.44-.28.74a5.92,5.92,0,0,0,5-.38C121.35,75.85,121.76,75,120.84,75.35Zm-2.28,2.32c-2.33,0-4.52.85-4.69,1.79,0,.18.16.39.52.17,1.58-.95,5.49-1.26,8.45-.19.48.17.56-.12.07-.53A6.77,6.77,0,0,0,118.56,77.67Zm29.51,3.22a86.88,86.88,0,0,0,18,13.17,23.9,23.9,0,0,0,1.84,3.4c-8.83-4.28-18.45-12.74-18.45-12.74a31.18,31.18,0,0,1-1.87-3.85C147.58,80.48,148,80.8,148.07,80.89Zm3,6.3a101.26,101.26,0,0,0,17.25,11.44c.37.36,1.29,2.55,1.59,2.79s-.36.23-1-.11C164.1,99.1,153.79,92,153.79,92,152.8,90.39,151.38,88.7,151.09,87.19ZM54.63,115.67a49.83,49.83,0,0,0,2-4.76,4.58,4.58,0,0,0,4.06-1.79c1.11,0,2,0,3.47-.07,0-1.5,0-3.62,0-3.62,1.54-1.58,2.58-3.4.2-6.19,0,0-.1-1.31-.13-3.53a26.43,26.43,0,0,0-3.56-.06,3.85,3.85,0,0,0-6.58,0s-1.59.09-2.67.09c0,.59-.21,3.22-.21,3.22s-4.64,3.16.17,6.88L51.3,109a18.24,18.24,0,0,1,2.72.24s-1.84,4.27-3.05,6.3c-.41.11-.31-.13-.81-1.55A10.86,10.86,0,0,0,47,109.57c-1.56-1.21-3.7-1.58-5.2-2.63s-2.45-2.32-2.91-2.07a14.38,14.38,0,0,0,.23,5.29c.76,3.09,5.2,5,8.9,6.53.28.18.54.46.54.56,0,.51-.49.35-1.7.23-1.84-.18-2.6.32-3.24,1.89a9.58,9.58,0,0,1-1,1.49,5.53,5.53,0,0,0-.81,1.06,19.93,19.93,0,0,1-.81,1.94,4.1,4.1,0,0,0-.65,1.72,38.6,38.6,0,0,0,.21,7c.25,1.37,2,2.16,2.58,2.28.92.17,1.08,1.1.94,1.86-.71,3.75-2.87,6-3.56,4.82-.18-.32-.38-1.86-.43-1.84a4.91,4.91,0,0,0-.23,1.83,1.18,1.18,0,0,0,1.57.72c1.05-.38,1.89-1.43,2.54-3.81.27-1,.53-1.52,1-1.59.84.06,2.14,1.78,2.14,1.78-4.34,3.61-12.69,10.18-12.69,10.18L34.1,30.46l68.73.13A58.94,58.94,0,0,1,98.7,56.24c-4,9-10.19,15.7-14.94,24-5.72,10-7.56,20.39-5.61,30.83A71,71,0,0,1,62.69,126s-3.51-3.69-5.45-5.76c0,0,.82-.06,1.78-.1,4.44-.5,9.26-1.13,11.11-5.76.27-.51.16-.74-.16-.81-3.48.48-6.5,0-8.48.13-4.82.34-6.86,2-6.86,2Zm.53,3.41s-5.59-2.65-6-2.73c-2.44-.44-8.31-3.5-9.3-5.58-.13-.27-.46-4.07-.56-4.85,0-.24.13-.23.38-.06.63.44,3.06,2,4,2.46,3.71,1.8,5.14,3.08,6,5.8a8.46,8.46,0,0,0,.6,1.53c.3.32.42.29.8,0a18.4,18.4,0,0,0,3.07-6c.09-.25.3-.5.18-.85-.29-1-1-2.24-.28-3.2-2.32.11-4.55-1.59-4.26-3.29.62-3.15,2-2.58,4.46-3C54,92,60.8,93.78,60.78,98.85c7.5.64,4,7.57-.4,6.51,1.73,3.94-3.46,5.42-4.19,4.75-.3,1.27-2.27,5.37-2.69,6.59,5.55-3.94,14.49-2.19,15.79-2.44C66.06,121,55.51,119.36,55.16,119.08Zm100-24.85c1.41,1.08,13.37,8.56,15.58,8.73,0,0,1.06,1.19,1.93,2.27s1.11,1.16,1.21,1.37-.31.19-.38.18c-5.38-2.34-10.85-4.8-15.51-8.69A5.33,5.33,0,0,1,157,96.91C156.54,96.37,155.32,94.43,155.19,94.23Zm4,6c5.47,3.08,10.12,6.06,15.1,7.66a7,7,0,0,1,1.43.54c.35.25,1.87,1.19,2.23,1.4,2.28,1.33,2.51,1.27,2,1.49s-4.62-.92-8-2.17c-6-2.21-8.1-3.46-10.27-5.42C161.12,103.26,158.84,100.54,159.16,100.26ZM50.08,117.41a3.61,3.61,0,0,1,2,.87,25.81,25.81,0,0,0,3.67,2.3c.43.19.56.23.56.23l5.38,6.11L47.81,138.18l-1.48-1.53c-.34-.37-.24-.67.18-1.08a1.85,1.85,0,0,0,.31-1.4,1.46,1.46,0,0,1,.59-1.6A1.58,1.58,0,0,0,48,131.3a1.82,1.82,0,0,1,.75-1,2.14,2.14,0,0,0,.94-2.58c-.14-.43-.21-.54.34-.91a2.55,2.55,0,0,0,1.31-2.25,1.88,1.88,0,0,0-.05-.43c-.19-1,.71-.77,1.45.52a10.45,10.45,0,0,1,.73,3.16c.24,1.54.4,2,.48,1.74.48-1.24-.08-5.92-1.51-6.55-2.08-.93-3.81-2.82-3.29-3.57.18-.25.21-.17,1.48.42a10.87,10.87,0,0,0,1.53.62c1.47,0,.58-.58.1-.64a6.59,6.59,0,0,1-2.49-1.49C49.43,117.73,49.62,117.42,50.08,117.41Zm-3.54.8c1.35,0,1.61.35,1.62,1.52,0,.69.27,1.21,1.35,2.58.44.56.73,1,.7,1.21s-.18,0-1.67-.19c-.53-.06-.8-.07-1,.2-.52.77-1.6,0-2.27-1.15C43.69,119.7,44.26,118.24,46.54,118.21Zm25.79,1.62,14.72,18-1.66,1.29L70.61,121.36Zm-2.46,1.1,1.57,2.67s-4.56,3.9-5.76,5C56,136.45,34.1,154.27,34.1,154.27l-.3-3.58Zm-26.59.49c.29,0,.62.37,1.09,1.08a15.42,15.42,0,0,0,2.19,2.7c1.79,1.66,2,1.51.51,1.66-.58.07-.77,0-1.12.88-1.07,1.33-4.23-3.44-3.49-5.27C42.75,121.76,43,121.41,43.28,121.42ZM48.42,124a1.93,1.93,0,0,1,1,.34c.78.32.83.51.7,1.25s-.67.9-1.74,0c-.81-.76-.67-1.51,0-1.55Zm23.51.44,1.73,2.24L34.38,158.43v-3.66c1,.13,26.14-21.76,37.54-30.34Zm-30.46.37c.1,0,.26.34.7,1a11.18,11.18,0,0,0,2.63,2.91c.88.67,1,1,.37,1a1.13,1.13,0,0,0-.79.59c-.37.64-.4.49-1,.15a4.3,4.3,0,0,1-2-2.15,6.3,6.3,0,0,1-.09-3.26C41.38,124.9,41.42,124.81,41.47,124.8Zm6.2,2.53a1.3,1.3,0,0,1,1.06,2.07c-.37.36-.7.54-1.44.1-1-.57-1.14-1.44-.35-1.94A1.55,1.55,0,0,1,47.67,127.33Zm-6.45,2.52c.22,0,.59.3,1.23,1a7.69,7.69,0,0,0,1.67,1.12c.76.42.8.57.39.91-.18.14-.76.15-.92.61-.45,1.32-2.35-.21-2.54-2.09C41,130.39,41,129.87,41.22,129.85ZM46,130a1.25,1.25,0,0,1,.85,2.23c-.55.39-1.92-.3-2.06-1C44.73,130.76,45.54,130,46,130Zm29.29,1.09A1.32,1.32,0,1,1,74,132.41,1.31,1.31,0,0,1,75.31,131.1Zm-3.93.54A1.32,1.32,0,1,1,70.06,133,1.32,1.32,0,0,1,71.38,131.64ZM45,133.4a1,1,0,0,1,.25,0c1.2.06,1.27,1.2.55,1.82a.92.92,0,0,1-1.37.05C43.48,134.47,43.85,133.46,45,133.4Zm29.27,1.92A1.32,1.32,0,1,1,73,136.64,1.32,1.32,0,0,1,74.31,135.32Zm115.44.08.06,3.32-46.44,38.63-1.57-2Zm-118.11.28-3.44,7.71-1-2H64.6l.79-2.3-1.51-1.84Zm73.08,32.07,6.11-4.9c-2.63-13.27,7.87-18.55,17.84-14.7l6.21-5.29C163.36,133.17,136.29,139.74,144.72,167.75ZM62.05,141.81a1.32,1.32,0,1,1-1.32,1.31A1.31,1.31,0,0,1,62.05,141.81Zm-4,.32a1.24,1.24,0,0,1,1.28,1.27,1.3,1.3,0,1,1-1.28-1.27ZM79.3,144.8l-6.06,4.85c1.57,12.71-4.61,19.18-17.9,14.82l-6.43,5.1C66.27,181.52,89,166.12,79.3,144.8ZM60.66,146a1.32,1.32,0,1,1-1.32,1.31A1.31,1.31,0,0,1,60.66,146Zm127.44.33a1.32,1.32,0,1,1-1.31,1.31A1.32,1.32,0,0,1,188.1,146.28Zm-130.17.31-3.87,7.67-1-2.31-2.6,0,.84-2.67-1.63-1.38Zm125,.81,1.2,2,2.55.06-1,1.93,1.84,1.89-8.29,2ZM48.69,153a1.32,1.32,0,1,1-1.31,1.32A1.32,1.32,0,0,1,48.69,153Zm-3.78.15a1.32,1.32,0,1,1-1.32,1.32A1.33,1.33,0,0,1,44.91,153.11Zm131.58.78a1.32,1.32,0,1,1-1.31,1.32A1.32,1.32,0,0,1,176.49,153.89Zm13.31.21,0,2.92c-12.11,10.69-37.59,31.33-37.59,31.33l-1.59-2s25.92-21.19,39.13-32.22ZM47.54,156.94a1.32,1.32,0,1,1-1.31,1.32A1.32,1.32,0,0,1,47.54,156.94Zm131.65.32a1.32,1.32,0,1,1-1.32,1.31A1.31,1.31,0,0,1,179.19,157.26Zm-3.73.24a1.32,1.32,0,1,1,0,2.63,1.32,1.32,0,1,1,0-2.63Zm14.7.46-.11,3.72c-11.74,10-35.76,29.89-35.67,29.9l-1.82-2.5s26.33-22.68,37.6-31.12Zm-145-.54-3.62,8.17-1.57-2.2-2.28-.16L38.2,161l-2.1-1.43Zm125.61,3.22,2.31-.44-.4,2.37,1.62,1.71-8.52,1.87,4.12-7.64Zm12.72,39.82c1.73,2.58,1.62,5.4.9,5.84a26.32,26.32,0,0,0-2.21-1.52c-4-1.71-7.14-3.12-7.71-5.63C172.28,193.45,182,198.31,183.46,200.46ZM162.6,185.33,176,174.45a13.74,13.74,0,0,1,2.43,1.54c.14.52-.23.69-.77,1.18a1.9,1.9,0,0,0-.42,1.32c0,.75.23,1.08-.07,1.41-.51,0-.91.63-.89,1.16s-.51.86-.82,1.16c-.56.55-.72.66-1.07,2.5,0,.18,0,.66-.29.91-.77.07-1.33,2-1.68,2.08A2.24,2.24,0,0,1,170.7,186a9,9,0,0,1,.05-2.78,7.54,7.54,0,0,0,.21-2.11c-.14-.55-.5-.21-.5.56a13.11,13.11,0,0,1-.32,2.13c-.19.89-.73,2.06-.49,2.76.36,1,1.69,1.48,2.3,2a8.77,8.77,0,0,1,2.1,2.48c1.26,2.31,1.27,2.71.95,4.45-.18,1-1.16.83-1.74.42,0,0-3.76-2.73-5.39-4.09a18.37,18.37,0,0,1-5.27-6.49Zm5.07,7.47a43.38,43.38,0,0,1,5.16,3.28l-3.39,7.07a14,14,0,0,1,.86,3.85c4.3-.33,6.63,6.92-.06,6.25.76,4.47-6.45,8-6.25,0-7.51.58-5-7.93-.36-6.33-.14-3.6,2.26-4.07,4-5,1.39-1.57,2.24-5.13,2.24-5.13l-.34-1.08h0c-1.42,2.48-7.49,3.2-14.15,1.88,1.8-4.28,7.27-4.16,12.33-4.79Zm-13.25,5.38c-.23.85-.23.84.79.73.52,0,2.61,0,4.07,0,2.68.21,6.9.23,9-1.38.41-.39.63-.37.71-.15.18,1-1.87,4.47-1.87,4.47l-3.4,1.87s-1.39.07-3.11,0l0,3.05a4,4,0,0,0,.06,6.83l-.12,3.32,3.27.06c2.18,2.09,3.95,2.08,5.95.12h3.78l0-3.59a4,4,0,0,0,.22-6.07l0-3.64h-2.91s-.6-.46-.62-.83a48.61,48.61,0,0,1,2.53-4.92c.53-.76.39-.33,1.23,1.43,1.21,2.51,2.41,3.53,5.48,5a16.79,16.79,0,0,1,4.5,2.69c.64.61,1,.42,1.25-.48a7.35,7.35,0,0,0-.73-5.84c-2.33-3.87-6.39-4-7-4.94-.09-.22.74-.46,1.63-.86a12.55,12.55,0,0,0,4.07-4.89,7.08,7.08,0,0,1,.57-2.64c.31-.68.34-1,.33-2.81a6.21,6.21,0,0,1,.1-2.84c.14-.94-.36-2.05-1.07-3.42-.27-1.26-.21-.93.61-3.78.14-.46,1.06-4.43-.12-4.7a2,2,0,0,0,.16.22,6.11,6.11,0,0,1,.12,2.6c-.07.19-.2.69-.3,1.11-.71,3.19-1.13,4-1.77,3.29-.16-.17-.75-.41-1.2-.71-.86-.56-.78-.84-.57-1.91,0-.16.39-1.62.35-1.58-.18.51-.31,1.8-.89,2.11-.32.07-.75-.21-1.56-.91-.31-.27-1-.74-1-.74s9.65-8.12,13.24-10.81l0,120.31-68.22,0c-.86-7.46,1.39-17.31,5.1-27.19,2.29-6.1,5.58-10.63,9.3-16.09,7.12-10.42,12.51-21,10.43-34.41a21.62,21.62,0,0,1-.45-3.48c.87-1.62,4.3-6.55,6.81-8.6,3.68-3,8.81-7.5,9.22-7.23a16.23,16.23,0,0,0,4.59,5.71c.33.36.34.68-.43.85-5.09-.05-10.32,1.07-12,5.57ZM36,164a1.32,1.32,0,0,1,0,2.63A1.32,1.32,0,1,1,36,164Zm127.53.29a1.32,1.32,0,1,1-1.32,1.32A1.31,1.31,0,0,1,163.49,164.29Zm2.86,3.61a1.32,1.32,0,1,1-1.31,1.32A1.32,1.32,0,0,1,166.35,167.9Zm-4.25.56a1.32,1.32,0,1,1-1.32,1.32A1.31,1.31,0,0,1,162.1,168.46Zm-4.7,3,2.38-.12a18.17,18.17,0,0,0-.63,2.62l1.94,1.42-8.38,1.43,3.61-7.43Zm-5.72,21.65-14.11-18.22,1.71-1.38,14.22,18ZM150,175.41a1.32,1.32,0,1,1-1.31,1.31A1.32,1.32,0,0,1,150,175.41Zm29.64,2c1.14.89,0,2.14-1.1,1.64a.92.92,0,0,1-.13-1.74A1.12,1.12,0,0,1,179.6,177.45Zm1.52.85c1.17,0,2.47,2.8,2.23,3.62s-.67,1-2.33-.42-1.66-1.44-1-2.19c.36-.42.54-1,1.09-1Zm-27.91.51a1.32,1.32,0,1,1-1.31,1.31A1.3,1.3,0,0,1,153.21,178.81Zm-4.08.5a1.32,1.32,0,1,1-1.31,1.32A1.32,1.32,0,0,1,149.13,179.31Zm28.89.94c1.29.19,1.63,1.17,1,1.9-.81,1-2.63.09-2.2-1.08a1.24,1.24,0,0,1,1.16-.82Zm2.32,1.48c.51,0,1.28.66,2.12,1.82s1,1.74.75,2.53c-.39,1.17-.64,1.38-1.48.25-.32-.43-1.06-1.43-1.59-2-1.12-1.18-1.3-.88-.63-1.78C179.82,182.14,180,181.76,180.34,181.73Zm-3.05,1.38c1.17.6,1.28,1.38.59,1.94a2,2,0,0,1-2.52-.89C175,183,176.2,182.39,177.29,183.11Zm2,1.73c.66,0,1.2.64,2,1.94,1.37,2.22,1.45,3,.28,4.43-.85,1-.93,1.1-1.76-.57a13,13,0,0,0-3.14-3.94c-.49-.4-.67-1-.31-1l1,0a1.46,1.46,0,0,0,1.21-.45A1.18,1.18,0,0,1,179.27,184.84Zm-4.73,1.73a2.62,2.62,0,0,1,2,1c.67.7.59,1.35-.72,1.47-.59.24-2.2-.82-2.21-1.53A.88.88,0,0,1,174.54,186.57Zm3.09,2.57h.1c.55,0,.83.56,1.45,1.8.95,1.91.68,2.95-1,3.8-1.11.57-2,.74-2.11.09,0-.19,0-.74-.13-1.28a5.64,5.64,0,0,0-.92-2.4c-1-1.51-1.18-2.05-.08-1.61a2.16,2.16,0,0,0,1.89-.14,2,2,0,0,1,.77-.26Zm-5.58,3.07c-.38,0-.63.23-.52.85.35.17.89,0,1.31.16s.9,1.11,1.5,1c.06-.76-1.45-2-2.29-2ZM58.21,205.52c-3.08-1.46-10.69-4.85-14.36-4.9-6.8-1.91-7.26-1-9.64-1.65a25.63,25.63,0,0,1,24.49,6.08C60.15,206.49,59.36,206.07,58.21,205.52Zm8,29.77c7.22,12.53,14,26.67,25.26,47.6l-1.09.34-43.08.08C49.47,260.18,37,238.15,36.13,239c9.76.18,17.86-1.7,19.57-5.3l-1.39-.4c-5.68,4.91-13.91,5.13-19.59,3.62.13-12.05-.55-24.78-.17-36.83,6.71-.49,12,2,15.67,6.87C56.48,215.21,60.72,225.69,66.25,235.29ZM46.49,201.9c1.73-.13,11.16,3.75,15.38,6.65a24.35,24.35,0,0,1,2.88,3.52c0,.56-.82-.13-4.9-2.45a93.06,93.06,0,0,0-9.4-4.45L50,205a4.6,4.6,0,0,0-.63-.58c-1.11-.85-3.26-2.38-2.91-2.51Zm4.58,4.4a69.26,69.26,0,0,1,16.87,9.39c1,.79,2.23,3.76,2.23,3.76-.67-1.26-12.54-8.36-16.71-10Zm3.33,4.54c.52-.31,14.33,7.84,16.36,9.95.92.7,3.07,4.11,3.07,4.8s-.66.08-1.9-1.06A65.66,65.66,0,0,0,56.3,214.21ZM57,215.58c6.49,2.74,14.63,9.34,18.75,13.27a7.63,7.63,0,0,1,1.9,3.18c.08.42-.13.4-.21.62-5.33-6.11-17-13.1-18.6-13.64C58.82,219.39,57.52,216.63,57,215.58Zm21.54,19.06c.74.76,1.93,3.43,1.66,3.75s-.11.08-.43-.14C78,236.56,69.28,228.78,62,224.42c-.69-.34-3-4-2.5-4,3.82,1.25,14.75,10,19,14.26ZM62.7,226a4.13,4.13,0,0,1,.75.39c6.72,3.71,16.46,13.05,18.31,15.29a6.14,6.14,0,0,1,1,2.74c-.08.61-.33.09-3-2.58A97.66,97.66,0,0,0,65,229.9c-1-.7-.83-.79-1.57-2.08s-1-1.88-.76-1.86Zm43,.15c4.8.13,6.68,3.77,9.63,10.46A55.32,55.32,0,0,1,118.86,254c0,.33-.58.05-.85,0a9,9,0,0,0-4.74-.2c-1.36.34-2.66.31-1.26-.61.45-.3,1.67-1.43,2.32-1.83,1.32-.82.52-.81-.79-.17-1,.49-1.65,1.11-2.05,1.21-.25.06-.1-.77.14-1.37,1.4-3.43,1.82-5.46-.26-6.1a5.08,5.08,0,0,1-1.68-1c-.28-.28-.52-1.39-.62-1.43s-.16,1-.16,1.17a3.93,3.93,0,0,0,1.57,2.28c1.45,1,1.73,1.32,1,3.78-1.1,3.44-1.34,4.28-1.54,5.08-.12.46-.34,1.24-.46,1.75a19,19,0,0,0-.3,5.27c.48,3.62,4.38,5.41,9.62,3.4.49-.2.7,0,.7,0-4.17,4.24-8.86,6.95-11.59,15.53-3.51-7.08-8.48-12.62-16.74-14.84L91,264.39c2.89,1.38,8.48,3.26,12,1.15,1.9-1.3,1.33-2.13-1-1.24-2.74,1.07-7.7.94-10.18-.45a1.31,1.31,0,0,0-1.16,0c-.13-.83-1.32-4-1.15-5.15-.1-.16.76-.17.92.05.69.91,4.16,3.64,7.78,3.42a6.65,6.65,0,0,0,4.83-2.29c.13-.12.77-.2.85-.3s0-.39,0-.47-.27-.47-.43-.86a1.56,1.56,0,0,1-.21-1c0-.23.16-.35.28-.51a1.36,1.36,0,0,0,0-.89.55.55,0,0,1-.11-.81c.49-.55-4.21-4.84-5.13-4.83-.33,0-.13.62.54,1.07,2.39,1.58,4.13,3.65,3.73,3.92s-1.37-.25-2.46-.5A8.62,8.62,0,0,0,92.54,256c-1.06.88-3.88,1-3.88,1,0-1.53-6.51-18.65-6.52-17.9,2.35-2.75,9.76-9.25,17.17-12a16,16,0,0,1,6.38-.91Zm-28.12,3.83,13.46.2C87.65,231.85,81.5,238,81.5,238c-1.76-3.54-2.3-5.31-3.93-8Zm-11.64,1.77c1,0,11.69,8.72,13.21,10.77.18.25,1.27,1.39,2.41,2.54,2.76,2.77,3.9,4.37,3.92,5.51,0,.54-.49.19-1.23-.62a79,79,0,0,0-16-14.21c-.77-.41-3.19-3.62-2.37-4Zm36.56,1.6c-.3,0-.25.28-.09.55,1.7,1.5,6.17,1.43,7.72.22,1.4-1.1-.44-.52-1-.27a6.85,6.85,0,0,1-4.64,0,19,19,0,0,0-2-.51Zm4.13,2.45c-1.57,0-3.21.48-2.84,1.06.13.2.56.6,1.58,0,1.48-.73,4.52.23,4.6.25.31.08-1-.87-1.45-1.06A4.67,4.67,0,0,0,106.62,235.76Zm-37.73,1.62c5.74,3.52,12.74,10.55,16.93,15.57A5.14,5.14,0,0,1,87,255.5c0,.91-.19.41-4-3.46a109.47,109.47,0,0,0-10.5-9.47c-1.79-1.31-2.11-1.48-3-3s-1.08-2.18-.69-2.16Zm35.78,1.18a5.35,5.35,0,0,1-3.91-.08c-1.26-.43-1-.06-.49,1.31a8.3,8.3,0,0,1,.36,1.65c0,.31,0,.33.89-.17s.94-.58,2.6-.2,1.71.25,2.5-.16.83-.58,1.3-.39a3.56,3.56,0,0,0,3.16-.09,1.31,1.31,0,0,1,1.62.06c.57.28.79.1.57-.47a7.56,7.56,0,0,1-.26-1.5c0-.58-.16-1.11-.4-1a5.67,5.67,0,0,1-2.5.93c-1.59,0-3-1-5.44.1Zm-70,1.19C49,257.59,46.46,283.3,46,283.09l-11.22.05Zm37.24,3.61a88.7,88.7,0,0,1,16.3,15.83c.64.83.12,1.1.44,2.1.12.38-.52-.17-2.33-2.13-2.27-2.43-6-6.08-8.44-8.2-2.68-2.33-3.46-2.91-4-3.7s-2.29-3.81-1.94-3.9ZM104.1,245h-.18a2.21,2.21,0,0,0-1.32,4c.66.61,1.7,1,1.69.64a2,2,0,0,0-.56-.58c-1.45-1.12-1.3-2.86.35-2.88.58,0,.61.2,1.94,1.15,1.56,1.12,3.4,1.12,3.38,0,0-.83-.33-1.68-1.72-1.54a4.27,4.27,0,0,1-1.28,0,4.79,4.79,0,0,1-.92-.43A3.36,3.36,0,0,0,104.1,245Zm-28.46,5.25C80,253.19,86,259.83,89.1,263.74a2.49,2.49,0,0,1,.47,2.48c-.07.11-.61-.23-.61-.23-3.55-4.18-7.58-8-11.54-11.84C77.42,254.15,75.08,250.37,75.64,250.25Zm42.41,6.35-1,.47c-1.43-2.15-2.74-2.18-3.84.33l-.7-.17c-.52-.58,1.89-6,5.49-.63Zm-.22-1.83c.4,0,1.09.23,1.25.63a.52.52,0,0,1-.56.77,4.62,4.62,0,0,1-.87-1C117.46,254.89,117.54,254.76,117.83,254.77Zm-16.06,2.63-1.06.05c-2-2.65-3.52-.88-4.42.23l-1.13-.15c.18-2.91,5.32-3.92,6.61-.13Zm10.29-2.26a1.18,1.18,0,0,1,.46.09,4.07,4.07,0,0,0-.58,1.73c-.41.17-1,.52-1.43.07-.81-.74.43-1.92,1.55-1.89Zm-16.52.29c.5,0,.35,0,.13.25a5,5,0,0,0-.68,1.24c-.06.31-.12.42-.41.43a13.24,13.24,0,0,1-1.68-.17c-.43-.41,1.35-1.7,2.64-1.75Zm6.4.37c.33,0,.25.44.14.63s-.29.33-.41,0a1.49,1.49,0,0,0-.21-.36c-.17-.21-.15-.22.05-.26Zm17.28,2.12c1.23,0,.41,2.05-1.3,2.56-1.9,1-4.07.73-6.28-.53-1.26-.72-1.64-1.48-.54-1.17,4.14,1.14,5.14.92,7.64-.69A.71.71,0,0,1,119.22,257.92Zm-39.79-.46c4.11,3.49,7.21,7.44,10.51,11.08a2.83,2.83,0,0,1,.83,2.13c-.16.66-1.51-.91-1.51-.91s-8-8.61-8-8.61S79.18,257.48,79.43,257.46Zm12.3,1.21a10.92,10.92,0,0,1,1.77.38c4,1.2,5.16,1.15,7.44.11,1.45-.67,2-.57,1.43.43-1.15,1.84-5.18,2.05-8.21,1a8.36,8.36,0,0,1-2.28-1.33C91.46,258.85,91.36,258.66,91.73,258.67ZM110,259.89a3.45,3.45,0,0,1,1.21.56c3.32,1.88,5.77,1.54,7.82.28.37-.34.57-.18.62.15.17,1.14.22,2-.3,2.52a4.2,4.2,0,0,1-1.6.73c-3.22,1.08-7.13.3-7.88-2.11-.24-1.23-.39-2.1.13-2.13Zm-26.33,5.17h0c.23,0,.76.5,1.61,1.46,4.42,5,6.86,7.89,6.41,9.34,0,0-.07.31-.25.15a29.6,29.6,0,0,1-5.89-6.79C84,266.59,83.3,265.09,83.67,265.06Zm35.6,3.52c-3.72,2.85-8.24,9.64-8.65,13-.08.63,0,1.11-.25,1.34s-.61.21-1.17.09c-.34-.06-.26-.1-.34-.49-.32-1.53,1.14-5.38,4.17-9.91,1.59-2.38,5.21-5.6,6.22-5.62C119.92,267.25,119.26,268.61,119.27,268.58ZM91.68,267a3.56,3.56,0,0,1,1.24.37c3.34,1.43,4.59,2,6.75,3.72,4,3.29,8.53,11.11,7.21,11.84-.58.32-1,.11-1.23-.61a16.94,16.94,0,0,0-1-2.16A24.25,24.25,0,0,0,93.5,269.4c-1.83-.9-2-.8-2.16-1.55-.1-.56,0-.81.34-.81Zm27.54,2.87c.33,0,.41.58.3,1.81-.09,1-.15,1-1.27,2.16-1.79,1.45-3.9,4.85-4.88,8.31a.85.85,0,0,1-.26.53c-.46.4-1,.2-1.44.19s-.21-.77-.16-1.13a25.49,25.49,0,0,1,6-10.39c.89-1,1.42-1.46,1.72-1.48ZM92.37,270c1.77,0,8.07,4.66,10.62,8.78,1.66,2.69,2.11,3.79,1.73,4.18a2.11,2.11,0,0,1-1.57.06c-.42-.17-.59-.82-1.38-2.31a18.47,18.47,0,0,0-8.33-8.24,3.55,3.55,0,0,1-1.12-.67c-.21-.45-.49-1.71.05-1.8Zm1,3.49a14.64,14.64,0,0,1,3.34,2c2.25,1.65,5.67,6.69,5,7.42a1.76,1.76,0,0,1-1.42.08c-2.41-4.29-5.54-6.33-6.81-7.52C93,274.85,92.13,273.33,93.33,273.49Zm-5,.76c.11,0,.53.39,1.29,1.19,2.26,2.37,3.7,5,3.37,6.33-.28,1.13-.61.51-3.2-4.42C88.69,275.27,88.17,274.29,88.32,274.25Zm30.93.06a7.91,7.91,0,0,1-.2,2.43c-.1.49-.43.72-.73,1.11a14.26,14.26,0,0,0-2.09,3.95c-.37,1.08-.19,1.34-1.52,1.19-.62-.08-.47-.25-.23-1,.84-2.34,2.85-6.13,4.77-7.72Zm-25.69,2.58c0-.7,6.06,5.37,5.23,6.06-.78.14-1.25.17-1.58-.12-.64-1.44-3.52-4.18-3.52-4.18Zm25.36,1.91h0c.27.06.12,3.8-.1,4.1a2.13,2.13,0,0,1-1.68,0,.55.55,0,0,1-.25-.7C117.18,281.48,118.48,278.89,118.92,278.8Zm-22.79,4.11c-.19.3-1.37.35-1.81,0a5.71,5.71,0,0,1-.12-2.3C94.66,280.34,96.28,282.51,96.13,282.91Z" transform="translate(-5.81 -13.92)"/>
    <path d="M17.77,13.92c-4.69.09-7,4-7,8V32.19H7.93v3.42h2.8s0,1.57,0,2.51c0,4.63,1.6,7.44,4.8,8.22,3.06.56,4.66-.1,7-1.31.84.35,1.44,1.08,2.34,1.17s3.1.06,3.1.06L28,42.74l-1-.15c-2,0-2.87-.73-2.65-2a5,5,0,0,0,.52-2.39V20.76A6.92,6.92,0,0,0,17.77,13.92Zm-.15,3.4c2.24,0,4.11,2.57,4.06,5.24l0,13.49a3.69,3.69,0,0,1-.44,2.26c-.29-.87-4.92-5.6-7.24-5.38,0,0-.1.24-.16-5.69,0-2.91-.8-7.25,1.82-9.21A3.34,3.34,0,0,1,17.62,17.32ZM139.08,29l.75,1-4.42,0c.72.61,17.11,33.58,38.06,71.68,3.47,6.69,10.09,9.1,17.77,9.39L170.89,78.32c2.17-1.18,6.47-4.34,9.07-3.75.17.8.94.48.95-.23l.94,0,.33.51h4l.32-.46,3.41.49C180.76,63.67,176,46.36,177.51,29.47l-30.21.07-.4-.53Zm-3.67,1s0,0,0,0ZM100.68,52c-3.44,11.09-11.93,20.22-17,29.41-5.41,10-6.68,18.75-5.16,28.29l1,.09a164.14,164.14,0,0,0,25.45-53c.11-.41-.08-1.12,0-1.52a1.21,1.21,0,0,1,.11-1.16c.29-.31.18-1.51,0-3.49a80.42,80.42,0,0,1,0-15.84c.38-4.1.36-4.74.36-4.74l-2,0c.36,7-.56,15.56-2.84,22Zm47.45-21.5,3.24.07c.5,9.91,8.84,11.19,10.13,11-2.13,6.7,1.4,14.05,9.89,15.1-1.94,6.21,1.5,14.4,8.3,14.18l.72.45a8.38,8.38,0,0,0-.51,2.76,21.45,21.45,0,0,0-3.31.53C167.81,61.39,148.13,30.5,148.13,30.5Zm28.81,0c-1,11.07,1.24,26.27,6.44,35.25a4.47,4.47,0,0,1-.28.77c-.49.75-.74.1-1-.5-1.1-2-3.2-2.37-4.11-1.23-2,2.76.17,3.85,1.87,5.41-7-.43-9.28-8.09-7.67-11.88a5,5,0,0,0,.86,2.59c2,3,4.81.46,4-1.88a13.32,13.32,0,0,0-1.59-2.59,9,9,0,0,0,2.39-.67,2,2,0,0,0,.89-2.09,4.25,4.25,0,0,0-.59-1.82,2.81,2.81,0,0,0-2.17-1c-1.44.1-1.61,1.09-2.55,1.76-.24-1.78-1.38-3.13-3.24-2.8-1.41.26-2.43,1.77-1.57,3.65.44,1,1.06,1.26,1.68,2.09-10-1.12-8.91-13-7.81-12.78,0,0,.3-.05.22.4-.57,2.9,3,4.64,4.62,2.53,1-1.71-1.16-4.42-1.16-4.42a10.26,10.26,0,0,0,2.1-.68c2.61-1.51-.18-5.84-2.61-4.77-.85.38-1.06,1.17-1.9,1.6-.55-.62-.59-1.3-1.59-1.86-2.74-1.52-4.45,2.09-2.93,3.68.62.64,1.72,1.23,1.5,1.31-8.5-1.08-8.42-10-8.22-9.91Zm-73.08.08H105c-.34,5.28-1.09,12.25-.6,17.39.57,4.92.6,5.62.24,6.11s-.22.79-.13,1.23a2.3,2.3,0,0,1,0,1.28,107.46,107.46,0,0,1-4,12.73c-5.48,15.09-14.4,31.53-21.4,40.16,0,0-.32,0-.33,0a43.68,43.68,0,0,1,4.32-26.18c4.33-8.35,11.14-15.48,15.18-24.22a60.3,60.3,0,0,0,5.54-28.48Zm43.07-.06,28.52,44.34-5.21,2.55L141.06,30.68ZM61.06,35.16C51,35.31,46,48,54.49,54.14c1.52,1.1,2,1.74,1.57,2.16s-.81.19-1.57-.56c-6.59-6.47-16.77-2.93-17.72,6C35.2,76.64,53.7,80.54,58.44,66.39c1.36-4.06,1.94.34.62,4.65A42,42,0,0,1,53.82,82.5c-.38.56-.92,1.27-.92,1.27H69.14s-.51-.69-1.25-1.55a31.31,31.31,0,0,1-5.07-14.48c-.12-1.47-.07-2.58.22-2.77.49-.31.77.08,1.3,1.83,1.08,3.59,3.12,6.53,5.4,7.64,5.51,2.29,10,1.6,13.77-3.42,8.15-10.86-5.17-24.26-14.69-15.5-.87.79-1.42.88-1.5.22,0-.31.2-.62,1.39-1.74,8.18-6.49,4.08-17.63-6.12-18.76A13.3,13.3,0,0,0,61.06,35.16ZM20,42c.21.41-.55.82-1.36,1-2.3.64-4.55-.79-4.62-4.08,0-1-.09-2.08.26-2.23C15.3,36.21,19.34,40.69,20,42Zm143.68-2.77a1.34,1.34,0,1,1-1.33,1.34A1.35,1.35,0,0,1,163.64,39.18ZM17.31,50.89c-4.62,0-7,6.3-2.64,10,.77.65,1.07,1.25,1,1.39-.12.32-.24,0-1.18-.61-4.14-2.91-9.11-.3-8.67,3.88.62,6,7.35,7.39,9.73,1.86.43-1,.63-1.28.86-1.28s.23.4.13,1a21.1,21.1,0,0,1-3.11,7.53H21a16.92,16.92,0,0,1-2.58-7.49c0-.76.07-1.26.36-1.26s.31.27.64,1.55c1.2,4.73,8.5,4.48,9.72-.31,1.36-5.35-3.7-9.16-7.85-5.78-.59.48-1.25.83-1.37.5a3.13,3.13,0,0,1,1-1.38C25.11,56.42,22.28,50.88,17.31,50.89ZM173.1,54a1.36,1.36,0,1,1-1.35,1.35A1.35,1.35,0,0,1,173.1,54Zm-67.94,2.64c.49,1.93-9,30.93-22.6,49.39l5.92.12.18.65c8.29,12.24,3.11,23.07-3.59,28.1L87.39,138l-2.08,1.69-2.09-2.49c-17,12.73-50.07,40.89-50.07,40.89l.19,4.52,2.58-2c16.79,16.25,52.4,15.36,61.74-18.19l2.5.06c-5.65,24.59-28.63,34.22-46,30.14l-4.06,5.83,1.09.59c-.2-.31-.39-.42-.09-.71l3.45-4.44c25.95,3.32,41.62-11.36,46.7-31.26l3.31.06a80.94,80.94,0,0,1-21.84,42.94c-8.07,0-22.24-.22-22.24-.22,5.16,5,15,20.27,15.41,21.82,0,0,10.14.32,21,.05,4-1.79,9.33-2.51,11.82-1.25,4.38,2.2,8.49,10.39,10.34,23.53.48,3.38.91,4.82,1,5.5,0,.12.32.21.37.19s-.27.6-.29,1.1a2.82,2.82,0,0,0,.24,1.55.66.66,0,0,1,.23.7,5.66,5.66,0,0,1-.62.65c-.09,7.65,0,14.6-.46,24h1.5c0-15.15,4.56-29.16,11.61-38.81,4.28-6.33,8.81-13.16,11.31-19.65a37.18,37.18,0,0,0,1.7-21.49l-1,.06c-6.19-4.25-8.72-13.31-1.09-19.79L140.9,180c-7.62,5.89-9.37,16.76-1.47,25.75h-3.09c-7.71-9.61-6-20.65,2.9-28.53l-2-2.53,2.17-1.91,2,2.14,49.69-41.52,0-4.54-3.8,3.09c-22.29-20.61-55.35-6.15-60.19,18.67l-3,0c6.35-26.71,29.76-34.26,46.69-30.7l4.18-6.32a25,25,0,0,1-8.91-5.32,22.65,22.65,0,0,1-2.81-2.65c-8-8.48-13.46-20.25-13.72-20.27l-21.8,0c-3.2,1.58-8.68,3.38-11.69,1-6.45-5.21-8.62-15.73-9.51-22.49-.26-2.11-.49-5.78-.69-7a.5.5,0,0,0-.58-.2Zm77.31,11.7a1.32,1.32,0,1,1-1.31,1.32A1.32,1.32,0,0,1,182.47,68.31Zm2.84,1.55a16.27,16.27,0,0,1,2.57,4.35,2.07,2.07,0,0,1-1.53-.29,6,6,0,0,0-1.56-3.48Zm-4,2c.44.21.79,1.88.48,2.16-.53.12-.89.08-1.07-.11C180.47,73.43,181,71.9,181.33,71.82ZM94.6,86.28l20.24,0c3.53,2.7,7,2.34,12,.17h22.51l1.27,2.31H93.5C93.82,87.94,94.6,86.28,94.6,86.28Zm-1.67,3.61h58.26l1.47,2.37H91.49Zm5.62,3.44h6.54l-2.42,4.11H95.92Zm14.52,0h6.23l-2.77,4.11h-6.18Zm20.17,0-2.62,4.11h-6.34L127,93.37Zm7.83,0h6.25L145,97.44h-6.47ZM57.14,94c-4,0-3.3,5.33-2.92,5.16-2.54-.58-4.42.63-4.73,2.79a3.73,3.73,0,0,0,4.36,3.83c-.39.45,0,3,.4,3.29,0,0,0,.38-1.5,3.61-1.84,3.84-2.21,4-3,1.5-.9-2.71-2.28-4.09-5.9-5.84a22.32,22.32,0,0,1-3-1.81c-1.62-1.22-1.64-1.2-1.56,1.27.1,3.21,1.07,4.61,4.49,6.5a24.87,24.87,0,0,0,5.47,2.23,17.58,17.58,0,0,1,4.13,1.86,10.23,10.23,0,0,0,3.83,1.23c2,.14,6.57-.33,9.21-1.86,1.48-.85,2.05-1.62,3.15-3.81a25.3,25.3,0,0,1-5.45-.25c-3.55-.21-5.32,0-8,1.39-2.25,1.17-2.38,1.38-1.44-.55a28.26,28.26,0,0,0,1.19-3c.4-1,.5-1.12,1.48-1.22a3.66,3.66,0,0,0,3.59-3.63,5.51,5.51,0,0,0,0-1.19c1.47.22,4.48-.51,4.39-3.56-.09-2.74-2-3.37-4.44-3.55A3.84,3.84,0,0,0,57.14,94Zm0,.85c3.55,0,3.47,3.29,1.92,5.14L57.22,98.4,55.7,99.81C54,98.75,54.05,94.8,57.19,94.82Zm97.12,0,1.75,2.58h-3.61ZM88,98.57h6.68L92,102.34H85.72S87.14,99.93,88,98.57Zm21.07,0-2.53,3.91h-5.84l2.34-3.83Zm7.83,0h6l-2.39,4.17h-6Zm14.21,0h6.11l-2.48,4.17h-6Zm13.85,0h6.3l-2.6,4.17h-6.07Zm-87.73.77,3,3-2.93,2.93-3-2.88Zm7.62,3c-.53,3.52-3.92,3.33-4.88,1.61l1.38-1.58-1.69-1.66C61.34,98,65.29,99.63,64.89,102.29Zm-10.08-1.68-1.63,1.83L55,104.15c-1.14,1.59-5.56,1.47-4.67-2.37A2.5,2.5,0,0,1,54.81,100.61Zm103-.45,1.85,2.55-3.48,0Zm-72.5,3.14,74.74.24,2,2.44c-26.09.45-51.64-.42-78.3-.44ZM59,104.89c3,1.81.77,5.64-2.41,5-2.37-1-2.85-3.5-.72-4.93l1.67,1.38Zm25.62,1.46h-2l-2,2.32c7.51,7.91,7.23,14.78.24,20.76l2.81,3.15C91.49,125.88,93.23,115.33,84.61,106.35Zm7.72.3c4.21,6.58,7.85,19-4.69,30.45l-1.52-1.83c10.92-10.67,8.36-19.64,3.47-28.54Zm1.17.17,17,.06c-3.63,13.85-6.18,22-6.57,43.66l-4.9,0c.53-.5-2.54-13.08-6.13-17.44C100.39,120.36,96.34,113.16,93.5,106.82Zm-53.39,0a7.35,7.35,0,0,1,2.08,1.09c1.05.63,2.43,1.43,3.05,1.78,2.33,1.31,3.49,2.54,4.15,4.42.5,1.41.19,1.44-1.24.11a39.91,39.91,0,0,0-5-3.77c-1-.68-1.31-.57-.73.26a10.73,10.73,0,0,0,3.13,2.38c1.31.8,3.12,2.41,3,2.65s-.35.19-1-.08l-2.1-.87c-3.7-1.5-5.27-3.34-5.49-6.4C39.85,107.33,39.78,106.84,40.11,106.83Zm77.45.07a4.12,4.12,0,0,1,.58,1c.14.6-.45,1.16-2.33,2-.65.28-1.18.44-1.16.81.08.89,1.77,2.24,1.57,3.44-.39.92-2.74,1.82-3.33,2.91,0,.74,1.53,1.89,1.31,2.9-.12.3-.61.61-1.34,1.25-1.49,1.29-1.58,1.49-1,2.49,1.27,2.34,1.31,2.17-.42,3.83s-1.71,1.65-.88,3.11.86,1.5-.35,2.5-1.14,1.18-.5,2.41.75,1.2-.28,2.11c-1.21,1.07-1.43,1.18-.58,2.53s.94,1.33,0,2.47-1,1.12-.54,1.86c.64.92.76,1.16.09,2.17s-.72,1-.06,2a3.1,3.1,0,0,1,.47,1.81h-2.1a5.34,5.34,0,0,0-.26-1.65c-.6-1.07-.58-1.41.13-2.36s.6-1.07-.08-2-.58-1,.31-2.11.85-1.52.39-2.11c-1.1-1.4-1.1-2,0-2.92.84-.71.92-1,.19-2.23s-.8-1.29.51-2.48,1.32-1.18.43-2.54-.83-1.42.57-2.72,1.43-1.31.5-3-.87-1.52.82-3,2.26-1.58.58-3.59c-.94-1.6-.27-1.76,1.27-2.55,2.69-1.65,1.47-1.55.33-4-.94-1.64-.4-1.65,1.25-2.47.41-.18.86-.38,1.33-.64,1.1-.61.5-1.18.5-1.18Zm3.53,0,8.1.1c-9.39,12-13.91,27.33-15.53,43.51l-3.06,0C110.41,137.87,114.38,122.08,121.09,106.94Zm41.6.28c4.64,3.9,8.07,6.13,10.51,7,0,0-3.26,5.43-3.52,5.23-18.79-3.62-41.15,7.34-46.2,31l-3,0a64.89,64.89,0,0,1,8-25.1c4.46-7.84,8.57-12.42,14.76-18.2Zm-32.34-.2,4,.07s.75.9,1.08,1.22c1.73,2,1.88,1.57-1.92,3.71-2.4,1.36-3.46,2-3.6,2.55s1.05,1.71,1.18,2.47c0,.09-3.26,2.27-3.85,2.58-.82.4-.86.74,0,2.16.94,1.63.87,1.58-1.16,3s-2.36,1.24-1.52,2.62c1.17,1.9.62,2.33-2.14,3.82-.69.37-.71.75-.22,2,.67,1.81.85,1.63-.57,2.61-1.68,1.15-2,1.19-1.61,1.89,1.08,2.06,1.51,2.56.07,3.23-1.1.52-1.13.81-.52,2.17s.77,1.31-.31,2.08-1.61.55-.62,1.72c.77.92.7,1.65.07,2.22-.54.23-.8,1.26-.64,1.28l-1.4,0A1.58,1.58,0,0,1,117,148c.17-.34,0-.58-.49-1.38-.61-1.1-.58-1.23.29-1.88s.91-.48.32-1.92c-.68-1.67-.65-1.86.43-2.64s1.08-.93.35-2.39-.76-1.55,1.13-2.8c1.33-.89,1.35-.83.64-2.47-.48-1.13-.14-1.52,1.67-2.76,1-.7,1.11-.84.62-1.68-1.34-2.33-1.32-2.4,1-3.89,1.89-1.23,1.87-1.33,1.14-3s-.86-1.63,1.73-3.19c2.14-1.28,2.25-1.2,1.37-2.74-1.09-1.92-1-1.6,3.25-4,1.54-1.05,2.92-.69,1.39-2.48C131.18,108,130.35,107,130.35,107ZM55,110.17c.3,0,.53.35.52,1a8.5,8.5,0,0,1-.94,2.83c-.9,1.92-1.8,3.34-2.27,3.35-1.12,0-1.09-.24.4-3.14.67-1.32,1.37-2.83,1.48-3.13C54.42,110.48,54.73,110.18,55,110.17Zm13.72,4.35c0,4.07-12.74,6.12-13.4,4.07,2.22-1.75,8.8-1,10.19-2.53-1.68-.1-4,.18-5.51.21-2,0-5.09.86-5.12,1.21-.2-1.07,3.34-3.08,6.15-3.21C63.64,114.16,66.49,114.47,68.71,114.52Zm1.09,6.21s-24.88,20.59-37.18,30.55l.08,4.44L72.06,123.5Zm-.08,1,1.59,1.93-36.95,30.1-.13-3.15Zm116.8,10.56-1.33,1.42c-36.09-26.85-69.32,13.92-51,43.09a7.67,7.67,0,0,1-1.45,1.3C112.33,144.26,151.41,104.64,186.52,132.31Zm-19.86-5.88c2.05,0,5.82,1.42,7.41,3.34,1.86,2.23,1.32,3.23-1,1.12-2.53-1.84-4.62-2.27-1.1-.09a5.73,5.73,0,0,1,1.51,1.51c.12.38-.52,0-3.47-1.09a9.84,9.84,0,0,1-4.55-3.54C165,126.8,165.59,126.42,166.66,126.43Zm-7.59.06a6.61,6.61,0,0,1,1.61.16c2.58.74,3.39,1.13,4.35,1.88.66.51.45.88-.31.55a19.66,19.66,0,0,0-4.22-1.16c-.73.07,0,.55,1.06.81,2.33.59,3.49,1.19,1.82,1.22a43.29,43.29,0,0,1-5.7,0c-1.73-.2-4.32-1.78-3.72-2.34S157.15,126.51,159.07,126.49Zm-7.41,2.43c3.06,0,4.72,1.18,1.37,1.41-5.75.91-6.85,2.16-.48.67,1.49-.35,1.46.19.43.69-.84.41-1.88.61-2.75,1a12.45,12.45,0,0,1-6.58.27C141.57,132.2,148.08,128.88,151.66,128.92Zm24.63.52c1.55,0,4.85,2.28,6.32,4.38,1,1.38.48,2.37-1,1.26-.29-.22-2.38-2-2.49-2s1.73,1.75,2,2.27.8,1.43-.24,1.46c-1.62-.2-5.43-4.46-5.46-6.56C175.46,129.66,175.78,129.43,176.29,129.44Zm-19.19,1.2c.65,0,.32.32-.91,1.18-2.2,1.55-1.05,1.24,1.53-.09a9.88,9.88,0,0,1,2.06-.78,8.82,8.82,0,0,0,.88-.2c.69-.21.16.65-1,1.55a20.66,20.66,0,0,1-6.91,3.86c-2.35.58-2.85.65-2-.82,1.38-2.34,3.4-4.21,5.33-4.57A6.19,6.19,0,0,1,157.1,130.64Zm7.94,0a19.19,19.19,0,0,1,4.11.6c1.35.42,1,.51-.62.69-3,.33-1.77.68,1.18.63,4,0-2,1.45-4,1.74-1.53.07-2,0-5.31-.61-1.27-.23-.51-1.16,1.89-2.31A6.21,6.21,0,0,1,165,130.67Zm24.86.55.1,2.59-48.69,40.72-1.66-1.83Zm-16.57,2.23c1.94,0,4.74,1.32,4.44,2.13-.11.3-.33.29-1.81-.11-1-.25-2.71-.53-2.48-.31a14.88,14.88,0,0,0,2,.72c1.71.41,3.77,1.38,3.31,1.67-.79.48-1.52.1-2.46,0-2.36-.33-6.22-1.51-6.86-2.11S171.24,133.47,173.33,133.45Zm-22.72.15c.35,0,.48.34.15.79a15.82,15.82,0,0,0-1.2,2.05,12.34,12.34,0,0,1-4.22,4.48c-1.56,1-1.78.81-1.65-1.22a7,7,0,0,1,3.82-5.36c1-.14,1.54-.39.51.84-1.83,2.19-.58,2,1.13-.52C149.69,133.87,150.26,133.58,150.61,133.6Zm-6.32.29c1.05,0,1.41.37.06,1a22,22,0,0,0-3.92,2.59c-.1.34.86-.19,2.45-1,2.13-1.17,2.32-1.14,1.29.19A15,15,0,0,1,138,140.7c-3.07.84-3,.25-1.28-2,1.64-2.48,3-3.66,5.13-4.34A8.36,8.36,0,0,1,144.29,133.89Zm-52.16.38c11.15,19.24,5,38.8-8,48.77-13.53,10.42-34.59,9.8-47-2.71l1.73-1.63s19.59,20,44.27,2.26c12.52-9,17.7-30.23,7.36-45Zm-50,0-.09,0c-.37.24-1.79,4.4-2.07,6.13a1.52,1.52,0,0,0,.45,1.4c.29.28.76.1.91,0,.94-.42,1.46-1.08,2.29-3.15a5.55,5.55,0,0,0,.52-3,2,2,0,0,0-.73-.89A3.6,3.6,0,0,0,42.14,134.31Zm.22.87a2,2,0,0,1,1.43,1.24c0,.9-.5,2.4-.89,2.18-.64-.8-1.39-.3-1.51-.59a6.1,6.1,0,0,1,.88-2.82Zm120.52.72a20.3,20.3,0,0,1,13.52,4.66l-1.94,1.77a21.18,21.18,0,0,0-24.25-.2c-5.8,4.05-10.94,13-5.91,25.61l-1.81,1.65c-5.64-10.14-2.62-23.55,7.36-29.89a24.59,24.59,0,0,1,12.55-3.6ZM89.5,137.38c.15,0,.38.49.36,1.09s-.34,1.68-.83,1.88-.91-1.43-.91-1.43A6.38,6.38,0,0,1,89.5,137.38Zm88.84.56a3.49,3.49,0,0,1,.57,0c.55.07.56.57,0,1s-.86.54-1.43.13-.53-.64-.09-.95A1.94,1.94,0,0,1,178.34,137.94Zm-95.3.12,1.65,2L79,144.67l-.68.06L34.63,180.89v-3.21ZM174.28,143l-5.95,4.91c-11.88-6.18-21.42,4.83-18.05,14.83l-5.15,4.46c-9.2-25.25,17.71-33.88,29.15-24.2Zm-31.14-3.85h.05a.37.37,0,0,1,.12.07,12.74,12.74,0,0,1-.52,4.18,1.65,1.65,0,0,0-.19.64,26.92,26.92,0,0,1-2,4.09,9.38,9.38,0,0,0-.76,1.67c-.69,3.31-2.18-2-1.65-5.11.24-1.45,2.31-4.45,2.9-4.23.31.11.29.34-.25,1.5-1.49,3.24-1.86,4.92-.29,1.78C142.39,140.08,142.86,139.15,143.14,139.1Zm-101,.06a.55.55,0,0,1,.49.4,1.46,1.46,0,0,1,0,.9A1.72,1.72,0,0,1,41,141.55a.69.69,0,0,1-.62-.56,1.36,1.36,0,0,1,.38-1.1,2,2,0,0,1,1.31-.73Zm45.28.21c.7,0,1.44,1.93,1,2.8-.39.71-.46.57-1.13-.8a14.69,14.69,0,0,1-.63-1.49l.57-.46a.42.42,0,0,1,.15,0Zm-1.19.8a9.45,9.45,0,0,1,.92,2.41c.11.66.09.53-.62.26a3.2,3.2,0,0,1-1-1,5.81,5.81,0,0,0-.47-.71Zm4.45.29c.38,0,.78.37,1.15,1.29,1.38,3.48,1.25,7.38-.3,9.22-.26.31-.32.32-.63.13a3.57,3.57,0,0,1,0-2.28,7.1,7.1,0,0,0,.32-1.7c0-1.34-.32-1.51-.5-.27-.2,1.43-.42,2.43-.81,1.57a11.71,11.71,0,0,1-.45-1.34C88.62,144.08,89.53,140.5,90.65,140.46Zm-6,.89s1.33,1.72,1.88,2.33c.19.33.19.42-.12.54-.53.2-2.29-1-3-1.34-.37-.3-.21-.53-.21-.53A15.6,15.6,0,0,1,84.63,141.35Zm52.47.06c.71,0,.71.24,0,1.33-4.23,6.09-3.37,5.18-.68,1.85,1.49-1.85,1.75-2,1.92-1.61s-1.66,3.91-2.58,5.22a11.15,11.15,0,0,1-2.92,2.22c-2,1-1.79.61-1-1.92C132.69,144.58,135.07,141.43,137.1,141.41Zm-54.95,2.11C93.75,172.36,62,185,47.66,171.68l1.67-1.33c19.93,13.52,39.61-8.14,30.6-25.09C79.93,145.26,80.75,144.58,82.15,143.52Zm2.69.7c1.91.19,4.73,3.68,4.87,5.63.3,1.38-.09,1.62-.77.65-1.14-2.12-1-.78,0,1.32.52,1.06.64,2.33.1,2.4-.74-.15-2.33-2.68-2.81-3.73a12.24,12.24,0,0,1-1.88-5.29C84.2,144.56,84.37,144.22,84.84,144.22Zm-5.77.94c8.83,16.94-10.17,37.3-29.51,24.14l5.8-4.59c10.09,4.84,21.34-1.17,18.12-15.08Zm88.13,3.16L151.26,161.6C148,150.59,160,144.31,167.2,148.32Zm-29.6,0c.52-.11,1,3.23,1.06,7.91s.21,5-1.21,3.34a13.65,13.65,0,0,1-1.66-2c-.94-1.78-.64-3.65-.38-6.27.24-2.44,1.12-2.06,1,.5-.1,1.64-.08,3.69.18,3.68.09,0,.12-.16.06-.38a41.43,41.43,0,0,1,.67-6.39C137.4,148.45,137.5,148.31,137.6,148.29Zm-43.92,2c1.15.45,1.48,4.29.23,8a5.35,5.35,0,0,1-2.59,3.28c-.87.46-1.08.31-.68-.49a13.51,13.51,0,0,0,1.41-4.34c.11-1.64-.75-.32-.68.38-.68,3.06-1.57,3.53-1.46.3a7.88,7.88,0,0,1,1.52-5C92,151.59,92.6,150.46,93.68,150.31Zm40,.39c.47,0,.59.64.17,1.87a35.93,35.93,0,0,0-1.18,3.63c.07,0,1.15-2.5,1.37-2.91.36-.67.49-.8.8-.77a11.84,11.84,0,0,1-.16,4.06c-.65,3.33-2.92,6.77-3.78,5.74-1.42-1.67-.76-8.42,1.12-10.47C132.7,151.07,133.28,150.69,133.65,150.7Zm-60.7.51c1.71,11.78-8,16.81-16.41,13.26C56.72,164.42,73,151.21,73,151.21Zm39.74.21,1.7,2.23,3.1.16-1.59,2.34,1.58,3-3.46.06-2,2.29-1.74-2.06-3-.16,1.76-2.82-1.42-2.69,3.27-.16Zm-26,1c.39,0,2.31,2.53,2.5,3.45.57,2.25.36,6.51-.45,6.36-.88-3.06-.54-4.65-.85-4.29-.55.56.34,5.26.05,6.42-.14.29-.61-.06-1.14-.82-1.41-2-1.22-9.95-.14-11.11Zm103.62,4.77L152,188.93l2.21,2.85,36.15-29.85Zm-55.3.55c.16,0,.55.23,1.26,1a19.74,19.74,0,0,1,3.07,5.8,18.55,18.55,0,0,0,.66,2c.26.65.29.83.13,1-.66.82-3.44-1.24-4.33-3.21-1.26-2.77-1.29-5.26,0-2.83.46.88,1,2.17,1,1.66a16.53,16.53,0,0,0-1-2.83C135.5,159.92,134.54,157.85,135,157.76Zm54.9.77.08,2.62L154.28,191l-1.4-1.7Zm-55.68,1.62c.16,0,.25.26.2.79-.16,1.74-.59,5.51-.5,5.84s.56-2.5.68-3c.61-2.5,1.54,3.48,1,6.16-.09.42-.27,1.1-.36,1.52a6,6,0,0,1-.51,1.32c-1,1.59-3.39-4.74-3-8C131.94,162.83,133.59,160.09,134.19,160.15Zm-41.26,1.39c.46,0,.55.43.47,1.39-.27,3.3-2.46,6.77-4.86,7.69s-2.62.73-1.2-1c1.08-1.3,1.73-2.66,1.55-2.84s-.34.45-1.22,1.57c-1.09,1.4-1.27.21-.27-1.85a8.36,8.36,0,0,1,3.27-3.8A6.23,6.23,0,0,1,92.93,161.54Zm21.68,1a104.58,104.58,0,0,1-10.86,43.07H97.36c7.82-11.52,12.82-25.79,14.21-43Zm2.81,0a12.13,12.13,0,0,1,1.35,1.67c.43.74.55,1.38-.23,1.94-.91.77-1.29.48.19,2.38.78,1,.53,1.17-.44,2s-1.05.92-.13,2.1,1.18,1.45-.12,2.42-1.18,1.09-.27,2.51,1.09,1.3-.51,2.66c-1.38,1.16-1.41.84-.08,3,.48.78.45.83-.44,1.62-2.2,1.94-2.08,1.82-1.77,2.33,2.4,3.45,1.32,3.35-1,5-.47.41-.35.86.71,2.59.9,1.46.77,1.78-1.34,3.23s-2.28,1.72-1.18,3.27,1.11,1.41-.65,3c-.79.71-1.45,1.37-1.45,1.37h-3.9s.83-.76,1.39-1.17c3.2-2.37,3.19-2.12,1.84-3.83-1.2-1.52-1.08-1.62.13-2.48.87-.62,2-1.27,2.93-1.9.47-.34.12-.62-.67-2.12-.88-1.67-.93-1.48.72-2.83,1.8-1.49,1.83-1.43.85-3.32s-1-1.72.24-2.73c1.84-1.5,1.93-1.42,1-3.16-.77-1.39-.78-1.35.53-2.66s1.15-1.23.37-2.43-.75-1.39.3-2.32,1-.94,0-2.22-.91-1.17.21-2.14c.59-.52,1.18-1,1.15-1.28a7.52,7.52,0,0,0-1.26-2.36c-.22-.32.22-.42.92-1.14s.68-.56.14-1.54c-.29-.53-.84-1.42-.84-1.42Zm-10.46,0,1.12,0a5.63,5.63,0,0,0,.45.51c.71.73.74,1.16,0,1.55s-.42.9.15,1.74.61.8-.26,1.68-1.37.94-.38,2.33c.57.64.5,1.31-.38,1.89-.68.44-1.8.81-.62,2.5.58,1.2.63,1.13-.58,2-1.6,1.14-1.9.94-1.17,2.6.82,1.84.9,1.87-.78,3.11-2,1.43-2,1.55-1.2,3.27s.84,1.29-1.23,2.9c-1.51,1.18-1.86,1.25-1.41,2.22.84,1.83,1.2,2.32-1.25,3.57-2.83,1.45-3,1.56-1.61,3.72,1.1,1.75.85,1.5-1,2.55-2.64,1.52-3.8,2.18-3.88,2.65s2,2.12,2,2.12l-3.68.1s-1.54-1.26-2.14-1.84c-1.67-1.62-1.69-1.09,3.85-3.78,3-1.48,2.8-1.14,2.3-2-1.48-2.55-1.53-2.82,1.24-4.21,2.4-1.21,2-1.29,1.4-3.12-.51-1.59-.43-1.44.84-2.38,3.06-2.27,3-2,2.5-3.15s-.83-1.6-.48-2.14c1.1-1.58,3.44-1.92,2.49-3.8-.45-1.21-.61-1.49.74-2.54s1.22-.89.44-2.22c-1-1.23-.81-1.43.58-2.4,1-.9,1-.88.42-1.76-.77-1.22-.73-1.26.37-2.21.89-.78,1-.83.47-1.69-.75-1.14-.63-1.39.37-2,.61-.35.6-.49.55-1.07a6.32,6.32,0,0,0-.33-.75Zm13.81.06,5.12,0a42.2,42.2,0,0,0,6.14,16.4c-6.47,10.4-5,19-1.05,26.68l-16.22-.06A142.51,142.51,0,0,0,120.77,162.65Zm-35.17,0c.19,0,.32.29.64.83,1,1.75.3,4.23-1.2,6.83-1.12,2-1.33.46-.81-2.34.32-1.76-.57.88-1,3-.23,1.15-.79,2.09-1.39,2s-.39-1.71-.37-2.07c.13-2.56,1.08-4.36,2.93-6.9C85.11,163.13,85.39,162.71,85.6,162.69Zm52.3,5a2,2,0,0,1,1,.33c.33.18.91.54,1.32.76,1.42.79,1.54,1,.86,1.81-.83,1-1.37.6-2.81-1C137.29,168.48,137.28,167.71,137.9,167.69Zm-.47,2.13a2.13,2.13,0,0,1,1.16.78c.93,1.08.82,2-.21,1.72-.43-.62-.64-1.56-1-2.25C137.24,169.91,137.29,169.82,137.43,169.82Zm45.75.14a3.57,3.57,0,0,0-2.71,2.42c-.88,3.71-.88,3.55-.09,4.09l.52.35c.46.37,1.09.93,1.18.82.75,0,1.89-4.76,1.86-5.74s.08-1.16-.18-1.63A.62.62,0,0,0,183.18,170Zm-46.45.08a.3.3,0,0,1,.23.1,7.16,7.16,0,0,1,1.13,2.4,1.44,1.44,0,0,1-.15.6c-.51,1-1.31,0-1.39-1.67-.05-1,0-1.39.18-1.43Zm46.31.74h.12c.6,0,.51.65-.34,1.57-.44.48-1.36.7-1.66.41s.47-1.62,1.46-1.9A1.46,1.46,0,0,1,183,170.78Zm-102.89.52a.34.34,0,0,1,.1,0,1.11,1.11,0,0,1,.79.4,2.17,2.17,0,0,1,0,1.93c-.49,1.7-3.67,5-4.81,5-.68-.12,2.16-3.73,2.25-4.34-.21-.21-2,1.83-2.8,3.24a7.68,7.68,0,0,1-1,1.57c-.6.06-1.28.44-1.29,0,.1-1.8,3.63-5.73,4.84-6.83a3.06,3.06,0,0,1,1.89-1Zm8.52.17c2.73,0-2.65,5.94-6.12,6.8-1.09.27-3.08.34-3.22.11s0-.41.46-.52a18.76,18.76,0,0,0,4.27-2.72c0-.33-1.47.22-2.73,1-.81.53-1.19.42-.75-.22a9.62,9.62,0,0,1,8.09-4.48Zm47.24,0c.15,0,.31.32.4,1,.5,1.28.52,1.63.06,2-.8.64-1,.46-1-1,0-1.22.27-2,.53-2ZM46,173.17s1,.38.58.85-1.51,0-1.51-.05Zm137.1,0c.33,0,.34.28.16,1-.09.39-.48,2.49-1.17,3.07a4.46,4.46,0,0,1-1.37-.83c-.13-.12-.52-.42-.57-.61a1.92,1.92,0,0,1,.49-1.86,1.51,1.51,0,0,1,.77-.26,4,4,0,0,0,1-.34A2.21,2.21,0,0,1,183.1,173.21ZM46.35,174.65a7.06,7.06,0,0,1,2.15.3,28.63,28.63,0,0,1,6.27,2.78c.82.79-1.33,1.63-3.93,1.66-1.37,0-1.63-.27-3.54-1.41-.24-.16-1.35-.89-1-1.15s1.42.1,2.74.78c.43.21,1.48.15,1.48,0s-2.64-1.21-4.62-1.84c-1.3-.42-1.27-.83-.48-1,.23,0,.57-.06,1-.07Zm-2.6.91s.55.48,1.26,1a9.32,9.32,0,0,1,2.29,2.24c.9,1.1,2.32,3.83,2.17,4.33-.37,1.13-4.17-.86-7.28-4a21.34,21.34,0,0,1-1.61-1.76l1.19-1.08s1,.87,2.25,1.94c2.26,2,2.24,1.31,0-.79-.64-.6-1.24-1.13-1.24-1.13C42.78,176,43.14,175.64,43.75,175.56Zm92.93.09s1.22,1.26,1.67,1.84c-7.4,7.24-10.23,17.35-3.09,28.12l-3.43,0c-6.42-12.64-3.37-22.15,4.85-29.94Zm-62.61.3c.46,0,0,.52-.77,1.91-1.53,2.6-1.83,3.25-4.31,3.9a12.35,12.35,0,0,1-1.92.08c-1.06.13-.59,0,1-1.06,2.26-1.47.34-.71-1.75.36-1.21.63-2.48.6-2.59.27-.06-.17.49-.64.85-1,3.18-2.85,4.16-2.73,7.12-3.76A14.52,14.52,0,0,1,74.07,176Zm-13.31,2.6a14.86,14.86,0,0,1,3.18.33c.64.15,1.67.27.8,1.06a10.81,10.81,0,0,1-5.61,2.27c-.28,0-4.33-.27-3.46-1.14a9.31,9.31,0,0,1,1.19-.16c2.25-.43,1.64-.79-1.12-.64-3.46.18-3.62-.17-1-.89a23.4,23.4,0,0,1,5.52-.83Zm18.49.26c1.54,0,2.73.26,2.74.85,0,1-2.91,3-4.82,3.45l-1.42.31a25.11,25.11,0,0,1-4.73-.11c-1.73-.62-.53-.87,2.65-1.24,1.38-.16,2-.52,2-.78a5.66,5.66,0,0,0-2.54,0c-1.69.22-1.36-.28.75-1.37A13.16,13.16,0,0,1,79.25,178.81Zm-28.5,1.32a7.34,7.34,0,0,1,1.6.55c1.84.53,4.37,1.14,6.11,3,1.4,1.36,1.74,1.8,1.44,2.27s-4.7.14-6.53-.64a8.67,8.67,0,0,1-3.3-2.58c-1.6-2.32-.93-2.94,1.1-1.31,2.44,2,2.8,2.15,3.23,2.06.18,0-.25-.43-1.07-1-2.06-1.53-3.06-2.35-2.58-2.34Zm15,2.49a8.06,8.06,0,0,1,4.47,1.07c2.49.87,1.89,1.65-2.52,2.75a8.09,8.09,0,0,1-6-.84c-3.55-2.18-3.32-2.62.65-1.64,1.3.32,2.6.38,2.68.13s-1.52-.58-2.8-1-.19-.42,2.58-.45ZM168,192.07s-.46.21-.66.32a16.52,16.52,0,0,1-2.73.34,19.22,19.22,0,0,0-6,1.27c-2.43,1-4.05,4-4.05,4,1.81-.12,12.08,1.73,14.92-2,.6-.78-1.53,5.84-2.62,6.13-2.7-.32-3.84,3.92-3.57,3.75-2.73,1-4.84,1.67-4.15,4.84.3,1.38,1.7,3,4.67,2.61-.81,5.49,5.91,6.91,6.65.29,0,0,1.31-.25,1.81-.31,3.07-.72,3.81-5.2-.69-6.62-1.24-.37-1.32-.6-1.32-.6a4.06,4.06,0,0,0-.55-3.25c1-2.37,3.46-6.92,3.46-6.92Zm.47,1.36c.62.83-2.6,2.19-6,2.49a20.82,20.82,0,0,0-2.5.3c-.37.65,6.63.18,8.82-1.05.75-.42.81,0,.49.6-2.54,3.26-8.65,2.45-13.44,1.88-.27-.27,0-.61,1-1.48,2-1.59,3.38-2.13,6.49-2.44C164.18,193.7,168.08,193,168.47,193.43Zm3.79,3.37a59.93,59.93,0,0,1-2.74,5.69c-.28.28-1.29.48-1.22-.61s2.19-5.95,2.78-6A1,1,0,0,1,172.26,196.8Zm1.46.33c.68,4.91,4.4,6.08,8,7.63.94.43,1.74,1.19,2.68,1.69,1.77-2.41-.22-7.09-3.33-8.61-2.31-1.08-4.42-1.94-5.72-1.84-.76.05-1.6.54-1.61,1.13Zm1.92-.29a14.07,14.07,0,0,1,3.06.66,7.93,7.93,0,0,1,6,6.23c0,.12.19,2.5-.36,2.41-.82-.23-1.26-1.06-2.58-1.61a19.48,19.48,0,0,1-5.36-2.88,5.52,5.52,0,0,1-1.91-3.11c-.14-1,.19-1.09,1-.29,1.87,1.48,3.71,2,5.56,3.43.52.4,2.36,1.42,1.1.15a23.58,23.58,0,0,0-4.7-3c-1.85-.89-2.86-2-1.79-2Zm-141.95,4.9,21.13,33c-5.21,2.74-7.77,3.94-16.4,3.27l0,.43-3.67-.21c6.34,9.89,14.16,22.8,11.94,45.31l25.74,0s.4.39.44.41c.38.26.94-.44.94-.44l11.61-.07.31.38,5.42,0S66.42,237.46,54,214.46c-5.11-9.22-10.42-13.32-20.3-12.72Zm133.23,1.09a2.65,2.65,0,0,1,2.78,2.77,5.8,5.8,0,0,1-.81,2.31L167,206.12l-1.8,1.8a3.09,3.09,0,0,1-1.12-2.92,3.33,3.33,0,0,1,2.84-2.17Zm-21.85.66c1.79,7,3.72,16.58-11.79,38.78-9.17,13.14-12.17,25.53-12.54,40.65h-.92c.43-8.3.49-23.35.49-23.35l.87-.77a5.1,5.1,0,0,1-.57-1.39c-.29-1.27,0-.84.71-4.24,3.17-16.42,23.75-49.69,23.75-49.69Zm-82.8,3.2,78.58.36-1,2.06-76.05-.55Zm104.75.59,2.92,2.84-2.85,3.21-3-3.14Zm-2.39,1.21L163,210.18l1.38,1.45c-1.42,3-5.21.66-5.08-1.57.15-2.61,3.2-3.68,5.29-1.57Zm5,3.36,1.27-1.61-1.43-1.57c2.34-2.32,4.56-.27,4.78,1.66S171.3,214.72,169.67,211.85Zm-93.08-2,6.44.06-2.39,4.48-6.53,0Zm14.34,0h5.92l-2.5,4.54h-6Zm14,0h6.27l-2.55,4.54h-6.44Zm14,0h6.41L123,214.46h-6.66Zm14.29,0h6.19l-2.51,4.54h-6.36Zm-68.32,0h4.16l-1.7,3Zm103.68,2.86a2.85,2.85,0,0,1-1.76,5.11,2.9,2.9,0,0,1-1.5-5.2l1.78,1.63Zm-87.46,2.42h6l-2.27,4.09H79Zm13.44,0h6.63l-2.34,4.09H92.55Zm14.2,0h6.59l-2.15,4.09h-6.66Zm14.14,0h6.55l-2,4.09H120.5Zm-54,.16H73.1l-1.78,3.27Zm3.14,4.74,61.26.54-1,2H73.63Zm2.15,3.55,57.41.15-1.32,2.74-19.84-.09c-3.87-2.88-8.29-1.55-13.33.09,0,0-15.19.16-21.16,0Zm80.56,7a37,37,0,0,1,6.4,14.23c.91,4.58-.08,6.82-1.25,2.82-1.94-10-13.83-11.49-19.13-3.73-7.37,10.79,5.54,23.88,14.79,15.11.79-.75,1.23-.93,1.49-.61s.1.69-1.55,2.35c-6.43,6.47-4,15.8,4.67,18,12.35,3.08,19.82-12,9-19.15-1.12-.85-1.24-1.07-.83-1.53s.68-.37,1.68.54c9.26,8.37,21.9-2.57,16-13.88-4.51-8.71-17.06-7.11-20.06,2.57-.56,1.8-.6,1.91-.92,2.11-1.28.05-.38-4.21-.18-5.33,1.46-5,3.06-9.62,6.14-13.46Zm-99.65,4.63,30.28,47.79-6.69-.08L50,238.11Zm148.71,2.79c.2.15,3,7.91,2.47,8.62-.17.56-.65.37-.83-.33-1.76-6.71-10-5.58-10,1.35.05,4.29,4.46,6.15,8.29,3.48.57-.39.83-.4.83,0a6,6,0,0,1-1,1.31c-3.08,3.43-1.92,8.17,2.24,9.14,5.58,1.31,8.29-5,4.09-9.5a8.66,8.66,0,0,1-1.11-1.35c0-.34.46-.28,1,.13,3.87,2.87,8.6.93,8.54-3.51-.07-5.87-7.36-7.42-9.37-2-.5,1.35-.74,1.71-1,1.47-1-.52,2.63-8.89,2.73-8.89Zm-154.78.32,28.59,44.67c-1.31,0-2.53.05-3.84,0A11.4,11.4,0,0,0,63.68,270.7c2.37-9.75-4.75-13.85-9.49-14.63,1.92-12.68-8.57-14.47-8.72-14.35a11.53,11.53,0,0,0-.29-2.66l3.88-.6Zm-4.63.71c-.06.27.54,2.79-.59,2.33l-.08-2.33Zm-6,.06c.4,1.68,1.27,2,2.44,3.14,0,0-1.5.26-1.85,0a14.66,14.66,0,0,1-1.92-3.17Zm4.47,2.85a1.31,1.31,0,1,1-1.31,1.31A1.31,1.31,0,0,1,42.89,242.08Zm2.59,1c3.76-.25,9.22,3.78,7.78,11.33a12.31,12.31,0,0,0-1.16-2.51c-2.59-3.5-5.64,1.29-3.59,3.25,1,1,1.49,1.33,1.38,1.42a2.74,2.74,0,0,0-3.11,3.89c1.61,2.95,3.84,1.39,5.13-.36,0,0,.8,2.64,1.59,3a2.71,2.71,0,0,0,3.45-1.6c.85-2.18-1.21-2.73-1.66-4,4.34.15,9.89,6.5,7.36,12,.34-1.26-1-4.08-3.63-3.35-1.31.46-1.76,2.36-.71,4.32a6.89,6.89,0,0,0,.52.86,6.08,6.08,0,0,0-1.43.34c-3.4,2.09,1,7.8,3.51,4.23a7.81,7.81,0,0,1,.68-.91c.42.79.55,1.91,1.31,2.3,3.13,1.57,4.53-1.75,3.21-3.38l-1.58-2c-.13-.59,9.39,1.9,8.23,11.16l-25.22,0c2.34-14.21-3.33-30.48-6.21-35.43L42.58,246c.31.61.83,2.16,1.75,2.45,2.93.94,3.82-1.1,3.43-3.2-.21-1.12-1.78-2-2.28-2.18Zm6.68,13.37a1.25,1.25,0,1,1-1.25,1.25A1.26,1.26,0,0,1,52.16,256.46ZM202,268c-1.68-1.57-3.54-1.52-5.21-1.34l-.09,3.53s4.15-.21,3.6,1.94a16.46,16.46,0,0,0-.35,1.84L199.87,292c.68,7.94,10.9,9.53,13.43,2a10.36,10.36,0,0,0,.4-3.86v-9.53l2.91-.06-.11-3.39-2.67,0c.2-4.75-.62-9.34-4-10.43A8.24,8.24,0,0,0,202,268Zm8.67,8.13c-1.69.31-4.05-2.88-6-5.17.89-1.71,3.6-1.4,4.61-.35C210.73,272.11,210.63,274.93,210.65,276.1Zm-149-4.83a1.26,1.26,0,1,1-1.26,1.26A1.26,1.26,0,0,1,61.63,271.27Zm141.66,3c1.78,3.49,7.26,6.16,7.34,5.63l0,9.58c.28,3.84-1.07,5.71-3.5,6-4.27,0-4.22-5.25-4.22-8.2l-.06-9.46c0-1.14-.11-2.56.41-3.51Z" transform="translate(-5.81 -13.92)"/>
  </g>
</svg>
