<svg xmlns="http://www.w3.org/2000/svg" viewBox="0 0 211 284.5">
  <defs>
    <style>
      .a {
        fill: #d40000;
      }
    </style>
  </defs>
  <title>d10</title>
  <g>
    <path class="a" d="M24.07,43.34c10.07-9.69,16.67-20.25,23-30.42,5.54,11.18,13.5,21,22.1,30.42a133.62,133.62,0,0,0-22.1,30C40.73,62.49,34.05,52.7,24.07,43.34Z" transform="translate(1.51 0.17)"/>
    <path class="a" d="M24.07,108.75c10.07-9.69,16.67-20.25,23-30.42,5.54,11.19,13.5,21,22.1,30.42a133.4,133.4,0,0,0-22.1,30C40.73,127.9,34.05,118.11,24.07,108.75Z" transform="translate(1.51 0.17)"/>
    <path class="a" d="M24.07,175.7c10.07-9.69,16.67-20.26,23-30.43,5.54,11.19,13.5,21,22.1,30.43a133.11,133.11,0,0,0-22.12,30c-6.36-10.82-13-20.6-23-30Z" transform="translate(1.51 0.17)"/>
    <path class="a" d="M24.07,240.92c10.07-9.69,16.67-20.27,23-30.43,5.54,11.19,13.5,21,22.1,30.43a133.82,133.82,0,0,0-22.12,29.94c-6.36-10.8-13-20.59-23-29.94Z" transform="translate(1.51 0.17)"/>
    <path class="a" d="M81.07,77.75c10.07-9.69,16.71-20.26,23-30.42,5.54,11.23,13.5,21,22.12,30.42a133.19,133.19,0,0,0-22.07,30C97.78,96.9,91,87.1,81.07,77.75Z" transform="translate(1.51 0.17)"/>
    <path class="a" d="M80.59,206.25c10.07-9.69,16.68-20.27,23-30.43,5.55,11.18,13.51,21,22.11,30.43a133,133,0,0,0-22.08,29.95c-6.36-10.81-13.05-20.59-23-29.95Z" transform="translate(1.51 0.17)"/>
    <path class="a" d="M137.23,43.34c10.06-9.69,16.68-20.25,23-30.42,5.54,11.18,13.49,21,22.09,30.42a133.15,133.15,0,0,0-22.06,30C153.9,62.49,147.2,52.7,137.23,43.34Z" transform="translate(1.51 0.17)"/>
    <path class="a" d="M137.23,108.75c10.06-9.69,16.68-20.25,23-30.42,5.54,11.19,13.49,21,22.09,30.42a132.92,132.92,0,0,0-22.06,30C153.9,127.9,147.2,118.11,137.23,108.75Z" transform="translate(1.51 0.17)"/>
    <path class="a" d="M137.23,175.7c10.06-9.69,16.68-20.26,23-30.43,5.54,11.19,13.49,21,22.09,30.43a132.55,132.55,0,0,0-22.06,30C153.9,194.87,147.2,185.09,137.23,175.7Z" transform="translate(1.51 0.17)"/>
    <path class="a" d="M137.23,240.92c10.06-9.69,16.68-20.27,23-30.43,5.54,11.19,13.49,21,22.09,30.43a133.26,133.26,0,0,0-22.06,29.94C153.9,260.06,147.2,250.27,137.23,240.92Z" transform="translate(1.51 0.17)"/>
    <path class="a" d="M190.52,234.86a62,62,0,0,0,9.42-12.46A55.42,55.42,0,0,0,209,234.86,54.65,54.65,0,0,0,200,247.14,52.79,52.79,0,0,0,190.52,234.86Z" transform="translate(1.51 0.17)"/>
    <path class="a" d="M-1,48.78A62.47,62.47,0,0,0,8.38,36.32a55.07,55.07,0,0,0,9,12.46,54,54,0,0,0-9,12.27A52.57,52.57,0,0,0-1,48.78Z" transform="translate(1.51 0.17)"/>
    <path class="a" d="M-1.51,31.37V-.17H1.64V31.37Z" transform="translate(1.51 0.17)"/>
    <path class="a" d="M11-.17a5.74,5.74,0,0,0-5.47,6v19.5a5.73,5.73,0,0,0,5.47,6h1.77a5.77,5.77,0,0,0,5.49-6V5.86a5.74,5.74,0,0,0-5.49-6Zm.92,3a3.12,3.12,0,0,1,3.23,3v0h0V25.52a3.25,3.25,0,0,1-6.47,0V5.82a3.12,3.12,0,0,1,3.22-3h0Z" transform="translate(1.51 0.17)"/>
    <g>
      <path class="a" d="M209.49,252.79v31.54h-3.15V252.79Z" transform="translate(1.51 0.17)"/>
      <path class="a" d="M197,284.3a5.74,5.74,0,0,0,5.47-6V258.8a5.74,5.74,0,0,0-5.47-6h-1.8a5.75,5.75,0,0,0-5.48,6v19.48a5.74,5.74,0,0,0,5.48,6Zm-.92-3a3.12,3.12,0,0,1-3.23-3v0h0V258.57a3.25,3.25,0,0,1,6.47,0v19.74a3.12,3.12,0,0,1-3.22,3h0Z" transform="translate(1.51 0.17)"/>
    </g>
  </g>
</svg>
