<svg xmlns="http://www.w3.org/2000/svg" viewBox="0 0 207.97 284.16">
  <defs>
    <style>
      .a {
        fill: #d40000;
      }
    </style>
  </defs>
  <title>0D</title>
  <g>
    <path class="a" d="M33.35,57.8C43.27,48.12,49.78,37.57,56,27.41c5.46,11.17,13.3,21,21.78,30.39A133,133,0,0,0,56,87.72C49.77,76.93,43.18,67.15,33.35,57.8Z" transform="translate(-8.13 -14.34)"/>
    <path class="a" d="M33.35,123.13C43.27,113.45,49.78,102.9,56,92.75c5.46,11.17,13.3,20.94,21.78,30.38A133,133,0,0,0,56,153.05C49.77,142.26,43.18,132.48,33.35,123.13Z" transform="translate(-8.13 -14.34)"/>
    <path class="a" d="M33.35,190c9.92-9.68,16.43-20.24,22.67-30.39,5.46,11.17,13.3,20.94,21.78,30.39A133,133,0,0,0,56,220c-6.27-10.8-12.86-20.57-22.69-29.92Z" transform="translate(-8.13 -14.34)"/>
    <path class="a" d="M33.35,255.14c9.92-9.68,16.43-20.24,22.67-30.39,5.46,11.17,13.3,20.94,21.78,30.39A133.29,133.29,0,0,0,56,285.05c-6.27-10.79-12.86-20.57-22.69-29.91Z" transform="translate(-8.13 -14.34)"/>
    <path class="a" d="M89.53,92.17C99.45,82.49,106,71.93,112.2,61.78,117.66,73,125.5,82.72,134,92.17a132.83,132.83,0,0,0-21.75,29.92C106,111.29,99.36,101.51,89.53,92.17Z" transform="translate(-8.13 -14.34)"/>
    <path class="a" d="M89.06,220.51c9.92-9.68,16.44-20.24,22.67-30.39,5.47,11.17,13.31,20.94,21.79,30.39a132.57,132.57,0,0,0-21.76,29.92c-6.27-10.8-12.87-20.57-22.7-29.92Z" transform="translate(-8.13 -14.34)"/>
    <path class="a" d="M144.88,57.8c9.92-9.68,16.44-20.23,22.67-30.39,5.46,11.17,13.3,21,21.78,30.39a132.83,132.83,0,0,0-21.75,29.92C161.31,76.93,154.71,67.15,144.88,57.8Z" transform="translate(-8.13 -14.34)"/>
    <path class="a" d="M144.88,123.13c9.92-9.68,16.44-20.23,22.67-30.38,5.46,11.17,13.3,20.94,21.78,30.38a132.83,132.83,0,0,0-21.75,29.92C161.31,142.26,154.71,132.48,144.88,123.13Z" transform="translate(-8.13 -14.34)"/>
    <path class="a" d="M144.88,190c9.92-9.68,16.44-20.24,22.67-30.39,5.46,11.17,13.3,20.94,21.78,30.39a132.46,132.46,0,0,0-21.75,30C161.31,209.15,154.71,199.38,144.88,190Z" transform="translate(-8.13 -14.34)"/>
    <path class="a" d="M144.88,255.14c9.92-9.68,16.44-20.24,22.67-30.39,5.46,11.17,13.3,20.94,21.78,30.39a132.78,132.78,0,0,0-21.75,29.91C161.31,274.26,154.71,264.48,144.88,255.14Z" transform="translate(-8.13 -14.34)"/>
    <path class="a" d="M197.41,249.09a61.69,61.69,0,0,0,9.28-12.45,55.35,55.35,0,0,0,8.93,12.45,54.6,54.6,0,0,0-8.92,12.26A52.65,52.65,0,0,0,197.41,249.09Z" transform="translate(-8.13 -14.34)"/>
    <path class="a" d="M8.59,63.23a62.37,62.37,0,0,0,9.29-12.44A55.34,55.34,0,0,0,26.8,63.23a54.25,54.25,0,0,0-8.91,12.26A52.21,52.21,0,0,0,8.59,63.23Z" transform="translate(-8.13 -14.34)"/>
    <path class="a" d="M8.13,45.84V14.34h3.11v31.5Z" transform="translate(-8.13 -14.34)"/>
    <path class="a" d="M20.46,14.34c-3,0-5.4,2.68-5.4,6V39.82c0,3.34,2.4,6,5.4,6H22.2a5.72,5.72,0,0,0,5.41-6V20.36c0-3.34-2.41-6-5.41-6Zm.9,3a3.09,3.09,0,0,1,3.19,3h0V40a3.2,3.2,0,0,1-6.38,0V20.32a3.09,3.09,0,0,1,3.17-3h0Z" transform="translate(-8.13 -14.34)"/>
    <g>
      <path class="a" d="M216.1,267v31.5H213V267Z" transform="translate(-8.13 -14.34)"/>
      <path class="a" d="M203.77,298.47c3,0,5.4-2.68,5.4-6V273c0-3.34-2.41-6-5.4-6H202c-3,0-5.4,2.68-5.4,6v19.46c0,3.34,2.41,6,5.4,6Zm-.9-3a3.09,3.09,0,0,1-3.19-3h0v-19.7a3.2,3.2,0,0,1,6.38,0v19.72a3.09,3.09,0,0,1-3.18,3h0Z" transform="translate(-8.13 -14.34)"/>
    </g>
  </g>
</svg>
