<svg xmlns="http://www.w3.org/2000/svg" viewBox="0 0 206.61 283.89">
  <defs>
    <style>
      .a {
        fill: #d40000;
      }
    </style>
  </defs>
  <title>2D</title>
  <g>
    <path class="a" d="M90,57.45c9.92-9.69,16.43-20.24,22.66-30.39C118.12,38.23,126,48,134.44,57.45a132.93,132.93,0,0,0-21.76,29.91C106.41,76.57,99.82,66.79,90,57.45Z" transform="translate(-8.81 -14.46)"/>
    <path class="a" d="M90,256.25c9.92-9.68,16.43-20.23,22.66-30.38,5.47,11.17,13.31,20.94,21.79,30.38a133.21,133.21,0,0,0-21.76,29.92C106.41,275.38,99.82,265.6,90,256.25Z" transform="translate(-8.81 -14.46)"/>
    <path class="a" d="M197,249.6c4.06-4,6.73-8.29,9.28-12.45a55.31,55.31,0,0,0,8.93,12.45,54.59,54.59,0,0,0-8.92,12.25A52.38,52.38,0,0,0,197,249.6Z" transform="translate(-8.81 -14.46)"/>
    <path class="a" d="M9.28,63.33c4.07-4,6.73-8.29,9.29-12.45a55.81,55.81,0,0,0,8.92,12.45,54.31,54.31,0,0,0-8.91,12.25,52.15,52.15,0,0,0-9.3-12.25Z" transform="translate(-8.81 -14.46)"/>
    <path class="a" d="M8.81,47.14l.16-2c.51-6.24,1.88-8.35,9.63-14.86,3.75-3.16,5-4.72,5.16-6.53.49-4.25-3.35-5.59-5.85-5.61-3.24,0-6.91,1.91-5.16,6.42L9.11,25.6c-.73-4.2,0-8.14,3.43-9.89,4.54-2.28,10.38-1.38,13.32,2.21a8.43,8.43,0,0,1,1.37,8.35c-3.1,6.67-13.62,9.61-14.49,17.32H24.37V39.3h3.42v7.9Z" transform="translate(-8.81 -14.46)"/>
    <path class="a" d="M215.42,265.67l-.17,2c-.51,6.24-1.87,8.35-9.62,14.86-3.76,3.16-5,4.71-5.17,6.52-.49,4.26,3.35,5.59,5.86,5.62,3.24,0,6.91-1.92,5.16-6.42l3.63-1.07c.74,4.2,0,8.15-3.42,9.9-4.55,2.28-10.38,1.38-13.32-2.21a8.45,8.45,0,0,1-1.37-8.36c3.1-6.67,13.62-9.6,14.49-17.31H199.86v4.29h-3.43V265.6Z" transform="translate(-8.81 -14.46)"/>
  </g>
</svg>
