<svg xmlns="http://www.w3.org/2000/svg" viewBox="0 0 211 284.5">
  <defs>
    <style>
      .a {
        fill: #d40000;
      }
    </style>
  </defs>
  <title>d2</title>
  <g>
    <path class="a" d="M82.92,43.09c10.13-9.71,16.78-20.28,23.14-30.46,5.58,11.2,13.63,21,22.24,30.46a133.85,133.85,0,0,0-22.22,30C99.68,62.25,93,52.45,82.92,43.09Z" transform="translate(0 0.01)"/>
    <path class="a" d="M82.92,242.32c10.13-9.7,16.78-20.27,23.14-30.45,5.59,11.2,13.59,21,22.25,30.45a133.85,133.85,0,0,0-22.22,30C99.68,261.5,93,251.7,82.92,242.32Z" transform="translate(0 0.01)"/>
    <path class="a" d="M192.2,235.67a61.62,61.62,0,0,0,9.48-12.48,56.19,56.19,0,0,0,9.12,12.48,54.78,54.78,0,0,0-9.11,12.27A52.63,52.63,0,0,0,192.2,235.67Z" transform="translate(0 0.01)"/>
    <path class="a" d="M.48,49C4.64,45,7.36,40.67,10,36.51A56.09,56.09,0,0,0,19.08,49,55,55,0,0,0,10,61.26,52.46,52.46,0,0,0,.48,49Z" transform="translate(0 0.01)"/>
    <path class="a" d="M0,32.76l.17-2C.69,24.51,2.09,22.39,10,15.87c3.83-3.17,5.11-4.73,5.27-6.54.5-4.26-3.42-5.61-6-5.63C6,3.69,2.2,5.61,4,10.13l-3.72,1C-.43,6.92.31,3,3.81,1.22,8.45-1,14.41-.13,17.42,3.47a8.34,8.34,0,0,1,1.4,8.37C15.65,18.53,4.91,21.47,4,29.2H15.9V24.9h3.49v7.92Z" transform="translate(0 0.01)"/>
    <path class="a" d="M211,251.77l-.17,2c-.52,6.25-1.91,8.37-9.82,14.89-3.84,3.17-5.11,4.72-5.28,6.53-.5,4.27,3.42,5.61,6,5.64,3.31,0,7.06-1.93,5.27-6.44l3.71-1.07c.75,4.21,0,8.17-3.49,9.92-4.65,2.29-10.6,1.39-13.61-2.21a8.36,8.36,0,0,1-1.4-8.38C195.38,266,206.12,263,207,255.3h-11.9v4.3h-3.5v-7.91Z" transform="translate(0 0.01)"/>
  </g>
</svg>
