<svg xmlns="http://www.w3.org/2000/svg" viewBox="0 0 211 284.5">
  <defs>
    <style>
      .a {
        fill: #d40000;
      }
    </style>
  </defs>
  <title>d3</title>
  <g>
    <path class="a" d="M80.37,43.73C90.51,34,97.18,23.46,103.55,13.29c5.63,11.19,13.61,21,22.28,30.44a132.83,132.83,0,0,0-22.25,30C97.17,62.88,90.42,53.08,80.37,43.73Z" transform="translate(2.34 0.2)"/>
    <path class="a" d="M80.37,241.11c10.14-9.69,16.81-20.27,23.18-30.43,5.58,11.19,13.61,21,22.28,30.43a132.88,132.88,0,0,0-22.25,30c-6.41-10.82-13.16-20.6-23.21-30Z" transform="translate(2.34 0.2)"/>
    <path class="a" d="M80.37,142.33c10.14-9.69,16.81-20.26,23.18-30.42,5.58,11.18,13.61,21,22.28,30.42a133,133,0,0,0-22.25,30C97.17,161.49,90.42,151.69,80.37,142.33Z" transform="translate(2.34 0.2)"/>
    <path class="a" d="M189.77,235.79a62.34,62.34,0,0,0,9.49-12.47,55.34,55.34,0,0,0,9.12,12.47,54.37,54.37,0,0,0-9.12,12.27A52.51,52.51,0,0,0,189.77,235.79Z" transform="translate(2.34 0.2)"/>
    <path class="a" d="M-1.46,49.28A61.6,61.6,0,0,0,8,36.81a56,56,0,0,0,9.12,12.47,54.7,54.7,0,0,0-9.1,12.25A52,52,0,0,0-1.46,49.27Z" transform="translate(2.34 0.2)"/>
    <path class="a" d="M-2.28,25.19.31,23.35c2.27,3.54,4.8,5.87,8.67,5.47,5.79-.38,8.18-6.23,7-10.64A6.77,6.77,0,0,0,7.5,13.87a6.48,6.48,0,0,0-1.38.6c-.9.5-1.94,1.11-1.94,1.11L2.83,13.35l9-10.2H2.05V7.38H-1.68V-.2h19V2.37s-5.11,5.08-6.77,7.86a9.17,9.17,0,0,1,8.68,6.67,16.93,16.93,0,0,1-.53,9,11.71,11.71,0,0,1-9.53,6.43c-6.41.41-9.82-3.91-11.52-7.11Z" transform="translate(2.34 0.2)"/>
    <path class="a" d="M208.66,258.92l-2.6,1.84c-2.26-3.54-4.79-5.88-8.65-5.48-5.81.39-8.19,6.23-7,10.65a6.78,6.78,0,0,0,8.46,4.34,7.54,7.54,0,0,0,1.34-.58c.9-.5,1.94-1,1.94-1l1.61,2-9.21,10.24h9.74v-4.23H208v7.59H189v-2.58s5.11-5.08,6.78-7.86a9.17,9.17,0,0,1-8.68-6.67,17,17,0,0,1,.52-9,11.73,11.73,0,0,1,9.56-6.37c6.41-.41,9.82,3.9,11.51,7.11Z" transform="translate(2.34 0.2)"/>
  </g>
</svg>
