<svg xmlns="http://www.w3.org/2000/svg" viewBox="0 0 208.24 282.7">
  <defs>
    <style>
      .a {
        fill: #d40000;
      }
    </style>
  </defs>
  <title>4D</title>
  <g>
    <path class="a" d="M35.32,55.54C45.24,45.86,51.75,35.31,58,25.16c5.46,11.17,13.3,20.94,21.78,30.38A133.21,133.21,0,0,0,58,85.46C51.75,74.67,45.15,64.89,35.32,55.54Z" transform="translate(-7.99 -15.05)"/>
    <path class="a" d="M35.32,254.39C45.24,244.71,51.75,234.15,58,224c5.46,11.17,13.3,20.95,21.78,30.39A133.21,133.21,0,0,0,58,284.31C51.75,273.51,45.15,263.74,35.32,254.39Z" transform="translate(-7.99 -15.05)"/>
    <path class="a" d="M146.85,55.54c9.92-9.68,16.44-20.23,22.67-30.38C175,36.33,182.82,46.1,191.3,55.54a132.85,132.85,0,0,0-21.75,29.92c-6.27-10.79-12.87-20.57-22.7-29.92Z" transform="translate(-7.99 -15.05)"/>
    <path class="a" d="M146.85,254.39c9.92-9.68,16.44-20.24,22.67-30.39,5.46,11.17,13.3,20.95,21.78,30.39a132.85,132.85,0,0,0-21.75,29.92c-6.27-10.8-12.87-20.57-22.7-29.92Z" transform="translate(-7.99 -15.05)"/>
    <path class="a" d="M196,249.2c4.06-4,6.73-8.29,9.29-12.45a55.27,55.27,0,0,0,8.92,12.45,54.05,54.05,0,0,0-8.91,12.26A52.2,52.2,0,0,0,196,249.2Z" transform="translate(-7.99 -15.05)"/>
    <path class="a" d="M8.82,64.09c4.07-4,6.73-8.29,9.29-12.45A55.58,55.58,0,0,0,27,64.09a54.36,54.36,0,0,0-8.91,12.26,52,52,0,0,0-9.3-12.26Z" transform="translate(-7.99 -15.05)"/>
    <path class="a" d="M18.33,46.87V44.06h2.59V39.42H8V36.15l14-21.1h2.28V36.15h4v3.27h-4l-.07,4.64h2.17v2.81Zm2.59-24.09L12,36.15h8.88Z" transform="translate(-7.99 -15.05)"/>
    <path class="a" d="M205.89,265.94v2.81h-2.58v4.63h12.92v3.28l-14,21.09H200V276.66h-4v-3.28h4l.08-4.63h-2.17v-2.81ZM203.31,290l8.88-13.37h-8.88Z" transform="translate(-7.99 -15.05)"/>
  </g>
</svg>
