<svg xmlns="http://www.w3.org/2000/svg" viewBox="0 0 211 284.5">
  <defs>
    <style>
      .a {
        fill: #d40000;
      }
    </style>
  </defs>
  <title>d4</title>
  <g>
    <path class="a" d="M26.31,39.85C36.36,30.11,43,19.49,49.29,9.27c5.53,11.25,13.48,21.08,22.07,30.58A134.13,134.13,0,0,0,49.29,70C43,59.1,36.27,49.26,26.31,39.85Z" transform="translate(1.38 0.9)"/>
    <path class="a" d="M26.31,240c10.05-9.74,16.65-20.36,23-30.58,5.53,11.24,13.48,21.08,22.07,30.58a134.36,134.36,0,0,0-22.07,30.11C43,259.21,36.27,249.37,26.31,240Z" transform="translate(1.38 0.9)"/>
    <path class="a" d="M139.32,39.85c10.05-9.74,16.66-20.36,23-30.58,5.56,11.25,13.48,21.08,22.07,30.58a133.78,133.78,0,0,0-22,30.11C156,59.1,149.28,49.26,139.32,39.85Z" transform="translate(1.38 0.9)"/>
    <path class="a" d="M139.32,240c10.05-9.74,16.66-20.36,23-30.58,5.54,11.24,13.48,21.08,22.07,30.58a134.23,134.23,0,0,0-22,30.11C156,259.21,149.28,249.37,139.32,240Z" transform="translate(1.38 0.9)"/>
    <path class="a" d="M189.13,234.74a62.29,62.29,0,0,0,9.41-12.53,55.43,55.43,0,0,0,9,12.53,54.38,54.38,0,0,0-9,12.34A52.86,52.86,0,0,0,189.13,234.74Z" transform="translate(1.38 0.9)"/>
    <path class="a" d="M-.54,48.45c4.12-4,6.82-8.34,9.41-12.53a55.93,55.93,0,0,0,9,12.53,54.61,54.61,0,0,0-9,12.34A52.59,52.59,0,0,0-.57,48.45Z" transform="translate(1.38 0.9)"/>
    <path class="a" d="M9.09,31.12V28.29h2.63V23.63H-1.38v-3.3L12.81-.9h2.31V20.33h4.05v3.3H15.12l-.07,4.66h2.2v2.83ZM11.72,6.88l-9,13.45h9Z" transform="translate(1.38 0.9)"/>
    <path class="a" d="M199.15,251.59v2.83h-2.62v4.65h13.09v3.31L195.44,283.6h-2.26V262.38h-4.05v-3.31h4.05l.08-4.65h-2.2v-2.83Zm-2.62,24.21,9-13.45h-9Z" transform="translate(1.38 0.9)"/>
  </g>
</svg>
