<svg xmlns="http://www.w3.org/2000/svg" viewBox="0 0 211 284.5">
  <defs>
    <style>
      .a {
        fill: #d40000;
      }
    </style>
  </defs>
  <title>d5</title>
  <g>
    <path class="a" d="M24.15,43.24C34.27,33.56,40.91,23,47.22,12.84c5.62,11.18,13.62,21,22.27,30.4a133,133,0,0,0-22.2,29.93C40.9,62.37,34.16,52.59,24.15,43.24Z" transform="translate(2.06 0.03)"/>
    <path class="a" d="M24.15,239.93c10.12-9.68,16.76-20.24,23.11-30.39,5.58,11.17,13.58,21,22.23,30.39a133.08,133.08,0,0,0-22.2,29.95C40.9,259.06,34.16,249.28,24.15,239.93Z" transform="translate(2.06 0.03)"/>
    <path class="a" d="M137,43.24c10.14-9.68,16.76-20.23,23.12-30.4,5.57,11.17,13.57,21,22.22,30.39a133.19,133.19,0,0,0-22.2,29.93c-6.39-10.8-13.12-20.58-23.14-29.93Z" transform="translate(2.06 0.03)"/>
    <path class="a" d="M80.69,142.52c10.12-9.68,16.76-20.23,23.12-30.39,5.58,11.18,13.57,21,22.22,30.39a133,133,0,0,0-22.19,29.93c-6.4-10.8-13.13-20.58-23.16-29.93Z" transform="translate(2.06 0.03)"/>
    <path class="a" d="M137,239.93c10.12-9.68,16.76-20.24,23.12-30.39,5.57,11.17,13.57,21,22.22,30.39a133.08,133.08,0,0,0-22.2,29.95C153.79,259.09,147.06,249.31,137,240Z" transform="translate(2.06 0.03)"/>
    <path class="a" d="M189.29,235.43c4.14-4,6.86-8.3,9.47-12.46a55.28,55.28,0,0,0,9.1,12.46,54.18,54.18,0,0,0-9.09,12.26A52.21,52.21,0,0,0,189.29,235.43Z" transform="translate(2.06 0.03)"/>
    <path class="a" d="M-1.15,49.53A61.83,61.83,0,0,0,8.32,37.08a55,55,0,0,0,9.11,12.45,54.27,54.27,0,0,0-9.1,12.32A52,52,0,0,0-1.15,49.53Z" transform="translate(2.06 0.03)"/>
    <path class="a" d="M-2.06,23.84H1.22c.62,1.94,2,3.92,3.89,4.47,5.32,1.23,8.74-1.69,9.87-5,1.37-4.07,0-9.79-3.69-11.82-3.06-1.69-7.55-.27-9.61,3.34L-.63,13.45.61,0h15V3.16H3.45L3.27,8.75a9.86,9.86,0,0,1,9.27-.52c5,2.32,7.27,7.59,6.3,13.81-1.33,6.18-4.28,9.68-10.93,10.19-7.38.06-10-4.92-10-8.35Z" transform="translate(2.06 0.03)"/>
    <path class="a" d="M208.93,260.65h-3.28c-.63-1.94-2-3.93-3.9-4.47-5.31-1.23-8.74,1.68-9.86,5-1.37,4.08,0,9.8,3.69,11.83,3.06,1.69,7.54.26,9.61-3.34l2.3,1.38-1.24,13.42h-15V281.3h12.18l.19-5.59a9.92,9.92,0,0,1-9.27.52c-5-2.32-7.26-7.59-6.29-13.81,1.33-6.18,4.27-9.69,10.92-10.19,7.39-.06,10,4.92,10,8.35Z" transform="translate(2.06 0.03)"/>
  </g>
</svg>
