<svg xmlns="http://www.w3.org/2000/svg" viewBox="0 0 206.87 284.52">
  <defs>
    <style>
      .a {
        fill: #d40000;
      }
    </style>
  </defs>
  <title>5D</title>
  <g>
    <path class="a" d="M34.38,57.4C44.3,47.72,50.81,37.17,57,27,62.51,38.18,70.35,48,78.83,57.4A132.9,132.9,0,0,0,57.07,87.32C50.8,76.52,44.2,66.75,34.38,57.4Z" transform="translate(-8.68 -14.14)"/>
    <path class="a" d="M34.38,254.05c9.92-9.68,16.43-20.23,22.66-30.38,5.47,11.17,13.31,20.94,21.79,30.38A132.9,132.9,0,0,0,57.07,284C50.8,273.18,44.2,263.4,34.38,254.05Z" transform="translate(-8.68 -14.14)"/>
    <path class="a" d="M145.06,57.4C155,47.72,161.49,37.17,167.73,27c5.46,11.17,13.3,21,21.78,30.39a133.21,133.21,0,0,0-21.76,29.92c-6.27-10.8-12.86-20.57-22.69-29.92Z" transform="translate(-8.68 -14.14)"/>
    <path class="a" d="M89.82,156.66c9.92-9.68,16.43-20.23,22.66-30.38,5.47,11.17,13.31,20.94,21.79,30.38a132.9,132.9,0,0,0-21.76,29.92c-6.27-10.79-12.87-20.57-22.7-29.92Z" transform="translate(-8.68 -14.14)"/>
    <path class="a" d="M145.06,254.05c9.92-9.68,16.43-20.23,22.67-30.38,5.46,11.17,13.3,20.94,21.78,30.38A133.21,133.21,0,0,0,167.75,284c-6.27-10.79-12.86-20.57-22.69-29.92Z" transform="translate(-8.68 -14.14)"/>
    <path class="a" d="M196.29,249.55c4.06-4,6.73-8.29,9.28-12.45a55.31,55.31,0,0,0,8.93,12.45,54.41,54.41,0,0,0-8.92,12.26A52.22,52.22,0,0,0,196.29,249.55Z" transform="translate(-8.68 -14.14)"/>
    <path class="a" d="M9.58,63.69c4.06-4,6.73-8.29,9.28-12.45a55.31,55.31,0,0,0,8.93,12.45A54.41,54.41,0,0,0,18.87,76,52.15,52.15,0,0,0,9.58,63.69Z" transform="translate(-8.68 -14.14)"/>
    <path class="a" d="M8.68,38l3.22,0c.61,1.94,2,3.92,3.81,4.47,5.22,1.23,8.57-1.69,9.68-5,1.34-4.07,0-9.79-3.62-11.82-3-1.69-7.4-.27-9.42,3.34l-2.26-1.38L11.3,14.14H26v3.18H14.09l-.18,5.59A9.54,9.54,0,0,1,23,22.39c4.87,2.32,7.13,7.59,6.18,13.81-1.31,6.18-4.2,9.68-10.72,10.19-7.24.06-9.8-4.92-9.77-8.35Z" transform="translate(-8.68 -14.14)"/>
    <path class="a" d="M215.55,274.77l-3.22,0c-.62-1.94-2-3.93-3.82-4.47-5.21-1.23-8.57,1.68-9.67,5-1.34,4.08,0,9.8,3.62,11.83,3,1.69,7.39.26,9.42-3.34l2.25,1.38-1.21,13.42H198.19v-3.17h11.94l.19-5.59a9.59,9.59,0,0,1-9.09.52c-4.86-2.32-7.12-7.59-6.17-13.81,1.31-6.18,4.19-9.69,10.71-10.19,7.25-.06,9.81,4.92,9.78,8.35Z" transform="translate(-8.68 -14.14)"/>
  </g>
</svg>
