<svg xmlns="http://www.w3.org/2000/svg" viewBox="0 0 207.37 284.97">
  <defs>
    <style>
      .a {
        fill: #d40000;
      }
    </style>
  </defs>
  <title>6D</title>
  <g>
    <path class="a" d="M34.26,57.84c9.92-9.68,16.44-20.23,22.67-30.39,5.46,11.17,13.3,21,21.78,30.39A133.21,133.21,0,0,0,57,87.76C50.69,77,44.09,67.19,34.26,57.84Z" transform="translate(-8.43 -13.92)"/>
    <path class="a" d="M34.26,156.74c9.92-9.68,16.44-20.24,22.67-30.39,5.46,11.17,13.3,20.94,21.78,30.39A133,133,0,0,0,57,186.66C50.69,175.86,44.09,166.08,34.26,156.74Z" transform="translate(-8.43 -13.92)"/>
    <path class="a" d="M34.26,255.34C44.18,245.65,50.7,235.1,56.93,225c5.46,11.17,13.3,20.94,21.78,30.39A132.93,132.93,0,0,0,57,285.25C50.69,274.46,44.09,264.68,34.26,255.34Z" transform="translate(-8.43 -13.92)"/>
    <path class="a" d="M145.79,57.84c9.92-9.68,16.44-20.23,22.67-30.39,5.46,11.17,13.31,21,21.79,30.39a132.59,132.59,0,0,0-21.76,29.92C162.22,77,155.62,67.19,145.79,57.84Z" transform="translate(-8.43 -13.92)"/>
    <path class="a" d="M145.79,156.74c9.92-9.68,16.44-20.24,22.67-30.39,5.46,11.17,13.31,20.94,21.79,30.39a132.37,132.37,0,0,0-21.76,29.92C162.22,175.86,155.62,166.08,145.79,156.74Z" transform="translate(-8.43 -13.92)"/>
    <path class="a" d="M145.79,255.34c9.92-9.69,16.44-20.24,22.67-30.39,5.46,11.17,13.31,20.94,21.79,30.39a132.32,132.32,0,0,0-21.76,29.91C162.22,274.46,155.62,264.68,145.79,255.34Z" transform="translate(-8.43 -13.92)"/>
    <path class="a" d="M197.53,248.33c4.07-4,6.73-8.29,9.29-12.45a55.81,55.81,0,0,0,8.92,12.45,54,54,0,0,0-8.91,12.25,52.15,52.15,0,0,0-9.3-12.25Z" transform="translate(-8.43 -13.92)"/>
    <path class="a" d="M8.72,62.47c4.06-4,6.73-8.29,9.28-12.45a55.31,55.31,0,0,0,8.93,12.45A54.59,54.59,0,0,0,18,74.72,52.11,52.11,0,0,0,8.72,62.47Z" transform="translate(-8.43 -13.92)"/>
    <path class="a" d="M8.74,36.5a64.58,64.58,0,0,1-.07-11.94c1-6.43,3.53-9.37,7.72-10.34s9.79.11,11.05,5.49L24,19.77c-1.84-3.63-6.49-2.66-9.11-1.08-2.1,1.26-3,6.52-2.64,6.84,0,0,4-2.88,7.08-2.66,6.67.68,9.42,6.35,9.18,11.71-.21,6.45-2.29,11.61-9.36,12C12.46,46.28,9.38,42.68,8.74,36.5Zm16.57-1.71c0-4.47-2-7.82-5.95-8.19S11.5,30,11.77,34.54,13.85,43,18.6,43c5.1,0,6.68-5,6.71-8.16Z" transform="translate(-8.43 -13.92)"/>
    <path class="a" d="M215.49,276.31a63.67,63.67,0,0,1,.06,11.94c-1,6.43-3.53,9.37-7.72,10.33s-9.79-.1-11-5.48l3.4-.06c1.84,3.63,6.5,2.66,9.12,1.08,2.09-1.26,3-6.52,2.63-6.84,0,0-3.95,2.88-7.07,2.66-6.67-.68-9.42-6.35-9.19-11.72.21-6.45,2.3-11.6,9.36-11.94,6.72.25,9.8,3.85,10.45,10ZM198.92,278c0,4.48,2,7.83,6,8.2s7.86-3.39,7.59-7.95-2.08-8.43-6.83-8.41c-5.11,0-6.69,5-6.71,8.16Z" transform="translate(-8.43 -13.92)"/>
  </g>
</svg>
