<svg xmlns="http://www.w3.org/2000/svg" viewBox="0 0 211 284.5">
  <defs>
    <style>
      .a {
        fill: #d40000;
      }
    </style>
  </defs>
  <title>d6</title>
  <g>
    <path class="a" d="M24.47,44.09C34.56,34.43,41.2,23.9,47.54,13.75c5.55,11.15,13.53,21,22.16,30.34A132.68,132.68,0,0,0,47.61,74C41.19,63.22,34.47,53.43,24.47,44.09Z" transform="translate(1.82 -0.23)"/>
    <path class="a" d="M24.47,142.82c10.09-9.66,16.73-20.21,23.07-30.34,5.55,11.15,13.53,20.91,22.16,30.34a132.68,132.68,0,0,0-22.09,29.87C41.19,161.91,34.47,152.14,24.47,142.82Z" transform="translate(1.82 -0.23)"/>
    <path class="a" d="M24.47,241.25C34.56,231.57,41.2,221,47.54,211c5.55,11.15,13.53,20.9,22.16,30.34a132.65,132.65,0,0,0-22.09,29.81C41.19,260.33,34.47,250.57,24.47,241.25Z" transform="translate(1.82 -0.23)"/>
    <path class="a" d="M138,44.09C148,34.43,154.68,23.9,161,13.75c5.55,11.15,13.54,21,22.17,30.34A132.37,132.37,0,0,0,161.05,74C154.67,63.22,148,53.43,138,44.09Z" transform="translate(1.82 -0.23)"/>
    <path class="a" d="M138,142.82c10.09-9.66,16.73-20.21,23.07-30.34,5.55,11.15,13.54,20.91,22.17,30.34a131.85,131.85,0,0,0-22.14,29.87C154.67,161.91,148,152.14,138,142.82Z" transform="translate(1.82 -0.23)"/>
    <path class="a" d="M138,241.25C148,231.57,154.68,221,161,210.91c5.55,11.15,13.54,20.9,22.17,30.34a131.79,131.79,0,0,0-22.14,29.86C154.67,260.33,148,250.57,138,241.25Z" transform="translate(1.82 -0.23)"/>
    <path class="a" d="M190.59,234.25c4.14-4,6.85-8.28,9.46-12.43a55.52,55.52,0,0,0,9.07,12.43,54.11,54.11,0,0,0-9.06,12.23,52.16,52.16,0,0,0-9.47-12.23Z" transform="translate(1.82 -0.23)"/>
    <path class="a" d="M-1.52,48.71A61.25,61.25,0,0,0,7.92,36.28,55.38,55.38,0,0,0,17,48.71,55.08,55.08,0,0,0,7.92,60.94,52,52,0,0,0-1.52,48.71Z" transform="translate(1.82 -0.23)"/>
    <path class="a" d="M-1.5,22.79a63.29,63.29,0,0,1-.07-11.92C-.55,4.45,2,1.52,6.29.55S16.25.66,17.53,6L14,6.09C12.16,2.46,7.43,3.43,4.76,5c-2.14,1.26-3,6.51-2.69,6.83,0,0,4.07-2.88,7.21-2.66,6.78.68,9.58,6.34,9.34,11.69-.22,6.44-2.33,11.59-9.53,12C2.29,32.55-.85,29-1.5,22.79Zm16.86-1.71c0-4.46-2-7.81-6-8.17s-8,3.39-7.72,7.92,2.11,8.45,6.94,8.45c5.19,0,6.8-5,6.83-8.15Z" transform="translate(1.82 -0.23)"/>
    <path class="a" d="M208.87,262.18a62.46,62.46,0,0,1,.06,11.92c-1,6.42-3.59,9.35-7.86,10.31s-10-.1-11.19-5.47l3.46-.06c1.87,3.63,6.61,2.66,9.28,1.08,2.13-1.26,3-6.51,2.68-6.83,0,0-4,2.88-7.2,2.66-6.78-.68-9.58-6.34-9.35-11.7.22-6.44,2.34-11.58,9.53-11.92,6.83.25,10,3.84,10.63,10ZM192,263.87c0,4.47,2,7.82,6.1,8.18s8-3.38,7.73-7.93-2.12-8.42-7-8.4c-5.2,0-6.81,5-6.83,8.15Z" transform="translate(1.82 -0.23)"/>
  </g>
</svg>
