<svg xmlns="http://www.w3.org/2000/svg" viewBox="0 0 211 284.5">
  <defs>
    <style>
      .a {
        fill: #d40000;
      }
    </style>
  </defs>
  <title>d7</title>
  <g>
    <path class="a" d="M24.7,43.49C34.75,33.75,41.33,23.12,47.64,12.9,53.17,24.15,61.11,34,69.73,43.49A133.67,133.67,0,0,0,47.67,73.62C41.32,62.75,34.65,52.91,24.7,43.49Z" transform="translate(1.25 0.97)"/>
    <path class="a" d="M24.7,144.43c10.05-9.74,16.63-20.37,22.94-30.6,5.53,11.25,13.47,21.15,22,30.6a133.5,133.5,0,0,0-22,30.13C41.32,163.69,34.65,153.85,24.7,144.43Z" transform="translate(1.25 0.97)"/>
    <path class="a" d="M24.7,243.71c10.05-9.75,16.63-20.38,22.94-30.6,5.53,11.25,13.47,21.08,22,30.6a133.67,133.67,0,0,0-22,30.12C41.32,263,34.65,253.12,24.7,243.71Z" transform="translate(1.25 0.97)"/>
    <path class="a" d="M81.81,94c10-9.75,16.63-20.38,23-30.6,5.52,11.25,13.46,21.08,22,30.6a133.67,133.67,0,0,0-22,30.12C98.44,113.22,91.76,103.37,81.81,94Z" transform="translate(1.25 0.97)"/>
    <path class="a" d="M137.53,43.49c10.12-9.74,16.67-20.37,23-30.59C166,24.15,174,34,182.56,43.49a134,134,0,0,0-22,30.13C154.19,62.75,147.52,52.91,137.53,43.49Z" transform="translate(1.25 0.97)"/>
    <path class="a" d="M137.53,144.43c10-9.74,16.63-20.37,22.94-30.6,5.53,11.25,13.47,21.15,22.05,30.6a133.73,133.73,0,0,0-22,30.13c-6.35-10.87-13-20.71-23-30.13Z" transform="translate(1.25 0.97)"/>
    <path class="a" d="M137.53,243.71c10-9.75,16.63-20.38,22.94-30.6,5.53,11.25,13.47,21.08,22.05,30.6a133.67,133.67,0,0,0-22,30.12C154.19,263,147.52,253.12,137.53,243.71Z" transform="translate(1.25 0.97)"/>
    <path class="a" d="M190.88,236.44a62.11,62.11,0,0,0,9.39-12.54,55.53,55.53,0,0,0,9,12.54,54.89,54.89,0,0,0-9,12.33A53,53,0,0,0,190.88,236.44Z" transform="translate(1.25 0.97)"/>
    <path class="a" d="M-.21,49.3c4.11-4,6.81-8.34,9.4-12.53a55.7,55.7,0,0,0,9,12.53,54.7,54.7,0,0,0-9,12.35A52.14,52.14,0,0,0-.21,49.3Z" transform="translate(1.25 0.97)"/>
    <path class="a" d="M3.79,31.13C6,20,8.25,11.6,14.29,2.49H2V6.41H-1.25V-1h18l2.22,3.46c-6.42,6.84-12.3,29-11.25,28.64Z" transform="translate(1.25 0.97)"/>
    <path class="a" d="M204.71,251.43c-2.16,11.17-4.46,19.54-10.5,28.64h12.28v-3.92h3.26v7.38h-18l-2.22-3.46c6.42-6.84,12.3-29,11.25-28.64Z" transform="translate(1.25 0.97)"/>
  </g>
</svg>
