<svg xmlns="http://www.w3.org/2000/svg" viewBox="0 0 208.5 282.57">
  <defs>
    <style>
      .a {
        fill: #d40000;
      }
    </style>
  </defs>
  <title>7D</title>
  <g>
    <path class="a" d="M33.5,59.28C43.43,49.6,49.94,39.05,56.17,28.9,61.64,40.07,69.48,49.84,78,59.28A132.9,132.9,0,0,0,56.2,89.2C49.93,78.41,43.33,68.63,33.5,59.28Z" transform="translate(-7.86 -15.12)"/>
    <path class="a" d="M33.5,159.53c9.93-9.68,16.44-20.23,22.67-30.39,5.47,11.17,13.31,21,21.79,30.39A132.9,132.9,0,0,0,56.2,189.45c-6.27-10.79-12.87-20.57-22.7-29.92Z" transform="translate(-7.86 -15.12)"/>
    <path class="a" d="M33.5,258.13c9.93-9.68,16.44-20.24,22.67-30.39,5.47,11.17,13.31,20.94,21.79,30.39A132.9,132.9,0,0,0,56.2,288.05C49.93,277.25,43.33,267.48,33.5,258.13Z" transform="translate(-7.86 -15.12)"/>
    <path class="a" d="M89.94,109.41c9.92-9.68,16.43-20.24,22.67-30.39,5.46,11.17,13.3,20.94,21.78,30.39a133.21,133.21,0,0,0-21.76,29.92C106.37,128.53,99.77,118.75,89.94,109.41Z" transform="translate(-7.86 -15.12)"/>
    <path class="a" d="M145,59.28C155,49.6,161.47,39.05,167.7,28.9c5.47,11.17,13.31,20.94,21.79,30.38A133.21,133.21,0,0,0,167.73,89.2C161.46,78.41,154.87,68.63,145,59.28Z" transform="translate(-7.86 -15.12)"/>
    <path class="a" d="M145,159.53c9.92-9.68,16.43-20.23,22.66-30.39,5.47,11.17,13.31,21,21.79,30.39a133.21,133.21,0,0,0-21.76,29.92c-6.27-10.79-12.86-20.57-22.69-29.92Z" transform="translate(-7.86 -15.12)"/>
    <path class="a" d="M145,258.13c9.92-9.68,16.43-20.24,22.66-30.39,5.47,11.17,13.31,20.94,21.79,30.39a133.21,133.21,0,0,0-21.76,29.92C161.46,277.25,154.87,267.48,145,258.13Z" transform="translate(-7.86 -15.12)"/>
    <path class="a" d="M197.71,250.91c4.06-4,6.73-8.29,9.28-12.45a55.31,55.31,0,0,0,8.93,12.45A54.59,54.59,0,0,0,207,263.16a52.38,52.38,0,0,0-9.29-12.25Z" transform="translate(-7.86 -15.12)"/>
    <path class="a" d="M8.89,65.05c4.06-4,6.73-8.29,9.29-12.45A55.27,55.27,0,0,0,27.1,65.05a54.05,54.05,0,0,0-8.91,12.26,52,52,0,0,0-9.3-12.26Z" transform="translate(-7.86 -15.12)"/>
    <path class="a" d="M12.84,47C15,35.92,17.25,27.6,23.22,18.56H11.08v3.89H7.86V15.12H25.61l2.19,3.44C21.46,25.35,15.65,47.33,16.68,47Z" transform="translate(-7.86 -15.12)"/>
    <path class="a" d="M211.38,265.8c-2.13,11.09-4.41,19.41-10.38,28.44h12.14v-3.89h3.22v7.33H198.61l-2.19-3.44c6.34-6.79,12.15-28.76,11.12-28.44Z" transform="translate(-7.86 -15.12)"/>
  </g>
</svg>
