<svg xmlns="http://www.w3.org/2000/svg" viewBox="0 0 211 284.5">
  <defs>
    <style>
      .a {
        fill: #d40000;
      }
    </style>
  </defs>
  <title>d8</title>
  <g>
    <path class="a" d="M25,41.51c10-9.74,16.55-20.36,22.82-30.57C53.31,22.18,61.21,32,69.76,41.51A133.31,133.31,0,0,0,47.85,71.58C41.54,60.75,34.9,50.91,25,41.51Z" transform="translate(0.72 0.82)"/>
    <path class="a" d="M25,142.38C35,132.63,41.55,122,47.82,111.8c5.5,11.24,13.39,21.07,21.94,30.58a133.2,133.2,0,0,0-21.91,30.09C41.54,161.61,34.9,151.77,25,142.38Z" transform="translate(0.72 0.82)"/>
    <path class="a" d="M25,241.61c10-9.74,16.55-20.35,22.82-30.57,5.49,11.2,13.39,21,21.94,30.57a133.48,133.48,0,0,0-21.91,30.1C41.54,260.82,34.9,251,25,241.61Z" transform="translate(0.72 0.82)"/>
    <path class="a" d="M81.57,91.94c10-9.74,16.54-20.36,22.82-30.58,5.5,11.22,13.36,21.08,21.94,30.58A133.4,133.4,0,0,0,104.42,122C98.1,111.18,91.46,101.35,81.57,91.94Z" transform="translate(0.72 0.82)"/>
    <path class="a" d="M137.29,41.51c10-9.74,16.55-20.36,22.83-30.57,5.5,11.24,13.4,21.07,21.93,30.57a133.27,133.27,0,0,0-21.9,30.07C153.83,60.75,147.19,50.91,137.29,41.51Z" transform="translate(0.72 0.82)"/>
    <path class="a" d="M137.29,142.38c10-9.75,16.55-20.37,22.83-30.58,5.5,11.24,13.4,21.07,21.93,30.58a132.85,132.85,0,0,0-21.9,30.09C153.83,161.61,147.19,151.77,137.29,142.38Z" transform="translate(0.72 0.82)"/>
    <path class="a" d="M137.29,241.61c10-9.74,16.55-20.35,22.83-30.57,5.5,11.24,13.4,21.07,21.93,30.57a133.44,133.44,0,0,0-21.9,30.1C153.83,260.82,147.19,251,137.29,241.61Z" transform="translate(0.72 0.82)"/>
    <path class="a" d="M81.57,192c10-9.73,16.54-20.37,22.82-30.58,5.5,11.24,13.4,21.07,21.94,30.58a133.34,133.34,0,0,0-21.91,30.09C98.1,211.21,91.46,201.36,81.57,192Z" transform="translate(0.72 0.82)"/>
    <path class="a" d="M191.71,237.44a61.37,61.37,0,0,0,9.35-12.52,56.06,56.06,0,0,0,9,12.52,55.6,55.6,0,0,0-9,12.34,52.62,52.62,0,0,0-9.36-12.34Z" transform="translate(0.72 0.82)"/>
    <path class="a" d="M1.61,50.45A62,62,0,0,0,11,37.93a55.79,55.79,0,0,0,9,12.52,55,55,0,0,0-9,12.33A52.32,52.32,0,0,0,1.61,50.45Z" transform="translate(0.72 0.82)"/>
    <path class="a" d="M-.72,22.33c.16-4.41,1.79-6,5-8.36A7.61,7.61,0,0,1,.85,7.23C1.39,1.76,5.7-1,10.41-.81S19.17,3,19.47,7c.27,3.46-.77,5.13-3.28,7,3,2.45,4.87,4,4.8,8.41a10.29,10.29,0,0,1-10.37,9.59C4.08,32.09-.88,26.72-.72,22.33Zm18.3,0c.28-4-3.3-6.67-7.36-6.71s-7.48,3.26-7.48,6.84c0,3.84,4.59,5.93,7.56,5.94,3.6,0,7.05-2.63,7.28-6ZM16.29,8.08c.07-3.36-3.08-5.77-6.33-5.66-2.9.08-6,2.25-6,5,0,3.51,3.48,5.26,6.45,5.33C13.15,12.87,16.23,10.62,16.29,8.08Z" transform="translate(0.72 0.82)"/>
    <path class="a" d="M210.26,260.48c-.17,4.4-1.79,6-5,8.36a7.55,7.55,0,0,1,3.41,6.74c-.53,5.47-4.85,8.22-9.55,8.09s-8.77-3.78-9.06-7.76c-.28-3.47.77-5.14,3.28-7-3-2.45-4.88-4.07-4.8-8.41a10.3,10.3,0,0,1,10.38-9.65c6.55-.16,11.5,5.2,11.34,9.6Zm-18.3,0c-.28,4,3.31,6.68,7.36,6.72s7.48-3.27,7.49-6.84c0-3.84-4.6-5.93-7.57-5.94-3.6,0-7.05,2.63-7.28,6Zm1.3,14.25c-.08,3.36,3.08,5.77,6.33,5.66,2.89-.08,6-2.25,6-5,0-3.51-3.48-5.26-6.46-5.33C196.39,269.94,193.32,272.19,193.26,274.73Z" transform="translate(0.72 0.82)"/>
  </g>
</svg>
