<svg xmlns="http://www.w3.org/2000/svg" viewBox="0 0 209.55 282.82">
  <defs>
    <style>
      .a {
        fill: #d40000;
      }
    </style>
  </defs>
  <title>8D</title>
  <g>
    <path class="a" d="M32.88,57.12c9.92-9.68,16.44-20.24,22.67-30.39C61,37.9,68.85,47.67,77.34,57.12A132.37,132.37,0,0,0,55.58,87C49.31,76.24,42.71,66.46,32.88,57.12Z" transform="translate(-7.34 -15)"/>
    <path class="a" d="M32.88,157.37c9.92-9.69,16.44-20.24,22.67-30.39,5.46,11.17,13.3,20.94,21.79,30.39a132.32,132.32,0,0,0-21.76,29.91C49.31,176.49,42.71,166.71,32.88,157.37Z" transform="translate(-7.34 -15)"/>
    <path class="a" d="M32.88,256c9.92-9.68,16.44-20.23,22.67-30.38C61,236.75,68.85,246.52,77.34,256a132.59,132.59,0,0,0-21.76,29.92C49.31,275.09,42.71,265.31,32.88,256Z" transform="translate(-7.34 -15)"/>
    <path class="a" d="M89.07,107.24C99,97.56,105.5,87,111.73,76.85,117.2,88,125,97.8,133.52,107.24a132.9,132.9,0,0,0-21.76,29.92C105.49,126.36,98.89,116.59,89.07,107.24Z" transform="translate(-7.34 -15)"/>
    <path class="a" d="M144.41,57.12c9.93-9.68,16.44-20.24,22.67-30.39,5.47,11.17,13.31,20.94,21.79,30.39A132.37,132.37,0,0,0,167.11,87C160.84,76.24,154.24,66.46,144.41,57.12Z" transform="translate(-7.34 -15)"/>
    <path class="a" d="M144.41,157.37c9.93-9.69,16.44-20.24,22.67-30.39,5.47,11.17,13.31,20.94,21.79,30.39a132.32,132.32,0,0,0-21.76,29.91C160.84,176.49,154.24,166.71,144.41,157.37Z" transform="translate(-7.34 -15)"/>
    <path class="a" d="M144.41,256c9.93-9.68,16.44-20.23,22.67-30.38,5.47,11.17,13.31,20.94,21.79,30.38a132.59,132.59,0,0,0-21.76,29.92C160.84,275.09,154.24,265.31,144.41,256Z" transform="translate(-7.34 -15)"/>
    <path class="a" d="M89.07,206.67C99,197,105.5,186.43,111.73,176.28c5.47,11.17,13.31,20.94,21.79,30.39a132.62,132.62,0,0,0-21.76,29.91C105.49,225.79,98.89,216,89.07,206.67Z" transform="translate(-7.34 -15)"/>
    <path class="a" d="M198.46,251.86c4.07-4,6.74-8.29,9.29-12.45a55.58,55.58,0,0,0,8.92,12.45,54.67,54.67,0,0,0-8.91,12.26,52.2,52.2,0,0,0-9.3-12.26Z" transform="translate(-7.34 -15)"/>
    <path class="a" d="M9.65,66c4.06-4,6.73-8.29,9.28-12.44A55.26,55.26,0,0,0,27.86,66a54.64,54.64,0,0,0-8.92,12.26A52.15,52.15,0,0,0,9.65,66Z" transform="translate(-7.34 -15)"/>
    <path class="a" d="M7.34,38.05c.16-4.38,1.77-6,4.95-8.31A7.54,7.54,0,0,1,8.9,23.05c.53-5.44,4.81-8.17,9.49-8s8.7,3.76,9,7.72c.27,3.44-.77,5.1-3.26,6.92,3,2.44,4.84,4,4.77,8.36A10.23,10.23,0,0,1,18.6,47.59c-6.5.16-11.42-5.17-11.26-9.54Zm18.17,0c.28-4-3.28-6.63-7.31-6.67s-7.43,3.24-7.43,6.8c0,3.82,4.56,5.9,7.51,5.91,3.58,0,7-2.62,7.23-6ZM24.23,23.89c.07-3.34-3.06-5.73-6.29-5.63-2.88.08-5.92,2.24-5.92,5,0,3.49,3.46,5.23,6.41,5.3C21.11,28.65,24.17,26.41,24.23,23.89Z" transform="translate(-7.34 -15)"/>
    <path class="a" d="M216.88,274.76c-.16,4.37-1.77,6-4.94,8.31a7.49,7.49,0,0,1,3.38,6.69c-.52,5.44-4.81,8.17-9.48,8.05s-8.71-3.76-9-7.72c-.28-3.45.77-5.11,3.26-6.92-3-2.44-4.85-4.05-4.77-8.36a10.24,10.24,0,0,1,10.31-9.6c6.51-.15,11.42,5.17,11.26,9.55Zm-18.17,0c-.28,4,3.29,6.64,7.31,6.68s7.43-3.25,7.44-6.8c0-3.82-4.57-5.9-7.52-5.91-3.58,0-7,2.62-7.23,6ZM200,288.92c-.08,3.34,3.06,5.73,6.29,5.63,2.87-.08,5.92-2.24,5.92-5,0-3.49-3.46-5.23-6.42-5.3C203.11,284.16,200.06,286.4,200,288.92Z" transform="translate(-7.34 -15)"/>
  </g>
</svg>
