<svg xmlns="http://www.w3.org/2000/svg" viewBox="0 0 207.12 285.56">
  <defs>
    <style>
      .a {
        fill: #d40000;
      }
    </style>
  </defs>
  <title>9D</title>
  <g>
    <path class="a" d="M33.17,58.16c9.92-9.69,16.44-20.24,22.67-30.39C61.3,38.94,69.15,48.71,77.63,58.16A132.32,132.32,0,0,0,55.87,88.07C49.6,77.28,43,67.5,33.17,58.16Z" transform="translate(-8.55 -13.62)"/>
    <path class="a" d="M33.17,123.49c9.92-9.68,16.44-20.24,22.67-30.39C61.3,104.27,69.15,114,77.63,123.49A132.54,132.54,0,0,0,55.87,153.4C49.6,142.61,43,132.83,33.17,123.49Z" transform="translate(-8.55 -13.62)"/>
    <path class="a" d="M33.17,190.38c9.92-9.68,16.44-20.23,22.67-30.39,5.46,11.17,13.31,20.95,21.79,30.39A132.59,132.59,0,0,0,55.87,220.3C49.6,209.51,43,199.73,33.17,190.38Z" transform="translate(-8.55 -13.62)"/>
    <path class="a" d="M33.17,255.49c9.92-9.68,16.44-20.24,22.67-30.39C61.3,236.27,69.15,246,77.63,255.49a132.59,132.59,0,0,0-21.76,29.92C49.6,274.61,43,264.84,33.17,255.49Z" transform="translate(-8.55 -13.62)"/>
    <path class="a" d="M89.62,156.62c9.92-9.68,16.43-20.23,22.66-30.38,5.47,11.17,13.31,20.94,21.79,30.38a133.21,133.21,0,0,0-21.76,29.92C106,175.75,99.45,166,89.62,156.62Z" transform="translate(-8.55 -13.62)"/>
    <path class="a" d="M144.71,58.16c9.92-9.69,16.43-20.24,22.66-30.39,5.47,11.17,13.31,20.94,21.79,30.39A132.62,132.62,0,0,0,167.4,88.07C161.13,77.28,154.53,67.5,144.71,58.16Z" transform="translate(-8.55 -13.62)"/>
    <path class="a" d="M144.71,123.49c9.92-9.68,16.43-20.24,22.66-30.39,5.47,11.17,13.31,20.94,21.79,30.39A132.85,132.85,0,0,0,167.4,153.4C161.13,142.61,154.53,132.83,144.71,123.49Z" transform="translate(-8.55 -13.62)"/>
    <path class="a" d="M144.71,190.38c9.92-9.68,16.43-20.23,22.66-30.39,5.47,11.17,13.31,20.95,21.79,30.39A132.9,132.9,0,0,0,167.4,220.3C161.13,209.51,154.53,199.73,144.71,190.38Z" transform="translate(-8.55 -13.62)"/>
    <path class="a" d="M144.71,255.49c9.92-9.68,16.43-20.24,22.66-30.39,5.47,11.17,13.31,20.94,21.79,30.39a132.9,132.9,0,0,0-21.76,29.92C161.13,274.61,154.53,264.84,144.71,255.49Z" transform="translate(-8.55 -13.62)"/>
    <path class="a" d="M197.46,247.28c4.07-4,6.74-8.29,9.29-12.45a55.81,55.81,0,0,0,8.92,12.45,54.85,54.85,0,0,0-8.91,12.25A52.15,52.15,0,0,0,197.46,247.28Z" transform="translate(-8.55 -13.62)"/>
    <path class="a" d="M8.65,61.42c4.06-4,6.73-8.29,9.28-12.45a55.63,55.63,0,0,0,8.93,12.45A54.05,54.05,0,0,0,18,73.68a52,52,0,0,0-9.3-12.26Z" transform="translate(-8.55 -13.62)"/>
    <path class="a" d="M8.77,39.85l3-.94a5.38,5.38,0,0,0,5.89,3.69c4.38-.34,5.84-5.15,6.17-9.4a8.83,8.83,0,0,1-6.46,2.58c-7-.37-8.77-5.85-8.84-11.6-.19-4.84,1.85-8.35,5.35-10,1.85-.82,6.1-.82,8,.15,4.28,2.21,5.87,6.05,5.58,15.19,0,7.52-1.62,16.29-9.84,16.47a7.94,7.94,0,0,1-8.84-6.18Zm11.89-8.24a7.08,7.08,0,0,0,2.87-3c.52-1,.7-1.55.55-3.67-.38-5.45-3.3-8.54-7.52-7.93-2.36.34-3.65,1.64-4.39,4.05-1.36,4.45.37,9.65,3.61,10.85A6.43,6.43,0,0,0,20.66,31.61Z" transform="translate(-8.55 -13.62)"/>
    <path class="a" d="M214.81,273l-3,.94a5.38,5.38,0,0,0-5.89-3.69c-4.38.34-5.83,5.15-6.16,9.4a8.85,8.85,0,0,1,6.46-2.59c7,.37,8.77,5.86,8.83,11.6.19,4.85-1.85,8.36-5.35,10-1.85.81-6.09.81-8-.15-4.28-2.22-5.86-6.05-5.58-15.19,0-7.53,1.63-16.29,9.84-16.48a7.94,7.94,0,0,1,8.84,6.19Zm-11.89,8.24a7.09,7.09,0,0,0-2.86,3c-.53,1-.71,1.56-.56,3.68.39,5.45,3.3,8.54,7.53,7.93,2.35-.34,3.64-1.64,4.38-4,1.37-4.45-.37-9.66-3.61-10.86a6.48,6.48,0,0,0-4.88.34Z" transform="translate(-8.55 -13.62)"/>
  </g>
</svg>
