<svg xmlns="http://www.w3.org/2000/svg" viewBox="0 0 211 284.5">
  <defs>
    <style>
      .a {
        fill: #d40000;
      }
    </style>
  </defs>
  <title>d9</title>
  <g>
    <path class="a" d="M23.15,44.94c10.11-9.65,16.75-20.16,23.1-30.26C51.81,25.8,59.8,35.53,68.44,44.94A131.71,131.71,0,0,0,46.28,74.73C39.89,64,33.17,54.24,23.15,44.94Z" transform="translate(1.96 -0.55)"/>
    <path class="a" d="M23.15,110c10.11-9.64,16.75-20.15,23.1-30.26C51.81,90.86,59.8,100.55,68.44,110a131.93,131.93,0,0,0-22.16,29.79C39.89,129.05,33.17,119.31,23.15,110Z" transform="translate(1.96 -0.55)"/>
    <path class="a" d="M23.15,176.62c10.11-9.64,16.75-20.15,23.1-30.26,5.56,11.12,13.55,20.86,22.19,30.26a131.76,131.76,0,0,0-22.16,29.8C39.89,195.67,33.17,185.93,23.15,176.62Z" transform="translate(1.96 -0.55)"/>
    <path class="a" d="M23.15,241.47c10.11-9.65,16.75-20.16,23.1-30.27C51.81,222.32,59.8,232,68.44,241.47a131.93,131.93,0,0,0-22.16,29.79C39.89,260.51,33.17,250.78,23.15,241.47Z" transform="translate(1.96 -0.55)"/>
    <path class="a" d="M80.65,143c10.11-9.64,16.74-20.15,23.08-30.26,5.58,11.13,13.56,20.86,22.2,30.26a132.93,132.93,0,0,0-22.17,29.8C97.34,162.05,90.67,152.34,80.65,143Z" transform="translate(1.96 -0.55)"/>
    <path class="a" d="M136.77,44.94c10.1-9.65,16.73-20.16,23.08-30.26C165.42,25.8,173.4,35.53,182,44.94a132.53,132.53,0,0,0-22.16,29.79C153.49,64,146.77,54.24,136.77,44.94Z" transform="translate(1.96 -0.55)"/>
    <path class="a" d="M136.77,110c10.1-9.64,16.73-20.15,23.08-30.26C165.42,90.86,173.4,100.59,182,110a132.53,132.53,0,0,0-22.16,29.79C153.49,129.05,146.77,119.31,136.77,110Z" transform="translate(1.96 -0.55)"/>
    <path class="a" d="M136.77,176.62c10.1-9.64,16.73-20.15,23.08-30.26,5.57,11.12,13.55,20.86,22.19,30.26a132.36,132.36,0,0,0-22.16,29.8C153.49,195.67,146.77,185.93,136.77,176.62Z" transform="translate(1.96 -0.55)"/>
    <path class="a" d="M136.77,241.47c10.1-9.65,16.73-20.16,23.08-30.27,5.57,11.12,13.55,20.85,22.19,30.27a132.53,132.53,0,0,0-22.16,29.79C153.49,260.51,146.77,250.78,136.77,241.47Z" transform="translate(1.96 -0.55)"/>
    <path class="a" d="M190.5,233.29a61.52,61.52,0,0,0,9.46-12.4,55.93,55.93,0,0,0,9.08,12.4,54.82,54.82,0,0,0-9.07,12.2A52.53,52.53,0,0,0,190.5,233.29Z" transform="translate(1.96 -0.55)"/>
    <path class="a" d="M-1.82,48.19a62.1,62.1,0,0,0,9.45-12.4,55.17,55.17,0,0,0,9.1,12.4,53.65,53.65,0,0,0-9,12.21A51.85,51.85,0,0,0-1.77,48.19Z" transform="translate(1.96 -0.55)"/>
    <path class="a" d="M-1.7,26.71l3.06-.94a5.49,5.49,0,0,0,6,3.68c4.46-.34,5.94-5.13,6.28-9.37a9.1,9.1,0,0,1-6.58,2.57c-7.13-.37-8.93-5.82-9-11.55-.2-4.82,1.88-8.32,5.45-10a12.69,12.69,0,0,1,8.14.15c4.36,2.2,6,6,5.69,15.13,0,7.49-1.65,16.22-10,16.4a8.08,8.08,0,0,1-9-6.15ZM10.41,18.5a7.07,7.07,0,0,0,2.92-3c.53-1,.72-1.54.57-3.65C13.51,6.43,10.53,3.35,6.24,4,3.83,4.3,2.52,5.59,1.76,8,.38,12.42,2.14,17.6,5.44,18.8A6.68,6.68,0,0,0,10.41,18.5Z" transform="translate(1.96 -0.55)"/>
    <path class="a" d="M208.17,258.9l-3.06.94a5.49,5.49,0,0,0-6-3.68c-4.46.34-5.94,5.13-6.27,9.37a9.07,9.07,0,0,1,6.58-2.58c7.13.37,8.93,5.83,9,11.55.2,4.83-1.88,8.33-5.45,10a12.85,12.85,0,0,1-8.15-.15c-4.36-2.21-6-6-5.68-15.13,0-7.5,1.66-16.22,10-16.41a8.08,8.08,0,0,1,9,6.16Zm-12.11,8.21a7.13,7.13,0,0,0-2.92,3c-.54,1-.72,1.55-.57,3.66.4,5.43,3.36,8.51,7.67,7.9,2.4-.34,3.71-1.63,4.46-4,1.4-4.44-.37-9.62-3.67-10.82a6.74,6.74,0,0,0-5,.34Z" transform="translate(1.96 -0.55)"/>
  </g>
</svg>
