<svg xmlns="http://www.w3.org/2000/svg" viewBox="0 0 211 284.5">
  <defs>
    <style>
      .a {
        fill: #d40000;
      }
    </style>
  </defs>
  <title>da</title>
  <g>
    <path class="a" d="M81.77,142c10-9.72,16.62-20.3,22.91-30.47,5.52,11.2,13.45,21,22,30.47a133,133,0,0,0-22,30C98.38,161.15,91.71,151.35,81.77,142Z" transform="translate(1.12 0.4)"/>
    <path class="a" d="M189.91,235.24a61.89,61.89,0,0,0,9.38-12.49,55.74,55.74,0,0,0,9,12.49,54.88,54.88,0,0,0-9,12.28,52.42,52.42,0,0,0-9.39-12.28Z" transform="translate(1.12 0.4)"/>
    <path class="a" d="M-.49,49A62.12,62.12,0,0,0,8.89,36.55a55.37,55.37,0,0,0,9,12.48,54.85,54.85,0,0,0-9,12.29A52.27,52.27,0,0,0-.49,49Z" transform="translate(1.12 0.4)"/>
    <path class="a" d="M-1.12,31.69V29H1.57L7.3-.4h3.25L16.86,29H19v2.73H11.64V29h2l-.8-4.51H5.38L4.8,29h2v2.73ZM12.2,21.26,9,5.54l-3,15.72Z" transform="translate(1.12 0.4)"/>
    <path class="a" d="M209.88,252v2.76h-2.69l-5.72,29.35h-3.26l-6.31-29.35h-2.17V252h7.39v2.74h-2l.8,4.51h7.47l.58-4.51h-2V252Zm-13.32,10.44,3.24,15.72,3-15.72Z" transform="translate(1.12 0.4)"/>
  </g>
</svg>
