<svg xmlns="http://www.w3.org/2000/svg" viewBox="0 0 212.6 292.02">
  <defs>
    <style>
      .a {
        fill: #131f67;
      }

      .b {
        fill: #e2cf00;
      }

      .c {
        fill: #d40000;
      }
    </style>
  </defs>
  <title>JD</title>
  <g>
    <path class="a" d="M31.46,288.51,31,25.5l163.13.31.21,262.6ZM89.94,69.36c-5.83-1.59-5.69,4.2-1.42,4.42,4.79.41,6.84-7.75,4.55-11C93.07,62.82,91.08,69,89.94,69.36ZM52.09,102.12l-7,3.12,0,5.24a28.82,28.82,0,0,0,7-8.36ZM99.91,259.28c-1.38-.7-3-2.19-2.79-2.46s.88.11,1.55.41c5.48,2.31,9.73,2.16,16.26-.21.49-.18,1.23.77,1,1.28C113,262.58,103.64,261.06,99.91,259.28ZM97,252.86c-1.25-1.89.41-.46,1,.08,4.05,3.77,9.54,5,14.25,1.49a.63.63,0,0,0,.19-.64c-.14-.34-.14,0-2.15.73-4.52,1.69-8.34.3-12-2.55C96.7,250.79,96,250.21,96,249.9s.29-.46.81-.37c.31.06,1.21.24,1.86.3,1.13.09,1,0,2.2-.49a11.68,11.68,0,0,1,7.35-1.1,14.15,14.15,0,0,0,1.46.27c.58-.19-.28-1-2.47-2.7a5.46,5.46,0,0,1-1.15-.93c-.28-.46,0-.58.34-.58.9,0,5,3.4,6.34,5.41.43.61.72.68.72,1.31a2.51,2.51,0,0,0,.53,2.22,9,9,0,0,1,1,1.79c0,.05-.1.39-.57.08-.21,0-.32-.27-.71-.21a6.75,6.75,0,0,0-1.5.6c-5.69,3.66-10.92,1.87-15.18-2.64Zm12.45-.26a6.12,6.12,0,0,0-1-2.7c-1.12-1.22-2.84-1.45-3.88-.2a11.49,11.49,0,0,0-1.23,2.67,8.42,8.42,0,0,0,1.16.26,3.16,3.16,0,0,1,1-2.38,1.76,1.76,0,0,1,1.77-.05c.75.36,1.06,1.83,1.07,2.41a2.49,2.49,0,0,0,1.13,0Zm-6.87-3c-.8.36-1.84.6-2.08,1.13-.32.71.8.92,1.37,1.16.81.39.82.25,1.08-.37.16-.39.38-.89.58-1.35C104.15,249,103.55,249.15,102.6,249.58Zm8.67,2c.46-.46.55-.77.13-1.29a3,3,0,0,0-1.29-.67c-.74-.25-1.07-.56-.6.45l.66,1.44C110.52,252.2,110.81,252,111.27,251.59Zm-75.8-49.05a31.31,31.31,0,0,0,4.07-1.36c1-.38,1.11-.37.71-.92a2.48,2.48,0,0,1-.19-1.41l.07-.88A6.07,6.07,0,0,0,35,199.78C34.32,200.55,34.39,202.26,35.47,202.54Zm-.35,4.3c.52.52.67.54,2.24-.05a6.45,6.45,0,0,1,2.51-.88c1.89-.5,1.89-.3,1.35-1.51a2.76,2.76,0,0,1-.25-1.54c.1-.61.17-.69-.18-.8-.9-.28-5.11,1.29-5.87,2.52a1.65,1.65,0,0,0,.2,2.26ZM134,244.05a10.91,10.91,0,0,0-1,1.63c-.34.85-.13,1,0,2.68.08,1,.1,2.47.1,3.28,0,1.55,0,2,.45,2.12s.61-.23.81-1c.1-.4.34-.82.41-1.08.3-1.74.85-4.64,2.1-5.86a3.2,3.2,0,0,1,1.61-.25c1.14,0,1.5-.05,1.85-.31a2.31,2.31,0,0,0-1.35-4.13C137,240.91,134.2,243.74,134,244.05Zm7.87-.73a3,3,0,0,1-3.89,2.89c-.82-.2-1.06,0-1.61,1.15a41.11,41.11,0,0,0-2,8.53c-.14,1.9-.84,6.83-.33,8.4,5.76,7.12,11.83,14.47,18.47,21.81l39.51,0,.24-46.52-11.47-10.85,0-17.2c-12.29,5.78-24.53,11.65-36.79,17.49,2.67,8.57-6.39,10.37-8.38,4.62-1.72,1.58-3.13,10.09-2.49,10.51,0,0,.22.3.61-.37a6.65,6.65,0,0,1,2.32-2.48c2.55-1.58,5.59-.8,5.77,2Zm-31.45-.87a2.67,2.67,0,0,1,.71-4.6,5.46,5.46,0,0,1,3.73.21,5.36,5.36,0,0,0,3.47.36c.91-.1.74,1.79-.2,2.27-.67.34-2.19.18-4-.87-3.19-1.82-4.6.54-2.62,2.66,1.1,1.17-.78.24-1.06,0ZM44.78,214.28a1.78,1.78,0,0,0-.59-3.36A1.82,1.82,0,0,0,43,214.27c0,.3-.76.06-1.17-.25-.64-.48-.06-2.35-.65-2.42a38.82,38.82,0,0,0-5.35,1.88c-2,1.13-.12,3.67,1,3.38,2.39-.61,5.64-1.14,7.88-2.58Zm-9.87-3.64c0,1.14.36,1.64,1.1,1.65a33.16,33.16,0,0,0,4.45-1.48c1.14-.37,1.6-.79.73-1.5a1.75,1.75,0,0,1-.37-1.54c.3-.94.07-1-.32-1s-1.3.33-3.61,1.22c-1.22.47-1.46.67-1.77,1.34A3.91,3.91,0,0,0,34.91,210.64Zm12.88,14.62a9.13,9.13,0,0,0,.86-2.78c-.12-.81-.72-1-1.26-.47s-.47,1.46-.86,2.14a1.38,1.38,0,0,0-.24.69A.92.92,0,0,0,47.79,225.26Zm5.07-10.75c19.8-21.08,32.06-50.26,10.61-90.51-2.41-1-3.15,2.89-3.38,3l-2.75,2.39c14.53,25,12,53.86-5.75,74.34l0,1.3c0,2.87.86,2.74,2.07,1.4s.42-.25-.1.31-1.17,1.42-1.36,1.67c.24,1.71,1.32,4.91.64,6Zm-1.32-6.33a16.89,16.89,0,0,1-.53-2.87c-.07-.66-.09-1.27-.13-1.91a22.63,22.63,0,0,0-1.15-4.82,3.67,3.67,0,0,0-2.79-1.27c-1.06-.07-1.14-.05-1.37.29-.38.59-.12,3.57.27,4.66a4.51,4.51,0,0,1-.17,3.25c-.13.46-.17.49,0,.52,1-.07,1.32-1.28,1.71-.92a5,5,0,0,1-.67,2.13,5.89,5.89,0,0,0,0,4.32,2.47,2.47,0,0,1,0,1.93,11.6,11.6,0,0,0-.37,2.89,3.28,3.28,0,0,1,0,2.75c-.59,1.32-1,3.1-.73,4.1.14.44.5.07.77-.69.41-1.48.9-1.81,2.12-1.81.89,0,1,.31,1.27-.09.66-.9,2.29-4.1,2.32-5,.63-2.27.66-4.23-.5-7.47ZM61,223.11a3.14,3.14,0,0,0,1.37-1.74c0-.43-3.32-3.66-4.7-4.55-.63-.4-.93-.12-2,1.37-1,1.33-1.11,1.34-.93,1.59a44.41,44.41,0,0,0,4.73,3.13A2,2,0,0,0,61,223.11Zm6.22-5.75c-.49-.38-4.46-4.79-5.64-5-.45-.09-1.89,1.55-1.89,1.92a32.26,32.26,0,0,0,4.24,4.32,3.66,3.66,0,0,0,1.23.79c.56-.28,2-1.44,2.06-2Zm4.23-4.16c0-.26-.44-.79-1.51-1.85-2.73-2.67-4.24-3.9-4.72-3.89a4.35,4.35,0,0,0-1.52,2.31c.17.33,4.73,4.47,5.32,4.87C69.76,215.34,71.35,213.7,71.46,213.2Zm4.27-4.26c.12-.4-.11-.73-.69-1.29-.41-.39-1.86-1.81-3.23-3.16C69,201.67,68.94,201.67,68,203s-.94,1.37,1.85,4.1c3,2.91,3.68,3.5,4.14,3.5A3,3,0,0,0,75.73,208.94Zm-31.95-2.55a1.39,1.39,0,0,0-1.35.25c-2.11,1.79.89,4.1,2.12,2.66a1.7,1.7,0,0,0-.77-2.91Zm36.34-1.88c0-.3-.62-1-2.75-3-5.27-5-5-4.84-5.62-4.53A4,4,0,0,0,70.68,199c0,.38.51.9,4.41,4.55,2.29,2.14,3,2.68,3.37,2.68C79.08,205.94,80.09,205.27,80.12,204.51Zm-36.2.19a1.55,1.55,0,1,0-2.08-1.35A1.54,1.54,0,0,0,43.92,204.7Zm40.53-4.42c0-.6-9-9-9.67-9-.43,0-.75.36-1.16,1.31s-.32,1.32.13,1.75c.65.63,2.39,2.23,4,3.73,1,.88,2.1,1.94,2.5,2.35a5.74,5.74,0,0,0,2.34,1.69A4,4,0,0,0,84.45,200.28Zm-41-1.09a1.21,1.21,0,0,0-2.38-.38C40.8,200.87,43.36,201,43.44,199.19Zm6.69-65.68,1.76-5.39,5.4-.14.75-5.37,5.55-.8.09-5.54,5.31-.72-.33-5.94,4.92-1.16-.24-5.5,4.47-1.37-.18-4.78.77-.61-1.93-2-1.67.54,0,4.91-4.47,1.44.47,5.44-4.51,1-.06,5.91-5.19.59-.37,5.21-5.06,1-.75,5.11-4.92.34-1.49,4.49-3.25,0v3Zm58.67,96.55c-.17-.41.27-.35,1,.14a6.09,6.09,0,0,0,2.82.94,19.54,19.54,0,0,0,2.77-.5,7,7,0,0,1,4.1-.23c1.08.15,2.17.27,2.42.27a3.19,3.19,0,0,0,2.27-1.36c.89-1.52.68,1.25.68,1.56,0,1.42.2,3.05-.82,2.29a2.5,2.5,0,0,0-2.48,0,2.07,2.07,0,0,1-2.53.09c-.81-.32-1.24-.39-1.84.18s-2.32.4-3.19.11c-1.51-.25-2.36-.47-3.37.33-.54.31-.67.08-1.08-1.11s-.73-2.53-.79-2.68Zm3.84-1c-.1-.15.71-.95,1.26-1.23,1.6-.83,4.79-.79,7.07,0,1.19.44,1.37,1.19.22,1-2.41-.5-5.43-.92-7.75.19A1.23,1.23,0,0,1,112.64,229.06Zm2-3.76c-1.65-.61-2.46-1.26-2.46-1.46s.36-.19,1.65.17a8.61,8.61,0,0,0,5.58.39c1.25-.47,1.88-.76,1.88-.48a2.55,2.55,0,0,1-1.38,1.5A7.93,7.93,0,0,1,114.68,225.3Zm35.7-4.57,1.22-.16-.42-5.1,4.5-1.33-.32-5.07,4.79-1.65-.28-5.7,5-1,.65-5,4.7-.34,1-5.43,5.05-.17,1.05-4.52,3.36,0,0-2.53h-5.23l-1.11,4.89-4.94.14-1.05,5.37-5.18,0-.66,5.78-4.88.8v6.23l-4.7,1.22.36,5.32-4.69,1.72.53,5.08Zm31.4-119.54a2.1,2.1,0,0,0-.72,2.2,1.74,1.74,0,0,0,3.27-.07,1.4,1.4,0,0,0-.87-1.56c-.11,0-.5,0-.71-.21s.78-.63,1.32-.45a2.13,2.13,0,0,1,1.24,1.91c0,.3-.08.75,0,.9a16.73,16.73,0,0,0,3.62-1c2-.57,2.78-1.74,2.33-3.11-.38-1.14-1.55-1.59-3.08-1-2.11.79-4.59,1.17-6.43,2.38ZM94.65,226.27c6.91-4.86,11-7.63,19.85-8.11-3.16-1.3-3.68-3-4.57-4.65-11,1-16.82,4.55-22,7.82A18.43,18.43,0,0,1,94.65,226.27Zm38.52-6.74a35.44,35.44,0,0,0-11.47-4.9l-3.18,3.28a65.7,65.7,0,0,1,14.65,1.62Zm32.18-31.16c-21.62-33.21-7.1-62.44,7.93-81.06.48-.61.6-.64.49-1.13a36.34,36.34,0,0,1-.21-5.73c-27.78,27.53-28.49,63.4-11.06,91.86,1.24-1.11,3.75-2.59,2.85-3.94Zm3.24-2.84c-3.55-5.91-22.45-37.9,6.42-73.6a15.38,15.38,0,0,0-.32-2.5,3.74,3.74,0,0,0-1-1.72c-12.12,18.2-29.74,41-7.73,80.52Zm-16.53-60.22a4.23,4.23,0,0,0,1.06-2.16c0-.47-.34-.86-3.59-4.17-4.34-4.4-5.09-5.07-5.65-5.07s-1.89,1.3-1.89,1.79c0,.24,1.27,1.62,4.29,4.63C151.87,125.91,151.61,125.68,152.06,125.31Zm4-8.11c0-.26-.4-.79-1.35-1.77-2.51-2.58-6.09-5.85-6.4-5.85a3.55,3.55,0,0,0-1.79,1.44.63.63,0,0,0,0,.85c.44.69,6,6,7.63,7.34,1,.88,1.82-1.34,1.87-2Zm2.16-3.29a3.85,3.85,0,0,0,1.19-2.21,33.58,33.58,0,0,0-3.16-3.4c-3.34-3.32-3.53-3.44-4.37-2.7s-1.22,1.35-1.13,1.62a85.22,85.22,0,0,0,6.14,6.24C157.69,114.11,157.79,114.14,158.22,113.91Zm25.49-.25a1.42,1.42,0,0,0-1.5-2.4,1.52,1.52,0,0,0-.71,1.58A1.61,1.61,0,0,0,183.71,113.66Zm3.11-.38c2.66-.7,3.93-1.17,4.49-2,.38-.57.42-.92,0-1.86s-.87-1.12-2.53-.21c-1.14.63-3.69.93-4.58,1.45-.35.31-.18.31.11.49.64.4.95.68.88,1.22-.15,1.17,0,1.35,1.64.91ZM184,109.11c1.29-.66,1-2.25-.41-2.88a1.66,1.66,0,0,0-1.57,2.9,2.48,2.48,0,0,0,2,0Zm4.29-.64c1.86-.64,2.58-1.14,3.12-2.17a2.86,2.86,0,0,0,.18-2c-.08-1.19-.68-1.06-2.42-.43-.85.33-4.91,1.47-5,1.89,2,1.12,1.46,1.71,1.48,3.14C185.79,109.24,186.71,109,188.3,108.47Zm-25.43-1.91c0-.54-5.22-5.65-5.77-5.65-.86,0-2.09,1.34-1.91,2.08a60,60,0,0,0,5.58,5.61c.86.5,2-1.23,2.1-2Zm3-3.18a5.58,5.58,0,0,0,.89-1c.56-.81.52-1.27-.15-1.7-.25-.16-1.34-1.15-2.43-2.2a20.72,20.72,0,0,0-2.29-2c-.9-.12-2.53,1.32-2.36,2a39.4,39.4,0,0,0,5,4.91A.94.94,0,0,0,165.86,103.38Zm7.06-7.61a9,9,0,0,0-2.36-1.51c-4.44-2.42-4.51-2.43-5.9-1.3a2.6,2.6,0,0,0-.87,1A14.81,14.81,0,0,0,166,96.28c2.55,2.41,3.17,2.93,3.53,2.93C170.24,98.67,172.81,96.44,172.92,95.77Zm6.21-2.26c.55-.66,1.17-2.93.87-3.39a1.09,1.09,0,0,0-1.29.07,9.85,9.85,0,0,0-1.06,3.51C177.79,94,178.66,93.88,179.13,93.51Zm-48.49,96.8a6.72,6.72,0,0,0,2.44-1.6c1.28-1.1,5.33-3.54,5.77-4.52.2-.56.06-1.36-.37-1.42s-.39.19-3.08,2.14c-1.82,1.31-5,3.65-5.49,4.14a1,1,0,0,0,.73,1.26ZM130.27,206c2.77-1.92,5-3.91,8.63-6.14a1.47,1.47,0,0,0,.15-1.37c-.21-.55-.5-.33-1.59.43-2.67,1.79-5.41,3.91-7.7,5.48-.74.49-1.36.77-1.2,1.05S129.9,205.88,130.27,206Zm2.69,1.18c1.83-1.49,4-2.91,5.95-4.36a1.54,1.54,0,0,0,.07-1.56c-.22-.3,0-.24-.58.06-.79.45-5.5,3.67-6.38,4.39-.51.43-.94.64-.81.79a4.52,4.52,0,0,0,1.75.68Zm2.29,1.16c.38-.25,3.62-2.33,3.88-2.6s.21-1.73-.08-1.84c-.81.65-5.14,3.29-5.14,3.71A2.43,2.43,0,0,0,135.25,208.29Zm3.47.29c.5-.46.6-.54.61-1.05,0-.92-.21-.89-1.53.06-.92.59-1.49,1-1.32,1.37C137.13,210,138.06,209.18,138.72,208.58Zm.36,1.89c.26-.1.26-.23.22-.55s-.09-.35-.49-.35c-1,0-.1,1,.27.9Zm-12.62-5.18a9.63,9.63,0,0,1,2.23-4c4.36-3.86,3-8.62.28-12.49,3.56-5,7.12-10.27,10.18-15.11v-7.87l.41,0c-.15,17.18.64,45.34.64,45.34l3.54,2.7-.48.24c.59-.1-10.31-6.92-16.79-8.85Zm3.2-2c3-2.27,6-4.06,8.94-6.48.32-.27.5-.28.51-.88,0-1.13-.21-1.14-1.32-.34-.5.35-2.31,1.62-4,2.78a39.06,39.06,0,0,0-3.8,2.68c-1.68,1.95-2.3,2.87-2.13,3.15S128.35,204.21,129.66,203.32Zm3.29-5.51c1.55-1,5.25-3.6,5.59-3.91.59-.55.69-1.44.16-1.54a36,36,0,0,0-5.55,3.71c-1.18.89-1.45,1.1-1.45,1.94,0,.51.31.41,1.25-.2Zm1.54-4c4.75-3.38,4.63-3.09,4.53-4.35,0-.42-.13-.62-.32-.65a9.61,9.61,0,0,0-1.93,1.24c-1,.66-2.07,1.56-2.64,2-1.65,1.14-2.2,1.45-2.2,2.11s.18,1.05.46,1.05A14.2,14.2,0,0,0,134.49,193.8Zm-.68-2.62a55.45,55.45,0,0,0,4.93-3.7c.4-.5.33-1.6-.18-1.6-2.2,1.47-4.84,3.4-6.7,4.92-.24.22-.55.42-.64.69a1.07,1.07,0,0,0,.61.85C132.19,192.34,132.75,191.94,133.81,191.18ZM132.39,186c1.67-1.13,3.19-2.47,4.85-3.62,1.24-.85,1.6-1.11,1.52-2.19,0-.61-.59-.26-2.7,1.15a11.53,11.53,0,0,0-2.8,2.14c-.39.89-1.66,1.73-1.73,2.75,0,.37.25.2.86-.23Zm5.13-6.8c1.28-.85,1.4-.87,1.26-2-.17-1.41-.32-1.33-1.54.54-.81,1.24-1.09,1.59-1,1.82C136.49,179.9,136.72,179.68,137.52,179.15Zm-4.68-10.4c-.13-.63-.33-.49-1,.07-1.19,1.05-1.38,1.8-.64,2.2.39.21.7.19.93-.33a5.63,5.63,0,0,0,.68-1.94Zm-6.66,9.88a3.2,3.2,0,0,0-1.39-1.63c-.53-.28-.85-.22-1.35.42s-.25.94.45,1.83c.51.65.72.86,1.12.86C125.5,179.91,126.29,179.25,126.18,178.63Zm-25.77,24.78c-.34-.66-1.06-1.35-1.39-1.23a1.21,1.21,0,0,0-.69.93,1.36,1.36,0,0,0,1.1,1.1C100.22,204.1,100.7,204,100.41,203.41Zm3.14-1a18.41,18.41,0,0,0-2.24-2.3,2,2,0,0,0-1.16,1.22,5.37,5.37,0,0,0,1.63,2.26c1-.09,2.91,0,1.77-1.18Zm3.88.2a31.31,31.31,0,0,0-4.17-4.41c-.36,0-1.08.8-1.08,1.17a13,13,0,0,0,2.37,3.1c.57.59.62.68,1.31.57s1.75,0,1.57-.43Zm6.75-.91c0-.82-.43-1.27-2.15-3.13-.63-.68-1.68-1.86-2.35-2.62-1.29-1.47-1.84-1.92-2.36-1.92a1.37,1.37,0,0,0-1,1.07,76.24,76.24,0,0,0,6,7c.64.69.92.89,1.53.56C114.24,202.42,114.18,202,114.18,201.7Zm-5-9.75c-.64.53-.88.75-.89,1.1,0,.54,5.48,6.56,6,6.56.29,0,.24,0,.41-.68.34-2-.19-2.55-1.61-3.84C112.13,194.22,110.21,191.23,109.21,192Zm9.67-4c-1.53-1.83-2.38-2.67-2.69-2.67a1.5,1.5,0,0,0-.87.59c-.57.54-.52.52-.16,1.16a9.51,9.51,0,0,0,1.17,1.46c.84.87,1.28,1.15,1.68.73S119.26,188.39,118.88,187.92Zm-.8-4.56c-.37,0-1,.67-1,1a9.39,9.39,0,0,0,2.11,2.64c.7.63,1,.8,1.51.38a1.22,1.22,0,0,0,.06-1.41C120.14,185.29,118.78,183.39,118.08,183.36Zm4.3.45a7,7,0,0,0-2.07-2.78c-.41,0-1.29,1-1.29,1.41a3.59,3.59,0,0,0,.9,1.42c1.12,1.3,1.41,1.58,1.65,1.38A2.08,2.08,0,0,0,122.38,183.81Zm1.77-2.3c.1-.44-.18-.9-.8-1.69-.79-1-1.17-1-1.91-.29a1.19,1.19,0,0,0-.39.67,7.09,7.09,0,0,0,1.94,2.45c.7-.08.92-.6,1.16-1.14Zm-2.89,5.16a1.84,1.84,0,0,1-1.08,1.43c-5,3.61-4.84,9.48-5.91,14.91-8.11-.08-20.93,3.25-20.85,3.42L136.51,163s.53.13.2.51c-3.48,2.51-3.26,7.38-5.56,9.82C127.32,177.93,123.76,182,121.26,186.67ZM97.88,204.43c.07-.49-.39-.63-.78-.23s-.24.69.32.62C97.71,204.79,97.84,204.67,97.88,204.43Zm13.27-1.83c.16-.41-.22-.8-2.52-3.36s-2.87-3.2-3.28-3.2a2,2,0,0,0-1.18,1.19,3.45,3.45,0,0,0,.82,1.17c.45.49,1.3,1.43,1.89,2.11a15.57,15.57,0,0,0,1.9,2,1.93,1.93,0,0,0,1.28.25C110.9,202.76,111.08,202.79,111.15,202.6Zm4-8.16a9,9,0,0,0,.38-1.15,22,22,0,0,0-3.44-3.69c-.6-.38-1.72.88-1.44,1.62a18.1,18.1,0,0,0,1.95,2.29c1.26,1.35,1.9,2,2.1,2S114.94,195.11,115.15,194.44Zm1.23-3.16a2.1,2.1,0,0,0,.39-.93,5.29,5.29,0,0,0-1.2-1.61c-1.31-1.48-1.65-1.65-2.37-1s-.48,1,.79,2.43C115.57,192,115.75,192.22,116.38,191.28Zm11.28-14.12c.5-.59.51-.88.06-1.41l-.62-.74c-.41-.48-.94-.4-1.49.23a1.69,1.69,0,0,0-.44.71,3.33,3.33,0,0,0,.63.92C126.58,177.78,127.06,177.88,127.66,177.16Zm1.73-2.23c.34-.51.19-1.07-.44-1.64s-.88-.57-1.3-.11c-.55.62-.46.83.13,1.49S129,175.53,129.39,174.93Zm1.39-1.85a.9.9,0,0,0,0-1.39c-.39-.49-.79-.62-1.2-.41-.71.38-.63,1,.06,1.77.43.45.63.5,1.1,0Zm-33,92.7c8.83,1,18.31,1.68,35-.91l.08-5.67c-5.21,4.06-12,1.27-12.45-3.4a48.67,48.67,0,0,1,2-12.41c.7-2.55.9-3.54.24-4-1.44-.82-4-.92-4.65-2.61-.31-.9-.34-1.85.11-1.17a8.54,8.54,0,0,0,3.18,1.38c2.26.5,2.62.67,2.88,1.6a12.38,12.38,0,0,1-.81,4.44,25.41,25.41,0,0,0-.92,3.81c0,.45.35.52.73.4a16.82,16.82,0,0,0,1.47-1.3c2.17-1.94,2.8-1.88,1,0a25.28,25.28,0,0,0-1.76,1.87c0,.4.38.36,1.21.06a9.56,9.56,0,0,1,5.64.26c1.67.84,1.74.8,1.7-1.74a58,58,0,0,0-2.62-14.74c-2.36-6.68-7.25-12.88-14.49-12.6-8.81.46-14.13,4-20.13,8.18,3.62,8-1.62,14.19-3.51,15-.19.08,2.37,8.17,3.46,12.28,1,3.73,2.66,11.27,2.66,11.27ZM135.35,71.91c-.2-.53-5.11-16.51-6.48-23.2-13.26-.77-23.07-1.87-34.75,1.44,0,0-.25,4.51-.13,4.73.12.55.52.54.85.36,5.4-3,11.24-1.63,11.65,5.68.15,2.79-.79,4.76-1,7.4-.15,2.31-2,5.4-.86,7.15a6.6,6.6,0,0,0,2,1.1c2,.85,2.75,1.62,2.9,2.92.21.89-.33,1.49-.5.58-.1-.59-.2-1.1-2.65-1.94s-3-1.76-3.26-2.26a2.78,2.78,0,0,1,0-2.27,26.61,26.61,0,0,0,1.24-5.82c0-.41-.47-.21-1,.27a29.16,29.16,0,0,1-3.92,2.58,6.81,6.81,0,0,1,1.39-1.7,16.53,16.53,0,0,0,2.36-2.45c0-.4-.15-.12-1.17.18a8.35,8.35,0,0,1-5.22-.19c-1.17-.51-2-.81-2.17-.53-.43,7.12.62,14.46,3.61,20.18,2.68,5.2,8.24,11.72,16.6,10.25,8.64-1.51,17.05-8.46,16.74-8.46-3.22-7.3.45-12.74,3.76-16ZM66.86,266.26c-3.83-3.84-13.48-8-20.11-9.92-.54-.12-1.06-.37-1.06.26l-.08,13.16L33.76,280.87l.21,5.42,25.14-.12,16.7-24.48s.8-.14.89-.29a116.09,116.09,0,0,0-10.61-28.58,5.6,5.6,0,0,1-8-.76c-2.11-2.36-.82-6.5,1.18-8-1.68-1.24-5.17-3.49-7.46-4.13-.48-.12-1.19.84-1.42,1.71-.42,1.42-1.11,2.68-1.58,4.11-.51,1.19-1,1.37-1.77,1-1.19-.35-1.51-.48-1.51-.48l0,15.47a32.62,32.62,0,0,1,21.25,24.5Zm38-165.32,2.71-3a75.58,75.58,0,0,1-14-2.94A46.18,46.18,0,0,0,104.89,100.94ZM90,92.66c4.78,1.59,10.83,5.31,18.38,3.91C101.49,93.84,96.26,87.46,94,74.46,93.55,77,92.54,82.23,91,82.8c-2.23-8.63-11.18-3.61-7.59,3.42-9.08,6.24-20,9.76-29.9,14.57,0,0-1.49,4.57-8.9,10.84-1.4-7.35.27-18.25-.6-25.63L32.33,75a40.57,40.57,0,0,1,0,5.84,3.78,3.78,0,0,0,1.21.92c.75,42.31-.26,84.14-.25,122.58-.11,23.55.51,48.09.17,70.33l-.44.81,0,5.31,11.87-11.3A101.36,101.36,0,0,1,45,255.36c7.49,1.51,14.48,5,20.75,8.89.78.22-3.85-15.4-20.7-22.34,0,0,0-4.88,0-15.48,0-10.23-.16-11.31-.39-11.48-.68.74-9.3,3.65-9.74,3.16.23.07-2.43-18.11-.13-20.88l8.25.18c2.36,1.9,1.41-.42,2.78-.8.82-.22,4.64,1.27,4.64,1.27,15.72-18.56,14.15-49.08,2.87-66.25-2.89,2.35-6,5.53-8.86,6.9,0-.1-.06-9.47-.06-9.47,15-9.64,31.36-37.57,30.32-37.66a74.78,74.78,0,0,1,6.46,7.09L66.32,120c3.4,6.84,6.83,13,9.06,19.06.3.81,1.23.79,1.46,1.64s-.69,1.75-.57,2.56c3.13,12,3.84,24.66.76,36.17-.65,2.59.54,4.69,2.13,6.63.13.17-1.48-1.4-1.63-1.48-.55-.34-1.48.83-1.67,2.31.13.9.62,1.06,1.27,1.79,1.14,1,5.69,5.43,7.69,7.47,1.78,1.82,2.24,1.9,3.43.61.34-.31.69-.74,1-1,.06.1.51-.36.66-.51l26.77-26.14C119.81,166,90,196.49,90,196.49s-14.48,14.21-18,17.71-4.16,4.41-4.31,4.68c-.26.48,1.18.47,1.84.37a5.1,5.1,0,0,1-1.16.13c-3.77-.84-5.05,3.33-7.43,4.17-6.29,4.46-2.06,11.63,3.95,9.26l1.46-.7a135.27,135.27,0,0,1,11.36,29.78l-1,.46L60.81,286.11h89.83c-6.46-6.42-11.94-14.31-17.53-20.21-9,2.68-36.05,2.13-35.62,1,0,0-4.1-16.6-6.42-24.76,7.36-6.31,6.61-16.26-4.08-20.72a40.09,40.09,0,0,1,23.25-8.73c2.48,6.3,8.31,6.7,11.06.93,0-.06,10.33,3.17,14.13,6.67-5.64-.58-11.21-1.71-16.85-2a20.73,20.73,0,0,1,11.64,12.93c.79,2.09,2,9,2.33,9,0,0,1.88-8,3.34-7.54,3.72,7.77,10.13,1.93,7.43-4.26,9.47-4.52,20.14-9.57,28.85-13.76,2.54-3.84,8.8-11.12,9.21-11.15,0,0,11.5-65.91,11.5-87.94-.38-26.49.53-56-.61-80.75V27.72H168L150.62,53.24a2.85,2.85,0,0,0-.13.58,121.69,121.69,0,0,0,10.17,28.55c6.58-5,12.12,3.22,7.19,8-.93.89-.68,1.11.24,1.73s7.16,3.76,7.45,3.76c1.13-1.68,1.46-4.16,2.22-6,.19-.72.73-.81,1.82-.68,1.4.16,1.39.74,1.35-8.15l0-7.64c-8.44-3.88-19.6-13.76-20.12-24,4.87,3.55,16.08,8.71,19.07,9.17,1.31.36,1.11-1.93,1.15-2.84.36.23.49,3.77.49,3.77-4.95-1.49-7.55-1.19-19.9-8.35,2.12,10.1,12.23,18.07,19.57,21.7,0,0,.31,4.8.29,10.18-.05,16.38.12,17.11.12,17.11a48.21,48.21,0,0,0,5.15-1.59c2-1.6,5.21-.37,5.66.81.65,6.18,0,11.92-.12,17.83-3.42.24-5.29,1-7,1-1.1-.15-1.77-.16-2.33-.78-1.63-3.53-1.52-1.29-1.72,1.36-.15.78-4.24-.58-4.65-.82-17.65,20.32-16.14,43.71-4.16,65.37a76.5,76.5,0,0,1,8.8-5.56c.09,2.76.13,8.43.13,8.43-13.82,10.14-30.36,37-29.8,37.07l-5.62-6.7s3.54-5.62,4.78-7.1a9.74,9.74,0,0,0,.24-1.92l8.58-12.4a162.19,162.19,0,0,1-9.29-19.5,15.48,15.48,0,0,1-.68-3.23c-5.72-25.85.48-38.72,0-39.69,0,0-.08-.52-.2-.62s.05-.31.26-.68c.41-.71,1.06-2.18.84-2.62s-4.81-5-8.79-8.78c-2.09-2-2-2.24-3.09-1.14-.4.4-1.38,1.56-1.38,1.56-14.38,13.3-25.79,25.41-40.22,39.57l-.69-.63c21-20.86,42.17-41.51,62.95-62.57l-3.65.06a.93.93,0,0,1,.46-.58,11.61,11.61,0,0,0,5.44-1.42c3-2.21,7.22-5.15,7.55-8.06-.21-5.59-4.93-6.4-8.33-3.67a104.17,104.17,0,0,1-10.49-28.27c-.09-.48-.76-1.29-.86-1.83,1-3.17,17.09-25.08,17.09-25.08H76.2L93.38,48.33c0-.82,24.48-3.71,35.7-.29l6.82,24.25c-6.2,6-8,15.86,3.38,21,.22.48-1.09,1.27-1.09,1.27.19-.3.5-.6.37-.88a25.14,25.14,0,0,1-6.36-4.74c-6.87,5.36-13.28,8.34-19.57,8.61,0,0,3.32,2.25,4,4.72,0,0-.31,0-.39-.14-.68-.83-2.24-3.52-3.56-4.31a5.76,5.76,0,0,0-5.33,1.07l-2.39,2.3C99.44,99.53,93.35,96.8,90,92.66ZM89.07,152l2.51-2.46a12.7,12.7,0,0,1,2.89-6.71c2.35-2.81,4.94-5.46,6.85-8,2.3-3,3.54-5.73,2.94-7,3.42-.62,6.55-3.64,6.65-9.11a22.7,22.7,0,0,1,1.54-7s23.86-.81,40.27-16.45c0,0,1.15.25.88.45A57,57,0,0,1,133,109.51L89.84,152.57Zm4.78-4.94c.64-.64.79-.85.42-1.15-.55-.47-1.62.49-1.62,1.44C92.65,148,93.13,147.8,93.85,147.08Zm2.23-2.19c.51-.49.49-.85.07-1.27-.58-.59-1.43-.23-1.72.71S95.27,145.66,96.08,144.89Zm2-2a2.39,2.39,0,0,0,.48-.68c0-.34-.82-1.09-1.18-1.09a1.76,1.76,0,0,0-1.29,1.21c0,.36.83,1.11,1.23,1.11A1.56,1.56,0,0,0,98,142.9Zm1.85-3.7c-.58-.49-1-.5-1.45,0s-.51,1.18.17,1.77c.51.53.72.48,1.41,0C100.6,140.42,100.71,139.87,99.89,139.2Zm2.18-.33c.63-.53.54-1-.15-1.66s-1.29-.74-1.81,0a1.38,1.38,0,0,0-.23.66,3.34,3.34,0,0,0,1.52,1.35,1.37,1.37,0,0,0,.67-.39Zm2.09-2.06c.54-.56.47-1-.3-1.76s-1.11-.72-1.68-.19-.47,1.13.2,1.79S103.56,137.44,104.16,136.81Zm2.37-2.4c.39-.42.29-.38,0-.84a5.49,5.49,0,0,0-2.06-1.86c-.46,0-.85.72-.85,1.44s.35,1,1.25,1.7c.6.47.41.51.88.25A3.18,3.18,0,0,0,106.53,134.41Zm1.88-1.72c.84-1,.68-1.15-1.36-3.3-.7-.74-.84-.82-1.34-.78s-.5.16-.75.65c-.44.92-.11,1.39,1.18,2.76s1.52,1.53,2.27.67Zm2.09-2.25a1.43,1.43,0,0,0,.55-.83,8.28,8.28,0,0,0-2.25-2.56c-.42-.24-.86-.1-1.4.36-.33.29-.32.35-.24.66a9.46,9.46,0,0,0,2.61,2.75A1.36,1.36,0,0,0,110.5,130.44Zm2.09-2a2.17,2.17,0,0,0,.63-1,8.88,8.88,0,0,0-2.34-2.77c-.47-.24-.75-.14-1.21.51s-.33,1.1.73,2.32,1.33,1.51,1.52,1.51a3.23,3.23,0,0,0,.67-.59Zm2-2.11c.45-.28,1-.86.8-1.33a36.59,36.59,0,0,0-3.72-4c-.66-.35-.64.16-.64,1.8v.85l1.44,1.41C114.53,127.12,114.06,126.62,114.55,126.31ZM117.1,124a1.9,1.9,0,0,0,.48-.82c-1.3-1.58-5.08-6.58-5.76-6.4-.07,0-.1,0-.15.17a6.13,6.13,0,0,0-.12,2.37c1.19,1.15,4,4.88,4.64,5.11.38.15.55-.07.91-.43Zm2-2.13a1.41,1.41,0,0,0,.44-.68,4.76,4.76,0,0,0-.87-1.21c-.45-.52-1.32-1.59-1.94-2.36-3.56-4.44-3.82-4.77-4.36-4.32a2,2,0,0,0-.26,1.73,61.19,61.19,0,0,0,5.44,6.57C118.37,122.34,118.53,122.42,119.12,121.84Zm2-2a1.69,1.69,0,0,0,.55-.84,7,7,0,0,0-1.17-1.61c-.6-.7-1.6-1.91-2.22-2.67-1.6-2-1.61-2-2.81-2.16-1.8-.19-1.56.21.49,2.6.49.58,1.43,1.72,2.07,2.53,1.52,1.91,2.19,2.62,2.49,2.62C120.7,120.35,120.87,120.17,121.17,119.88Zm2.09-2c.92-.78.74-1-2.27-4.14-1-1-1.06-1.19-1.82-1.19s-1,.16-1,.54a48.8,48.8,0,0,0,4.2,5c.39.15.43.19.91-.21Zm2.19-2.25a1.56,1.56,0,0,0,.45-.76,5.74,5.74,0,0,0-1.65-2.11,2.35,2.35,0,0,0-1.14-.67,2.63,2.63,0,0,0-1.55.53,11.87,11.87,0,0,0,2.22,2.81C124.53,116.19,124.83,116.26,125.45,115.59Zm1.93-1.91c.48-.48.48-.93,0-1.58-.36-.47-.47-.51-1.21-.51-1.39,0-1.44.35-.35,1.51.8.86,1,1.13,1.58.58Zm2.06-2c.54-.69.08-1.07-.82-.66a.9.9,0,0,0-.37.46c-.27.72.66.87,1.19.2ZM95,117.5c-2,1.26-5.34,3.65-7.61,5.24a7.34,7.34,0,0,0,0,1.89c1.29-.88,5.44-3.53,7.32-5C94.82,119.05,95,118.07,95,117.5Zm3.65-5.77c-.07-.34-.29-.12-.88.37-.77.66-7.31,5.5-9.05,6.72a8.35,8.35,0,0,0-1.36,1,3.72,3.72,0,0,0,.12,1.81c1.42-1.09,8.15-5.6,8.25-5.76C96.45,114.78,98,112.85,98.67,111.73Zm-.75,14.61s-8,9.65-10.61,14.46c0,0,0,5.5-.09,8.67l-.44.12s0-8.49-.14-17.7c-.27-23-.5-28.6-.5-28.6l-2.61-1.91-.11-.91s11.57,8.1,17.22,9.39C96.51,116.32,92.7,118.82,97.92,126.34Zm-9.53,11.54c.17-.38.06-.36-.28-.35a.45.45,0,0,0-.39.48c0,.28,0,.35.23.31A.76.76,0,0,0,88.39,137.88ZM90.33,135c1.15-1.42,2.11-2.34,2.28-3.39a23.47,23.47,0,0,0-5.07,3.43c0,1.58-.32,1.77,1,1.07C89.09,135.82,89.55,135.44,90.33,135Zm.36-3.52c1.24-1,5.77-3.47,6.29-4.67a.87.87,0,0,0-.55-1c.08.07-6.48,4-8.88,6.06a1.18,1.18,0,0,0,0,1.1C87.8,133.67,88.32,133.11,90.69,131.5Zm-1.51-1.9c1.35-.9,4.55-3.1,5.34-3.66,1.35-.94,1.62-1.25,1.13-2a.65.65,0,0,0-.9-.24c-3.91,2.72-4.25,3.18-7.22,5.09a1.75,1.75,0,0,0,.16,1.62c.23,0,.61-.27,1.49-.86Zm0-2.94c3.56-2.57,5.48-3.87,5.61-4.16s.18-1.54-.06-1.67c-1.32,1-4.86,3.18-7.28,5.14-.07.41-.14,1.31.06,1.51.49.2.63-.07,1.67-.82Zm-.43-9.29c2.6-1.93,5-3.6,7.69-5.4,2.29-1.52,2.67-1.86,1.79-2.31a1.94,1.94,0,0,0-1.3-.27c-3,2.45-6.41,4.8-9.64,7.18a10.47,10.47,0,0,0,0,1.37C87.23,118.43,87.88,118,88.74,117.37Zm-.35-2.75c.21-.18,1.57-1.08,3-2.13,3.88-2.81,4.34-3.08,4.34-3.38,0-.81-1.12-1-2.14-.16-1.87,1.53-6.33,4.3-6.34,4.69,0,.58-.12,1.15,0,1.41S87.84,115.1,88.39,114.62Zm1.12-3.8c3.94-2.75,3.79-2.62,3.79-3.12s-.39-.23-1-.28-.58.12-1.66.94c-2.31,1.74-3.15,2.21-3.39,2.73a1.38,1.38,0,0,0,0,.94C87.55,112.31,87.87,112,89.51,110.82Zm.26-2.74a11.35,11.35,0,0,0,1.44-1.25c.11-.29-.47-.81-.91-.81s-.85.24-2,1.26S87,108,87.1,108.49a5.69,5.69,0,0,0,.15,1.06C87.51,109.86,88,109.52,89.77,108.08Zm-1.6-1.77c.83-.71,1-.85.4-1.46s-1.19-.69-1.53-.35a7.77,7.77,0,0,0,0,2C87,107,87.6,106.79,88.17,106.31ZM106,91.16a4.65,4.65,0,0,1,2.54-1.6,7,7,0,0,1,4.35.46c1,.52,2.19,1.78.5,1a10.3,10.3,0,0,0-6.08-.14C106.46,91.35,106,91.46,106,91.16ZM105,85.84a10.43,10.43,0,0,1,2.36.48,10.78,10.78,0,0,0,6.15-.42c.53-.15.79.21.46.48A8.52,8.52,0,0,1,110,87.75C107.23,88,104.21,86.58,105,85.84ZM91.19,81.7c1.2-.59,2.67-8.8,2.19-10.22-1.46,2.24-3.11,3.25-5.45,2.86-3.83-.64-4-5.35-1-5.83,1.18-.19,2.63.59,2.87.41,1.26-.59,2.25-4.84,2.56-6.21s.56-5.08.61-6.26c.1-2.53,0-6.25,0-6.25L74.3,27.87,33.43,27.7S33.3,59,33.4,75L45,86.07l.15,18c12.93-5.64,25.45-11.57,37.7-18-1.42-1.7-1.38-6,1.21-7.59a4.56,4.56,0,0,1,7.16,3.25Zm10.25,3.81c.09-1,.84-1.85.89-2.88,0-.23.19-.49.79-.17.8.42,1,.12,1.94-.29,1.59-.73,2-.71,3.27-.22a1.46,1.46,0,0,0,1.78,0,3.42,3.42,0,0,1,3-.57c1.34.46,1.8.72,2.56.35.39-.19.87-.88,1-.83.55.81.44,2.1.79,2.82.62,1.22.37,2.1-.36,1.49-1.53-1.26-2.72-1.29-4.93-.75a7.66,7.66,0,0,1-3.36.4c-4.42-.52-4.72-.39-5.62.21S101.59,85.74,101.44,85.51Zm11.87-8c-1.28-.32-2.74-1.48-3.79-1.17A1.5,1.5,0,0,1,108.14,74c1.14-1.11,2.92,0,3.61.53,1.5,1.14,1.71,1.23,2.32,1.23,2.48-.05,2-2.37.81-3.22-.72-.75-.79-1.23-.64-1.41s1,0,1.74.77c1.49,1.4,1.52,4.18-.3,5A3,3,0,0,1,113.31,77.49Zm5.19-8a28.58,28.58,0,0,1-3.75-3.39c-.91-1.14-1.28-1.86-1.16-2.77.08-.71.19-1.13-.26-1.37a2.27,2.27,0,0,1-.86-1.88c0-.15.57-.06.9.35.42.07.34-.18.79-.48,4.73-3.17,8.52-2.56,13-.38,1.3.63,4.7,3.2,2.88,2.37-.11,0-1.3-.57-2.5-1.17-3.9-1.87-8.23-3-11.76-.6-.61.42-1,.75-.5.75,2-.39,3.94-1.21,6-1.08,3,0,4.88,1.54,7.16,2.57,2.47,1.11,2.95,1.49,2,2.4-.26.28-.46.27-1.66.18s-1.39-.06-2.11.4A10.9,10.9,0,0,1,120.17,67c-2.57-.21-2.85-.42-2.9,0s.52.65,1.28,1.35A15.91,15.91,0,0,1,120,69.76C120.19,70.14,119.21,70,118.5,69.44Zm-.72-4.12a5.62,5.62,0,0,0-.91-2c-.33-.32-.58-.2-1.27.29-.52.37-.58.66-.1,1.08,1,.91,2.29,1.13,2.28.61Zm3.88.18c1-.5,2.09-2.29,1.61-2.87-.28-.34-.53,0-1.08.95a5.09,5.09,0,0,1-.9,1.19c-.85.59-2,0-2.44-1.27-.29-.8-.59-1.3-.92-1-.6.54.08,2.5,1.27,3A3.23,3.23,0,0,0,121.66,65.5Zm3.23-.29c1-.33,1.55-.8,1.47-1.26s-.84-.83-1.35-.83c-.23,0-.68,0-.85.2a10.88,10.88,0,0,0-1,2.09c.12.31.48.17,1.68-.2Zm3.64-7.86c-5.26-2-9.41-2.81-14.4-.68-1.61.69-2.52.76-2.6.2s1.09-1.9,2.33-2.55a13.3,13.3,0,0,1,11.19-.06,28.49,28.49,0,0,1,5,3.5C130,58,129.71,57.81,128.53,57.35ZM190,116.24c1.25-.66,1.83-2,1.06-2.73a1.07,1.07,0,0,0-.8-.22,25,25,0,0,0-4.36,1.22c-.42.22-.27.61.13,1a1.47,1.47,0,0,1,.35.91c0,.5-.06,1,.27.87A14.61,14.61,0,0,0,190,116.24Zm-4.67,1.2a1.52,1.52,0,0,0-.73-2.08c-.49-.26-.88-.12-1.27.44C182.44,117.5,184.75,118.22,185.37,117.44Zm-4.69.8c.2-2.17.1-8.58.1-8.58a4.8,4.8,0,0,1-1.9,1,13.34,13.34,0,0,1,1-2.2,14.73,14.73,0,0,0,.3-3.68c-.07-1.08-.83-1.11,0-3a4,4,0,0,0,0-3.26,1.44,1.44,0,0,1,.28-1.72c.55-.71.33-1.07.32-2.55,0-2.06,0-2.39-.62-.73-.93,1.37-1.36,1.11-2.78.94-1.37,3.08-3,6.3-3,9,0,1.66-.06,1.92,1,5.41a9.69,9.69,0,0,1,.54,3.31,9.28,9.28,0,0,0,.36,2.86c.4,1.47,2.06,3.91,4.57,3.27ZM133,256.5v-3.09s-4.95,1.52-7.46.58c-2.58-.7-2.57-.82-2.52-.54.09.5,2,1.51,3.78,1.92a12.72,12.72,0,0,0,5-.36c.69-.21.77,0,.49.2-3,2.37-6.88,1.28-9.29-.69-1.29-1.26-2.16-1.27-1.46.43,3.32,6.72,11.55,2.75,11.47,1.55Zm-3.34-4.6,1.13,0a6.8,6.8,0,0,0-.93-2.53,2.69,2.69,0,0,0-3.95.16,7.65,7.65,0,0,0-.86,2.39l.91,0c.33-.87,1.76-4.94,3.7-.06Zm-4.5-3a4.88,4.88,0,0,0-2.72.91c-.25.28-.25.32,0,.71.65.86,1.65,1.28,1.72.95A9.82,9.82,0,0,0,125.12,248.94Zm7.43,2.18a2.06,2.06,0,0,0-1.3-2c-.38-.1-.76-.18-.65.25a12.12,12.12,0,0,0,.63,1.76c.18.39.3.58.68.44s.54-.19.64-.46Zm48.25-41v-5.24a69,69,0,0,0-7.14,8.86ZM100.05,65.87c1.12-.48,2-2,1.66-2.69-.17-.45-.64-.09-1.11.59C99.84,64.87,99.65,65,99,65s-1-.19-1.48-1.14c-.33-.9-.57-1-.88-.65-.15.18-.14.43.05,1.09A2.25,2.25,0,0,0,100.05,65.87Zm3.06-.54c1.24-.43,1.49-.57,1.43-1s-1.05-1-1.61-.9a5.43,5.43,0,0,0-1.39,2.2c.14.23.56,0,1.57-.32Zm-7.17-.73a2.1,2.1,0,0,0-.2-.88.72.72,0,0,0-1.24.47c0,.46.66,1,1.19,1,.38,0,.33.1.25-.57Zm7-3.13c1.77.67,2.66.74,1.7-.16-1.32-1.47-7.38-3.14-10.63-.75-.23.33-.18,1.59.07,1.53a9.71,9.71,0,0,1,8.86-.62Zm-6-5c-1.48.49-2.88,1.27-3.06,2-.28,1.17.24,1.18,2.18.57a9.34,9.34,0,0,1,7.43.78c1.62,1.18,2.1.79,1.82-.2-.9-3.27-6-3.86-8.37-3.14Z" transform="translate(-5.81 -10.39)"/>
    <path class="b" d="M192.23,35.4,181.31,46.22l.15,12.8c1.1,2-16.85-5.74-19.69-8.08.33,8.55,12,18.3,19.6,21.87l.21,27.16s3-1.18,4.73-1.77c1.25-.43,4.1-.39,5-.84C192.83,78.74,194.11,54.51,192.23,35.4ZM131.49,48.8c-1.07,0-1.71.31-1.69,1-.32,0,4,16,6,22.69-3.86,3.9-7.89,10.67-2.13,16.94,1.24,1.34,3.49,2.47,5.63,3.75,1,.93-11.72,9.1-23,9.11-3.62-7.93-8.67-3.55-11.46-.78-2.17-.19-10.3-5-14.45-7.8a7.9,7.9,0,0,1,0-1.4c.29,1.89,16.28,6,17,4.07-.47,0-7.18-4.54-9.11-9a87.34,87.34,0,0,1-4.43-12c-.89,2.57-.59,6.12-3,7.39-.74-8.35-12.67-4.09-6.73,4.08-3.34,1-6.19,2.7-9.43,4.14a55.47,55.47,0,0,0,25.95,19c-1.3,2.77-9,9-2.67,16.34.29.23-6,7.1-9.12,12.48-2.33,4.05-1.63,7.15-1.36,7.25a129.37,129.37,0,0,0,13.34-18.06c-.07,1.14,10.14.52,10-8.67a26.19,26.19,0,0,1,1.62-7.48c15.58.74,29-4.81,40.3-16.47,0,0,2.31.66,3.76.89a4.6,4.6,0,0,0,1.93-.42,5.69,5.69,0,0,0,2.49-.65,30.55,30.55,0,0,0,3.72-2.9c1.7-1.37,3.39-2.69,4-4.11s.15-3.46-.43-5.14c-3.64-4.28-6,.32-7.66-.27-5.59-7.61-10.25-29.11-11-29.28-3.13-.63-13.81-4.71-18-4.64ZM93.11,63.47c-.42,0-1.92,6.72-3.25,6.66-5.62-3.62-5.74,3.88-.9,3.54,4.08-.29,6.36-6.88,4.17-10.19ZM33,76.19c.19,40.64.92,81.27,1.87,121.91,3.68-.91,6.35-1.6,10,0,.34-11.55-.68-40.7-.43-68.92,13.73-10.68,23.37-22.46,30.14-37.85l-21,9.82s-6.85,9.82-9,10.45c-.31-1.4-.66-18-.38-25.15Zm46.58,25.14-4.11,6s.09,20.47.33,30.33c.17,2,2,3.76.53,5.52.87,0,4.67,26.56,1,37.32-.64,1.93,0,3.29,1,3.73l7.85,8a12.46,12.46,0,0,0,7,0c7.43-6.8,18-18.71,18-18.71L83.25,147.08C80.86,140.68,79.58,101.33,79.58,101.33Zm101.7,85.36c-20.21,15.1-28.89,36.59-29,36.45.07.25-.11,1.13,1.16.43,5.23-2.83,18.67-8.93,18.67-8.93,3.19-3.84,5.65-7.54,9.31-11.19,0,0,.39,16.65.07,25,3.3,2.46,11.13,10.12,11.13,10.12s2.16-118.33-2.51-121.33c-4.53.88-6.8,2.53-8.49-2.72C180.4,138.61,181.58,162.78,181.28,186.69ZM137.4,120.1c-4.87,4-21.62,20.41-21.59,20.58,4.44,7.45,22,22.38,30.4,30.72l1.22,42.52c1.24-1.67,2.14-3.24,3.48-4.9,0,0-.22-21.53-.74-31.62-.15-3-.84-5.33-.62-5.6-2.37-12.25-3.35-25.78,0-38.91C141.6,126,139.08,121.49,137.4,120.1Zm1.31,48.55s0,0,0,0c-4.11,5.86-12,18.57-12.54,18.54-.17-.38-8.13,0-9.64,5-1.26,3.73-1.36,7.16-2.28,11-16-.52-27.67,4.53-40,15.88a31,31,0,0,0-8.73,1.22c-1.8.67-2.77,1.88-3.88,2.68-3.13,2.27-4,4.2-3.82,6.57.28,4.28,7.85,4.89,8.24,1.87.38,0,7.41,16.06,8.1,18.79,1.65,4.43,3.43,12.7,3.64,12.72,2.83.18,18.72,4.63,18.77,3,1.5-.64-5.52-23.62-5.52-23.62,12.27-10.3-1.26-21.3-4.44-20.9,7-5,15-8.32,23.85-8.76,1.37,4.91,7.72,7.44,10.91.91,0,0,13.74,4.92,13.69,6.55-5.66-.86-10.31-1.3-16-1.85,10.86,5.9,11.19,13.66,13.41,21.4a79.07,79.07,0,0,1,3.16-7.35c3.69,8.16,10.69,2.5,7.8-4.1l8.71-4c1-.51-13-16.29-25.78-18.53a34.93,34.93,0,0,1,1.56-3.23c3.2-3.14,5.68-7.74.79-13.24,3.23-4.51,10.71-15.4,10.24-15.6C139,173.6,139.09,168.51,138.71,168.65ZM33.79,218.85c-.12,0-.35,37.77-.09,56.51a35.41,35.41,0,0,0-.51,4.93l11.62-10.92.35-14.1c3-.73,21.94,8.87,20.43,8.82,1.44-.61-8.73-19.82-20.6-21.95-.22-10.89-.33-23.21-.64-26.52a86.92,86.92,0,0,0-10.56,3.23ZM137,241.57c-3.25,1-4.61,7.81-3.55,11.12.19.62.07.75.58.15,1.27-1.86.87-5.57,3.11-7.53C143,247.1,142.42,239.41,137,241.57Z" transform="translate(-5.81 -10.39)"/>
    <path class="c" d="M198.39,302.41v-3.48h3.13V280.16a49.06,49.06,0,0,1,.22-5.09c2.42-8.23,15.79-7.65,16.46-.31a40.45,40.45,0,0,1,.2,5.4h-3.54s0-1.32-.07-2.3c.46-7.8-9-6.18-9.47-.94a24.65,24.65,0,0,0-.22,3.24v18.77h3.65v3.48ZM61.67,286.11l15.39-23.23c18.36,6.13,37.11,6.24,56.05,3.22l16.94,20h-6.93l-10.65-15.22c-3.87.9-7.88,1.28-11.88,1.83l5,13.39h-5.43l-3.92-13.24a125.2,125.2,0,0,1-21.83-1.21l-2.3,14.45H86.57l3.73-14.92a106.56,106.56,0,0,1-12.36-2.68l-11.29,17.6Zm17.62-13.67,6.38,1.73-3.11,11.94H70.87Zm16.49,13.67,1.81-10.55a82.55,82.55,0,0,0,15.78,1l2.78,9.59ZM126,276.33l5-1.34,7.55,11.12h-9.18Zm39.87,7.93c-5.32-10.7-12.59-20-20.5-28.88,7.72-8.11,14.23-17.49,20.47-28.15C172.06,238,179.21,248,187.09,255.8a127.32,127.32,0,0,0-21.21,28.46ZM208.78,265a85.41,85.41,0,0,0-9.4-12.58,90.67,90.67,0,0,0,9.14-12.34,93.87,93.87,0,0,0,9.62,12.49A124.68,124.68,0,0,0,208.78,265ZM52.52,209.18c24.57-28.58,21.3-58.58,7.73-82.78l2.88-3c15.7,25.8,19,62.47-9.89,90.9C52.94,212.61,52.52,209.18,52.52,209.18Zm98-32.05c3.53,6,5.69,12.09,9.42,18.13l-8.85,12ZM44.79,196.05c-.23-18.85.05-57.06.05-57.06l8.3-6.34c9.91,12,15.33,43.78-2.49,64.9C49.36,196.61,45.83,197,44.79,196.05Zm117.7-3.8c-22.73-38.35-11.17-66.32,10.74-91.15.07,1.91.21,3.82.38,5.72-18.81,21.55-26.33,53.4-7.89,82.23Zm-41.17-5.57,10.35-14.11s2-5.61,3.62-7.27l1.9-1.68c.63.61,1.84,1.38,1.8,2.08s-1,4.17-1,4.17l-12.11,17.7S122.19,186.93,121.32,186.68Zm55.08-68.49c.33-.37,4.44,1.35,4.44,1.35l.26,58-8.23,5.29c-2.39,1.21-21-36.84,3.53-64.62ZM89.71,142.62c3.74-5.11,7.69-9.53,11.32-14.21a17.33,17.33,0,0,0,3.41.37c.26.14-.83,3.89-3.52,6.48-2.7,2.75-9.13,10.29-9.32,14.09-.06,1.17-2.69,2.51-2.69,2.51l-1.87-2a24.19,24.19,0,0,1,2.67-7.27ZM66.34,120.37l8.24-10.69.83,28.42Zm-28.18-63C46,49,53,39.4,59.5,29.49c6,9.84,12.62,19.9,20.92,28.05a206.39,206.39,0,0,0-21,28.1c-6-9.6-12.71-19.54-21.29-28.3ZM6.83,59.85a55.09,55.09,0,0,0,9.38-12c2.9,4.41,5.64,8.94,9.52,12.55-3.58,3.84-4.73,5.06-9.61,12.22A78.31,78.31,0,0,0,6.83,59.85Zm86.5-11.57L77,27.87h7.91l9.72,14.44L106.27,41l-4.09-13.11H107l3.41,12.9c7.14.17,14.12.73,20.9,1.41l3.48-14.31h4.92l-4.46,15,13.15,3.45,11.72-18.42h5.82L149.33,51.66C127.62,45.13,110.18,45.88,93.33,48.28ZM6,37.85a16.3,16.3,0,0,1,0-5.31H9.57s0,1.3,0,2.41c0,7,8.37,6.08,9.6,1.68a17,17,0,0,0,.37-4V14H16V10.39H26.6V14H23.29V32.54a1.91,1.91,0,0,0,0,.4c.07,1.12.1,3.8-.49,5.06C19.44,46.35,7.18,44.46,6,37.85Zm134.37,1.89,3.72-11.88h11.13l-8.51,13.57Zm-26.92-2.89-2.35-9h19.61l-2.53,10a87.5,87.5,0,0,0-14.73-1.06ZM90,27.87h7.83l3,9.29-4.52.51Z" transform="translate(-5.81 -10.39)"/>
    <path d="M74.44,26.56,93.35,49.18c3.94-1.41,23.79-3.68,35.7-1,2.07,8.13,4.27,16.34,6.59,23.74,0,0-.74.87-1.28,1.42-7.6,8.77-2.22,17.23,4.74,20-1.26,2.61-14.59,9.1-22.71,8.33,0-.08-2.5-6-7.58-4-1.74.68-2.46,2-3.8,3.26-4.85-1.46-11.26-4.65-14.59-8.16,6.23,3.1,12.37,4.77,18.53,4a8,8,0,0,0-1.63-1,27.87,27.87,0,0,1-2.79-1.68c-2.86-1.93-4.77-4.26-6.73-8.24-2.26-4-2.62-8.37-3.86-12.19-.66,2-.94,7.14-2.65,8.21-.44.29-.52.2-.85-.89-1.31-4-6.09-3.48-7.67-.65a6.5,6.5,0,0,0,.33,5.77l-2.9,1.61v.48L78.41,89,78,88.77c-8.29,4-16.42,8.17-24.88,12,0,0-4.49,7.45-8.6,10.42L44.4,85.89l-12.17-11-.06,6,.87.92c.17,42.37,0,84.06.06,122.53l0,35.41-.74,0,0,4.13.84.19L33.09,250l-.43,0-.07,3.69.67.1v20.85l-.66.84v5.95l12.71-12.07.29-13.74c10,1.89,20.51,9.1,20.51,9.1-1.77-11.51-14-21-21-22.89l0-27.26s-5.2,2.17-7.78,2.51c-1.27.18-1.76,0-2.37-.94-.44-.67-.45-1.28,0-2.66A1.8,1.8,0,0,0,34.9,212a4.5,4.5,0,0,1,0-2.95,2.75,2.75,0,0,0-.16-2.33c-.38-.94-.41-1.12-.25-1.66.43-1.43.45-1.66.23-2.3a3.6,3.6,0,0,1-.05-3c1.88-3.15,6.08-2.37,8.36-2.26,1.15,1.29,1.84,2,1.95.14.81-2.22,4,.06,5.41,1C62.86,182,69,159.36,53.36,131l-8.7,7,0-8.72C56.22,121.86,69.21,105,74.83,91.7c1.87,2.19,4,4.34,6,6.55l-1.32,2.22-.39-.22C75.58,107.08,65.85,120,65.7,119.87a196.87,196.87,0,0,1,9.53,20.22l.71-.32.64,2-1.26.38c4.26,14,4.4,26.91,1.19,38.84l.75,3.17s4.51,4.36,5.73,5.64l6.71,6.51,4.11-4-.24-.34,36.06-35.8,2.25,2.15C109.8,180.58,71.44,219,71.44,219l-1.33.19a14.21,14.21,0,0,1-2.59.12,3.14,3.14,0,0,0-2.25.39,9.05,9.05,0,0,0-3.11,2.65,3.15,3.15,0,0,1-1.5,1.13c-7.52,4.48-.72,13.51,5.67,8.76a118.77,118.77,0,0,1,10.85,29.7,4.34,4.34,0,0,1-.84.36l-16.85,25H66l.67-1.15H61.79l15.5-22.39c19.72,5.38,37.82,6.14,56.19,2.94l16,19.45h-6.35l.91,1.15,8.21.13-18.8-22.17c-6.73,1.79-24.48,3.24-35.61,1.36-1.7-8.28-4.51-17.26-6.59-24.42,10.63-8.31,2.65-19.29-3.91-20.82-.32-.61,13.3-8.88,23-8.31,2.78,6.67,8.86,5.68,11,.72,4,1.48,9.25,2.95,13.39,6.25a91.55,91.55,0,0,0-17.2-2c10,3.89,12.84,12.08,14.07,19.81a17.08,17.08,0,0,0,.9,2.93c.86-2.79,1.56-5.67,3.24-8.06.77,2.73,3.62,4.86,6.49,3.23,1.66-1.2,2.24-3.27,1.71-6.13-.15-.8-.22-1.23-.22-1.23l2.23-1.21.29.25s2.44-1,3.65-1.63c.19-.1-.22-.48-.22-.48l22.52-10.62c-.09,0,5.68-7.91,9-10.94.1,9.42.08,13.3.08,24.49l1.27,1.24c1.12,1.1,3.58,3.39,9.13,8.48a17.56,17.56,0,0,0,2.12,1.71L193.63,75h-.19V71.85l.26,0V63.58l-.23-.13v-2.6l.31-.23,0-22.27-.36-.06,0-5.34L180.87,46.23,181,58.75c-5.6-.73-12.53-4.31-17.3-7.21-1.54-.94-2.4-1.19-2.36-.65.67,7.46,11.46,18.86,19.76,21.84v28s2-1,3.16-1.48l.18.5,2.67-1.11.22-.57,2.31-.3c0,.48.11.41.11.41,2.06.58,3,2,2.15,3.57-.3.53-.35,1.28-.11,1.48.89,1.41,1.13,2.65.05,4a1.42,1.42,0,0,0,0,1.79c1.12,2.26.48,2.11-.36,3.45-.19,1,.93,1.67.56,2.63a3.76,3.76,0,0,1-1.29,1.7c-.52.38-1-.33-1-.33a17.49,17.49,0,0,1-2.87,1c-1.19.38-3.22,1.07-3.93-.52-.4-.92-.08-1.75-.1-2.77l-1.74-.19-.06,4.63c-1,.53-4.94-1.48-4.94-1.48-16.94,21.95-16.46,46.29-3.9,66.69.12.32,8.85-6,8.85-6s0,5.16.06,8a115.36,115.36,0,0,0-29.48,36.74l-4.75-5.62a3.42,3.42,0,0,0,.84-2.73l3.44-5.14,0-1.34,9-12.51c.14.75-9.24-16.81-10.49-22.52l.62-.17c-4.22-15.94-3.35-27.1-.31-40.09l-.87-.84-11.82-11.81-2.87,2.67c-.15.14-.87.06-1,.19-6.22,5.84-12.2,11.69-18.12,17.78-.15.15.11.8,0,1-5.93,6.11-12.07,11.9-18.08,18L95,157.28c21.25-21.24,61.29-60.7,61.29-60.7s.17-.32.45-.33a12.9,12.9,0,0,0,3.21-.61c1.32-.31,1.53-.4,2.08-1a12.1,12.1,0,0,1,1.24-1.09c.58-.42,1.91-1.54,4-3.34a5.64,5.64,0,0,0,2-4.15,5,5,0,0,0-3.92-5,6.49,6.49,0,0,0-3.57.95c-.69.46-1,.67-1.3.47-4.34-8.8-8.56-19.86-10.35-29-.1-.57,0-.74.42-1.47.3-.45.93-1.44,1.42-2.21,3.88-5.6,8.37-12.41,12.59-18.56l2.06-3,1-1.69h-6.69l-.82,1.31h5.5L149.25,51.44c-30.17-9.87-54.9-3.61-55.49-3.48L77.45,27.87h7.46L84,26.56Zm14.69,0L90,27.87h7.82l-.44-1.31Zm13.05,1.31H107l-.28-1.31h-5Zm8.63-1.31.31,1.31h19.61l.35-1.31Zm24,1.31h4.92l.37-1.31h-5Zm9.73-1.31-.42,1.31h11.14l.84-1.31Zm47.65,9.09.17,3.65-8,8.47V59.59L182,59.05l-.09-12.22Zm-2.25,7.79c.07,3.62-.52,7.09.44,10.78.47,1.82,1.42,4,1.54,6.1l-2.65-.07c-.33-1.08-.46-2.28-.86-3.61-1-3.29-1.77-6.76-1-10.25Zm-57.83,5.9c.09.18.41,1.71.7,3.13A137,137,0,0,0,138,71.92c2.42,7.41,6,16.74,9.47,21.07.46.54.69,1.15.52,1.42-.28.45-1.7-.18-2.65-1.19a15.27,15.27,0,0,1-1.69-2.59c-1.22-2.28-2.85-5.59-3-6.11-.07-.21-.71-1.85-1.43-3.64a90.15,90.15,0,0,1-3-8.74c-.84-2.75-1.61-5.64-2.54-8.54a104,104,0,0,1-3.24-12.9,6.1,6.1,0,0,1-.26-1.54,1.94,1.94,0,0,1,2,.18Zm.85.3c-.15-.13,1.38-.15,1.87.26a8.19,8.19,0,0,1,.62,2.23,160.33,160.33,0,0,0,5.9,21.59A82.49,82.49,0,0,0,148,89.09a31.62,31.62,0,0,0,3.37,4.69c.8,1,.86,1.08.65,1.34s-.73.28-1.62-.15a7.25,7.25,0,0,1-2.57-2.47l-1-1.39a100.09,100.09,0,0,1-8.39-19.58A144.45,144.45,0,0,1,133,50.41Zm4.88,1a5.3,5.3,0,0,1,.83,2.39c1.62,6.65,2.94,12.58,4.85,18,1,2.93,1.92,5.86,3,8.62a47,47,0,0,0,6.57,11.79,15.63,15.63,0,0,0,3.79,3.25c.92.55,1.06.69,1,1s-1,.4-1.28.38a8.38,8.38,0,0,1-4.22-2.22c-4.46-4.81-7.64-12.68-10-19.15-4-11.12-7.2-25-6.59-24.59C135.79,49.85,137.42,50.22,137.82,50.65Zm1.91.4a1.85,1.85,0,0,1,.49.08c.83.23.94.34,1.14,1.26,1.42,6.35,2.93,12,4.62,17.28a98.38,98.38,0,0,0,6.22,15.91c2,3.91,4.56,6.62,7.3,8a15.63,15.63,0,0,1,1.56.84c.07.07.05.27,0,.45s-.31.33-1,.32a5.9,5.9,0,0,1-3.45-1.31c-3.5-2.41-6.57-7.88-7.92-11a127.8,127.8,0,0,1-4.53-12,135,135,0,0,1-5.09-19.27C139.05,51.24,139.3,51,139.73,51.05Zm52.46,10.38,0,2.26c-8.81.58-17.85-3.15-25.12-6.5,5.48,7.26,11.32,13.7,25.12,15l0,2.32c-18-.25-30.64-18.46-30-23,7.39,4.77,20.75,10.3,30,9.88ZM142.58,51.9a2.22,2.22,0,0,1,1.24.43c1.47,5.48,2.54,11.57,5,17.68,3,7.51,4.64,14.14,10.17,20.33,1.73,1.77,5.1,1.71,5.1,1.71s-.43,1-1,1.12a6.11,6.11,0,0,1-2.91,0c-3.21-1.35-5.66-4.77-6.92-7.09-1.19-1.74-4.08-8.91-6.47-16.21-2.59-7.95-4.73-16.22-4.49-17.88A.59.59,0,0,1,142.58,51.9Zm3,.92a2.09,2.09,0,0,1,.83.24c.36.17.52.28.71,1,.12.44.1,1.12.32,2.24a102.13,102.13,0,0,0,4.68,14.9,90.52,90.52,0,0,0,5.52,12.35,26.77,26.77,0,0,0,2.84,4.41c1.86,1.85,5,1.94,5.92.1a3.09,3.09,0,0,0-.6-3.55c-.79-.76-2.58-.44-2.62.47,0,.24.44.13,1.08.06,1.8-.21,2.36,3,.05,3.5-2.92.67-5-3.28-2.37-5.71,4.38-3,7.72,1.09,6.68,5a5.3,5.3,0,0,1-4.88,3.56c-2.86.09-4-.79-7-5-3.35-5.39-4.81-10.65-7.18-16.54a72.17,72.17,0,0,1-4.42-16.7A.39.39,0,0,1,145.54,52.82Zm2.78.92a3,3,0,0,1,1,.29,3.19,3.19,0,0,1,.35.29c3.94,14.36,7.22,23,10.56,29a4.16,4.16,0,0,1-.28,1.43c-.39.57-.59.43-1.11-.47-2.1-4.06-4.1-8.56-6-13.19a77.27,77.27,0,0,1-5-16.46C148,54,147.83,53.78,148.32,53.74ZM174.87,62a1,1,0,1,1-1,1A1,1,0,0,1,174.87,62Zm-81.79-.18c-1.17,1.59-2.12,7.28-3.34,7.35s-3-.79-4,.42c-1.27,1.47-.49,3.09,1.08,4A5.5,5.5,0,0,0,90,73.7C93.82,72.41,95.27,66.22,93.08,61.77Zm85.61,1.49a1.46,1.46,0,1,1-1.46,1.46A1.46,1.46,0,0,1,178.69,63.26ZM93.15,64c1.3,3.28-.14,7.21-1.73,8.53a4,4,0,0,1-5.08.19c-1.09-1-.61-3.49,1.43-3.31a2.92,2.92,0,0,1,2,1.31C91.06,70.8,92.59,64.07,93.15,64Zm90.61.8a1.65,1.65,0,1,1-1.64,1.65A1.65,1.65,0,0,1,183.76,64.75Zm5.82,1.16a1.68,1.68,0,1,1-1.67,1.68A1.68,1.68,0,0,1,189.58,65.91Zm-54.15,7.63c.25,0,.42.24.59.72.34,1,.33,1.12-.2,1.79-5.16,7.14-.46,14.44,7,15.23.63,0,.94.76,1.28,1.59-.05.39-.05.39-1.75.42a10,10,0,0,1-2.55-.2,13.65,13.65,0,0,1-7.14-5.27c-1.51-2.52-1.76-5.13-.83-8.62a10.68,10.68,0,0,1,2.53-4.93C134.85,73.79,135.18,73.54,135.43,73.54Zm48.9.79.09,24.5-2.61,1,.1-26.06Zm4.94,1q4.88,12.1.46,22.2l-3,.43c4.07-9.48,2.34-16.27,0-22.82Zm-156,1.35,10.56,10,.37,111-1.69-.6L41.89,87.81,33.32,80Zm103.09.31h.05c.29,0,.55.39.78,1.06a1.55,1.55,0,0,1,0,1.61c-1.44,3.55-.26,6.93,3.31,8,.85.27,1,.41,1.49,1.46.33.69.47.93.35,1.08s-.64.2-2-.09a8.57,8.57,0,0,1-4.83-12.26c.3-.52.57-.81.83-.85ZM94,76.5a28.4,28.4,0,0,1,1,4.82c-.29,1.72-2.73,4.48-4.87,5.48-2,.76-5,.38-6.24-.94-4.55-5.33,3.95-10.69,6.08-5.14,1.29,3.65-3.93,4.51-4.17,1.71,0-.72.24-1,.91-1.42s.53-.78,0-.78a2.26,2.26,0,0,0-1.13,3.68c1.78,1.86,4,.78,5.49-.59,2-1.84,2.44-4.47,2.91-6.82Zm44.08,4.06c.1,0,2.19,5,2.46,5.7-.07.5-.61.46-1.54-.19a3.65,3.65,0,0,1-1.63-2.66c-.12-.54-.33-2.52.71-2.85Zm-42.38,2.1c.46,0,.94,1.69.72,2.55-.38,1.5-4.3,4-7,4.55L88.08,90a2.36,2.36,0,0,1-1.93-.92c-.49-.5-.72-1-.6-1.12s1.36.13,2.43.11c3,0,5.32-2.12,7.1-4.68C95.35,83,95.64,82.66,95.73,82.66ZM36.06,83.91s2,1.84,3.1,2.89c-.11,4.9-1.92,10.2-1.92,14.58,0,3.8,2.51,7,2.76,10.28a18.48,18.48,0,0,1-1.54,7.74,17.48,17.48,0,0,0-1.5,7c.13,5.4,4,11.31,2.65,16.66-1.29,5-2.74,7.93-2.36,10.6.75,5.15,3.49,9.71,2.76,14-.68,4-2.48,8-2.29,11.57.22,4.15,1.78,7.62,2.22,11.41a27.52,27.52,0,0,1-.42,6.3l-2.84.24c1.56-5.83-.77-11.11-1.67-16.72-.76-4.77,1.38-8.57,2-12.64.4-2.53-.05-4.94-1.3-8.16-2.48-6-1.59-9.82.19-15,2.21-5.52-.82-9.89-1.58-15.17A22.48,22.48,0,0,1,36,117.62c1.28-3.9,1.64-6.16-.26-9.9a12.53,12.53,0,0,1-1.52-6.87c.62-6.18,2.29-9.64,1.88-16.94Zm61,2.46c.44,0,.66.32.66.95,0,1.15-1.72,2.61-4.76,4-1.57.74-2.49.85-3.41.41s-.82-.76.13-1a14.14,14.14,0,0,0,6-3.36,4.86,4.86,0,0,1,1.41-1Zm-13.75.8c7.84,8.39,15.52,12.7,21.4,14.72l-.93,2.2c-7.72-3-15.59-7.15-22.26-16.1Zm15.1,1.37a2.73,2.73,0,0,1,1,1.28,3.28,3.28,0,0,1-.65,1.12,6.07,6.07,0,0,1-2.27,1.72c-1.75,1-2.82,1.19-3.58.79s-.5-.74,1.39-1.85a20.28,20.28,0,0,0,2.89-2,10,10,0,0,1,1.21-1ZM77.68,89.78a47.7,47.7,0,0,0,24.41,17.73l-1.53,2.07C91.68,106.52,83,101,75.06,91.24Zm22.42,1.08c.33,0,1.05.82,1.05,1.18a1.47,1.47,0,0,1-.31.72,15.75,15.75,0,0,1-2.9,2.18,1.65,1.65,0,0,1-1.7,0c-.77-.39-.64-.71.62-1.52a15.63,15.63,0,0,0,2.07-1.63A4.63,4.63,0,0,1,100.1,90.86Zm-25.83.64c-.18.23-9.45,21.46-29.09,36.52l-.09-3.53C56,115.86,63.88,104.05,69.84,93.74ZM102,93c.3,0,.5.19.71.58s0,.9-1.12,1.73a2,2,0,0,1-1.51.61c-1.46,0-1.42-.38.18-1.81C101.07,93.39,101.59,93,102,93Zm37.93,1,4.09.32c1.1.77-16,12-27.86,11l.31-2.69C126.85,103,140.18,94.56,139.9,94.07Zm-35.12,1.05c.94.53,2.11,1.15,1.82,1.36a8.42,8.42,0,0,1-3.85-.25c-.48-.26-.46-.39.2-1.13.81-.91,1-.47,1.83,0Zm-36.5-.66c-6.48,11.44-14.21,21.89-23.16,28.69L45,117.1c8.51-6.55,15-18.52,15-18.56Zm81.26.73,2,1.15c-12.37,11.45-25.73,16.39-38.57,15.15l1-2.32c20.83,1.65,34.67-13.76,35.55-14Zm3,.4s.66-.08.59,0a95.84,95.84,0,0,1-13.44,10.72c-17.49,18-32.46,32.14-47.7,48.14L89.56,152l2.21-2.33c0-4.61,5.65-9.78,9-13.76,1.4-1.57,4-5.62,3.72-7.32a3.53,3.53,0,0,1-.11-.54c5.29-1.06,6.56-5.35,6.67-9.14a24.62,24.62,0,0,1,1.44-6.93c24,1.92,39.4-15.72,40.06-16.34Zm-41.76,2.65c2.72,0,4.78,2.14,4.77,5.19,0,1.28-.47,2.24-2.2,5.62-1.68,2.88-1.89,4.64-2.55,8l-1.7-1.53-3.1,2.79,0-4.07s1.07-1.36,2.8-3.3c2.19-2.43,4.17-5.56,4.08-7.32a2.46,2.46,0,0,0-3.82-2c-1.65,1.16-2.41,3.24-3.38,9.48-.18,1.11-.34,2.41-.43,2.7-.24.77-2.63,3-2.63,3a38.35,38.35,0,0,1-1.15-4.58l-2.41.4A31.71,31.71,0,0,0,105.49,102C106.78,99.68,108.43,98.27,110.79,98.24Zm-52.49,1s-4.81,10-13.24,16.47L45,111.77c4.9-3.8,8.63-10.34,8.62-10.33Zm115.62.25c-16.68,17.27-38.44,49.06-11.43,93.73l3.57-4.12c-21.75-40.39-6.34-61.33,8-82.34Zm-90.17,1.43c4.88,3.47,10,6.92,16.57,9.11-.35,1.17-9.41,8.79-2.91,15.84.27.37-.42,1.27-1.48,2.54-3.1,4.25-6.21,7.27-8.8,12.05l-.11,9-2.59-2.29Zm89.53.83.11,5.11c-24.78,30.12-22,57.23-8,82.2l-2.69,2.72c-22.95-39.51-8.63-69.29,10.56-90Zm-61.13,3c-1.09,2.89-5.87,7.83-5.87,7.83s.64-4.81,1-6.33a9.8,9.8,0,0,1,1.67-3.48C110.91,100.64,112.84,103.05,112.15,104.74ZM79.28,102l.47,40.34-3.49-3.51L75.75,108Zm-4.7,7.89.69,27.39a164.68,164.68,0,0,0-8.46-17.1l7.77-10.29Zm27.5,8.57a13.74,13.74,0,0,0,1.37-1.4c1.8-1.83,2-1.84,1.8.62-.06,1,0,2.16,0,2.16,1.06-.61,3.55-3.55,4.25-3a4.45,4.45,0,0,1,1,3.23,7.56,7.56,0,1,1-12.64-5.45c.55-.58,2.13-1.66,2.89-1.45C101.68,114.91,101.65,116.81,102.08,118.5Zm79.66-2.91a4.46,4.46,0,0,0,2.69,3.12c-.25,39.22-.07,108.66-.07,108.66l7.89,7.41L192.2,238l-10.45-9.57s-.56-81.89,0-112.85Zm7.83,1.82c.28,3.79-.36,7.79.29,11.69.64,2.69,1.62,5.12,1.7,7.77a18.77,18.77,0,0,1-1.12,7.2,16.43,16.43,0,0,0-1,5.1c-.39,3.29.68,6.27,1.49,8.89,1.09,3.48.78,7.68-1,13.23a10.92,10.92,0,0,0-.65,4.64c.24,3.8,1.59,7.41,2.28,11.14.38,2.13,0,4.92-1.32,9.66a32,32,0,0,0-1,6,17.29,17.29,0,0,0,.79,4.6c1.82,4.79,1.91,5.65,2,8.53a16.94,16.94,0,0,1-1.37,6.26c-1.28,3-.44,6.16,0,9.58L187.58,229a11.63,11.63,0,0,1,.26-7.85c1.22-3.42,1.53-3.73,1.51-5.7,0-2.61-1.51-5.69-2.13-7.52a15.23,15.23,0,0,1,0-9.89,52.19,52.19,0,0,0,1.48-6.35c.33-2.59.08-4.63-1.22-9.83a21.26,21.26,0,0,1-.81-6,27.33,27.33,0,0,1,1.05-7.58c1.08-4.47,1.07-7.16-.34-11.31a18.64,18.64,0,0,1-1.16-8.49,13.13,13.13,0,0,1,1.33-4.55,14.2,14.2,0,0,0,.55-9.79c-1.73-6.57-1.7-9.91-1.53-15.85Zm-8.84,2.15c-.27,26.88,0,57.66,0,57.66s-8,5.57-7.93,5.28c-10.26-16.92-14.17-41.84,3.75-64.32a23.36,23.36,0,0,0,4.17,1.38ZM59.62,126C74.15,153.08,76,180.48,52,208.58a14.57,14.57,0,0,1,.26,7.07C57,212,94.51,174.51,62.89,122.3Zm74-2.21,7.13.42.48,6.14-2.31,2.28s0-1.27-.07-2.4a6.31,6.31,0,0,0-.36-2.56,17.44,17.44,0,0,0-.35,3.42L138,133.7l-.8.8c-1.06,1.06-1.28,1-1.32-.52-.09-3.25-.08-3.48-.32-3.24a10.84,10.84,0,0,0-.24,2.93,16.36,16.36,0,0,1-.21,2.84,4.64,4.64,0,0,1-1.88,1.68c-.33,0-.31-.47-.31-2.5,0-1.7-.18-2.64-.45-2a26.8,26.8,0,0,0-.21,3.22,15,15,0,0,1-.2,2.8c-.29.55-1.69,1.73-1.94,1.64s-.44-1.15-.43-2.84c0-.83.14-1.53-.18-1.76s-.38.74-.29,3.17l0,2.65-.89,1c-1.42,1.46-1.52,1.39-1.52-1.13.06-2,0-2.87-.4-2.71s-.24,1.12-.16,3.09a10.18,10.18,0,0,1-.07,2.86,9,9,0,0,1-1,1.15c-.47.45-1,1.08-1.11,1.08-.11-2.12-.29-6.67-.29-6.67l-7.44-.33a15,15,0,0,1,2.17-2.16c.34-.18.86-.2,2.73-.12a20.37,20.37,0,0,0,3.13-.11c.56-.22-.6-.41-2.25-.51a25.31,25.31,0,0,1-2.59-.23l1.08-1.12.81-.8,2.38.07a12.6,12.6,0,0,0,2.66-.05c1.41-.28.09-.6-1.51-.6s-2.44,0-2.44-.35a6,6,0,0,1,2.24-2c.26-.05,1.53-.1,2.83-.11,2.23,0,3-.05,2.92-.42s-1.61-.27-2.59-.31c-2.73,0-2.86-.11-1-1.74l.9-.79,1.71,0c2.59.07,3.84,0,3.84-.28s-1.68-.43-3.11-.43H128.7a21.88,21.88,0,0,1,2.07-2.24l2.31,0c1.68,0,2.71.09,2.74-.21s-.6-.31-1.38-.31a7.84,7.84,0,0,1-2.45-.26c-.18-.18.15-.67.88-1.33l.76-.68ZM63,123.84c19.95,32.59,12.75,67.82-9.5,89.74l-.65-4.28c21-25.54,24.67-51.91,7.68-82.94Zm37.11,4.38c-3.59,5.38-9.06,10.7-11.13,15.1-.42.49-.56,1.61-1.22,1.83-.33,0-.43-.62-.35-2.06a5,5,0,0,1,.69-2.5c2.82-5.16,6.1-8.87,9.72-13.77Zm.84.52,3.31.21a17.14,17.14,0,0,1-2.9,5.53c-1.51,2-3.31,3.92-5.42,6.32-3,3.47-4.58,7-4.43,8.56a28,28,0,0,1-2.26,2.18l-1.94-1.77c1.44-7.35,8.37-14.1,13.64-21Zm40.51,3,1.07.06a35.77,35.77,0,0,1,6.1.6,4.57,4.57,0,0,1,.24,1.26,10.78,10.78,0,0,1-.47,3.62,15,15,0,0,1-.78,2.77c-.42.43-.59,0-.78-2-.12-1.2-.17-2.07-.33-2a8.39,8.39,0,0,0-.19,2.3c.12,2.51.11,3.12-.67,3.88-1.37,1.32-1.44,1.19-1.54-1.16a13.22,13.22,0,0,0-.35-2.47c-.29-.29-.39,1.06-.39,3.34v2.44l-.65.71c-.85.91-1.12,1-1.43.74s-.12-.61-.12-2c0-1.63-.29-2.57-.6-2.26a29.88,29.88,0,0,0-.07,3c0,1.38,0,2.59,0,2.71a6,6,0,0,1-1.88,1.88c-.32,0-.58-1.79-.58-3.26,0-1-.21-1.15-.42-.62a26.75,26.75,0,0,0-.09,2.75v2.24l-.91.94c-1.22,1.26-1.41,1.18-1.42-.54,0-1.48-.1-2.26-.4-2.26s-.21.7-.21,2.37a13.35,13.35,0,0,1-.16,2.51,4.9,4.9,0,0,1-.89,1.17,3.19,3.19,0,0,1-.9.73,4.08,4.08,0,0,1-.35-2c0-.13,0-1,0-2,0-2.27.13-2.18-3.51-2.29-4.27-.13-4.33-.16-3-1.4s1-1.14,3.87-.95c2.27.15,2.55.14,2.78-.09s.21-.29.17-.33a15.08,15.08,0,0,0-1.92-.18c-2.81-.15-3.06-.36-1.87-1.55l.67-.67h2.88a13.85,13.85,0,0,0,3.33-.2c.19-.31-.58-.38-2.43-.49-1-.06-1.92-.14-2.07-.18-.47-.14-.3-.62.5-1.36l.76-.71h2.54c2.35,0,3.51-.15,3.51-.47s-.47-.3-1.68-.32c-1.71,0-2.85-.19-2.93-.42a7.58,7.58,0,0,1,1.67-1.93l2.58.09c2.6.09,3.41,0,3.41-.46,0-.23-1.11-.4-2.55-.31-.93.05-2.05-.17-2.05-.5a3.26,3.26,0,0,1,.83-1.08l.84-.82,2.53.1a19.1,19.1,0,0,0,3,0c.42-.29-.55-.52-2.14-.61-2.45-.14-2.61-.33-1.31-1.56Zm-88.15,1.36c13.1,23.45,11.14,45.54-2.81,64.34a12.66,12.66,0,0,0-5.13-1.63L45,139.17ZM147,142.24c.26,0,.26.39.19,1.3a9.65,9.65,0,0,1-.25,1.7c-.15.4-.27.41-1.54.23-1.45-.2-1.43-.47.16-2C146.32,142.68,146.76,142.28,147,142.24Zm-70.31,1s1.72,0,2.59,0c0,0,.13,4.39.48,6.92l5.62.27-2.18,2.27-4.26-.14s-1.29-6.23-2.25-9.34ZM143.57,146a9.3,9.3,0,0,1,3.11.58c.19.19.19.66,0,3.49-.06,1-.13,3.21-.14,4.87,0,3,0,3-.37,3.07s-.51-.1-.63-2.08a5.8,5.8,0,0,0-.36-2.13c-.15-.05-.13.94-.13,3v2.62a8.5,8.5,0,0,1-1.37,1.12c-.32,0-.49-.49-.64-1.86s-.31-2.33-.49-2a22,22,0,0,0,.06,2.77l.16,2.22-1,1c-1,1-1.14,1.1-1.31.84-.37-1,.16-5.64-.75-6.23A24.46,24.46,0,0,0,137,157c-2.37-.1-3.71-.14-4-.43s.91-1.47,1.49-1.73c.41-.19.88-.2,2.84-.07,2.26.15,3.4.14,3.1-.15a12,12,0,0,0-2.13-.34c-1.82-.18-2.46-.36-2.46-.7a8.66,8.66,0,0,1,1.56-1.83l.88.09,2.55.27c.91.11,2.76.13,2,.06.24-.24-.7-.49-2-.65-2.47-.31-2.69-.59-1.45-1.81l.76-.75c1.3.1,2.61.13,3.9.33.94.15,1.45.1,1.45-.22s-.47-.22-1.61-.44c-.41-.08-2.54,0-2.57-.68.5-.69,1.4-2,2.3-2Zm-57.52,5.32c.38,0,.4.9.44,3.32,0,2.65.08,3.11.31,3.34s.76.29,3.09.41c3.57.18,3.66.23,2.41,1.45-.88.84-.92.73-1.64.65a17.86,17.86,0,0,0-4.75,0c-.19.3,0,.36,1.74.5,2.1.16,2.67.23,2.67.59a2.76,2.76,0,0,1-.79,1l-.79.74-2.21-.09c-2.32-.09-3.52-.12-3.52.19s1.33.4,3.43.61a3.67,3.67,0,0,1,1.14.15c.07.23-1,1.55-1.64,2s-.72.18-3,.13-2.59,0-2.14.47c.1.11.5.12,1.39.18,1.45.1,2.15.32,2.15.68a5.31,5.31,0,0,1-1.93,2c-.54.26-.77.27-2,.1-1-.13-1.13-.33-1.11-1.22,0-.4.09-3,.16-5.76.14-5.36.19-5.63.89-5.53.31,0,.38.41.46,2.23s.16,2.31.49,2.31c.12,0,.13-.77.06-2.63-.12-2.89-.12-3.32.76-4.15.39-.38.7-.68.89-.41a16.29,16.29,0,0,1,.37,3.53c0,1.15.44,1.39.55.3-.06-1.74-.07-3.3-.08-5.16l1.07-1.06C85.47,151.63,85.83,151.28,86.05,151.27Zm-7,2.16a22.06,22.06,0,0,1,3.16,0,10.37,10.37,0,0,1-2.76,2.73c-.22,0-.45-2.3-.4-2.78Zm67.65,5.26.51,3.57-3.9-.27Zm-52.56.58h.07c.28.11.36.79.47,4.11a14.54,14.54,0,0,0,.26,2.9c.11.14.6.2,1.5.2.74,0,2.12,0,3.08.11,2.08.12,2.14.2.89,1.43l-.84.83-2.61-.1c-2.68-.11-3.13-.07-3.13.3s.46.37,1.32.35c.34,0,1.19,0,1.89.1,1.57.15,1.6.26.43,1.52l-.84.91-.82-.11a19.84,19.84,0,0,0-5,.06c-.32.32.1.46,1.67.55,2.43.15,2.86.22,2.86.5a3,3,0,0,1-.77,1l-.75.76-3.1-.16c-2.17,0-2.91,0-3,.14s.28.32,2.51.55,2.46.45,1.65,1.46-1.24,1.24-2.93,1.08a14.35,14.35,0,0,0-4,0c-.43.27,0,.45,1.33.55,2,.15,3.17.37,3.17.66a3.63,3.63,0,0,1-1.3,1.67l-.53.4-2.29-.24c-2.27-.24-3.44-.12-3.11.2a6.63,6.63,0,0,0,1.88.3c1.71.12,2.57.35,2.57.7a4.82,4.82,0,0,1-1,1.15,7,7,0,0,1-1.15.9l-7-.63s-.36-1.26.35-4.67c.63-3.08.89-3.77,1.2-3.2a9.1,9.1,0,0,1,.22,1.42c.14,1.23.45,2,.63,2s.2-.74-.06-2.46c-.37-2.41-.42-2.5.5-3.47s1.23-1,1.47-.65a17.81,17.81,0,0,1,.26,2.11c.16,1.61.26,2,.47,1.77s.23-.59.09-3L82.55,171l1-1.05c.94-1,1-1,1.23-.78a8.23,8.23,0,0,1,.35,2.36c.1,1.75.24,2.33.49,2.07a33.25,33.25,0,0,0-.06-5c-.09-.6,0-.69.72-1.54.91-1,1.38-1.44,1.63-1.45s.51,1,.51,2.33a4.69,4.69,0,0,0,.25,2.16c.34.45.38-1.15.29-2.73l-.09-2.9.94-.93c.89-.89,1-.93,1.21-.68s.19.7.27,2.16c.13,2,.52,3,.64,1.6a5,5,0,0,0,0-1.38,18,18,0,0,1-.13-2.21c0-1.18.06-1.49.35-2a5.28,5.28,0,0,1,2-1.76Zm40.66,2.2s1.57,1.34,1.57,1.72a7.12,7.12,0,0,1-1.47,1.74c-1.55,1.52-1.7,1.78-1.88,3.42a9.47,9.47,0,0,1-1.09,2.86c-.55,1.11-1.34,2.4-1.34,2.4a137.91,137.91,0,0,0-9.17,11.93c-.25.57-.26,1.15-.51,1.63a2,2,0,0,1-.83.72,8,8,0,0,0-1.28.79,8.38,8.38,0,0,0-3.14,4.91,52.76,52.76,0,0,0-.85,5.46c-.18,1.39-.79,3.82-.79,3.82-9.34-.14-18.09,1.48-25.88,5.88Zm12.48,1.43,2.07,9.44-2.14,0-.21-6.85-6.68-.64,2.39-2.31Zm-10.14.87c.57.58,1.28,1.22,1.8,1.85-1.78,6-7.44,13.72-13.06,21.41l-4.12-.45a118.75,118.75,0,0,1,8.47-11.28,20.71,20.71,0,0,0,2.71-4.36,26.7,26.7,0,0,0,1.39-4.28c1-1.17,2.82-2.87,2.81-2.89Zm2.22,2.09,3.11,3.16.76,44.69A57.31,57.31,0,0,0,126.79,205l1-2.41,1.16-1.24c4.11-4.44,3.19-9.22.07-12.6,3.8-5.55,7.25-9.68,10.14-15.09l0-3.72a15.1,15.1,0,0,1,.23-4.11Zm-37.24,1.87c.32,0,.36.79.45,3.13a13.08,13.08,0,0,0,.31,3.46c.19.3.38.33,3,.41s3.29.16,3.29.45a4,4,0,0,1-.77.94l-.78.78-2.43,0c-1.3,0-2.83,0-2.87,0-.21.2.59.47,1.78.47a13.83,13.83,0,0,1,2,.19c.46.17.25.63-.76,1.59l-1,1-2.2,0a22.62,22.62,0,0,0-2.89.07c-.67.23-.33.41.78.42,1.86,0,3.14.18,3.19.47a2.89,2.89,0,0,1-.77,1.15l-.83.88L98.43,183c-3.07,0-3.48.25-.92.5,1,.1,2.52.34,2.58.35s.14.13.19.26c.11.28-1.13,1.67-1.79,2a1.43,1.43,0,0,1-1.16.06,14.93,14.93,0,0,0-4,.06c-.27.16.31.35,1.14.36,1.24,0,2.73.39,2.73.68a4.34,4.34,0,0,1-1.3,1.61c-.31.28-1,0-3.11.1a7.49,7.49,0,0,0-2.34.27,3.11,3.11,0,0,0,1.59.43,10.34,10.34,0,0,1,2.19.35c.21.21-1.37,2.08-1.37,2.08L86.12,192l-.62-7.16.57-.66c1.29-1.49,1.57-1.28,1.83,1.4.19,2,.33,2.56.62,2.28a12.61,12.61,0,0,0,0-2.87c-.08-1.36-.16-2.59-.16-2.75,0-.37,1.54-2,1.84-1.93s.46.73.62,2.56c.13,1.51.2,1.92.5,1.62.14-.14.15-.93,0-2.83l-.19-2.49.65-.78c1.31-1.55,1.57-1.37,1.73,1.15.11,1.7.27,2.59.59,2.59a14.74,14.74,0,0,0,0-3.19L94,176l.82-.83a3.86,3.86,0,0,1,1-.83c.32,0,.5.73.7,2.43.23,1.92.3,2.25.49,2.06a12.8,12.8,0,0,0,0-2.72l-.22-2.86,1-1a3.84,3.84,0,0,1,1.23-1c.3.06.49.92.51,2.14a4.72,4.72,0,0,0,.47,2.38c.13.12.16-.58.13-2.61,0-3.13-.13-3.37,1.28-4.84.38-.39.63-.65.8-.66ZM138.63,169l0,4.37c-1.75,3.75-5.8,9.24-9.9,15.14l-2.15-1.16C131.75,180.63,136,174.35,138.63,169ZM80,170.38h.32c1.11.06,1.14.45.11,1.41a2.68,2.68,0,0,1-1.11.73c-.32,0-.34-.05-.24-.88.12-1,.25-1.26.92-1.27Zm66.9,3.15,3,3,.75,32-3.18,5.19Zm3.79,4.22a118.35,118.35,0,0,0,8.7,17.32l-8.09,11.42Zm-27.21,10c3.72,0,7.14,2.89,7.57,5.88.81,3.43-1,7.13-3.86,8.27a6.28,6.28,0,0,1-1.6.39c-.35-2.07-.2-4.07-.67-6.17a26.59,26.59,0,0,1-2.72,3.1c-.51.28-.74.35-.67-.31,0-1.16.12-3.74.12-3.74l-4.3,4.44a7.16,7.16,0,0,1-.76-1.59,7.74,7.74,0,0,1,3.17-9.12,6.83,6.83,0,0,1,3.72-1.15Zm57.17-.27.08,3.91c-6.74,5.23-16.36,16.25-24.61,30.6l-3.63,1.53C158.09,210.14,169.9,196.53,180.66,187.46Zm.07,5.14.07,5.83a88.77,88.77,0,0,0-15.62,19.24c-2.63,1.26-7.49,3.66-7.49,3.66-.61-.15,13.25-21.73,23-28.73Zm-60,5c.28,0,.26.52.18,1.28a5.45,5.45,0,0,1-1,3.18c-2.18,2.58-5.64,6.08-6.11,9.33-.24,1.74,1.12,3.37,2.45,3.2,4.14-.52,4.59-7.88,4.94-11.51a10,10,0,0,1,.36-1.94,16.12,16.12,0,0,1,3-3.08l.51,5.63,2.33-.78c-6.58,9-4.69,9.51-8.16,13.17-3.23,3.41-9.49-.47-7.89-5.65,1.4-3.49,3.55-7,4.13-10.71.16-1.11.25-1.88.25-1.88l1.5,3.12C117.91,200.21,120.13,197.73,120.7,197.6ZM181,199.53l0,4c-3.07,3.46-5.72,6.11-8.85,10.89l-5,2.27c3.25-6.19,8.58-12,13.85-17.17Zm-60.86,3.54a15.26,15.26,0,0,1-.4,5.28c-.34,1.62-1.9,6.33-4.35,5.22-2.09-1.84.45-5.26,1.73-6.88,1-1.16,2.07-2.41,3-3.62Zm-6.56.48-1.35,2.91c-12.21,0-24.06,4.41-34.61,13.32l-2.67-.88C86.11,208.33,100,203.2,113.56,203.55Zm12.83,2.24c13.75,4.6,20.1,11.32,25.31,18.37l-2.18,1.11c-5.45-7.05-12.18-13.51-24.7-17.24Zm-15.75,4.34-.59,2.49c-7.7.23-15.83,3-23.74,8.45l-2.85-.45A48.45,48.45,0,0,1,110.64,210.13ZM145.83,227l-2.44,1.15C136.1,218.64,129.51,216,122,213.54l.81-2.09C132.89,214.12,140.28,219.22,145.83,227ZM44.2,215.8,44.41,241l-1.76-.35-.25-24.4Zm-4.07,1.36c-3.35,12.56-.75,15.81.46,23.13l-2.78-.44a33.49,33.49,0,0,1-.7-22Zm84.29,1.93c.21.2-.17.82-.69,1.12s-.39.25-1.19,0-1.76-1-1.76-1.29A19.9,19.9,0,0,1,124.42,219.09Zm2.36.18c.46.06,1.79,0,1.87.45,0,.24-.49.65-1.55,1.37-1.62,1.11-2.17,1.33-2.65.8s-.31-1,.44-1.71A2.51,2.51,0,0,1,126.78,219.27Zm-55.24.28c.93,0,2.59,1.14,3.59,2.47,1,1.59,2.18,3.22,3.12,4.82A68.68,68.68,0,0,1,83.43,238a148.69,148.69,0,0,1,7.51,26.44c0,.74-.67.72-1.19.55a1,1,0,0,1-.59-.41c-.75-2.12-1-4.3-1.58-6.43a138.56,138.56,0,0,0-4.7-15.93,109.59,109.59,0,0,0-5.76-13.53,31.6,31.6,0,0,0-5.3-7.35,15.36,15.36,0,0,1-1.29-1.21C70.53,219.75,70.89,219.55,71.54,219.55Zm58.77.29c.86.21,2.93.45,2.15,1.14-2.92,1.12-3.86,2.33-5.41,3.57a3.2,3.2,0,0,1-1.15-1.42C127.15,221.59,128.73,220.93,130.31,219.84Zm-54.55,0c1.21,0,2.41,1.53,3,2.52,3.75,5.51,7,13.38,9.59,21.08a123.61,123.61,0,0,1,5.43,21.93c-.07.18-.42.24-.82.24-.77,0-.88-.18-1.07-.79A179.08,179.08,0,0,0,84.1,237.6a79.25,79.25,0,0,0-6.36-13.17c-1.85-2.72-2.91-4.14-2.83-4.36s.37-.21.73-.21Zm-8.38.16c1.64,0,4.36,2,6.21,4.45,3.92,5.37,6.16,11.64,8.48,17.73A126.07,126.07,0,0,1,87.82,263c.2.87.52,1.26-.31,1.53-1.25-.36-1.22-.32-1.57-1.84s-.64-3.28-1.1-4.95c-2.64-9.49-5.6-20-10.51-28.61-5.9-9.45-7.62-6.82-8.56-8.49.07-.37.73-.64,1.61-.64Zm14.2,2.31c5.07,8.82,7.3,14.23,8.84,19.56,2.34,8.08,5.11,14.52,6.32,23.95a6.75,6.75,0,0,1-1.86-.19,5.53,5.53,0,0,1-.6-1.94A157.44,157.44,0,0,0,89,243a88.53,88.53,0,0,0-9-19.82c-1.05-1.71-1.25-2.39-.6-2.41,1.14.07,1.64,1,2.17,1.59Zm52.82-.95a1.58,1.58,0,0,1,.75.12c.68.23.89.38.93.64s-.36.52-1.66.82A13.55,13.55,0,0,0,130,225.4a10,10,0,0,1-1.35,1.11c-.32,0-1.08-.84-1.08-1.19C128.66,223.7,132,221.48,134.4,221.37Zm-69.86.22c4.29.13,7.65,5.12,9.41,8.48.68,1.31,1.57,2.74,2.25,4.25a143.86,143.86,0,0,1,7.88,23.79c.69,3,1.5,5.21,1.21,5.79a1.47,1.47,0,0,1-1.44-.23,8.14,8.14,0,0,1-.73-2.13c-1-3.22-2.66-12.41-7-22.07a69.38,69.38,0,0,0-5.8-12.12,9.79,9.79,0,0,0-6-4.32c-1.09-.18-1.42-.05-1.35-.64,0-.38.16-.48.75-.66a2.76,2.76,0,0,1,.82-.14Zm26.82,19.92c-.29,0-.55-.56-.75-1.48-.09-.45-.22-.77.62-1.3,5.33-5.67.75-14-5.94-14.7-.62-.1-1.42-.1-1.66-.19A7.55,7.55,0,0,1,82.4,222c9.25-2.24,19.06,11,9,19.55ZM137.43,223c.55.14,1.75,1.25,1.6,1.5s-1.22.3-2.71.56c-3.18.56-4.54,2.64-6,4.18-.33.1-.62-.13-.92-.63a2.93,2.93,0,0,1-.39-1C130.64,225.23,135.07,222.79,137.43,223Zm-75.07.71a8.62,8.62,0,0,1,6.93,3.45c5.55,8.31,11.78,26.77,13.27,35.88-.15.29-.54.32-1.31.1-.43-.13-.38-.26-.65-1.11a188,188,0,0,0-5.9-19c-1.16-3.05-2.52-6-3.81-8.7-.81-1.69-2.44-4.7-3.06-5.62-1.46-2.74-4.41-3.55-6.27-2.66a2.8,2.8,0,0,0-.7,4.63,2.68,2.68,0,0,0,3.84-.61,1.25,1.25,0,0,0,0-1.19c-.15-.14-.43-.1-.48.06.1,1.61-2,1.72-2.86,1.08-1.44-1.07-.48-4.47,3.43-3.1a2.81,2.81,0,0,1,1.3,3.89,3.58,3.58,0,0,1-3.62,2.36A4.43,4.43,0,0,1,57.93,229a5.5,5.5,0,0,1,2.67-4.79,2.51,2.51,0,0,1,1.76-.48ZM85.26,225c6.56.3,9.57,8,6.12,12.68-.88,1.12-1.43.91-1.81-.52-.18-.59-.39-.68.14-1.14,3.07-2.94.55-8.67-4.51-8.9a7.16,7.16,0,0,1-1-2.11,3.39,3.39,0,0,1,1.1,0Zm54.71.53c.5.12,1.55,1.13,1.55,1.49s-.21.34-1.37.14c-2.76-.49-5.53,1.1-7.83,4.59-1.12,2.09-1.26,1.89-1.85.09-.3-.93-.31-.9.87-2.61A9.41,9.41,0,0,1,140,225.5Zm2.57,3.54c2.3,2.1,1.23,6.72-1.89,7.2-2.75.31-5.2-2.66-3.47-4.68,1.13-1.22,2.54-1.35,3.41-.3s.51,2.57-.76,2.72c-.15.05-.27.17-.27.26,0,.27,1.13.19,1.52-.12a2.45,2.45,0,0,0,.09-3.1,2.75,2.75,0,0,0-3-1.06c-1.85.66-3.74,3.17-4.81,6.33-.31.89-.49,1.73-.61,1.92-.27.41-.25.4-.49.24a8,8,0,0,1-.61-2.81,10.33,10.33,0,0,1,1.12-3.3C134.8,228.61,139.31,226.11,142.54,229Zm-56.26-.93c2.68.16,4.81,4,3.64,6.61-.36.49-.88.82-1.12.52-.09-.11-.5-1.36-1.08-2.68s-1.1-2.6-1.26-2.93c-.43-.91-.73-1.53-.18-1.52ZM68,230.32A112.05,112.05,0,0,1,75.77,248a97.8,97.8,0,0,1,3.79,13.47c.07.41.17.63,0,.81s-1.76-.45-1.76-.45C75.23,253,73.16,244.19,67.07,233a3.58,3.58,0,0,1-.34-.74,3,3,0,0,1,.56-2.09c.17-.18.4-.2.73.19ZM33.68,240.55c14.47,1,25.67,7.07,31.65,23.18a61.81,61.81,0,0,0-31.49-10.56l0-2.23c13.33-.11,26.32,6.82,26.05,6.72-5-10.22-17.41-14.36-26.22-14.63Zm100.42,3.26a8,8,0,0,0-1.31,2.61c.05.4.12,2.89.18,4.35a9.36,9.36,0,0,0,.28,2.84.66.66,0,0,0,1,.08,4.25,4.25,0,0,0,.34-.89c1.19-4.51,1.75-6.2,2.23-6.76.32-.41.43-.37,1.74-.22a2.64,2.64,0,0,0,2-4.67C138,239.71,135.24,242.12,134.1,243.81Zm3.11,1c-2.11,1.73-2.17,4.23-2.81,6.53-.34,1.55-.83,2.36-1,0-.36-3.24.09-5.65,1.5-7.56a5,5,0,0,1,3.58-2.43c2.76-.19,3,2,2.27,3.17a2.52,2.52,0,0,1-3.52.26Zm-99.7,1a1.89,1.89,0,1,1-1.89,1.89A1.89,1.89,0,0,1,37.51,245.81Zm6,1.29a1.69,1.69,0,0,1,0,3.37,1.69,1.69,0,1,1,0-3.37ZM49,249a1.37,1.37,0,1,1-1.37,1.37A1.37,1.37,0,0,1,49,249Zm3.89,2.46a1.06,1.06,0,0,1,0,2.12,1.06,1.06,0,0,1,0-2.12Zm-13.62,3.38a11.61,11.61,0,0,0,.39,5.59c1.07,3.13.58,8.71.58,8.71l-3.14,3.15a67.27,67.27,0,0,0,.41-8.48c-.11-1.63-.85-3.16-1-4.8a30.92,30.92,0,0,1,.09-4.55Zm5.09.94.11,13.33L33.71,279.48v-2.75l9.16-9.1-.19-12.34Zm26.52,30.38-.7,1.15H82.3l.26-1.15Zm15.71,0-.29,1.15h5.62l.19-1.15Zm9.2,0-.18,1.15h20.85l-.31-1.15Zm24.37,0,.34,1.15H126l-.46-1.15Zm9.29,0,.4,1.15h9.55l-.79-1.15Z" transform="translate(-5.81 -10.39)"/>
  </g>
</svg>
