<svg xmlns="http://www.w3.org/2000/svg" viewBox="0 0 211 284.5">
  <defs>
    <style>
      .a {
        fill: #131f67;
      }

      .b {
        fill: #e2cf00;
      }

      .c {
        fill: #d40000;
      }

      .d {
        fill: #100f08;
      }
    </style>
  </defs>
  <title>dk</title>
  <g>
    <path class="a" d="M24.41,17.77c.08,77.24.92,172.16,1,256.28H187.89l-1.1-255.9Zm48,1.63c28,.75,56.24-.06,84.48.16,0,0-10.26,17.57-13.37,23.11-.68,1.22-.75,2.08-.38,2.58a2.52,2.52,0,0,1-.12,2.87,1.58,1.58,0,0,0-.42.73,2.66,2.66,0,0,0,.31.76c.5,1.69-.79,2.86-2.15,3.4a13.33,13.33,0,0,1-4.44.53c-9.37-.43-27.79-8.22-35.32-8.79-5.25-1.43-12.05-1-17.65-.62-1,.06-.87-2.37-.87-2.37C81.64,33.73,75.87,26.76,72.45,19.4Zm86,.73h26.49l.12,4.21L173.91,35.61c-1,1.06-1.88,2-1.88,2L172,47.71c-7.6-4-9.11-8.79-10.5-14.1-12.7,9.23-13.3,29.39.57,39.78.12-4.51,3.61-13.37,9.8-14l.09,35.14-7.62-7.32-16.55.22c2.73-4.37,2.78-7.81,1-11.91-3-6.67-7.57-21.9-7.22-21.85a.73.73,0,0,1,.51-.41A2.48,2.48,0,0,0,144,50.27a1.82,1.82,0,0,0-.07-.25c-.06-.51-.06-.39.28-1,1.35-2.26-.26-4.72-.26-4.72Zm-87.87.25,9.93,17.67a6.16,6.16,0,0,0-.08,1.28,4.58,4.58,0,0,0,.7,2,3.84,3.84,0,0,1,.54,1.54c.1.88.1.88,1.41,2,.27.24.32.39.22.64-.43,1.08-.17,3.27.68,5.86,1.07,3.29,1.37,3.25-.62,7.67-.41,1-.92,2.16-1.46,3.3-2.49,5-2.87,6.36,1.38,9a2.31,2.31,0,0,1,1.26,2.93c-.23,1.18-.28,2,.29,2.59.37.43.71.51.62.84a6.09,6.09,0,0,0-.25,2c.25,2.22-2.36,5.49-4.73,6.64-.48.33-.62-.08-.89-.54-2.47-4.24-8.6-2.52-9,2.54-.11,1.34-.07,2-.42,2.21l-.47.29s-9.19,5.86-15,8.9a6.06,6.06,0,0,1-1,.57.73.73,0,0,1-.73-.18c-2.16-4-1-8.78-.78-10.49,0-.59-.57-.7-1.35-.71a4.55,4.55,0,0,0-3.65,2.54c-.36,1-.58,1.73-.9,1.72s-.48-.43-1.28-2a21.23,21.23,0,0,0-3.48-5.37c-1.24-1.46-2.3-1.66-3.51-.56-.86.75-.83.09-1.54-.29-1.25-.84-3.12-.08-3.16,1.09,0,1-.05,1.71-1.06,1.78s-1.62,1.51-1.3,3.55c.17,1.07.2,1.24-.13,1.64-1.09,1.28-1.24,2.16-.63,3.9,1.7,5.12,4.18,8.55,6.51,13.2l-9.42,5.21-.09-95Zm114.85,5,.14,82.57L172.89,95.71s-.2-15.79-.2-22.29.1-12.93.08-14.14.06-6.32.1-11.58c.08-11-.94-9.65,1.14-11.72Zm-24.81,9.91.69,2c-5.32,3-11.82,19.69.12,31.94l-.24,2.53c-12.51-11.17-10.2-27.18-.57-36.46Zm.9,2.35c1.83,3.7,3.9,7,6.73,9a14.22,14.22,0,0,0,.47,12.83c-1.82,1-4.33,3.57-6.95,8.88-9.44-9.35-7.34-22.93-.22-30.72Zm-70.06,7A56.12,56.12,0,0,1,107.18,47c3.15,15.66,8.69,26.19,8.67,32.32a3.78,3.78,0,0,1-1.37-.73,5.16,5.16,0,0,0-6.92,1.34c-1.61,2,0,4.67-.76,5.8-1.47,2.13-5.26,6-5.9,5.91-.46-.09-.39-.29,1.24-2.74s3-4.88,2.43-5.43c-.24-.24-.36.27-1.62,2.42-3,5.06-5.57,8.19-6.6,7.81-.48-.18-.23-.6,2-3.45,2.47-3.22,3.17-5.23,2.92-6.12-.19-.69-.58.42-1.6,2.39A68.28,68.28,0,0,1,95,93.18a4.23,4.23,0,0,1-2,1.65,5.65,5.65,0,0,1-2.17.62c-.3,0-.1-.21.31-.6a36.81,36.81,0,0,0,7.41-10.19c.24-.45-.1-1.09-.5-.62-2.36,4.1-5.64,9.19-9.22,11.45a5.17,5.17,0,0,1-3,.8c-1.76,0-1.14-.43.46-1.45,3.44-2.16,8.24-8.39,9-10.59.18-.52,0-.82-.36-.78C92.14,87.9,88.42,92.8,84,94.84c-2.33,1.1-5.28,1.31-6.72.62-1.06-.52-.79-.69,1.08-.81,4.54-.44,9.84-4.62,12.47-9.05,1.54-2.45.45-1.88-1.3.48-3,4-8.94,7.9-12.65,7.59s-5.88-3.06-5.4-5.5A4.26,4.26,0,0,1,75,84.76c3.57-.74,6,4.88,2.64,5.86-1.11.35-1.54.09-1.13-.35,2.42-1.06,1.35-3.91-.71-4.22A2.54,2.54,0,0,0,73,88.25a3.49,3.49,0,0,0,0,.46c0,1.46,1.27,2.92,3.73,2.92,2.91,0,7.39-2,10.11-5.85,1.92-2.93.15-2-1.29,0a17.09,17.09,0,0,1-5.67,4l.14-2c.06.34,6.3-3.91,6-7-.23-2.27.1-2.93,2.51-2.93,1.79,0,4.07.64,4.74,1.45s1.45,1.06,1.11-.29c-.54-2.2.11-2.56-1.18-2.15-.89.3-1.69-.41-2.58-1a5.88,5.88,0,0,0-3.71-1c-1.11,0-1.61,0-1.43-1.05a3.49,3.49,0,0,0,0-1.87c-.35-.77-1.74-1.57-3.31-2.71-1.85-1.34-1.5-1.42,2.45-10.37,1.65-3.75,1.65-4.53.66-7.3-1.54-4.32-1.82-6.08,1.16-6.69A43.8,43.8,0,0,1,91.46,44.66Zm16.72,2.54,1.52.43s4.78,16,7.51,23.85a33.82,33.82,0,0,1,1.62,8.64c-.07,4.16-2.47,7.16-5.37,7.48a5.2,5.2,0,0,1-5.28-3.07A4,4,0,0,1,110.46,79c4.31-1.51,7.45,3.91,3.23,5.56-2.18.86-4.25-.7-3.27-2.5a1.71,1.71,0,0,1,2.31-.67,1.66,1.66,0,0,1,.78.85c.37,1.39,1,.74.72-.21-.79-3-4.72-2.3-5,.48,0,3.42,3.81,4.22,6.09,2.3,1.76-1.53,2-4.31,1.51-6.73-.68-5-3.54-11.51-5.59-18.93C110.22,55.43,108.7,51,108.18,47.2Zm60.8.18,2.87,1.12-.07,9.29-2.43.83C166.17,53.84,168.82,47.39,169,47.38Zm-58.15.6,2.1.8c1.15,6.56,6.58,19.11,8.5,28.48.53,5.63.61,7.28-3.26,10.28h-2s0-.12.91-.8c5.07-3.73,2-12,.13-18.29C113.81,58.35,110.83,48,110.88,48Zm-19.67.7h-.8c-3.18.17-3.7.38-3.71,1,0,1.28.52,1.84,3.46,1.53a19.89,19.89,0,0,1,8.81,1.2c2.9,1.23,3.6,1.51,4.64,2,2.62,1.33,2.16,0-.21-1.53C98.51,49.83,95.16,48.59,91.16,48.68Zm22.89.45,2,.74s.51,1.52.7,2.39c1.93,8.38,7.15,17.8,7.76,27.6.14,3.22-.42,6.21-2.82,7.66h-1.8c1.92-1.89,3.21-2.44,2.68-9-.87-8.48-6.52-19-8.51-29.44Zm3.5,1.37,1.82.65c2.1,11.33,12.5,28.23,5.88,36.39h-1.66a10.54,10.54,0,0,0,1.86-7.3c-.64-10.34-6-20.31-7.9-29.79Zm3,1,2,.59c2.66,11.47,12.9,30.26,5.58,35.45h-1.43C132.21,77.4,123.89,67,120.6,51.5Zm3.46,1.05a10.45,10.45,0,0,0,2.12.67c2,8.67,5.83,17.2,7.54,25.27.58,4.43-.4,7.73-3.23,9h-.61c2.54-3.75,2.07-8.51.71-13.66C128.73,67,125.2,59.42,124.06,52.59Zm-30.87.15a9.66,9.66,0,0,0-2.87.44c-1,.38-.9,1.19,0,1L91.6,54c2.35-.41,5.25.42,8.76,2.51.85.5,1.77,1,2,1.17.65.46,1.33.46,1.09-.14a10.56,10.56,0,0,0-2.64-2c-2.54-1.5-4.91-2.8-7.64-2.82Zm34.2.76,2,.29c3.71,16.78,11.86,27.2,4.89,33.43h-1.75c1.91-2,2.77-4.88,2.13-8.46s-2.55-9.36-4.11-14.42c-1.84-5.86-3.31-10.8-3.14-10.84Zm2.83.46,1.68.31c2,6.83,5.28,15.27,7.28,22.32,1.23,4.34.74,9.66-2,10.65h-1.41c2.33-3.06,2.66-6.26,1.59-10.39-2.26-8.49-5.56-15.88-7.2-22.91Zm10.32,0c1.69,7.07,5.74,17.87,7.2,21.59,2,3.8,1.36,9.44-1.56,11.71H144.8c1.67-1.53,2.24-4.11,2-6.83-.74-7.57-6.19-18.05-8.16-26.1Zm-7.33.34,1.72.15c1.73,7.4,5.08,14.64,7.27,22a17.58,17.58,0,0,1,.61,5.21c-.29,3.15-1.62,5.63-2.79,5.63h-1.19c2.43-2.84,2.32-6.72,1.27-10.88-1.71-6.9-5.86-15.2-6.89-22.1Zm-44.9,0c-.73,0-.74.65.41,1.64.7.6.65.4.61.79-.17,1.64.09,3.13.77,1.44.19-.45.46-1,.73-.89.5.15.25,1.07.48,1.54.42.81,0,1-1,.76-.71-.19-.75.2-1.21.69-.78.86-.65,1.37.56,1.1a1.1,1.1,0,0,1,.51,0,4.83,4.83,0,0,1,1.63,1,11.85,11.85,0,0,0,3.84,2.2c1.7.28,1.32-.52-.07-1-1.19-.45-2.67-1.7-2.66-2s.38-.11,2.52-.69a20.86,20.86,0,0,0,2.79-1.07,3.77,3.77,0,0,1,2.38-.37c2.43.08,2.8,0,1.1-1.25-3.44-2.5-8-4.14-10.47-3.1-.74.31-.72.12-1.26-.18a3.68,3.68,0,0,0-1.71-.49Zm49.27.22c2.38,9,6.95,17.14,8.12,25.72a8,8,0,0,1-2.23,6.92h-1.4c-.21,0,2-3.28,1.77-6.08a15.82,15.82,0,0,0-.55-4.69c-2.71-7.63-5.38-14.54-7.45-21.8ZM94.49,57.45h0c.64.11.66.36.48.69-.28.49-.78,1.45-.78,1.45s-.65.12-.79,0c-.24-.32.63-2,1-2.12Zm1.65.29a1.06,1.06,0,0,1,.3.1c.63.23,1.71.73,1.25,1.12s-2.71.67-2.6.47l.71-1.31c.11-.21.18-.31.3-.32Zm-6.58,7.91a.17.17,0,0,0-.14,0c-.13.07.16.57.56,1.12,1.91,2.52-.73,3.27-2.6,2s-4.49-1.22-4.11.2c.14.51,0,.75,1,.76a2.55,2.55,0,0,1,1.89.6c3,2,7-.7,5-3.62a2.52,2.52,0,0,0-1.63-1ZM97,69.55c-1.1,0-1.8.8-.42,1,5,.87,1.62,5.85-1.85,3.3-3.13-2.77-7.31-2.76-7.36-.78,0,.49,0,.5.76.64a27.59,27.59,0,0,1,5.34,1.6,11.2,11.2,0,0,0,1.37.61c2.08.74,4.76-.23,5.29-2S100.25,69.55,97,69.55ZM35.28,85.78a2.48,2.48,0,0,1,1.85,1.4c1.17,1.95,2.57,5.15,3.46,6.92a2.2,2.2,0,0,1,.23,1.07c.07,1,.42,1.43,1,1s1.48-1.23.47-1.35c-1-.75-1.58-1.85-1-2.52.46-.49.28-.81-.1-.83-1.41,0-3.52-4.17-2.53-5.07,1.34-1.2,2.83.29,6,6.46,1.39,2.73,1.46,5.71.26,4.24-.4-.38-.32-.19-.8,1a6.39,6.39,0,0,1-2,2.59,13.29,13.29,0,0,0-2.71,3.09c-.07.51.89,0,1.6-.87,1.58-1.52,1.64-2,1.62.09,0,1.81-.11,2.14.23,2.13.52,0,.79-1.45,1-3.19a4.54,4.54,0,0,1,2.49-3.22c.38-.24.38-.41.31-1.09-.26-2.22,1-6.34,1.61-5.31.08.22.33.76.47,1.14.11.58.48,1.23,1,1.28.7.52.7.8,1,2.7a10.37,10.37,0,0,0,.56,2c.36.92.69,1.47.49,1.74a1.57,1.57,0,0,1-.4.39L40,108.29s-.9.48-1.23.62a1.35,1.35,0,0,1-1.84-.43.91.91,0,0,1-.07-.14A76.35,76.35,0,0,1,31,97.05c-1-2.2,0-3.65,1.31-1.87.52.68.25,1.12,0,2.45,0,.24.19.15.62.22.66-.08,1,.52,1,1.52-.43,1.44.16.66.44.59.53,0,.65.32,1,.92.18.84.55.59,1.11,0s.46-.44-.47-1.53a22.43,22.43,0,0,1-4.33-7.8,2.52,2.52,0,0,1,0-1.49c.71-1.58,1.7-1.59,2.78.62A14,14,0,0,0,35.25,92a3.06,3.06,0,0,1,.66,2c-.31.79-.37.8-.1.92a3.61,3.61,0,0,1,2,2.58c.06,1.11.25,1.7,1.14,1s.58-1-.42-2c-1.05-1.22-1.11-2.28-.49-3.17.11-.29.06-.38-.32-.34a1.69,1.69,0,0,1-1.8-1.58,1.65,1.65,0,0,1,.24-1c.39-.67.35-.85-.21-.87a2.37,2.37,0,0,1-1-.09,5.73,5.73,0,0,1-1.1-2.34C34.15,86.22,34.73,85.78,35.28,85.78Zm72.18.06a23.85,23.85,0,0,0,6.21,3,34.15,34.15,0,0,1-20.55,16.07c.24,1.18.41,2.35,1.57,3.07a12.33,12.33,0,0,1-.41-2.71c9.64-2.42,18.12-11.71,20.29-16.5l42.36-.46c-31.44,29.65-32.69,71.36-7.07,106.3l-3,1.7c-19.75-29.09-19.54-57.11-13.62-75.87a75,75,0,0,1,17.45-29.29s-23-.31-34.39.1a48.21,48.21,0,0,1-5.43,6.9s5.8-5.51,5.65-6.47c10.59,0,21.52-.61,32.1.12-12.39,14.57-18.48,29.61-19.54,43.76,0,1.84-.15.82-.78,1.49l-2,3-1.57-3.1c-1.06-.34-3.16.21-4-.1-4.36,19.11,0,42.17,5.78,57.22a6.31,6.31,0,0,1-3.22.66c-2-.42-2.41.11-4.09.44-1.92.36-2.6.36-3,.84a4.68,4.68,0,0,1-1.17.9c-4.7,1.68-10.22,8-10.22,7.88l-5.18-2.28c4.77-9.21,10.37-12.53,20.22-16.59l-.92-4.11c-10.48,3.83-17.16,8.43-22.42,17.37-6.38-.09-32.24-.27-32.27-.19C74.77,187.21,83.08,169.41,84,155.53c.22-2.7-.16-1.41,1-2.21L87,151.09l1.5,2.2s1.08,1.36,1.76.23c1.93-19.36-.11-41.42-9.59-56.79a8.28,8.28,0,0,1,5,.78c3.71,8.26,5.89,18.46,6.84,26.11a122.26,122.26,0,0,1-.19,29.86l.63.09c1.85-12,1.22-24.86-.47-36.07a90.57,90.57,0,0,0-5.6-19.19c-.54-1.17-1-1.47-.44-1.64,11.55-1,16.87-4.75,21-10.81Zm-32,1a1.57,1.57,0,1,1-1.6,1.57,1.58,1.58,0,0,1,1.6-1.57Zm86.83.8a92.79,92.79,0,0,0-8.94,9.45c8.45,11.43,17.87,23.82,25.73,33.7a21.2,21.2,0,0,0,2.72-1.78c0-.11-.22-.64-.27-.52a14,14,0,0,1-2.21,1.44l-25-32.22,1.77-2.09c1.94-.63,7.34-7.21,7.6-7.07,4.24,3.19,17,16.7,21.92,20.85l.06,37.51c-.51,1.5-14.11,7.29-23.73,28.87-4.84,2.67-10.18,4.09-15.17,6.42a19.07,19.07,0,0,0,1.89,2.5c-.76-1.62-.89-2,.83-2.62l36-14.42-.06,2.93-.59,5c-9.78,5.93-18.05,8.42-31.52,17.37-1,.23-1.73,1.14-2.75,1.18-34.39-49.86-12.42-87.45,7.64-106.31Zm-112,2.55c1,0,.7,2.16.35,2.93-.69.52-1.39,0-1.37-1,0-.32-.06-.63-.15-.68C48.52,91.16,49.39,90.21,50.2,90.22Zm21,1.34a4.32,4.32,0,0,1,1.37,2.15c-1.07-.16-4-1-2.58-1.59ZM66,94.34c24.81,36.91,23.71,76.13-4,105.84h35c4.46-8.66,11.91-13.94,21.4-17.19l.82,2.72c-10.92,3.45-16.45,9.17-20.84,17.09H56.65c16.05-17,23.41-31.34,24.57-50.75,1.1-18.55-3.68-35.39-18.21-55.71Zm6.94.43,5.86,2.71L78,103.35l-6.13-2.78ZM62.45,96.42C93.76,143,80.32,175.75,55.35,203l-4.61.07L40,193.32l.19,59.54s-10.43,10.07-11.66,11.28-2.07-.6-2.07-.6v-79l.46-3.09.15-17L33.74,161l25,32.21a8.87,8.87,0,0,1-1.47,1.71c-.3.17-.08.46.17.43.71-.1,2.71-2.3,2.29-2.66C50.66,181.63,33.79,160,33.79,160l-7,3.63s.2-14.12.08-19.52c.27-1.28,1.24-1,1.9-1.5a52,52,0,0,0,17.31-17.41c.25-.46,1.81-3.17,2-3.41.55-.88,1.91-3.64,2.7-5.39a19.62,19.62,0,0,1,1.09-2.32c4.88-1.55,10-3.76,14.89-5.75l-7-10.39ZM43.28,97a4,4,0,0,0-1.85,1.11c-1.68,1.5-3.89,3.91-3.89,4.43a1.18,1.18,0,0,0,1.2-.45c1.41-2,3.58-2.84,4.85-4.62C43.78,97.15,43.58,97,43.28,97ZM59,99.18s4.86,7,6.1,8.78c-12.8,5-26.19,11.59-38,15.89V121L29,116Zm19,4.6,4.8,2.43-1.35,5.31-4.84-2.66Zm4,8.78,4,2.82-1.85,4.56-4-2.68ZM50,115.86a22.44,22.44,0,0,1-1.63,4c-4.86,8.32-9.63,15.71-19.47,22.12a16.22,16.22,0,0,1-1.44-2.16l-.1-2.47c5.22-4.12,9.72-7.15,16.62-19.24l2-.8,1.7.72L48.79,116Zm20.46,0c-4.53,9.46-9,19.22-16.21,26.59L74,169.6c6.5-19.17,4.08-37.1-3.56-53.69ZM45.53,118l-1,1.61,1.65,1,1-1.62Zm-2.69.16a40.92,40.92,0,0,1-16.05,18.32l-.27-11.56Zm1.26,2.36-.94,1.62,1.64.92,1-1.61Zm40.42.34,3.56,3.33L86,127.85l-3.65-3Zm54.58,1.64h0c-6.26,19.14-4.38,37.43,4.22,53.35a110,110,0,0,1,15.88-28.21c-5-6.51-19.57-25.35-20.09-25.13Zm-96.43.31-1,1.59,1.62,1,1-1.59ZM70,125a51.53,51.53,0,0,1,2.14,35.61l-14.1-17.57a125.2,125.2,0,0,0,12-18Zm-28.79,0-1.07,1.53,1.57,1.06,1.06-1.55Zm-1.52,2.19-1.2,1.45,1.5,1.14,1.16-1.48Zm46.45,1.57,3.17,3-2,3.9-3.24-2.92Zm-48.3.73L36.62,131l1.45,1.2,1.22-1.41Zm103,.42,14.22,18.05a94.82,94.82,0,0,0-12.25,19.21c-4-12.22-5.75-24.21-2-37.26Zm-105,1.83-1.32,1.35,1.37,1.29,1.32-1.35Zm33.24,1.78-6.55,9.28L70,152.26a44.5,44.5,0,0,0-1-18.62Zm-35.33.33-1.4,1.26,1.25,1.33,1.4-1.26Zm-2.05,1.79-1.48,1.19,1.2,1.45,1.47-1.18Zm55.57,1,2.68,3.08L87.22,143l-2.53-2.81Zm34,.56,1.81.07c-3,28.88,2.88,43.49,8.06,56.21,0,0,0,.51-.19.65a4,4,0,0,1-3.92-.58c-6.92-17.63-8.49-39.33-5.77-56.37Zm-92,.37-1.53,1.09,1.11,1.51,1.54-1.09Zm113.8,1c-.47,0-.86,11.89.87,17.69l6.55-8.73Zm-16.93,2,2.18,2.92L126,146.61l-2.37-2.93Zm-98.65.85c.11,0,.29.28.64.51s.28.32-.09.61c-.57.45-.74.37-.73-.33S27.4,141.42,27.49,141.42Zm59.89,2.16L89.81,147l-2.68,3.39-2.29-3.57Zm38.55,4.32,2.55,3-2.18,3.35-2.79-3.19Zm59,.64.23,3.53-.88-1.29L182.67,152l1.13,1.47,1.41-1.08.09,1.42c-9,6.38-12.9,13.67-16.49,19.2l-1.62.68-1.85-.58-.89,1.57-1.57.36a72.44,72.44,0,0,1,8.61-13.58c4.86-6.1,13.43-13,13.45-12.92Zm1.05,5.52.08,12.51L170,172.65c4.17-7,9.09-13.47,16-18.61Zm-4-1.53-1.47,1.18,1.27,1.43,1.46-1.18Zm-2.27,1.89-1.41,1.24,1.29,1.37,1.41-1.25Zm-53.59.69,3,3.17L127,162l-3.14-2.93Zm51.36,1.33-1.33,1.34,1.45,1.36,1.33-1.33Zm-2.09,2.11L174.1,160l1.56,1.27,1.28-1.39Zm-2.16,2.39-1.18,1.46,1.59,1.17,1.19-1.46Zm-46.13,2.24,3.78,2.41L129.08,170l-3.78-2.84Zm44.3,0-1.12,1.52,1.72,1.15,1.12-1.57Zm-1.73,2.37-1,1.57,1.73,1.09,1-1.62Zm-1.53,2.37-.94,1.61,1.78,1,1-1.63Zm-1.38,2.45-1,1.61,2,.85.8-1.55Zm-37.63,1,3.88,2.58-1.72,4.65-4.09-2.85Zm56.2,4.57.19,95.5-42.68.14s-2-3.45-6.17-11.43c-1.77-3.38-3.27-4.81-3.41-7.49a4.32,4.32,0,0,0-1.89-4.07c-.45-.24-1.18,0-.93-.62s-.56-1.87-.79-2.12c-.26-.43-.1-.54-.13-2.13a10.2,10.2,0,0,0-.44-3.34c-.85-2.93-1-4.41-.55-5.93A83.48,83.48,0,0,1,132.84,224c1-2.11.84-2.93-2.19-4.47-2.27-1.15-2.58-1.13-2.29-2.81a3.12,3.12,0,0,0,.09-1.66,3.23,3.23,0,0,0-.69-.74c-.3-.24-.21-.76.09-1.14s.3-.91,0-1.81c-.63-1.87.78-4.36,3.43-6.09,1.17-.76,1.14-.6,2.36.67,3.58,3.69,8.93,1.36,8.93-3.84,0-1.62-.55-1.52,1-2.28,5.28-3.31,16.13-9.33,16.06-9.17a23.36,23.36,0,0,1,1.39,4.16c.38,1.31.33,1.4.18,4-.13,2.3-.19,2.83.36,3,3.13.34,3.84-.75,4.45-2.73.26-.88.75-.71,1.06-.34,1.19,2.13,2.7,4.36,3.69,5.86,1.24,2,3.33,2.93,4.41,2,.24-.75.42-.77,1.8-.47a2.08,2.08,0,0,0,2.67-1.2,1.75,1.75,0,0,0,.12-.55c.07-.49-.28-.47.61-1,2.23-1.62,1.38-3.83,1-5.16a1.94,1.94,0,0,0,1-1.81c.11-6.47-5.59-15.81-5.47-15.62Zm-53.88,3.73L136,181.8,135,187.14l-4.65-2.06Zm44.09,2c2.61,2.93,4.51,7.94,5.48,11.17.48,1.61.54,3.45.11,3.71s-.62,0-.54-1c.07-.8.09-1.42-.26-1.41-1,.26-1.05-1.25-.94-1.6a2.61,2.61,0,0,1,.24-.54c.25-.59-.4-.51-1.08-.51s-.75-.35-.72-.91-.85-.49-1.32,0-.34,1,.25,1.29c.83.51,1.63,1.76,3.59,6.05,1.14,2.5.8,4.27-.56,4.25-.94,0-2-2.57-2.92-4.43-.22-.48.34-1,.55-1.28.52-.67.44-.89-.34-.9s-1,.06-1.46-.82a2.12,2.12,0,0,1-.22-1.16c.37-1-.4-1.2-1.14-.82-1,.38-.93,1.2.5,2.55.91,1.48.68,1.37-.2,2.37-.18.36-.07.58.32.58,1.1-.34,2.3,1.63,2,2.29-.33.29-1.26,1.34-.36,1.13,1.81-.49,3,2.14,1.85,3-1.59.78-2,.54-4.43-4.3-.77-1.5-1.69-3.11-1.8-3.28a2,2,0,0,1-.16-1c.11-.88-.28-1.08-1-.72-.59.13-1.11.6-.37,1,.86,1.45,1.16,1.69.69,2.06-1.07.84-.61.81.59,1a1.55,1.55,0,0,1,1.05.83c.62,1.37,1.72,3.3,1.83,3.7.37,1-.3,1.46-1.19,1.42s-1.37-.71-1.84-1.34c-1.7-2.34-3-4.65-4.68-7.31l.24-2.49a1.38,1.38,0,0,0,.7,0c.51-.23.81-1,1.09-2,.46-.9,3.17-2.93,4.21-4a.77.77,0,0,0,.36-.45c0-.4-1.18-.14-2,.73-1.13,1-1.61.66-1.57-.6-.11-1.56-1.09-.78-1.14.74a3.41,3.41,0,0,1-1.39,2.61c-1.62,1.26-1.35,1-1.28,2.7.13,3.07-1.07,5.6-1.86,3.9-.28-.59-.61-1.26-1.31-1.29-.5,0-.75-.5-1-1.69-.41-2-1-3.17-1.5-4.93Zm-40.14,6.68,5.22,2-1,5.38-5.18-1.95Zm39.82.5h-.12A52.73,52.73,0,0,1,170.7,192a3.57,3.57,0,0,0-1.31,1.49c0,.24.72.24,1.42-.07a25.89,25.89,0,0,0,4.46-4.1c.26-.28.23-.62,0-.6Zm-47.95,6.52c1.23,0,.51.35-2.18,2.19s-6.95,7.47-7.48,9.57c-.22,1,.4,1,1.09-.28,3.19-6,9.24-11.55,14.76-11.31,2.71.12,4.18.84,1.94,1.16-6.15.74-10.75,4.18-14.77,11.06,0,.15.37.15.79-.12,3.68-4.42,7.83-10.29,15.11-9.81,5.26.31,6.75,6.46,2.38,8.56-3.8,1.82-7.3-2.63-4.16-5.27,1-.86,1.67-.48.69.39-2.12,1.88.48,5.24,3.05,4a2.83,2.83,0,0,0,1.28-3.84,2.8,2.8,0,0,0-.47-.67c-3.07-3.69-9.67-.88-14.27,5.1-.49.62-.91,2-.5,1.84a3.52,3.52,0,0,0,1.57-1.46,13.86,13.86,0,0,1,5.13-4.57c1.72-1,1.83-.75,1.18.86A2.32,2.32,0,0,1,131.3,204c-2.8,1.88-4.55,4.4-4.61,6,0,1.17.82,2.7-.12,3-1.61.76-6,.15-7.17-1.34-.85-1.07-1.18-.45-.55,1.29.43,1.15.41,1.79,1,1.67.8-.42,1.36-.32,2.92.52a13.31,13.31,0,0,0,2.89,1c1.48.33,1.79.19,1.76.83a9.55,9.55,0,0,1,0,1.07c-.24,1.9,1.38,2.55,3.57,3.8,1.28.72.78,1.47-.7,5.08-.78,1.64-1.44,3.84-2.39,5.5a9,9,0,0,0-.39,6.24c1.06,4.31,1.83,6.51-.07,6.9-4.89.72-15.69.69-21.59-1.53-1.51-11.13-9.49-27.65-8.47-31.92,2,3,10.62,2.23,8-6.25a18.42,18.42,0,0,1,2.09-2.42c3.6-3.59,4.5-4.19,2.78-1-1.31,2.43-3,5.61-3,6.22s.36.61.67.22a11.33,11.33,0,0,0,.72-1.54c2.15-4.94,5.81-9.39,8.34-10.46.65-.27.61,0,.17.56a37.89,37.89,0,0,0-6.85,11.38.4.4,0,0,0,.78.21h0c2.8-5.75,3.64-7,7.06-11.11,1.35-1.59,2.6-2.39,3.6-2.3s.61.22-.19,1.05a44.57,44.57,0,0,0-3,3.34c-2.58,3.2-5.17,8.4-4.22,8.12.17.43,1-1,1.67-2.26,1.88-3.11,3.89-7.23,8.36-9.94a8.05,8.05,0,0,1,2.87-.6Zm-86.62,1,7.94,7.81,16.08-.19c-2.65,4-1.24,10.31.22,14,2.86,7.18,7,19,6.74,19.21,0,0-2.33.59-2.55,2.05-.31,2.15.65,1.95-.73,3.9a2.11,2.11,0,0,0,.23,1.95,1.8,1.8,0,0,1,0,1.77L54.48,271.61l-26.85.13v-5l13.44-13.38-.16-9.86c7.33,2.14,9.85,9.58,10.48,15.1,13.25-11.89,12.9-29.79.4-41-2.44,11.88-11.18,14.34-11,14.11Zm99.76,1.42a7.73,7.73,0,0,1,2.81.6,6,6,0,0,0-1.27,1.08A7.23,7.23,0,0,0,140.45,197.69Zm22.24.08c.72,0,1.59,2.06,1.09,2.53a1.69,1.69,0,0,1-1.53.17C161.83,200.17,162,197.78,162.69,197.77Zm-25.3,3.57a1.64,1.64,0,1,1-1.66,1.64h0a1.65,1.65,0,0,1,1.66-1.64Zm-70.56,2.33H68c-2.18,2.88-2.48,5.35-1.71,8.93.88,4.05,7.53,19.2,7.94,23.38v.72l-1.63.11-.17-.59c-2.29-7.57-4.56-13.34-6.16-17.74C64.77,213.76,62.34,206.71,66.83,203.67Zm8.78,0H76.8A19.24,19.24,0,0,0,75,209.39a22.21,22.21,0,0,0,1.28,7.71c2,5.67,4.78,12,6.36,19.14,0,.08.19.78.19.78l-1.71-.23s-.17-.73-.19-.84c-1.18-6.23-4.47-12.77-6.46-19a20.77,20.77,0,0,1-1.35-8.92,8.25,8.25,0,0,1,2.51-4.36Zm14,0a13.54,13.54,0,0,0-2.41,6.07c-.07,3.41,1,6.28,2,9.29A168.35,168.35,0,0,1,95.3,240.6l-1.64-.68s-.06-.42-.1-.55c-.89-4.65-.94-4.24-6.11-19.88-1.21-3.76-2.37-7.05-2.14-10.18,0-1.77,1.63-5.31,3.29-5.58Zm2,0H93.1s-.85.88-1.09,1.21c-2.69,3.66-1.92,7.6-.58,12.28,1.84,6.45,5.23,13.67,7,23.5a10.46,10.46,0,0,1,0,1.12l-1.83-.72c-1.66-9-5.76-18.36-7.74-26.46-1.16-4.77-.83-7.81,1.86-10.37a4.48,4.48,0,0,1,.84-.51Zm-18.77,0H74S72,206.78,72,208.6c-.32,3.27.88,6.89,2.27,10.68,2.13,5.86,5,12.87,5.8,16.59,0,.14.15.81.15.81l-2-.1a9.68,9.68,0,0,0-.22-1.31c-2.32-8-4.57-13.13-7.23-20.4a18.53,18.53,0,0,1-.29-8.28,4.33,4.33,0,0,1,2.31-2.93Zm-3.07,0H71l-.67,1.13c-2.26,4-1.25,7.72.16,11.82,1.87,5.46,4.81,12.15,6.64,18.46.1.37.25,1.44.25,1.44h-1.8s-.36-1.29-.38-1.44c-1-5.85-6.45-15.61-7.87-23.05-.8-3.88-.11-6.35,2.43-8.26Zm16.61,0s-2,3.34-2.13,5.21c-.35,3.64.82,6.65,2.17,10.73C88.68,226.7,92,235,92.26,238.83c0,.13.06.59.06.59l-2-.7s-.09-.4-.13-.54a223.65,223.65,0,0,0-6.63-21.48c-.68-2.6-1.59-5.23-1.51-7.46.41-3,.93-3.81,2.74-5.58Zm8.87,0h1.63a8.29,8.29,0,0,0-1.65,1.48c-6.4,5.76,4,22,6.4,36.81,0,.16.1.72.1.72L99.89,242c-.17-.73-.3-1.63-.51-2.44-2-7.56-4.53-15.34-6.94-22.4-1.33-5.14-1.82-9.67.57-12.2a5.83,5.83,0,0,1,2.16-1.36Zm-16.7,0h1.73a10.6,10.6,0,0,0-2,6.07,22.68,22.68,0,0,0,1.46,7.59c1.74,5.33,4.22,11.12,6,18.31.1.48.18.78.22,1s.16.57.26.86l-1.82-.37s-.19-.46-.32-.71a7.69,7.69,0,0,1-.5-1.39c-.88-3.75-4.14-12.27-6.12-18.24-1.57-3.76-2-10.34,1.22-13.16Zm21.59.07a5,5,0,0,1,4.68,3.5,4.16,4.16,0,0,1-2.18,4.94c-3.35,1.67-7-2.76-4.31-5.2,2-1.84,5-.48,4.32,1.89a1.68,1.68,0,0,1-3.19.08c-.1-.51-.36-1-.55-.75-1.23,2.84,2.89,4.17,4.61,1.53a3.19,3.19,0,0,0-1.8-4.18,3.31,3.31,0,0,0-2-.15c-3.91.71-4.36,5.59-2.73,11.28,2.26,9,7.66,21.1,7.65,26.65v.3l-1.71-.5V243c-1-7.76-6.89-20.59-8.57-30.46-.73-4.5,1-7.81,5.06-8.66A2.72,2.72,0,0,1,100.09,203.74Zm-17,.15a10.52,10.52,0,0,0-2,5.65c0,2.49.86,4.88,1.62,7.49,1.89,6.39,6.32,18.19,6.15,20.4a7.91,7.91,0,0,0,.17,1l-1.76-.47a2.57,2.57,0,0,1-.19-.41c-.57-2.18-3.28-11.58-6.32-19.7a21.69,21.69,0,0,1-1.65-8A9.19,9.19,0,0,1,81.61,204Zm32.56,10.59c-4.44.24-4,5.56-1.26,6.46a1.81,1.81,0,0,0,1.72-.18c.15-.17,0-.6-.67-.69-1.87-.6-2.53-2.76-.85-3.67.92-.47,2.39-.16,4.16,1.12,3.16,2.31,7,2.45,6.54.12-.13-.57-.38-.64-2.69-1a8.71,8.71,0,0,1-3.56-1.27,6.85,6.85,0,0,0-3.39-1Zm-63.47,5c11.45,11,9.76,28.23,0,36.87-.21-.7-.64-2.41-.68-2.36,7.34-7.57,10.8-19.87.15-32.56A19.41,19.41,0,0,0,52.23,219.51Zm71.78.29a1.4,1.4,0,0,0-.29,0c-3,.8-3.57,3.69-1.66,4.88,1.18.73,2.09.28.63-.6a1.46,1.46,0,0,1-.41-2.06,1.52,1.52,0,0,1,1.29-.65c.66,0,1.12.29,2.81,1.52,1.4,1,2.71,1.09,3-.28.17-.81-.1-1.18-1-1-.39.1-.62-.12-1.16-.48a6.78,6.78,0,0,0-3.14-1.4Zm-73,2.16c10.32,11.78,7,24.08.05,31.23a21.08,21.08,0,0,0-6.6-9c1.77-3.84,2.82-7.88-.48-13a25.11,25.11,0,0,0,7-9.31Zm67.05,4.25c-.49,0-.33.45.81,1.23,2.72,1.83,3,2.15.32,2.11a8,8,0,0,0-2.31.62c-3.43,1.14-3.6,1-5.25.66-.55-.13-1.1-.35-1.35-.14s-.78.56-.32,1.06a8.05,8.05,0,0,0,1.75,1.07c4,2.25,4.36,2.79,9.06,2.93.54,0,.81-.26,1.13-.27a2.48,2.48,0,0,1,2,.88c1.42,1.27,1.49.34.63-1.32-.44-.88-.82-1.09-.6-1.76.49-1.51-.21-1.82-1.15-.47-.69,1.05-.76,1-1.42-.33-.87-1.69-.46-2.47.86-1.37,1,.84,1.25.22,1.64-.45.51-.87.43-1.65-.48-1.58a1.78,1.78,0,0,1-1.43-.64,7.57,7.57,0,0,0-3.84-2.21Zm1.13,4.58a.22.22,0,0,1,.22.16,6.45,6.45,0,0,1-.69,2.3c-.1.26-.28.29-.53.34-.82.16-.88-.1-.73-.6.3-.78.55-1.88,1.61-2.19Zm-2.09.39c.34,0,.35.11.21.41a7.88,7.88,0,0,1-1,1.37c-.66.42-1.73-.86-1.26-1.2a5.8,5.8,0,0,1,1.86-.56h.16ZM43.19,232a1.24,1.24,0,0,1,.54.11,10.17,10.17,0,0,1,.39,11.15.4.4,0,0,1-.53.17h0a15.48,15.48,0,0,0-2.69-1v-9.71c.84-.14,1.53-.75,2.31-.74Zm65.83.79c-.19,0-.27.14,0,.38,3.64,2.59,8.65,5.59,13.28,4.43.43-.09.76-.32.68-.75,0-.26-.51-.5-1-.36a12.9,12.9,0,0,1-4,.17c-3.18-.51-6-2.51-8.43-3.68a.86.86,0,0,0-.55-.19ZM108,235.28c-.17,0-.15.16,0,.45.51,1.5,5.66,5,9.73,6.16,3.51,1,8.53,0,8.23-1.61-.15-.86-.78-1.06-3-.78-5,1-9.63-1-13.23-3.23a8.14,8.14,0,0,0-1.66-1Zm-32.17,2.05a37.1,37.1,0,0,1,6.57.53A58.27,58.27,0,0,1,96.43,242c7.47,2.75,16.88,4.88,24.82,4.59a37,37,0,0,0,6.13-.33c1.78-.39,2.26,0,2.69,2.14.07.48.22.61.83,1,1,.63.79,1.25.68,2.63-.1,1.17.61,1.83,3.49,7,3.27,5.93,6.45,12.82,6.45,12.82-28.65,0-56-1.06-85.35-.16,2.64-6.15,9.83-17.24,14.33-26.14-1.09-2.74.26-3.2-.31-3.85a2.76,2.76,0,0,1,.94-3.82,2.86,2.86,0,0,1,.74-.32c1.31-.15,2.62-.23,3.94-.25Z" transform="translate(-0.8 -3.48)"/>
    <path class="b" d="M56.57,271.91S66,253.24,69.92,247.65c5.68-7.1,31.38,3.08,44.16,5.63,5.19,1,17.23.52,17.23.52l10.06,17.84ZM37,250.74l-.4-58.12,3,1.81.67,58.38-12.7,12-.07-3.51Zm7.69-6.63c3-6-.35-13.3-.35-13.3,1.76.42,6.64-8.71,7.08-8.44,7.49,9,8.78,22.45-.36,30.82a23.83,23.83,0,0,0-6.37-9.13Zm5.58-41.2C56,197.2,60.51,192.74,65,186.32c.38-.53-24-31-23.62-31.5,3.76-4.09,8.81-7.1,12.73-12,0,0,20,25.73,20.44,25.51,2-8.06,3.5-15.35,3.12-23.76C76.42,123.06,67.09,109.89,67,110.18,63.85,130,32.76,160,26.63,157.8V144c.37.7,19.7-12.23,24.82-29.28.36-1.22,15.36-6,15.26-6.12-.63-1.61-7.2-10.74-7.2-10.74a32,32,0,0,1,3-1.21,82.72,82.72,0,0,1,17,37.08c2.65,14.06,4.37,40.48-24.28,69.31Zm85.91-36.36a76.38,76.38,0,0,1-2.3-37.75c3.15-17.93,14.67-30.76,23.91-40.55h4l-6.54,6.65a101.7,101.7,0,0,0-7.33,10.42l23.91,30.75,13.64-2.93s-.42,13.75,0,13.75c-10.59,8.62-18.21,16.43-23.67,29-3.36,1.22-14.46,5.93-14.46,5.93-5.28-1.27,15.71-33.63,11.72-34.17-1.65-1.33-19.85-25.48-20.21-25.43-8.38,25.27-.2,51.8,14.56,70.33-1.67,1.07-3.19,1.9-3,1.65-6.33-8.62-11.91-18.93-14.2-27.66ZM92.54,153.86c1,1.44,5.2-30.84-6-56.68,1.06-.79,10.29-2.53,10.29-2.53l2.48,7.74L93.07,105l1.16,3.63c4.88-2.34,15.46-5.77,22-16.41,0,0,31.63-.26,32.3-.21s-6.45,6.75-13.19,20.31a60.23,60.23,0,0,0-6,23.6c-.1,1.86-7.24-8.73-7.24-8.73,1.78-9,6.53-17.76,11.28-26.57,0,0-7.28-.41-12.36-.26-7.94,8.49-12.9,13-24.81,17,4.34,13.67,30.91,20.27,25,19-1.2-.29-2.73,12.58-1.46,27.07.25,11.58,6.59,30.9,6.81,30.74,0,0-4.22,1-4.56.28l-6.29,1.57-2.51-7.14,6.77-3.06-1.09-4.06s-14.95,4.44-22.26,17.24H63.88c12.62-13.42,17.76-26.72,20.48-44.31,2.67.48,8.14-.81,8.14-.81ZM172.93,37.7c4.11-3.37,12.36-12.18,12.36-12.18L185.4,30,176,39.61l.09,59.1-3.17-3Zm-4.36,21.72c-1.69.79-5,4.68-6.65,9-10.84-9.53-6.37-27-.44-30.69,1.72,3.83,6.71,8.89,6.59,8.79C166.93,50.64,166.05,54.65,168.57,59.42Zm-96-39.66,83.62.14C151.42,29.16,147,36.61,142,45.76,139.34,48.88,82.22,35.64,82,37Z" transform="translate(-0.8 -3.48)"/>
    <path class="c" d="M190.43,288v-2.71h2.75l6.56-9.76L192.94,260h-2.65v-3h9.86v3h-3.48l5.19,12.05,3.44-4.83-.07-7.22h-2.42v-3h9v3h-3.22l.16,25.25h2.73V288h-8.54v-2.71h2.35l-.23-11.87-7.86,11.87H200V288Zm-31.31-17.57a119.29,119.29,0,0,0-20.58-28.23A154.64,154.64,0,0,0,159,214.82a135.5,135.5,0,0,0,21.43,27.77,126,126,0,0,0-21.31,27.75ZM27.36,260.14l-.57-77.6,9.5,9.08.57,59.6ZM192,238.57a67.65,67.65,0,0,0,9.2-11.93c3.27,4.75,6.73,9.62,9.6,12.05a118.17,118.17,0,0,0-9.29,12.2A70.43,70.43,0,0,0,192,238.57ZM71,245.11c-2,.29-.86-1.5-.5-3.2.2-1-.73-1.85-.72-2.13,0-1.69,1.3-2.4,7.11-2.33,13.72,1,20.85,5.25,28.67,7.26,7.53,1.95,15,1.87,23.3,1.69.61.35,2.84,6,2.42,6.55C112.43,256.6,88.45,243,71,245.14Zm33.88-40.19A12.22,12.22,0,0,0,99.15,203c3.22-5.57,7.13-10.66,13.65-13.84l3,7.38a31.6,31.6,0,0,0-11,8.41ZM65.25,185.74a34,34,0,0,1-5.47,6.73c-7.89-10.41-25.54-32.58-25.54-32.58l-7.45,3.73c0-1.53,0-3.06.14-4.59,20.24-10.25,34.12-29.63,40.24-47.83,0,0,3.25,3.27,2.83,4.66A91.5,91.5,0,0,1,41.41,155.3Zm25.24-21.11H116l1.13,8.73c-9.79,3.23-17.87,9.81-25.41,17.43l-12.12-.21c4-8.56,9.5-17.25,10.85-26Zm94.56-36.8c.84,2.47,0,5.12.32,5C154.77,147.72,146,180.38,146,180.38s-2.91-4.52-2.77-5.22c15.88-34.61,26.43-35.65,28.46-39.41l-24.08-30.66,5.45-7.28,25.8,33.06c2.57-1.16,4-2.13,6.13-3ZM170,172.65c5.19-9.17,10.54-14.5,15.88-18.17l-.26,12.07Zm-143-36.06.13-11.71,15.76-6.68C38.46,127.52,32.55,132.52,26.93,136.59ZM97.14,126l-.93-8.26c9.56-4.11,18-9.59,24.81-17.11,7.33-.34,12.34.15,12.31,0a97.1,97.1,0,0,0-11.61,25.93Zm79.27-86.8,8.7-8.66.28,77.23-8.73-8.18ZM99.87,102.11l-2.76-7.66c4.35-1.6,7.63-5.09,10.7-8.55a15.72,15.72,0,0,0,5.7,2.83C114.78,89,104.69,100.94,99.87,102.11ZM32.51,49.23c9.33-8.95,15.39-18.39,21.25-27.78C58.9,31.78,66.33,40.82,74.3,49.55c-8.22,8.79-14.46,18.19-20.45,27.66C48,67.23,41.75,57.87,32.51,49.23ZM11,64.65A74.39,74.39,0,0,0,1.71,52.3a61.37,61.37,0,0,0,9.2-11.87c3,4.28,5.83,8.78,9.5,12.18A126.8,126.8,0,0,0,11,64.65Zm72.53-20.5s-1.08-.62-1-1.49c.39-1.16-1.17-3.74-1.17-3.74,18.54-5.52,45.54,10,61.53,6.77a12.56,12.56,0,0,1-.39,3.45c.5,2.21.85,2.28-1.33,3.62-11.18,3.16-23.09-3.52-34-6.72C98.25,43.27,90.93,44,83.59,44.09ZM.8,34.43V31.11H4V6.34H.8V3.48H9.53V6.34H7.26l.21,11.92L15.41,6.34H12.3V3.48h9.93V6.34H19.4l-6.3,9.81,6.3,15h2.82v3.32H12.34V31.34H16L10.79,19.63,7.26,24.41v6.83H9.83v3.19Z" transform="translate(-0.8 -3.48)"/>
    <path class="d" d="M71.6,18.67,75,24.94l-.59.4c.92,1.51,1.71,3.21,2.65,4.71l.68-.08c1.11,2.09,1.56,2.87,3,5.35h-.65c.34,1.1,1.21,1.84,1.22,2.64,0,1-.25,1.95.37,2.65s.82,1,.67,1.47a2,2,0,0,0,1.38,2.4,2.09,2.09,0,0,0,.51.08,58.94,58.94,0,0,1,24.62,2.28c6,1.84,11.22,3.9,16.21,5.36a40,40,0,0,0,7.52,1.36c7.6.55,11.91-1,10.58-4.08-.1-.24-.33-.42-.35-.55a1,1,0,0,1,.43-.84c1.25-1.25.56-2.17-.21-3.55l14.63-25.68Zm84.45,1.54L148.93,32.3a3.82,3.82,0,0,0-4.69,2.62c0,.1-.05.2-.07.3-5-1.24-4.18,5.06-1.7,5.49.16.92-4.06,2-6.29-.09,3.42.45,4.63-4,.46-5,5.5-4-4.82-10.05-5-1.72-4.86-.84-4.23,5.46-1.14,6-1.58,1.71-6.22,1.76-8.64-1.85,4.12,2.1,6.35-3.32,2.08-4.88,5.28-4.55-5.07-8.78-4.83-1.39-3.9-2.28-6.58,3.52-1.38,4.41-.28,1-7.1,1-8.84-1.65,4.83,1.08,5.06-4.69.79-5.17,4.28-5.34-6.59-8-4.76-.75-4.2-1.63-5.79,3.51-1.7,5.17.23.82-6.62,1.51-9-1.45,5.26-.77,3.42-5.78,0-5.38,0,0,0-.15.24-.64,1.61-5-7-5.45-5.85-.12.2.49.41,1.15.41,1.15-2.39-.47-3.84.48-3.67,2.68.59,2.93,2.16,2.71,4.17,2.13.84.86-4.85,3.76-8.42,1.17,4.4-1.21,2.23-6.27-1.48-5.58-.15-1.61-1.92-3.91-4.25-2.77L73,20.2Zm7.15,67.15-5.13.07c-3.62,3.62-29.78,27.33-25.35,63.06,1.89,15.3,6.23,28.53,17.86,44.16l3.11-1.79.48.31L186.34,175v-5.52L149,184.85a17.63,17.63,0,0,1-1.8-2.59l15-6.26s.35-.9.47-1.31c5-12.24,14.89-21.1,23.62-27.95,0-12.06-.11-37.3-.11-37.3l-22.49-22a96.36,96.36,0,0,0-8,8.16L181.43,129l-2.29,1.46L153.61,97.2a129.06,129.06,0,0,1,9.59-9.84Zm23,21.75s-.11-57.44-.29-85.17h0L172.45,37.48l.06,58.2ZM185,29.42,175.54,39l.1,59.17-2.43-2.36V38.24L185.05,26ZM92.81,28a1.54,1.54,0,0,1-.29,1.73c-2,2.36,4.15,6.47,8.53,5.75,3.33-.54,6.17-2.51,5-4-1-1.22-.35-2.46.85-2.45s2.22,1,1.16,2.29c-2.38,2.93,1.25,6.39,6.79,6.46,4,0,5.23-.9,5-3.65-.1-1.28.15-1.64,1.06-1.83,1.46-.32,2.19,1.32,1,2.57-2.6,2.71.36,6.67,5.28,6.93,1.81.09,2.16,0,4.17-1.12,1.57-.87,2.12-2.19,1.36-3.21a1.47,1.47,0,0,1,.21-2.09,1.55,1.55,0,0,1,1.68-.16c1.1.47,1.64,1.3.42,2.71-1.61,1.85-.84,3.38,2.25,4.41,2.4.8,4.06.7,5.19-.3.34-.32,1.13-1,1.11-.77-.76,1.28-1.42,2.48-1.42,2.48a7.68,7.68,0,0,1-8.83-2.08c-5.2,2.92-9.79,2.32-13.68-2.63-1,.55-8.24,1.85-13.47-3.79-5.27,2.6-10.16,1.51-14.52-1.39-3.21,3-6.6,3.45-10.12,2l-1.05-2.06c.26-.1,1.4,2.07,6.94,1,1.85-.34,5-3.39,3.26-4.88-.83-1.13-.85-1.65-.12-2.33a1.57,1.57,0,0,1,2.2.18l.12.17Zm-13.5,2.7c.31.59.35,1.57,0,1-.17-.31-1.11-1.69-1.06-1.73C78.69,29.9,79.12,30.34,79.31,30.69ZM185,31.16l.06,76.35L177,99.65l-.35-59.82Zm-93.43,3.7,2.54,1.57H89.58Zm14.28,1.32,2.13,2-4.48-.92Zm40,1-1,2C144.33,38.55,144.16,37.26,145.83,37.23ZM162,69c1.63-3.57,3.79-8.13,7.29-9.58-2.61-5.1-2.27-10.2-.41-13a25.84,25.84,0,0,1-7.06-9.51c-8.37,7.27-9.72,22.2.18,32.09Zm-.25-30.69.58,1.39c-7.46,9-5.16,20.72.24,27l-.75,1.58c-6.62-6.84-9.51-21.3-.07-30Zm-44.59,5.07c8.63,2.5,15.55,6.38,25.53,2.93v2c-6.36,4-19-.22-27.57-3.33A72.78,72.78,0,0,0,83,40.78c-.68-.13-1.21-1.86-.13-1.87C97.26,38.71,94.93,37,117.11,43.36Zm2-3.37,2.83,2.93a47.42,47.42,0,0,1-6.12-2.3Zm43.28.73.56.75c.24.32-1.57.5-1.26.11Zm-48.73,5.41c10.32,3.8,21.67,7.61,29.11,4.2,0,0,.05,1.45-.8,1.86a7.67,7.67,0,0,1-3.41,1c-12,1-19.85-3.9-29.61-6.83a67.48,67.48,0,0,0-15.64-2.67,82.14,82.14,0,0,0-9.15.35c-1.2-.11-1.18-.8-1.19-1.49a61.55,61.55,0,0,1,30.7,3.61Zm49.86-3.65h.39L165,43.8l-1.22,2a10,10,0,0,1-1.66-2c-.32-.63.48-1.28,1.42-1.32Zm-30.37.38,3.26,2.42a18.91,18.91,0,0,1-7.94-.86Zm27.65,1.23c.25,0,.52.26.84.79.61,1,.53,1.22-.65,1.59-1.55.49-1.67.38-1.18-1C160.15,44.56,160.45,44.1,160.78,44.09Zm5,.62L168,46.54c-1.22,3.11-2,7.07.43,12.75-.27,0-1.86,1.56-2.35,1.82C164.63,60.53,161.55,49.28,165.74,44.71Zm-2.51,2.38-.56,3.46c0,.28-2.44-1.64-2.22-2.6C160.88,46.82,162.34,47.06,163.23,47.09Zm-4,1.21c.29,0,.74.7,1.31,1.6.43.71.34,1-.63,1.82-1.42,1.42-1.69,1-1.38-1.44.16-1.2.38-2,.71-2Zm3,3.14a.75.75,0,0,1,.48.14l.16,3.36c0,.3-2.66-.12-3-1.4-.51-.82,1.26-2.12,2.31-2.1Zm-3.54,2.84a4.84,4.84,0,0,1,1.36.69c1,.58,1,.83.16,2-1,1.26-1.5,1.07-1.65-1.13-.09-.86-.15-1.48.1-1.51Zm4,1.28a.35.35,0,0,1,.23.07c.48.4,1.2,3.77.89,4.12-.42.51-2.72-.16-3.22-1s1.2-3.26,2-3.26Zm-2.89,4a3.85,3.85,0,0,1,1.45.5,3.37,3.37,0,0,1,1.31.91c.28.58-.19,1.44-.78,2.14-.4.47-.77.13-1.54-1.44C159.62,60.4,159.37,59.55,159.78,59.52ZM164.4,61h.15c.77.42.64,1.69-.28,2.62-1.1,1.12-2.06.28-1.3-1.14.51-.87,1.08-1.48,1.45-1.48ZM100.14,92.36A3.62,3.62,0,0,0,98,93.57a1.6,1.6,0,0,1-1.73.58,8.52,8.52,0,0,0-3.51.86,5.71,5.71,0,0,1-2.61.56,8.12,8.12,0,0,0-1.9.25,10.93,10.93,0,0,1-1.36.47c-1.14.33-.74.65-.08,2.1a107.17,107.17,0,0,1,6.6,26.23,120.42,120.42,0,0,1-.62,28.77c-3.2,0-5.21-.13-8.57-.09-2.29,18.38-8.53,32.95-21,46.06l33.66.09c3.85-10.13,21.46-17.84,22-17.27l.94,3.69s-12.67,1.78-21.19,17.57c.87-.52,4.05-.16,6.14,1.95a34.93,34.93,0,0,1,11.1-8.55l.23-.63a18.77,18.77,0,0,1,2.37-.63,14.25,14.25,0,0,0,1.57-.36,4.12,4.12,0,0,1,2.27-.44,13.83,13.83,0,0,0,4.75-.47c-7.14-19.38-8.83-36.88-6-57.2,2.63,0,8.4.12,8.4.12a78.89,78.89,0,0,1,3.1-16.82c2.29-6.92,5-13.36,9.5-19.24,2.51-3.7,4.7-6.33,7.3-9.76l-33,.07c-4.35,7.21-12.76,13.23-19.51,15.74-2.29.85-2.62.72-3-.34-.67-1.9-.64-1.82,1.16-2.32.6-.17,2.52-1.16,5.51-2.55,6.37-3.17,10.74-9,13.31-12.91,1-1.56.34-1.21-1.41-1.21s-2.33-.62-3.78-2c-.52-.49-.75-.84-1-.81-1.89,2.66-5,6.16-7.5,7.21Zm7.73-6.14A8.87,8.87,0,0,0,113.42,89c-3.7,5.7-8.21,10.16-13.4,12.87l-2.64-7.3C103.85,91.63,105.58,88.64,107.87,86.22Zm53.71,2.32c-34.85,31.68-32.8,71.64-8.4,104.08l-2.56,1.51c-22.91-30.21-27.06-74.9,7.94-105.74Zm-22,3.9h8.54l-5.81,7.42h-7.8Zm-1.34.06-4.76,7.37L120.7,100A53.85,53.85,0,0,1,96.41,117L94.78,109a39.3,39.3,0,0,0,21.83-16.6Zm-13,.62-3,3.23,3.09,3.08,2.8-3.13ZM132,93l-3,3.07,2.34,3.1,3.12-3Zm-14.87.55-.52,4.88,3.87,1.25.62-4.18Zm23.54.18-2.81,4.32,4.24.06,3-4.29Zm-44.22,1.1,2.81,7.5-2.41,1.14L94.39,95.7Zm-3.24,1.2L96,103.81l-2.37.77-2.57-8.07Zm3.38,30.53c.32,10.74.48,17.24-1.36,26.69-.09.49-2,.05-2,.05.25.08,1.1-10.68,1-17.44a104.13,104.13,0,0,0-7.41-38.41,12,12,0,0,1,3.39-.89c3.25,9.68,6.12,20.09,6.47,30ZM62.38,96.76c11.26,14.64,19.3,34.59,18,54.24-1.29,22.85-10.11,36-25.57,51.85l-4,.09c18.32-17.27,26.42-32.05,27.06-51.55.73-22.45-6.23-37.34-18-53.24Zm-36,20.17v5.35l38.33-16.16-5.53-8Zm89.82-17.49-4.16.21.14,4.14,4.34-.1Zm37.2-.79,24.81,32-6.14,4.49-23.68-30.11ZM134,100.82l7.43.12-2.87,4.69-7.19-.06Zm-1.37.12c-3.42,6.25-8.14,13.38-10.79,24.91H97.35a59.72,59.72,0,0,0-.79-7.9c10.54-3.8,18.71-9.47,24.73-17Zm4.53.33-3.2,1.8,2,2.21,3.51-1.32ZM108,103.57l-1,4.08,4,1.5.74-4.88Zm22.82,3.05,7.14,0-3,5.85-7.06-.1Zm17-.77,23.5,30-2.23,1.7-23-29.28Zm-14.28,1.25-3.21,2.63,2.41,2.74,3-2.32c0-.05-2.2-3.05-2.2-3.05Zm-31.2.21-1,4,4.13,1.08.73-4.26ZM96.62,110l-.83,3.9,3.88,1,.82-3.76Zm-32.11-.41c.21,0-.65,4.66-1.9,5.5-.59.41-.9.32-1.42-.23-.36-.38-2-2.93-2-2.93l1.38-.69c1.67,2.64,1.67,1.36,2.3-.88Zm-6.44,2.71c.54,0,1.21.66,2,1.95,1.08,1.88,1,2-.73,2.54-3.21.83-4.4,1-3.42-1.06s1.48-3.42,2.19-3.43Zm9.54-.37,2.2,3.69q-13.2,33-42.51,47.38l-.05-3.66C50.27,146.41,59.71,131.2,67.61,111.89Zm59.8,1.59,7,.13-1.85,5.2-7.36,0ZM56,113.25C50.31,126.46,42.61,138,27.22,147.71l-.06-3.51C44.45,134,52,114.76,52,114.76Zm87.49,0c4.1.11,8.41,4.5,7.94,8.13-.31,2.55.19,4.45.89,3.4,1.56-2.31,6.16-.78,6.12,2,0,1.49-1,1.73-1.6.4-.85-2-3.24-2-3.59,0s1.33,3.35,5.79,4.94c5.22,1.2,8.37,5.8,6.51,8.46-.64.69-1,.87-1.16.5,0-.1-.16-.65-.28-1.21-.59-2.77-2-3.9-3.58-3-.82.47-.73,1.1-.24,2,.64,1.1.24,1.54-.91,1-1.81-.89-2.4-3-.65-4,2.09-.82,1.38-1-1.29-1.88-5.65-1.9-8.09-5.4-8.38-12,.11-3-.32-4.12-1.77-4.53s-2.83,1.28-1.88,2.15c.52.48,1,.91.67,1.17-.88.84-3.09-.52-3.06-2,0-1,.38-1.15,1.84-2.27.4-.32.06-.9-.54-.91-2.22.7-2.06-2.2-.87-2.29Zm-12.83.77-3.46,2,1.8,2.47,3.83-1.77Zm-67.33,2a.71.71,0,0,1,.72.71h0a.72.72,0,0,1-1.44,0h0A.71.71,0,0,1,63.28,116Zm7.09.31a73.39,73.39,0,0,1,4.06,51.49L54.67,142.51a83.08,83.08,0,0,0,15.79-26.28Zm-26.68,1.15L26.1,124.7l-.1,13c9.89-6.65,14.06-13.41,17.75-20.3Zm16.88-.11c1.73,0,.87,4.55-1.37,6.13-.84.62-1.39.54-1.66-.71a9.67,9.67,0,0,0-1.71-3.11c-1-1.29-1-1.32.48-1.41,1.75,0,3.09-.8,4.37-1Zm-1.72,2c-1.28,0-1.66.56-.9,1.37s1.15.53,1.58-.45C59.79,119.6,59.53,119.28,58.85,119.27ZM27.09,136.11v-11l15.06-6.23a45.46,45.46,0,0,1-14.93,17.21ZM160.8,145l-2,1.95L139.38,122l1.22-3.14ZM54.44,119.77c.65,0,2.13,2.22,2.54,3.82.31,1.18,0,1.44-2.3,1.77-1,.25-3.49,0-3.28-.67A28,28,0,0,1,54.44,119.77Zm70.39.25,7.09.08-1.62,5.7-7.43-.11Zm3.14.35-3.31,2.25,2.61,2.52,3.49-2.12Zm11.11,2.46,19.71,25.09c-5.86,7.34-11.71,15.76-15.56,26.9-7-16.1-9.61-31.76-4.15-51.95ZM59.26,125a.71.71,0,1,1,0,1.42.72.72,0,0,1-.73-.71h0A.72.72,0,0,1,59.26,125Zm-2.27,1c1.23.09.07,3.91-1.77,5.34-1.46,1.11-2.09.59-2.42-1.43a9.93,9.93,0,0,0-1.59-2.93c-.77-1.1-.46-1.27,1.5-.83A18.57,18.57,0,0,0,57,126Zm65.7,1h7.43l-1.1,8.65Zm-72.45.4c1.17,1.07,2.65,4.88,1.89,5.12s-4.88-.15-5.33-.6-.31-.31.35-1.17c.36-.48,1-1.42,1.52-2.1.43-.5.91-1.84,1.57-1.25Zm4.13.13c-1.13,0-1.21.18-.67,1.38.44,1,.74,1.08,1.5.43,1.06-.94.62-1.91-.81-1.86Zm130.48.75.27,4.28c-28.57,13.94-39.28,46.86-39.43,46.86l-2.07-3.8c13.13-31.83,30.57-41,41.25-47.39Zm-134.62,5c1.69,0,2.19-.15,2.18.46a6.28,6.28,0,0,1-3.5,4.93c-1.3.61-1.33.62-1.48-.88a11.18,11.18,0,0,0-1.12-3.91c-.18-.44-.93-1.45,0-1.16a16.21,16.21,0,0,0,3.92.51Zm3.81-.39a.71.71,0,1,1-.72.71h0A.71.71,0,0,1,54,132.82Zm-9.1,1c.3,0,.59.62,1,1.53.76,2,1,3.08.77,3.55-.36.72-5,.26-5.83-.55A45.86,45.86,0,0,1,44.94,133.79Zm3.37.5c-.68.05-.32.45.18,1.6.35.8.81.93,1.35.36.71-.74.81-1.34.36-1.66A4.69,4.69,0,0,0,48.31,134.29Zm136.76,4.33v1.44c-1.12-.32-1.8-.79-3.07-1.21-.78-.26-1.24-.44-.55-1.24a13,13,0,0,1,3.54-2.83v1.62c-2.06.92-1.85,1.76.08,2.22Zm-82.6-1.45h7.94v5.12h6.17l-.47,5.86h-5.7v5.13h-7.94v-5.13H96.83l.46-5.86h5.18Zm17.86,0c-4,19.52-.32,40.17,5.84,57l-3.12.34c-4.8-13.47-8.62-32.66-4.73-57.34,0,0,1.36,0,2,0Zm58.56.38a.71.71,0,0,1,.73.7.72.72,0,0,1-1.44,0h0a.71.71,0,0,1,.72-.7h0ZM40,139.2a15.81,15.81,0,0,1,1.78.53,11.3,11.3,0,0,0,2.89.44c2,0,2.22,0,1.38,1.6a8.7,8.7,0,0,1-3,3.11c-1.36.71-1.88.62-1.8-.69a9.93,9.93,0,0,0-.89-3.55C40,139.79,39.59,139.21,40,139.2Zm8.3.62a.71.71,0,1,1-.71.71A.71.71,0,0,1,48.32,139.82Zm132.83-.09a6.36,6.36,0,0,1,2.38.74c2.32,1.1,2.26,1.36-.88,3.53-2.26,1.7-2.81,1.9-2.89-.78-.08-2.25.17-3.46,1.39-3.49Zm-142.32.64c.92,0,1.94,4.71,1.11,5.13-1.28.65-5.25-.62-5.24-1.69A19.18,19.18,0,0,1,38.83,140.37Zm139.56-.18c.55,0,.63.39.58,1.89a21.79,21.79,0,0,0,.17,2.68c.11,1.25,0,1.34-1,.77a9.48,9.48,0,0,0-3.37-1.06c-1.15-.1-1.24-.57-.88-1.32a6.34,6.34,0,0,1,4.5-2.93Zm-136.15.7c-.81,0-.61.41-.11,1.59.35.83,1,.91,1.58.19.88-1,.71-1.51-.56-1.7A7,7,0,0,0,42.24,140.89ZM177.34,142a2.74,2.74,0,0,0-1,.43c-.75.47-1,.8,0,1.16s1.48.48,1.41-.35c0-.49,0-1.21-.44-1.24Zm-74.1.62v5.1h6.29v-5.1Zm68.48.44a.71.71,0,0,1,.72.7h0a.72.72,0,0,1-1.43,0,.7.7,0,0,1,.68-.7Zm-117.65.8,19.85,25-1.32,3.26L52.16,145.72Zm131.13-.13V147c-2.24,1.61-16.46,11.71-23.82,28.81l-3.86,1.61A70.53,70.53,0,0,1,185.2,143.73ZM34.35,145.12c1.29.39,2.52,1.26,3.74,1.43,1.4.17,1.88.08,1.51.79a8.21,8.21,0,0,1-4.15,3.81c-1.21.39-1.78.24-1.59-.5a12.34,12.34,0,0,0,.37-3.78C34.42,146.19,33.82,145.22,34.35,145.12Zm-1.52.29c.82.69.66,5.06-.26,6-.48.49-1.87,0-4-1.12-1.36-.76-1.62-1.23-.93-1.69,1.18-.69,4.56-3.36,5.18-3.2Zm141.65.1a6.62,6.62,0,0,1,1.6.2c2.47.55,3,1.1.91,2.75a18,18,0,0,0-1.84,1.65c-1.13,1.37-1.92.38-2.17-2.11-.17-1.73.09-2.72,1.5-2.49Zm-3.08.23c.39,0,.65.2.64.7a23.38,23.38,0,0,0,.71,4.08c.44,1.28.12,1.56-1,1a9.92,9.92,0,0,0-4-.64c-1.27.1-1.23-.24-.85-1.28.66-1.87,3.21-3.91,4.42-3.91Zm-135.84.91c-.49,0-.51.63-.18,2.11.11.45.51.43,1.29-.1s.87-1-.16-1.63a2.16,2.16,0,0,0-.93-.38Zm5.61.15a.73.73,0,0,1,.72.72.71.71,0,0,1-.72.7h0a.71.71,0,1,1,0-1.42h0ZM169,149.56a2.31,2.31,0,0,0,1.84.11,2,2,0,0,0-.1-1.89c-.69-.24-2.14,1.25-1.72,1.78Zm-119,2.69c.43,2,3.32,1.95,3-.19-.18-1.23-.22-1.22.4-1.19,3,.15,2.47,4.78-1,4.42-.72.08-.82.38-.21.62a20.47,20.47,0,0,0,3.28.83c3.74,0,9.14,5.65,9,10.67-.09,3.29,1,5.65,2.2,5.92.92.21,2.25-.61,2.14-1.62-.15-1.38,1-1,1.65,0,1,1.39-.3,3.37-2.7,3.22-1,.19.76.84,2.07,1.21,1.19.06.18,1.5,0,1.76-.68.76-2.88.18-4.62-1.19-2.12-1.69-3-3.9-3.28-8.39-.16-2.85-.38-3.43-1.22-2.26-1.52,2.63-5.16,1.35-5.61-1.43-.25-1.47,1.06-2.52,1.49-1.19,1.12,2.76,3.88,2.1,3.43-.65-.3-1.81-2.14-2.81-5.79-3.82-4.37-1.21-5.67-2.69-6.53-6.22-.37-1.56-.31-2.38.53-3.2a12.51,12.51,0,0,1,1-.81s.59,2.37.83,3.47ZM164.6,150a.71.71,0,1,1-.72.71h0A.71.71,0,0,1,164.6,150Zm-137.44.67c1.3.47,2.42,1.15,3.77,1.6.87.29.64,1-.27,1.95a9.22,9.22,0,0,1-3.39,2.39v-2c1.7-.58,2.78-1.95-.07-2.42ZM168,151.78a11.1,11.1,0,0,1,2,.2c2.07.42,2.32.6,1.07,2-.46.52-1.15,1.32-1.53,1.78-1.23,1.68-1.89,1.11-2.46-1.07s-.84-3.14.93-2.95Zm-134.32.81a.72.72,0,1,1-.72.71.71.71,0,0,1,.72-.71Zm132.23,1.52c.2.72.5,1.63.73,2.27,1.12,2.45.41,1.5-1.61,1.29-1.35-.15-3.52.08-4.05-.29-.23-.3,0-1.09.41-2a7.3,7.3,0,0,1,2.56-2.79C166.05,151.68,165.56,152.9,165.9,154.11Zm-121.39-.87,22.65,29.45-1.78,2.49-23.3-30.26Zm141.92.1a56.89,56.89,0,0,0-17.21,19.86l17.26-6.55Zm-22.48,1c-.64.18-1.57,1.36-1.17,1.82a2.22,2.22,0,0,0,1.64.1c.71-.18.24-1.91-.46-1.91ZM64.71,186.17l-4.82,6-25.16-32,6.34-4.5Zm120.47-31.09.18,11-14.76,6.06A60.53,60.53,0,0,1,185.18,155.08Zm-100.94,1,6,7.57L83,163.47Zm74.77.61a.71.71,0,0,1,0,1.42h0a.72.72,0,0,1,0-1.44h0Zm4.33,1.8c2.71,0,3.61.17,2.82,1.48a41.45,41.45,0,0,1-2.81,3.67c-.67.67-1.49-.7-2.18-2.88-.56-1.76-.27-2.2.79-2.22s1.23-.05,1.38-.05Zm-3.12,2.38a14.83,14.83,0,0,0,1.14,2.54,7.51,7.51,0,0,1,.85,1.61c-.07.33-.38.35-1.1.09-1.53-.69-5.16,0-5.26-.3-.53-.75.27-2.81,1.79-4.23a3.77,3.77,0,0,1,1.82-1.15C159.85,159.41,159.92,159.93,160.22,160.85Zm-126.33-.54L59.47,193l-1.78,2.15L31.82,161.78s-4.07,1.95-5.28,2.62l.16,16.9H26l.1,85.58,14.27-14-.18-58.07c3,2.8,5.62,5.79,9.08,8.54h6c15.49-15.5,24-28.77,25.8-52.51,1.24-15.9-4.12-35.89-18.36-55.25l-3.47,2.08,6.87,10.18-14.53,6.23c-5.8,12-12.68,23.11-25.24,29.46l-.07,15.55-.22.33.17,4.88Zm125.05,1.12c-.67,0-1.74,1.49-1.25,1.95a1.59,1.59,0,0,0,1.83-.24,1.3,1.3,0,0,0-.59-1.73Zm-76.29,3.36h7.51l-2,6.34L80.86,171Zm71.35,0a.71.71,0,1,1-.72.71.71.71,0,0,1,.67-.75h0Zm-38.27.2,1,8.23a56.6,56.6,0,0,0-24.78,17c-1.32-.09-11.85.09-11.85.09.26,0,9.75-17.57,10.85-25.23ZM86,165.75l-3.44,2.33,2.69,2.82,3.56-2.38Zm71.69,0a14.89,14.89,0,0,1,2.5.21c1.27.25,1.46.27,1,1.3a18.69,18.69,0,0,1-2.18,4c-1.16.71-3.74-4.38-2.87-5.26a2.87,2.87,0,0,1,1.53-.28Zm-3.29,1.56c.32,0,.77.61.9,1.15a12.07,12.07,0,0,0,2.07,3.16c.94,1,.89,1.15-.44,1.26a16.28,16.28,0,0,0-4,.75c-1.38.49-1.57.38-1.39-1.21.27-2.39,1.88-5,2.89-5.11Zm-1.22,4.95c.17.47,2.32-.39,2.44-1,0-.24-.87-1.68-1.37-1.75-.86.13-1.21,2.05-1.07,2.7Zm-72.45-.32,7.1.07-2.33,5.75h-7Zm3.18.77-3.4,2.12,2.65,2.52,3.23-2.23Zm72.19,1c.61,0,1.24,0,1.38.27.38.61-1.16,4-1.16,4l-2.5,1a15.41,15.41,0,0,1-1.69-3.4c-.09-.52.18-.7.76-1A7.77,7.77,0,0,1,156.05,173.75Zm-6.7.28a.71.71,0,0,1,.72.71.71.71,0,0,1-.72.7h0a.71.71,0,1,1,0-1.42h0Zm-32.37.1s1.53,8.53,1.62,7.58c-11.84,4.39-18.77,10.86-22.06,17.17H74.32l5-7.57,13.16-.11A53.7,53.7,0,0,1,117,174.09Zm-2.85,2L113,179.57l3.31,2.08,1.25-3.7Zm36.39.06c.28,0,.56.44,1.14,1.44.41.73,1,1.81,1,1.81l-1,.36c-.81-2.7-1.54-1.69-1.63.68l-1.36.54a10.14,10.14,0,0,1,.93-3.63c.45-.77.7-1.18.94-1.2ZM78.1,178.51l6.88.09-2.88,5.85-6.94-.19Zm30,.47-.55,4.41,3.71.77.51-4.13ZM81,179l-3.4,2.15,2.23,2.93L83.14,182Zm21.79,3.8-.71,4,3.48.78.79-4Zm-75.59.24,8.7,8.48.48,59.2-8.62,8.58Zm47.35,2.16s7,.2,7,.2l-2.79,5-2.38-.11,3.13-2-2-2.53-3.23,2.07,1.8,2.56-4.71-.1Zm44.9,1.47,2.37,7.68-2.85.49-2.13-7.23a17.12,17.12,0,0,1,2.61-.9Zm-22.32.49v4.6l3.8.32.15-4.33Zm18.86.73,2.16,7.3-1.81.5-2.58-6.92A7.17,7.17,0,0,1,116,187.93Zm-3.3,1.5,2.78,7.15c-3.84,1.53-7.82,4.81-10.82,8.08a11.51,11.51,0,0,0-4.89-2.14,30.57,30.57,0,0,1,12.9-13.09Zm-41.94,1.8,7.3.21L73,198.9H64.75Zm21.73.27L92,195.86,96,198.14l.59-4.48Zm-4.7.62L85,195l3,3.31,2.71-3.45Zm-6.21.14-3.31,3,2.63,3.38,3-3.39Zm-42,2.84.31,57.84L27.79,264.48l-.09-3.12,9.63-9.9q0-29.34-.11-58.68Zm32.26-1.86-3.33,4.47h4l2.87-4.36Zm-20.65,28c-1.32,4.67-7.42,9.76-7.52,9.66,3,4.24,2.91,10.31.25,13.28,0-.06,4.85,3.91,5.53,5.94.38.81.54,1.8,1,2.61.13.22.54.75.54.75,11.81-11.78,6.18-25.57.19-32.21Zm.18,1.22c11.45,14,3.9,26.79-.1,30.36l-.77-1.24c8.52-9.76,5-21.7,0-27.33Zm-1.24,2.73c.07.22.51.88.18.84l-.57-.11ZM50,226.71a.58.58,0,0,1,.56.24c.24.38-1,3.6-1.67,2.84-.22-.42-.49-.79-.69-1.23s-.08-.78.47-1.29A1.94,1.94,0,0,1,50,226.71Zm1.64.87c.58,0,1.4,1.83,1.48,3.11a4.54,4.54,0,0,1-2.48-.9,4.77,4.77,0,0,1,1-2.21ZM47.17,229c3.45,6.83,3.23,12.15.2,17.05l-2.39-2c1.6-3.73,2.4-7.7-.29-12.76Zm2.33,1.71a6.07,6.07,0,0,1,1.63.29c2.31.73,2.39,2.21.17,3.3-.93.45-1.2.26-1.74-2C49.3,231.2,49.1,230.78,49.5,230.75ZM54,233.37c.44,0,.65.82.7,2.24s-.24,1.47-1.35.5S51.9,234.81,53,234A3,3,0,0,1,54,233.37Zm-3.15,2.23a4.21,4.21,0,0,1,1.48.85c1.58,1.18,1.23,2-.57,2.57-1.24.39-1.18.45-1.15-1.67,0-1,0-1.73.24-1.75Zm20.9,2a2.71,2.71,0,0,0-2.26,3.11,2.28,2.28,0,0,0,.17.58c.29.7.73.71.22,1.13-.59.66-.9,2.17-.25,2.73s.94-.3.15,1.12l-14.52,26.2,87.16-.16L131.9,253s.84-3.19-.84-3.57a1.34,1.34,0,0,1-1-1.08,3.21,3.21,0,0,0-1-2.61,60.08,60.08,0,0,1-21.43-.74C99.08,243.08,93,239.8,89,238.77a46.48,46.48,0,0,0-17.3-1.25Zm4.7.19A52.88,52.88,0,0,1,96,242a74.62,74.62,0,0,0,17.18,4.75,71.38,71.38,0,0,0,14.32-.07,1.55,1.55,0,0,1,1.41.39c1,1.05.31,1.71-2.11,1.95a59.23,59.23,0,0,1-12.9-.45,77.34,77.34,0,0,1-20-5.26c-7.68-2.84-14.74-3.78-20.32-2.92-3.07.45-3.52.52-3.51-.29,0-1.58,1.36-2.3,6.32-2.29Zm-22.13,4.55c-.29.66-2.4-1.52-2.37-2.14a12.93,12.93,0,0,1,2.41-1.82c.33-.24.31-.11.32.18a15,15,0,0,1-.36,3.78Zm-3.23-1.62c1,.12,2.56,2.7,1.16,3.1-1.24.35-2.37.58-2.52-.24.63-2,.87-2.81,1.25-2.85Zm56.36,8.78A91.43,91.43,0,0,0,127,250.74c3.05-.3,3.68-.2,3.67,1,0,.78.07.76-3.86.76a81.07,81.07,0,0,1-9.35-.3,65,65,0,0,1-18-3.3c-6.09-1.55-11.36-4.53-17.32-5.15-5.47-.53-10.38.43-11.41,1-.35,0-.53-.5-.51-1a1.37,1.37,0,0,1,.58-1.1c15.66-3.91,24,4.44,36.56,6.74Zm-54.32-5.14c.53,0,.36.77-.49,2.38-.73,1.37-1,1.36-1.42-.05s-.4-1.66.47-1.88c.51-.12,1-.38,1.44-.45Zm-3.65.76c.62,0,1.48,2.74,1,3.25s-1.62.13-2-.35C47.88,247.2,48.63,245.06,49.44,245.07Zm27.38.74a40.94,40.94,0,0,1,7.08.61A25.08,25.08,0,0,0,80,248.07a23.52,23.52,0,0,0-3.19-2.21ZM80,249.12c8.58-4.71,12.21,1.79,13.45,2.84,7.51-1.64,8.93-.83,13.17,3.62,7.51-3.62,11.15-.54,14.29,1.4,3.68-3.38,8.35-3.48,10.78-1.78a14.61,14.61,0,0,1,1.14,1.95c0,.23-.3,0-1.15-.63-4.42-3.1-11.74.76-9.78,4.88.53,1.1.44,1.58-.35,2a1.26,1.26,0,0,1-1.74-.36,1.22,1.22,0,0,1,0-1.4c1.3-2.09.32-3.9-2.85-5.49-4.46-2.3-11.75.27-10.25,3.66,1,1.08.07,1.84-1.2,1.8-1.43,0-1.92-1-1-2,1.15-1.28.86-2.59-.48-4.08-4-5.61-12.12-3.38-11.05,1.54.48,1.22-.87,1.71-2.26,1.17-.89-.34-.76-1.69.22-2.17,1.11-.11,1.27-1.7,1.14-2.72-.2-1.48-2.42-2.93-4.62-3.72a10.2,10.2,0,0,0-4.25-.58,3.51,3.51,0,0,0-3.54,3.47,3.7,3.7,0,0,0,.11.87c.24,1.45-.17,2.92-1.9,2.16-1-.44-.72-1.49.25-2.47,3.42-3.28-3.46-7.26-7.61-4.52a3.14,3.14,0,0,1-1.21.67c2.6-6.37,10.75-.4,10.67-.14Zm11.32-.86,5.19,2a15,15,0,0,0-2.88.89Zm-13.53,2.07c-4.79-.89-5,4.36-1.93,5.22-4.29,5.8,7,8.05,4.88.9,5.69,1,4.67-5.37.43-5.31,1-2.37,8.8-.56,8.47,1.19-5.28.56-3.17,5.29-.89,5.29-5.52,5.15,5.53,9.89,5.23,2.13,4.44.92,5-4.88.7-5.25,1.57-2.16,7.13-.8,8.68,1.68-4.39.56-4.13,4.37-.68,5-4.36,5.46,6.38,7.48,5.26,1.13,3.85,1.3,6-3.75,1-5.19,5.1-3,10.65,1.46,10,1.55-5.83-.33-4.67,5.41-.45,5.09-2.68,6,7.94,6.3,5.26.12,4.78.08,4.35-5.37-.22-5.73,2.88-2.07,6.13-2.25,8.23-.32-4.36,1.13-2.55,6.12,1.83,4.73.41,4.18,3.86,3.29,4,3.16l3.09,5.67L57,271.51l7.08-13A3.37,3.37,0,0,0,68,255.81a3.23,3.23,0,0,0,0-1.16c2.81,2,5.83-2.93,1.72-4.33,3.35-3.45,8.32-.26,8,0ZM50.54,250c-.18.18-.22.28-.5,0-.76-.8,1.23-.87.48,0Zm17.29,2.17c.37.3.12,1.11-.18,1.38-.75.8-1,.74-.34-.63.19-.42.37-.75.52-.75Zm36.64.37,4.35,1-2.08,1.11a25.77,25.77,0,0,0-2.29-2.14Zm13.59,1.72,4.72.3a11.93,11.93,0,0,0-2,1.56,16.08,16.08,0,0,0-2.76-1.86ZM133.81,259a21.12,21.12,0,0,1,1.16,2.51c-1.5.21-1.9-2-1.18-2.51Z" transform="translate(-0.8 -3.48)"/>
  </g>
</svg>
