<svg xmlns="http://www.w3.org/2000/svg" viewBox="0 0 212.6 291.44">
  <defs>
    <style>
      .a {
        fill: #131f67;
      }

      .b {
        fill: #e2cf00;
      }

      .c {
        fill: #d40000;
      }

      .d {
        fill: #100f08;
      }
    </style>
  </defs>
  <title>KD</title>
  <g>
    <path class="a" d="M29.6,25.33c.08,79.13.93,176.37,1,262.55l163.72,0L193.21,25.72ZM78,27c28.25.77,56.67-.06,85.12.16,0,0-10.33,18-13.47,23.68-.68,1.25-.75,2.13-.38,2.64a2.61,2.61,0,0,1-.12,2.94,1.56,1.56,0,0,0-.42.75c0,.2.16.42.31.78.5,1.73-.8,2.93-2.17,3.48a13.05,13.05,0,0,1-4.47.54c-9.44-.44-28-8.42-35.59-9-5.29-1.47-12.14-1-17.78-.64-1.06.07-.88-2.42-.88-2.42C87.26,41.68,81.45,34.54,78,27Zm86.66.75,26.69,0,.12,4.31L180.23,43.61c-1.06,1.08-1.89,2-1.89,2L178.27,56c-7.66-4.11-9.18-9-10.58-14.44-12.8,9.45-13.4,30.11.57,40.75.12-4.62,3.64-13.7,9.88-14.38l.09,36-7.68-7.5-16.68.22c2.75-4.47,2.81-8,1-12.2-3-6.83-7.63-22.43-7.27-22.38a.73.73,0,0,1,.51-.42A2.55,2.55,0,0,0,150,58.37c-.07-.52-.07-.4.28-1.07,1.36-2.31-.26-4.83-.26-4.83ZM76.12,28l10,18.11a6.73,6.73,0,0,0-.08,1.31,4.69,4.69,0,0,0,.71,2A3.94,3.94,0,0,1,87.29,51c.1.9.1.9,1.42,2.09.28.25.33.4.23.66-.44,1.1-.18,3.35.68,6C90.7,63.12,91,63.08,89,67.61c-.42,1-.93,2.21-1.48,3.38-2.5,5.13-2.89,6.52,1.4,9.26a2.37,2.37,0,0,1,1.26,3c-.23,1.21-.28,2,.3,2.66.37.44.71.52.62.86a6.31,6.31,0,0,0-.25,2.08c.25,2.27-2.38,5.62-4.77,6.8-.48.34-.62-.08-.89-.55-2.49-4.35-8.67-2.59-9.08,2.6-.11,1.37-.07,2-.42,2.26a4.83,4.83,0,0,1-.48.3s-9.26,6-15.15,9.12a5.92,5.92,0,0,1-1,.58.72.72,0,0,1-.73-.18c-2.18-4.14-1-9-.79-10.75,0-.61-.57-.72-1.36-.73a4.59,4.59,0,0,0-3.68,2.6c-.36,1.08-.58,1.78-.91,1.77s-.48-.44-1.29-2a21.83,21.83,0,0,0-3.5-5.5c-1.25-1.5-2.32-1.7-3.54-.58-.86.77-.83.1-1.55-.29-1.26-.86-3.14-.09-3.18,1.11,0,1-.05,1.76-1.07,1.83s-1.63,1.54-1.31,3.63c.17,1.1.2,1.27-.13,1.68-1.1,1.31-1.25,2.22-.64,4,1.72,5.24,4.21,8.76,6.56,13.52,0,0-6,3.38-9.49,5.34l-.09-97.37Zm115.72,5.17.14,84.59L179.2,105.18S179,89,179,82.34s.1-13.25.08-14.49.06-6.47.1-11.86c.09-11.27-.94-9.88,1.15-12Zm-25,10.15.7,2c-5.36,3.07-11.91,20.17.12,32.72l-.24,2.59c-12.61-11.44-10.28-27.84-.58-37.35Zm.91,2.41c1.84,3.79,3.93,7.15,6.78,9.21A14.8,14.8,0,0,0,175,68.08c-1.83,1-4.36,3.66-7,9.1C158.49,67.6,160.61,53.69,167.78,45.71ZM97.16,52.88A55.88,55.88,0,0,1,113,55.26c3.17,16.05,8.75,26.84,8.73,33.12a3.91,3.91,0,0,1-1.38-.75C118,86,115,86.9,113.38,89s0,4.78-.77,5.94c-1.48,2.18-5.3,6.19-5.94,6.06-.46-.1-.39-.3,1.25-2.81s3-5,2.45-5.56c-.24-.25-.37.27-1.64,2.48-3,5.18-5.61,8.39-6.65,8-.48-.19-.23-.62,2-3.54,2.49-3.3,3.19-5.36,2.94-6.27-.19-.7-.58.43-1.61,2.45a67.56,67.56,0,0,1-4.72,6.83,4.21,4.21,0,0,1-2,1.69,5.65,5.65,0,0,1-2.19.64c-.3,0-.1-.22.31-.61a37.84,37.84,0,0,0,7.47-10.44c.24-.46-.1-1.12-.5-.64-2.38,4.2-5.69,9.42-9.29,11.73a5.19,5.19,0,0,1-3,.82c-1.77,0-1.14-.44.47-1.48,3.46-2.22,8.3-8.6,9.09-10.85.18-.54,0-.84-.37-.8-2.84,4.54-6.59,9.55-11,11.64-2.35,1.13-5.32,1.35-6.77.64-1.07-.53-.8-.71,1.09-.83,4.57-.45,9.91-4.73,12.56-9.27,1.55-2.51.46-1.93-1.31.49-3,4.13-9,8.09-12.74,7.78s-5.93-3.14-5.44-5.64a4.31,4.31,0,0,1,3.47-3.49c3.6-.76,6,5,2.66,6-1.12.36-1.55.09-1.14-.36,2.44-1.08,1.36-4-.71-4.32A2.56,2.56,0,0,0,78.51,98c0,1.5,1.28,3,3.76,3,2.93,0,7.44-2.08,10.18-6,1.94-3,.15-2-1.3,0a17.21,17.21,0,0,1-5.71,4.12l.14-2c.06.35,6.35-4,6-7.16-.24-2.32.1-3,2.52-3,1.81,0,4.11.66,4.78,1.49s1.46,1.08,1.12-.3c-.55-2.25.11-2.62-1.19-2.2-.9.3-1.7-.42-2.6-1.06a5.84,5.84,0,0,0-3.74-1c-1.12,0-1.62,0-1.44-1.08a3.68,3.68,0,0,0,0-1.91c-.35-.79-1.75-1.61-3.33-2.78-1.87-1.37-1.52-1.45,2.46-10.62,1.67-3.85,1.67-4.64.67-7.48C89.28,55.59,89,53.79,92,53.16A43.78,43.78,0,0,1,97.16,52.88ZM114,55.48l1.54.44s4.81,16.41,7.56,24.43a34.75,34.75,0,0,1,1.63,8.85c-.07,4.27-2.48,7.34-5.41,7.67A5.24,5.24,0,0,1,114,93.72c-.87-2.2-.21-4.79,2.3-5.68,4.34-1.55,7.51,4,3.26,5.69-2.2.88-4.29-.71-3.3-2.56a1.72,1.72,0,0,1,3.11.19c.38,1.42,1,.75.73-.22-.8-3.07-4.76-2.35-5.07.49,0,3.51,3.84,4.33,6.14,2.36,1.77-1.57,2-4.42,1.52-6.9C122,82,119.12,75.3,117.06,67.7c-1-3.79-2.53-8.32-3.06-12.22Zm61.27.18,2.89,1.15-.07,9.52-2.45.85C172.43,62.28,175.1,55.67,175.27,55.66Zm-58.6.62,2.12.82c1.16,6.72,6.63,19.58,8.56,29.17.54,5.77.62,7.46-3.28,10.54v0H122s0-.13.92-.82c5.11-3.82,2.06-12.26.13-18.74-3.37-10.35-6.38-20.93-6.33-20.92ZM96.86,57l-.81,0c-3.2.17-3.73.38-3.74,1.07,0,1.31.52,1.89,3.49,1.57a19.65,19.65,0,0,1,8.87,1.23c2.93,1.26,3.63,1.55,4.68,2.1,2.64,1.36,2.18,0-.21-1.57C104.26,58.17,100.89,56.9,96.86,57Zm23.06.46,2,.76s.52,1.55.71,2.44c1.94,8.59,7.2,18.24,7.82,28.28.14,3.3-.43,6.36-2.84,7.85h-1.82c1.94-1.94,3.24-2.5,2.7-9.22C127.62,78.88,121.92,68.09,119.92,57.41Zm3.53,1.4,1.83.67c2.11,11.6,12.59,28.92,5.92,37.28h-1.67a11,11,0,0,0,1.88-7.48C130.76,78.74,125.39,68.52,123.45,58.81Zm3.07,1.07,2,.6c2.68,11.75,13,31,5.63,36.32l-1.44,0C138.22,86.42,129.83,75.72,126.52,59.88ZM130,61a10.69,10.69,0,0,0,2.14.69c2.07,8.88,5.87,17.62,7.6,25.89.58,4.53-.41,7.92-3.26,9.21h-.61c2.56-3.85,2.08-8.72.71-14C134.71,75.72,131.15,68,130,61Zm-31.1.16a9.18,9.18,0,0,0-2.89.45c-1,.39-.91,1.21,0,1l1.29-.22c2.37-.42,5.29.44,8.82,2.58.86.51,1.79,1,2,1.19.65.48,1.34.48,1.1-.14a10.82,10.82,0,0,0-2.66-2C104,62.49,101.61,61.15,98.86,61.13Zm34.46.77,2,.3c3.74,17.19,11.95,27.87,4.93,34.25h-1.76c1.92-2,2.79-5,2.15-8.67s-2.57-9.59-4.15-14.77c-1.85-6-3.33-11.07-3.16-11.11Zm2.85.48,1.69.31c2,7,5.32,15.65,7.34,22.87,1.24,4.44.74,9.9-2,10.91l-1.42,0c2.35-3.14,2.68-6.41,1.61-10.64C141.15,77.16,137.82,69.59,136.17,62.38Zm10.4,0c1.7,7.24,5.78,18.3,7.25,22.11,2,3.9,1.37,9.67-1.57,12l-1.39,0c1.68-1.57,2.26-4.21,2-7-.75-7.75-6.24-18.49-8.22-26.74Zm-7.39.34,1.74.16c1.74,7.58,5.12,15,7.32,22.52a18.41,18.41,0,0,1,.62,5.34c-.3,3.23-1.64,5.77-2.81,5.77h-1.2c2.45-2.91,2.33-6.88,1.28-11.15-1.73-7.06-5.91-15.57-6.95-22.64Zm-45.24,0c-.73,0-.74.67.42,1.68.7.62.65.41.61.81-.17,1.68.09,3.21.78,1.48.19-.46.46-1,.73-.91.51.15.25,1.09.49,1.57.42.83,0,1-1,.78-.72-.19-.76.21-1.22.71-.79.88-.66,1.4.56,1.13a1,1,0,0,1,.52,0,4.71,4.71,0,0,1,1.64,1,11.79,11.79,0,0,0,3.87,2.25c1.71.29,1.33-.53-.07-1.06-1.2-.46-2.69-1.74-2.68-2.09s.38-.11,2.54-.71a21.32,21.32,0,0,0,2.81-1.09,3.72,3.72,0,0,1,2.4-.38c2.45.08,2.82,0,1.11-1.28-3.47-2.57-8.1-4.25-10.55-3.18-.75.32-.73.12-1.27-.18A3.6,3.6,0,0,0,93.94,62.77Zm49.65.23c2.4,9.27,7,17.56,8.18,26.35a8.26,8.26,0,0,1-2.25,7.09l-1.41,0c-.21,0,2-3.36,1.78-6.23a16.11,16.11,0,0,0-.55-4.81c-2.73-7.81-5.42-14.89-7.51-22.33Zm-43.42,3h0c.65.11.67.37.48.71-.28.5-.78,1.48-.78,1.48s-.66.13-.8,0C98.87,67.84,99.75,66.1,100.17,66Zm1.66.3a.89.89,0,0,1,.31.1c.63.24,1.72.75,1.25,1.15s-2.73.68-2.62.48l.72-1.34C101.64,66.45,101.71,66.35,101.83,66.34Zm-6.63,8.1a.2.2,0,0,0-.14,0c-.13.07.16.58.57,1.15,1.92,2.58-.74,3.35-2.62,2s-4.53-1.25-4.14.2c.14.52,0,.77,1,.78a2.56,2.56,0,0,1,1.91.61c3.06,2.09,7-.71,5.07-3.7a2.53,2.53,0,0,0-1.65-1Zm7.53,4c-1.11,0-1.81.82-.42,1.07,5,.89,1.63,6-1.87,3.38-3.15-2.84-7.36-2.82-7.41-.8,0,.51,0,.52.76.66a27.29,27.29,0,0,1,5.38,1.64,11.05,11.05,0,0,0,1.38.62c2.1.76,4.8-.23,5.33-2,.49-1.62.09-4.57-3.15-4.57ZM40.55,95a2.53,2.53,0,0,1,1.87,1.44c1.17,2,2.58,5.27,3.48,7.09a2.19,2.19,0,0,1,.23,1.09c.07,1.06.43,1.47,1.06,1s1.49-1.26.47-1.39c-1-.76-1.59-1.89-.95-2.58.46-.5.28-.83-.1-.85-1.42,0-3.55-4.27-2.55-5.19,1.35-1.23,2.85.3,6,6.62,1.4,2.79,1.47,5.85.26,4.34-.4-.39-.32-.19-.8,1a6.55,6.55,0,0,1-2,2.66,13.56,13.56,0,0,0-2.73,3.16c-.07.53.9,0,1.62-.89,1.59-1.56,1.65-2,1.63.09,0,1.86-.11,2.2.23,2.19.52,0,.8-1.49,1-3.27a4.63,4.63,0,0,1,2.51-3.3c.38-.25.38-.42.31-1.12-.26-2.27,1-6.49,1.62-5.44.08.23.33.78.47,1.17.11.59.49,1.26,1.06,1.31.71.53.71.82,1,2.77a11.28,11.28,0,0,0,.56,2.1c.37.94.7,1.5.5,1.78s-.41.4-.41.4l-11.6,6.88s-.91.5-1.24.64a1.35,1.35,0,0,1-1.93-.58,78.74,78.74,0,0,1-5.88-11.57c-1-2.25,0-3.74,1.32-1.92.52.7.25,1.15,0,2.51,0,.25.19.16.62.23.67-.08,1,.53,1,1.56-.43,1.47.16.67.44.6.54,0,.66.33,1,.94.18.86.56.61,1.12,0s.46-.45-.47-1.56a23.13,23.13,0,0,1-4.37-8,2.71,2.71,0,0,1,0-1.52c.72-1.62,1.72-1.63,2.81.63a13.81,13.81,0,0,0,.81,1.38,3.2,3.2,0,0,1,.67,2.1c-.32.81-.38.82-.1.94a3.7,3.7,0,0,1,2,2.64c.06,1.14.25,1.74,1.15,1.07s.58-1.08-.42-2.07c-1.06-1.25-1.12-2.34-.5-3.25.11-.3.06-.39-.32-.35a1.72,1.72,0,0,1-1.57-2.61c.39-.69.35-.87-.21-.89a2.48,2.48,0,0,1-1-.09,6,6,0,0,1-1.11-2.4C39.41,95.45,40,95,40.55,95Zm72.73.06a23.62,23.62,0,0,0,6.26,3.11,34.53,34.53,0,0,1-20.71,16.46c.24,1.21.41,2.41,1.58,3.15A13.08,13.08,0,0,1,100,115c9.71-2.48,18.26-12,20.44-16.9l42.68-.47C131.45,128,130.19,170.73,156,206.53l-3,1.74c-19.9-29.8-19.69-58.51-13.73-77.73a77.06,77.06,0,0,1,17.59-30s-23.14-.32-34.65.1a49.82,49.82,0,0,1-5.48,7.07s5.85-5.65,5.7-6.63c10.67,0,21.68-.63,32.34.12-12.48,14.93-18.62,30.34-19.69,44.83,0,1.89-.15.84-.78,1.53l-2,3.05-1.58-3.17c-1.07-.35-3.18.21-4.07-.11-4.39,19.58,0,43.2,5.82,58.62a6.26,6.26,0,0,1-3.24.68c-2-.43-2.43.11-4.12.45-1.94.37-2.62.37-3.05.86a4.76,4.76,0,0,1-1.17.92c-4.74,1.72-10.3,8.18-10.3,8.08l-5.22-2.34c4.81-9.44,10.45-12.84,20.37-17l-.92-4.21c-10.56,3.93-17.29,8.64-22.59,17.8-6.43-.09-32.49-.28-32.52-.2,10.63-12.08,19-30.31,19.93-44.53.22-2.77-.16-1.44,1.06-2.26l1.93-2.29,1.51,2.25s1.09,1.4,1.78.24c1.94-19.83-.11-42.43-9.66-58.18a8.2,8.2,0,0,1,5,.8c3.74,8.46,5.94,18.91,6.9,26.75a127.63,127.63,0,0,1-.2,30.59l.64.09c1.86-12.34,1.23-25.47-.48-36.95a93.89,93.89,0,0,0-5.64-19.66c-.54-1.2-1-1.51-.44-1.68,11.64-1,17-4.87,21.17-11.07ZM81,96.12a1.61,1.61,0,1,1-1.62,1.61A1.61,1.61,0,0,1,81,96.12Zm87.48.82a95.27,95.27,0,0,0-9,9.68c8.51,11.71,18,24.4,25.92,34.53a21.08,21.08,0,0,0,2.74-1.83c0-.11-.22-.65-.27-.53a13.47,13.47,0,0,1-2.23,1.47l-25.17-33,1.79-2.15c1.95-.64,7.39-7.38,7.66-7.24,4.27,3.27,17.13,17.11,22.08,21.36l.06,38.43c-.51,1.54-14.22,7.47-23.91,29.58-4.87,2.73-10.26,4.19-15.28,6.57a19.23,19.23,0,0,0,1.9,2.56c-.76-1.66-.9-2,.84-2.68l36.23-14.77-.06,3-.59,5.15c-9.86,6.08-18.19,8.63-31.76,17.8-1,.23-1.75,1.16-2.77,1.21C122,155,144.14,116.49,164.35,97.16ZM55.58,99.55c1,0,.71,2.21.36,3-.7.54-1.4.06-1.38-1,0-.33-.06-.65-.15-.7C53.89,100.51,54.77,99.54,55.58,99.55Zm21.18,1.37a4.37,4.37,0,0,1,1.38,2.21c-1.07-.17-4-1-2.6-1.63Zm-5.24,2.85c25,37.82,23.89,78-4,108.43l35.31,0c4.49-8.87,12-14.28,21.56-17.61l.83,2.79c-11,3.53-16.58,9.39-21,17.51H62.08c16.18-17.41,23.59-32.11,24.76-52,1.11-19-3.71-36.25-18.35-57.07Zm7,.44,5.9,2.78L83.59,113l-6.18-2.84ZM67.93,105.9c31.54,47.71,18,81.27-7.16,109.2l-4.64.07-10.81-10,.19,61S35,276.49,33.76,277.73s-2.09-.62-2.09-.62l0-80.91.47-3.17.15-17.44L39,172.05l25.19,33a9,9,0,0,1-1.48,1.75c-.3.18-.08.47.17.44.71-.1,2.73-2.35,2.31-2.72-9.14-11.32-26.14-33.49-26.14-33.49L32,174.75s.2-14.47.08-20c.27-1.31,1.25-1,1.91-1.54a52.81,52.81,0,0,0,17.44-17.83c.26-.47,1.83-3.25,2-3.5.55-.9,1.92-3.72,2.72-5.52a18.87,18.87,0,0,1,1.1-2.37c4.91-1.59,10.05-3.86,15-5.9l-7.09-10.64Zm-19.32.61a3.86,3.86,0,0,0-1.86,1.14c-1.69,1.53-3.92,4-3.92,4.53a1.17,1.17,0,0,0,1.21-.46c1.42-2.09,3.6-2.91,4.88-4.73C49.12,106.65,48.91,106.51,48.61,106.51Zm15.88,2.22s4.9,7.13,6.15,9C57.74,122.85,44.25,129.6,32.3,134V131.1L34.19,126Zm19.18,4.71,4.83,2.49-1.36,5.44-4.87-2.72Zm4,9,4,2.89L89.8,130l-4-2.75Zm-32.33,3.38a23.42,23.42,0,0,1-1.64,4.06c-4.9,8.52-9.7,16.09-19.62,22.66a17.82,17.82,0,0,1-1.45-2.22l-.1-2.53c5.26-4.22,9.79-7.32,16.75-19.71l2-.82,1.72.74L54.16,126Zm20.62,0c-4.57,9.69-9.06,19.69-16.34,27.24l19.92,27.81c6.55-19.63,4.12-38-3.58-55ZM50.88,128l-1,1.65,1.66,1,1-1.66Zm-2.71.17A41.7,41.7,0,0,1,32,146.93l-.28-11.84Zm1.27,2.41-.95,1.66,1.65.95,1-1.65Zm40.72.35,3.59,3.41-2.14,3.76-3.68-3.05Zm55,1.68h0c-6.31,19.61-4.41,38.35,4.25,54.66a113.27,113.27,0,0,1,16-28.9C160.33,151.7,145.69,132.4,145.17,132.62ZM48,132.93l-1,1.63,1.63,1,1-1.63Zm27.54,2.29a53.57,53.57,0,0,1,2.16,36.49l-14.21-18A129.09,129.09,0,0,0,75.57,135.22Zm-29,.05-1.08,1.57,1.58,1.09,1.07-1.59ZM45,137.52,43.8,139l1.51,1.17,1.17-1.51Zm46.81,1.61L95,142.19l-2,4-3.27-3Zm-48.67.75-1.24,1.45,1.46,1.23,1.23-1.45Zm103.8.43,14.33,18.49a97,97,0,0,0-12.34,19.68c-4-12.52-5.8-24.81-2-38.17ZM41.11,142.18l-1.33,1.38,1.38,1.32,1.33-1.38ZM74.6,144,68,153.51l7.52,9.6a46.32,46.32,0,0,0-1-19.08ZM39,144.34l-1.41,1.29L38.85,147l1.41-1.3Zm-2.07,1.84-1.49,1.21,1.21,1.49,1.48-1.21Zm56,1,2.7,3.15-2.74,3.24-2.55-2.88Zm34.24.57,1.83.07c-3,29.59,2.9,44.56,8.12,57.59,0,0,0,.52-.19.67a4,4,0,0,1-3.95-.6C126,187.42,124.42,165.19,127.16,147.73Zm-92.67.38-1.55,1.12,1.12,1.55,1.55-1.12Zm114.66,1c-.47,0-.87,12.18.88,18.12l6.6-8.94Zm-17.06,2,2.2,3L132,157.32l-2.39-3ZM32.7,152c.11,0,.29.29.65.53s.28.32-.09.62c-.58.46-.75.38-.74-.34S32.61,152,32.7,152Zm60.35,2.22,2.44,3.49-2.7,3.47-2.3-3.65Zm38.84,4.42,2.57,3.13-2.2,3.43-2.81-3.27Zm59.46.66.23,3.61-.89-1.32-1.63,1.25,1.14,1.51,1.42-1.11.09,1.46c-9.05,6.53-13,14-16.62,19.67l-1.63.69-1.86-.59-.9,1.61-1.58.37a74.74,74.74,0,0,1,8.67-13.92c4.9-6.24,13.54-13.28,13.56-13.23Zm1.05,5.65.08,12.82L176.29,184C180.49,176.84,185.45,170.2,192.4,164.93Zm-4-1.56-1.48,1.21,1.28,1.46,1.47-1.21Zm-2.28,1.93-1.42,1.27L186,168l1.42-1.28Zm-54,.71,3.05,3.25-2.24,3.83-3.17-3Zm51.75,1.36-1.34,1.37,1.46,1.4,1.34-1.36Zm-2.11,2.16L180.42,171,182,172.3l1.29-1.42ZM179.59,172l-1.19,1.5L180,174.7l1.2-1.5Zm-46.48,2.3,3.81,2.47-1.86,4.54-3.81-2.9Zm44.63,0-1.12,1.55,1.73,1.18,1.13-1.61ZM176,176.72l-1,1.61,1.75,1.12,1-1.66Zm-1.54,2.43-.95,1.65,1.8,1,1-1.67Zm-1.39,2.51-1,1.65,2,.87.8-1.58Zm-37.92,1,3.91,2.64-1.73,4.76-4.12-2.92Zm56.63,4.68.19,97.83-43,.15s-2-3.54-6.22-11.71c-1.78-3.46-3.29-4.93-3.44-7.67a4.43,4.43,0,0,0-1.9-4.17c-.45-.25-1.19,0-.94-.64s-.56-1.92-.79-2.17c-.26-.44-.1-.55-.13-2.18a10.85,10.85,0,0,0-.45-3.43c-.85-3-1-4.51-.55-6.07a86.9,86.9,0,0,1,4.3-10.68c1-2.16.85-3-2.21-4.57-2.28-1.18-2.59-1.16-2.3-2.88a3.3,3.3,0,0,0,.09-1.7,3.1,3.1,0,0,0-.7-.76c-.3-.25-.21-.78.09-1.17s.31-.93,0-1.85c-.63-1.92.79-4.47,3.46-6.24,1.18-.78,1.15-.62,2.38.68,3.6,3.78,9,1.4,9-3.93,0-1.66-.56-1.56,1-2.34,5.32-3.39,16.25-9.55,16.18-9.39a23.88,23.88,0,0,1,1.4,4.26c.39,1.34.34,1.44.19,4.05-.13,2.35-.2,2.9.36,3.05,3.15.35,3.87-.77,4.48-2.8.26-.9.76-.72,1.07-.34,1.2,2.18,2.72,4.46,3.72,6,1.25,2,3.35,3,4.44,2,.24-.77.43-.79,1.82-.48a2.09,2.09,0,0,0,2.81-1.8c.07-.5-.29-.48.61-1,2.25-1.66,1.39-3.93,1.05-5.29a2,2,0,0,0,1-1.85c.11-6.63-5.64-16.2-5.51-16Zm-54.29,3.82,4.57,2.21L141,198.84l-4.69-2.11Zm44.43,2c2.63,3,4.54,8.13,5.52,11.44.48,1.65.54,3.53.11,3.8s-.63,0-.55-1c.07-.82.09-1.46-.26-1.45-1,.27-1.06-1.28-.95-1.64a3,3,0,0,1,.25-.55c.25-.6-.41-.52-1.09-.52s-.76-.36-.73-.93-.85-.51-1.33,0-.34,1,.25,1.32c.84.52,1.65,1.8,3.62,6.2,1.15,2.56.81,4.37-.56,4.35-.95,0-2.05-2.63-2.94-4.54-.23-.49.34-1,.55-1.31.52-.69.44-.91-.34-.92s-1,.06-1.47-.84a2.23,2.23,0,0,1-.23-1.19c.38-1-.4-1.23-1.14-.84-1,.39-.94,1.23.5,2.61.92,1.52.68,1.41-.2,2.43-.18.37-.07.59.32.59,1.11-.34,2.32,1.67,2,2.35-.34.3-1.27,1.37-.37,1.16,1.83-.5,3,2.19,1.87,3.1-1.61.8-2,.55-4.47-4.4-.77-1.54-1.7-3.19-1.81-3.36a2.09,2.09,0,0,1-.16-1c.11-.9-.28-1.1-1-.74-.59.14-1.12.62-.37,1.07.86,1.49,1.17,1.73.69,2.11-1.08.86-.61.83.6,1.07a1.56,1.56,0,0,1,1.06.85c.62,1.4,1.73,3.38,1.84,3.79.37,1-.3,1.49-1.2,1.45s-1.38-.73-1.85-1.37c-1.72-2.4-3-4.77-4.72-7.49l.24-2.55a1.41,1.41,0,0,0,.71,0c.51-.24.81-1,1.1-2.09.46-.92,3.19-3,4.24-4.14a.78.78,0,0,0,.36-.46c0-.41-1.19-.14-2,.75-1.14,1-1.63.67-1.59-.62-.11-1.6-1.09-.8-1.14.76a3.52,3.52,0,0,1-1.41,2.67c-1.63,1.3-1.36,1-1.28,2.77.13,3.15-1.08,5.74-1.88,4-.28-.61-.61-1.3-1.32-1.33-.5,0-.75-.51-1-1.73-.41-2-1-3.24-1.51-5.05ZM141.47,200l5.26,2.09-1,5.51-5.22-2Zm40.12.51-.12,0a50.42,50.42,0,0,1-4.47,3.34,3.65,3.65,0,0,0-1.32,1.53c0,.25.72.24,1.43-.07a26.26,26.26,0,0,0,4.49-4.2c.26-.29.23-.64,0-.62Zm-48.31,6.68c1.24,0,.51.36-2.2,2.25s-7,7.65-7.53,9.8c-.23,1,.4,1.06,1.09-.29,3.22-6.18,9.31-11.83,14.88-11.58,2.73.12,4.21.86,1.95,1.18-6.2.76-10.83,4.29-14.88,11.34,0,.15.37.15.79-.13,3.71-4.53,7.89-10.54,15.23-10.05,5.3.32,6.8,6.62,2.4,8.77-3.83,1.87-7.36-2.69-4.19-5.4,1-.88,1.68-.49.69.4-2.13,1.93.48,5.37,3.07,4.06a2.93,2.93,0,0,0,.82-4.62c-3.09-3.78-9.74-.9-14.38,5.22-.49.64-.91,2-.5,1.89a3.58,3.58,0,0,0,1.58-1.5,14.09,14.09,0,0,1,5.17-4.68c1.73-1,1.84-.77,1.19.88a2.31,2.31,0,0,1-1.16,1.36c-2.82,1.93-4.58,4.51-4.65,6.16-.05,1.2.83,2.77-.12,3.09-1.62.77-6,.15-7.22-1.38-.86-1.09-1.19-.46-.55,1.32.43,1.18.41,1.84,1,1.72.81-.43,1.37-.33,2.94.53a13.41,13.41,0,0,0,2.92,1c1.49.34,1.8.2,1.77.85a9.62,9.62,0,0,1,0,1.1c-.24,1.95,1.39,2.61,3.6,3.89,1.29.74.78,1.51-.71,5.21-.78,1.68-1.45,3.93-2.41,5.63a9.33,9.33,0,0,0-.39,6.39c1.07,4.42,1.84,6.67-.07,7.07-4.93.74-15.81.71-21.75-1.57-1.52-11.4-9.57-28.32-8.54-32.7,2.06,3.11,10.7,2.29,8.1-6.4a19.15,19.15,0,0,1,2.11-2.48c3.63-3.68,4.53-4.29,2.8-1.05-1.32,2.49-3,5.74-3,6.37s.36.62.67.22a11.35,11.35,0,0,0,.73-1.57c2.16-5.06,5.85-9.62,8.4-10.72.66-.28.62,0,.17.57A39.16,39.16,0,0,0,116.2,221a.41.41,0,0,0,.79.22c2.82-5.89,3.66-7.23,7.11-11.38,1.36-1.63,2.62-2.45,3.63-2.36s.61.22-.19,1.08a44.27,44.27,0,0,0-3,3.42c-2.6,3.28-5.21,8.6-4.25,8.32.17.44,1-1,1.68-2.32,1.9-3.19,3.92-7.41,8.43-10.18a8,8,0,0,1,2.89-.62ZM46,208.2l8,8L70.2,216c-2.67,4.14-1.24,10.56.23,14.31,2.88,7.36,7.1,19.51,6.79,19.68,0,0-2.35.61-2.57,2.1-.31,2.21.65,2-.74,4a2.21,2.21,0,0,0,.23,2,1.85,1.85,0,0,1,0,1.81L59.9,285.38l-27.06.13v-5.09l13.55-13.71-.17-10.1c7.39,2.2,9.93,9.82,10.56,15.47,13.35-12.18,13-30.52.41-42-2.46,12.17-11.27,14.69-11.07,14.45Zm100.52,1.45a7.66,7.66,0,0,1,2.83.62,5.85,5.85,0,0,0-1.28,1.1,7.41,7.41,0,0,0-1.55-1.72Zm22.41.08c.72,0,1.6,2.11,1.1,2.6a1.74,1.74,0,0,1-1.55.17C168.06,212.19,168.27,209.74,168.93,209.73Zm-25.49,3.66a1.68,1.68,0,1,1-1.68,1.68A1.68,1.68,0,0,1,143.44,213.39Zm-71.1,2.39,1.21,0c-2.2,2.95-2.5,5.48-1.72,9.15.88,4.14,7.58,19.67,8,23.95,0,.19,0,.74,0,.74l-1.65.11-.17-.61c-2.3-7.75-4.59-13.66-6.2-18.17C70.27,226.11,67.82,218.89,72.34,215.78Zm8.85,0h1.2a19.88,19.88,0,0,0-1.86,5.86,23.24,23.24,0,0,0,1.29,7.9c2,5.8,4.82,12.27,6.41,19.6,0,.09.19.8.19.8l-1.72-.23s-.17-.75-.19-.86C85.32,242.46,82,235.76,80,229.41a21.63,21.63,0,0,1-1.36-9.14,8.5,8.5,0,0,1,2.53-4.46Zm14.07,0A14,14,0,0,0,92.83,222c-.07,3.49,1,6.43,2,9.51a176.36,176.36,0,0,1,6.2,22.1l-1.66-.7s-.06-.43-.1-.56c-.89-4.76-.94-4.34-6.15-20.37-1.22-3.85-2.39-7.22-2.16-10.42,0-1.82,1.64-5.44,3.32-5.72Zm2,0h1.55s-.86.9-1.1,1.24c-2.71,3.75-1.93,7.78-.58,12.58,1.85,6.61,5.27,14,7.05,24.07a10.88,10.88,0,0,1,0,1.15l-1.84-.74c-1.68-9.23-5.81-18.81-7.8-27.11-1.17-4.88-.84-8,1.87-10.62A4,4,0,0,1,97.26,215.83Zm-18.91,0h1.16s-1.94,3.18-1.94,5.05c-.32,3.35.89,7.06,2.29,10.94,2.14,6,5,13.18,5.84,17,0,.14.15.83.15.83l-2-.11a11.51,11.51,0,0,0-.22-1.34c-2.34-8.17-4.61-13.45-7.29-20.9a19.31,19.31,0,0,1-.29-8.48,4.42,4.42,0,0,1,2.33-3Zm-3.1,0,1.25,0s-.19.34-.67,1.16c-2.28,4.13-1.26,7.9.16,12.1,1.88,5.6,4.84,12.45,6.69,18.92.1.37.25,1.47.25,1.47l-1.81,0s-.37-1.32-.39-1.47c-1-6-6.5-16-7.93-23.62C72,220.37,72.69,217.84,75.25,215.88Zm16.74,0s-2,3.42-2.15,5.33c-.35,3.73.83,6.82,2.19,11,2.33,7.26,5.63,15.79,5.93,19.69,0,.13.06.6.06.6l-2-.72s-.09-.41-.13-.55c-1.77-7.05-3.86-14.08-6.68-22-.69-2.67-1.6-5.36-1.52-7.65.41-3.07.93-3.9,2.76-5.71Zm8.94,0,1.64,0a8.29,8.29,0,0,0-1.66,1.51c-6.45,5.9,4,22.55,6.44,37.71,0,.17.1.74.1.74l-1.8-.65c-.17-.75-.3-1.67-.51-2.5-2-7.75-4.57-15.72-7-22.95-1.34-5.27-1.83-9.91.58-12.5a5.77,5.77,0,0,1,2.18-1.39Zm-16.83,0,1.74,0a11,11,0,0,0-2.06,6.22,23.55,23.55,0,0,0,1.47,7.77c1.75,5.46,4.25,11.39,6,18.76.1.49.18.8.22,1a7.93,7.93,0,0,0,.27.88l-1.84-.37s-.19-.48-.32-.73a8.06,8.06,0,0,1-.5-1.43c-.89-3.84-4.17-12.57-6.17-18.68-1.58-3.85-2-10.59,1.23-13.48Zm21.75.07a5.06,5.06,0,0,1,4.72,3.58,4.31,4.31,0,0,1-2.2,5.07c-3.37,1.71-7-2.83-4.34-5.33,2-1.89,5-.49,4.35,1.93a1.68,1.68,0,0,1-3.21.09c-.1-.53-.37-1.06-.56-.77-1.24,2.91,2.92,4.27,4.65,1.57a3.29,3.29,0,0,0-3.8-4.44c-3.94.73-4.39,5.73-2.75,11.56,2.28,9.21,7.72,21.61,7.71,27.3,0,.07,0,.3,0,.3l-1.73-.51s0-.1,0-.18c-1-7.95-6.94-21.1-8.63-31.21-.74-4.61,1.06-8,5.1-8.87a2.72,2.72,0,0,1,.69-.09ZM88.77,216a11,11,0,0,0-2,5.79c0,2.55.87,5,1.63,7.67,1.91,6.55,6.37,18.64,6.2,20.9,0,.24.17,1,.17,1L93,250.88a3.21,3.21,0,0,1-.2-.42c-.57-2.24-3.3-11.87-6.36-20.19a22.66,22.66,0,0,1-1.67-8.17,9.49,9.49,0,0,1,2.46-6Zm32.81,10.85c-4.47.25-4,5.7-1.27,6.62,1,.27,1.57,0,1.73-.18s0-.62-.67-.71c-1.88-.62-2.55-2.83-.86-3.76.93-.48,2.41-.17,4.19,1.15,3.19,2.36,7.1,2.51,6.59.12-.13-.58-.38-.66-2.71-1a8.68,8.68,0,0,1-3.58-1.31,6.89,6.89,0,0,0-3.42-1ZM57.63,232c11.54,11.27,9.83,28.93,0,37.78-.21-.72-.64-2.47-.69-2.42C64.34,259.6,67.83,247,57.1,234A20.53,20.53,0,0,0,57.63,232Zm72.32.3a1.35,1.35,0,0,0-.29,0c-3,.82-3.6,3.78-1.67,5,1.19.75,2.11.29.63-.61a1.52,1.52,0,0,1,.89-2.78c.67,0,1.13.3,2.83,1.56,1.41,1,2.73,1.11,3-.29.18-.83-.1-1.21-1-1-.4.1-.63-.13-1.17-.5A6.85,6.85,0,0,0,130,232.25Zm-73.51,2.21c10.4,12.07,7.06,24.67.05,32a21.51,21.51,0,0,0-6.65-9.23c1.78-3.94,2.84-8.07-.48-13.27a25.64,25.64,0,0,0,7.08-9.54ZM124,238.87c-.49,0-.33.46.82,1.26,2.74,1.87,3,2.2.32,2.16a7.83,7.83,0,0,0-2.33.64c-3.46,1.16-3.63,1.06-5.29.67-.55-.13-1.11-.36-1.36-.14s-.79.57-.32,1.08a8.11,8.11,0,0,0,1.76,1.1c4,2.31,4.39,2.86,9.13,3,.54,0,.82-.26,1.14-.27a2.45,2.45,0,0,1,2,.9c1.43,1.3,1.5.35.64-1.36-.44-.9-.83-1.11-.61-1.8.5-1.55-.21-1.86-1.15-.48-.7,1.08-.77,1-1.44-.34-.87-1.73-.46-2.53.87-1.4,1,.86,1.26.22,1.65-.46.52-.89.44-1.69-.48-1.62a1.76,1.76,0,0,1-1.44-.66,7.66,7.66,0,0,0-3.87-2.26Zm1.14,4.69a.22.22,0,0,1,.22.16,6.67,6.67,0,0,1-.7,2.36c-.1.27-.28.3-.53.35-.83.16-.89-.1-.74-.62.31-.79.56-1.92,1.63-2.24Zm-2.11.4c.34,0,.35.11.21.42a8.06,8.06,0,0,1-1,1.4c-.67.43-1.75-.88-1.27-1.23a5.85,5.85,0,0,1,1.87-.57l.16,0Zm-74.51.86a1.38,1.38,0,0,1,.55.11,10.6,10.6,0,0,1,.39,11.43.4.4,0,0,1-.54.17,15,15,0,0,0-2.71-1v-9.95C47.06,245.44,47.76,244.81,48.54,244.82Zm66.33.81c-.19,0-.27.14,0,.39,3.67,2.65,8.72,5.73,13.38,4.54.43-.09.77-.33.69-.77,0-.27-.52-.51-1-.37a13.09,13.09,0,0,1-4,.18c-3.21-.53-6-2.58-8.5-3.78A.87.87,0,0,0,114.87,245.63Zm-1.07,2.53c-.17,0-.15.16,0,.46.52,1.54,5.71,5.13,9.81,6.31,3.53,1,8.59,0,8.29-1.65-.15-.88-.79-1.08-3-.8-5,1-9.71-1.06-13.33-3.31a9.06,9.06,0,0,0-1.68-1Zm-32.41,2.1a37.15,37.15,0,0,1,6.62.54A58.74,58.74,0,0,1,102.17,255c7.52,2.82,17,5,25,4.71a36.83,36.83,0,0,0,6.18-.34c1.79-.4,2.28,0,2.71,2.19.07.49.22.63.84,1.05,1,.64.79,1.28.68,2.69-.1,1.2.62,1.87,3.52,7.21,3.29,6.08,6.5,13.14,6.5,13.14-28.87,0-56.42-1.09-86-.17,2.66-6.3,9.9-17.66,14.44-26.78-1.1-2.8.26-3.28-.31-3.94a2.85,2.85,0,0,1,1.69-4.24A38.37,38.37,0,0,1,81.39,250.26Z" transform="translate(-5.81 -10.69)"/>
    <path class="b" d="M62,285.69s9.46-19.13,13.45-24.86c5.73-7.27,31.62,3.16,44.5,5.77,5.23,1,17.36.53,17.36.53l10.14,18.28ZM42.31,264l-.4-59.54,3,1.85.68,59.81-12.8,12.26-.07-3.59Zm7.75-6.79c3-6.14-.35-13.63-.35-13.63,1.77.43,6.69-8.92,7.13-8.65,7.55,9.25,8.85,23-.36,31.58A24.26,24.26,0,0,0,50.06,257.16ZM55.69,215c5.73-5.85,10.28-10.42,14.82-17,.38-.54-24.18-31.73-23.8-32.27,3.79-4.19,8.87-7.27,12.82-12.32,0,0,20.14,26.36,20.6,26.13,2-8.25,3.53-15.72,3.14-24.34C82,133.2,72.6,119.7,72.53,120c-3.19,20.27-34.52,51-40.69,48.79l0-14.17c.37.71,19.85-12.53,25-30,.37-1.25,15.48-6.09,15.38-6.27-.64-1.65-7.25-11-7.25-11a30.54,30.54,0,0,1,3-1.24A85.38,85.38,0,0,1,85.12,144.1c2.67,14.4,4.4,41.47-24.47,71Zm86.56-37.25a79.38,79.38,0,0,1-2.32-38.67c3.17-18.37,14.78-31.52,24.09-41.55h4l-6.59,6.82a103,103,0,0,0-7.38,10.67l24.09,31.5,13.74-3s-.42,14.09,0,14.09c-10.67,8.83-18.35,16.83-23.85,29.7-3.38,1.25-14.57,6.07-14.57,6.07-5.32-1.3,15.83-34.45,11.81-35-1.66-1.37-20-26.11-20.36-26.06-8.45,25.89-.2,53.07,14.67,72.06-1.69,1.09-3.22,1.94-3.08,1.69-6.37-8.84-12-19.4-14.3-28.34Zm-44-13c1,1.47,5.24-31.6-6-58.07,1.07-.81,10.37-2.59,10.37-2.59l2.5,7.93-6.34,2.68,1.17,3.72c4.92-2.39,15.58-5.91,22.14-16.81,0,0,31.86-.27,32.54-.21s-6.5,6.91-13.29,20.8a62.78,62.78,0,0,0-6.08,24.18c-.1,1.91-7.29-8.94-7.29-8.94,1.79-9.17,6.58-18.2,11.36-27.22,0,0-7.33-.42-12.45-.27-8,8.7-13,13.29-25,17.44,4.38,14,31.15,20.76,25.19,19.48-1.21-.29-2.75,12.89-1.47,27.73.25,11.87,6.64,31.66,6.86,31.5,0,0-4.25,1-4.59.28l-6.34,1.61L119,200.68l6.82-3.14-1.1-4.16s-15.06,4.55-22.42,17.66l-32.93,0C82.08,197.3,87.26,183.67,90,165.65c2.69.49,8.21-.83,8.21-.83Zm81-119c4.14-3.46,12.45-12.48,12.45-12.48l.11,4.62-9.43,9.81.09,60.55-3.19-3.06ZM174.85,68c-1.7.81-5.08,4.79-6.7,9.26-10.92-9.76-6.42-27.7-.44-31.44,1.73,3.92,6.76,9.11,6.64,9C173.2,59,172.31,63.11,174.85,68ZM78.12,27.37l84.26.14C157.57,37,153.16,44.63,148.06,54c-2.66,3.2-60.21-10.36-60.48-9Z" transform="translate(-5.81 -10.69)"/>
    <path class="c" d="M196.88,302.12v-2.78h2.77l6.61-10-6.85-15.83h-2.67v-3.12h9.93v3.12h-3.5l5.22,12.34,3.47-4.95-.07-7.39h-2.44v-3.12h9.06v3.12h-3.24l.16,25.86h2.75v2.78h-8.61v-2.78h2.37l-.23-12.16-7.92,12.16h2.8v2.78Zm-31.55-18a122,122,0,0,0-20.74-28.92,157.73,157.73,0,0,0,20.62-28c5.94,10,12.47,19.36,21.59,28.45A129.06,129.06,0,0,0,165.33,284.08ZM32.57,273.63,32,194.13l9.57,9.3.57,61.06Zm165.92-22.1a69.23,69.23,0,0,0,9.27-12.22c3.29,4.87,6.78,9.85,9.67,12.34a122.56,122.56,0,0,0-9.36,12.5A71.94,71.94,0,0,0,198.49,251.53Zm-122,6.7c-2,.3-.86-1.54-.5-3.28.2-1-.74-1.89-.73-2.18,0-1.73,1.31-2.46,7.17-2.39,13.82,1,21,5.38,28.88,7.44,7.59,2,15.11,1.92,23.48,1.73.62.36,2.86,6.14,2.44,6.71-18.94,3.74-43.11-10.17-60.74-8Zm34.14-41.17a12.13,12.13,0,0,0-5.72-2c3.24-5.71,7.18-10.92,13.75-14.18l3.06,7.56A31.93,31.93,0,0,0,110.66,217.06ZM70.75,197.41s-2.83,4.64-5.51,6.89c-7.95-10.66-25.74-33.37-25.74-33.37L32,174.75a45.7,45.7,0,0,1,.14-4.7c20.39-10.51,34.38-30.36,40.54-49,0,0,3.28,3.35,2.85,4.77-5.51,14.67-14.94,29.37-28.8,40.4Zm25.43-21.63,25.74,0,1.14,8.95c-9.86,3.3-18,10.05-25.6,17.85l-12.21-.21c4-8.77,9.57-17.67,10.93-26.62Zm95.28-37.7c.84,2.53,0,5.25.32,5.13-30.83,15.25-39.64,48.71-39.64,48.71s-2.93-4.63-2.79-5.35c16-35.46,26.63-36.52,28.68-40.37l-24.27-31.41,5.49-7.46,26,33.87c2.59-1.19,4.06-2.19,6.18-3.12ZM176.26,184c5.23-9.4,10.62-14.86,16-18.62L192,177.75ZM32.14,147.06l.13-12,15.88-6.84C43.76,137.76,37.8,142.89,32.14,147.06Zm70.74-10.82-.94-8.46c9.64-4.21,18.16-9.83,25-17.53,7.39-.35,12.44.15,12.4,0a100.4,100.4,0,0,0-11.69,26.56Zm79.87-88.93,8.77-8.87.28,79.12L183,109.18Zm-77.12,64.42-2.78-7.84c4.38-1.64,7.69-5.22,10.78-8.76a16,16,0,0,0,5.74,2.9c1.28.3-8.88,12.5-13.74,13.7ZM37.76,57.56c9.4-9.17,15.51-18.84,21.41-28.46,5.18,10.58,12.67,19.84,20.7,28.79-8.28,9-14.57,18.63-20.61,28.33C53.32,76,47.07,66.41,37.76,57.56ZM16.1,73.36A76.85,76.85,0,0,0,6.73,60.7,62.73,62.73,0,0,0,16,48.54c3,4.39,5.87,9,9.57,12.48A128.6,128.6,0,0,0,16.1,73.36Zm73.08-21s-1.09-.64-1-1.53C88.57,49.64,87,47,87,47c18.68-5.66,45.89,10.29,62,6.93a13,13,0,0,1-.4,3.54c.51,2.26.86,2.33-1.34,3.71C136,64.41,124,57.57,113,54.29c-9-2.84-16.38-2.12-23.77-2ZM5.81,42.4V39H9V13.62H5.81V10.69h8.8v2.93H12.32l.21,12.21,8-12.21H17.4l0-2.93h10v2.93H24.55L18.2,23.67,24.55,39h2.84V42.4H17.44V39.23l3.73,0-5.29-12-3.56,4.9v7h2.59V42.4Z" transform="translate(-5.81 -10.69)"/>
    <path class="d" d="M77.15,26.25l3.42,6.43-.59.4c.93,1.55,1.72,3.29,2.67,4.83l.68-.08c1.12,2.14,1.58,2.94,3,5.48h-.66c.34,1.13,1.22,1.88,1.23,2.7,0,1-.25,2,.37,2.72s.83,1,.68,1.5a2,2,0,0,0,1.9,2.54,58.48,58.48,0,0,1,24.81,2.34c6,1.89,11.3,4,16.33,5.49A40.34,40.34,0,0,0,138.57,62c7.66.56,12-1,10.66-4.18-.1-.25-.33-.44-.35-.57s0-.5.43-.86c1.26-1.28.56-2.22-.21-3.64,0,0,9.83-17.55,14.74-26.3Zm85.09,1.58-7.18,12.38a3.84,3.84,0,0,0-4.79,3c-5-1.27-4.21,5.18-1.72,5.62.17.94-4.09,2.1-6.33-.09,3.44.46,4.66-4.1.46-5.11,5.54-4.13-4.86-10.3-5-1.77-4.89-.86-4.26,5.6-1.15,6.11-1.59,1.75-6.26,1.8-8.7-1.89,4.15,2.15,6.4-3.41,2.09-5,5.32-4.67-5.1-9-4.86-1.43-3.93-2.33-6.63,3.61-1.39,4.52-.29,1.07-7.16,1.07-8.91-1.69,4.87,1.11,5.1-4.81.8-5.3,4.31-5.47-6.64-8.24-4.8-.77-4.23-1.67-5.83,3.6-1.71,5.3.23.84-6.67,1.55-9.08-1.48,5.3-.79,3.44-5.93,0-5.52,0,0,.05-.15.24-.65,1.62-5.16-7.1-5.59-5.89-.12.2.5.41,1.17.41,1.17-2.41-.48-3.87.49-3.7,2.75.6,3,2.18,2.77,4.2,2.18.85.88-4.88,3.85-8.48,1.2C91.18,40,89,34.82,85.26,35.52c-.15-1.65-1.94-4-4.28-2.83l-2.47-4.87Zm7.2,68.79-5.17.07c-3.64,3.71-30,28-25.54,64.61,1.9,15.67,6.28,29.22,18,45.24l3.13-1.84.48.32,32.42-18.65,0-5.66L155.11,196.5a18,18,0,0,1-1.81-2.66l15.08-6.41s.36-.92.48-1.34c5-12.54,15-21.62,23.8-28.64,0-12.35-.11-38.21-.11-38.21L169.88,96.66a101,101,0,0,0-8.07,8.36l26,34.27-2.31,1.5L159.78,106.7A130.35,130.35,0,0,1,169.44,96.62Zm23.13,22.28s-.12-58.84-.3-87.25h0L178.76,45.52l.06,59.63Zm-1.15-81.64-9.54,9.84.1,60.62-2.45-2.42v-59l11.93-12.5ZM98.52,35.8a1.6,1.6,0,0,1-.29,1.77c-2,2.42,4.18,6.63,8.59,5.89,3.36-.55,6.22-2.57,5-4.1-1-1.25-.35-2.52.85-2.51s2.24,1,1.17,2.35c-2.4,3,1.26,6.55,6.84,6.62,4,0,5.27-.92,5.06-3.74-.1-1.31.15-1.68,1.07-1.88,1.47-.32,2.21,1.36,1,2.64-2.62,2.77.36,6.83,5.32,7.1,1.82.09,2.17,0,4.2-1.15,1.58-.89,2.14-2.24,1.37-3.29a1.52,1.52,0,0,1,1.9-2.3c1.11.48,1.66,1.33.43,2.77-1.62,1.9-.85,3.47,2.26,4.52,2.42.82,4.1.72,5.23-.31.35-.32,1.14-1,1.12-.79-.76,1.32-1.43,2.54-1.43,2.54a7.64,7.64,0,0,1-8.9-2.13c-5.23,3-9.86,2.38-13.78-2.69-1,.56-8.3,1.89-13.57-3.88-5.31,2.66-10.24,1.54-14.63-1.43-3.24,3.06-6.65,3.54-10.2,2.07l-1.06-2.11c.27-.1,1.41,2.12,7,1.08,1.86-.35,5.07-3.48,3.28-5-.83-1.16-.85-1.69-.12-2.39a1.57,1.57,0,0,1,2.34.36Zm-13.6,2.77c.31.6.35,1.6,0,1-.18-.32-1.12-1.73-1.07-1.77C84.29,37.76,84.72,38.21,84.92,38.57Zm106.51.48.06,78.22-8.13-8.06L183,47.93ZM97.29,42.84l2.56,1.61-4.59,0Zm14.39,1.35,2.14,2.08-4.51-.94Zm40.26,1.08-1,2C150.43,46.62,150.26,45.3,151.94,45.27Zm16.24,32.52c1.64-3.66,3.82-8.33,7.35-9.81-2.63-5.23-2.29-10.45-.42-13.32A26.55,26.55,0,0,1,168,44.92C159.57,52.37,158.21,67.66,168.18,77.79Zm-.25-31.44.58,1.43C161,57,163.32,69,168.76,75.48L168,77.1C161.33,70.09,158.42,55.27,167.93,46.35ZM123,51.55c8.7,2.56,15.67,6.53,25.73,3l0,2c-6.41,4.11-19.16-.23-27.78-3.42a72.3,72.3,0,0,0-32.33-4.23c-.68-.13-1.22-1.9-.13-1.91C103,46.78,100.65,45,123,51.55Zm2-3.46,2.85,3a46.31,46.31,0,0,1-6.17-2.35Zm43.61.75.56.77c.24.33-1.58.51-1.27.11Zm-49.1,5.54c10.39,3.9,21.83,7.8,29.33,4.31,0,0,.05,1.48-.81,1.9a7.73,7.73,0,0,1-3.44,1c-12.14,1-20-4-29.83-7A67.25,67.25,0,0,0,99,51.85a83,83,0,0,0-9.22.36c-1.21-.11-1.19-.82-1.2-1.53A61.22,61.22,0,0,1,119.52,54.38Zm50.23-3.74a2.69,2.69,0,0,1,.4,0L171.22,52,170,54a10.15,10.15,0,0,1-1.68-2C168,51.35,168.81,50.69,169.75,50.64Zm-30.6.39,3.29,2.48a18.64,18.64,0,0,1-8-.88ZM167,52.29c.26,0,.53.27.85.81.61,1,.53,1.25-.66,1.63-1.56.5-1.68.39-1.18-1C166.37,52.77,166.67,52.3,167,52.29Zm5,.64,2.23,1.87c-1.23,3.19-2,7.25.43,13.07-.27,0-1.87,1.59-2.37,1.86C170.88,69.14,167.78,57.61,172,52.93Zm-2.53,2.44-.56,3.54c0,.29-2.46-1.68-2.24-2.66C167.1,55.09,168.57,55.34,169.47,55.37Zm-4,1.24c.29,0,.75.71,1.32,1.64.43.72.34,1-.63,1.86-1.43,1.45-1.71,1-1.39-1.48C164.93,57.41,165.15,56.61,165.48,56.61Zm3,3.21a.75.75,0,0,1,.49.15l.16,3.44c0,.31-2.68-.12-3-1.44C165.6,61.13,167.39,59.8,168.44,59.82Zm-3.56,2.91a5,5,0,0,1,1.37.71c1,.59,1,.85.16,2-1,1.29-1.51,1.09-1.66-1.16C164.69,63.4,164.63,62.76,164.88,62.73Zm4,1.31a.36.36,0,0,1,.23.08c.48.41,1.21,3.86.9,4.22-.43.52-2.74-.17-3.25-1S168,64,168.84,64ZM166,68.1a4,4,0,0,1,1.46.51,3.47,3.47,0,0,1,1.32.94c.28.59-.19,1.47-.79,2.19-.4.48-.78.13-1.55-1.48C165.83,69,165.58,68.13,166,68.1Zm4.65,1.55a.25.25,0,0,1,.15,0c.78.43.65,1.73-.28,2.68-1.11,1.15-2.08.29-1.31-1.17C169.72,70.27,170.3,69.65,170.67,69.65ZM105.9,101.74a3.63,3.63,0,0,0-2.2,1.24,1.61,1.61,0,0,1-1.75.6,8.41,8.41,0,0,0-3.53.88,5.76,5.76,0,0,1-2.63.57,8,8,0,0,0-1.92.26,10.31,10.31,0,0,1-1.37.48c-1.15.34-.74.67-.08,2.15a111.31,111.31,0,0,1,6.65,26.87,125.65,125.65,0,0,1-.62,29.48c-3.23,0-5.25-.14-8.64-.09C87.5,183,81.22,197.93,68.67,211.36l33.92.09c3.88-10.37,21.62-18.27,22.2-17.69l.94,3.78s-12.76,1.83-21.35,18c.88-.53,4.08-.16,6.19,2a35.18,35.18,0,0,1,11.18-8.76l.23-.64a19.77,19.77,0,0,1,2.39-.65,12.91,12.91,0,0,0,1.58-.37,4.12,4.12,0,0,1,2.29-.45,13.8,13.8,0,0,0,4.79-.48c-7.2-19.86-8.9-37.78-6.09-58.6,2.65,0,8.47.12,8.47.12a82,82,0,0,1,3.12-17.23c2.31-7.09,5.09-13.69,9.57-19.71,2.53-3.79,4.74-6.48,7.36-10l-33.21.07c-4.39,7.39-12.86,13.56-19.66,16.13-2.31.87-2.64.74-3-.35-.68-1.95-.65-1.86,1.16-2.38.61-.17,2.54-1.19,5.56-2.61,6.41-3.25,10.82-9.21,13.41-13.23,1-1.59.34-1.23-1.42-1.24s-2.35-.63-3.81-2c-.53-.5-.76-.86-1-.83-1.9,2.72-5.08,6.31-7.56,7.38Zm7.79-6.29a8.85,8.85,0,0,0,5.59,2.84c-3.72,5.84-8.27,10.41-13.5,13.19L103.12,104C109.64,101,111.38,97.93,113.69,95.45Zm54.12,2.38c-35.12,32.46-33.05,73.39-8.46,106.63L156.77,206c-23.09-30.94-27.27-76.73,8-108.32Zm-22.14,4,8.61,0-5.86,7.6-7.86,0Zm-1.35.06-4.79,7.55-12.91.17a54.33,54.33,0,0,1-24.48,17.34l-1.64-8.13a39.68,39.68,0,0,0,22-17Zm-13.12.63-3,3.31,3.11,3.16,2.83-3.21Zm6.78-.08-3,3.15,2.36,3.17,3.14-3.08ZM123,103l-.52,5,3.9,1.28L127,105Zm23.72.19-2.83,4.42,4.27.07,3-4.4Zm-44.55,1.13L105,112l-2.43,1.17-2.46-8Zm-3.27,1.23,2.85,7.92-2.39.79L96.77,106Zm3.41,31.27c.32,11,.48,17.66-1.37,27.34-.09.51-2.07.06-2.07.06.25.08,1.11-10.94,1-17.87A108.32,108.32,0,0,0,92.4,107a12.19,12.19,0,0,1,3.42-.91c3.27,9.91,6.16,20.58,6.52,30.69ZM67.86,106.25c11.34,15,19.44,35.44,18.09,55.57-1.3,23.41-10.18,36.91-25.76,53.12l-4,.09c18.46-17.69,26.62-32.83,27.26-52.81.74-23-6.27-38.25-18.09-54.54ZM31.61,126.92l0,5.48,38.62-16.56-5.57-8.21ZM122.12,109l-4.2.21.14,4.24,4.38-.1Zm37.48-.81,25,32.82-6.19,4.6-23.86-30.84ZM140,110.41l7.49.12-2.9,4.81-7.24-.06Zm-1.38.12c-3.45,6.41-8.2,13.71-10.87,25.52l-24.66,0a61.54,61.54,0,0,0-.79-8.09c10.62-3.89,18.85-9.7,24.91-17.38Zm4.56.34-3.22,1.85,2,2.26,3.54-1.35Zm-29.36,2.36-1.06,4.18,4,1.54.74-5Zm23,3.12,7.19.05-3,6-7.12-.11Zm17.11-.79,23.68,30.7L175.37,148l-23.14-30Zm-14.38,1.28-3.24,2.7,2.43,2.81,3-2.38C141.78,119.92,139.53,116.84,139.53,116.84Zm-31.44.22-1,4.07,4.16,1.1.74-4.36Zm-5.75,2.71-.84,4,3.91,1,.83-3.85ZM70,119.36c.21,0-.65,4.77-1.91,5.63-.6.42-.91.33-1.43-.24-.36-.39-2-3-2-3l1.39-.7c1.69,2.7,1.69,1.39,2.32-.91Zm-6.49,2.77c.55,0,1.22.68,2,2,1.09,1.92,1,2-.74,2.6-3.23.85-4.43,1.06-3.44-1.08S62.82,122.14,63.53,122.13Zm9.62-.38,2.21,3.78q-13.29,33.85-42.83,48.54l-.05-3.75c23.2-13.2,32.71-28.79,40.67-48.57Zm60.25,1.63,7,.13-1.86,5.33-7.42-.05Zm-72-.23c-5.68,13.53-13.44,25.33-28.95,35.3l-.06-3.6c17.42-10.49,25-30.16,25-30.16Zm88.15,0c4.13.11,8.48,4.61,8,8.32-.31,2.62.19,4.56.9,3.49,1.57-2.37,6.21-.8,6.17,2,0,1.52-1,1.77-1.62.4-.85-2-3.26-2.07-3.61.05s1.34,3.43,5.83,5.06c5.26,1.23,8.43,5.94,6.56,8.66-.65.71-1,.89-1.17.52,0-.11-.16-.67-.28-1.24-.6-2.84-2-4-3.61-3.06-.83.49-.73,1.13-.24,2,.64,1.13.24,1.58-.92,1-1.82-.92-2.42-3.08-.65-4.08,2.1-.84,1.39-1-1.3-1.93-5.7-1.95-8.15-5.53-8.45-12.34.11-3.11-.32-4.22-1.78-4.64s-2.85,1.31-1.89,2.2c.52.49,1,.93.67,1.2-.89.86-3.11-.54-3.08-2,0-1,.38-1.18,1.85-2.33.41-.32.06-.92-.54-.93-2.24.72-2.08-2.25-.88-2.34Zm-12.93.78-3.48,2,1.81,2.53,3.86-1.81Zm-67.84,2a.73.73,0,0,1,.73.73.73.73,0,0,1-.73.72.72.72,0,0,1-.72-.72.73.73,0,0,1,.72-.73Zm7.15.32A76.35,76.35,0,0,1,80,179L60.09,153.12A85.44,85.44,0,0,0,76,126.2Zm-26.88,1.18-17.73,7.45-.1,13.29C41.17,141.36,45.37,134.44,49.09,127.38Zm17-.12c1.75-.05.88,4.67-1.38,6.28-.84.64-1.4.56-1.67-.72a10,10,0,0,0-1.72-3.19c-1-1.32-1-1.35.48-1.44C63.5,128.21,64.85,127.42,66.14,127.26Zm-1.73,2c-1.29,0-1.67.58-.91,1.41s1.16.54,1.6-.46c.26-.61,0-.94-.69-.95Zm-32,17.25,0-11.29,15.17-6.38A46.31,46.31,0,0,1,32.43,146.52Zm134.72,9.11-2,2-19.58-25.52,1.23-3.22ZM59.86,129.82c.65,0,2.14,2.28,2.56,3.92.31,1.21,0,1.47-2.32,1.81-1,.26-3.52,0-3.31-.68A28.57,28.57,0,0,1,59.86,129.82Zm70.92.26,7.14.08L136.29,136l-7.48-.11Zm3.16.36-3.33,2.3,2.63,2.59,3.52-2.18Zm11.2,2.52L165,158.66c-5.91,7.52-11.8,16.15-15.68,27.56C142.22,169.73,139.64,153.68,145.14,133Zm-80.43,2.18a.73.73,0,1,1-.73.73A.73.73,0,0,1,64.71,135.14Zm-2.28,1c1.24.09.07,4-1.79,5.47-1.47,1.13-2.1.6-2.44-1.47a10,10,0,0,0-1.6-3c-.77-1.13-.46-1.3,1.51-.85a18.78,18.78,0,0,0,4.32-.13Zm66.19,1,7.49,0L135,146Zm-73,.41c1.18,1.1,2.67,5,1.91,5.24s-4.92-.15-5.37-.61-.31-.32.35-1.2c.36-.49,1-1.45,1.53-2.15.44-.51.92-1.89,1.58-1.28Zm4.17.13c-1.14,0-1.22.19-.68,1.42.44,1,.75,1.1,1.51.44C61.69,138.57,61.25,137.58,59.81,137.63Zm131.47.77.27,4.39c-28.79,14.28-39.58,48-39.73,48l-2.09-3.89C162.94,154.34,180.51,144.91,191.28,138.4ZM55.61,143.59c1.71,0,2.21-.15,2.2.48a6.45,6.45,0,0,1-3.53,5.05c-1.31.62-1.34.63-1.49-.91a11.73,11.73,0,0,0-1.12-4c-.19-.45-.94-1.49,0-1.19a16.29,16.29,0,0,0,3.94.52Zm3.84-.4a.73.73,0,0,1,.73.73.73.73,0,0,1-.73.72.72.72,0,0,1-.72-.72A.73.73,0,0,1,59.45,143.19Zm-9.17,1c.31,0,.6.63,1,1.57.77,2.05,1,3.15.78,3.63-.36.74-5.08.27-5.88-.56A47.79,47.79,0,0,1,50.28,144.19Zm3.4.51c-.68.05-.32.46.18,1.64.35.82.82.95,1.36.37.72-.76.82-1.37.36-1.7A4.63,4.63,0,0,0,53.68,144.7Zm137.8,4.44,0,1.47c-1.13-.33-1.82-.81-3.1-1.24-.78-.26-1.25-.45-.55-1.27a13.2,13.2,0,0,1,3.57-2.9v1.66C189.32,147.8,189.53,148.66,191.48,149.14Zm-83.23-1.49h8v5.25h6.22l-.48,6h-5.74v5.25h-8v-5.25h-5.68l.46-6h5.22Zm18,0c-4,20-.33,41.15,5.88,58.42l-3.14.34c-4.84-13.8-8.69-33.46-4.77-58.74C124.19,147.68,125.59,147.65,126.22,147.66Zm59,.39a.73.73,0,1,1-.72.73A.72.72,0,0,1,185.26,148.05ZM45.33,149.73a16.41,16.41,0,0,1,1.79.54,11.09,11.09,0,0,0,2.91.45c2,0,2.24,0,1.39,1.64a8.82,8.82,0,0,1-3,3.19c-1.37.73-1.89.63-1.81-.71a10.36,10.36,0,0,0-.9-3.63C45.34,150.33,44.89,149.74,45.33,149.73Zm8.36.64a.73.73,0,0,1,.73.72.73.73,0,0,1-.73.73.73.73,0,0,1-.72-.73A.72.72,0,0,1,53.69,150.37Zm133.84-.1a6.44,6.44,0,0,1,2.4.76c2.33,1.13,2.27,1.39-.89,3.62-2.28,1.74-2.83,1.94-2.91-.8C186.05,151.54,186.3,150.3,187.53,150.27Zm-143.4.66c.93,0,1.95,4.82,1.12,5.25-1.29.67-5.29-.63-5.28-1.73A19.16,19.16,0,0,1,44.13,150.93Zm140.62-.19c.55,0,.63.4.58,1.94a24.87,24.87,0,0,0,.17,2.75c.11,1.28,0,1.37-1,.79a9.14,9.14,0,0,0-3.39-1.09c-1.16-.1-1.25-.58-.89-1.35a6.38,6.38,0,0,1,4.54-3Zm-137.19.72c-.81,0-.61.42-.11,1.63.36.85,1,.93,1.6.2.88-1,.71-1.55-.57-1.75a8.6,8.6,0,0,0-.92-.08Zm136.13,1.14a2.79,2.79,0,0,0-1,.44c-.75.48-1.06.82,0,1.19s1.49.49,1.42-.36c0-.5,0-1.24-.44-1.27Zm-74.66.63v5.23h6.33v-5.23Zm69,.45a.72.72,0,0,1,.72.72.72.72,0,1,1-1.44,0A.72.72,0,0,1,178,153.68Zm-118.55.82,20,25.64-1.33,3.34L57.56,156.41Zm132.13-.13,0,3.36c-2.26,1.65-16.59,12-24,29.52l-3.89,1.65C169.23,173.85,180.92,161,191.61,154.37Zm-152,1.42c1.3.4,2.54,1.3,3.77,1.47,1.41.17,1.9.08,1.52.81a8.29,8.29,0,0,1-4.18,3.9c-1.22.4-1.79.25-1.6-.51a12.79,12.79,0,0,0,.37-3.87c.19-.7-.41-1.69.12-1.8Zm-1.53.3c.83.71.67,5.19-.26,6.16-.48.5-1.88,0-4-1.15-1.37-.78-1.63-1.26-.94-1.73C34.07,158.66,37.48,155.93,38.1,156.09Zm142.73.1a6.63,6.63,0,0,1,1.61.21c2.49.56,3.05,1.13.92,2.82a17.05,17.05,0,0,0-1.86,1.69c-1.14,1.4-1.93.39-2.18-2.16-.18-1.78.09-2.79,1.51-2.56Zm-3.11.24c.4,0,.66.21.65.72a24.38,24.38,0,0,0,.71,4.18c.45,1.31.12,1.6-1,1a9.89,9.89,0,0,0-4-.65c-1.28.1-1.24-.25-.86-1.32.66-1.91,3.23-4,4.45-4Zm-136.87.93c-.49,0-.51.65-.18,2.16.11.47.52.44,1.3-.1s.88-1-.16-1.67A2.1,2.1,0,0,0,40.85,157.36Zm5.66.16a.73.73,0,0,1,.72.73.72.72,0,0,1-.72.72.73.73,0,0,1-.73-.72A.73.73,0,0,1,46.51,157.52Zm128.84,2.82a2.29,2.29,0,0,0,1.85.12,2.09,2.09,0,0,0-.1-1.94C176.38,158.27,174.92,159.8,175.35,160.34ZM55.44,163.1c.44,2.07,3.35,2,3-.2-.19-1.26-.23-1.24.4-1.21,3,.15,2.49,4.89-1,4.52-.72.09-.82.39-.21.64a20.38,20.38,0,0,0,3.3.85c3.77,0,9.21,5.79,9.08,10.93-.09,3.37,1,5.79,2.22,6.07.93.21,2.27-.63,2.16-1.66-.16-1.42,1-1,1.66,0,1,1.42-.3,3.45-2.72,3.29-1,.2.76.86,2.08,1.24,1.2.07.19,1.54,0,1.81-.68.78-2.9.18-4.65-1.22-2.14-1.73-3.06-4-3.31-8.6-.16-2.92-.38-3.51-1.23-2.31-1.53,2.69-5.19,1.38-5.65-1.47-.25-1.5,1.07-2.58,1.5-1.22,1.13,2.83,3.91,2.15,3.46-.66-.3-1.86-2.16-2.88-5.83-3.92-4.41-1.24-5.72-2.75-6.58-6.37-.38-1.6-.32-2.44.53-3.28a12,12,0,0,1,1-.83s.59,2.43.83,3.56Zm115.41-2.3a.73.73,0,0,1,.73.73.73.73,0,0,1-.73.72.72.72,0,0,1-.72-.72.73.73,0,0,1,.72-.73Zm-138.48.69c1.31.48,2.44,1.18,3.8,1.64.88.3.64,1-.27,2a9.28,9.28,0,0,1-3.42,2.45v-2c1.71-.6,2.8-2-.07-2.48Zm141.9,1.13a10.78,10.78,0,0,1,2,.2c2.09.43,2.34.62,1.08,2.09-.46.54-1.16,1.36-1.54,1.83-1.24,1.72-1.9,1.13-2.48-1.1S172.48,162.42,174.27,162.62Zm-135.34.83a.73.73,0,0,1,.73.73.73.73,0,1,1-.73-.73ZM172.16,165c.2.74.51,1.67.74,2.33,1.13,2.51.41,1.54-1.62,1.32-1.37-.15-3.55.08-4.09-.3-.23-.3,0-1.11.42-2a7.36,7.36,0,0,1,2.58-2.86C172.31,162.52,171.82,163.77,172.16,165Zm-122.31-.89,22.82,30.17-1.79,2.55-23.48-31Zm143,.11a58,58,0,0,0-17.34,20.34l17.39-6.71Zm-22.65,1c-.65.18-1.58,1.39-1.18,1.86a2.17,2.17,0,0,0,1.65.11C171.39,167,170.91,165.23,170.21,165.23Zm-100,32.63L65.35,204,40,171.23l6.39-4.61ZM191.59,166l.18,11.26-14.87,6.21C181.88,175.07,186.76,169.87,191.59,166ZM89.88,167l6,7.76-7.28-.17Zm75.34.63a.73.73,0,0,1,.72.73.72.72,0,0,1-.72.72.73.73,0,0,1-.73-.72A.73.73,0,0,1,165.22,167.61Zm4.36,1.84c2.73,0,3.64.18,2.84,1.52-1,1.31-1.68,2.55-2.83,3.76-.67.68-1.5-.72-2.19-2.95-.57-1.81-.28-2.26.79-2.28s1.24-.05,1.39-.05Zm-3.14,2.44a15.53,15.53,0,0,0,1.15,2.6,7.85,7.85,0,0,1,.85,1.65c-.07.34-.38.36-1.1.09-1.55-.7-5.2,0-5.3-.3-.54-.77.27-2.88,1.8-4.34a3.88,3.88,0,0,1,1.83-1.18c.4,0,.47.54.77,1.48Zm-127.29-.55L64.92,204.8,63.13,207,37.07,172.86s-4.11,2-5.32,2.69l.16,17.31-.7,0,.1,87.67,14.38-14.34-.18-59.49c3.05,2.87,5.66,5.93,9.15,8.75l6,0c15.61-15.88,24.16-29.47,26-53.8,1.25-16.28-4.15-36.76-18.5-56.6l-3.5,2.13,6.92,10.43L56.94,124c-5.84,12.31-12.77,23.67-25.43,30.18l-.07,15.93-.22.33.17,5Zm126,1.14c-.68.05-1.75,1.53-1.26,2a1.58,1.58,0,0,0,1.84-.24A1.34,1.34,0,0,0,165.14,172.48Zm-76.87,3.45,7.57,0-2,6.49-7.37-.14Zm71.89,0a.73.73,0,0,1,.73.72.73.73,0,0,1-.73.73.73.73,0,0,1-.72-.73A.72.72,0,0,1,160.16,175.9Zm-38.56.2,1,8.43A57.08,57.08,0,0,0,97.64,202c-1.33-.09-11.94.09-11.94.09.26,0,9.83-18,10.93-25.85Zm-30,.78-3.47,2.39,2.71,2.89,3.59-2.44Zm72.23,0a14.72,14.72,0,0,1,2.52.22c1.28.25,1.47.27,1,1.33a20.06,20.06,0,0,1-2.2,4.13c-1.17.72-3.77-4.49-2.89-5.39a2.8,2.8,0,0,1,1.54-.29Zm-3.32,1.6c.33,0,.78.62.91,1.18a12.16,12.16,0,0,0,2.09,3.23c.94,1,.89,1.18-.45,1.29A16.73,16.73,0,0,0,159,185c-1.39.5-1.58.39-1.4-1.24.27-2.45,1.9-5.14,2.91-5.23Zm-1.22,5.07c.17.48,2.33-.4,2.45-1,0-.25-.87-1.73-1.38-1.8-.86.14-1.22,2.1-1.07,2.77Zm-73-.33,7.15.07-2.35,5.89-7.07,0Zm3.2.79-3.43,2.17,2.67,2.58L92,186.53Zm72.74,1.07c.61,0,1.25,0,1.39.27.38.63-1.17,4.12-1.17,4.12l-2.52,1a15.57,15.57,0,0,1-1.7-3.48c-.09-.53.18-.72.76-1.05a7.59,7.59,0,0,1,3.24-.86Zm-6.75.28a.73.73,0,0,1,.72.73.72.72,0,0,1-.72.72.73.73,0,0,1-.73-.72A.73.73,0,0,1,155.48,185.4Zm-32.62.1s1.54,8.74,1.63,7.77c-11.93,4.5-18.91,11.13-22.22,17.59H79.89l5-7.75L98.14,203a54.21,54.21,0,0,1,24.72-17.53ZM120,187.56l-1.1,3.53,3.34,2.13,1.26-3.79Zm36.67.07c.28,0,.56.45,1.14,1.47.42.75,1,1.85,1,1.85l-1,.37c-.81-2.76-1.55-1.73-1.64.7l-1.37.55a10.49,10.49,0,0,1,.94-3.72c.45-.78.7-1.2.95-1.22ZM83.7,190l6.93.09-2.9,6-7-.2Zm30.25.48L113.4,195l3.74.79.51-4.23Zm-27.3.06-3.43,2.21,2.25,3,3.3-2.22Zm21.95,3.9-.71,4.11,3.5.79.8-4.13Zm-76.16.24,8.77,8.69.48,60.65L33,272.81Zm47.71,2.22c0,.05,7,.2,7,.2l-2.81,5.08-2.4-.11L85.1,200l-2-2.59-3.25,2.12,1.81,2.62-4.74-.1Zm45.24,1.5,2.39,7.87-2.87.5-2.15-7.4A16.81,16.81,0,0,1,125.39,198.44Zm-22.49.5,0,4.72,3.83.32.15-4.43Zm19,.75,2.18,7.48-1.82.51-2.6-7.09a7.22,7.22,0,0,1,2.24-.9Zm-3.32,1.54,2.8,7.32c-3.87,1.57-7.88,4.93-10.9,8.28a11.54,11.54,0,0,0-4.93-2.19,31.1,31.1,0,0,1,13-13.41Zm-42.26,1.84,7.36.22-5.12,7.64H70.24Zm21.9.28-.48,4.47,3.94,2.33.6-4.59Zm-4.74.63-2.8,3,3,3.39,2.73-3.54Zm-6.26.15-3.33,3.05,2.65,3.46,3-3.47ZM44.85,207l.32,59.25L33,278.07l-.09-3.19,9.71-10.14q0-30.06-.11-60.12Zm32.51-1.91L74,209.67h4l2.9-4.46ZM56.55,233.74c-1.33,4.78-7.47,10-7.58,9.89,3,4.35,2.94,10.56.26,13.61,0-.06,4.88,4,5.57,6.08.38.83.54,1.85,1,2.68.13.22.54.77.54.77,11.9-12.07,6.23-26.2.19-33Zm.18,1.25c11.54,14.33,3.93,27.44-.1,31.1l-.77-1.27c8.58-10,5-22.23,0-28Zm-1.25,2.79c.07.23.52.9.19.86l-.58-.11Zm-.09,1.6a.6.6,0,0,1,.57.25c.24.39-1,3.68-1.69,2.91-.22-.43-.49-.81-.69-1.26s-.08-.8.47-1.33a2,2,0,0,1,1.34-.57Zm1.66.89c.58,0,1.41,1.88,1.49,3.19a4.54,4.54,0,0,1-2.5-.92,4.92,4.92,0,0,1,1-2.27Zm-4.52,1.5c3.48,7,3.26,12.45.2,17.47l-2.4-2.05c1.61-3.82,2.41-7.89-.3-13.08Zm2.35,1.75a5.92,5.92,0,0,1,1.64.3c2.33.74,2.41,2.26.17,3.38-.93.46-1.21.26-1.75-2.07-.26-1.15-.46-1.58-.06-1.61Zm4.49,2.68c.45,0,.66.84.71,2.3s-.24,1.5-1.36.51-1.42-1.33-.31-2.21C58.74,246.55,59.17,246.2,59.37,246.2Zm-3.17,2.29a4.15,4.15,0,0,1,1.49.87c1.59,1.21,1.24,2-.57,2.63-1.25.4-1.19.46-1.16-1.71C56,249.21,55.92,248.51,56.2,248.49Zm21.06,2a2.77,2.77,0,0,0-2.11,3.78c.29.71.74.72.22,1.15-.59.68-.9,2.23-.25,2.8s.95-.31.15,1.15L60.64,286.21l87.82-.16L137.9,266.28s.85-3.26-.84-3.65a1.38,1.38,0,0,1-1-1.11,3.29,3.29,0,0,0-1-2.67,59.7,59.7,0,0,1-21.59-.76c-8.63-1.94-14.79-5.3-18.8-6.35a45.83,45.83,0,0,0-17.43-1.28Zm4.73.19A52.64,52.64,0,0,1,101.75,255a74,74,0,0,0,17.31,4.87,70.93,70.93,0,0,0,14.43-.07,1.53,1.53,0,0,1,1.42.4c1,1.07.31,1.75-2.12,2a59.08,59.08,0,0,1-13-.46,77.21,77.21,0,0,1-20.16-5.39c-7.74-2.91-14.86-3.88-20.48-3-3.09.47-3.54.54-3.53-.29,0-1.62,1.37-2.36,6.36-2.35ZM59.7,255.34c-.3.68-2.42-1.56-2.39-2.19a12.44,12.44,0,0,1,2.43-1.86c.33-.25.31-.12.32.18a16.32,16.32,0,0,1-.36,3.87Zm-3.26-1.66c1,.13,2.58,2.77,1.17,3.18-1.25.36-2.39.59-2.54-.25.64-2.06.88-2.88,1.26-2.92Zm56.79,9A91,91,0,0,0,133,264c3.07-.31,3.71-.21,3.69,1.07,0,.8.08.78-3.88.78a79.55,79.55,0,0,1-9.43-.3,64.57,64.57,0,0,1-18.1-3.38c-6.14-1.59-11.45-4.65-17.45-5.28-5.51-.54-10.46.44-11.5,1-.35,0-.53-.51-.51-1a1.41,1.41,0,0,1,.58-1.13c15.78-4,24.23,4.55,36.84,6.91ZM58.5,257.41c.53,0,.36.79-.5,2.44-.73,1.4-1,1.39-1.43-.05s-.4-1.7.48-1.93c.51-.12,1-.39,1.45-.46Zm-3.68.78c.62,0,1.49,2.81,1,3.33s-1.64.13-2-.36C53.25,260.37,54,258.18,54.82,258.19Zm27.59.76a40.08,40.08,0,0,1,7.13.62,24.67,24.67,0,0,0-3.92,1.69A23.52,23.52,0,0,0,82.41,259Zm3.18,3.39c8.65-4.83,12.3,1.83,13.55,2.91,7.57-1.68,9-.85,13.27,3.71,7.57-3.71,11.24-.56,14.4,1.43,3.71-3.46,8.41-3.56,10.86-1.82a14.53,14.53,0,0,1,1.15,2c0,.23-.3,0-1.16-.65-4.45-3.18-11.83.78-9.85,5,.53,1.13.44,1.62-.35,2.07a1.27,1.27,0,0,1-1.73-1.8c1.31-2.15.32-4-2.87-5.63-4.49-2.35-11.84.28-10.33,3.75,1,1.11.07,1.89-1.21,1.85-1.44,0-1.93-1-1-2.05,1.16-1.32.86-2.66-.49-4.18-4-5.75-12.21-3.47-11.13,1.57.48,1.25-.88,1.76-2.28,1.2-.89-.35-.76-1.73.22-2.22,1.12-.11,1.28-1.74,1.15-2.79-.2-1.51-2.44-3-4.65-3.81a10.15,10.15,0,0,0-4.28-.59,3.56,3.56,0,0,0-3.46,4.44c.24,1.49-.17,3-1.92,2.22-1-.45-.72-1.53.26-2.53,3.44-3.36-3.49-7.44-7.67-4.63a3.14,3.14,0,0,1-1.22.68c2.62-6.52,10.83-.41,10.75-.14ZM97,261.46l5.23,2a14.54,14.54,0,0,0-2.91.91Zm-13.64,2.12c-4.82-.91-5.08,4.47-1.94,5.35-4.32,5.94,7,8.24,4.92.92,5.73,1,4.7-5.5.43-5.44,1-2.43,8.87-.58,8.53,1.22-5.32.57-3.19,5.42-.89,5.42-5.57,5.27,5.57,10.13,5.27,2.18,4.47.94,5-5,.7-5.38,1.58-2.21,7.19-.82,8.75,1.72-4.43.58-4.16,4.48-.69,5.11-4.39,5.6,6.43,7.67,5.3,1.16,3.88,1.33,6-3.84,1-5.32,5.14-3.07,10.73,1.5,10.13,1.59-5.88-.34-4.71,5.54-.46,5.22-2.7,6.11,8,6.45,5.3.12,4.82.08,4.39-5.5-.22-5.87,2.9-2.12,6.18-2.31,8.29-.33-4.39,1.16-2.57,6.27,1.85,4.85.41,4.28,3.89,3.37,4,3.24l3.11,5.8-84.26.14L69.61,272a3.41,3.41,0,0,0,3.91-4c2.83,2,5.87-3,1.73-4.43,3.38-3.54,8.39-.27,8.09,0Zm-27.43-.37c-.18.18-.22.29-.51,0C54.66,262.39,56.66,262.32,55.91,263.21Zm17.42,2.22c.37.31.12,1.14-.18,1.42-.76.82-1,.75-.35-.65.2-.43.38-.77.53-.77Zm36.92.38,4.38,1.06L112.55,268A28.14,28.14,0,0,0,110.25,265.81Zm13.69,1.76,4.76.31a11.72,11.72,0,0,0-2,1.6A16.5,16.5,0,0,0,123.94,267.57Zm15.87,4.86A22.07,22.07,0,0,1,141,275C139.49,275.22,139.08,272.93,139.81,272.43Z" transform="translate(-5.81 -10.69)"/>
  </g>
</svg>
