<svg xmlns="http://www.w3.org/2000/svg" viewBox="0 0 212.6 291.23">
  <defs>
    <style>
      .a {
        fill: #e2cf00;
      }

      .b {
        fill: #d40000;
      }

      .c {
        fill: #131f67;
      }
    </style>
  </defs>
  <title>QD</title>
  <g>
    <path class="a" d="M140.76,26.92S166.05,63.48,174.63,70c.63.29,11.21-1.73,11.21-1.73-5.42-13-8.91-26.4-5.39-41.45Zm14.05,57.82c-17.43,4.92-34.84,9.55-53.74,1.53L80.42,106.21c-.17.52,26.75,12.12,27.18,10.85L101,138.21l15.28,3.36,7-22.5s21.1-2,30.89-5.38c7.44-2.56,15.14-4.41,21.78-10a75.56,75.56,0,0,1-21.12-19ZM49.93,90.64C43.32,86.58,38.16,94.93,43,99.1c-.57,2.43-.77,6.06,1.59,7.65,2.16,1.37,6.2,0,6.78,0,.05,0,.11,4.38-.23,4.37-.62,0-3-2-4.44-2.47-4.93-1.47-11.86-2.2-11.74-2,.21.43-1.22,1.44,4.27,4.89,2.05,1.28,8.5-.16,13.63,1.46,3.13,1,6.21,2.63,7.91,1.81a11.75,11.75,0,0,0,5.46-6c.23-2.53-12.89,2.93-12.09,3l0-5.08c5.29.58,10.06-3.25,4.86-9.82C62.83,93.05,57.42,83.89,49.93,90.64Zm22,23.25c-13,13.1-39.57,37.7-39.57,37.7l.28,18.35,26,23.23C60.68,168.51,74.7,145.5,88,134c1.23-3.5-13.26-18.86-16.09-20.09Zm92.63,4.53c-2,15.17-3.74,35.84-29.46,58.83,4.45,7.59,10.13,15.32,18.29,19,.58,1.3,23.6-23.83,37.77-35.71l-.08-16.09ZM48.64,121.68c-.06.33-1,4.31-1.25,4.21,0,.21,2.63-1,2.93-2.07s.86-2.25.9-2.44C50.63,117.28,49.51,120.2,48.64,121.68ZM39,132.28a21.77,21.77,0,0,0-1.49,9.1c4.61,2.3,5.86-7.29,4.62-8.2A12,12,0,0,0,39,132.28Zm142.23,44c-.42,1.91-.33,2.48.52,2.85,1.49.65,2.16-.14,3.36-3.25.71-1.85,1.34-4.64.77-5.75C183.06,168.13,181.57,174.8,181.24,176.25Zm-69.65-4.5A12.6,12.6,0,0,0,109,172c-7.6,1.74-7,15-8.32,20.32-23.88,3.41-30.19,5-36.74,7.72-10.17,4.18-13.39,6.73-16.09,8.83,1.7-.2,20,16.83,20.89,19.23-1.16-3.3,35.32-11.32,54.75-3.26,2.38.85,20.54-17.62,20-19.68,2.36-4.12-22.88-8.76-26.06-11.33C114.79,179.79,135,172.09,121,172.5c-2.55.08-6.19-.77-9.42-.75Zm63.51,15.79c-.45.53-.9.82-1.48,1.44l-1.34,1.76,1,1.56,2.49-2.74Zm-17.8,17.68c2.62-1.18,11.92-5.69,12.32-4.65l-.2,4.51c-1.42-.46-10.61,1-5.3,10.53-3.34,7.53,4.11,11.42,9.33,6.44,11,3.75,9.48-7.2,7.22-9,1.78-2.76-.45-8.64-1.57-8.67,0,0,9.55,2.16,8.62.46a8.15,8.15,0,0,0-3.08-3.53c-2.45-1.64-6.74-1-10.22-1.77-3.72-.78-6.11-2.11-9.24-2.3-4.71.43-9.12,4.57-7.88,7.95ZM50.88,240.75l-13.15,3.52S42,254.15,43.46,263a90.59,90.59,0,0,1,.36,22.49l38.18.19Z" transform="translate(-5.81 -10.79)"/>
    <path class="b" d="M206.21,301.72c-5-1.75-5.13-4.91-5.3-9a84.82,84.82,0,0,1,.63-17.53c.34-1.51.52-2.29-1-2.83a13.42,13.42,0,0,0-2.51-.29v-3.77a7.38,7.38,0,0,1,4.4.71l1.27.77c2-1.86,7.14-2.14,9.6.16,1.63,1.64,2.16,3,2.27,6.72a20.68,20.68,0,0,1,0,2.92l2.83,0v3.67h-2.83s.06,1.82,0,5.77a55.17,55.17,0,0,1-.33,6.55c-1,5.11-5.51,7.27-9,6.12Zm5.44-6.32c1-2.63.58-12.81.58-12.81-4.24-1.63-6-4.18-7.76-6,0,0-.71,11.3.14,17.38.78,5,5.34,5.8,7,1.42Zm0-17.11c.23,0,.49,0,.52-.05.33-.92-.23-4.74-1.19-5.51a3.52,3.52,0,0,0-4.85.09,24,24,0,0,0,4.48,4.9,2.12,2.12,0,0,0,1,.57Zm-126.51,7.2c-16.75-23.91-32.28-46.66-52.89-71.73,0,0,0-9.69.09-19.3l63.32,90.8Zm58.66-31.24A151.9,151.9,0,0,0,164,225.83a115.64,115.64,0,0,0,21.85,28.1,109.81,109.81,0,0,0-20.93,28.86A113.84,113.84,0,0,0,143.83,254.25Zm55.09-2.9a83.83,83.83,0,0,0,9.45-12.25c3.18,4.51,5.1,7.89,9.38,12.65a68.37,68.37,0,0,0-9.28,12.05C205.45,259,202.29,254.48,198.92,251.35Zm-79.83-4.47a99,99,0,0,0-2.8-14.65l11.57-10.9C126.61,231.07,124.69,238.54,119.09,246.88Zm55.25-34.35c2.59,3.43-1.77,5.34-3.42,3.81C167.57,213.24,172.47,210,174.34,212.53ZM59.71,190.88c-1.92,1.23,3.45-30,18.18-46.09C86.85,170.46,71,184.84,59.71,190.88Zm72.67-.11-9.79-2.64,4.87-13.68s9.19,2.15,8.41,5c-2.55,9.25-3.49,11.33-3.49,11.33Zm-45.29-5.26a83.89,83.89,0,0,0,6.51-14.07l13.91-1.93-8.06,15.64Zm59-19.2c-7.57-15.07,1.35-38.93,17.82-45.5A72.48,72.48,0,0,1,146.05,166.31ZM95.16,162a77.31,77.31,0,0,0-1-15.94l34.43,4.59,1.21,14.43Zm25.2-22.93c1.17-4.59,2.2-8.41,4.46-12.13,2.5.08,12.67-1.6,11.38.38-2.77,3.54-4.09,9.28-5.9,12.89-1.9-.2-10.51,1.28-9.94-1.14Zm-22.81-2.63c-3.48-1.23-8.24-1.57-10.09-4.27l3.62-11.48,10.73,3.3ZM127.66,27l8.41-.08s40.4,51.69,55.54,71.8c-.51,2,.17,19.4.17,19.4C170.33,87.89,127.66,27,127.66,27ZM50.19,99.07c-2.26-2.43,1.33-4.57,2.83-2.41C54.33,98.57,51.38,100.35,50.19,99.07Zm45.33-8.48c.13-12,8.62-26.19,8.54-25.83-.1,0,1.21,11.71,2.84,15.41C106.46,80.82,95.92,91.34,95.52,90.59Zm-36.18-4a113.48,113.48,0,0,0-21.4-28.81c8.59-8.12,15-18.15,21.63-28A148.47,148.47,0,0,0,80.05,58.61C72.08,66.44,64.55,77.54,59.34,86.62Zm-53-25.56c3.86-3.85,9.56-12.6,9.5-12.61,2.71,4.43,5.57,9,9.51,12.68a63.37,63.37,0,0,0-9.23,12.59A53,53,0,0,0,6.36,61.06ZM5.81,33.21V29.5H8.59s0,.31,0-4.75c0-7.08.38-9.25,1.8-11.06,3.81-4.86,10.8-3.37,12.63,2.7a11.85,11.85,0,0,1,.49,3.18c.08,4,.09,10.71,0,14.88.06,1.64-.52,3.77-.94,4.13.2,1.49,2.54,1.79,4,1.67v3.88a22.65,22.65,0,0,1-3.25,0,8.16,8.16,0,0,1-2.46-1.47s-2.71,1.87-5.14,1.81c-8-.16-7.09-10.1-7.06-11.24Zm6.39,1s0,1.4.09,2.33c.28,3.09,2.29,4.68,4.29,4.14a4.1,4.1,0,0,0,1.59-.92C16.47,37.21,14.44,35.08,12.2,34.19Zm7.4-15.43c-.85-4.65-5.23-5.36-6.88-1.43a56.15,56.15,0,0,0-.55,6.32l0,6.62c3.55.78,5.51,3.06,7.73,5.64C19.94,35.91,20.38,24,19.6,18.76Z" transform="translate(-5.81 -10.79)"/>
    <path class="c" d="M30.71,24.75l-.32,262.08,163.07,0L193.4,25.18Zm149,2.05c-1.32,14.5-1.56,25.87,6,40.91-1.36,1.42-11.6,1.83-14.83,3.51-.06.41.83,1.11.83,1.11,3.38-1.57,16.54-3,16.54-3-5.51-9.61-10.05-28.09-6.63-42.27l9.5,0-.06,69.83s.74,13.48,1,21.08c-5.06-6.54-11.77-15.67-16.15-22.45-5.31-7.47-11.23-16.24-17.31-24.47-1.79-2.59-4.34-6-6.42-9-3.28-4.68-6-8.31-9.37-13.34-3.63-5.22-7.1-10-11.41-16C127.77,27.62,127.6,27,127.6,27Zm-62.39.27c6.16,10.71,17.18,14.33,19.95,15l1.62,2.36a35.1,35.1,0,0,1-23.23-16,3.18,3.18,0,0,1-.22-1.33Zm-6.1,0c-1.7,4.05-4.08,6.37-6.34,8.81l.07-2.59a22.3,22.3,0,0,0,4.53-6.22Zm3,0a3.62,3.62,0,0,1-.15,1.26c-1.31,4.22-9.41,12.21-9.18,11l-.08-2.07c0,.09,6.09-5.83,7.69-10.21Zm-5.89,0c-.63,1.18-3,4.73-3.2,3.75l.21-3.75Zm18.51,0c1,1.48,1.95,2.56,3,4.07a1.17,1.17,0,0,1,.27.76c-.17.42-.65.11-2-1.08a38.93,38.93,0,0,1-3.7-3.75Zm-8.19,0h2a28.47,28.47,0,0,0,14.08,11.28c.68.76,1.41,2.13,1.7,2.44-6.9-1.87-14.63-7.71-17.77-13.73Zm4.84,0c2.19,3.16,5.63,5.38,7.57,6.9,1,.82,2.42,2.48,2.29,2.81C129,35.4,124,30.62,121.67,27.07ZM115,29l1.2,1.9a40.52,40.52,0,0,1-11.41,12.51l0-2.5C110.31,37,112.69,33,115,29ZM117,31.77a36.87,36.87,0,0,0,22.91,14.05,13.87,13.87,0,0,1,1.67,2c1.26,1.72,1.28,1.79,1.44,4.59a57.65,57.65,0,0,0,3.44,16.5c-.2,1.09-.39,1.65-2.45,4.43-8.57,11.57-26.83,22.52-35.82,7.58-3-4.79-3.3-14-3.49-19.69,0,0,.06-.41.08-.51.22-1,.52-.88,2.14-.43,1.65.7,3.36.13,5.1-.34,2-.8,2.15-.19.24,1.6A12.26,12.26,0,0,0,110.84,63a10.78,10.78,0,0,0,1.69-.88c1.53-1.16,1.89-.72,1.33.56-2.41,5.44-2.83,5.65.55,7.16a6.54,6.54,0,0,1,1.58,1c2.31,2.18,1.48,1,.83,0-1-1.57-.09-2.39,1.59-1.42,1.12.64,2.59,1.16,3.39.92,1.56-.51,2-2.21,1.57-4.09-.37-1-2.49-2.87-2-1a1.8,1.8,0,0,1,1.27,3c-.84,1.13-2.33.52-4.63-1-1.26-1-2.8-.47-2.74.7,0,.79-1.07.61-1.79-.39-.41-.56-.13-2.16.62-3.68,4.75-9.55.75-18.81-7.48-16.2-.9.29-1.72.52-1.72.52l0-3.65c4.72-3.29,9.73-8.54,12.11-12.87Zm4.81,17.14c-1.24,1.5-.8,2.83,1.92,1.49a8.74,8.74,0,0,1,4.94-1.31c3.43-.12,6.51,1,10.32,3.31,2.52,1.55,2.89,1.66,2.2.69C139.12,49.19,127.07,43.27,121.78,48.91Zm-11.65.45c2.38.6,4.66,2.17,4.27,2.82-.15.24-.28.28-.59.13a9.21,9.21,0,0,0-8.53-.56c-.44.19-.69-.1-.68-.63,0-1,1.74-1.86,3.58-1.93A8.74,8.74,0,0,1,110.13,49.36Zm13.83,3c-1.42.74-1.91,1.13-2.51.8-1.44-.79-1.14-.17-.24,1.41.63,1.12.62,1.35.53,2s-.09.77.64,1.57a19.67,19.67,0,0,0,4.72,4.84,16.81,16.81,0,0,0,1.54.91c.21,0,.13-.16-.23-.51-2.6-2.5-4.65-4.74-2-3.79,3.08,1,6-.24,8.41-1.06a14.13,14.13,0,0,1,2.26-.56c2.22,0,2.74-.92,1.32-2.32-4.8-5.38-8.78-6.65-14.44-3.33Zm11.38,1c1,.91,1.51,1.41,1.41,1.65s-.87-.18-2.15-.86a11.59,11.59,0,0,0-9.13-.64c-2.83.81-2-.48,1.16-1.7A8.17,8.17,0,0,1,135.34,53.4Zm-26.43-1.86a9.12,9.12,0,0,1,5.92,2c1,.9.28,1.11-1.43.41-2.58-1.07-4.76-1.24-6.88-.25a7.17,7.17,0,0,1-1.64.66,1.14,1.14,0,0,1-.2-1.43A6.62,6.62,0,0,1,108.91,51.54Zm35.63.75c.16,0,.4.26.76.75.65.91.67,1.36.13,3-.65,1.94-.91,1.63-1.08-1.08C144.24,53.15,144.24,52.27,144.54,52.29Zm2.15,2.92c.25,0,.53.4,1,1.3.33.63.25.82-.75,3.76-.42,1.22-.82,2.2-.83,2.21-.31.25-.27.22-.4.06-.72-.92-.67-2.7,0-4.84.47-1.62.72-2.44,1-2.49Zm-19.48.23a4.85,4.85,0,0,1,.55.09c-.05,4.35,3.32,3.48,3.76.39,0,0,.83-.09,1,.12.4.65-.53,2.51-1.91,3.12a3.08,3.08,0,0,1-3.21-.42,6.46,6.46,0,0,1-.79-2.71c.16-.39.4-.57.64-.59Zm-2,.5h.1a.67.67,0,0,1,.7.51l.72,2.21c-.53.63-2.54-.65-2.54-1.62A1.08,1.08,0,0,1,125.2,55.94Zm-13.68,0c.51,0,.69,0,.75.48.17,1.44-1.27,3-3.13,3.08a2.37,2.37,0,0,1-2.72-2.56c0-1,.89-1.16,1-.34.29,2.36,2.31,2.5,3.23,1.19C111,57.28,110.91,56,111.52,55.94Zm22.14.48a1.83,1.83,0,0,1,.62.15c1.86.59,1.91.88.32,1.45-1.9.68-2,.77-1.58-.55C133.27,56.73,133.34,56.43,133.66,56.42ZM114,56.63c1.37.08,1.49,1.25.28,1.64-1.81.8-2.42.74-1.72-.43C112.89,57,113.23,56.64,114,56.63Zm-8.63.42a1,1,0,0,1,.56.21c.2.63.56,1.11.83,1.75a1.15,1.15,0,0,1-1.39-.06c-.86-.69-.71-1.89,0-1.9Zm43.34,1.35c.54,0,1.08.85,1.26,1.48-1.87,2.4-1.57,6.89-2,8.24-.38,1.11-.5.15-1.54-2.7-.42-1.15,1.7-6.88,2.19-7Zm1.92,2.46a2.22,2.22,0,0,1,1.08,1.64,6.16,6.16,0,0,1-.35,1.82,47.7,47.7,0,0,0-1.07,7.22c-.08,1.16-.07,2.2-.13,2.3-.56,1.1-1.75-1.87-1.64-4.23C148.83,67.72,149,61.12,150.58,60.86Zm2.64,3.39a3,3,0,0,1,.51,1,5.88,5.88,0,0,1-.3,2.61,33,33,0,0,0-.17,11.83c.12.87-.48.43-1.39-1.06a8,8,0,0,1-1-3.29c-.32-2.92.29-6.88.81-10C151.93,63.91,152.09,62.69,153.22,64.25Zm1.42,2.26,1.51,1.81a55.56,55.56,0,0,0-.64,6.39,97.72,97.72,0,0,0,1,10.61c-.92-1-1.35-1.64-2.36-2.94-.12,0-1-8.92-.39-12.33a27.9,27.9,0,0,1,.86-3.54Zm2.36,3.6c.25,0,.57.27,1,.84a2.61,2.61,0,0,1,.56,1.56c0,.47-.22.82-.23,1.65a73.17,73.17,0,0,0,1.46,14c.3,1.6-.27.94-1.22-.07a5.37,5.37,0,0,1-1.36-2.6c-.09-.26-1-9.34-1-10,0-2.82.11-4.39.44-5.06.11-.22.23-.34.38-.34ZM151.54,80s-1.75.9-2.2.58c-.74-2-3.41-7.4-3.45-8.36A10.52,10.52,0,0,1,147,70.49C148.45,73.68,149.78,77,151.54,80Zm-32.91-6.48c-.53.62-1.15.36-2.43-.19-.65-.2-.55.06-1.62.62a2.78,2.78,0,0,1-1.69.44c-.73,0-1-.26-1,.25a12.59,12.59,0,0,1-.22,2.24c-.23.9-.44,1.3-.31,1.45.37.34.68.14,1.47-.62,1.3-1.25,2.17-.9,3.62-.43,1.64.53,2,.73,3.49.2,2.13-.74,3.41-.74,4.26-.2,1.46.93,1.91.87,1.3-1.67-.19-.83-.21-2.1-.33-2.32s-.5.46-.89.73c-.75.5-1.13.49-2.81-.06-1-.33-2.11-1.39-2.85-.44Zm27,.34c.65,1.52,3.23,6.64,3.15,7.21-.5.45-1.17.78-1.57.37a45.92,45.92,0,0,1-2.73-6.27c-.31-.63.62-2.24,1.15-1.31Zm13.87-.19c.19,0,.57.35.85.73a3.22,3.22,0,0,1,1,2.6,55.12,55.12,0,0,0,2,14.19c.25.82.73,1.82.68,2-.43.64-2.45-1.06-3.06-3.64a71.72,71.72,0,0,1-1.59-8.92c-.34-3.91-.34-6.71.17-6.91ZM144,76.2c.75,1.44,1.69,3.92,2.32,5.4.29.65-1.19,1.16-1.52.94-.59-.44-.87-1.68-1.26-2.42-1.23-2.68-1.45-2.74-.77-3.58.42-.58.92-1.29,1.23-.34Zm18.42,1.65c.11,0,.25.11.43.33a7.18,7.18,0,0,1,1.5,2.3,9.2,9.2,0,0,1,.09,1.76c.13,2.34.75,5.54,2.49,12.09a8.73,8.73,0,0,1,.37,1.59c-.16,1.21-1.93-.74-2.44-2.75a61.1,61.1,0,0,1-2-7.9C162.18,81,161.82,77.85,162.4,77.85Zm-20,1.73c1.47,3.42,1.58,3.41.66,3.69s-1,.19-2.18-2.14c-.83-1.7-1-1.91-.3-2.53C141.69,77.34,142,78.55,142.43,79.58ZM122,78.77c-.16,0-.65.37-1.15.57a8.41,8.41,0,0,1-4.67.11c-2.32-.93-1.67.28.39,1,1.59.53,4.75.12,5.24-.87C122.13,79.28,122.24,78.76,122,78.77Zm17.66,1.79c1.31,2,1.7,2.83,1.48,3a2.23,2.23,0,0,1-1.67.39c-.54-.26-1-1.51-1.24-2.49C138.42,81,139.28,80.12,139.68,80.56Zm-32.77.86c.58,0,2.11,2,1.8,2.41-.09.19-.66,0-2-.36-.45-.16-1.45-.3-1.13-.94A3.65,3.65,0,0,1,106.91,81.42Zm31.37,2.8c-.14.35-1.12.43-1.54.4a5.91,5.91,0,0,1-.56-1.6c.14-.3.82-1.07,1.15-.92a11.26,11.26,0,0,1,.95,2.12Zm27.21-2c.21,0,.57.37,1.11,1.14,1,1.45.87,1.34,1.6,4.8C169,92.12,170,94.91,171,98.92c0,.67-.25.49-1,0-1.21-.73-1.61-1.55-2-3.68-.65-3.51-2-6.77-2.54-10.92-.28-1.37-.3-2.12,0-2.11Zm-30.42,1.4c.71,0,.61,1.07.41,1.25-.52.45-2,.32-2.2.34C132.73,84.38,134.6,83.68,135.07,83.65Zm34,3.73c.21,0,.78.83,1.83,2.31s.79,1.19,1.4,3.53c.85,3.23,2.27,5.57,3.1,8.54,0,.34-.41.3-.8.14a8.9,8.9,0,0,1-2.11-1.4c-.44-.48-.44-1.09-1.75-5.6-.47-1.63-.6-2.05-1.19-4.53-.49-2.06-.71-3-.48-3ZM59.4,97.05c3.44,6.33,2.16,9.14-5.24,10-.53-.07,0,3.25,0,4.73,3.71-2.12,8.19-2.61,12.32-4-1.12,3.61-3.1,7.69-9.08,7.06C51.11,110.07,43.75,113,38.75,111A6.58,6.58,0,0,1,35,106.46c3.26.33,6.93,1,10.09.8-3.45-2.66-2.44-6.33-2-8-4-5.09-.67-10.81,5.19-9.48a11.94,11.94,0,0,1,1.8.73c5.65-5.06,12.2-.31,9.3,6.55ZM173.76,94c.23,0,.75.59,1.78,2a92.84,92.84,0,0,1,5.7,8.52c-.14.74-3.34-.56-4.15-1.62s-3.51-7.43-3.5-8.42C173.59,94.16,173.63,94,173.76,94ZM48.58,112.38c1.6.24,2.05.37,2,1,.14.53-3.88.6-4.42.21s.12-1,.55-1.17A4.24,4.24,0,0,1,48.58,112.38Zm110.73.57c-22.45,10.6-31.62,38.79-20.3,60.4l-1.56,1.12c-11.1-22.84-2.84-47.31,15.2-59.67.73-.52,2.35-.92,3.1-1.42,0,0-7.36,1.68-9.85,2.65-.51,0-2,.51-3.59,2.24-1.39,1.29-5.75,7.3-5.61,7.51l-11.59.47v.42l11.37-.26c-11.71,19.28-8.83,37.62-1.6,50.46l.18.12c.42.28,1.53-.53,3.82-2.7.94-.9,2.13-2,2.65-2.47,1.41-1.3,3.43-3.54,4.82-5.16-7.87-16-.11-37.18,18.32-46.71a17.47,17.47,0,0,0-.2-2s-.69-.63-1.11-.56c-20.52,9-28.74,31.49-20.4,51.91l-1.38,1.49c-10.48-21.14.77-47.57,20.4-55.05,0-.48-.43-1.09-1-.72a41.79,41.79,0,0,0-20,56.37l-1.31,1.15c-11.81-23.44.63-49.71,20.14-58.69.57-.13-.51-.85-.51-.85Zm-114.22.22s-.14,1.25.3,1.68c.2.89-.12.79-.88.61-1.87-.44-.41.62,1.11,1.47s1.31.82,0,1.65c-.88.56-.79.77-.67,1.19.18.63.3.21.66-.12a2.79,2.79,0,0,1,2.07-.88c1,0,1.12.82.94,1.46-.4,1.35-1.79,1.27-2.92.94-1.85-.55-4.88-3.76-4.83-5.65C40.73,113.82,43.05,113.1,45.09,113.17Zm8.34.42c.72.26,1.62.61,2.62,1a15.8,15.8,0,0,1,3.66,1.75,6,6,0,0,1,2.37,5.83L48,135.58l-1.55-.77c-2.38-1.21-2.95-1.85-1.63-2.52a2.1,2.1,0,0,0,.94-1.71c.12-.92.07-.76.62-1.18.95-.73,1-1,1-2.24a2.94,2.94,0,0,1,.38-1.67,7.89,7.89,0,0,0,.64-2.19c0-.15,0-.54.06-.68a2,2,0,0,1,.57-1.14,5.12,5.12,0,0,0,.58-1.25c.4-1.11.32-1,1-.82.93.18.79.72.69,1.57a2.05,2.05,0,0,1-.23.62,3.36,3.36,0,0,1,.81-.43.52.52,0,0,1,.67.5c0,.26-.07.74-.07,1.1a12.46,12.46,0,0,0,.28,2.85c1,3.62.84,3.12.48.1a12.79,12.79,0,0,1-.08-2.66,5.44,5.44,0,0,1,.49-1.81c.62-1.08.66-1.29-.69-1.82-.5-.2-1.35-.55-1.52-.89a2.74,2.74,0,0,0-1.69-1.2c-2-.47-3.21-2.43-2.92-2.72s1,0,1.53.07c1.85.07,2.24,0,3.06-.73.44-.38.64-.71,1-.73a3.37,3.37,0,0,1,1.11.36Zm96.14,2.17c-19,15.35-22.3,40.18-12.83,59.35l-1.64,1.28c-11.9-22.48-3.9-46.72,10.71-60ZM40,117.59c.34,0,.7.46,2,1.88a13.31,13.31,0,0,0,2.33,2.07c1.11.54.87.31-.06,1.19-1,1.09-.43,2-1.56,1.44-2.95-1.38-5-5.47-3.11-6.45A1.18,1.18,0,0,1,40,117.59Zm-1.47,4.29a.93.93,0,0,1,.23,0c.36.09.81.78,1.28,1.26a9.48,9.48,0,0,0,3,2.37c1,.45,1.06.56.33,1.37a2.4,2.4,0,0,0-.48.84c-.06.19-.08.44-.3.49-1.15.22-5-2.1-5.12-3.7C37.58,123,38,121.93,38.55,121.88Zm8.1.44c.66,0,1.05.58,1.05,1.54,0,.66-.38.93-1.14,1.21-1.62.61-2.62-.55-1.49-1.83A2.59,2.59,0,0,1,46.65,122.32Zm-1,3.9c1.22,0,1.58,1,.68,1.93s-2.55.84-2.54-.08A2.36,2.36,0,0,1,45.66,126.22Zm-7.59,1.24c.83.24,2.84,1.69,3.73,1.86.05.49-.54.63.29,1.55.38.42.42.7.09.88-1,.54-4.52-1.17-4.75-2.92-.12-.86.17-1.34.64-1.37Zm4.57,2.09c1.2.06,2.57.09,2.42.67-.1.41-.53,1.52-1.08,1.31a2.46,2.46,0,0,1-.72-.55C42.62,130.37,42.45,129.55,42.64,129.55Zm45.57,5c3.51,3.18,16.26,36.38-10.32,60.56l-5.63,1.69c25.51-20,21.26-48.47,14.38-60.74,0-.36-.1-.32-.73.25s-.62.61-.4.71c7.78,12,10.69,45.79-20,62.11-.52.53.52.45.52.45.06-.44,13.81-3.78,12.84-3.87,12.81-11.32,24-38.34,10.08-61.89-.34-.22-.78.73-.78.73Zm-4.43,3.76-.18.75c11.12,21.84.51,48.59-20.17,58.49a6.51,6.51,0,0,0,1.1.6c23.45-12.63,30.22-39.36,20-60.06Zm-1.86,1.55-.13.79C91,159.23,83.69,185,61.71,195.48c-.21,1.12,0,.79,1,.74,25.43-13.64,27.82-39.57,19.87-56.41Zm-1.58,2.23c-.72.95-2,1.44-2.47,2.66,7.39,19.52-2.16,38.32-18.32,46.24,0,1-.72,3.41,1,3,20-9,28.66-33.09,19.93-52Zm100.3,37.75c.74,0,1.39.27,2.08.36,2.48.32,4.09,2.13,3,3.23-.37.36-.88.15-2.49-.63-.74-.37-.86-.71-1-1.52-.18-1-.38-1.08-.63-.32s-.52,1.24-1.37,1.05c-2.37-.55-1.48-2.19.44-2.17Zm-26.53,16.62c-6-3.38-13.31-9.48-17.52-16.4a99,99,0,0,0-4.54,11.06l-9.35-2.61-.11.19,9.24,2.67-.9,3.08c-.1.33-1.53,3.84-1.53,3.84L143.83,205a23.35,23.35,0,0,1-3.11,3.6,2.78,2.78,0,0,0-.72,1.69l20-19.08a45.22,45.22,0,0,0,3.54,4.69c.9.82,1.18,1,.13,1.26-4.7.69-8.35,4.25-7.08,9,.21.53.62.34,1.51-.22,3.13-2.83,10.76-5.45,11-4.78l0,3c-8.22.12-7.38,6.16-6.77,9.39,0,.07-2.38,2.15-2.38,2.15a23,23,0,0,1,2.44,1.44c-.72,4,2.71,9.87,9.45,6.88.58.6,1.13,1.2,1.78,2a13.5,13.5,0,0,0,1.48-2.68c3.35,1.51,10.3-1.88,6.75-9.65l2-1.87L182,210.67a9.43,9.43,0,0,0-1.53-5.47,36,36,0,0,0,5.5,1h0c1.45.13,2.66.16,2.54-.71a16.91,16.91,0,0,0-.39-1.93c-.7-2-4.32-3.53-7.83-3.72-.58,0-1.19,0-1.32-.17s.19-.67.56-.61a3.64,3.64,0,0,0,4.11-2.89,4.41,4.41,0,0,1,1-1.52c1-1.1,1.08-1.07,1.06-2.65a2.73,2.73,0,0,1,.69-2.08A5.18,5.18,0,0,0,187,186a3.08,3.08,0,0,1-.17-2.2c.59-1.82-.71-3.49-2.41-4.44-.13,0-.09.09-.21.23a5,5,0,0,1-3.42-.63c-.39-.19,1.32-10.07,4.84-9.19.59.35.83,2.07.79,2.1.16,0,.25-1,0-1.68a1.53,1.53,0,0,0-1.83-1.18,5,5,0,0,0-2.19,1.78c-1.64,2.1-1.66,3.44-2.21,5.67-.27,1.06-.3,1-1.76-.15-1-.81-1.55-1.08-1.19-1.56.17-.21.84-.89.84-.89L190.9,161.6v123H118.73l.5-15.8c1.36-11.11-1-34.45-2.83-36.64,1.39-1.57,5.71-5.33,5.47-5.5l-.57-.34-2.28,2.1-5.64-1.71a24.41,24.41,0,0,0-7.4-3.85c-4.15-1.06-12.15,2.34-12.16,2.37A66.49,66.49,0,0,0,71,231.3a11.12,11.12,0,0,1-1.31-2.14c-6.59-9.16-13.06-14.3-21.91-20.57l11.2-6.19L32.38,174.66l-.24-22.54,38.48-36.77c.22-.64,12.27,8.5,16.76,16,.86-3.64,2.46-7,3.79-10.52.14-.32,7.66,2.78,9.88,2.91a.85.85,0,0,0,.61-.33l-9.92-3.22,2-5.81s.7-1.58-.09-1.84c-4.52-1.47-8.77-4-13.09-6.24,0,0,2-2.24,2-2.34s.85-1.3.65-1.72C81.09,104.33,63.14,121,63.14,121a8.82,8.82,0,0,0-3-5.62,8,8,0,0,0,3.29-1.61c2.63-1.91,4.07-5.33,3.72-7.33a58.38,58.38,0,0,1-8,2.32,10.13,10.13,0,0,0-4.48,2l-.16-3.18s4.26.74,6.22-2.11c1.7-2.46,1-5.27.62-6.7,0-.32,0-.29.68-1,.54-.5,1.38-1.14,1.38-1.14,0-.18-2.2-1-2.57-1.76.59-5.91-4.13-8.19-8.13-7.14-.74.22-1.1.36-2-.63l-1.19-1.27s-.47,1.09-.72,1.56c-.78,1.55-1,1.08-2.68,1.16-4.28.21-6.19,3.67-5.21,7.91.23,1,.13.84-.53,2.1-.33.64-.88,1.47-.88,1.47s.79.43,1.32.67c.78.35.82.76.82,1.54a7.9,7.9,0,0,0,1.48,4.35,24.66,24.66,0,0,1-9-1.24c.46,4.66,3.9,6.4,8.12,7.08a3.45,3.45,0,0,1-.91.6A2.12,2.12,0,0,0,39.77,115a3.78,3.78,0,0,1-1.07,1.88,2.85,2.85,0,0,0-.93,2.92,2.73,2.73,0,0,1-.67,1.87,3.45,3.45,0,0,0-.72,2.84,11.85,11.85,0,0,1,.13,2.82c-.18,1.94.51,2.67,1.4,4,.57.89.45.91.31,1.55a31.77,31.77,0,0,1-1,3.51c-.76,2.62-.79,4.61-.16,5.12a2.62,2.62,0,0,0,2.51.39c3.73-1.15,3.08-4.81,3.28-7.27.1-.63.32-.93.53-.9a11.65,11.65,0,0,0,3.6,2.72c-5,5-8.2,8.14-14.47,13.65l.17-123h71.55s.08.91-.09,5.37c-.31,9-.69,18.52-.1,27.74a86,86,0,0,0,.49,9.5c.45,3.07.65,6.39,2.09,9.26.57,1.55.59,1.43-1.61,3.47a8.52,8.52,0,0,0-2,2.24c0,.06,0,.3.12.17s.91-.88,1-1c.59-.7,1.59.2,5,1.16a9.37,9.37,0,0,1,2.32,1.34c5.09,4.29,12.25,3,17.6.61a11.45,11.45,0,0,1,4.34-1,84,84,0,0,0,18.67-5l1.18,1.94a.76.76,0,0,1,.76.4c5.2,9.82,22.18,21,21.88,20.52l-11.1,6.14c8.08,10,26.55,26.92,26.55,26.92L191,161.16a157.18,157.18,0,0,0-13.69,13c-1.25,1.25-2.13,1.95-1.66,2,1.13-.17,2.11.94,3,1.72.59.65.44.59-.23,1.48-.47.62-.65.8-.65,1.25a2.2,2.2,0,0,1-.76,2.11,3.09,3.09,0,0,0-.85,1.72,3.06,3.06,0,0,1-.57,1.81c-.84.18-.92,1.39-.77,1.94a1.86,1.86,0,0,1,.56,1.61c-1.67,1.81-3.43,3.38-2.31.85a7.4,7.4,0,0,0,.68-1.73s-.8.83-1.22,1.23c-.65.59-.88.24-.9-1.61a12.54,12.54,0,0,0-.91-3.73c-.13-.21-.16.15-.09,1.5.08,1.78.29,2.29-.34,4.06-.84,2.4-1.44,2.74-.07,2.65s2.4-.09,3,.69a2.57,2.57,0,0,0,1,1,9.54,9.54,0,0,1,2.51,1.88c1.92,2.09,1.37,3.95-2.34,2.69-2-.67-.68-1.51,1.42-1.31,1.3.12,1.51-.36.4-.7-2.08-.39-2.42-.62-3.79,1a13.35,13.35,0,0,1-10.54-6.41c-.65-1.1-.85-1.31-.4-1.93.18-.24.07-.17-.24.17s-1.14.62-1.42.87c-1.93,1.93-3.89,4-5.63,5.57Zm25.06-13.52c1,.13,1,.95.08,1.73-.82.63-1.38.75-1.84.28C176.6,184.12,177.64,182.93,179.17,182.93Zm2.84.57a4.88,4.88,0,0,1,3,1.35c1.42,1.19,1.75,4.06.44,4.55-.55.21-.63,0-1.8-1.1a10.21,10.21,0,0,0-2.48-1.83c-1.72-.82-1.94-1.13-.78-1.68a2.18,2.18,0,0,0,.7-.65c.3-.48.39-.63.93-.64Zm-1.85,3.82a3,3,0,0,1,1,.4c2.89,1.58,4.31,4.06,3.33,5.46-.65.92-1.69.57-2.49-.74a8.07,8.07,0,0,0-3-2.35c-1.55-.79-1.59-.9-.47-1.44a2.27,2.27,0,0,0,1-.92C179.84,187.27,179.86,187.31,180.16,187.32Zm.92,5.91c2.19,2.18,1.94,3.36.52,4.24-1,.61-2.53.76-3,.26-.82-.72-.8-1.55.11-1.81s.53-.52-.26-.73c-2.84-.8-4.58-2.31-1.5-2a2.85,2.85,0,0,0,2.21-1.14c.67-.81,1.57.76,2,1.16ZM32,194.07l63.81,91.36-51.59-.1s-.19-.67.23-6.15c.62-7.43-.34-13.87-2.1-21.13.23,0-2.47-8.8-4.56-13.09-.38-.9-.32-1,.92-1.14a48.79,48.79,0,0,0,11.23-3c1.7-.15,4.19.51,4.05.31s-2.2-2.07-2.2-2.07a62.12,62.12,0,0,1-16.63,3.84c6.87,11.69,9.32,27.61,7.26,41.9l-9.89,0,0-70.35Zm11.4,13.53a5,5,0,0,1,3.42,2.74,29.43,29.43,0,0,0,1.3,3.07c0,.25,2.22,4.25,1.25,3.9-1.93-2.63-5.39-7.1-6.26-9.28,0-.29,0-.42.29-.43Zm6.9,4a22.45,22.45,0,0,0,1.31,3.53c1.38,3,3.51,7.61,3.08,8.93-.29.89,0,.85-.77-.25-.38-.54-1.58-2.2-1.86-2.59-.7-.93-.23-.08-.63-1.6-.95-4.31-2.48-6.58-3.48-9.1-.36-1.18,1.89.61,2.35,1.08Zm1.22.66c.19.13,2.72,1.91,3,2.16.9,3.19,4.48,13.41,3.56,15.23a8.16,8.16,0,0,1-1.88-2.75c-.42-4.88-2-8.39-3.63-12C52,213.76,51.68,212.66,51.49,212.25Zm4.76,3.59a5.66,5.66,0,0,1,2.1,2.08,9.11,9.11,0,0,1,.77,2.52c.92,4.17,2.66,8.4,1.88,12.84-.49.67-1.56-.84-1.71-2.33a58.06,58.06,0,0,0-2.67-13.07c-.34-1.12-.59-2-.37-2Zm4.06,3.82c.17,0,.52.32,1.11.87,1.13,1.07,1.29,1.46,1.3,3.23,0,2.6.91,5.58,1,8.2.08,1.52.36,5.44.12,5.67-.33.46-1.8-1.2-1.68-3.75.18-3.06,0-5.37-1.28-10.66-.6-2.45-.9-3.5-.64-3.56Zm117.83-15.47c4.56,2.93,3,8.33,2,9,6.3,8-3.49,12-6.59,9.17-4.6,4.57-12.49.74-9.45-6.79,0,0-5.78-11,5.61-10.29,0,0,.2-4.46-.13-4.66-4.06-.28-9.59,3.64-11.15,4.72-.87.53-1.06.28-1.06.28-.22-2.32-.22-3.38.72-4.67,1.64-2.25,4.35-3,7.91-3.79,4.41,1.36,8.61,3.49,12.69,3.16a14.07,14.07,0,0,1,6.73,1.54c1.48.7,2.24,3.3,2.24,3.3-2.31,1.21-9.49-1-9.49-1ZM176,187.83a1.76,1.76,0,0,1,1.79-1.57,1.05,1.05,0,0,1,.29,2.05c-.31.25-1.31-.12-1.37.16.08.48-.41.28-.51.1a1.24,1.24,0,0,1-.2-.74Zm-.73,3.12a2.46,2.46,0,0,1,1.26-.4c.68-.08,1.56,0,1.75.74s-1.16,1.12-2.25,1.14c-.56,0-1.2.11-1.37-.28s.38-1,.61-1.2Zm-138-50.31c.88-3.06.33-4.77,1.8-8.54l3.57,1.19a20.21,20.21,0,0,1-.57,5.76c-.72,2-3.09,3.69-4.8,1.59Zm26.59,82.7c.42,0,1.46,1.52,1.93,2.87s.28,2.83.59,4.18A48.12,48.12,0,0,1,66.81,241c-.1.69-.54.41-1.16-.25-.89-1-.77-1-.76-3.66a81.4,81.4,0,0,0-.73-9.12,19.18,19.18,0,0,1-.51-4.51c0-.1.09-.14.16-.13Zm41.75.55c4.6.74,8.27,3.87,10.38,9s2.53,12.42,2.85,19c0,1.58-.68,1.18-2.38.2-1.86-.91-2.25-.65-5,0-1.69.39-1.54-.76,1.25-2.67,1-.62,2-1.45,1.69-1.57a2.79,2.79,0,0,0-1.65.66c-2.73,2.21-3.48,2.75-2.69.6.2-.54.84-2,1.1-2.77,1-2.7-.15-3.86-3.51-5.57-.85-.43-1.4-1.14-.56.35.69,1.23-.73,2.21-2.49.78-1.23-1-3.68-.33-4.47.91a3.12,3.12,0,0,0,1.15,4.17c1.34.57,1.83.16.54-.74-1.66-1.15-1.33-3.09.53-3.08.46,0,1.27.51,3.33,1.63,1.47.8,2.52.46,2.52-.73,0-.79.45-.73,1.42-.25,1.3.64,1.16,1.23.47,3-.46,1.25-.69,2.68-1.12,4-1.09,4.42-1.24,9.43,0,11,3.23,4.15,6.66,3.71,9.59,1l-.12,4.54c-3,2.4-6.49,4-11.89,12.94-1.88-2.36-10-12-22.9-14.21l-2.92-4c0-.24-2.17-14.82-3.63-19.79,0,0,1.6-2.43,3.06-4.22,5.81-7.16,15.64-15.36,25.45-14.2ZM88.67,228c-.5.16-.66-.83-.39-1a7.38,7.38,0,0,1,1.41,0c.46,0,.45.55-1,1Zm-21.85-.74A13.37,13.37,0,0,1,69,230.12c.43.62.18,1.66.25,2.68.09,1.45.26,3.85.36,5.32a15.49,15.49,0,0,1-.49,6.13c-.43,1-1.3.32-1.51-1.1,0-.34.23-3.86.23-5.79,0-3.32-.85-7.41-1.05-10.07Zm19.6,0a.55.55,0,0,1,.56.19c.69.89,1,1.43.34,1.92-.84.7-1.61.52-2.07-.81-.31-.95.4-1.25,1.17-1.3Zm-2.59.78a4.4,4.4,0,0,1,1.57,2.79c-.05.26-.28.49-.78.89s-.66.43-1.22-.45c-.87-1.37-1.28-2.27-1.11-2.74A1.57,1.57,0,0,1,83.83,228.05Zm30.6.18a25.44,25.44,0,0,1,3.72,1l-1.86,1.8C115.73,230.07,115.1,229.15,114.43,228.23ZM81,229.17c.69.89,1.89,3.24,1.83,4.11a2.12,2.12,0,0,1-.74.72c-.23.06-.44-.34-1.21-1.71-1.35-2.39-1.75-3.06-1-3.35A1.59,1.59,0,0,1,81,229.17Zm-2.72.55a14.84,14.84,0,0,1,2.6,5.23,1.15,1.15,0,0,1-.27.71c-1.13,1.22-.84,1-2.53-2.44-1.42-2.86-1.8-3.14-.86-3.46A1.86,1.86,0,0,1,78.32,229.72Zm-2.71.93c.5,0,.64.82,1.6,2.7,1.61,3.56,2.22,4.06,1.85,4.44-.45.56-.71,1-1.14.27-1-1.58-1.94-3.6-2.84-5.37-.73-1.32-.79-1.48-.33-1.8A1.66,1.66,0,0,1,75.61,230.65Zm28.79,1c-.6.17-3,.94-1.55,1.08.3,0,1.07-.16,1.61-.2,1.51-.1,4.64.18,4.53-.11C108.71,231.35,105.23,231.45,104.4,231.66ZM73.5,232c0,.06.39.76.78,1.44,2.3,4.43,3.57,6,3.16,6.74-.33.42-.85,1-1.16.83-.49-.2-1.15-1.65-2.79-4.94s-1.87-3.64-1-4.08c.36-.17.79-.29,1,0Zm-2.29,1.57c1.06,1.71.92,1.48.91,7.06,0,3.47-.46,5.68-1,6.53-.3.45-.84.19-1.1-.69-.13-.4.22-1,.29-1.63.41-4.17.12-8.34.13-12.29.32,0,.64.74.81,1Zm27.18,1.36c.49.7.37,1.27.37,2.21,0,1.33.09,1.43,1,.76s.88-.64,2.33.35a2.15,2.15,0,0,0,2.66,0c.5-.46.67-.25,1.33-.08.73.4.93.46,2.49-.29,1-.46,1.09-.53,1.71-.2,1.1,1,1.26.61,1.11-.65a10.41,10.41,0,0,1,.26-1.8c.55-2.25-.34-2.28-1.5-.84a2.08,2.08,0,0,1-2.42.35c-1.36-.65-3.5-.39-5.07-.12a3.72,3.72,0,0,1-3.48-.84c-.42-.36-1.39-.69-1.5-.41s.11.72.7,1.55Zm-25,3.16c.23-.05.59.64,1.12,2.1.67,1.89-.51,8.47-1.22,9.54-.38.57-.62.91-1.39-.13-.31-.46-.07-.61.23-1.9a39,39,0,0,0,.88-6.63c0-1.92.12-2.92.38-3Zm2.38,6.37c.17,0,.36.39.63,1.14a8.21,8.21,0,0,1-.3,4.53A12,12,0,0,1,75,252.74c-.17.45-1,.29-1.27-.69-.15-.63.37-1.4.62-2.39s.54-2.26.68-2.9C75.33,245.21,75.52,244.44,75.77,244.45Zm18.39,2.92h0l0,0s1.79,2,2.29,2.59c.25.22,2.46,2.9,1.09,2.28a9.43,9.43,0,0,0-10,1.68c-.32.3-.58,0-1.52-.08-1.94-.14-2.64.63-1.46,1.58.18.15.55.21.72.45s.11.6.19.71c3.75,5,10.69,5.94,15,2.69.55-.41.86-.55,1.37-.4,1,.3,1.1-.55.21-1.73-.39-.52-.87-1.12-.59-1.29.55-.48.82-1.25-.14-1.55a3.13,3.13,0,0,1-1.78-2c-.43-1.21-4.7-4.91-5.35-5Zm-17,2.17c.82,0,.86,4.8,0,6.26-.47.55-1.53-.48-1.37-1.53a32.64,32.64,0,0,1,1.19-4.61.37.37,0,0,1,.22-.12Zm16.61,3a3.69,3.69,0,0,1,2.37,1c.4.36,1.1,1.94.81,2.55-.08.32-.93.3-1,.07-.47-3.18-3-3.64-3.86-.67,0,0-.53.45-.6-.42.19-1.68,1-2.49,2.28-2.5Zm20.74.27a2.11,2.11,0,0,1,2,1.27,1.93,1.93,0,0,1,.2,1.39c-.09.2-.36.12-.36.12-1.31-3.59-3.09-1.93-3.73.05,0,0-.67.21-.76,0a1.7,1.7,0,0,1,.24-1.18,2.79,2.79,0,0,1,2.41-1.65ZM97,253.05a2.92,2.92,0,0,1,1.85.94c.6.61.66,1,.18,1.42-.3.27-1.33.54-1.54.07l-.87-2C96.54,253.24,96.79,253.06,97,253.05Zm-6.29.09c.51,0,.62.12-.19,2-.17.41-2.26-.18-1.86-1A3.46,3.46,0,0,1,90.71,253.14Zm20.9.15c.21,0,.38,0,.45.12a13,13,0,0,0-1,2.06c-.75-.09-1.64,0-1.8-.59s.15-.93,1.2-1.33A4.34,4.34,0,0,1,111.61,253.29Zm6.11.51a1.18,1.18,0,0,1,.88,1.31c-.08.26-.45.26-.72.06s-.62-.79-.59-1.12S117.47,253.71,117.72,253.8Zm-39.37,1.85c.24.45.68,3,.17,3s-.73-.91-.82-1.61c0-.15.42-1.36.65-1.37ZM87,257a3.89,3.89,0,0,1,1.68.66,13,13,0,0,0,8.82.87c1.78-.46,2.24-.73,2.49-.43.42.52-.25,1-2.76,1.89-2.76.92-5.62.77-9.38-1.89-1-.71-1.14-1.06-.85-1.1Zm31.46.71c.46.88-1.13,1.7-1.93,1.93a8.26,8.26,0,0,1-5.76-.61c-.13-.08-.24-.15-.36-.24-1.19-.88-.69-1.52.63-.83a8,8,0,0,0,5.86.12C117.72,257.74,118.25,257.28,118.5,257.74Zm-35.2,1.63c-.16,0,.11.43.66,1,3.88,4.35,13.13,6.71,18.33,2.23,1.63-1.53,1.38-2.22-1.19-1a24.32,24.32,0,0,1-10.37.54,15.39,15.39,0,0,1-5.93-1.92c-.89-.66-1.36-.91-1.5-.88Zm26.74.13a4.42,4.42,0,0,1,1.55.57c1.31.69,4.29.45,5.27.09,2.06-.76,2.48.21.53,1.29a5.91,5.91,0,0,1-6.92-.9c-.54-.48-.83-1.09-.6-1.14,0,0,.13.09.17.09Zm-25.71,7.7c7.64.69,19.16,8.27,23.65,17.37H105.4c-4.52-7.16-11.46-12.93-19.7-15.08-.33-.25-1.54-2-1.37-2.29Zm33.89,1.66-.35,2.52a40.74,40.74,0,0,0-9.45,11c-.72,0-1.07-.91-1-1.5,2.78-5.5,6.11-8.53,10.75-12Zm-30.86,2c1.76-.12,13.15,6,17,13.74h-2.1c-4.32-5.62-9.12-9.29-13.37-10.76C87.84,272.72,86.71,270.88,87.36,270.83Zm30.51,1.75,0,3.4a29.3,29.3,0,0,0-6.28,8.59h-2.12a2.69,2.69,0,0,1-.3-1.51A30,30,0,0,1,117.87,272.58Zm-17.31,12h-2a23.4,23.4,0,0,0-6.66-6.2c-1-1.19-2-2.67-1.61-2.91,0-.89,9.09,5.24,10.32,9.11Zm17.35-6.92,0,2c-1.39,1.77-2.55,3.26-3.66,4.95h-1.75c1.6-3.44,5.6-7.85,5.45-6.92ZM94.4,281.46c.63.17,2.94,2.37,2.86,3.11l-1,0a17.62,17.62,0,0,1-1.69-2.25C94.28,281.81,94.12,281.37,94.4,281.46Zm23.11.61h0l0,2.5h-1.76a5.23,5.23,0,0,1,1.76-2.5Z" transform="translate(-5.81 -10.79)"/>
    <path d="M154,26.47c-8.59,0-17.28.05-26.94.15l65.24,92.58.06-20.57-20.94-27a78.91,78.91,0,0,1,15.17-2.89c-5.89-13-8.83-25.3-6.24-42.09C171.06,26.52,162.57,26.47,154,26.47Zm25.26.59c-.51,5.93-1.18,12.54-.1,19.88-3.4-1.24-4.2.88-4.76,1.1-.64-1.42-3-3.89-5.68-1-1.4,1.5-.72,4.34,2.51,5.61-3.7.29-5.62-2.88-6.27-6.14-2-1.28-4.11-2.55-4.31-7l1,.17c-.34,3.14,2.91,4.73,4.82,3.24,1.23-1,1.36-2.41.88-4.67a3.3,3.3,0,0,0,2.69-4.15c-.84-4.11-5.07-3.63-7-.92-1.6-2-4.54-2.36-5.72.72-.66,1.72.84,3.65,2.54,4-3.78.73-5.68-4.48-5.89-8l-1.57-2.77C162.62,27.05,167.09,27.06,179.24,27.06Zm-51.14.1h7.58L191,98.74l.12,17.81Zm19.16,0h1.21a15.63,15.63,0,0,0,10.76,13.08c.32,5.15,2.81,12.14,12.22,14.5-.28,5.81,3.46,11.36,7.45,14a15.4,15.4,0,0,1-1.92.35c-5.37-4.26-6.7-10.53-7.23-13.12-.18-.37-.69-.46-1.1-.56a16.58,16.58,0,0,1-10.05-10l-1-4.52c0-.58-.11-.31-1.48-.81-3.55-1.31-6.82-5.15-8.3-9.73-.77-2.41-.56-3.21-.56-3.21Zm-4.87,0h4.24s0,.74.09,1.23c.57,4.51,4.62,10.18,8.75,12.06a10.2,10.2,0,0,1,1.59.81c1.16,7.4,4.51,11.86,11.59,14.91.11.12.43.19.53.34,1,4.57,3.07,9.87,7.08,12.79l-1.73.18Zm20.73,7.76a1.74,1.74,0,1,1-1.73,1.74A1.74,1.74,0,0,1,163.12,34.94Zm-58.59,9.49c.1.25-23.75,20.42-21.43,58.38l-.69.77.19.27c-.79.89-1.54,1.61-2.4,2.48a86.31,86.31,0,0,0,13.59,6.5l-1.65,3.82,10.3,3.33-1.38,3.62-10.14-3.36A91.62,91.62,0,0,0,87.5,130.3c-.1.27-.33.14-.7-.39-5.35-9.12-16.34-15.71-16-15.06l-39,37-.26,22.85,27,27.8a130,130,0,0,0-11.5,6.36c2.88,2.35,6.13,4.15,9,6.37,5.91,4.16,9.89,10.29,13.72,14.43,18.06-9,36.24-8.45,51.94-3-1.83,1.92-3.87,3.59-5.75,5.68,4.56,12,3.1,35.76,2.87,36.4a78.79,78.79,0,0,0,21.75-59.83l4-4c-.07-.2-10-5.52-14.14-6.68l1.15-3.64-9.91-3.1,1.1-2.89,9.87,2.86c1.87-4.59,3.85-11,3.85-11a50.74,50.74,0,0,0,17.24,16.72l38.75-37.07-.25-23.84-26.39-26.39,11-5.72c-1.06-.86-2.59-1.66-3.67-2.52-.08-.06.22-.24.14-.3-.28-.21-.48-.38-.76-.58-.06,0-.26.24-.32.2-3.73-2.61-7.46-5.19-10.39-8.31-.08-.08,0-.41,0-.49-1.53-1.63-3-3.14-4.6-4.74a26.52,26.52,0,0,1-1.9-2.45l-.07-.57-1.67-2.1c-5.36,3.17-28.24,11.11-50.38,2.31l4.21-4.2a32.16,32.16,0,0,1-2.14-8.19C104.09,62.27,104.53,44.43,104.53,44.43ZM174.31,50a1.84,1.84,0,1,1-1.83,1.84A1.84,1.84,0,0,1,174.31,50Zm5.74,2.18a83.07,83.07,0,0,0,5,15.65l-2.44.27c-2-1.29-4.08-3.17-4.3-5.84-5.37,0-6.94-8.38-5-7.36a3.19,3.19,0,0,0,3.84,3.72c1.74-.24,3.25-2.65,1.17-5.3a2.9,2.9,0,0,0,1.67-1.14ZM104,65.71a75.27,75.27,0,0,0,2.57,14.5l-10.61,10A54.62,54.62,0,0,1,104,65.71Zm50.87,19.22,1.34,1.93c-15.32,9-41.48,9.64-57.42,2l2.11-2C114.9,93.22,137.72,93.69,154.85,84.93Zm-99.55,3a8.54,8.54,0,0,0-5.22,2c-7-3.2-11.64,4.28-7.29,9.24-.64,3.57-1.13,4.24,1.56,7.85-2.86.37-6.46-.38-9.52-.85.52,5.28,8.09,6.52,11.24,5.93a11.38,11.38,0,0,1,6.75,1c2,.56,3.24,1.52,5.22,2,3.25.78,8-3,8.7-6.66.07-.48.22-.92,0-1-2.22.57-4.67,1.37-6.83,1.85a12.87,12.87,0,0,0-5.34,2.3l-.13-4.37c11,.53,6.22-10,5.59-10.4C62,92.67,59.57,88,55.3,87.93Zm100.12.33,2.4,5.76-6.37,2.16-1.63-5.64Zm-100.58.17c3.74,0,7.09,4,3.5,8.4,7,6.15-2,12.73-6.22,8.16-5.66,5.19-11.68-.23-8.52-5.88-6-5.4,1.41-12.65,6.5-8A5.55,5.55,0,0,1,54.84,88.43Zm43.47,2.11a1.63,1.63,0,1,1-1.62,1.63A1.63,1.63,0,0,1,98.31,90.54Zm-41.48.12a.61.61,0,0,0-.32.15c-.18,0-.58.7-1.56,1.84-1.72,2-1.91,2-1.91,2a4.55,4.55,0,0,0-4.26.48,8.18,8.18,0,0,1-3.28-1.84c-.86-.73-1.33-.88-1.48-.5s.23.82,1.89,2c2.3,1.56,2.16,1.44,2.16,1.44a6.17,6.17,0,0,0,.6,3.53,16.33,16.33,0,0,1-2,3.12,4.57,4.57,0,0,0-.84,1.45c0,.84.72.28,2.39-1.83.66-.83,1.55-2,1.55-2a4.52,4.52,0,0,0,3.88-.17s.42.31,1.49,1.16c1.95,1.56,2.38,1.73,2.62,1.53s.28-.35-.46-.89a17.56,17.56,0,0,1-3-2.52,5.65,5.65,0,0,0-.52-4.1,7.27,7.27,0,0,1,1.28-1.61A11.49,11.49,0,0,0,57.14,91a.32.32,0,0,0-.31-.34ZM102,91l5.73,1.78-1.26,6-6.11-2Zm41.49,1.46,1.6,5.82-6,1.58-1-6.17Zm4.19.1A1.62,1.62,0,1,1,146,94.2,1.62,1.62,0,0,1,147.65,92.58Zm13.55.2,5,4.47-5.57,2.81L158,94.24Zm-47.27,1.29,5.82.69-.23,6.26-6.69-.89Zm-20.21.07L100.2,97l-2.34,6.53-6.63-2.85Zm16.71.51a1.62,1.62,0,1,1-1.63,1.62A1.62,1.62,0,0,1,110.43,94.65Zm20.95,0,.8,6.27-6.05.37L126,94.92Zm4.16.72A1.62,1.62,0,1,1,133.92,97,1.62,1.62,0,0,1,135.54,95.37ZM51.36,96a1.67,1.67,0,1,1-1.67,1.67A1.67,1.67,0,0,1,51.36,96ZM123,95.9a1.62,1.62,0,1,1-1.62,1.62A1.62,1.62,0,0,1,123,95.9Zm28.49.4,2.35,6.43-6.6,2.13-1.87-6.61Zm4.63.17a1.63,1.63,0,1,1-1.62,1.62A1.63,1.63,0,0,1,156.08,96.47Zm11.43,1.83,4.27,3-2.12,1.18C169.11,101.17,168.13,99.59,167.51,98.3Zm-61,.58,6.3,1.37-1,6.6-6.88-1.37Zm-18.75.36,3.35,1.58-2.21,5.5-5.41-2.89Zm15,.36a1.63,1.63,0,1,1-1.62,1.62A1.63,1.63,0,0,1,102.69,99.6Zm36.41.36,1.12,6.6-7.11,1-.44-6.73Zm26.61.13a1.62,1.62,0,1,1-1.62,1.62A1.62,1.62,0,0,1,165.71,100.09Zm-5,0L163,106l-7,2.9L154,103Zm-17.73.42a1.62,1.62,0,1,1-1.63,1.62A1.62,1.62,0,0,1,142.94,100.56Zm-23.49.66,6.65.12L126,108l-7.29-.2Zm53.23.46,2.62,1.82C148.36,120.82,110.51,123,81,105.92l1.9-1.91C109.49,119.94,148.36,117.71,172.68,101.68Zm-56.84.75a1.63,1.63,0,1,1-1.62,1.63A1.62,1.62,0,0,1,115.84,102.43Zm13.66.37a1.63,1.63,0,1,1-1.62,1.62A1.63,1.63,0,0,1,129.5,102.8Zm-31.69.9,7,2-1.19,5.49L96,109Zm-4.6,0a1.63,1.63,0,1,1-1.63,1.63A1.63,1.63,0,0,1,93.21,103.73Zm54,1.17,1.66,6.16-7.68,1.64-.93-6Zm4.42.9a1.62,1.62,0,1,1-1.63,1.62A1.62,1.62,0,0,1,151.61,105.8Zm-100.39,1,0,4.32c-1.27-1-2.71-2.17-4.19-3.3a8,8,0,0,0,4.21-1Zm-15.83.11a18.38,18.38,0,0,0,2.15.28c3.13,0,9,1,10.7,2.39a7.34,7.34,0,0,1,1.91,1.65c0,.36-.52.37-1.27-.1a19,19,0,0,0-7.09-2.15c-.58-.08-.65-.06-.65.22s.53.54,2.23.81a20.94,20.94,0,0,1,3.16.71c1.3.36.47.84-.88,1-5.48.51-9.59-1.85-10.42-4.54-.06-.18,0-.24.16-.24Zm76.42.1,6.9.89-.31,5.78-7.55-.87Zm-58.69.5c1.21.94.38,3.81-.28,4.66-.43.47-1.42.22-1.42-.45s-.06-3.45.07-4.33a1.59,1.59,0,0,1,1.63.12Zm80,.25.36,6-7.53.34.06-5.85Zm-25.4.4a1.63,1.63,0,1,1-1.63,1.63A1.63,1.63,0,0,1,107.7,108.11Zm-42,.09c.28,4.37-6.43,7.33-8.94,6-1.12-.59-.65-1,1.55-1.4,2.85-.76,4.73-1.5,4.73-2,0-.33-.43-.29-1.59.15-1.79.6-3.65.86-5.36,1.62-1.28.58-1.78.79-2.06.44-.61-.73,2.23-2.58,5.18-3.07,2.21-.37,4.44-1.54,6.49-1.7Zm71.52.54a1.63,1.63,0,1,1-1.63,1.63A1.63,1.63,0,0,1,137.26,108.74Zm-15.1,1.19a1.63,1.63,0,1,1-1.62,1.62A1.63,1.63,0,0,1,122.16,109.93Zm36.16,2.76c10.87,10.34,22.77,22.25,32.59,32,0,5.12,0,15.37,0,15.37l-37.5,35.64a48.55,48.55,0,0,1-17.83-18.53,11.32,11.32,0,0,0,1.57-1.4l-2,1.16c-6.92-11.06-9.86-33.1,1.89-50.77l-11.87.43,1.94-4,12.92-.71,5.23-5.6s1.66-.31,3-.63,4.14-1.1,6.18-1.76,3.77-1.2,3.84-1.2Zm-87.66,2.86A47,47,0,0,1,88,133.77C68,151,60.43,171.07,58.73,192c-10.91-10.2-16.42-15.84-26.27-25.74l.36-14.78Zm42.13,1.93a155.89,155.89,0,0,0-7.59,20.18l-3.11-.91a30.8,30.8,0,0,0,2.9-1.38l-1.61-2.59,3.06-1.26-1.81-2.2,3.1-1.8-1.55-2,2.84-1.42-1.76-2,3-1.67-1.56-1.94Zm.95,0,.87.17c.12,0-.56,1.62-.48,1.68,1.08.22,1.14.16,1.47.26l.83-1.71,1.35.26c-2.74,6.18-5.66,12.94-7.34,20.25l-1.6-.33s.46-1.54.47-1.75c-.19,0-1.09-.42-1.37-.53-.1.24-.67,2-.67,2l-1.26,0C108.08,129.8,111.69,120.94,113.74,117.49Zm5.21.24,2.83,2.35-3.22,1.25,1.67,2.22-3.41,1.23,2,2.3-3.38,1.25,2,2.78-3.52,1.19,2.22,2.45L113,136.23l1.9,1.88-2.09.68a7.2,7.2,0,0,1-1.65-.25A110,110,0,0,1,119,117.73Zm-69,1.19c-.78.51-.34,1.61-1.32,2.56a2.22,2.22,0,0,0-.23.9c-.05.26-.82,3.34-.82,3.34a4.31,4.31,0,0,0,.5-1.22c.27-.84.5-2.43.64-2.7.73-.22.84-2.58,1.57-2.26.43.19.34.57.1,1.48-.52,1.81-.72,2.57.17,1.34,1.34-1.61,1.47-3.07,0-3.38A5,5,0,0,0,50,118.92Zm20.26.67-35,32.9-.11,12.28,12.2,12.36,8.65,8.39c3.14-18.79,10.35-36.72,28.1-52.23a42.31,42.31,0,0,0-13.8-13.7Zm94.45.34c-20.59,9.68-25.32,29.52-19,47.49C155.54,154.8,163.25,142.94,164.68,119.93Zm-73.28,1,9.35,3-3.52,12-8.42-2.56L88,131.27Zm72.25.32a74.3,74.3,0,0,1-17.49,44A35.07,35.07,0,0,1,163.65,121.25Zm-50.36.08-.59,1.5,1.29.36.55-1.51Zm-1.3,3.53-.53,1.52,1.33.45.5-1.54Zm55.16.28c-2.88,22.27-14.92,42.54-27.63,52.86a49.26,49.26,0,0,0,13.66,14.33L189,158l-.14-11.44Zm-94.63,5.91c-.22.81-.3,1.23-.3,1.23a8.17,8.17,0,0,1,1.5-1c7-3.51,4.77,1.83,1.45,3.8-.74.39-1.5.86-1.5.86s.71.16,1.47.3c4.27.89,3.36,3.39-1.09,3-.66-.06-1.43-.18-1.44-.15a16.33,16.33,0,0,0,.58,1.76c1.5,3.78-1.3,4.07-3.14,1.67-.26-.34-.84-1.26-.84-1.26s-.18.7-.29,1.37c-1.59,5.93-5.52,5.78-4-.23.18-.62.4-1.74.4-1.74a18.37,18.37,0,0,1-1.84,1c-5.09,2.27-5.91-.07-1.29-3.49,1.31-1,1.76-1.35,1.76-1.35a13,13,0,0,1-2.24-.36c-3.69-.92-4.67-3.12,1.24-3,.87,0,1.76.07,1.76.07s-.29-1.26-.6-2.22c-1.43-4.41,1.44-4.94,3.87-1,.51.84.66.85.66.85a8.52,8.52,0,0,1,.74-2.91c2.93-5.43,4.08-.47,3.19,2.81Zm63.33-4.4a50,50,0,0,0-5.63,13.17l-9.56-.16A51,51,0,0,1,125,127.12C128.92,127,132.43,126.84,135.85,126.65Zm-25.26,1.93-.55,1.6,1.39.42.5-1.55Zm-71.55,3a61,61,0,0,0-1.94,8c-.24,1.37,0,1.95.83,2.26a3.51,3.51,0,0,0,3.82-1.52c.54-.77.93-2.35,1-5.14l.09-2.49A25.35,25.35,0,0,1,39,131.58Zm70.26.35-.46,1.46,1.34.5.51-1.48Zm62,.55a5.22,5.22,0,0,1,3.41,1.05l2.84,2.93a3.92,3.92,0,0,0,2.71,6.75,6.87,6.87,0,0,0,2.76-1.13l4.5,4.67c-2.62,1.15-5.2-1.49-6.16-2.54a1.4,1.4,0,0,1-.29-.42,1.82,1.82,0,0,1-.05.65c-.38,2.08-2.43,8.21-4.39,7.89-2.21-.37,0-9.14.06-8.94-1.52,1.61-8.92,3.31-8.4,1.52,1-3.56,6.57-4.93,7.29-5.55-2.94-1.77-6.67-6.68-4.28-6.88Zm-131.86.11a6.63,6.63,0,0,1,2.21.45c.3.08.31.32.35.56,0,1.05.27,4.13-.71,4.17a4.47,4.47,0,0,0-2.81.75c-.57.44-.76.12-.61-1s.69-3.37.93-4.29a.66.66,0,0,1,.64-.64Zm29.23,0a3.93,3.93,0,1,0,3.93,3.92A3.93,3.93,0,0,0,68.63,132.63Zm0,1.37a2.55,2.55,0,1,1-2.55,2.55A2.55,2.55,0,0,1,68.63,134Zm20.24.05c9,15.52,7.95,36.82-2.65,52.31l11.39-.8-1.49,2.92L84,189.66c-1.86,1.7-3.55,3.64-5.37,5.46l0,.64A110.68,110.68,0,0,0,66,199.37c-2.24-2.2-6.45-6.6-6.43-6.71l.27-1.42c28.89-14.74,20.44-44.3,18.41-46.73A87.57,87.57,0,0,1,88.87,134.05Zm80.18,2.82a2.12,2.12,0,1,1-2.12,2.12A2.11,2.11,0,0,1,169.05,136.87Zm9.42.57L182,141.1a2.6,2.6,0,0,1-1.8.74,2.55,2.55,0,0,1-1.75-4.4Zm-121.94.46A2.12,2.12,0,1,1,54.41,140,2.11,2.11,0,0,1,56.53,137.9Zm-15.76.88c1,.34.76,1.26-.52,2.08a2.17,2.17,0,0,1-2.32.25C36.55,140.37,39.42,138.3,40.77,138.78ZM57.15,144,44.38,156.32a17.49,17.49,0,0,0,.9-6.15c3.84.4,5.45-1.55,4.88-5.56A22.66,22.66,0,0,0,57.15,144Zm20.45,1.41c5.92,16.88.78,34.74-17.73,45.08C60.63,174.29,67.42,158.83,77.6,145.38Zm16.86,1.48a135.53,135.53,0,0,0,33.74,3.91,80.27,80.27,0,0,0,1.24,14.06,126.45,126.45,0,0,0-34.13-3.7C95.83,156.3,95,150.83,94.46,146.86Zm75.34,2.5L159,162l.46-6.91c3.64.46,4.94-1.46,4.4-5.25A19.41,19.41,0,0,0,169.8,149.36Zm-105.13.7-.85,5.05c-2.16.06-4.28.83-4.25,5.65l-6.46-.08Zm119.07.93a2.12,2.12,0,1,1-2.12,2.12A2.12,2.12,0,0,1,183.74,151Zm-128.88.64a2.12,2.12,0,1,1-2.12,2.12A2.12,2.12,0,0,1,54.86,151.63ZM179,153.81l-1.13,7.65c-2.95-.26-5.41.19-4.65,5.38-2.49-.25-6,.34-8.28.54Zm-10.56,1.38a2.12,2.12,0,1,1-2.12,2.12A2.12,2.12,0,0,1,168.45,155.19ZM39.33,156.83A2.12,2.12,0,1,1,37.21,159,2.12,2.12,0,0,1,39.33,156.83Zm7,2.51c2.71.61,1.46,6.92.85,8.63-.05.05,7.55-4,8-2.2.3,3.56-6.29,6-6.29,6s4.44,3.85,4.57,6.28c0,1.56-1.86,1.27-4.28-.71-1-1-1.84-1.78-2.55-2.49a3.92,3.92,0,1,0-5.55-5.51c-.56-.54-1.2-1.18-2.05-2-1.4-1.31-2.39-2.35-2.25-2.82,1.85-1.3,5.53,2.19,5.85,2.51-.27-.68,1.76-7.4,3.7-7.76Zm-3.7,7.76s0,.06.07.06ZM158,164.27c1.29,0,1.21,2.91.75,4.43-.31,1.16-.62,2.11-.62,2.11a12.7,12.7,0,0,1,1.56-1.07c3.5-1.64,4.81.22,3,2.37-.85,1.11-2,1.35-2.94,2.29a9.06,9.06,0,0,1,4,1c.9.54,1.61,1.19,1.6,1.6,0,.9-2.22,1.39-4.3,1.16a11.83,11.83,0,0,1-2.55-.46,14.55,14.55,0,0,1,.94,1.86c.77,2.15.5,4.68-.62,4.67-1.88-.5-2.8-2.59-3.53-4.09a11.36,11.36,0,0,1-2.53,4.71c-1.33,1.23-2,.21-1.95-1.88a28.61,28.61,0,0,1,.64-3.31c-7.89,2.66-7.31-.94-1.15-4.1-3.79-1.81-6.1-3.43.36-3.8-.17-.16-1.3-3.61-.1-4.42s3.51,1.83,3.63,1.95a9.08,9.08,0,0,1,1.76-3.67c.87-1,1.51-1.38,2-1.38Zm-7.27,7.52a0,0,0,0,0,0,0Zm34.54-2.28c-1.37.12-2.23,1.34-2.86,2.4-.13.22-.37.3-.46.58a35.56,35.56,0,0,0-1.37,6.76c.87.36,2.83,1,3.7.64.25-.1.17-.73.25-.94,1.37-3.45,2-6,2-7.62C186.6,170.06,186.16,169.43,185.29,169.51Zm-141.2-.16a2.55,2.55,0,0,1,2.55,2.55,2.51,2.51,0,0,1-1,2c-1.65-1.63-2.49-2.49-3.59-3.57A2.55,2.55,0,0,1,44.09,169.35Zm141.69,1.21c.34.84-.77,1.75-2.2,1.74-.85,0-1.13.12-.75-.62.45-.9,2.29-2.72,2.95-1.12ZM166.55,170a2.12,2.12,0,1,1-2.12,2.12A2.12,2.12,0,0,1,166.55,170Zm-111.77.15a2.12,2.12,0,1,1-2.11,2.12A2.12,2.12,0,0,1,54.78,170.12ZM155,171a3.92,3.92,0,1,0,3.92,3.92A3.93,3.93,0,0,0,155,171Zm-52.41.53A64.16,64.16,0,0,1,98,184.62c-3.78.23-7.86.4-10.56.79,4.49-7.86,4.6-9.71,6.26-13.88Zm6.49.63c1.06.13,2.23.29,3.28.49a122.1,122.1,0,0,1-7.78,20.48l-2-.31-1-1.17,3.17-1.26-2.47-2.52,4.09-1.24-2.51-2.48,4-1-2.17-2.63,3.63-1.41-2.3-3L111,175Zm45.92.21a2.55,2.55,0,1,1-2.55,2.55A2.55,2.55,0,0,1,155,172.35Zm-41.92.39,1.35.22L114,174.4l1.54.33.5-1.56a8,8,0,0,1,1.36.21c-1.6,6.56-7.29,20.28-7.37,20.21l-1.46-.22L109,192l-1.36-.2h0l-.66,1.51-1.46-.13a141.44,141.44,0,0,0,7.59-20.42Zm71.59.52c1.08,0,1,.55.23,2.59s-1,2.68-1.37,2.93c-.85.6-2.68.1-2.53-.79.48-2.86.65-4.07,1.39-4.46A11.92,11.92,0,0,1,184.69,173.26Zm-66.17.24,3.52.68-2.94,1.75,1.87,2.18-3.62,1.54,2.2,2.27-3.49,1.43,2.12,2.49-3.62,1.53L117,189.5,113,190.79l1.54,2.37L113,194l-1.89-.29c3.13-7.32,5.15-13.33,7.44-20.22Zm8.64,1.75,6.89,1.87,1.38,2.46-3.24,10.91-9.17-2.7Zm-13.69,1.05-.65,1.79,1.51.31.59-1.84Zm-1.33,4.11-.66,1.8,1.43.28.67-1.82ZM110.8,184l-.67,1.78,1.38.29.66-1.79Zm64.71,3.28a7,7,0,0,0-.89.74c.15.41.6,1,.53,1.45s-.41.56-.93,1.11c-1.29,1.51-1.75,1.34-1-.27a5,5,0,0,0,.36-1,11.71,11.71,0,0,0-.73,1.31l-.82,1.6a7,7,0,0,1,1.9,1.3s.28-.73.46-1.43a2.52,2.52,0,0,1,1.41-1.71,3.71,3.71,0,0,0,.78-.6,6.39,6.39,0,0,1-1.07-2.53Zm-66.15.44-.71,1.9L110,190l.76-1.94Zm-77.92,4.77c-.13,7.56.12,12.54-.14,20.69l20.46,26.52-3.19,1.07s0,.37-.21.42c-4.37,1.2-11.46,2.4-11.46,2.4,5.27,12,8.69,27.11,6.33,42.15l53-.14Zm112,12.81-1.82,1.83c-26.94-14.58-64-14.52-91.11,3.13l-2.21-1.62C77.86,189.74,114.21,189.86,143.45,205.33Zm-111-10.16,62.34,89.56-7.32.1-55-71.9Zm133.78,1.62s-1.8.47-3.31,1c-4.33,1.39-6.36,3.9-6,7.37.12,1,.38,1,2.15-.1,4.13-2.61,4.39-2.72,9.53-4.23a2.72,2.72,0,0,1,1,0l-.23,4.06c-8.58,0-8.11,6.78-5.64,10.33-.86,1.63-2.75,7.35,3.47,9.53,3.1.61,6.39-1.91,6.29-2,5.72,2.71,12.36-1.83,7.18-9.69,2-3.43.58-6-1.28-8.16,0,0,.31,0,3,.52a25.34,25.34,0,0,0,5.68.63c0-3.7-3.06-5.36-9.45-5.86-4.52.64-12.43-3.31-12.43-3.28Zm-69,.43h.92l-.29,6.31-7,.32-.46-6.29c2.4-.17,4.63-.34,6.79-.35Zm8.34.16,7.47.9-1.13,5.91-6.88-.74Zm60.41.06c.77,0,.6.78-.3,1-1.34.26-4.78,2.27-4.78,2.79,0,.33.16.28,1.42-.39a30.92,30.92,0,0,1,2.92-1.28c1-.37,2.09-.81,2.47-1,1.16-.52,1.74-.16,1.32.83-.28.65-.39.7-3.07,1.55a13.73,13.73,0,0,0-4.41,2c-.58.37-1.6.95-2.27,1.3-1.58.82-1.91.83-1.9-.28-.09-3.27,3.53-5.73,8.44-6.43l.16,0Zm-64.47.77a1.69,1.69,0,1,1-1.69,1.69A1.69,1.69,0,0,1,101.48,198.21ZM83,198.66l.55,5.73-6.84,1.76-1.57-5.92c2.62-.64,5.24-1.09,7.86-1.57Zm88.16.44c1.88.28,1.73,4.58.77,5.32-1.48,1.07-2.38-1.16-1.72-4.11C170.4,199.43,170.74,199.12,171.17,199.1Zm-84.28.23A1.69,1.69,0,1,1,85.2,201,1.69,1.69,0,0,1,86.89,199.33Zm33.43.49,7.74,2.11-1.89,6-7.26-2Zm-4.21.12a1.69,1.69,0,1,1-1.69,1.69A1.69,1.69,0,0,1,116.11,199.94Zm63.3.5c3.33,0,7.73,1.71,7.73,4.28-.06.73-7-.24-10.17-1.52-1.14-.46-2.52-1.85-2.51-2.43,0-.34.67-.32.95,0,.45.54,2,1.11,5.7,2,2.81.71,3.09.74,3.09.31s-1.66-.92-3.46-1.22a29.69,29.69,0,0,0-3.14-.54c-.65,0-.81-.41-.26-.69a7.22,7.22,0,0,1,2.07-.24Zm-5.89,1.33c.84.4,1.14,1.18,1.61,1.6a3.87,3.87,0,0,1-1.77.61,6,6,0,0,1,.16-2.21Zm-101.33.47a1.69,1.69,0,1,1-1.69,1.69A1.68,1.68,0,0,1,72.19,202.24Zm-4.55.47,1.83,5.86-6.54,2.84-2.32-5.8A58.55,58.55,0,0,1,67.64,202.71Zm30.24,1s5.21,0,7,0l-.42,6.61-6.5,0Zm-7,.36.37,6.6-6.26.84-1.24-6.64Zm39.58.06a1.69,1.69,0,1,1-1.69,1.69A1.69,1.69,0,0,1,130.5,204.09Zm45.29.15c3.81,0,7.45,4.41,3.68,9,6.18,4.75-.54,12.74-6,8.08-7.81,7.67-12.17-2.74-8.94-5.5-4.77-7.84,1.09-12.8,7.14-9.34A5,5,0,0,1,175.79,204.24Zm-63.8.19,6.87,1.53-1.38,6.52-6.71-1.36Zm22.73.16,6.28,3.12-4.87,4.69-3.62-1.8Zm-40.26.74A1.69,1.69,0,1,1,92.77,207,1.69,1.69,0,0,1,94.46,205.33Zm13.57.21a1.69,1.69,0,0,1,0,3.38A1.69,1.69,0,0,1,108,205.54Zm-31.27,1L78.29,213l-6.36,2.15-2.28-6.36Zm4.37.46a1.69,1.69,0,1,1-1.69,1.69A1.69,1.69,0,0,1,81.13,207Zm94.16,3c-.48.59-1.11,1.29-1.11,1.29a4.37,4.37,0,0,0-4.14.31s-1.09-.86-2.09-1.67c-1.73-1.39-2.3-1.71-2.3-1.13a5.94,5.94,0,0,0,1.3,1.33,15.09,15.09,0,0,1,2.34,2.26,4.11,4.11,0,0,0,.43,4s0,.17-.65.89c-1.24,1.3-2.51,3.32-2.22,3.62s1.4-.51,2.7-2.27c.93-1.25,1.21-1.28,1.21-1.28,1.58.43,2.46.81,4-.49a6.27,6.27,0,0,1,1.78,1.16c1.86,1.53,2.53,1.86,2.73,1.34s-.08-.7-1.65-1.9c-1-.78-2.17-1.69-2.17-1.69a3.84,3.84,0,0,0-.57-3.83s.05.08,1.74-2.11c1.12-1.46,1.32-1.64,1-2-.5-.65-2.16,1.95-2.32,2.16Zm-49.06-1.87,6.2,2.6-2.22,6.48-6-2.44Zm-68.18.43a1.69,1.69,0,1,1-1.69,1.69A1.69,1.69,0,0,1,58.05,208.53Zm63.39.18a1.69,1.69,0,1,1-1.69,1.69A1.69,1.69,0,0,1,121.44,208.71Zm-67.72.46,2,5-4.62-3.43Zm50.85,1.3,6.18.72-1,5.89-5.32-.49Zm-6.74,0-.06,6.05-5.86.25-.5-6Zm-30.16,1.1A1.69,1.69,0,1,1,66,213.27,1.69,1.69,0,0,1,67.67,211.58ZM63,211.7l2.39,6.08-3.7,1.78-5-4.69Zm22.07.08,1,5.78-6.12,1.51-1.48-5.88Zm87.4.06a2.41,2.41,0,1,1-2.41,2.41A2.41,2.41,0,0,1,172.46,211.84Zm-71.55.18a1.69,1.69,0,1,1-1.69,1.69A1.69,1.69,0,0,1,100.91,212Zm16.66.62,6.52,2.11-2.2,5.23-5.63-1.53Zm-28.9.22A1.69,1.69,0,1,1,87,214.55,1.69,1.69,0,0,1,88.67,212.86Zm24.79.62a1.7,1.7,0,1,1-1.69,1.69A1.69,1.69,0,0,1,113.46,213.48Zm-41.4,2,2.24,5.17-6.13,2.65L65.5,218Zm4.34.31a1.69,1.69,0,1,1-1.69,1.69A1.7,1.7,0,0,1,76.4,215.77ZM99,217.33a69.38,69.38,0,0,1,26.46,5.11l-2.17,2c-23.67-8.14-39.15-4.47-55,2.49l-1.61-2A73.54,73.54,0,0,1,99,217.33Zm26.78.07a1.69,1.69,0,1,1-1.69,1.69A1.69,1.69,0,0,1,125.78,217.4ZM64.1,221.11c1.36.08,1.49,2.61.85,1.88l-1.51-1.75A1.41,1.41,0,0,1,64.1,221.11Zm63.27,1c-.05,1.93-1.87,14.81-8,23.66a62.45,62.45,0,0,0-2.66-13.41S123.31,226.3,127.37,222.15ZM48.8,241.67l32,43.1-3.36,0c-.7-3.17-1.71-6.4-3.7-8.82a15.09,15.09,0,0,0-6-4.77c-1.75-.8-2-.63-2.09-2-.52-7.54-6.63-12.28-11.3-14.08-.45-4.56-2.51-9-7.67-12.82Zm-3.12,1c2.92,2,6.13,3.75,7.85,11.66.13,1.66.23,1.48,1.53,2,5.1,1.49,9.53,7.62,9.92,13,0,1.61.52,1.76,2.51,2.59a15.84,15.84,0,0,1,6.42,5.33,17.5,17.5,0,0,1,2.7,7.51H74.85c-1.25-7.88-6.21-11-11.46-12.5.41-11.13-8.24-14.6-11.27-15.13.18-8-5-11.32-8.36-14a10,10,0,0,1,1.92-.39Zm-5.17,1.11c2.62.85,4.6,4.5,4.4,6.17,3.45.44,7.07,3.77,6.28,7.24a.84.84,0,0,1-1.06-.22c.92-6.73-9.13-3.4-5.11,1.47l-1.8,1.18c-1.45-6.74-3.23-10.56-5.16-15.43.71-.19,2.45-.41,2.45-.41Zm8.33,14.12a1.62,1.62,0,1,1-1.62,1.62A1.62,1.62,0,0,1,48.84,257.93Zm8.63,7.27a7,7,0,0,1,5,6.39l-.84,0c-1.35-6.16-8.37-2.8-5.44,2.11-3.75,1.38-3.45,4.85-2.35,6.22a4,4,0,0,0,6.6-1.08c3.65,4.72,8.68-.58,4.24-5,3.64,1.34,4.22,6.22,3.67,7.74,1.69.57,3.64,3.25,3.38,3.24H44.44s1.31-11-.09-19.29c1.82.43,3,.87,5.12-1.58,3.37,2.8,5.8.69,5.63-1.73a4.56,4.56,0,0,0-2.58-3.42c2.95-.72,5.18,4.39,4.95,6.4Zm3,7.75a1.67,1.67,0,1,1,0,3.33,1.67,1.67,0,0,1,0-3.33Z" transform="translate(-5.81 -10.79)"/>
  </g>
</svg>
