<svg xmlns="http://www.w3.org/2000/svg" viewBox="0 0 211 284.5">
  <defs>
    <style>
      .a {
        fill: #e2cf00;
      }

      .b {
        fill: #d40000;
      }

      .c {
        fill: #131f67;
      }
    </style>
  </defs>
  <title>dq</title>
  <g>
    <path class="a" d="M134.74,19.11s25.1,35.72,33.61,42.09c.63.28,11.13-1.69,11.13-1.69-5.38-12.7-8.84-25.8-5.35-40.5ZM148.68,75.6c-17.3,4.81-34.58,9.33-53.34,1.49L74.85,96.57c-.17.51,26.55,11.85,27,10.6l-6.55,20.67,15.17,3.28,7-22s20.94-2,30.66-5.26c7.38-2.5,15-4.31,21.61-9.77a74.48,74.48,0,0,1-21-18.56ZM44.59,81.36c-6.57-4-11.69,4.19-6.88,8.27-.57,2.37-.77,5.92,1.57,7.47,2.15,1.34,6.16,0,6.73,0,.05,0,.11,4.28-.22,4.27-.62,0-3-2-4.41-2.41-4.89-1.44-11.77-2.15-11.65-2,.21.42-1.21,1.41,4.24,4.78,2,1.25,8.43-.15,13.52,1.43,3.11,1,6.17,2.57,7.85,1.77a11.53,11.53,0,0,0,5.42-5.87c.23-2.47-12.79,2.87-12,2.94v-5c5.25.57,10-3.17,4.83-9.59C57.39,83.72,52,74.77,44.59,81.36Zm21.83,22.72c-12.9,12.8-39.27,36.83-39.27,36.83l.27,17.93,25.81,22.69c2-24.09,15.94-46.57,29.14-57.8,1.22-3.42-13.16-18.43-16-19.63Zm91.94,4.42c-2,14.82-3.71,35-29.24,57.48,4.41,7.42,10,15,18.15,18.56.58,1.27,23.42-23.28,37.49-34.89l-.08-15.72ZM43.3,111.69c0,.32-1,4.21-1.24,4.11,0,.21,2.61-1,2.91-2s.86-2.2.9-2.38C45.28,107.39,44.17,110.24,43.3,111.69ZM33.74,122a20.85,20.85,0,0,0-1.48,8.9c4.57,2.24,5.81-7.13,4.58-8A12.35,12.35,0,0,0,33.74,122ZM174.9,165c-.41,1.87-.32,2.43.52,2.79,1.48.63,2.14-.14,3.33-3.18.71-1.81,1.33-4.53.77-5.62-2.8-2-4.28,4.57-4.61,6Zm-69.13-4.39a12.29,12.29,0,0,0-2.56.21c-7.54,1.7-6.94,14.66-8.25,19.85-23.71,3.33-30,4.89-36.47,7.55-10.09,4.08-13.29,6.57-16,8.62,1.69-.19,19.85,16.45,20.73,18.79-1.15-3.22,35.06-11.06,54.34-3.18,2.37.83,20.39-17.22,19.86-19.23,2.34-4-22.71-8.56-25.87-11.07-2.62-13.72,17.44-21.24,3.54-20.84-2.53.08-6.14-.75-9.35-.73Zm63,15.42c-.45.52-.89.8-1.47,1.41L166,179.19l1,1.52,2.47-2.67Zm-17.67,17.28c2.6-1.16,11.83-5.56,12.23-4.55l-.2,4.41c-1.41-.45-10.53,1-5.26,10.29-3.31,7.35,4.08,11.15,9.26,6.29,10.92,3.66,9.41-7,7.17-8.79,1.76-2.7-.45-8.45-1.56-8.47,0,0,9.48,2.11,8.55.44a8,8,0,0,0-3.05-3.44c-2.43-1.61-6.69-1-10.15-1.73-3.69-.77-6.06-2.06-9.17-2.25-4.67.42-9.05,4.46-7.82,7.77ZM45.53,228l-13.05,3.44s4.23,9.65,5.68,18.3a86.86,86.86,0,0,1,.36,22l37.9.19Z" transform="translate(-0.8 -3.35)"/>
    <path class="b" d="M199.7,287.59c-5-1.71-5.1-4.8-5.26-8.8a81,81,0,0,1,.62-17.12c.34-1.48.52-2.24-1-2.77a14,14,0,0,0-2.49-.28v-3.68a7.37,7.37,0,0,1,4.36.69l1.26.75c2-1.82,7.09-2.09,9.53.16,1.62,1.6,2.15,2.93,2.26,6.56a22.74,22.74,0,0,1,0,2.86h2.81v3.58H209s.06,1.78,0,5.64a52.67,52.67,0,0,1-.33,6.4c-1,5-5.47,7.1-8.93,6Zm5.4-6.18c1-2.57.57-12.51.57-12.51-4.21-1.6-5.95-4.09-7.7-5.87,0,0-.71,11,.14,17,.77,4.89,5.3,5.67,6.95,1.39Zm0-16.71c.22,0,.48,0,.51-.05.33-.9-.23-4.63-1.18-5.39a3.53,3.53,0,0,0-4.81.09,23.73,23.73,0,0,0,4.44,4.79,2.26,2.26,0,0,0,1,.56Zm-125.57,7c-16.62-23.36-32-45.59-52.49-70.08,0,0,0-9.47.09-18.86L90,271.51Zm58.22-30.52a148.44,148.44,0,0,0,20.05-27.77,113.32,113.32,0,0,0,21.69,27.46,107.33,107.33,0,0,0-20.78,28.19,111.2,111.2,0,0,0-20.93-27.88Zm54.68-2.83a81.87,81.87,0,0,0,9.38-12c3.16,4.4,5.06,7.71,9.31,12.36a66.69,66.69,0,0,0-9.21,11.77c-3-4.69-6.1-9.11-9.45-12.16ZM113.2,234a95.44,95.44,0,0,0-2.78-14.31l11.48-10.65c-1.21,9.51-3.11,16.81-8.67,25ZM168,200.45c2.58,3.35-1.75,5.22-3.39,3.72-3.29-3,1.57-6.19,3.42-3.72ZM54.29,179.3c-1.9,1.2,3.43-29.31,18.05-45C81.23,159.35,65.5,173.4,54.29,179.3Zm72.13-.11-9.72-2.58,4.84-13.37s9.12,2.11,8.34,4.89c-2.53,9-3.46,11.07-3.46,11.07Zm-44.95-5.14a81.65,81.65,0,0,0,6.46-13.75l13.8-1.88-8,15.28ZM140,155.29c-7.52-14.72,1.34-38,17.68-44.45A70.18,70.18,0,0,1,140,155.29Zm-50.55-4.21a74.49,74.49,0,0,0-1-15.57L122.66,140l1.2,14.1Zm25-22.4c1.16-4.49,2.18-8.22,4.42-11.85,2.49.08,12.58-1.57,11.3.37-2.75,3.46-4.06,9.07-5.86,12.59C122.47,129.6,113.92,131,114.49,128.68Zm-22.64-2.57c-3.46-1.2-8.18-1.53-10-4.17l3.6-11.22L96.08,114ZM121.73,19.19l8.35-.08s40.1,50.5,55.13,70.15c-.51,1.95.16,18.95.16,18.95C164.08,78.68,121.73,19.19,121.73,19.19ZM44.84,89.6c-2.24-2.38,1.32-4.47,2.81-2.36C49,89.11,46,90.85,44.84,89.6Zm45-8.29c.13-11.72,8.56-25.58,8.48-25.23-.1,0,1.2,11.44,2.82,15C100.69,71.77,90.23,82.05,89.83,81.31Zm-35.91-3.9A110.43,110.43,0,0,0,32.68,49.26c8.53-7.93,14.89-17.73,21.47-27.36A145,145,0,0,0,74.48,50.07C66.57,57.72,59.1,68.56,53.92,77.44Zm-52.6-25c3.83-3.76,9.49-12.31,9.43-12.32,2.69,4.33,5.53,8.8,9.44,12.39A62,62,0,0,0,11,64.8,52.1,52.1,0,0,0,1.34,52.46ZM.8,25.25V21.63H3.55V17c0-6.92.38-9,1.79-10.81C9.12,1.43,16.06,2.89,17.88,8.82a11.72,11.72,0,0,1,.48,3.11c.08,3.91.09,10.46,0,14.54.06,1.6-.51,3.68-.93,4,.2,1.46,2.52,1.75,4,1.63v3.79a21.77,21.77,0,0,1-3.23,0,8.2,8.2,0,0,1-2.44-1.43,10.57,10.57,0,0,1-5.1,1.76c-7.94-.15-7-9.86-7-11Zm6.34,1s0,1.37.09,2.28c.27,3,2.27,4.57,4.25,4a4,4,0,0,0,1.58-.9c-1.68-2.49-3.7-4.57-5.92-5.44Zm7.34-15.07c-.84-4.55-5.19-5.24-6.83-1.4a53.33,53.33,0,0,0-.54,6.17V22.4c3.52.76,5.47,3,7.67,5.51,0,0,.48-11.65-.3-16.77Z" transform="translate(-0.8 -3.35)"/>
    <path class="c" d="M25.51,17,25.19,273H187L187,17.41Zm147.88,2c-1.31,14.17-1.54,25.28,6,40-1.35,1.39-11.51,1.79-14.72,3.43-.06.4.82,1.08.82,1.08,3.36-1.53,16.42-2.93,16.42-2.93-5.47-9.39-10-27.44-6.58-41.29h9.43l-.06,68.22s.73,13.17,1,20.59c-5-6.39-11.68-15.31-16-21.93-5.27-7.3-11.14-15.87-17.18-23.91-1.77-2.53-4.31-5.86-6.37-8.79-3.26-4.57-5.95-8.12-9.3-13-3.6-5.1-7.05-9.77-11.32-15.63-3.61-5-3.78-5.58-3.78-5.58Zm-61.92.27c6.11,10.46,17.05,14,19.8,14.65l1.61,2.31a34.86,34.86,0,0,1-23.06-15.64,3,3,0,0,1-.21-1.3Zm-6,0c-1.69,3.95-4,6.22-6.3,8.6l.07-2.53a21.74,21.74,0,0,0,4.5-6.07Zm3,0a3.43,3.43,0,0,1-.14,1.23c-1.3,4.12-9.34,11.93-9.12,10.74l-.08-2c0,.09,6-5.7,7.64-10Zm-5.84,0c-.63,1.15-3,4.62-3.18,3.66l.21-3.66Zm18.37,0c1,1.44,1.94,2.5,3,4a1.18,1.18,0,0,1,.27.74c-.17.41-.65.11-2-1a38.42,38.42,0,0,1-3.67-3.66Zm-8.13,0h2a28.22,28.22,0,0,0,14,11c.68.74,1.4,2.08,1.69,2.38-6.85-1.83-14.52-7.53-17.64-13.41Zm4.8,0c2.18,3.08,5.59,5.25,7.52,6.74,1,.8,2.4,2.42,2.27,2.74-4.32-1.35-9.28-6-11.59-9.48Zm-8.42,1.88L110.36,23A39.82,39.82,0,0,1,99,35.22V32.78C104.51,29,106.88,25.05,109.17,21.14Zm2,2.71a36.67,36.67,0,0,0,22.74,13.72,13.45,13.45,0,0,1,1.66,2c1.25,1.68,1.27,1.75,1.43,4.48a55.7,55.7,0,0,0,3.41,16.12c-.2,1.07-.38,1.61-2.43,4.33-8.5,11.3-26.63,22-35.55,7.41-3-4.68-3.28-13.68-3.46-19.24,0,0,0-.4.07-.5.22-1,.52-.86,2.13-.42,1.64.68,3.33.13,5.06-.33,2-.78,2.13-.19.24,1.56A12.6,12.6,0,0,0,105,54.36a12.09,12.09,0,0,0,1.68-.86c1.52-1.13,1.87-.7,1.32.55-2.4,5.31-2.81,5.52.54,7a6.37,6.37,0,0,1,1.57,1c2.29,2.13,1.47,1,.82,0-1-1.54-.08-2.34,1.58-1.39a5.48,5.48,0,0,0,3.37.9c1.55-.5,2-2.16,1.56-4-.37-1-2.48-2.8-2-1a1.75,1.75,0,0,1,1.26,2.93c-.83,1.1-2.31.51-4.59-1-1.25-1-2.78-.46-2.72.68,0,.78-1.07.6-1.78-.38-.41-.54-.13-2.11.62-3.59,4.71-9.33.74-18.38-7.43-15.83-.89.28-1.71.51-1.71.51V36.33c4.69-3.21,9.66-8.34,12-12.57Zm4.78,16.74c-1.23,1.47-.8,2.77,1.9,1.46a8.73,8.73,0,0,1,4.91-1.28c3.4-.12,6.46,1,10.24,3.23,2.5,1.52,2.87,1.62,2.18.68-2-3.81-14-9.6-19.26-4.09ZM104.36,41c2.37.59,4.63,2.12,4.24,2.76-.15.23-.28.27-.58.12a9.29,9.29,0,0,0-8.47-.54c-.44.18-.68-.1-.67-.62,0-1,1.72-1.82,3.55-1.88a8.61,8.61,0,0,1,1.9.16ZM118.09,44c-1.41.73-1.89,1.11-2.49.78-1.43-.77-1.13-.16-.24,1.38.63,1.1.62,1.32.53,2s-.09.75.63,1.53a19.51,19.51,0,0,0,4.69,4.73,16.5,16.5,0,0,0,1.53.89c.2,0,.13-.16-.23-.5-2.58-2.44-4.62-4.63-2-3.7,3.06,1,6-.24,8.35-1a15.58,15.58,0,0,1,2.24-.55c2.21,0,2.72-.89,1.31-2.26-4.76-5.26-8.71-6.5-14.33-3.26Zm11.3,1c1,.89,1.49,1.38,1.4,1.61s-.87-.17-2.14-.84a11.65,11.65,0,0,0-9.06-.62c-2.81.79-2-.47,1.15-1.66A8.21,8.21,0,0,1,129.36,45Zm-26.24-1.82a9.17,9.17,0,0,1,5.88,2c1,.88.28,1.08-1.42.4-2.56-1-4.72-1.21-6.83-.25a7.21,7.21,0,0,1-1.63.65,1.11,1.11,0,0,1-.19-1.4,6.66,6.66,0,0,1,4.16-1.32Zm35.37.74c.16,0,.39.25.75.73.65.89.67,1.33.13,2.93-.64,1.9-.9,1.59-1.07-1.06-.14-1.72-.14-2.58.16-2.57Zm2.13,2.85c.25,0,.53.39,1,1.27.33.61.25.8-.74,3.67-.42,1.19-.81,2.15-.82,2.16-.31.25-.27.22-.4.06-.72-.9-.67-2.64,0-4.73.46-1.58.71-2.38,1-2.43Zm-19.33.22a5.07,5.07,0,0,1,.54.09c0,4.25,3.3,3.4,3.73.38,0,0,.83-.09,1,.12.39.63-.53,2.45-1.9,3a3.08,3.08,0,0,1-3.18-.41,6.22,6.22,0,0,1-.79-2.65.82.82,0,0,1,.64-.58Zm-2,.49h.1a.67.67,0,0,1,.7.5l.71,2.16c-.53.61-2.52-.64-2.52-1.58a1.07,1.07,0,0,1,1-1Zm-13.58,0c.51,0,.69,0,.75.47.17,1.41-1.26,2.93-3.11,3A2.35,2.35,0,0,1,100.71,49a2.09,2.09,0,0,1,0-.56c0-1,.89-1.13,1-.33.29,2.3,2.3,2.44,3.21,1.16.31-.46.22-1.71.82-1.77Zm22,.47a1.61,1.61,0,0,1,.61.15c1.85.57,1.9.86.32,1.41-1.88.67-2,.76-1.57-.53.21-.69.28-1,.6-1Zm-19.55.25c1.36.07,1.47,1.22.27,1.6-1.79.78-2.4.72-1.7-.42C107.07,48.5,107.41,48.14,108.18,48.14Zm-8.57.41a1,1,0,0,1,.56.2,16.63,16.63,0,0,0,.82,1.71,1.16,1.16,0,0,1-1.38-.06C98.76,49.73,98.91,48.56,99.61,48.55Zm43,1.31c.53,0,1.07.83,1.25,1.45-1.86,2.35-1.56,6.73-2,8-.38,1.09-.49.15-1.53-2.64-.41-1.12,1.69-6.72,2.18-6.84Zm1.9,2.41a2.15,2.15,0,0,1,1.07,1.6,6,6,0,0,1-.34,1.78,45.47,45.47,0,0,0-1.07,7.05c-.08,1.14-.07,2.15-.12,2.25-.56,1.07-1.74-1.83-1.63-4.13.31-1.85.47-8.3,2-8.55Zm2.62,3.31a3,3,0,0,1,.51,1,5.68,5.68,0,0,1-.3,2.55,31.81,31.81,0,0,0-.17,11.55c.12.85-.47.42-1.38-1a7.81,7.81,0,0,1-1-3.22c-.32-2.85.29-6.72.8-9.77.2-1.39.36-2.58,1.48-1.06Zm1.41,2.21,1.5,1.77a54.29,54.29,0,0,0-.64,6.24,95,95,0,0,0,1,10.37c-.92-1-1.34-1.61-2.34-2.88-.12,0-1-8.71-.39-12a27.29,27.29,0,0,1,.85-3.46Zm2.34,3.52c.25,0,.57.26,1,.82a2.55,2.55,0,0,1,.55,1.52c0,.46-.22.8-.23,1.61a70.6,70.6,0,0,0,1.45,13.68c.3,1.56-.26.92-1.21-.07a5.24,5.24,0,0,1-1.35-2.54c-.09-.25-1-9.12-1-9.77,0-2.75.11-4.29.44-4.94.11-.22.22-.33.37-.33ZM145.44,71s-1.74.88-2.19.56c-.73-2-3.38-7.23-3.42-8.16a10,10,0,0,1,1.1-1.69A99.51,99.51,0,0,0,145.44,71Zm-32.67-6.33c-.52.6-1.14.35-2.41-.19-.65-.19-.55.06-1.61.61a2.9,2.9,0,0,1-1.68.43c-.72,0-1-.26-1,.24a11.46,11.46,0,0,1-.22,2.19c-.23.88-.43,1.27-.3,1.42.36.33.67.13,1.45-.61,1.29-1.22,2.16-.88,3.6-.42,1.63.52,2,.71,3.46.2,2.12-.73,3.39-.73,4.23-.2,1.45.91,1.9.85,1.29-1.63-.19-.81-.21-2.05-.33-2.27s-.49.45-.88.72c-.75.48-1.12.47-2.79-.06-1-.33-2.09-1.36-2.83-.43Zm26.8.33c.64,1.48,3.21,6.49,3.13,7-.5.44-1.17.76-1.56.36a44.49,44.49,0,0,1-2.71-6.12c-.31-.62.61-2.19,1.14-1.28Zm13.77-.19c.18,0,.56.35.84.72a3.12,3.12,0,0,1,1,2.54,52.93,52.93,0,0,0,2,13.86,19.11,19.11,0,0,1,.67,1.95c-.43.63-2.43-1-3-3.55a69.56,69.56,0,0,1-1.57-8.72c-.34-3.82-.34-6.55.17-6.75ZM138,67.25c.75,1.41,1.68,3.83,2.3,5.28.29.64-1.18,1.13-1.5.92-.59-.43-.87-1.64-1.26-2.37-1.22-2.61-1.43-2.67-.76-3.49C137.15,67,137.64,66.33,138,67.25Zm18.28,1.62c.11,0,.25.1.43.32a7.07,7.07,0,0,1,1.49,2.25,9.87,9.87,0,0,1,.09,1.72c.13,2.28.74,5.41,2.47,11.81a9,9,0,0,1,.37,1.55c-.16,1.18-1.92-.72-2.42-2.69a58.55,58.55,0,0,1-2-7.71c-.67-4.18-1-7.25-.46-7.25Zm-19.85,1.69c1.46,3.34,1.57,3.33.66,3.6s-1,.19-2.17-2.09c-.82-1.66-1-1.86-.29-2.47,1.08-1.23,1.39,0,1.81,1Zm-20.26-.79c-.16,0-.65.36-1.15.55a8.38,8.38,0,0,1-4.63.11c-2.3-.91-1.66.27.39,1,1.57.51,4.71.11,5.2-.85C116.25,70.26,116.35,69.76,116.12,69.77Zm17.52,1.74c1.3,2,1.69,2.77,1.47,2.94a2.29,2.29,0,0,1-1.65.38c-.54-.26-1-1.48-1.24-2.44.19-.45,1.05-1.31,1.44-.88Zm-32.52.84c.57,0,2.09,2,1.79,2.36-.09.19-.66,0-2-.35-.45-.16-1.44-.3-1.12-.92a3.65,3.65,0,0,1,1.34-1.09Zm31.13,2.74c-.13.34-1.11.42-1.52.39a5.82,5.82,0,0,1-.56-1.56c.14-.3.81-1,1.14-.9A10.71,10.71,0,0,1,132.25,75.09Zm27-2c.21,0,.57.36,1.1,1.11,1,1.42.87,1.31,1.59,4.69.81,3.87,1.81,6.59,2.8,10.51,0,.66-.25.48-1,0-1.2-.71-1.6-1.51-2-3.59-.64-3.43-2-6.62-2.52-10.67-.28-1.34-.3-2.07,0-2.06ZM129.07,74.5c.7,0,.6,1,.41,1.23-.52.44-2,.31-2.19.33-.52-.81,1.33-1.5,1.8-1.53Zm33.74,3.65c.21,0,.78.81,1.82,2.26s.78,1.16,1.39,3.44c.84,3.16,2.25,5.45,3.08,8.35,0,.33-.41.29-.8.13A8.73,8.73,0,0,1,166.21,91c-.44-.47-.44-1.07-1.74-5.47-.46-1.6-.59-2-1.18-4.43-.49-2-.7-2.93-.48-2.93ZM54,87.63c3.42,6.18,2.15,8.92-5.2,9.77-.52-.07,0,3.17,0,4.62C52.47,100,56.91,99.47,61,98.11c-1.11,3.53-3.08,7.51-9,6.9-6.24-4.66-13.55-1.8-18.51-3.76a6.43,6.43,0,0,1-3.72-4.43c3.23.32,6.87,1,10,.78-3.42-2.6-2.42-6.18-2-7.82-4-5-.67-10.56,5.15-9.26a11.43,11.43,0,0,1,1.78.72c5.61-4.95,12.11-.31,9.23,6.4Zm113.51-3c.23,0,.74.57,1.77,1.95a91.48,91.48,0,0,1,5.65,8.32c-.14.73-3.31-.54-4.12-1.58s-3.48-7.26-3.47-8.23C167.32,84.8,167.36,84.65,167.49,84.65ZM43.25,102.6c1.58.24,2,.36,2,1,.14.52-3.85.59-4.39.2s.12-1,.55-1.14A4.32,4.32,0,0,1,43.25,102.6Zm109.9.56c-22.29,10.36-31.39,37.9-20.15,59l-1.55,1.09C120.43,141,128.63,117,146.54,105c.72-.51,2.33-.9,3.07-1.39,0,0-7.3,1.64-9.77,2.59a6.15,6.15,0,0,0-3.57,2.19c-1.38,1.26-5.7,7.13-5.56,7.33l-11.51.46v.41l11.29-.25c-11.62,18.84-8.77,36.75-1.59,49.3l.18.12c.42.27,1.52-.52,3.79-2.64.93-.88,2.11-2,2.63-2.41,1.4-1.28,3.4-3.46,4.78-5.05-7.81-15.63-.11-36.32,18.19-45.63a18.33,18.33,0,0,0-.2-2s-.69-.61-1.1-.54c-20.37,8.79-28.53,30.76-20.25,50.71l-1.37,1.46c-10.4-20.65.76-46.48,20.25-53.78,0-.47-.43-1.07-1-.71a40.56,40.56,0,0,0-20.28,54.18c.14.3.29.6.43.89l-1.3,1.13c-11.72-22.9.63-48.57,20-57.34.57-.13-.5-.83-.5-.83Zm-113.37.21s-.14,1.23.3,1.65c.2.87-.12.77-.87.59-1.86-.43-.41.61,1.1,1.44s1.3.8,0,1.61c-.88.55-.79.75-.67,1.16.18.62.3.21.66-.11a2.76,2.76,0,0,1,2.05-.86c1,0,1.11.8.93,1.42-.39,1.32-1.77,1.24-2.89.92-1.84-.54-4.85-3.67-4.8-5.52C35.45,104,37.76,103.31,39.78,103.37Zm8.28.41,2.6,1a16.07,16.07,0,0,1,3.63,1.71,5.79,5.79,0,0,1,2.35,5.7l-14,13.1-1.54-.75c-2.36-1.19-2.93-1.81-1.62-2.47a2.06,2.06,0,0,0,.94-1.67c.12-.9.07-.74.61-1.15.94-.71,1-1,1-2.19a2.83,2.83,0,0,1,.38-1.63,7.66,7.66,0,0,0,.64-2.14,2.39,2.39,0,0,1,.06-.66,1.91,1.91,0,0,1,.56-1.12,5.06,5.06,0,0,0,.58-1.22c.39-1.08.32-1,1-.8.92.18.78.7.68,1.53a1.86,1.86,0,0,1-.22.61,2.91,2.91,0,0,1,.8-.42.51.51,0,0,1,.64.34.4.4,0,0,1,0,.15c0,.25-.07.72-.07,1.07a11.9,11.9,0,0,0,.27,2.79c1,3.53.84,3,.48.1a12.59,12.59,0,0,1-.08-2.6,5.19,5.19,0,0,1,.49-1.77c.61-1.06.65-1.26-.69-1.78-.49-.2-1.34-.54-1.51-.87a2.71,2.71,0,0,0-1.67-1.17c-2-.46-3.19-2.38-2.9-2.66s1,0,1.52.07c1.83.07,2.22,0,3-.71.44-.38.64-.7,1-.72a3.92,3.92,0,0,1,1.1.35Zm95.42,2.12c-18.86,15-22.13,39.26-12.73,58l-1.63,1.25c-11.81-22-3.87-45.65,10.63-58.62ZM34.73,107.69c.34,0,.69.45,2,1.84a13.14,13.14,0,0,0,2.32,2c1.1.53.86.3-.06,1.16-1,1.07-.43,2-1.55,1.41-2.93-1.35-5-5.34-3.09-6.3A1.17,1.17,0,0,1,34.73,107.69Zm-1.46,4.19h.23c.36.09.8.77,1.27,1.23a9.13,9.13,0,0,0,3,2.32c1,.44,1,.55.32,1.34a2.4,2.4,0,0,0-.47.82c-.06.19-.08.43-.3.48-1.14.21-5-2-5.08-3.62.11-1.47.52-2.52,1.07-2.57Zm8,.43c.65,0,1,.57,1,1.51,0,.64-.38.91-1.13,1.18-1.61.6-2.6-.54-1.48-1.79a2.62,2.62,0,0,1,1.59-.9Zm-1,3.81c1.21,0,1.57,1,.67,1.89s-2.53.82-2.52-.08a2.34,2.34,0,0,1,1.88-1.81Zm-7.54,1.22c.83.23,2.82,1.65,3.71,1.81,0,.48-.54.62.28,1.52.38.41.42.68.09.86-1,.52-4.48-1.15-4.71-2.86C32,117.83,32.32,117.36,32.78,117.34Zm4.54,2c1.19.06,2.55.09,2.4.65-.1.4-.52,1.49-1.07,1.28a2.2,2.2,0,0,1-.71-.54c-.61-.59-.78-1.39-.59-1.39Zm45.23,4.88c3.48,3.11,16.14,35.55-10.24,59.17l-5.59,1.65C92,165.54,87.82,137.73,81,125.74c0-.35-.1-.31-.72.24s-.62.6-.4.7C87.59,138.4,90.48,171.41,60,187.36c-.52.51.51.44.51.44.06-.43,13.71-3.7,12.75-3.78C86,173,97.1,146.56,83.28,123.55c-.33-.22-.77.71-.77.71Zm-4.4,3.68-.18.73c11,21.34.51,47.47-20,57.14a6.46,6.46,0,0,0,1.1.59c23.27-12.34,30-38.46,19.85-58.68Zm-1.84,1.51-.13.77c9.17,18.15,1.91,43.33-19.9,53.57-.21,1.09,0,.77,1,.72C82.51,171.19,84.88,145.85,77,129.4Zm-1.57,2.18c-.72.93-2,1.41-2.45,2.6,7.33,19.07-2.15,37.44-18.19,45.17,0,1-.71,3.34,1,2.94C75,173.54,83.54,150,74.88,131.53Zm99.55,36.88a15,15,0,0,1,2.06.35c2.46.31,4.06,2.08,3,3.16-.37.35-.87.14-2.47-.62-.74-.36-.86-.69-1-1.48-.18-1-.38-1.06-.63-.32s-.52,1.22-1.36,1c-2.35-.54-1.47-2.14.44-2.12ZM148,184.75c-6-3.3-13.21-9.26-17.39-16a95.37,95.37,0,0,0-4.51,10.8L116.78,177l-.11.19,9.17,2.61-.89,3c-.1.33-1.52,3.76-1.52,3.76l14.35,6.55a23.41,23.41,0,0,1-3.08,3.52,2.64,2.64,0,0,0-.72,1.65l19.85-18.64a43.17,43.17,0,0,0,3.52,4.58c.89.8,1.17,1,.12,1.23-4.66.68-8.28,4.15-7,8.8.21.51.61.33,1.5-.22,3.1-2.76,10.68-5.32,10.91-4.67v2.93c-8.15.12-7.32,6-6.72,9.18,0,.06-2.36,2.1-2.36,2.1a21.45,21.45,0,0,1,2.42,1.4c-.71,3.91,2.69,9.65,9.38,6.72.58.59,1.12,1.18,1.77,2a13.51,13.51,0,0,0,1.47-2.62c3.32,1.48,10.22-1.84,6.7-9.43l2-1.83-1.83-1.12a9.13,9.13,0,0,0-1.52-5.34,35.87,35.87,0,0,0,5.46,1h0c1.44.13,2.64.16,2.52-.69a15.86,15.86,0,0,0-.39-1.89c-.69-2-4.29-3.44-7.77-3.63-.58,0-1.18,0-1.31-.17s.19-.65.56-.59a3.6,3.6,0,0,0,4.07-2.83,4.5,4.5,0,0,1,1-1.48c1-1.07,1.07-1,1.05-2.59a2.66,2.66,0,0,1,.68-2,5,5,0,0,0,.61-3.83,3,3,0,0,1-.17-2.15c.59-1.78-.7-3.41-2.39-4.34-.13,0-.09.09-.21.23a5,5,0,0,1-3.39-.62c-.39-.18,1.31-9.84,4.8-9,.59.34.82,2,.78,2.05.16,0,.25-1,0-1.64a1.5,1.5,0,0,0-1.79-1.15h0a5,5,0,0,0-2.18,1.74c-1.62,2.05-1.64,3.36-2.19,5.54-.27,1-.3,1-1.75-.15-1-.79-1.53-1.05-1.18-1.52.17-.21.84-.87.84-.87l12.72-12V270.86H112.87l.5-15.44c1.35-10.85-1-33.65-2.81-35.79,1.38-1.54,5.67-5.21,5.43-5.38l-.57-.33L113.16,216l-5.6-1.67a24.31,24.31,0,0,0-7.34-3.76c-4.12-1-12.06,2.29-12.07,2.32a66.83,66.83,0,0,0-22.65,5.93,11,11,0,0,1-1.3-2.09c-6.54-8.95-13-14-21.75-20.1l11.12-6-26.4-27.1-.24-22L65.12,105.5c.22-.62,12.18,8.31,16.63,15.64.86-3.56,2.45-6.84,3.77-10.28.14-.31,7.6,2.71,9.8,2.84a.86.86,0,0,0,.61-.32l-9.85-3.15,2-5.67s.69-1.55-.09-1.8c-4.49-1.44-8.71-3.91-13-6.1,0,0,2-2.19,2-2.28s.84-1.27.65-1.68C75.51,94.74,57.7,111,57.7,111a8.62,8.62,0,0,0-3-5.49A7.91,7.91,0,0,0,58,104c2.61-1.87,4-5.21,3.7-7.16a59.39,59.39,0,0,1-7.94,2.27,10.08,10.08,0,0,0-4.45,2l-.16-3.11s4.23.73,6.17-2.06c1.69-2.4,1-5.15.62-6.54,0-.32,0-.29.67-1,.54-.49,1.37-1.12,1.37-1.12,0-.17-2.18-1-2.55-1.71.59-5.78-4.1-8-8.07-7-.73.21-1.09.35-2-.62l-1.18-1.24s-.47,1.07-.72,1.53c-.77,1.51-1,1-2.66,1.13-4.24.21-6.14,3.59-5.17,7.73.23,1,.13.82-.52,2-.33.63-.88,1.44-.88,1.44s.79.42,1.31.65c.78.34.82.74.82,1.51A7.65,7.65,0,0,0,37.83,97a24.87,24.87,0,0,1-8.94-1.22c.46,4.56,3.87,6.26,8.06,6.92a3.59,3.59,0,0,1-.9.59,2.08,2.08,0,0,0-1.55,1.92A3.65,3.65,0,0,1,33.44,107a2.73,2.73,0,0,0-.92,2.85,2.64,2.64,0,0,1-.67,1.83,3.31,3.31,0,0,0-.71,2.77,12.14,12.14,0,0,1,.13,2.76c-.18,1.89.5,2.61,1.38,3.91.57.87.45.89.31,1.51a29.21,29.21,0,0,1-1,3.43c-.75,2.56-.78,4.5-.16,5a2.62,2.62,0,0,0,2.49.38c3.7-1.12,3.06-4.7,3.26-7.1.1-.61.32-.91.52-.88a11.58,11.58,0,0,0,3.58,2.66c-5,4.88-8.14,7.95-14.36,13.33l.16-120.17h71s.08.89-.09,5.25c-.31,8.79-.69,18.09-.1,27.1a82.18,82.18,0,0,0,.49,9.28c.44,3,.64,6.25,2.07,9,.57,1.52.59,1.4-1.6,3.39a8.26,8.26,0,0,0-2,2.19c0,.06,0,.29.12.17s.9-.86,1-1c.59-.69,1.58.19,5,1.13a9.32,9.32,0,0,1,2.3,1.31c5.06,4.19,12.16,2.93,17.47.6a11.63,11.63,0,0,1,4.31-1A84.5,84.5,0,0,0,146,71.91l1.17,1.89a.78.78,0,0,1,.76.39c5.16,9.6,22,20.52,21.71,20l-11,6c8,9.77,26.35,26.3,26.35,26.3l-.33,23.72A155.41,155.41,0,0,0,171,163c-1.24,1.22-2.11,1.91-1.65,2,1.13-.17,2.1.91,3,1.68.59.63.44.57-.23,1.44-.46.61-.64.78-.64,1.22a2.12,2.12,0,0,1-.76,2.06,3,3,0,0,0-.84,1.68,2.94,2.94,0,0,1-.56,1.77c-.84.18-.92,1.36-.77,1.9a1.81,1.81,0,0,1,.56,1.57c-1.66,1.77-3.41,3.3-2.3.83a6.88,6.88,0,0,0,.68-1.69s-.8.81-1.21,1.2c-.65.58-.88.24-.9-1.57a11.79,11.79,0,0,0-.9-3.64c-.13-.21-.16.14-.09,1.46.08,1.74.29,2.24-.34,4-.83,2.34-1.42,2.68-.06,2.59s2.38-.09,3,.67a2.55,2.55,0,0,0,1,1,9.51,9.51,0,0,1,2.49,1.84c1.9,2,1.36,3.85-2.33,2.62-2-.65-.67-1.47,1.41-1.28,1.29.12,1.5-.35.4-.68-2.06-.38-2.4-.61-3.76,1a13.26,13.26,0,0,1-10.46-6.27c-.65-1.07-.85-1.28-.4-1.88.18-.24.07-.17-.24.16s-1.13.61-1.41.85c-1.91,1.89-3.86,3.91-5.58,5.45Zm24.87-13.21c1,.13,1,.93.08,1.69s-1.37.73-1.83.27c-.77-.81.26-2,1.78-2Zm2.82.56a4.77,4.77,0,0,1,3,1.32c1.41,1.16,1.74,4,.44,4.44-.54.21-.62,0-1.78-1.07a10.13,10.13,0,0,0-2.47-1.79c-1.7-.8-1.92-1.11-.77-1.64a2.12,2.12,0,0,0,.69-.64c.3-.47.39-.61.93-.62Zm-1.84,3.73a2.93,2.93,0,0,1,1,.39c2.87,1.54,4.28,4,3.31,5.33-.65.9-1.68.56-2.47-.72a8,8,0,0,0-3-2.3c-1.54-.77-1.58-.87-.47-1.4a2.3,2.3,0,0,0,1-.9c.33-.46.35-.42.65-.41Zm.91,5.77c2.18,2.13,1.93,3.28.52,4.14-1,.6-2.51.75-3,.26-.81-.7-.79-1.52.11-1.77s.53-.51-.26-.71c-2.81-.78-4.54-2.26-1.48-2a2.85,2.85,0,0,0,2.19-1.11c.66-.79,1.56.74,2,1.13Zm-147.93.81,63.33,89.26-51.2-.1s-.19-.65.23-6c.61-7.26-.34-13.56-2.09-20.65.23,0-2.45-8.6-4.52-12.79-.38-.88-.32-1,.91-1.11a49.18,49.18,0,0,0,11.14-2.93c1.69-.15,4.16.5,4,.3s-2.18-2-2.18-2a62.64,62.64,0,0,1-16.5,3.75c6.81,11.42,9.25,27,7.2,40.94H27.32V202.32ZM38.1,195.63a5,5,0,0,1,3.4,2.68,28.23,28.23,0,0,0,1.29,3c0,.24,2.2,4.15,1.24,3.81-1.92-2.57-5.35-6.94-6.21-9.07,0-.28,0-.41.28-.42ZM45,199.54a22.41,22.41,0,0,0,1.3,3.45c1.37,2.93,3.49,7.43,3.06,8.72-.29.87,0,.83-.76-.24-.38-.53-1.57-2.15-1.85-2.53-.7-.91-.23-.08-.63-1.56-.94-4.22-2.46-6.43-3.45-8.9-.36-1.15,1.88.6,2.33,1.06Zm1.21.64c.19.13,2.7,1.87,3,2.12.89,3.11,4.45,13.1,3.53,14.87a8,8,0,0,1-1.86-2.68c-.42-4.77-2-8.2-3.6-11.73-.57-1.11-.89-2.18-1.08-2.59Zm4.73,3.51a5.7,5.7,0,0,1,2.08,2,8.87,8.87,0,0,1,.77,2.47c.91,4.07,2.64,8.2,1.86,12.54-.48.66-1.55-.82-1.7-2.28a55.71,55.71,0,0,0-2.65-12.76c-.33-1.1-.58-2-.36-2Zm4,3.73c.17,0,.51.32,1.1.85,1.12,1,1.28,1.43,1.29,3.16,0,2.54.9,5.45,1,8,.08,1.49.36,5.32.12,5.54-.33.45-1.79-1.17-1.67-3.66.18-3,0-5.25-1.27-10.42-.59-2.39-.89-3.42-.63-3.48Zm117-15.11c4.52,2.86,3,8.14,2,8.79,6.25,7.82-3.46,11.73-6.54,9-4.57,4.47-12.4.73-9.38-6.63,0,0-5.74-10.75,5.57-10.05,0,0,.2-4.36-.13-4.56-4-.27-9.52,3.56-11.07,4.61-.86.52-1.05.28-1.05.28-.22-2.27-.22-3.31.72-4.57,1.62-2.19,4.31-2.93,7.85-3.7,4.37,1.33,8.54,3.41,12.59,3.09a14.15,14.15,0,0,1,6.68,1.5c1.47.69,2.22,3.23,2.22,3.23-2.29,1.18-9.41-1-9.41-1Zm-2.16-16a1.74,1.74,0,0,1,1.78-1.54,1,1,0,0,1,.29,2c-.31.24-1.3-.12-1.36.15.08.47-.41.28-.51.1A1.23,1.23,0,0,1,169.71,176.32Zm-.72,3a2.49,2.49,0,0,1,1.25-.39c.67-.07,1.55,0,1.74.73s-1.16,1.09-2.24,1.11c-.55,0-1.19.11-1.36-.27s.38-1,.61-1.18ZM32,130.21c.87-3,.33-4.66,1.79-8.34L37.35,123a19.09,19.09,0,0,1-.57,5.63C36.07,130.61,33.72,132.26,32,130.21ZM58.41,211c.42,0,1.45,1.48,1.92,2.8s.27,2.77.58,4.09a46.06,46.06,0,0,1,.43,10.36c-.1.68-.54.4-1.15-.24-.89-1-.77-1-.76-3.58a78.29,78.29,0,0,0-.72-8.91,18.12,18.12,0,0,1-.51-4.4.13.13,0,0,1,.16-.13Zm41.44.54c4.56.72,8.21,3.78,10.3,8.79s2.51,12.13,2.83,18.56c0,1.55-.68,1.16-2.36.2-1.85-.89-2.24-.64-5,0-1.67.38-1.52-.74,1.25-2.61,1-.61,2-1.42,1.67-1.53a2.78,2.78,0,0,0-1.63.64c-2.71,2.16-3.46,2.69-2.67.59.19-.53.83-2,1.09-2.71,1-2.64-.15-3.77-3.49-5.44-.84-.42-1.39-1.12-.55.34.68,1.2-.73,2.16-2.47.76-1.22-1-3.66-.32-4.44.89a3,3,0,0,0,1.14,4.08c1.33.55,1.82.15.54-.73-1.65-1.12-1.32-3,.52-3,.46,0,1.26.5,3.31,1.6,1.46.78,2.5.45,2.5-.72,0-.77.45-.71,1.41-.24,1.29.62,1.15,1.2.47,2.93-.46,1.22-.69,2.62-1.12,3.91-1.08,4.32-1.23,9.21,0,10.74,3.21,4.06,6.61,3.63,9.52,1l-.12,4.44c-3,2.34-6.44,3.91-11.8,12.64-1.86-2.31-9.92-11.72-22.73-13.88l-2.9-3.91c0-.24-2.15-14.48-3.6-19.34,0,0,1.59-2.37,3-4.12,5.77-7,15.52-15,25.26-13.87Zm-16.81,4c-.5.16-.66-.81-.39-1a6.55,6.55,0,0,1,1.4,0c.45,0,.44.53-1,1Zm-21.69-.72a13.28,13.28,0,0,1,2.16,2.79c.43.61.18,1.63.25,2.62.09,1.42.26,3.76.36,5.2a15,15,0,0,1-.49,6c-.43,1-1.29.31-1.5-1.08,0-.33.23-3.77.23-5.65,0-3.25-.84-7.24-1-9.84Zm19.45,0a.54.54,0,0,1,.56.19c.68.86,1,1.39.34,1.87-.84.68-1.6.51-2.06-.79C79.33,215.18,80,214.89,80.8,214.84Zm-2.57.76a4.29,4.29,0,0,1,1.56,2.73c-.05.25-.28.48-.77.87s-.66.42-1.22-.44c-.86-1.34-1.27-2.22-1.1-2.68a1.59,1.59,0,0,1,1.53-.47Zm30.37.18a25.66,25.66,0,0,1,3.69,1l-1.84,1.76c-.56-.93-1.18-1.82-1.85-2.72Zm-33.18.93c.69.87,1.88,3.16,1.82,4a2.07,2.07,0,0,1-.74.7c-.22.06-.43-.33-1.2-1.67-1.34-2.33-1.73-3-1-3.27A1.6,1.6,0,0,1,75.42,216.71Zm-2.7.53a14.26,14.26,0,0,1,2.58,5.11,1.12,1.12,0,0,1-.26.7c-1.13,1.19-.84,1-2.52-2.39-1.4-2.79-1.78-3.07-.85-3.38a1.93,1.93,0,0,1,1.09,0Zm-2.69.91c.5,0,.64.8,1.59,2.64,1.6,3.48,2.2,4,1.84,4.34-.45.54-.71,1-1.13.26-1-1.54-1.93-3.52-2.82-5.25-.73-1.28-.79-1.44-.33-1.75a1.66,1.66,0,0,1,.89-.24Zm28.58,1c-.6.16-3,.92-1.54,1.05.3,0,1.06-.15,1.6-.19,1.5-.1,4.6.17,4.49-.11-.23-1-3.69-.95-4.51-.74ZM68,219.47c0,.06.39.74.77,1.41,2.29,4.33,3.55,5.86,3.14,6.58-.33.41-.84,1-1.15.81-.49-.19-1.14-1.61-2.77-4.82s-1.86-3.56-1-4c.35-.17.78-.28,1,0ZM65.71,221c1.05,1.68.91,1.45.9,6.9,0,3.39-.46,5.55-1,6.38-.3.44-.84.19-1.1-.67-.12-.39.22-1,.29-1.59.41-4.08.12-8.15.13-12,.32,0,.64.72.81,1Zm27,1.33c.49.69.37,1.24.37,2.16,0,1.3.09,1.4,1,.74s.88-.62,2.31.35a2.18,2.18,0,0,0,2.65,0c.49-.45.66-.25,1.32-.08.72.39.92.45,2.47-.28,1-.45,1.08-.52,1.69-.2,1.1,1,1.25.6,1.11-.64a10.25,10.25,0,0,1,.25-1.75c.55-2.2-.33-2.23-1.49-.82a2.09,2.09,0,0,1-2.4.34c-1.35-.64-3.47-.38-5-.12a3.7,3.7,0,0,1-3.45-.82c-.42-.35-1.38-.67-1.49-.4s.11.7.69,1.51Zm-24.81,3.09c.23,0,.59.63,1.11,2.05.67,1.85-.51,8.28-1.21,9.32-.38.56-.62.89-1.38-.12-.31-.45-.07-.6.23-1.86a37.25,37.25,0,0,0,.87-6.48c0-1.87.12-2.85.38-2.93Zm2.36,6.22c.17,0,.36.38.63,1.12a7.93,7.93,0,0,1-.3,4.42,11.73,11.73,0,0,1-1.09,2.55c-.17.44-1,.29-1.26-.67-.15-.62.36-1.37.61-2.34s.54-2.2.68-2.83c.3-1.51.48-2.27.73-2.26Zm18.25,2.86h0s1.78,1.95,2.28,2.53c.25.21,2.44,2.83,1.08,2.22a9.51,9.51,0,0,0-9.93,1.65c-.31.29-.57,0-1.5-.08-1.93-.14-2.63.61-1.45,1.54.17.15.54.21.71.44s.11.59.19.69c3.72,4.89,10.61,5.81,14.89,2.63.54-.4.85-.53,1.36-.39,1,.3,1.09-.54.21-1.69-.39-.51-.87-1.09-.59-1.26.55-.47.81-1.22-.14-1.51a3.1,3.1,0,0,1-1.77-2c-.42-1.18-4.66-4.79-5.31-4.88Zm-16.87,2.12c.82,0,.85,4.69,0,6.11-.47.54-1.52-.47-1.36-1.49a32.17,32.17,0,0,1,1.18-4.51.39.39,0,0,1,.22-.11Zm16.49,2.93a3.73,3.73,0,0,1,2.35,1c.4.36,1.09,1.9.8,2.5-.08.31-.92.29-1,.06-.47-3.1-3-3.55-3.83-.65,0,0-.53.44-.6-.41.19-1.64,1-2.43,2.27-2.44Zm20.58.26a2.12,2.12,0,0,1,2,1.24,2,2,0,0,1,.2,1.36c-.09.2-.36.12-.36.12-1.3-3.51-3.07-1.89-3.7.05,0,0-.67.2-.76,0a1.7,1.7,0,0,1,.24-1.16,2.79,2.79,0,0,1,2.39-1.61ZM91.3,240a2.92,2.92,0,0,1,1.84.91c.59.6.65,1,.18,1.39-.3.27-1.32.53-1.53.07l-.86-1.95C90.85,240.22,91.09,240.05,91.3,240Zm-6.24.08c.51,0,.62.12-.19,2-.17.4-2.24-.18-1.84-1A3.45,3.45,0,0,1,85.06,240.12Zm20.74.15c.21,0,.38,0,.45.12a12.5,12.5,0,0,0-1,2c-.75-.09-1.63,0-1.79-.58s.15-.9,1.19-1.3A4.47,4.47,0,0,1,105.8,240.27Zm6.07.5a1.15,1.15,0,0,1,.87,1.28c-.08.25-.45.25-.71.06a1.65,1.65,0,0,1-.59-1.1c0-.32.18-.33.43-.24Zm-39.08,1.81c.24.44.68,2.93.17,2.93s-.72-.89-.81-1.58c0-.14.41-1.32.64-1.33Zm8.59,1.32a3.88,3.88,0,0,1,1.67.64,13.13,13.13,0,0,0,8.75.85c1.77-.45,2.22-.71,2.47-.42.42.51-.25,1-2.74,1.85-2.74.9-5.58.75-9.31-1.85C81.23,244.28,81.09,243.93,81.38,243.9Zm31.22.69c.46.86-1.12,1.66-1.91,1.88a8.31,8.31,0,0,1-5.72-.59l-.36-.24c-1.18-.86-.68-1.48.63-.81a8,8,0,0,0,5.81.12c.82-.33,1.34-.78,1.59-.33Zm-34.93,1.59c-.16,0,.1.42.65,1,3.85,4.25,13,6.55,18.19,2.18,1.62-1.5,1.37-2.17-1.18-1a24.64,24.64,0,0,1-10.29.53A15.53,15.53,0,0,1,79.15,247c-.88-.64-1.35-.89-1.48-.86Zm26.54.13a4.41,4.41,0,0,1,1.53.56c1.3.67,4.26.44,5.23.08,2-.74,2.47.21.53,1.26a5.93,5.93,0,0,1-6.87-.88c-.53-.46-.82-1.06-.59-1.11A.65.65,0,0,0,104.21,246.31Zm-25.52,7.52c7.58.68,19,8.08,23.47,17H99.64c-4.49-7-11.37-12.63-19.55-14.73-.33-.25-1.53-2-1.36-2.24Zm33.63,1.62-.34,2.47a40,40,0,0,0-9.38,10.74c-.72,0-1.06-.89-1-1.46,2.75-5.38,6.06-8.34,10.66-11.73Zm-30.62,2c1.74-.12,13,5.86,16.87,13.42H96.48c-4.28-5.49-9-9.08-13.27-10.51-1-1.07-2.12-2.86-1.47-2.91ZM112,259.12v3.32a28.67,28.67,0,0,0-6.24,8.39h-2.1a2.59,2.59,0,0,1-.3-1.47A29.35,29.35,0,0,1,112,259.12ZM94.8,270.84h-2a23.2,23.2,0,0,0-6.61-6.06c-1-1.16-2-2.61-1.6-2.84,0-.87,9,5.12,10.25,8.9ZM112,264.08V266c-1.38,1.73-2.53,3.19-3.64,4.84h-1.73c1.59-3.36,5.56-7.67,5.41-6.76Zm-23.3,3.71c.63.17,2.92,2.32,2.84,3h-1a17.06,17.06,0,0,1-1.68-2.2C88.6,268.13,88.44,267.7,88.72,267.79Zm22.94.6h0v2.44h-1.75A5,5,0,0,1,111.66,268.39Z" transform="translate(-0.8 -3.35)"/>
    <path d="M147.88,18.67c-8.53,0-17.15,0-26.74.15l64.75,90.45.06-20.1L165.17,62.79A79.25,79.25,0,0,1,180.22,60c-5.84-12.7-8.76-24.72-6.19-41.13C164.81,18.72,156.38,18.67,147.88,18.67Zm25.07.58c-.51,5.79-1.17,12.25-.1,19.42-3.38-1.21-4.17.86-4.73,1.07-.63-1.38-3-3.8-5.63-1-1.39,1.46-.72,4.24,2.49,5.48-3.67.28-5.58-2.82-6.23-6-2-1.25-4.07-2.49-4.27-6.84l1,.17a3.12,3.12,0,0,0,4.78,3.16c1.22-1,1.35-2.35.88-4.56a3.23,3.23,0,0,0,2.75-3.67c0-.13,0-.26-.08-.39-.84-4-5-3.54-7-.9-1.59-1.95-4.51-2.3-5.68.71-.65,1.68.84,3.56,2.52,3.91-3.75.71-5.63-4.38-5.84-7.82l-1.56-2.71c10.14-.07,14.58-.06,26.64-.06Zm-50.76.09h7.52L184.6,89.28l.12,17.4Zm19,0h1.2a15.32,15.32,0,0,0,10.68,12.78c.32,5,2.79,11.86,12.13,14.17-.28,5.67,3.43,11.1,7.39,13.68a17.34,17.34,0,0,1-1.91.34c-5.33-4.16-6.65-10.29-7.17-12.82-.18-.36-.69-.45-1.09-.55a16.29,16.29,0,0,1-10-9.77l-1-4.41c0-.57-.11-.31-1.47-.79-3.52-1.28-6.77-5-8.24-9.51-.76-2.35-.55-3.14-.55-3.14Zm-4.84,0h4.21a8.08,8.08,0,0,0,.09,1.2c.57,4.41,4.59,10,8.69,11.79a10.49,10.49,0,0,1,1.57.79c1.15,7.23,4.48,11.59,11.51,14.57.11.11.42.18.52.33,1,4.46,3,9.64,7,12.49l-1.72.18ZM157,26.92a1.7,1.7,0,1,1,0,3.4,1.71,1.71,0,0,1-1.74-1.69h0a1.71,1.71,0,0,1,1.7-1.68ZM98.8,36.2c.1.24-23.58,19.95-21.27,57l-.69.76.19.26c-.78.87-1.53,1.57-2.38,2.42A85.58,85.58,0,0,0,88.14,103l-1.64,3.73L96.72,110l-1.37,3.53-10.06-3.28a91.05,91.05,0,0,0-3.42,9.85c-.1.26-.32.14-.69-.38C75.87,110.82,65,104.38,65.3,105L26.59,141.16l-.26,22.33,26.8,27.16a128.23,128.23,0,0,0-11.41,6.21c2.86,2.3,6.08,4.06,8.93,6.23,5.87,4.06,9.82,10,13.62,14.09,17.92-8.79,36-8.25,51.55-2.93-1.82,1.88-3.84,3.51-5.71,5.55,4.53,11.73,3.08,34.94,2.85,35.57a76.31,76.31,0,0,0,21.59-58.46l4-3.91c-.07-.19-9.93-5.39-14-6.52l1.14-3.56-9.83-3,1.09-2.82,9.8,2.79c1.85-4.48,3.82-10.74,3.82-10.74a50,50,0,0,0,17.11,16.33l38.46-36.22-.25-23.29-26.19-25.78,10.92-5.59c-1.06-.84-2.57-1.62-3.65-2.46-.08-.06.22-.23.14-.29-.28-.21-.47-.37-.75-.57-.06,0-.26.23-.32.2a65.85,65.85,0,0,1-10.31-8.12c-.08-.08,0-.4,0-.48-1.52-1.59-3-3.07-4.57-4.63a25.8,25.8,0,0,1-1.88-2.4l-.07-.55-1.66-2.06c-5.32,3.1-28,10.86-50,2.26l4.17-4.1a31.42,31.42,0,0,1-2.12-8c-1.19-9.72-.75-27.15-.75-27.15ZM168,41.66a1.8,1.8,0,1,1-1.81,1.81h0A1.81,1.81,0,0,1,168,41.66Zm5.7,2.13a81,81,0,0,0,5,15.29l-2.42.26c-2-1.26-4.05-3.1-4.27-5.7-5.33,0-6.88-8.19-5-7.2a3.13,3.13,0,0,0,2.5,3.66,3.21,3.21,0,0,0,1.31,0c1.73-.24,3.23-2.59,1.16-5.18a2.86,2.86,0,0,0,1.66-1.11ZM98.25,57a72.55,72.55,0,0,0,2.55,14.16L90.27,80.94A52.76,52.76,0,0,1,98.25,57Zm50.49,18.77,1.33,1.89c-15.21,8.79-41.17,9.42-57,2l2.09-2c13.9,6.21,36.55,6.67,53.55-1.89ZM49.93,78.72a8.52,8.52,0,0,0-5.18,2c-6.94-3.13-11.55,4.18-7.23,9-.64,3.48-1.12,4.14,1.55,7.67-2.84.36-6.42-.38-9.45-.83.51,5.15,8,6.37,11.15,5.79a11.36,11.36,0,0,1,6.7,1c2,.54,3.22,1.48,5.18,2,3.23.76,7.94-2.93,8.64-6.51.07-.47.22-.9,0-1-2.2.55-4.64,1.33-6.78,1.8a12.82,12.82,0,0,0-5.3,2.25l-.13-4.27c10.92.52,6.17-9.77,5.55-10.16,1.93-4.05-.48-8.62-4.72-8.68Zm99.38.32,2.38,5.62-6.32,2.12-1.62-5.51Zm-99.83.16c3.71,0,7,3.91,3.47,8.21,6.95,6-2,12.44-6.17,8-5.62,5.07-11.59-.22-8.46-5.74-6-5.28,1.4-12.36,6.45-7.82a5.56,5.56,0,0,1,4.69-2.62Zm43.14,2.07a1.59,1.59,0,1,1-1.6,1.6h0a1.59,1.59,0,0,1,1.58-1.59Zm-41.17.11a.6.6,0,0,0-.31.15c-.18,0-.58.68-1.55,1.8-1.71,2-1.9,2-1.9,2a4.58,4.58,0,0,0-4.23.47A8.14,8.14,0,0,1,40.21,84c-.86-.71-1.32-.86-1.47-.49s.23.8,1.87,2c2.29,1.52,2.15,1.4,2.15,1.4a6,6,0,0,0,.59,3.45,15.63,15.63,0,0,1-2,3,4.42,4.42,0,0,0-.83,1.42c0,.82.71.27,2.37-1.79.65-.81,1.54-2,1.54-2a4.59,4.59,0,0,0,3.85-.17s.41.3,1.48,1.13c1.93,1.53,2.36,1.69,2.6,1.5s.27-.34-.46-.87a18.05,18.05,0,0,1-3-2.46,5.43,5.43,0,0,0-.51-4,6.84,6.84,0,0,1,1.27-1.57,11.45,11.45,0,0,0,2-2.84.31.31,0,0,0-.3-.33h0Zm44.82.33L102,83.45l-1.25,5.87-6.06-2Zm41.18,1.43L139,88.83l-5.95,1.54-1-6Zm4.15.1a2.61,2.61,0,1,1-.06,0h0Zm13.45.19,5,4.37-5.53,2.75-2.64-5.67Zm-46.91,1.26,5.77.68-.23,6.11L107,90.61Zm-20.06.07,6.4,2.82L92.16,94l-6.58-2.79Zm16.58.5A1.59,1.59,0,1,1,103,86.84a1.6,1.6,0,0,1,1.62-1.58Zm20.8,0,.79,6.13-6,.36-.15-6.21Zm4.12.7A1.59,1.59,0,1,1,128,87.58,1.6,1.6,0,0,1,129.58,86h0ZM46,86.6a1.63,1.63,0,1,1-1.65,1.63h0A1.64,1.64,0,0,1,46,86.6Zm71.11-.1a1.59,1.59,0,1,1-1.61,1.58,1.6,1.6,0,0,1,1.61-1.58Zm28.28.39,2.33,6.28-6.55,2.09-1.86-6.46Zm4.59.17a1.59,1.59,0,1,1-1.61,1.6v0a1.6,1.6,0,0,1,1.57-1.58Zm11.35,1.79,4.23,2.93-2.1,1.15c-.59-1.28-1.56-2.82-2.17-4.08Zm-60.55.56L107,90.75l-1,6.45-6.83-1.34Zm-18.61.35,3.33,1.55-2.2,5.37-5.37-2.82Zm14.89.36a1.59,1.59,0,1,1-1.61,1.6v0A1.6,1.6,0,0,1,97,90.12Zm36.14.35,1.11,6.45-7.06,1-.43-6.57Zm26.41.13A1.58,1.58,0,1,1,158,92.18h0a1.58,1.58,0,0,1,1.5-1.58Zm-5,0,2.16,5.77-6.95,2.83-2-5.76Zm-17.6.41a2.17,2.17,0,1,1-.15,0Zm-23.32.64,6.6.12-.24,6.55-7.24-.19Zm52.84.45,2.6,1.78c-26.89,17-64.46,19.1-93.75,2.41l1.89-1.86c26.39,15.56,65,13.38,89.11-2.28Zm-56.42.73a1.6,1.6,0,1,1-1.61,1.6h0A1.61,1.61,0,0,1,110,92.88Zm13.56.36a1.6,1.6,0,1,1-1.61,1.61v0a1.61,1.61,0,0,1,1.46-1.54Zm-31.45.88,6.94,2L98,101.39,90.31,99.3Zm-4.57,0a1.6,1.6,0,1,1-1.62,1.6h0a1.61,1.61,0,0,1,1.47-1.52Zm53.6,1.15,1.64,6-7.62,1.61L134.39,97Zm4.38.88a2.78,2.78,0,1,1-.17.07ZM46,97.07v4.22c-1.26-1-2.69-2.12-4.15-3.22a8,8,0,0,0,4.17-1Zm-15.71.11a19.25,19.25,0,0,0,2.14.27c3.1,0,8.93,1,10.62,2.34A7.12,7.12,0,0,1,45,101.4c0,.35-.51.36-1.26-.1a19.21,19.21,0,0,0-7-2.1c-.57-.08-.64-.06-.64.22s.53.53,2.21.79a21.2,21.2,0,0,1,3.14.69c1.29.35.47.82-.87,1-5.44.5-9.52-1.81-10.35-4.44-.06-.17,0-.23.16-.23Zm75.85.1,6.85.87-.31,5.64-7.49-.85Zm-58.25.49c1.2.91.38,3.72-.28,4.55-.42.46-1.41.21-1.41-.44s-.06-3.37.07-4.23A1.6,1.6,0,0,1,47.92,97.77Zm79.4.24.36,5.86-7.47.33.05-5.71Zm-25.21.39a1.6,1.6,0,1,1-1.62,1.59h0a1.6,1.6,0,0,1,1.43-1.56Zm-41.68.09c.27,4.27-6.39,7.16-8.88,5.86-1.11-.58-.64-1,1.54-1.37,2.83-.74,4.7-1.46,4.7-2,0-.32-.43-.28-1.58.15-1.78.58-3.63.84-5.32,1.58-1.27.57-1.77.77-2,.43-.6-.71,2.22-2.52,5.14-3,2.2-.36,4.41-1.51,6.45-1.66Zm71,.53a2,2,0,1,1-.15,0Zm-15,1.16a1.59,1.59,0,1,1-1.6,1.6v0a1.6,1.6,0,0,1,1.45-1.55Zm35.89,2.7c10.79,10.1,22.6,21.73,32.35,31.26v15L147.44,184a47.85,47.85,0,0,1-17.7-18.11,10.14,10.14,0,0,0,1.56-1.37l-2,1.14c-6.87-10.81-9.79-32.34,1.87-49.6l-11.78.42,1.93-3.91,12.82-.7,5.19-5.47s1.65-.3,3-.61,4.11-1.08,6.13-1.72,3.74-1.17,3.81-1.17Zm-87,2.79A46.23,46.23,0,0,1,82.37,123.5C62.52,140.33,55,159.94,53.32,180.39c-10.83-10-16.3-15.47-26.07-25.15l.35-14.44Zm41.81,1.89a151.49,151.49,0,0,0-7.53,19.71l-3.09-.89A29.09,29.09,0,0,0,99.38,125l-1.6-2.53,3-1.23L99,119.12l3.08-1.76-1.54-2,2.82-1.39-1.74-2,3-1.63-1.55-1.9Zm.95,0,.86.16c.12,0-.56,1.58-.48,1.64,1.08.22,1.14.16,1.46.26l.83-1.67,1.34.25c-2.72,6-5.62,12.64-7.29,19.78l-1.59-.32s.46-1.5.47-1.71a10,10,0,0,1-1.36-.52c-.1.24-.66,2-.66,2h-1.26c1.91-7.77,5.49-16.42,7.53-19.8Zm5.17.23,2.81,2.3-3.2,1.22,1.66,2.17-3.39,1.2,2,2.25-3.36,1.22,2,2.71L108.25,122l2.2,2.39-3.27,1.48,1.89,1.84-2.08.66a6.9,6.9,0,0,1-1.63-.24,106,106,0,0,1,7.78-20.33ZM44.75,109c-.77.5-.33,1.58-1.31,2.5a2.28,2.28,0,0,0-.22.88c0,.26-.82,3.27-.82,3.27a4.07,4.07,0,0,0,.5-1.2c.27-.82.49-2.37.63-2.63.73-.22.84-2.52,1.56-2.21.43.18.34.56.1,1.44-.52,1.77-.71,2.52.17,1.31,1.33-1.57,1.46-3,0-3.3a5.56,5.56,0,0,0-.71,0Zm20.11.66L30.12,141.75l-.11,12,12.11,12.07,8.59,8.2C53.83,155.66,61,138.15,78.6,123a41.62,41.62,0,0,0-13.7-13.38Zm93.75.33c-20.44,9.46-25.13,28.84-18.86,46.4,9.66-12.29,17.31-23.88,18.73-46.36Zm-72.74,1,9.28,2.93-3.49,11.72-8.36-2.5-.93-2Zm71.71.31a72,72,0,0,1-17.36,43,34.05,34.05,0,0,1,17.23-42.95Zm-50,.08-.59,1.46,1.28.35.55-1.47Zm-1.29,3.45-.53,1.48,1.32.44.5-1.5Zm54.75.27c-2.86,21.76-14.81,41.56-27.43,51.64a48.36,48.36,0,0,0,13.56,14l35.42-33.5L182.48,136ZM67.14,120.8c-.22.8-.3,1.21-.3,1.21a7.83,7.83,0,0,1,1.49-1c6.94-3.43,4.73,1.79,1.44,3.71-.74.38-1.49.84-1.49.84s.7.16,1.46.29c4.23.87,3.33,3.32-1.09,2.94-.65-.06-1.42-.18-1.43-.15a17.38,17.38,0,0,0,.58,1.72c1.49,3.69-1.29,4-3.12,1.63-.25-.33-.83-1.23-.83-1.23s-.18.68-.29,1.34c-1.58,5.79-5.48,5.64-4-.23.18-.6.4-1.7.4-1.7a17.84,17.84,0,0,1-1.83,1c-5,2.22-5.86-.07-1.28-3.41l1.75-1.32a12.83,12.83,0,0,1-2.22-.35c-3.67-.9-4.64-3,1.23-2.93.86,0,1.74.07,1.74.07s-.28-1.23-.59-2.17c-1.42-4.31,1.43-4.83,3.84-1,.51.82.65.83.65.83a8.29,8.29,0,0,1,.74-2.84c2.91-5.31,4-.46,3.16,2.74ZM130,116.51a48.53,48.53,0,0,0-5.59,12.86l-9.48-.15A49.44,49.44,0,0,1,119.09,117c3.89-.11,7.38-.27,10.77-.46Zm-25.07,1.88-.55,1.56,1.38.41.5-1.51Zm-71,2.93A58.35,58.35,0,0,0,32,129.14c-.24,1.34,0,1.9.82,2.21a3.52,3.52,0,0,0,3.8-1.49c.53-.75.92-2.3,1-5l.09-2.43a26.59,26.59,0,0,1-3.94-1Zm69.73.34-.46,1.43,1.33.49.51-1.45Zm61.54.54a5.2,5.2,0,0,1,3.38,1l2.82,2.86a3.79,3.79,0,0,0-.12,5.41,3.91,3.91,0,0,0,2.81,1.18,6.83,6.83,0,0,0,2.74-1.1l4.47,4.56c-2.61,1.13-5.17-1.45-6.12-2.48a1.46,1.46,0,0,1-.29-.41,1.55,1.55,0,0,1-.05.64c-.37,2-2.41,8-4.35,7.7-2.2-.36,0-8.93.06-8.73-1.51,1.57-8.86,3.23-8.34,1.49,1-3.48,6.52-4.82,7.23-5.43-2.91-1.73-6.62-6.52-4.24-6.72Zm-130.88.11a6.63,6.63,0,0,1,2.2.44c.29.08.3.31.34.55,0,1,.27,4-.7,4.07a4.5,4.5,0,0,0-2.79.73c-.57.43-.75.12-.61-1s.69-3.3.93-4.2A.65.65,0,0,1,34.3,122.31Zm29,0a3.84,3.84,0,1,0,3.9,3.84h0a3.88,3.88,0,0,0-4-3.76h-.08Zm0,1.34a5.48,5.48,0,1,1-.16.08Zm20.09,0c8.94,15.16,7.89,36-2.63,51.1L92.08,174l-1.48,2.85L78.4,178.1c-1.85,1.67-3.52,3.56-5.33,5.34v.62a111.1,111.1,0,0,0-12.54,3.53c-2.22-2.15-6.4-6.45-6.38-6.55l.27-1.39c28.67-14.4,20.29-43.28,18.27-45.66a87.76,87.76,0,0,1,10.54-10.22ZM163,126.45a2.07,2.07,0,1,1-2.1,2.07h0a2.08,2.08,0,0,1,1.93-2Zm9.35.56,3.34,3.65a2.59,2.59,0,0,1-1.79.72,2.48,2.48,0,0,1-1.74-4.29Zm-121,.45a2.08,2.08,0,0,1,1.93,2.23,2.1,2.1,0,1,1-2.09-2.15h0Zm-15.64.86c1,.33.76,1.23-.51,2a2.2,2.2,0,0,1-2.31.24c-1.53-.64,1.31-2.66,2.65-2.19Zm16.09,5.18-12.67,12a16.81,16.81,0,0,0,.89-6c3.81.39,5.41-1.51,4.84-5.43A22.83,22.83,0,0,0,51.75,133.5Zm20.3,1.37c5.87,16.49.77,33.94-17.6,44,.75-15.83,7.49-30.94,17.6-44.08Zm16.73,1.45a136.83,136.83,0,0,0,33.49,3.82,77.32,77.32,0,0,0,1.23,13.74,127.05,127.05,0,0,0-33.87-3.62c.51-4.75-.31-10.09-.85-14Zm74.78,2.44-10.72,12.32.46-6.75c3.61.45,4.9-1.43,4.36-5.13a19.51,19.51,0,0,0,5.9-.47Zm-104.35.68-.84,4.94c-2.14.06-4.25.81-4.22,5.52l-6.41-.08Zm118.18.91a2.08,2.08,0,1,1-2.1,2.07h0a2.09,2.09,0,0,1,2.08-2.09h0ZM49.48,141a2.07,2.07,0,1,1-2.11,2.07h0a2.1,2.1,0,0,1,2.08-2.1h0Zm123.21,2.1-1.12,7.47c-2.93-.25-5.37.19-4.62,5.26-2.47-.24-5.95.33-8.22.53Zm-10.48,1.35a2.07,2.07,0,1,1-2.11,2.07h0a2.09,2.09,0,0,1,2.11-2.07h0ZM34.06,146a2.08,2.08,0,1,1-.05,0ZM41,148.48c2.69.6,1.45,6.76.85,8.43,0,.05,7.49-3.9,7.94-2.15.29,3.48-6.25,5.87-6.25,5.87s4.41,3.76,4.54,6.13c0,1.53-1.85,1.24-4.25-.69-1-1-1.83-1.74-2.53-2.43a3.8,3.8,0,0,0,.37-5.41,3.94,3.94,0,0,0-5.49-.36,4.68,4.68,0,0,0-.39.38l-2-1.95c-1.39-1.28-2.38-2.3-2.24-2.76,1.84-1.27,5.49,2.14,5.81,2.46-.27-.67,1.75-7.23,3.67-7.59Zm-3.67,7.58a.06.06,0,0,0,.07.06Zm114.51-2.76c1.28,0,1.2,2.84.74,4.33-.31,1.13-.61,2.06-.61,2.06a11.61,11.61,0,0,1,1.54-1.05c3.48-1.6,4.78.22,3,2.32-.84,1.08-2,1.32-2.92,2.24a9.08,9.08,0,0,1,4,1c.9.53,1.6,1.17,1.59,1.57,0,.88-2.2,1.35-4.27,1.13a12.21,12.21,0,0,1-2.53-.45,13.61,13.61,0,0,1,.94,1.82c.76,2.1.49,4.57-.62,4.56-1.87-.49-2.78-2.53-3.5-4a11.25,11.25,0,0,1-2.51,4.61c-1.32,1.2-2,.2-1.94-1.84a27.69,27.69,0,0,1,.64-3.24c-7.84,2.6-7.26-.91-1.15-4-3.76-1.77-6-3.35.36-3.71-.17-.16-1.29-3.53-.1-4.32s3.49,1.79,3.61,1.9a8.67,8.67,0,0,1,1.74-3.58c.87-1,1.5-1.35,2-1.35Zm-7.22,7.35Zm34.28-2.23c-1.36.12-2.21,1.31-2.84,2.34-.12.22-.36.3-.45.57a33.79,33.79,0,0,0-1.36,6.6c.86.36,2.81,1,3.67.63.25-.1.17-.71.25-.92a22.36,22.36,0,0,0,2-7.44c.07-1.24-.36-1.86-1.23-1.78Zm-140.14-.16a2.51,2.51,0,0,1,2.53,2.49h0a2.46,2.46,0,0,1-1,2c-1.64-1.6-2.47-2.44-3.57-3.49a2.56,2.56,0,0,1,2-1Zm140.63,1.18c.34.82-.77,1.71-2.18,1.7-.85,0-1.13.12-.75-.6.45-.88,2.27-2.66,2.93-1.1Zm-19.07-.54a2.07,2.07,0,1,1-2.1,2.07h0A2.08,2.08,0,0,1,160.33,158.9ZM49.4,159a2.08,2.08,0,1,1-2.1,2.08h0a2.1,2.1,0,0,1,2.08-2.1h0Zm99.47.83a3.83,3.83,0,1,0,3.89,3.83h0A3.88,3.88,0,0,0,148.87,159.87Zm-52,.52a62.06,62.06,0,0,1-4.55,12.79c-3.76.23-7.81.39-10.49.77,4.46-7.68,4.57-9.48,6.22-13.56Zm6.44.62c1,.12,2.22.28,3.26.48a118.59,118.59,0,0,1-7.72,20l-2-.3-1-1.14L99,178.82l-2.46-2.46,4.06-1.22-2.49-2.42,4-1-2.15-2.57,3.6-1.37-2.28-2.93,4-1.09Zm45.58.2a2.5,2.5,0,1,1-2.53,2.49,2.51,2.51,0,0,1,2.53-2.49h0Zm-41.61.38,1.34.22-.42,1.39,1.52.32.5-1.53a7.59,7.59,0,0,1,1.35.21c-1.59,6.41-7.24,19.81-7.31,19.74l-1.45-.21.42-1.34-1.35-.19h0l-.65,1.47-1.45-.13a136,136,0,0,0,7.53-19.95Zm71.06.51c1.07,0,1,.54.23,2.53s-1,2.62-1.36,2.86c-.85.59-2.66.1-2.52-.77.48-2.79.65-4,1.38-4.35a11.77,11.77,0,0,1,2.29-.29Zm-65.68.24,3.5.66-2.92,1.71,1.85,2.13-3.59,1.5,2.18,2.22L110.2,172l2.1,2.43-3.59,1.5,2.44,2.06-4,1.26,1.53,2.31-1.53.82-1.87-.28c3.1-7.15,5.11-13,7.38-19.75Zm8.58,1.71,6.84,1.82,1.37,2.41-3.22,10.66-9.1-2.64Zm-13.59,1-.65,1.75,1.5.3.59-1.79Zm-1.32,4-.66,1.76,1.42.27.67-1.78ZM105,172.57l-.67,1.74,1.37.29.66-1.75Zm64.23,3.21a7.78,7.78,0,0,0-.89.72c.15.4.6,1,.53,1.42s-.41.55-.92,1.08c-1.28,1.48-1.74,1.31-1-.26a4.27,4.27,0,0,0,.36-1,10.74,10.74,0,0,0-.72,1.28l-.82,1.57a6.68,6.68,0,0,1,1.89,1.27,13.62,13.62,0,0,0,.45-1.4,2.47,2.47,0,0,1,1.4-1.67,3.48,3.48,0,0,0,.78-.59,6.11,6.11,0,0,1-1.06-2.47Zm-65.66.43-.7,1.86,1.34.37.75-1.9Zm-77.34,4.66c-.13,7.39.12,12.25-.14,20.21L46.4,227l-3.16,1s0,.36-.21.41c-4.34,1.17-11.38,2.34-11.38,2.34,5.23,11.73,8.63,26.49,6.29,41.18l52.6-.13ZM137.4,193.38l-1.81,1.79c-26.74-14.24-63.52-14.18-90.43,3.06L43,196.65c29.34-18.47,65.41-18.35,94.44-3.24ZM27.23,183.46,89.1,271l-7.27.1L27.25,200.81ZM160,185s-1.79.46-3.29,1c-4.3,1.36-6.31,3.81-6,7.2.12,1,.38,1,2.14-.1,4.1-2.55,4.36-2.66,9.46-4.13a2.74,2.74,0,0,1,1,0l-.23,4c-8.51,0-8.05,6.63-5.6,10.1-.85,1.59-2.73,7.18,3.45,9.31,3.07.59,6.34-1.87,6.24-2,5.68,2.65,12.27-1.78,7.13-9.46,2-3.35.57-5.87-1.27-8,0,0,.3,0,3,.51a25.52,25.52,0,0,0,5.64.62c0-3.62-3-5.24-9.38-5.73-4.48.63-12.33-3.23-12.33-3.2Zm-68.49.42h.91l-.28,6.17-7,.31-.46-6.15c2.38-.16,4.6-.33,6.74-.34Zm8.28.16,7.41.88-1.12,5.77-6.83-.72Zm60,.06c.76,0,.59.76-.3,1-1.33.26-4.74,2.22-4.74,2.73,0,.32.15.27,1.4-.38.95-.47,1.92-.88,2.9-1.25s2.08-.79,2.45-1c1.16-.51,1.73-.16,1.31.81-.27.64-.38.69-3,1.52a13.7,13.7,0,0,0-4.38,2c-.58.36-1.59.93-2.25,1.27-1.57.8-1.9.81-1.89-.27-.09-3.2,3.51-5.6,8.38-6.29h.16Zm-64,.75a1.65,1.65,0,1,1-1.68,1.65,1.66,1.66,0,0,1,1.68-1.65Zm-18.36.47.54,5.6-6.79,1.72-1.55-5.79c2.6-.62,5.2-1.06,7.8-1.53Zm87.5.43c1.86.27,1.72,4.47.76,5.2-1.47,1-2.36-1.14-1.7-4,.18-.86.52-1.16.95-1.18Zm-83.65.22a1.65,1.65,0,1,1-1.67,1.66v0a1.67,1.67,0,0,1,1.68-1.63Zm33.18.48,7.68,2.06L120.24,196,113,194Zm-4.18.12a1.65,1.65,0,1,1-1.68,1.65,1.66,1.66,0,0,1,1.68-1.65h0Zm62.83.49c3.3,0,7.67,1.67,7.67,4.18-.06.71-6.95-.24-10.1-1.49-1.13-.45-2.5-1.8-2.49-2.37,0-.33.67-.31,1,0,.44.53,2,1.08,5.65,1.95,2.79.7,3.07.73,3.07.31s-1.65-.9-3.43-1.2a29.85,29.85,0,0,0-3.12-.52c-.64,0-.8-.4-.26-.68a7.49,7.49,0,0,1,2.06-.23Zm-5.85,1.3c.83.39,1.13,1.15,1.6,1.56a3.93,3.93,0,0,1-1.76.6A5.81,5.81,0,0,1,167.24,189.94Zm-100.57.46A1.65,1.65,0,1,1,65,192.05a1.66,1.66,0,0,1,1.68-1.65h0Zm-4.52.45L64,196.58l-6.49,2.77-2.3-5.66a59.66,59.66,0,0,1,7-2.84Zm30,1h6.94l-.41,6.46H92.25Zm-7,.35.37,6.45-6.22.82L78.14,193Zm39.28.06a1.65,1.65,0,1,1-1.67,1.65,1.66,1.66,0,0,1,1.67-1.65h.09Zm44.95.15c3.79,0,7.4,4.31,3.66,8.79,6.13,4.64-.54,12.45-6,7.9-7.75,7.49-12.08-2.68-8.87-5.38-4.74-7.66,1.08-12.5,7.08-9.12a5,5,0,0,1,4.14-2.23Zm-63.32.18,6.82,1.5-1.37,6.37-6.66-1.33Zm22.56.16,6.23,3.05-4.83,4.58-3.59-1.76Zm-40,.72a1.67,1.67,0,0,1,1.73,1.61,1.68,1.68,0,0,1-3.36.09v-.1a1.68,1.68,0,0,1,1.68-1.64Zm13.47.21a1.65,1.65,0,1,1,0,3.3h0a1.67,1.67,0,1,1,0-3.34Zm-31,1,1.57,6.27L66.42,203l-2.26-6.22Zm4.34.44a1.66,1.66,0,1,1-1.68,1.66,1.67,1.67,0,0,1,1.68-1.66.14.14,0,0,1,.09,0ZM169,198c-.48.57-1.1,1.26-1.1,1.26a4.38,4.38,0,0,0-4.11.3L161.67,198c-1.71-1.36-2.28-1.67-2.28-1.11a5.68,5.68,0,0,0,1.29,1.3,14.7,14.7,0,0,1,2.32,2.21,4,4,0,0,0,.43,3.91s0,.16-.65.87c-1.23,1.27-2.49,3.24-2.2,3.53s1.39-.49,2.68-2.21c.92-1.22,1.2-1.25,1.2-1.25,1.57.42,2.44.79,4-.48a6.21,6.21,0,0,1,1.77,1.13c1.84,1.5,2.51,1.82,2.71,1.31s-.08-.68-1.64-1.86l-2.15-1.65a3.71,3.71,0,0,0-.57-3.74s0,.08,1.73-2.06c1.11-1.43,1.31-1.6,1-1.95-.5-.64-2.14,1.9-2.3,2.11Zm-48.7-1.83,6.16,2.54-2.21,6.33-5.95-2.38Zm-67.67.42a1.17,1.17,0,1,1-.07-.07h.12Zm62.92.17a1.18,1.18,0,1,1-.07-.06h.12Zm-67.21.45,2,4.89-4.58-3.35Zm50.47,1.27,6.13.71-1,5.75-5.28-.48Zm-6.69,0L92,204.42l-5.82.24-.49-5.86Zm-29.94,1.08a1.65,1.65,0,1,1-1.6,1.72.62.62,0,0,1,0-.13,1.67,1.67,0,0,1,1.66-1.65Zm-4.58.06,2.37,5.94-3.67,1.74-5-4.59Zm21.9.08,1,5.64-6.07,1.48-1.47-5.75Zm86.75.05a2.36,2.36,0,1,1-2.39,2.36,2.38,2.38,0,0,1,2.39-2.36Zm-71,.18a1.65,1.65,0,1,1-1.67,1.65A1.66,1.66,0,0,1,95.19,200h0Zm16.54.61,6.47,2.06L116,207.73l-5.59-1.5Zm-28.68.21a1.65,1.65,0,1,1-1.67,1.66h0A1.67,1.67,0,0,1,83,200.77Zm24.6.61a1.66,1.66,0,1,1-1.68,1.67v0a1.66,1.66,0,0,1,1.67-1.65Zm-41.09,2,2.22,5L62.7,211,60,205.79Zm4.31.3a1.66,1.66,0,1,1-1.68,1.65,1.66,1.66,0,0,1,1.68-1.65Zm22.42,1.51a69.8,69.8,0,0,1,26.26,5l-2.15,2c-23.5-8-38.86-4.36-54.59,2.44l-1.6-2A73.86,73.86,0,0,1,93.29,205.14Zm26.58.07a1.65,1.65,0,1,1-1.68,1.65,1.67,1.67,0,0,1,1.68-1.65Zm-61.22,3.62c1.35.08,1.48,2.55.84,1.84L58,209A1.37,1.37,0,0,1,58.65,208.83Zm62.8,1c0,1.88-1.86,14.47-7.94,23.11a60.41,60.41,0,0,0-2.64-13.1s6.55-5.92,10.58-10Zm-78,19.11L75.22,271H71.89c-.7-3.1-1.7-6.26-3.67-8.62a15,15,0,0,0-6-4.66c-1.74-.78-2-.62-2.07-1.95-.52-7.37-6.58-12-11.22-13.76-.44-4.46-2.49-8.79-7.61-12.53Zm-3.09,1c2.89,1.95,6.08,3.66,7.79,11.39.13,1.62.23,1.44,1.52,2,5.06,1.46,9.46,7.45,9.84,12.7,0,1.57.52,1.72,2.49,2.53a15.74,15.74,0,0,1,6.38,5.21A17,17,0,0,1,71.07,271H69.32c-1.24-7.7-6.16-10.75-11.38-12.22.41-10.87-8.17-14.26-11.18-14.78.18-7.81-5-11.06-8.3-13.68a11.14,11.14,0,0,1,1.91-.38ZM35.24,231c2.6.83,4.56,4.4,4.36,6,3.43.43,7,3.68,6.24,7.07a.86.86,0,0,1-1.06-.21c.92-6.58-9.06-3.33-5.07,1.43l-1.78,1.16c-1.44-6.59-3.21-10.32-5.13-15.08C33.51,231.19,35.24,231,35.24,231Zm8.26,13.79a1.59,1.59,0,1,1-1.6,1.59h0a1.59,1.59,0,0,1,1.6-1.56Zm8.57,7.11a6.85,6.85,0,0,1,5,6.24H56.2c-1.34-6-8.31-2.74-5.4,2.06-3.72,1.35-3.43,4.74-2.33,6.08a4,4,0,0,0,5.61.23A3.87,3.87,0,0,0,55,265.2c3.62,4.62,8.61-.56,4.2-4.88,3.62,1.31,4.19,6.08,3.65,7.56,1.67.56,3.61,3.18,3.35,3.17H39.14s1.3-10.75-.09-18.85c1.8.42,3,.85,5.08-1.54,3.34,2.73,5.76.67,5.59-1.69a4.5,4.5,0,0,0-2.56-3.35c2.92-.7,5.14,4.29,4.91,6.26Zm3,7.57a1.63,1.63,0,1,1,.25,3.25h-.25a1.63,1.63,0,0,1,0-3.25Z" transform="translate(-0.8 -3.35)"/>
  </g>
</svg>
