<svg xmlns="http://www.w3.org/2000/svg" viewBox="0 0 211 284.5">
  <defs>
    <style>
      .a {
        fill: #d40000;
      }
    </style>
  </defs>
  <title>h10</title>
  <g>
    <g>
      <path class="a" d="M-1.28,31.37V-.17H1.87V31.37Z" transform="translate(1.41 0.17)"/>
      <path class="a" d="M11.21-.17a5.74,5.74,0,0,0-5.47,6v19.5a5.73,5.73,0,0,0,5.47,6H13a5.75,5.75,0,0,0,5.48-6V5.86A5.74,5.74,0,0,0,13-.15Zm.92,3a3.13,3.13,0,0,1,3.23,3v19.7a3.25,3.25,0,0,1-6.47,0V5.82a3.12,3.12,0,0,1,3.21-3h0Z" transform="translate(1.41 0.17)"/>
      <g>
        <path class="a" d="M209.47,252.79v31.54h-3.14V252.79Z" transform="translate(1.41 0.17)"/>
        <path class="a" d="M197,284.3a5.74,5.74,0,0,0,5.47-6V258.8a5.74,5.74,0,0,0-5.47-6h-1.8a5.75,5.75,0,0,0-5.47,6v19.48a5.73,5.73,0,0,0,5.47,6Zm-.91-3a3.13,3.13,0,0,1-3.24-3V258.57a3.25,3.25,0,0,1,6.47,0v19.74a3.12,3.12,0,0,1-3.22,3h0Z" transform="translate(1.41 0.17)"/>
      </g>
    </g>
    <path class="a" d="M-.4,46.19C-2,42.71-2.17,36.76,2.64,36c3.62-.46,5.07,1.2,5.37,3.75.15.74.58.79.71-.06a4.25,4.25,0,0,1,4.67-3.78l.19,0c5.61,1,5.28,7,3.45,11.18-2.78,5.48-5.69,9-8.31,14.49-3-5.74-6.6-10.41-9-15.34Z" transform="translate(1.41 0.17)"/>
    <path class="a" d="M34.59,14.33c7.24-.47,11,5.63,11.75,10.45.43.76.68.55.85,0,.35-6.27,6-11.27,11.19-10.58,8.44.1,13.57,9.38,12.16,17.23-1.85,9.6-7.1,15.38-11,21.32C55,58.91,49,67.77,47.05,72.09c0,0-6.08-9.21-14.11-20-5.33-7.27-9.6-15.13-10-21.88C22.49,22.45,25.7,15.51,34.59,14.33Z" transform="translate(1.41 0.17)"/>
    <path class="a" d="M91.52,47c7.24-.48,11,5.62,11.75,10.44.45.77.68.55.85,0,.36-6.18,6-11.23,11.15-10.54,8.44.11,13.57,9.39,12.16,17.24-1.76,9.59-7,15.37-11,21.31C112,91.66,106,100.51,104,104.84c0,0-6.08-9.22-14.11-20-5.33-7.25-9.59-15.1-10-21.86-.46-7.72,2.76-14.65,11.64-15.84Z" transform="translate(1.41 0.17)"/>
    <path class="a" d="M147.61,14.33c7.24-.47,11,5.63,11.75,10.45.45.76.68.55.85,0,.36-6.19,6-11.23,11.15-10.54,8.44.1,13.57,9.38,12.16,17.23-1.76,9.6-7,15.38-11,21.32-4.47,6.16-10.5,15-12.45,19.34,0,0-6.08-9.21-14.11-20-5.33-7.24-9.59-15.1-10-21.85-.45-7.73,2.76-14.65,11.65-15.85Z" transform="translate(1.41 0.17)"/>
    <path class="a" d="M147.61,79.74c7.24-.48,11,5.63,11.75,10.45.45.76.68.55.85,0,.36-6.19,6-11.24,11.15-10.54,8.44.1,13.57,9.38,12.16,17.23-1.76,9.6-7,15.37-11,21.32-4.47,6.16-10.5,15-12.45,19.33,0,0-6.08-9.21-14.11-20-5.33-7.25-9.59-15.11-10-21.87-.45-7.72,2.76-14.64,11.65-15.84Z" transform="translate(1.41 0.17)"/>
    <path class="a" d="M34.59,79.74c7.24-.48,11,5.63,11.75,10.45.43.76.68.55.85,0,.35-6.19,6-11.24,11.15-10.54,8.44.1,13.56,9.38,12.16,17.23-1.77,9.6-7,15.37-11,21.32-4.48,6.16-10.51,15-12.45,19.33,0,0-6.08-9.21-14.11-20-5.37-7.31-9.64-15.17-10.07-21.91C22.45,87.88,25.66,81,34.55,79.76Z" transform="translate(1.41 0.17)"/>
    <path class="a" d="M147.61,204.27c7.24.48,11-5.62,11.75-10.44.45-.77.68-.55.85,0,.36,6.18,6,11.24,11.15,10.54,8.44-.11,13.57-9.39,12.16-17.24-1.76-9.59-7-15.36-11-21.31-4.47-6.17-10.5-15-12.45-19.34,0,0-6.08,9.21-14.11,20-5.33,7.25-9.59,15.1-10,21.86-.45,7.72,2.76,14.65,11.65,15.84Z" transform="translate(1.41 0.17)"/>
    <path class="a" d="M147.61,269.46c7.24.47,11-5.63,11.75-10.45.45-.76.68-.55.85,0,.36,6.19,6,11.23,11.15,10.54,8.44-.1,13.57-9.38,12.16-17.23-1.76-9.6-7-15.38-11-21.32-4.47-6.16-10.5-15-12.45-19.34,0,0-6.08,9.21-14.11,20-5.33,7.25-9.59,15.11-10,21.86-.45,7.73,2.76,14.65,11.65,15.85Z" transform="translate(1.41 0.17)"/>
    <path class="a" d="M91.05,236.87c7.23.47,11-5.63,11.75-10.45.44-.77.68-.55.84,0,.36,6.19,6,11.23,11.15,10.54,8.43-.11,13.57-9.38,12.16-17.24-1.76-9.59-7-15.37-11-21.31-4.48-6.16-10.51-15-12.46-19.35,0,0-6.08,9.23-14.09,20-5.33,7.25-9.61,15.1-10,21.86C79,228.76,82.16,235.67,91.05,236.87Z" transform="translate(1.41 0.17)"/>
    <path class="a" d="M34.59,204.27c7.24.48,11-5.62,11.75-10.44.43-.77.68-.55.85,0,.35,6.18,6,11.24,11.15,10.54,8.44-.11,13.56-9.39,12.16-17.24-1.77-9.59-7-15.36-11-21.31-4.48-6.17-10.51-15-12.45-19.34,0,0-6.08,9.21-14.11,20-5.37,7.32-9.64,15.21-10.07,21.93-.46,7.72,2.75,14.65,11.64,15.84Z" transform="translate(1.41 0.17)"/>
    <path class="a" d="M34.59,269.46c7.24.47,11-5.63,11.75-10.45.43-.76.68-.55.85,0,.35,6.19,6,11.23,11.15,10.54,8.44-.1,13.56-9.38,12.16-17.23-1.77-9.6-7-15.38-11-21.32-4.48-6.16-10.51-15-12.45-19.34,0,0-6.08,9.21-14.11,20-5.33,7.25-9.6,15.11-10,21.86-.46,7.73,2.76,14.65,11.64,15.85Z" transform="translate(1.41 0.17)"/>
    <path class="a" d="M191,237.27c-1.61,3.48-1.79,9.42,3,10.22,3.61.46,5.06-1.2,5.37-3.75.14-.74.57-.79.7.06a4.27,4.27,0,0,0,4.68,3.78l.19,0c5.61-1,5.27-7,3.45-11.18-2.77-5.47-5.68-8.94-8.36-14.46-3,5.74-6.59,10.42-9,15.35Z" transform="translate(1.41 0.17)"/>
  </g>
</svg>
