<svg xmlns="http://www.w3.org/2000/svg" viewBox="0 0 208.17 284.14">
  <defs>
    <style>
      .a {
        fill: #d40000;
      }
    </style>
  </defs>
  <title>0H</title>
  <g>
    <g>
      <path class="a" d="M8.13,45.84V14.34h3.11v31.5Z" transform="translate(-8.02 -14.34)"/>
      <path class="a" d="M20.46,14.34c-3,0-5.4,2.68-5.4,6V39.82c0,3.34,2.4,6,5.4,6H22.2c3,0,5.41-2.68,5.41-6V20.36c0-3.34-2.41-6-5.41-6Zm.9,3a3.09,3.09,0,0,1,3.19,3V40a3.2,3.2,0,0,1-6.38,0V20.32A3.09,3.09,0,0,1,21.36,17.31Z" transform="translate(-8.02 -14.34)"/>
      <g>
        <path class="a" d="M216.1,267v31.5H213V267Z" transform="translate(-8.02 -14.34)"/>
        <path class="a" d="M203.77,298.47c3,0,5.4-2.68,5.4-6V273c0-3.34-2.41-6-5.4-6H202c-3,0-5.4,2.68-5.4,6v19.46c0,3.34,2.41,6,5.4,6Zm-.9-3a3.09,3.09,0,0,1-3.19-3V272.77a3.2,3.2,0,0,1,6.38,0v19.72A3.09,3.09,0,0,1,202.87,295.49Z" transform="translate(-8.02 -14.34)"/>
      </g>
    </g>
    <path class="a" d="M9,60.64c-1.58-3.47-1.75-9.41,3-10.21,3.57-.46,5,1.2,5.3,3.74.15.74.57.79.7-.06a4.21,4.21,0,0,1,4.8-3.75c5.53,1,5.21,7,3.4,11.16C23.46,67,20.59,70.46,18,76c-3-5.74-6.51-10.4-8.93-15.33Z" transform="translate(-8.02 -14.34)"/>
    <path class="a" d="M43.53,28.82c7.14-.47,10.86,5.63,11.59,10.44.43.76.67.55.84,0C56.31,33,61.83,28,67,28.69c8.33.1,13.39,9.37,12,17.21C77.18,55.49,72,61.26,68.11,67.2c-4.42,6.15-10.37,15-12.29,19.31,0,0-6-9.2-13.92-20C36.64,59.25,32.43,51.4,32,44.65,31.59,36.93,34.76,30,43.53,28.82Z" transform="translate(-8.02 -14.34)"/>
    <path class="a" d="M99.71,61.49c7.14-.48,10.87,5.62,11.59,10.43.44.77.67.55.84,0,.35-6.17,5.88-11.22,11-10.53,8.33.11,13.39,9.38,12,17.22-1.74,9.58-6.9,15.35-10.81,21.29-4.42,6.16-10.37,15-12.29,19.32,0,0-6-9.2-13.92-20-5.26-7.24-9.47-15.08-9.86-21.84-.45-7.71,2.72-14.63,11.49-15.82Z" transform="translate(-8.02 -14.34)"/>
    <path class="a" d="M155.06,28.82c7.14-.47,10.87,5.63,11.59,10.44.44.76.67.55.84,0,.35-6.18,5.88-11.22,11-10.53,8.33.1,13.39,9.37,12,17.21-1.74,9.59-6.9,15.36-10.81,21.3-4.42,6.15-10.37,15-12.29,19.31,0,0-6-9.2-13.92-20-5.26-7.23-9.47-15.08-9.86-21.83-.45-7.72,2.72-14.63,11.49-15.83Z" transform="translate(-8.02 -14.34)"/>
    <path class="a" d="M155.06,94.15c7.14-.47,10.87,5.63,11.59,10.44.44.76.67.55.84,0,.35-6.18,5.88-11.22,11-10.53,8.33.1,13.39,9.37,12,17.21-1.74,9.59-6.9,15.36-10.81,21.3-4.42,6.15-10.37,15-12.29,19.31,0,0-6-9.2-13.92-20-5.26-7.24-9.47-15.09-9.86-21.84-.45-7.72,2.72-14.63,11.49-15.83Z" transform="translate(-8.02 -14.34)"/>
    <path class="a" d="M43.53,94.15c7.14-.47,10.86,5.63,11.59,10.44.43.76.67.55.84,0,.35-6.18,5.87-11.22,11-10.53,8.33.1,13.39,9.37,12,17.21-1.74,9.59-6.9,15.36-10.81,21.3-4.42,6.15-10.37,15-12.29,19.31,0,0-6-9.2-13.92-20C36.64,124.58,32.43,116.73,32,110c-.45-7.72,2.72-14.63,11.49-15.83Z" transform="translate(-8.02 -14.34)"/>
    <path class="a" d="M155.06,218.54c7.14.48,10.87-5.62,11.59-10.43.44-.77.67-.55.84,0,.35,6.17,5.88,11.22,11,10.53,8.33-.11,13.39-9.38,12-17.22-1.74-9.58-6.9-15.35-10.81-21.29-4.42-6.16-10.37-15-12.29-19.32,0,0-6,9.2-13.92,20-5.26,7.24-9.47,15.08-9.86,21.83-.45,7.72,2.72,14.64,11.49,15.83Z" transform="translate(-8.02 -14.34)"/>
    <path class="a" d="M155.06,283.65c7.14.47,10.87-5.63,11.59-10.44.44-.76.67-.55.84,0,.35,6.18,5.88,11.22,11,10.53,8.33-.1,13.39-9.37,12-17.21-1.74-9.59-6.9-15.36-10.81-21.3-4.42-6.15-10.37-15-12.29-19.31,0,0-6,9.2-13.92,20-5.26,7.24-9.47,15.09-9.86,21.84-.45,7.72,2.72,14.63,11.49,15.83Z" transform="translate(-8.02 -14.34)"/>
    <path class="a" d="M99.24,251.1c7.14.47,10.87-5.63,11.6-10.44.43-.77.67-.55.83,0,.35,6.18,5.88,11.22,11,10.53,8.32-.11,13.39-9.37,12-17.22-1.74-9.58-6.9-15.35-10.81-21.29-4.42-6.15-10.37-15-12.29-19.32,0,0-6,9.21-13.91,20-5.26,7.24-9.48,15.08-9.87,21.84C87.3,243,90.47,249.9,99.24,251.1Z" transform="translate(-8.02 -14.34)"/>
    <path class="a" d="M43.53,218.54c7.14.48,10.86-5.62,11.59-10.43.43-.77.67-.55.84,0,.35,6.17,5.87,11.22,11,10.53,8.33-.11,13.39-9.38,12-17.22-1.74-9.58-6.9-15.35-10.81-21.29-4.42-6.16-10.37-15-12.29-19.32,0,0-6,9.2-13.92,20C36.64,188.12,32.43,196,32,202.71c-.45,7.72,2.72,14.64,11.49,15.83Z" transform="translate(-8.02 -14.34)"/>
    <path class="a" d="M43.53,283.65c7.14.47,10.86-5.63,11.59-10.44.43-.76.67-.55.84,0,.35,6.18,5.87,11.22,11,10.53,8.33-.1,13.39-9.37,12-17.21-1.74-9.59-6.9-15.36-10.81-21.3-4.42-6.15-10.37-15-12.29-19.31,0,0-6,9.2-13.92,20-5.26,7.24-9.47,15.09-9.86,21.84-.45,7.72,2.72,14.63,11.49,15.83Z" transform="translate(-8.02 -14.34)"/>
    <path class="a" d="M197.84,251.5c-1.59,3.47-1.76,9.4,3,10.2,3.56.46,5-1.19,5.3-3.74.14-.74.56-.79.69.06a4.22,4.22,0,0,0,4.81,3.75c5.53-.95,5.2-7,3.4-11.16-2.73-5.47-5.6-8.93-8.25-14.45-3,5.74-6.5,10.41-8.92,15.34Z" transform="translate(-8.02 -14.34)"/>
  </g>
</svg>
