<svg xmlns="http://www.w3.org/2000/svg" viewBox="0 0 211 284.5">
  <defs>
    <style>
      .a {
        fill: #d40000;
      }
    </style>
  </defs>
  <title>h2</title>
  <g>
    <path class="a" d="M-.93,46.06c-1.61-3.47-1.79-9.43,3.06-10.23,3.62-.46,5.09,1.2,5.4,3.75.14.75.57.79.7,0a4.26,4.26,0,0,1,4.69-3.78l.21,0c5.63.94,5.3,7,3.46,11.18-2.78,5.49-5.7,9-8.4,14.48C5.13,55.72,1.56,51.05-.9,46.11Z" transform="translate(1.95 0.3)"/>
    <g>
      <path class="a" d="M190.32,237.75c-1.61,3.47-1.78,9.43,3.06,10.23,3.64.46,5.09-1.2,5.4-3.75.15-.75.57-.79.71.06a4.28,4.28,0,0,0,4.7,3.78l.19,0c5.64-1,5.31-7,3.47-11.19-2.78-5.49-5.71-9-8.4-14.48-3,5.76-6.63,10.43-9.1,15.37Z" transform="translate(1.95 0.3)"/>
      <g>
        <g>
          <path class="a" d="M-1.86,32.44l.17-2c.52-6.25,1.91-8.37,9.81-14.89C12,12.38,13.21,10.82,13.38,9c.5-4.26-3.41-5.61-6-5.63-3.3,0-7,1.92-5.25,6.44l-3.68,1C-2.27,6.65-1.52,2.7,2,1,6.61-1.34,12.55-.44,15.54,3.16a8.35,8.35,0,0,1,1.4,8.37C13.76,18.21,3,21.16,2.15,28.89H14v-4.3h3.5v7.92Z" transform="translate(1.95 0.3)"/>
          <path class="a" d="M208.64,251.45l-.16,2c-.52,6.25-1.92,8.37-9.81,14.89-3.83,3.17-5.1,4.72-5.26,6.54-.5,4.26,3.41,5.6,6,5.63,3.3,0,7-1.92,5.26-6.44l3.73-1.05c.74,4.21,0,8.17-3.5,9.92-4.62,2.29-10.57,1.39-13.57-2.21a8.34,8.34,0,0,1-1.39-8.38c3.15-6.68,13.87-9.62,14.76-17.35H192.79v4.3h-3.48v-7.93Z" transform="translate(1.95 0.3)"/>
        </g>
        <path class="a" d="M91.19,13.72c7.28-.47,11.08,5.65,11.81,10.47.45.76.68.55.86,0,.35-6.2,6-11.25,11.2-10.56,8.49.11,13.64,9.39,12.23,17.26-1.77,9.6-7,15.38-11,21.34-4.51,6.16-10.57,15-12.53,19.36,0,0-6.11-9.23-14.18-20-5.37-7.33-9.66-15.24-10-22-.46-7.73,2.77-14.66,11.7-15.87Z" transform="translate(1.95 0.3)"/>
        <path class="a" d="M91.19,270.59c7.28.47,11.08-5.65,11.81-10.47.45-.76.68-.55.86,0,.35,6.2,6,11.25,11.2,10.56,8.49-.11,13.64-9.39,12.23-17.26-1.77-9.6-7-15.38-11-21.34-4.51-6.16-10.57-15-12.53-19.36,0,0-6.11,9.23-14.18,20-5.36,7.26-9.65,15.12-10,21.89-.46,7.73,2.77,14.66,11.7,15.87Z" transform="translate(1.95 0.3)"/>
      </g>
    </g>
  </g>
</svg>
