<svg xmlns="http://www.w3.org/2000/svg" viewBox="0 0 207.07 283.89">
  <defs>
    <style>
      .a {
        fill: #d40000;
      }
    </style>
  </defs>
  <title>2H</title>
  <g>
    <path class="a" d="M9.58,60.73c-1.58-3.47-1.76-9.41,3-10.21,3.56-.46,5,1.2,5.3,3.74.14.75.56.79.69,0a4.21,4.21,0,0,1,4.81-3.75c5.53.94,5.2,7,3.4,11.15-2.73,5.48-5.6,8.94-8.25,14.45-3-5.74-6.5-10.4-8.92-15.33Z" transform="translate(-8.58 -14.46)"/>
    <g>
      <path class="a" d="M197.3,252c-1.58,3.47-1.75,9.41,3,10.21,3.57.46,5-1.2,5.3-3.74.15-.75.56-.79.7.06a4.21,4.21,0,0,0,4.8,3.75c5.53-.95,5.21-7,3.4-11.16-2.73-5.48-5.6-8.94-8.24-14.45-3,5.74-6.51,10.4-8.93,15.33Z" transform="translate(-8.58 -14.46)"/>
      <g>
        <g>
          <path class="a" d="M8.67,47.14l.17-2c.51-6.24,1.87-8.35,9.62-14.86,3.76-3.16,5-4.72,5.17-6.52.49-4.26-3.35-5.6-5.86-5.62-3.24,0-6.91,1.91-5.16,6.42L9,25.6c-.73-4.2,0-8.14,3.43-9.89,4.55-2.28,10.38-1.38,13.32,2.21a8.43,8.43,0,0,1,1.37,8.35C24,32.94,13.47,35.88,12.6,43.59H24.23V39.3h3.43v7.9Z" transform="translate(-8.58 -14.46)"/>
          <path class="a" d="M215.28,265.67l-.16,2c-.51,6.24-1.88,8.35-9.63,14.86-3.76,3.16-5,4.71-5.16,6.52-.49,4.26,3.35,5.59,5.85,5.62,3.24,0,6.91-1.91,5.16-6.42L215,287.2c.73,4.2,0,8.15-3.43,9.9-4.54,2.28-10.38,1.38-13.32-2.21a8.45,8.45,0,0,1-1.37-8.36c3.1-6.67,13.62-9.6,14.49-17.31H199.72v4.29H196.3V265.6Z" transform="translate(-8.58 -14.46)"/>
        </g>
        <path class="a" d="M100,28.46c7.14-.47,10.87,5.63,11.59,10.44.44.76.67.55.84,0,.35-6.18,5.87-11.22,11-10.53,8.33.11,13.39,9.37,12,17.22-1.74,9.58-6.9,15.35-10.81,21.29-4.42,6.15-10.37,15-12.29,19.32,0,0-6-9.21-13.92-20C93.14,58.89,88.93,51,88.54,44.29c-.45-7.71,2.72-14.63,11.49-15.83Z" transform="translate(-8.58 -14.46)"/>
        <path class="a" d="M100,284.77c7.14.47,10.87-5.63,11.59-10.44.44-.76.67-.55.84,0,.35,6.18,5.87,11.22,11,10.53,8.33-.11,13.39-9.37,12-17.22-1.74-9.58-6.9-15.35-10.81-21.29-4.42-6.15-10.37-15-12.29-19.32,0,0-6,9.21-13.92,20-5.26,7.24-9.47,15.08-9.86,21.84-.45,7.71,2.72,14.63,11.49,15.83Z" transform="translate(-8.58 -14.46)"/>
      </g>
    </g>
  </g>
</svg>
