<svg xmlns="http://www.w3.org/2000/svg" viewBox="0 0 211 284.5">
  <defs>
    <style>
      .a {
        fill: #d40000;
      }
    </style>
  </defs>
  <title>h3</title>
  <g>
    <g>
      <path class="a" d="M-2.12,25.19.47,23.35c2.27,3.54,4.79,5.87,8.65,5.47,5.79-.38,8.17-6.23,7-10.64a6.76,6.76,0,0,0-8.45-4.31,6.48,6.48,0,0,0-1.38.6c-.9.5-1.94,1.11-1.94,1.11L3,13.35l8.94-10.2H2.21V7.38H-1.52V-.2h19V2.37s-5.1,5.08-6.76,7.86a9.16,9.16,0,0,1,8.67,6.67,16.93,16.93,0,0,1-.53,9,11.7,11.7,0,0,1-9.52,6.43c-6.4.41-9.8-3.91-11.49-7.11Z" transform="translate(2.17 0.2)"/>
      <path class="a" d="M208.5,258.92l-2.61,1.84c-2.25-3.54-4.78-5.88-8.64-5.48-5.8.39-8.16,6.23-7,10.65a6.77,6.77,0,0,0,8.44,4.34,7,7,0,0,0,1.34-.58c.9-.5,1.94-1,1.94-1l1.6,2-9.18,10.24h9.72v-4.23h3.72v7.59h-19v-2.58s5.11-5.08,6.77-7.86a9.16,9.16,0,0,1-8.67-6.67,17,17,0,0,1,.52-9,11.73,11.73,0,0,1,9.55-6.37c6.4-.41,9.8,3.9,11.5,7.11Z" transform="translate(2.17 0.2)"/>
    </g>
    <path class="a" d="M-.86,46.67c-1.61-3.47-1.79-9.41,3.07-10.22,3.63-.45,5.1,1.2,5.41,3.75.14.74.57.79.71-.06A4.26,4.26,0,0,1,13,36.37l.17,0c5.65.94,5.32,7,3.48,11.16C13.88,53,11,56.51,8.25,62,5.19,56.28,1.61,51.61-.87,46.67Z" transform="translate(2.17 0.2)"/>
    <path class="a" d="M90.79,14.71c7.29-.48,11.1,5.62,11.84,10.44.44.77.69.55.85,0,.36-6.18,6-11.23,11.23-10.54,8.51.11,13.68,9.38,12.26,17.24-1.78,9.6-7,15.37-11,21.32-4.51,6.16-10.59,15-12.55,19.35,0,0-6.18-9.22-14.2-20C83.8,45.24,79.5,37.39,79.1,30.62,78.64,22.9,81.88,16,90.83,14.78Z" transform="translate(2.17 0.2)"/>
    <path class="a" d="M90.85,113.27c7.3-.48,11.1,5.63,11.85,10.44.44.77.68.55.85,0,.35-6.18,6-11.23,11.24-10.54,8.5.11,13.67,9.39,12.25,17.24-1.77,9.6-7.05,15.38-11,21.32-4.51,6.17-10.6,15-12.55,19.35,0,0-6.12-9.21-14.21-20-5.37-7.25-9.67-15.1-10.08-21.87-.45-7.72,2.78-14.65,11.73-15.84Z" transform="translate(2.17 0.2)"/>
    <path class="a" d="M190.07,238.16c-1.62,3.48-1.8,9.42,3.06,10.22,3.63.46,5.1-1.2,5.41-3.74.14-.74.57-.79.71.06a4.29,4.29,0,0,0,4.72,3.78l.19,0c5.64-.95,5.31-7,3.47-11.17-2.79-5.49-5.72-8.95-8.43-14.47-3.06,5.74-6.63,10.42-9.1,15.35Z" transform="translate(2.17 0.2)"/>
    <path class="a" d="M90.79,269.66c7.29.48,11.1-5.63,11.84-10.44.44-.77.69-.55.85,0,.36,6.18,6,11.24,11.23,10.54,8.51-.11,13.68-9.39,12.26-17.24-1.78-9.59-7-15.37-11-21.32-4.51-6.17-10.59-15-12.55-19.35,0,0-6.18,9.21-14.2,20C83.8,239.13,79.5,247,79.1,253.74c-.46,7.73,2.78,14.66,11.73,15.85Z" transform="translate(2.17 0.2)"/>
  </g>
</svg>
