<svg xmlns="http://www.w3.org/2000/svg" viewBox="0 0 206.63 284.1">
  <defs>
    <style>
      .a {
        fill: #d40000;
      }
    </style>
  </defs>
  <title>3H</title>
  <g>
    <g>
      <path class="a" d="M9,39.71l2.54-1.84c2.22,3.54,4.69,5.86,8.47,5.46,5.67-.38,8-6.22,6.84-10.62A6.6,6.6,0,0,0,17.22,29c-.88.5-1.9,1.11-1.9,1.11L14,27.89,22.75,17.7H13.24v4.22H9.59V14.35H28.18v2.57s-5,5.07-6.62,7.85a9,9,0,0,1,8.49,6.66,17.3,17.3,0,0,1-.52,9,11.46,11.46,0,0,1-9.32,6.42c-6.27.41-9.6-3.91-11.26-7.1Z" transform="translate(-8.95 -14.35)"/>
      <path class="a" d="M215.28,273.1l-2.55,1.84c-2.21-3.54-4.68-5.87-8.46-5.47-5.68.39-8,6.22-6.84,10.63a6.6,6.6,0,0,0,9.58,3.76c.88-.5,1.9-1,1.9-1l1.57,2-9,10.23H211v-4.22h3.65v7.57H196v-2.57s5-5.07,6.63-7.85a9,9,0,0,1-8.49-6.66,17.33,17.33,0,0,1,.51-9A11.48,11.48,0,0,1,204,266c6.27-.41,9.6,3.9,11.26,7.1Z" transform="translate(-8.95 -14.35)"/>
    </g>
    <path class="a" d="M10.24,61.16c-1.58-3.47-1.76-9.4,3-10.21,3.56-.45,5,1.2,5.3,3.75.14.74.56.79.7-.06A4.2,4.2,0,0,1,24,50.89c5.53.94,5.21,7,3.4,11.15-2.73,5.48-5.6,8.94-8.24,14.46-3-5.75-6.51-10.41-8.93-15.34Z" transform="translate(-8.95 -14.35)"/>
    <path class="a" d="M100,29.24c7.14-.48,10.87,5.62,11.59,10.43.44.77.68.55.84,0,.35-6.17,5.88-11.22,11-10.53,8.33.11,13.39,9.37,12,17.22-1.74,9.58-6.9,15.35-10.81,21.29-4.42,6.15-10.37,15-12.29,19.32,0,0-6.05-9.21-13.91-20-5.27-7.24-9.48-15.08-9.87-21.84-.45-7.71,2.72-14.63,11.49-15.82Z" transform="translate(-8.95 -14.35)"/>
    <path class="a" d="M100.06,127.66c7.15-.48,10.87,5.62,11.6,10.43.43.77.67.55.84,0,.34-6.17,5.87-11.22,11-10.53,8.33.11,13.39,9.38,12,17.22-1.73,9.58-6.9,15.35-10.8,21.29-4.42,6.16-10.38,15-12.29,19.32,0,0-6-9.2-13.92-20-5.26-7.24-9.47-15.08-9.87-21.84-.44-7.71,2.72-14.63,11.49-15.82Z" transform="translate(-8.95 -14.35)"/>
    <path class="a" d="M197.23,252.37c-1.58,3.48-1.76,9.41,3,10.21,3.56.46,5-1.2,5.3-3.74.14-.74.56-.79.69.06a4.22,4.22,0,0,0,4.81,3.75c5.53-.95,5.2-7,3.4-11.16-2.73-5.48-5.6-8.93-8.25-14.45-3,5.74-6.5,10.41-8.92,15.33Z" transform="translate(-8.95 -14.35)"/>
    <path class="a" d="M100,283.83c7.14.48,10.87-5.63,11.59-10.43.44-.77.68-.55.84,0,.35,6.17,5.88,11.22,11,10.53,8.33-.11,13.39-9.38,12-17.22-1.74-9.58-6.9-15.35-10.81-21.29-4.42-6.16-10.37-15-12.29-19.32,0,0-6.05,9.2-13.91,20-5.27,7.24-9.48,15.08-9.87,21.83-.45,7.72,2.72,14.64,11.49,15.83Z" transform="translate(-8.95 -14.35)"/>
  </g>
</svg>
