<svg xmlns="http://www.w3.org/2000/svg" viewBox="0 0 208.24 282.7">
  <defs>
    <style>
      .a {
        fill: #d40000;
      }
    </style>
  </defs>
  <title>4H</title>
  <g>
    <g>
      <path class="a" d="M18.33,46.87V44.06h2.59V39.42H8V36.15l14-21.1h2.28V36.15h4v3.27h-4l-.07,4.64h2.17v2.81Zm2.59-24.09L12,36.15h8.88Z" transform="translate(-7.99 -15.05)"/>
      <path class="a" d="M205.89,265.94v2.81h-2.58v4.63h12.92v3.28l-14,21.09H200V276.66h-4v-3.28h4l.08-4.63h-2.17v-2.81ZM203.31,290l8.88-13.37h-8.88Z" transform="translate(-7.99 -15.05)"/>
    </g>
    <path class="a" d="M9.25,61.49c-1.58-3.47-1.75-9.4,3-10.2,3.56-.46,5,1.19,5.3,3.74.14.74.56.79.69-.06A4.21,4.21,0,0,1,23,51.22c5.52.94,5.2,7,3.4,11.15-2.74,5.48-5.61,8.94-8.25,14.46-3-5.74-6.51-10.41-8.93-15.34Z" transform="translate(-7.99 -15.05)"/>
    <path class="a" d="M45.5,26.56c7.14-.47,10.86,5.63,11.59,10.44.43.76.67.55.84,0,.35-6.18,5.87-11.22,11-10.53,8.33.1,13.39,9.37,12,17.22C79.15,53.23,74,59,70.08,64.94c-4.42,6.15-10.37,15-12.29,19.32,0,0-6-9.21-13.92-20C38.61,57,34.4,49.14,34,42.39c-.45-7.72,2.72-14.63,11.49-15.83Z" transform="translate(-7.99 -15.05)"/>
    <path class="a" d="M155,26.56c7.14-.47,10.87,5.63,11.59,10.44.44.76.67.55.84,0,.35-6.18,5.88-11.22,11-10.53,8.33.1,13.39,9.37,12,17.22-1.74,9.58-6.9,15.35-10.81,21.29-4.42,6.15-10.37,15-12.29,19.32,0,0-6-9.21-13.92-20-5.26-7.24-9.47-15.09-9.86-21.84-.45-7.72,2.72-14.63,11.49-15.83Z" transform="translate(-7.99 -15.05)"/>
    <path class="a" d="M45.5,282.9c7.14.48,10.86-5.62,11.59-10.43.43-.77.67-.55.84,0,.35,6.17,5.87,11.22,11,10.53,8.33-.11,13.39-9.38,12-17.22-1.74-9.58-6.9-15.35-10.81-21.29-4.42-6.16-10.37-15-12.29-19.32,0,0-6,9.2-13.92,20-5.26,7.24-9.47,15.08-9.86,21.84-.45,7.71,2.72,14.63,11.49,15.82Z" transform="translate(-7.99 -15.05)"/>
    <path class="a" d="M155,282.9c7.14.48,10.87-5.62,11.59-10.43.44-.77.67-.55.84,0,.35,6.17,5.88,11.22,11,10.53,8.33-.11,13.39-9.38,12-17.22-1.74-9.58-6.9-15.35-10.81-21.29-4.42-6.16-10.37-15-12.29-19.32,0,0-6,9.2-13.92,20-5.26,7.24-9.47,15.08-9.86,21.84-.45,7.71,2.72,14.63,11.49,15.82Z" transform="translate(-7.99 -15.05)"/>
    <path class="a" d="M196.47,251.61c-1.58,3.47-1.75,9.4,3,10.2,3.57.46,5-1.19,5.3-3.74.15-.74.57-.79.7.06a4.21,4.21,0,0,0,4.81,3.75c5.52-.95,5.2-7,3.39-11.16-2.73-5.47-5.6-8.93-8.24-14.45-3,5.74-6.51,10.41-8.93,15.34Z" transform="translate(-7.99 -15.05)"/>
  </g>
</svg>
