<svg xmlns="http://www.w3.org/2000/svg" viewBox="0 0 211 284.5">
  <defs>
    <style>
      .a {
        fill: #d40000;
      }
    </style>
  </defs>
  <title>h4</title>
  <g>
    <g>
      <path class="a" d="M9.09,31.12V28.29h2.63V23.63H-1.38v-3.3L12.81-.9h2.31V20.33h4.05v3.3H15.12l-.07,4.66h2.2v2.83ZM11.72,6.88l-9,13.45h9Z" transform="translate(1.38 0.9)"/>
      <path class="a" d="M199.15,251.59v2.83h-2.62v4.65h13.09v3.31L195.44,283.6h-2.26V262.38h-4.05v-3.31h4.05l.08-4.65h-2.2v-2.83Zm-2.62,24.21,9-13.45h-9Z" transform="translate(1.38 0.9)"/>
    </g>
    <path class="a" d="M-.11,45.84c-1.6-3.5-1.77-9.46,3-10.27,3.61-.46,5.07,1.2,5.37,3.76.14.75.57.8.7-.06a4.27,4.27,0,0,1,4.67-3.79l.15,0c5.6,1,5.27,7,3.45,11.22-2.78,5.52-5.68,9-8.36,14.55-3-5.77-6.6-10.47-9-15.43Z" transform="translate(1.38 0.9)"/>
    <path class="a" d="M36.62,10.68c7.24-.47,11,5.67,11.75,10.51.43.76.68.55.85,0,.35-6.22,6-11.29,11.15-10.6,8.44.1,13.56,9.43,12.16,17.33-1.81,9.6-7,15.41-11,21.39C57.05,55.5,51,64.4,49.08,68.75c0,0-6.08-9.27-14.11-20.13-5.33-7.3-9.59-15.21-10-22-.46-7.77,2.76-14.72,11.64-15.93Z" transform="translate(1.38 0.9)"/>
    <path class="a" d="M147.58,10.68c7.24-.47,11,5.67,11.74,10.51.45.76.68.55.86,0,.35-6.22,5.95-11.29,11.14-10.6,8.44.1,13.57,9.43,12.16,17.33-1.76,9.64-7,15.45-10.95,21.43-4.48,6.19-10.51,15.09-12.46,19.44,0,0-6.08-9.27-14.1-20.13-5.33-7.28-9.6-15.18-10-22-.46-7.76,2.75-14.72,11.64-15.93Z" transform="translate(1.38 0.9)"/>
    <path class="a" d="M36.62,268.66c7.24.48,11-5.66,11.75-10.5.43-.78.68-.55.85,0,.35,6.21,6,11.29,11.15,10.6,8.44-.11,13.56-9.44,12.16-17.33-1.77-9.64-7-15.45-11-21.43-4.48-6.2-10.51-15.09-12.45-19.44,0,0-6.08,9.26-14.11,20.13-5.33,7.28-9.59,15.17-10,22-.45,7.76,2.76,14.73,11.64,15.92Z" transform="translate(1.38 0.9)"/>
    <path class="a" d="M147.58,268.66c7.24.48,11-5.66,11.74-10.5.45-.78.68-.55.86,0,.35,6.21,5.95,11.29,11.14,10.6,8.44-.11,13.57-9.44,12.16-17.33-1.76-9.64-7-15.45-10.95-21.43-4.48-6.2-10.51-15.09-12.46-19.44,0,0-6.08,9.26-14.1,20.13-5.33,7.28-9.6,15.17-10,22-.46,7.76,2.75,14.73,11.64,15.92Z" transform="translate(1.38 0.9)"/>
    <path class="a" d="M189.6,237.17c-1.6,3.49-1.77,9.46,3,10.26,3.62.46,5.07-1.2,5.37-3.76.15-.75.58-.8.71.06a4.26,4.26,0,0,0,4.67,3.8l.21,0c5.59-.95,5.27-7,3.43-11.23-2.77-5.5-5.67-9-8.35-14.54-3,5.78-6.6,10.47-9.05,15.44Z" transform="translate(1.38 0.9)"/>
  </g>
</svg>
