<svg xmlns="http://www.w3.org/2000/svg" viewBox="0 0 206.87 284.52">
  <defs>
    <style>
      .a {
        fill: #d40000;
      }
    </style>
  </defs>
  <title>5H</title>
  <g>
    <g>
      <path class="a" d="M8.68,38l3.22,0c.61,1.94,2,3.92,3.81,4.47,5.22,1.23,8.57-1.69,9.68-5,1.34-4.07,0-9.79-3.62-11.82-3-1.69-7.4-.27-9.42,3.34l-2.26-1.38L11.3,14.14H26v3.18H14.09l-.18,5.59A9.54,9.54,0,0,1,23,22.39c4.87,2.32,7.13,7.59,6.18,13.81-1.31,6.18-4.2,9.68-10.72,10.19-7.24.06-9.8-4.92-9.77-8.35Z" transform="translate(-8.68 -14.14)"/>
      <path class="a" d="M215.55,274.77l-3.22,0c-.62-1.94-2-3.93-3.82-4.47-5.21-1.23-8.57,1.68-9.67,5-1.34,4.08,0,9.8,3.62,11.83,3,1.69,7.39.26,9.42-3.34l2.25,1.38-1.21,13.42H198.19v-3.17h11.94l.19-5.59a9.59,9.59,0,0,1-9.09.52c-4.86-2.32-7.12-7.59-6.17-13.81,1.31-6.18,4.19-9.69,10.71-10.19,7.25-.06,9.81,4.92,9.78,8.35Z" transform="translate(-8.68 -14.14)"/>
    </g>
    <path class="a" d="M10,61.1c-1.58-3.48-1.76-9.41,3-10.21,3.56-.46,5,1.2,5.3,3.74.14.74.56.79.7-.06a4.2,4.2,0,0,1,4.8-3.75c5.53,1,5.21,7,3.4,11.16-2.73,5.48-5.6,8.93-8.24,14.45C15.9,70.69,12.43,66,10,61.1Z" transform="translate(-8.68 -14.14)"/>
    <path class="a" d="M44.55,28.42c7.15-.47,10.87,5.63,11.6,10.44.43.76.67.55.84,0,.35-6.17,5.87-11.22,11-10.53,8.33.11,13.39,9.38,12,17.22-1.73,9.58-6.89,15.35-10.8,21.3-4.42,6.15-10.38,15-12.29,19.31,0,0-6.05-9.2-13.92-20C37.67,58.85,33.46,51,33.06,44.25c-.44-7.72,2.72-14.63,11.49-15.83Z" transform="translate(-8.68 -14.14)"/>
    <path class="a" d="M155.24,28.42c7.14-.47,10.86,5.63,11.59,10.44.43.76.67.55.84,0,.35-6.17,5.87-11.22,11-10.53,8.33.11,13.39,9.38,12,17.22-1.74,9.58-6.9,15.35-10.81,21.3-4.42,6.15-10.37,15-12.29,19.31,0,0-6.05-9.2-13.92-20-5.26-7.23-9.47-15.08-9.86-21.83-.45-7.72,2.72-14.63,11.49-15.83Z" transform="translate(-8.68 -14.14)"/>
    <path class="a" d="M100.06,127.66c7.15-.48,10.87,5.62,11.6,10.43.43.77.67.55.84,0,.34-6.17,5.87-11.22,11-10.53,8.33.11,13.39,9.38,12,17.22-1.73,9.58-6.9,15.35-10.8,21.29-4.43,6.16-10.38,15-12.29,19.32,0,0-6-9.2-13.92-20-5.26-7.24-9.47-15.08-9.87-21.84-.44-7.71,2.72-14.63,11.49-15.82Z" transform="translate(-8.68 -14.14)"/>
    <path class="a" d="M44.55,282.57c7.15.47,10.87-5.63,11.6-10.44.43-.77.67-.55.84,0,.35,6.18,5.87,11.22,11,10.53,8.33-.11,13.39-9.37,12-17.22-1.73-9.58-6.89-15.35-10.8-21.29-4.42-6.15-10.38-15-12.29-19.32,0,0-6.05,9.21-13.92,20-5.26,7.24-9.47,15.08-9.87,21.84-.44,7.71,2.72,14.63,11.49,15.83Z" transform="translate(-8.68 -14.14)"/>
    <path class="a" d="M155.24,282.57c7.14.47,10.86-5.63,11.59-10.44.43-.77.67-.55.84,0,.35,6.18,5.87,11.22,11,10.53,8.33-.11,13.39-9.37,12-17.22-1.74-9.58-6.9-15.35-10.81-21.29-4.42-6.15-10.37-15-12.29-19.32,0,0-6.05,9.21-13.92,20-5.26,7.24-9.47,15.08-9.86,21.84-.45,7.71,2.72,14.63,11.49,15.83Z" transform="translate(-8.68 -14.14)"/>
    <path class="a" d="M196.72,252c-1.59,3.48-1.76,9.41,3,10.21,3.56.46,5-1.2,5.3-3.74.14-.74.56-.79.69.06a4.22,4.22,0,0,0,4.81,3.75c5.53-1,5.2-7,3.4-11.16-2.73-5.48-5.6-8.94-8.25-14.45-3,5.74-6.5,10.41-8.92,15.33Z" transform="translate(-8.68 -14.14)"/>
  </g>
</svg>
