<svg xmlns="http://www.w3.org/2000/svg" viewBox="0 0 211 284.5">
  <defs>
    <style>
      .a {
        fill: #d40000;
      }
    </style>
  </defs>
  <title>h5</title>
  <g>
    <g>
      <path class="a" d="M-2.06,23.84H1.22c.62,1.94,2,3.92,3.89,4.47,5.32,1.23,8.74-1.69,9.87-5,1.37-4.07,0-9.79-3.69-11.82-3.06-1.69-7.55-.27-9.61,3.34L-.63,13.45.61,0h15V3.16H3.45L3.27,8.75a9.86,9.86,0,0,1,9.27-.52c5,2.32,7.27,7.59,6.3,13.81-1.33,6.18-4.28,9.68-10.93,10.19-7.38.06-10-4.92-10-8.35Z" transform="translate(2.06 0.03)"/>
      <path class="a" d="M208.93,260.65h-3.28c-.63-1.94-2-3.93-3.9-4.47-5.31-1.23-8.74,1.68-9.86,5-1.37,4.08,0,9.8,3.69,11.83,3.06,1.69,7.54.26,9.61-3.34l2.3,1.38-1.24,13.42h-15V281.3h12.18l.19-5.59a9.92,9.92,0,0,1-9.27.52c-5-2.32-7.26-7.59-6.29-13.81,1.33-6.18,4.27-9.69,10.92-10.19,7.39-.06,10,4.92,10,8.35Z" transform="translate(2.06 0.03)"/>
    </g>
    <path class="a" d="M-.72,46.94c-1.61-3.48-1.79-9.41,3.06-10.21,3.63-.46,5.1,1.2,5.41,3.74.14.74.57.79.71-.06a4.27,4.27,0,0,1,4.68-3.78l.22,0c5.64,1,5.31,7,3.46,11.16C14,53.3,11.11,56.75,8.42,62.28,5.3,56.53,1.76,51.84-.72,46.94Z" transform="translate(2.06 0.03)"/>
    <path class="a" d="M34.52,14.26c7.29-.47,11.09,5.63,11.83,10.44.44.76.69.55.86,0,.36-6.17,6-11.22,11.22-10.53,8.5.11,13.66,9.38,12.24,17.22-1.77,9.58-7,15.35-11,21.3C55.14,58.85,49.07,67.7,47.12,72c0,0-6.17-9.2-14.2-20C27.5,44.69,23.21,36.84,22.8,30.09,22.35,22.37,25.58,15.46,34.52,14.26Z" transform="translate(2.06 0.03)"/>
    <path class="a" d="M147.42,14.26c7.28-.47,11.08,5.63,11.82,10.44.44.76.69.55.86,0,.36-6.17,6-11.22,11.22-10.53,8.49.11,13.66,9.38,12.24,17.22-1.78,9.58-7,15.35-11,21.3C168,58.85,162,67.7,160,72c0,0-6.17-9.2-14.2-20-5.37-7.23-9.66-15.08-10.06-21.83-.46-7.72,2.78-14.63,11.72-15.83Z" transform="translate(2.06 0.03)"/>
    <path class="a" d="M91.14,113.51C98.43,113,102.23,119.14,103,124c.44.77.68.55.86,0,.34-6.17,6-11.23,11.22-10.54,8.49.11,13.65,9.39,12.24,17.23-1.77,9.58-7,15.35-11,21.29-4.52,6.16-10.59,15-12.53,19.33,0,0-6.12-9.21-14.2-20-5.37-7.24-9.66-15.08-10.07-21.84-.45-7.71,2.78-14.63,11.72-15.83Z" transform="translate(2.06 0.03)"/>
    <path class="a" d="M34.52,268.45c7.29.47,11.09-5.63,11.83-10.44.44-.77.69-.55.86,0,.36,6.18,6,11.22,11.22,10.53,8.5-.11,13.66-9.37,12.24-17.22-1.77-9.58-7-15.35-11-21.29-4.51-6.16-10.58-15-12.53-19.33,0,0-6.17,9.21-14.2,20-5.37,7.24-9.66,15.08-10.07,21.84-.45,7.71,2.78,14.63,11.72,15.83Z" transform="translate(2.06 0.03)"/>
    <path class="a" d="M147.42,268.45c7.28.47,11.08-5.63,11.82-10.44.44-.77.69-.55.86,0,.36,6.18,6,11.22,11.22,10.53,8.49-.11,13.66-9.37,12.24-17.22-1.78-9.58-7-15.35-11-21.29C168,223.87,162,215,160,210.7c0,0-6.17,9.21-14.2,20-5.37,7.24-9.66,15.08-10.06,21.84-.46,7.71,2.78,14.63,11.72,15.83Z" transform="translate(2.06 0.03)"/>
    <path class="a" d="M189.73,237.88c-1.62,3.48-1.8,9.41,3.06,10.21,3.63.46,5.1-1.2,5.4-3.74.15-.74.58-.79.71.06a4.27,4.27,0,0,0,4.71,3.77l.19,0c5.64-1,5.31-7,3.47-11.16-2.78-5.48-5.71-8.94-8.41-14.46-3.06,5.75-6.63,10.42-9.1,15.34Z" transform="translate(2.06 0.03)"/>
  </g>
</svg>
