<svg xmlns="http://www.w3.org/2000/svg" viewBox="0 0 208.17 284.97">
  <defs>
    <style>
      .a {
        fill: #d40000;
      }
    </style>
  </defs>
  <title>6H</title>
  <g>
    <g>
      <path class="a" d="M8.74,36.5a64.58,64.58,0,0,1-.07-11.94c1-6.43,3.53-9.37,7.72-10.34s9.79.11,11.05,5.49L24,19.77c-1.84-3.63-6.49-2.66-9.11-1.08-2.1,1.26-3,6.52-2.64,6.84,0,0,4-2.88,7.08-2.66,6.67.68,9.42,6.35,9.18,11.71-.21,6.45-2.29,11.61-9.36,12C12.46,46.28,9.38,42.68,8.74,36.5Zm16.57-1.71c0-4.47-2-7.82-5.95-8.19S11.5,30,11.77,34.54,13.85,43,18.6,43c5.1,0,6.68-5,6.71-8.16Z" transform="translate(-8.15 -13.92)"/>
      <path class="a" d="M215.49,276.31a63.67,63.67,0,0,1,.06,11.94c-1,6.43-3.53,9.37-7.72,10.33s-9.79-.1-11-5.48l3.4-.06c1.84,3.63,6.5,2.66,9.12,1.08,2.09-1.26,3-6.52,2.63-6.84,0,0-3.95,2.88-7.07,2.66-6.67-.68-9.42-6.35-9.19-11.72.21-6.45,2.3-11.6,9.36-11.94,6.72.25,9.8,3.85,10.45,10ZM198.92,278c0,4.48,2,7.83,6,8.2s7.86-3.39,7.59-7.95-2.08-8.43-6.83-8.41c-5.11,0-6.69,5-6.71,8.16Z" transform="translate(-8.15 -13.92)"/>
    </g>
    <path class="a" d="M9.15,59.87c-1.58-3.47-1.76-9.4,3-10.21,3.56-.45,5,1.2,5.3,3.75.14.74.56.78.69-.06a4.22,4.22,0,0,1,4.81-3.75c5.53.94,5.21,7,3.4,11.15-2.73,5.48-5.6,8.94-8.25,14.46-3-5.75-6.5-10.41-8.92-15.34Z" transform="translate(-8.15 -13.92)"/>
    <path class="a" d="M44.44,28.86C51.58,28.39,55.31,34.49,56,39.3c.44.76.67.55.84,0,.35-6.18,5.87-11.22,11-10.53,8.33.1,13.39,9.37,12,17.21C78.09,55.53,72.93,61.3,69,67.24c-4.42,6.15-10.37,15-12.29,19.31,0,0-6-9.2-13.92-20C37.55,59.29,33.34,51.44,33,44.69,32.5,37,35.67,30.06,44.44,28.86Z" transform="translate(-8.15 -13.92)"/>
    <path class="a" d="M156,28.86c7.14-.47,10.87,5.63,11.6,10.44.43.76.67.55.83,0,.35-6.18,5.88-11.22,11-10.53,8.33.1,13.39,9.37,12,17.21-1.74,9.59-6.9,15.36-10.81,21.3-4.42,6.15-10.37,15-12.29,19.31,0,0-6-9.2-13.91-20-5.27-7.23-9.48-15.08-9.87-21.83C144,37,147.2,30.06,156,28.86Z" transform="translate(-8.15 -13.92)"/>
    <path class="a" d="M156,127.75c7.14-.47,10.87,5.63,11.6,10.44.43.77.67.55.83,0,.35-6.18,5.88-11.22,11-10.53,8.33.11,13.39,9.37,12,17.22-1.74,9.58-6.9,15.35-10.81,21.29-4.42,6.15-10.37,15-12.29,19.32,0,0-6-9.21-13.91-20-5.27-7.24-9.48-15.08-9.87-21.84C144,135.87,147.2,129,156,127.76Z" transform="translate(-8.15 -13.92)"/>
    <path class="a" d="M44.44,127.75c7.14-.47,10.87,5.63,11.59,10.44.44.77.67.55.84,0,.35-6.18,5.87-11.22,11-10.53,8.33.11,13.39,9.37,12,17.22-1.74,9.58-6.9,15.35-10.81,21.29-4.42,6.15-10.37,15-12.29,19.32,0,0-6-9.21-13.92-20-5.26-7.24-9.47-15.08-9.86-21.84-.45-7.71,2.72-14.63,11.49-15.82Z" transform="translate(-8.15 -13.92)"/>
    <path class="a" d="M44.44,283.85c7.14.47,10.87-5.63,11.59-10.44.44-.76.67-.55.84,0,.35,6.18,5.87,11.22,11,10.53,8.33-.11,13.39-9.37,12-17.22-1.74-9.58-6.9-15.35-10.81-21.29-4.42-6.15-10.37-15-12.29-19.32,0,0-6,9.21-13.92,20C37.55,253.42,33.34,261.27,33,268c-.45,7.71,2.72,14.63,11.49,15.83Z" transform="translate(-8.15 -13.92)"/>
    <path class="a" d="M156,283.85c7.14.47,10.87-5.63,11.6-10.44.43-.76.67-.55.83,0,.35,6.18,5.88,11.22,11,10.53,8.33-.11,13.39-9.37,12-17.22-1.74-9.58-6.9-15.35-10.81-21.29-4.42-6.15-10.37-15-12.29-19.32,0,0-6,9.21-13.91,20-5.27,7.24-9.48,15.09-9.87,21.84-.45,7.71,2.72,14.63,11.49,15.83Z" transform="translate(-8.15 -13.92)"/>
    <path class="a" d="M198,250.73c-1.58,3.47-1.75,9.41,3,10.21,3.56.46,5-1.2,5.3-3.74.14-.75.56-.79.69.05a4.21,4.21,0,0,0,4.81,3.75c5.52-.94,5.2-7,3.39-11.15-2.73-5.48-5.6-8.94-8.24-14.45-3,5.74-6.51,10.4-8.93,15.33Z" transform="translate(-8.15 -13.92)"/>
  </g>
</svg>
