<svg xmlns="http://www.w3.org/2000/svg" viewBox="0 0 211 284.5">
  <defs>
    <style>
      .a {
        fill: #d40000;
      }
    </style>
  </defs>
  <title>h6</title>
  <g>
    <g>
      <path class="a" d="M-.79,22.79A63.29,63.29,0,0,1-.86,10.87C.15,4.45,2.71,1.52,7,.55S16.88.66,18.16,6l-3.49.06C12.81,2.46,8.1,3.43,5.44,5c-2.13,1.26-3,6.51-2.68,6.83,0,0,4.06-2.88,7.18-2.66,6.76.68,9.55,6.34,9.3,11.69-.21,6.44-2.32,11.59-9.48,12C3,32.55-.14,29-.79,22.79ZM16,21.08c0-4.46-2-7.81-6-8.17S2,16.3,2.28,20.83s2.11,8.45,6.92,8.45c5.17,0,6.77-5,6.8-8.15Z" transform="translate(1.39 -0.23)"/>
      <path class="a" d="M208.72,262.18a62.46,62.46,0,0,1,.06,11.92c-1,6.42-3.58,9.35-7.82,10.31s-9.92-.1-11.15-5.47l3.44-.06c1.87,3.63,6.59,2.66,9.25,1.08,2.11-1.26,3-6.51,2.66-6.83,0,0-4,2.88-7.16,2.66-6.76-.68-9.55-6.34-9.32-11.7.22-6.44,2.33-11.58,9.49-11.92,6.81.25,9.93,3.84,10.59,10Zm-16.79,1.69c0,4.47,2,7.82,6.08,8.18s8-3.38,7.69-7.93-2.11-8.42-6.92-8.4c-5.18,0-6.78,5-6.8,8.15Z" transform="translate(1.39 -0.23)"/>
    </g>
    <path class="a" d="M-.38,46.12c-1.6-3.47-1.78-9.39,3-10.19,3.61-.45,5.07,1.19,5.37,3.74.15.74.57.78.7-.06a4.27,4.27,0,0,1,4.69-3.77l.19,0c5.6.93,5.28,7,3.44,11.13-2.76,5.47-5.67,8.92-8.36,14.43-3-5.74-6.58-10.39-9-15.31Z" transform="translate(1.39 -0.23)"/>
    <path class="a" d="M35.38,15.16c7.24-.47,11,5.62,11.72,10.42.44.76.68.55.85,0,.35-6.17,5.95-11.2,11.15-10.51,8.44.1,13.57,9.36,12.16,17.18-1.78,9.54-7,15.3-11,21.22-4.48,6.14-10.51,15-12.45,19.28,0,0-6.08-9.18-14.11-20C28.4,45.54,24.14,37.7,23.79,31,23.29,23.29,26.5,16.36,35.38,15.16Z" transform="translate(1.39 -0.23)"/>
    <path class="a" d="M148.43,15.16c7.24-.47,11,5.62,11.76,10.42.43.76.68.55.84,0,.35-6.17,6-11.2,11.15-10.51,8.44.1,13.57,9.36,12.16,17.18-1.77,9.58-7,15.34-11,21.26-4.48,6.14-10.51,15-12.45,19.28,0,0-6.08-9.18-14.1-20-5.34-7.22-9.6-15.06-10-21.8C136.27,23.29,139.52,16.36,148.43,15.16Z" transform="translate(1.39 -0.23)"/>
    <path class="a" d="M148.43,113.88c7.24-.47,11,5.62,11.76,10.42.43.77.68.55.84,0,.35-6.17,6-11.2,11.15-10.51,8.44.11,13.57,9.35,12.16,17.19-1.77,9.56-7,15.32-11,21.25-4.48,6.14-10.51,15-12.45,19.29,0,0-6.08-9.19-14.1-20-5.34-7.22-9.6-15.05-10-21.8-.56-7.76,2.69-14.62,11.6-15.86Z" transform="translate(1.39 -0.23)"/>
    <path class="a" d="M35.38,113.88c7.24-.47,11,5.62,11.75,10.42.45.77.68.55.85,0,.36-6.17,6-11.2,11.15-10.51,8.44.11,13.57,9.35,12.16,17.19-1.77,9.56-7,15.32-11,21.25-4.48,6.14-10.51,15-12.45,19.29,0,0-6.08-9.19-14.11-20-5.33-7.22-9.59-15.05-10-21.8-.45-7.69,2.76-14.6,11.65-15.79Z" transform="translate(1.39 -0.23)"/>
    <path class="a" d="M35.38,269.71c7.24.47,11-5.62,11.75-10.42.45-.76.68-.55.85,0,.36,6.17,6,11.2,11.15,10.51,8.44-.11,13.57-9.36,12.16-17.19-1.77-9.57-7-15.33-11-21.25-4.48-6.14-10.51-15-12.45-19.29,0,0-6.08,9.19-14.11,20-5.37,7.3-9.63,15.14-10,21.86-.45,7.69,2.76,14.6,11.65,15.8Z" transform="translate(1.39 -0.23)"/>
    <path class="a" d="M148.43,269.71c7.24.47,11-5.62,11.76-10.42.43-.76.68-.55.84,0,.35,6.17,6,11.2,11.15,10.51,8.44-.11,13.57-9.36,12.16-17.19-1.77-9.57-7-15.33-11-21.25-4.48-6.14-10.51-15-12.45-19.29,0,0-6.08,9.19-14.1,20-5.34,7.23-9.6,15.07-10,21.81-.45,7.69,2.76,14.6,11.64,15.8Z" transform="translate(1.39 -0.23)"/>
    <path class="a" d="M191,236.65c-1.6,3.46-1.77,9.39,3,10.19,3.61.46,5.07-1.2,5.38-3.74.14-.74.56-.78.69.05a4.26,4.26,0,0,0,4.67,3.77l.21,0c5.59-.94,5.27-7,3.43-11.13-2.76-5.47-5.67-8.93-8.35-14.43-3,5.73-6.59,10.38-9.05,15.31Z" transform="translate(1.39 -0.23)"/>
  </g>
</svg>
