<svg xmlns="http://www.w3.org/2000/svg" viewBox="0 0 208.63 282.57">
  <defs>
    <style>
      .a {
        fill: #d40000;
      }
    </style>
  </defs>
  <title>7H</title>
  <g>
    <g>
      <path class="a" d="M12.84,47C15,35.92,17.25,27.6,23.22,18.56H11.08v3.89H7.86V15.12H25.61l2.19,3.44C21.46,25.35,15.65,47.33,16.68,47Z" transform="translate(-7.86 -15.12)"/>
      <path class="a" d="M211.38,265.8c-2.13,11.09-4.41,19.41-10.38,28.44h12.14v-3.89h3.22v7.33H198.61l-2.19-3.44c6.34-6.79,12.15-28.76,11.12-28.44Z" transform="translate(-7.86 -15.12)"/>
    </g>
    <path class="a" d="M9.32,62.46c-1.58-3.48-1.75-9.41,3-10.21,3.57-.46,5,1.2,5.3,3.74.15.74.57.79.7-.06a4.21,4.21,0,0,1,4.81-3.75c5.52,1,5.2,7,3.39,11.16-2.73,5.48-5.6,8.93-8.24,14.45-3-5.74-6.51-10.41-8.93-15.33Z" transform="translate(-7.86 -15.12)"/>
    <path class="a" d="M43.68,30.3c7.15-.47,10.87,5.63,11.6,10.44.43.76.67.55.83,0,.35-6.18,5.88-11.22,11-10.53,8.32.1,13.39,9.37,12,17.22-1.74,9.58-6.9,15.35-10.8,21.29C63.84,74.83,57.89,83.72,56,88c0,0-6-9.21-13.92-20-5.26-7.24-9.47-15.09-9.87-21.84-.44-7.72,2.72-14.63,11.49-15.83Z" transform="translate(-7.86 -15.12)"/>
    <path class="a" d="M155.21,30.3c7.15-.47,10.87,5.63,11.6,10.44.43.76.67.55.84,0,.35-6.18,5.87-11.22,11-10.53,8.33.1,13.39,9.37,12,17.22-1.74,9.58-6.9,15.35-10.81,21.29-4.42,6.15-10.37,15-12.29,19.32,0,0-6-9.21-13.92-20-5.26-7.24-9.47-15.09-9.86-21.84-.45-7.72,2.72-14.63,11.48-15.83Z" transform="translate(-7.86 -15.12)"/>
    <path class="a" d="M100.12,80.43c7.14-.48,10.86,5.62,11.59,10.43.43.77.67.55.84,0,.35-6.17,5.87-11.22,11-10.53,8.33.11,13.39,9.38,12,17.22-1.74,9.58-6.9,15.35-10.81,21.29-4.42,6.15-10.37,15-12.29,19.32,0,0-6-9.21-13.92-20C93.23,110.85,89,103,88.63,96.25c-.45-7.71,2.72-14.63,11.49-15.82Z" transform="translate(-7.86 -15.12)"/>
    <path class="a" d="M43.68,130.55c7.15-.47,10.87,5.63,11.6,10.44.43.76.67.55.83-.05.35-6.17,5.88-11.22,11-10.53,8.32.11,13.39,9.38,12,17.22-1.74,9.59-6.9,15.35-10.8,21.3-4.43,6.15-10.38,15-12.29,19.31,0,0-6-9.2-13.92-20-5.26-7.23-9.47-15.08-9.87-21.83-.44-7.72,2.72-14.63,11.49-15.83Z" transform="translate(-7.86 -15.12)"/>
    <path class="a" d="M155.21,130.55c7.15-.47,10.87,5.63,11.6,10.44.43.76.67.55.84-.05.35-6.17,5.87-11.22,11-10.53,8.33.11,13.39,9.38,12,17.22-1.74,9.59-6.9,15.35-10.81,21.3-4.42,6.15-10.37,15-12.29,19.31,0,0-6-9.2-13.92-20-5.26-7.23-9.47-15.08-9.86-21.83-.45-7.72,2.72-14.63,11.48-15.83Z" transform="translate(-7.86 -15.12)"/>
    <path class="a" d="M198.14,253.31c-1.58,3.48-1.76,9.41,3,10.21,3.56.46,5-1.2,5.3-3.74.14-.74.56-.79.69.06a4.22,4.22,0,0,0,4.81,3.75c5.53-.95,5.2-7,3.4-11.16-2.73-5.48-5.6-8.94-8.25-14.45-3,5.74-6.5,10.41-8.92,15.33Z" transform="translate(-7.86 -15.12)"/>
    <path class="a" d="M155.21,286.64c7.15.48,10.87-5.62,11.6-10.43.43-.77.67-.55.84,0,.35,6.17,5.87,11.22,11,10.53,8.33-.11,13.39-9.38,12-17.22-1.74-9.58-6.9-15.35-10.81-21.29-4.42-6.16-10.37-15-12.29-19.32,0,0-6,9.2-13.92,20-5.26,7.24-9.47,15.08-9.86,21.84-.45,7.71,2.72,14.63,11.48,15.82Z" transform="translate(-7.86 -15.12)"/>
    <path class="a" d="M43.68,286.64c7.15.48,10.87-5.62,11.6-10.43.43-.77.67-.55.83,0,.35,6.17,5.88,11.22,11,10.53,8.32-.11,13.39-9.38,12-17.22-1.74-9.58-6.9-15.35-10.8-21.29-4.43-6.16-10.38-15-12.29-19.32,0,0-6,9.2-13.92,20-5.26,7.24-9.47,15.08-9.87,21.84-.44,7.71,2.72,14.63,11.49,15.82Z" transform="translate(-7.86 -15.12)"/>
  </g>
</svg>
