<svg xmlns="http://www.w3.org/2000/svg" viewBox="0 0 211 284.5">
  <defs>
    <style>
      .a {
        fill: #d40000;
      }
    </style>
  </defs>
  <title>h8</title>
  <g>
    <g>
      <path class="a" d="M-.53,22.33c.16-4.41,1.78-6,5-8.36A7.59,7.59,0,0,1,1,7.23c.53-5.47,4.83-8.22,9.53-8S19.32,3,19.62,7c.27,3.46-.77,5.13-3.28,7,3,2.45,4.87,4,4.8,8.41a10.28,10.28,0,0,1-10.35,9.59C4.25,32.09-.69,26.72-.53,22.33Zm18.26,0c.28-4-3.3-6.67-7.35-6.71s-7.46,3.26-7.46,6.84c0,3.84,4.58,5.93,7.54,5.94,3.6,0,7-2.63,7.27-6ZM16.44,8.08c.07-3.36-3.07-5.77-6.32-5.66-2.89.08-5.95,2.25-5.95,5,0,3.51,3.48,5.26,6.44,5.33C13.31,12.87,16.38,10.62,16.44,8.08Z" transform="translate(0.54 0.82)"/>
      <path class="a" d="M210.07,260.48c-.16,4.4-1.78,6-5,8.36a7.55,7.55,0,0,1,3.39,6.74c-.52,5.47-4.83,8.22-9.53,8.09s-8.75-3.78-9-7.76c-.28-3.47.77-5.14,3.28-7-3-2.45-4.88-4.07-4.8-8.41a10.29,10.29,0,0,1,10.36-9.65c6.55-.16,11.48,5.2,11.32,9.6Zm-18.26,0c-.28,4,3.3,6.68,7.35,6.72s7.46-3.27,7.47-6.84c0-3.84-4.59-5.93-7.56-5.94-3.59,0-7,2.63-7.26,6Zm1.29,14.25c-.08,3.36,3.08,5.77,6.33,5.66,2.88-.08,5.95-2.25,5.95-5,0-3.51-3.48-5.26-6.46-5.33C196.23,269.94,193.16,272.19,193.1,274.73Z" transform="translate(0.54 0.82)"/>
    </g>
    <path class="a" d="M2.22,47.84c-1.59-3.49-1.77-9.47,3-10.27,3.57-.46,5,1.21,5.32,3.76.14.76.57.8.71-.06a4.22,4.22,0,0,1,4.61-3.8l.21,0c5.56,1,5.24,7,3.42,11.23-2.74,5.51-5.63,9-8.28,14.54C8.17,57.49,4.65,52.8,2.22,47.84Z" transform="translate(0.54 0.82)"/>
    <path class="a" d="M37.38,12.36C44.56,11.87,48.3,18,49,22.85c.44.77.67.55.84,0,.35-6.21,5.91-11.29,11.06-10.59,8.37.11,13.46,9.42,12.06,17.32C71.24,39.22,66.05,45,62.12,51,57.68,57.19,51.7,66.09,49.77,70.44c0,0-6.08-9.27-14-20.12-5.33-7.36-9.52-15.25-10-22-.45-7.75,2.73-14.72,11.55-15.91Z" transform="translate(0.54 0.82)"/>
    <path class="a" d="M147.46,12.36c7.19-.49,10.93,5.65,11.66,10.49.44.77.68.55.84,0,.35-6.21,5.91-11.29,11-10.59,8.37.11,13.46,9.42,12.06,17.32C181.33,39.22,176.14,45,172.21,51c-4.44,6.19-10.42,15.09-12.35,19.44,0,0-6-9.27-14-20.12-5.29-7.29-9.53-15.18-9.92-22-.46-7.75,2.73-14.72,11.54-15.91Z" transform="translate(0.54 0.82)"/>
    <path class="a" d="M91.83,62.78c7.19-.47,10.93,5.67,11.66,10.51.43.76.68.54.84,0,.35-6.21,5.91-11.29,11-10.6,8.36.11,13.46,9.44,12.06,17.33-1.75,9.64-6.93,15.44-10.85,21.43-4.45,6.18-10.43,15.09-12.35,19.43,0,0-6.08-9.26-14-20.13-5.29-7.28-9.53-15.17-9.92-22C79.88,71,83.06,64.07,91.87,62.86Z" transform="translate(0.54 0.82)"/>
    <path class="a" d="M37.38,113.21c7.18-.47,10.92,5.66,11.65,10.5.44.77.67.56.84,0,.35-6.22,5.91-11.29,11.06-10.59,8.37.11,13.46,9.43,12.06,17.32-1.75,9.64-6.94,15.45-10.87,21.42C57.68,158.05,51.7,167,49.77,171.3c0,0-6.08-9.26-14-20.12-5.33-7.36-9.52-15.21-10-22C25.38,121.38,28.56,114.42,37.38,113.21Z" transform="translate(0.54 0.82)"/>
    <path class="a" d="M147.46,113.21c7.19-.47,10.93,5.66,11.66,10.5.44.77.68.56.84,0,.35-6.22,5.91-11.29,11-10.59,8.37.11,13.46,9.43,12.06,17.32-1.74,9.64-6.93,15.45-10.86,21.42-4.44,6.19-10.42,15.1-12.35,19.44,0,0-6-9.26-14-20.12-5.29-7.28-9.53-15.18-9.92-22-.46-7.76,2.73-14.72,11.54-15.93Z" transform="translate(0.54 0.82)"/>
    <path class="a" d="M147.46,270.26c7.19.48,10.93-5.66,11.66-10.5.44-.77.68-.55.84,0,.35,6.22,5.91,11.29,11,10.59,8.37-.11,13.46-9.42,12.06-17.32-1.74-9.64-6.93-15.45-10.86-21.42-4.44-6.19-10.42-15.09-12.35-19.44,0,0-6,9.27-14,20.12-5.29,7.29-9.53,15.18-9.92,22-.46,7.75,2.73,14.72,11.54,15.92Z" transform="translate(0.54 0.82)"/>
    <path class="a" d="M91.83,220.66c7.19.47,10.93-5.66,11.66-10.5.43-.77.68-.56.84,0,.35,6.22,5.91,11.29,11,10.59,8.36-.11,13.46-9.43,12.06-17.32-1.75-9.64-6.93-15.45-10.85-21.42-4.45-6.19-10.43-15.1-12.35-19.44,0,0-6.08,9.26-14,20.12-5.29,7.28-9.53,15.18-9.92,22-.45,7.76,2.73,14.72,11.54,15.93Z" transform="translate(0.54 0.82)"/>
    <path class="a" d="M37.38,270.26c7.18.48,10.92-5.66,11.65-10.5.44-.77.67-.55.84,0,.35,6.22,5.91,11.29,11.06,10.59C69.3,270.24,74.39,260.93,73,253c-1.75-9.64-6.94-15.45-10.87-21.42-4.44-6.19-10.42-15.09-12.35-19.44,0,0-6.08,9.27-14,20.12-5.29,7.29-9.52,15.18-9.91,22C25.42,262,28.6,269,37.42,270.19Z" transform="translate(0.54 0.82)"/>
    <path class="a" d="M192,239.87c-1.6,3.49-1.77,9.46,3,10.26,3.58.46,5-1.2,5.33-3.76.14-.75.56-.8.69.06a4.24,4.24,0,0,0,4.65,3.79l.19,0c5.55-.94,5.23-7,3.42-11.22-2.75-5.51-5.63-9-8.3-14.55-3,5.78-6.54,10.48-9,15.44Z" transform="translate(0.54 0.82)"/>
  </g>
</svg>
