<svg xmlns="http://www.w3.org/2000/svg" viewBox="0 0 209.9 282.82">
  <defs>
    <style>
      .a {
        fill: #d40000;
      }
    </style>
  </defs>
  <title>8H</title>
  <g>
    <g>
      <path class="a" d="M7.34,38.05c.16-4.38,1.77-6,4.95-8.31A7.54,7.54,0,0,1,8.9,23.05c.53-5.44,4.81-8.17,9.49-8s8.7,3.76,9,7.72c.27,3.44-.77,5.1-3.26,6.92,3,2.44,4.84,4,4.77,8.36A10.23,10.23,0,0,1,18.6,47.59c-6.5.16-11.42-5.17-11.26-9.54Zm18.17,0c.28-4-3.28-6.63-7.31-6.67s-7.43,3.24-7.43,6.8c0,3.82,4.56,5.9,7.51,5.91,3.58,0,7-2.62,7.23-6ZM24.23,23.89c.07-3.34-3.06-5.73-6.29-5.63-2.88.08-5.92,2.24-5.92,5,0,3.49,3.46,5.23,6.41,5.3C21.11,28.65,24.17,26.41,24.23,23.89Z" transform="translate(-7.34 -15)"/>
      <path class="a" d="M216.88,274.76c-.16,4.37-1.77,6-4.94,8.31a7.49,7.49,0,0,1,3.38,6.69c-.52,5.44-4.81,8.17-9.48,8.05s-8.71-3.76-9-7.72c-.28-3.45.77-5.11,3.26-6.92-3-2.44-4.85-4.05-4.77-8.36a10.24,10.24,0,0,1,10.31-9.6c6.51-.15,11.42,5.17,11.26,9.55Zm-18.17,0c-.28,4,3.29,6.64,7.31,6.68s7.43-3.25,7.44-6.8c0-3.82-4.57-5.9-7.52-5.91-3.58,0-7,2.62-7.23,6ZM200,288.92c-.08,3.34,3.06,5.73,6.29,5.63,2.87-.08,5.92-2.24,5.92-5,0-3.49-3.46-5.23-6.42-5.3C203.11,284.16,200.06,286.4,200,288.92Z" transform="translate(-7.34 -15)"/>
    </g>
    <path class="a" d="M10.08,63.41C8.5,59.94,8.32,54,13.05,53.2c3.56-.46,5,1.2,5.3,3.74.14.75.56.79.7-.06a4.2,4.2,0,0,1,4.8-3.75c5.53.95,5.21,7,3.4,11.16-2.73,5.48-5.6,8.94-8.24,14.45C16,73,12.5,68.34,10.08,63.41Z" transform="translate(-7.34 -15)"/>
    <path class="a" d="M45.06,28.14c7.14-.48,10.87,5.62,11.59,10.43.44.77.67.55.84,0,.35-6.17,5.88-11.22,11-10.53,8.33.11,13.39,9.37,12,17.22-1.74,9.58-6.9,15.35-10.81,21.29-4.42,6.15-10.37,15-12.29,19.32,0,0-6.05-9.21-13.92-20C38.17,58.56,34,50.72,33.57,44c-.45-7.71,2.72-14.63,11.49-15.82Z" transform="translate(-7.34 -15)"/>
    <path class="a" d="M154.59,28.14c7.15-.48,10.87,5.62,11.6,10.43.43.77.67.55.83,0,.35-6.17,5.88-11.22,11-10.53,8.32.11,13.39,9.37,12,17.22-1.74,9.58-6.9,15.35-10.81,21.29-4.42,6.15-10.37,15-12.29,19.32,0,0-6-9.21-13.91-20-5.26-7.24-9.48-15.08-9.87-21.84-.45-7.71,2.72-14.63,11.49-15.82Z" transform="translate(-7.34 -15)"/>
    <path class="a" d="M99.24,78.26c7.15-.47,10.87,5.63,11.6,10.44.43.76.67.54.83,0,.35-6.17,5.88-11.22,11-10.53,8.32.11,13.39,9.38,12,17.22-1.74,9.58-6.9,15.35-10.8,21.3-4.43,6.15-10.38,15-12.29,19.31,0,0-6.05-9.2-13.92-20-5.26-7.24-9.48-15.08-9.87-21.83-.44-7.72,2.72-14.63,11.49-15.83Z" transform="translate(-7.34 -15)"/>
    <path class="a" d="M45.06,128.38c7.14-.47,10.87,5.63,11.59,10.44.44.76.67.55.84,0,.35-6.18,5.88-11.22,11-10.53,8.33.11,13.39,9.37,12,17.22-1.74,9.58-6.9,15.35-10.81,21.29-4.42,6.15-10.37,15-12.29,19.32,0,0-6.05-9.21-13.92-20C38.17,158.81,34,151,33.57,144.21c-.45-7.71,2.72-14.63,11.49-15.83Z" transform="translate(-7.34 -15)"/>
    <path class="a" d="M154.59,128.38c7.15-.47,10.87,5.63,11.6,10.44.43.76.67.55.83,0,.35-6.18,5.88-11.22,11-10.53,8.32.11,13.39,9.37,12,17.22-1.74,9.58-6.9,15.35-10.81,21.29-4.42,6.15-10.37,15-12.29,19.32,0,0-6-9.21-13.91-20-5.26-7.24-9.48-15.09-9.87-21.84-.45-7.71,2.72-14.63,11.49-15.83Z" transform="translate(-7.34 -15)"/>
    <path class="a" d="M154.59,284.48c7.15.47,10.87-5.63,11.6-10.44.43-.76.67-.55.83,0,.35,6.18,5.88,11.22,11,10.53,8.32-.11,13.39-9.37,12-17.22-1.74-9.58-6.9-15.35-10.81-21.29-4.42-6.15-10.37-15-12.29-19.32,0,0-6,9.21-13.91,20-5.26,7.24-9.48,15.09-9.87,21.84-.45,7.71,2.72,14.63,11.49,15.83Z" transform="translate(-7.34 -15)"/>
    <path class="a" d="M99.24,235.18c7.15.47,10.87-5.63,11.6-10.44.43-.76.67-.55.83,0,.35,6.18,5.88,11.22,11,10.53,8.32-.11,13.39-9.37,12-17.22-1.74-9.58-6.9-15.35-10.8-21.29-4.43-6.15-10.38-15-12.29-19.32,0,0-6.05,9.21-13.92,20-5.26,7.24-9.48,15.09-9.87,21.84-.44,7.71,2.72,14.63,11.49,15.83Z" transform="translate(-7.34 -15)"/>
    <path class="a" d="M45.06,284.48c7.14.47,10.87-5.63,11.59-10.44.44-.76.67-.55.84,0,.35,6.18,5.88,11.22,11,10.53,8.33-.11,13.39-9.37,12-17.22-1.74-9.58-6.9-15.35-10.81-21.29-4.42-6.15-10.37-15-12.29-19.32,0,0-6.05,9.21-13.92,20-5.26,7.24-9.47,15.09-9.86,21.84-.45,7.71,2.72,14.63,11.49,15.83Z" transform="translate(-7.34 -15)"/>
    <path class="a" d="M198.9,254.27c-1.59,3.47-1.76,9.4,3,10.2,3.56.46,5-1.19,5.3-3.74.14-.74.56-.79.69.06a4.22,4.22,0,0,0,4.81,3.75c5.52-.94,5.2-7,3.4-11.15-2.73-5.48-5.6-8.94-8.25-14.46-3,5.74-6.51,10.41-8.92,15.34Z" transform="translate(-7.34 -15)"/>
  </g>
</svg>
