<svg xmlns="http://www.w3.org/2000/svg" viewBox="0 0 211 284.5">
  <defs>
    <style>
      .a {
        fill: #d40000;
      }
    </style>
  </defs>
  <title>h9</title>
  <g>
    <g>
      <path class="a" d="M-.7,26.71l3-.94a5.47,5.47,0,0,0,6,3.68c4.43-.34,5.91-5.13,6.25-9.37A9,9,0,0,1,8,22.65c-7.09-.37-8.89-5.82-9-11.55-.19-4.82,1.88-8.32,5.42-10,1.88-.82,6.19-.82,8.11.15,4.34,2.2,6,6,5.66,15.13,0,7.49-1.64,16.22-10,16.4A8,8,0,0,1-.69,26.67Zm12-8.21a7.08,7.08,0,0,0,2.9-3c.53-1,.71-1.54.56-3.65C14.43,6.43,11.47,3.35,7.19,4,4.8,4.3,3.49,5.59,2.74,8,1.36,12.42,3.12,17.6,6.4,18.8A6.64,6.64,0,0,0,11.35,18.5Z" transform="translate(1.4 -0.55)"/>
      <path class="a" d="M208.11,258.9l-3,.94a5.47,5.47,0,0,0-6-3.68c-4.44.34-5.9,5.13-6.24,9.37a9,9,0,0,1,6.55-2.58c7.09.37,8.89,5.83,9,11.55.19,4.83-1.88,8.33-5.42,10a12.73,12.73,0,0,1-8.11-.15c-4.34-2.21-5.94-6-5.66-15.13,0-7.5,1.65-16.22,10-16.41a8,8,0,0,1,9,6.16Zm-12.05,8.21a7.12,7.12,0,0,0-2.89,3c-.54,1-.72,1.55-.57,3.66.39,5.43,3.34,8.51,7.63,7.9,2.38-.34,3.69-1.63,4.44-4,1.39-4.44-.38-9.62-3.66-10.82a6.68,6.68,0,0,0-4.95.34Z" transform="translate(1.4 -0.55)"/>
    </g>
    <path class="a" d="M-.39,45.6c-1.6-3.46-1.77-9.36,3-10.16C6.27,35,7.72,36.63,8,39.17c.15.73.57.78.71-.06a4.24,4.24,0,0,1,4.67-3.76l.2,0c5.6.94,5.28,7,3.44,11.11-2.77,5.45-5.67,8.9-8.35,14.4-3-5.72-6.6-10.37-9-15.28Z" transform="translate(1.4 -0.55)"/>
    <path class="a" d="M36.37,16.07c7.24-.47,11,5.61,11.81,10.4.43.75.67.55.84,0,.35-6.16,6-11.18,11.15-10.49,8.44.11,13.57,9.33,12.16,17.15-1.86,9.5-7.09,15.25-11,21.16C56.8,60.42,50.77,69.23,48.82,73.53c0,0-6.08-9.17-14.09-19.91-5.34-7.24-9.61-15.06-10-21.78C24.27,24.16,27.48,17.27,36.37,16.07Z" transform="translate(1.4 -0.55)"/>
    <path class="a" d="M147.38,16.07c7.24-.47,11,5.61,11.75,10.4.44.75.68.55.85,0,.35-6.16,6-11.18,11.15-10.49,8.44.11,13.57,9.33,12.16,17.15-1.75,9.54-7,15.29-10.94,21.2-4.48,6.13-10.52,14.94-12.46,19.24,0,0-6.13-9.17-14.11-19.91-5.38-7.28-9.64-15.1-10.05-21.82C135.28,24.16,138.49,17.27,147.38,16.07Z" transform="translate(1.4 -0.55)"/>
    <path class="a" d="M147.38,81.13c7.24-.47,11,5.61,11.75,10.4.44.76.68.55.85,0,.35-6.15,6-11.17,11.15-10.49,8.44.11,13.57,9.34,12.16,17.15-1.75,9.54-7,15.29-10.94,21.21-4.48,6.12-10.52,14.93-12.46,19.24,0,0-6.13-9.18-14.11-19.92-5.33-7.21-9.59-15-10-21.75-.44-7.68,2.76-14.57,11.65-15.77Z" transform="translate(1.4 -0.55)"/>
    <path class="a" d="M91.82,114.16c7.24-.48,11,5.59,11.75,10.38.44.77.68.55.85,0,.35-6.14,6-11.17,11.15-10.48,8.44.11,13.57,9.34,12.16,17.15-1.75,9.54-7,15.28-10.94,21.2-4.48,6.14-10.52,14.94-12.46,19.24,0,0-6.08-9.16-14.1-19.92-5.34-7.21-9.6-15-10-21.75-.44-7.68,2.76-14.57,11.65-15.75Z" transform="translate(1.4 -0.55)"/>
    <path class="a" d="M36.37,81.13c7.24-.47,11,5.61,11.76,10.4.43.76.67.55.84,0,.35-6.15,6-11.17,11.14-10.49,8.45.11,13.58,9.34,12.17,17.15-1.77,9.54-7,15.29-11,21.21-4.48,6.12-10.51,14.93-12.45,19.24,0,0-6.09-9.18-14.1-19.92-5.34-7.21-9.61-15-10-21.75-.45-7.68,2.76-14.57,11.65-15.77Z" transform="translate(1.4 -0.55)"/>
    <path class="a" d="M147.38,205c7.24.48,11-5.59,11.75-10.38.44-.77.68-.55.85,0,.35,6.14,6,11.17,11.15,10.48,8.44-.11,13.57-9.33,12.16-17.15-1.75-9.54-7-15.28-10.94-21.2-4.48-6.12-10.52-14.94-12.46-19.24,0,0-6.13,9.17-14.11,19.92-5.33,7.21-9.59,15-10,21.75-.44,7.68,2.76,14.57,11.65,15.75Z" transform="translate(1.4 -0.55)"/>
    <path class="a" d="M147.38,269.86c7.24.47,11-5.61,11.75-10.4.44-.76.68-.54.85.05.35,6.15,6,11.18,11.15,10.49,8.44-.11,13.57-9.34,12.16-17.15-1.75-9.54-7-15.29-10.94-21.21-4.48-6.13-10.52-14.94-12.46-19.24,0,0-6.13,9.17-14.11,19.92-5.33,7.21-9.59,15-10,21.74-.44,7.69,2.76,14.57,11.65,15.77Z" transform="translate(1.4 -0.55)"/>
    <path class="a" d="M36.37,269.86c7.24.47,11-5.61,11.76-10.4.43-.76.67-.54.84.05.35,6.15,6,11.18,11.14,10.49,8.45-.11,13.58-9.34,12.17-17.15-1.77-9.54-7-15.29-11-21.21-4.48-6.13-10.51-14.94-12.45-19.24,0,0-6.09,9.17-14.1,19.92-5.34,7.21-9.61,15-10,21.74-.45,7.69,2.76,14.57,11.65,15.77Z" transform="translate(1.4 -0.55)"/>
    <path class="a" d="M36.37,205c7.24.48,11-5.59,11.76-10.38.43-.77.67-.55.84,0,.35,6.14,6,11.17,11.14,10.48,8.45-.11,13.58-9.33,12.17-17.15-1.77-9.54-7-15.28-11-21.2-4.48-6.12-10.51-14.94-12.45-19.24,0,0-6.09,9.17-14.1,19.92-5.34,7.21-9.61,15-10,21.75-.45,7.68,2.76,14.57,11.65,15.75Z" transform="translate(1.4 -0.55)"/>
    <path class="a" d="M191,235.68c-1.62,3.45-1.79,9.37,3,10.17,3.6.46,5.06-1.2,5.37-3.73.14-.74.57-.78.7.06a4.26,4.26,0,0,0,4.68,3.76l.19,0c5.61-.95,5.27-7,3.45-11.12-2.77-5.46-5.68-8.9-8.36-14.39-3,5.72-6.59,10.36-9,15.27Z" transform="translate(1.4 -0.55)"/>
  </g>
</svg>
