<svg xmlns="http://www.w3.org/2000/svg" viewBox="0 0 208.17 285.56">
  <defs>
    <style>
      .a {
        fill: #d40000;
      }
    </style>
  </defs>
  <title>9H</title>
  <g>
    <g>
      <path class="a" d="M8.77,39.85l3-.94a5.38,5.38,0,0,0,5.89,3.69c4.38-.34,5.84-5.15,6.17-9.4a8.83,8.83,0,0,1-6.46,2.58c-7-.37-8.77-5.85-8.84-11.6-.19-4.84,1.85-8.35,5.35-10,1.85-.82,6.1-.82,8,.15,4.28,2.21,5.87,6.05,5.58,15.19,0,7.52-1.62,16.29-9.84,16.47a7.94,7.94,0,0,1-8.84-6.18Zm11.89-8.24a7.08,7.08,0,0,0,2.87-3c.52-1,.7-1.55.55-3.67-.38-5.45-3.3-8.54-7.52-7.93-2.36.34-3.65,1.64-4.39,4.05-1.36,4.45.37,9.65,3.61,10.85A6.43,6.43,0,0,0,20.66,31.61Z" transform="translate(-8.08 -13.62)"/>
      <path class="a" d="M214.81,273l-3,.94a5.38,5.38,0,0,0-5.89-3.69c-4.38.34-5.83,5.15-6.16,9.4a8.85,8.85,0,0,1,6.46-2.59c7,.37,8.77,5.86,8.83,11.6.19,4.85-1.85,8.36-5.35,10-1.85.81-6.09.81-8-.15-4.28-2.22-5.86-6.05-5.58-15.19,0-7.53,1.63-16.29,9.84-16.48a7.94,7.94,0,0,1,8.84,6.19Zm-11.89,8.24a7.09,7.09,0,0,0-2.86,3c-.53,1-.71,1.56-.56,3.68.39,5.45,3.3,8.54,7.53,7.93,2.35-.34,3.64-1.64,4.38-4,1.37-4.45-.37-9.66-3.61-10.86a6.48,6.48,0,0,0-4.88.34Z" transform="translate(-8.08 -13.62)"/>
    </g>
    <path class="a" d="M9.08,58.82c-1.58-3.47-1.75-9.4,3-10.2,3.57-.46,5,1.19,5.3,3.74.15.74.56.79.7-.06a4.21,4.21,0,0,1,4.8-3.75c5.53.94,5.21,7,3.4,11.15-2.73,5.48-5.6,8.94-8.24,14.46-3-5.74-6.51-10.41-8.93-15.34Z" transform="translate(-8.08 -13.62)"/>
    <path class="a" d="M45.35,29.17C52.49,28.7,56.22,34.8,57,39.61c.43.76.67.55.83,0,.35-6.18,5.88-11.22,11-10.53,8.33.11,13.39,9.37,12,17.22C79,55.84,73.84,61.61,69.93,67.55c-4.42,6.15-10.37,15-12.29,19.32,0,0-6-9.21-13.91-20C38.46,59.6,34.25,51.75,33.86,45c-.45-7.71,2.72-14.63,11.49-15.83Z" transform="translate(-8.08 -13.62)"/>
    <path class="a" d="M154.88,29.17c7.15-.47,10.87,5.63,11.6,10.44.43.76.67.55.84,0,.34-6.18,5.87-11.22,11-10.53,8.33.11,13.39,9.37,12,17.22-1.73,9.58-6.9,15.35-10.8,21.29-4.42,6.15-10.38,15-12.29,19.32,0,0-6.05-9.21-13.92-20C148,59.6,143.79,51.75,143.39,45c-.44-7.71,2.72-14.63,11.49-15.83Z" transform="translate(-8.08 -13.62)"/>
    <path class="a" d="M154.88,94.5c7.15-.47,10.87,5.63,11.6,10.44.43.76.67.55.84,0,.34-6.18,5.87-11.22,11-10.53,8.33.11,13.39,9.37,12,17.22-1.73,9.58-6.9,15.35-10.8,21.29-4.42,6.15-10.38,15-12.29,19.32,0,0-6.05-9.21-13.92-20-5.26-7.24-9.47-15.08-9.87-21.84-.44-7.71,2.72-14.63,11.49-15.83Z" transform="translate(-8.08 -13.62)"/>
    <path class="a" d="M100.06,127.66c7.15-.48,10.87,5.62,11.6,10.43.43.77.67.55.84,0,.34-6.17,5.87-11.22,11-10.53,8.33.11,13.39,9.38,12,17.22-1.73,9.58-6.9,15.35-10.8,21.29-4.42,6.16-10.38,15-12.29,19.32,0,0-6-9.2-13.92-20-5.26-7.24-9.47-15.08-9.87-21.84-.44-7.71,2.72-14.63,11.49-15.82Z" transform="translate(-8.08 -13.62)"/>
    <path class="a" d="M45.35,94.5c7.14-.47,10.87,5.63,11.6,10.44.43.76.67.55.83,0,.35-6.18,5.88-11.22,11-10.53,8.33.11,13.39,9.37,12,17.22-1.74,9.58-6.9,15.35-10.81,21.29-4.42,6.15-10.37,15-12.29,19.32,0,0-6-9.21-13.91-20-5.27-7.24-9.48-15.08-9.87-21.84-.45-7.71,2.72-14.63,11.49-15.83Z" transform="translate(-8.08 -13.62)"/>
    <path class="a" d="M154.88,218.89c7.15.48,10.87-5.62,11.6-10.43.43-.77.67-.55.84,0,.34,6.17,5.87,11.22,11,10.53,8.33-.11,13.39-9.37,12-17.22-1.73-9.58-6.9-15.35-10.8-21.29-4.42-6.15-10.38-15-12.29-19.32,0,0-6.05,9.21-13.92,20-5.26,7.24-9.47,15.08-9.87,21.84-.44,7.71,2.72,14.63,11.49,15.82Z" transform="translate(-8.08 -13.62)"/>
    <path class="a" d="M154.88,284c7.15.47,10.87-5.63,11.6-10.44.43-.76.67-.54.84.05.34,6.17,5.87,11.22,11,10.53,8.33-.11,13.39-9.38,12-17.22-1.73-9.58-6.9-15.35-10.8-21.3-4.42-6.15-10.38-15-12.29-19.31,0,0-6.05,9.2-13.92,20-5.26,7.24-9.47,15.08-9.87,21.83-.44,7.72,2.72,14.63,11.49,15.83Z" transform="translate(-8.08 -13.62)"/>
    <path class="a" d="M45.35,284c7.14.47,10.87-5.63,11.6-10.44.43-.76.67-.54.83.05.35,6.17,5.88,11.22,11,10.53,8.33-.11,13.39-9.38,12-17.22-1.74-9.58-6.9-15.35-10.81-21.3-4.42-6.15-10.37-15-12.29-19.31,0,0-6,9.2-13.91,20-5.27,7.24-9.48,15.08-9.87,21.83-.45,7.72,2.72,14.63,11.49,15.83Z" transform="translate(-8.08 -13.62)"/>
    <path class="a" d="M45.35,218.89c7.14.48,10.87-5.62,11.6-10.43.43-.77.67-.55.83,0,.35,6.17,5.88,11.22,11,10.53,8.33-.11,13.39-9.37,12-17.22-1.74-9.58-6.9-15.35-10.81-21.29-4.42-6.15-10.37-15-12.29-19.32,0,0-6,9.21-13.91,20-5.27,7.24-9.48,15.08-9.87,21.84-.45,7.71,2.72,14.63,11.49,15.82Z" transform="translate(-8.08 -13.62)"/>
    <path class="a" d="M197.9,249.68c-1.59,3.47-1.76,9.41,3,10.21,3.56.46,5-1.2,5.3-3.74.14-.75.56-.79.69.06a4.22,4.22,0,0,0,4.81,3.75c5.53-.95,5.2-7,3.4-11.16-2.73-5.48-5.6-8.94-8.25-14.45-3,5.74-6.5,10.4-8.92,15.33Z" transform="translate(-8.08 -13.62)"/>
  </g>
</svg>
