<svg xmlns="http://www.w3.org/2000/svg" viewBox="0 0 211 284.5">
  <defs>
    <style>
      .a {
        fill: #d40000;
      }
    </style>
  </defs>
  <title>ha</title>
  <g>
    <g>
      <path class="a" d="M-1.12,31.69V29H1.57L7.3-.4h3.25L16.86,29H19v2.73H11.64V29h2l-.8-4.51H5.38L4.8,29h2v2.73ZM12.2,21.26,9,5.54l-3,15.72Z" transform="translate(1.12 0.4)"/>
      <path class="a" d="M209.88,252v2.76h-2.69l-5.72,29.35h-3.26l-6.31-29.35h-2.17V252h7.39v2.74h-2l.8,4.51h7.47l.58-4.51h-2V252Zm-13.32,10.44,3.24,15.72,3-15.72Z" transform="translate(1.12 0.4)"/>
    </g>
    <path class="a" d="M-.06,46.43c-1.6-3.48-1.8-9.43,3-10.28,3.6-.45,5.06,1.2,5.36,3.76.14.74.57.79.71-.06a4.22,4.22,0,0,1,4.68-3.72l.17,0c5.59.94,5.26,7,3.44,11.18-2.76,5.49-5.66,9-8.33,14.5-3-5.77-6.58-10.44-9-15.38Z" transform="translate(1.12 0.4)"/>
    <path class="a" d="M92.2,113c7.23-.48,11,5.64,11.73,10.46.43.77.67.55.84,0,.35-6.19,5.94-11.25,11.12-10.56,8.42.11,13.54,9.41,12.13,17.27-1.75,9.6-7,15.39-10.91,21.35-4.47,6.17-10.5,15-12.43,19.37,0,0-6.06-9.22-14.07-20-5.31-7.27-9.57-15.13-10-21.91-.45-7.73,2.75-14.67,11.61-15.86Z" transform="translate(1.12 0.4)"/>
    <path class="a" d="M190.34,237.65c-1.59,3.48-1.78,9.43,3,10.23,3.6.47,5.06-1.2,5.36-3.75.14-.75.57-.79.71,0a4.23,4.23,0,0,0,4.63,3.79,1.46,1.46,0,0,0,.22,0c5.59-.94,5.27-7,3.44-11.18-2.76-5.49-5.66-9-8.33-14.49-3,5.76-6.58,10.43-9,15.38Z" transform="translate(1.12 0.4)"/>
  </g>
</svg>
