<svg xmlns="http://www.w3.org/2000/svg" viewBox="0 0 208.76 283.7">
  <defs>
    <style>
      .a {
        fill: #d40000;
      }
    </style>
  </defs>
  <title>AH</title>
  <g>
    <g>
      <path class="a" d="M7.73,46.56V43.83h2.66l5.67-29.27h3.22l6.24,29.27h2.15v2.73H20.35V43.83h2l-.79-4.49H14.16l-.57,4.49h2v2.73ZM20.91,36.15,17.7,20.48l-3,15.67Z" transform="translate(-7.73 -14.56)"/>
      <path class="a" d="M216.49,266.24V269h-2.66l-5.66,29.27h-3.23L198.7,269h-2.15v-2.74h7.32V269h-2l.79,4.49h7.39l.57-4.49h-2v-2.74Zm-13.18,10.42,3.21,15.67,3-15.67Z" transform="translate(-7.73 -14.56)"/>
    </g>
    <path class="a" d="M8.78,61.25C7.2,57.78,7,51.85,11.75,51c3.56-.45,5,1.2,5.3,3.75.14.74.56.79.7-.06A4.2,4.2,0,0,1,22.55,51c5.53.94,5.21,7,3.4,11.15-2.73,5.48-5.6,8.94-8.24,14.46-3-5.75-6.51-10.41-8.93-15.34Z" transform="translate(-7.73 -14.56)"/>
    <path class="a" d="M100.06,127.66c7.15-.48,10.87,5.62,11.6,10.43.43.77.67.55.84,0,.34-6.17,5.87-11.22,11-10.53,8.33.11,13.39,9.38,12,17.22-1.73,9.58-6.9,15.35-10.8,21.29-4.42,6.16-10.38,15-12.29,19.32,0,0-6-9.2-13.92-20-5.26-7.24-9.47-15.08-9.87-21.84-.44-7.71,2.72-14.63,11.49-15.82Z" transform="translate(-7.73 -14.56)"/>
    <path class="a" d="M197.16,251.94c-1.58,3.47-1.76,9.41,3,10.21,3.56.46,5-1.2,5.3-3.74.14-.75.56-.79.7,0a4.2,4.2,0,0,0,4.8,3.75c5.53-.94,5.21-7,3.4-11.15-2.73-5.48-5.6-8.94-8.24-14.45-3,5.74-6.51,10.4-8.93,15.33Z" transform="translate(-7.73 -14.56)"/>
  </g>
</svg>
