<svg xmlns="http://www.w3.org/2000/svg" viewBox="0 0 212.6 293.28">
  <defs>
    <style>
      .a {
        fill: #e2cf00;
      }

      .b {
        fill: #131f67;
      }

      .c {
        fill: #d40000;
      }
    </style>
  </defs>
  <title>JH</title>
  <g>
    <path class="a" d="M192.58,36.67l-11.52,7.51-.16,8.76C174.06,49.66,171.09,44.29,170,38c-1.94,2.44-1.55,14.75-1.55,14.75-1.76.91-2.4,2.1-3.52,3.17a37.74,37.74,0,0,0,4.22,4.92c0-.06-1.43,12.82.27,13.33,1.56-5.49,3.63-10.27,11.27-15.29,0,0,.11,20.43-.37,40.18-3.24-2.23-10.07-6.22-14.48-10.31,5.72-7.37-.11-17-8.65-10.6-5.53-3-6.38-17.15-7.75-24.56-.26-1.49-1.55-5.84-1.55-5.84s-18.24-5-26.07-4.64c6.58,17.14,5.3,38-23.81,41.94C84.09,91.43,68,98.54,52.31,111.82c-2.88,19.77-13.08,29.51-20.28,34.9,0,8-.06,15.94.27,24,0,.05,6.58-4.32,7.61-3.51,5.5,35.74,25.64,42.82,23.62,43.81-.32.16-6.59,6.61-6.59,6.61L32.36,201.47c-.85,24.71-.36,49.91,0,74.67,4.34-2.45,12.31-8.32,12.31-8.32l.12-8.41c0-.8,11.18,7,11.21,16.3.87.59,2.78-13.38,1-14.89l4.6-4.74-5-4.77s1.25-7.91-1.31-12.46a17.74,17.74,0,0,1-10.32,13.68s-.17-38.13-.4-38.16l15.45,9.78c-1.15.23-4.09,5.7-1,10.13,1.87,2.7,8.59,2.52,9.1-.59,9.5,8.86,5.85,19.44,10,32l27,4.94c-11.11-20.61.95-44.1,22.77-42.42a52.65,52.65,0,0,0,7.78-4.16,82.57,82.57,0,0,0-6.14-8.55l-46.69-.77,21.76-40.81-14.31-.46s11.63-24.68,9.12-26.67c-.88-.69-.51-8.65-.51-8.65l12.78.47c.51-5.69-6.18-27.39-15.62-41.59l52.49.47L119,138.7l15.87.46-9.47,19.45L127,173.78l-14.08.46c2.42,21,18,43.19,23.54,50,9.08-2.16,26-15.13,36.56-23.2C174.33,187,179.19,175,191.9,166l0-23.24s-7.25,4.68-7.25,4.36c0-5-2.59-15.5-7.42-24.83-5.19-10-13.71-19.08-15.67-19.65,4.5-6.82,6.43-7.43,6.36-7.54l24.55,15.74ZM68.88,86.21A28.66,28.66,0,0,1,60,88c-7.44.39-13.11,1-16.12,7.08-.61,1.86.73,2.54,1.72,3C51.16,91.12,66.05,100.31,68.88,86.21Zm-33,31.93c0,1,1.1,2.59,1.65.92a6.32,6.32,0,0,0,0-4.31C36.08,113.91,35.9,117.18,35.88,118.14Zm80.5,33.66-7.26,0-.05,8.52,7.4.35Zm71.3,42.41c-.16.85-1,4.65.83,4C190.6,196.59,188.82,189.19,187.68,194.21Zm-6.84,21.39c-.85-1.25-3.51,1.85-5.68,2-9.67.52-16.8-.78-18,9.34,5.58-3.56,13.39-1.94,18.42-3.09C179.22,222.61,183.4,219.32,180.84,215.6Z" transform="translate(-5.81 -9.76)"/>
    <path class="b" d="M31.07,287.71C30,199,30.5,111.45,30.81,23.74l163.71.92c-.58,87.53-.69,175.34.47,263.75Zm7-170.65c.14-2.54-.9-3.59-1.81-1.85-.21.42-.92,4.83.75,5C38.11,120.28,38,118.15,38.07,117.06Zm-2.65,3c0-.59-.38-.85.44-6.07-1.56-.6-2.91-3.13-1.78-4.73.45-.63.32-.77.13-1.29a2.48,2.48,0,0,1,1-3.18c.77-.53.8-.67.55-1.36-.63-1.79,0-3.54,1.68-4.14,1.18-.41,1-.47,1.08-1.22.28-1.69,1.21-2.7,2.9-2.53s1.68.15,1.81-.61c.37-2.13,3-4.45,6.31-6,1.67-.79,4.44-1.34,9.74-1.33,3,0,6.83-.46,9-2.32.35-.33.84-1.19,1-1.07.4.27.3,2.38-.48,4.31-2.26,5.62-5.32,7.17-14,7.12-2.58-.12-6.38.23-8,1.87-.48.51-.8,1-.62,1.25,3.58.5,7.26,2.12,9.41,9.19a223.49,223.49,0,0,1,29.7-18c-1.54-8.45,5.79-9.75,9.9-8.07a3.13,3.13,0,0,0-.06-1.19A6.46,6.46,0,0,0,94,78.11c-.19-.38-1.34-1.11-1.11-1.68.37-1,.2-1.2-.58-2.07-.52-.56-.18-1.77,0-2.25.16-.91.76-2.2.23-2.69-.82-.75-3.59-2-5-3s-1.61-2.18.71-5.95c1-2.2,2-4.56,2.89-6.13,1.27-2.39,1.4-4,.63-5.33a7.2,7.2,0,0,1-.82-3.85S81.38,31.61,77.47,26.3l-44.42-.14-.44,101.55,7.92-7.3L38.45,118c-.29,1.43,0,2.82-1.78,2.91C36.07,120.87,35.51,120.62,35.42,120ZM61.81,255.44c.26-4-1.66-10.59-4.56-15.14.13,3.46.37,7.68-.32,11.07Zm70.1,10.48c-.35-.11-3.27-.29-5.1-.39a15.25,15.25,0,0,1-12.64-7.26c-.65-1-.38-.95,1,.18,4,3.14,7.81,5,11.12,4.56,4.7-.67,7.23,1.05,6.58,3.05C132.81,266.41,132.77,266.2,131.91,265.92ZM116,257c-.94-.81-1-1.18.1-.44,3.41,2.27,7.53,6,12.61,3.81,1.06-.68.09-.59-1.68-.4-2.7.28-6-1.09-10-3.88-2-1.36-1.11-2.51,1.12-1.45a5.85,5.85,0,0,0,1.82.61c2.19-1.46,6.79-1.44,6.69-1.43.52-.45-1.2-1.17-3.76-2.14-1.66-.62-2.06-.88-.82-.93a8,8,0,0,1,4,1.29c2.05,1.32,3.08,2,3.69,2.13,1,.08,2,.22.31,1-.79.36-.72.46-.63,1.34a2.67,2.67,0,0,0,.86,2.13c1.07,1.18,1.53,3.37,0,2-.33-.15-.36.14-1.26.5-5.27,1.49-9.2-.83-13-4.16Zm9.72.39a6.5,6.5,0,0,0,.8-1.65c-.1-.64-.67-.44-1-.08-.49.61-1.18,1.49-.61,1.8C125.22,257.56,125.49,257.68,125.73,257.35Zm-1.8-.41,1.18-2.09c-.29-.14-4.26.68-3.64,1.25A7.16,7.16,0,0,0,123.93,256.94Zm4.47-7c-1.8-1-2.33-3.05-1-4.43,1.13-1.17,3.06-1.07,5.36.35.81.5,1.31.75,1.86.55.93-.34,1.29.18,1.21.9-.17,1.61-2.66,2-4.24.17-2.08-2.42-4.34-.73-3.68,1,.34.89,1,1,1.75,1.36C129.68,250,128.93,250.21,128.4,249.93Zm-8.24-10.77c3-.81,7.45,2.36,9.86,1.93,1-.22.9,1.28-.18,1.83-1.27.64-3.08.21-6.91-1.79-3.16-1.7-5.71,1.12-3.6,3.23a2.53,2.53,0,0,0,1.92.64c1.07-.05,1.38.25,0,.6a3.68,3.68,0,0,1-3-.84A3.27,3.27,0,0,1,120.16,239.16Zm-63.37-9.25a7.78,7.78,0,0,1,1.86-5.55l-13.46-9.13.2,36.47c6.67-4.24,8.86-9.57,9.24-16.46,13.17,14.75,9.06,32.7.83,42.92-.33-6.26-2.2-13.65-9.8-17.44l0,7.47L33,277.13l.07,8.25,29.68.09,14.36-21c-2.6-9.51-2.21-17.42-4-21.77-1.32-3.57-3.83-8.19-5.44-7.48C62.27,239.59,56.89,234.54,56.79,229.91Zm11.32,4.21C72.78,237.48,74,243,75,247.84c0,0,2.44,16.53,2.52,16.75a2.14,2.14,0,0,1-.59,2.49C72.6,273,64.19,285.65,64.19,285.65l82.49.49c-4.4-6.41-7.84-12.74-12-18a12.91,12.91,0,0,0-1-5c-.71-1.19-.88-1.82-.39-2.92,1.2-2.69,2.44-5.62,3.56-8.09,2.13-4.75,2.37-4.79-.54-6.33-3.45-2-4.07-2.66-3.35-5,.27-.83.3-1.17-.77-1.39-.49-.1-1.7-.39-2.51-.61-2.33-.74-1.65-.28-2.51.32-.65.33-1.2-.91-2-2.36-.87-1.67-1.09-1.71.36-.85,2.68,1.59,7.44,1,5.76-.87-.82-.9-1.57-1.37-1.49-3.4s.12-2.62-1.26-2.9a19.25,19.25,0,0,0-8.29.31c-7.79,1.94-14,8.7-16.4,13.71-.54.88.69.83,1.22.84,2.55-.23,4.36,3.84,2.69,5.66-.77.81-1.54.31-.72-.74.94-1.75-.46-4.06-2.51-3.47-2.59.74-2.66,4.08-3,6.41-.88,6.71,2.53,15.68,3.36,17.51,0,0,.18.28.12.28s-.47.37-.65.18c-.59-.68-2.11-6.17-2.93-10.1-1.58-10.84,1.22-20.82,10.25-26.49,8-5.76,12-4.52,16.56-4.79,1.55-.56,3.7-1.4,5.33-2.2,8-4.37,14.48-8.09,21.27-11.79,6.6-3.59,11-8.72,17-11.92.27-.15.56-.49.84-.63,7.5-6.51,14.91-12.91,19.38-17.37a7.93,7.93,0,0,0,1-1.28l-.76-37.6s-.75-.63-.75-1.23c0-1.3-.48-1.05-3.16.83-3.37,2.38-3.6,2.26-3.6,2.26-1.78-17.25-11.11-34.22-22.42-44.14l.47-.63s3.78,2.5,5.67,3.68v-2.4L164,100.78s-.4-.33,0-.94c.24-.33.87-.08.87-.08l3.65,2.69v-2.2l-3-1.88.94-1.19,1.58,1c-.67-1.74.28-1.68,1.25-.53a7.25,7.25,0,0,1,1.15,1.85c.08.24.34.84.34.84l2.58,1.93a4.91,4.91,0,0,1,0-1.23c.43-1.36,3.55,3,3.16,3.14l2.65,1.91c.63-1,3,.95,3.09,1.89.2.41,9.13,6.15,9.13,6.15l.09-3.17,1-1.26L193,36.49l-11.85,7.58L181,52.93c-5.59-1.81-10.44-9.91-11.15-15-.37-.2-2,10-1.13,14.42a41.38,41.38,0,0,0-3.95,3.69L169.24,61a90.73,90.73,0,0,0-.69,11.25c.18,1.77.22,2,.75,2a.93.93,0,0,0,.82-.87c1-4.47,4.51-11.45,10.5-13.83.4,0,0,39.9,0,39.9L165.72,89.26c-.74-.64,1-.6,2-4,2.69-8.71-6.65-11.79-10.26-6.74-.6,0-3.08-3.07-3.45-4.35-2.75-5.54-3.27-11.82-3.81-16.86A64.12,64.12,0,0,0,148.36,49a3.16,3.16,0,0,1,.4-3.2c3.68-5,7.24-10.2,10.35-15.3,2.83-3.72,2.28-3.91,2.28-3.91l-82.71-.26L91.9,43.76l1.34.52c-2.29.3-1.51,2.3-.62,4.45,1.09,2.64,1,3.19-1.8,8.64-4.06,8-4.28,7.28-.23,9.75,2.5,1.6,3,1.95,2.59,4.13s-.47,1.5,1.6,1.68a8.05,8.05,0,0,1,2.48.52c.56.25,1,.61,1.71.37,1.22-.4,1.25-.1,1.3.79a5.06,5.06,0,0,0,.78,1.47c.47.77.25.9-.61.36-2.66-1.68-7.11-1-5.47.86a10.2,10.2,0,0,1,1.41,4.48c.1,2.22,1.54,3,4.57,2.55,5.81-.43,18.91-7.65,22-15.75-6.71,2.29-5.34-5.95-2.94-5.69a8.35,8.35,0,0,0-.67,2.29c-.07,2.95,2.4,3.18,4.1,1.09.74-1.1,1.63-5.17,1.19-9.76-.53-5.57-2.79-11.8-3.2-13.34,9.6,22.91.79,33-12.7,39.56-5.17,2.16-5.87,2.15-8.92,2.29-2.08.17-4,1.2-6,1.86C82.28,92.39,68.1,99.26,55.41,109.5a159.49,159.49,0,0,0-23.52,20.6l0,40.42c2.16-.33,5.67-2.44,7.75-3.65,2.38,15.1,10.14,32.59,23,43,0,0-.3.57-.31.57a63.21,63.21,0,0,0-5.43-3.36l-.1,1.92,4.33,3c.12.46-.74,1.11-.74,1.11l-3.57-2.47,0,2,2.76,1.76c.75.75-.9,1.14-.9,1.14L57,214.33a6.86,6.86,0,0,1,.07,1.12c-.43,1.45-2.8-1.75-3.22-3.34l-2.33-1.38c.33,1-.51,1.08-1.16.84-1.75-.89-1.66-2.38-2-3.26l-3.1-2c-.53,3-3.68-1.21-3.18-2.21l-4-2.7a2.91,2.91,0,0,1-2.1.06c-.68-.44-.91-2.24-.91-2.24l-2.39-1.48v2.58l24.51,17.11-.35.67L31.25,200.65l1,75.9,12.46-8.62c-.24-2.84.29-5.38,0-8.62,6.41,4,8.56,6.7,11.38,15.07,1.83-4.77,1.51-9.34.69-13.57,1.64-1.34,3.23-2.64,4.05-4.66-1.54-2.12-3-2.71-4.66-4.68-.13-2.4,1.27-9.54-.61-11.89,0,0-3.44,10.37-10.86,13.49-.23-10.95,0-38.49,0-38.49s7.62,5.26,11.51,7.4c1.82,1,3.1,1.58,3.12,2.28,0,.35-.72.8-1,1.3a12.78,12.78,0,0,0-.72,5.59,5.78,5.78,0,0,0,1.73,3.6C61.86,237.35,66.34,236.12,68.11,234.12Zm14.76-19.39,29.31-41a138.94,138.94,0,0,0,17.06,41.44Zm14.49-43.1s2-4,3-6.2h-3.6L98.9,163h5.35l-2.86,6.09h2.27L106.8,163h8.33l-2.92,6.09h1.92l3.12-6.09H125l-2.72,6.09h1.81l1.59-3.07.39,5.59h-7.69l3-6.2h-2.48l-3.44,6.2h-7.2l3.12-6.2h-2.74l-3.43,6.2ZM121.1,149.8l3.11-6.57h-2.46l-3.44,6.43h-7.68l3-6.36h-1.91c-1.3,2-3.37,6.07-3.37,6.07h-8.15s2.31-4.31,3.22-6.42h-2l-1.64,2.6c-.58-1-.2-3.56-.29-4.65h7.68l-3.09,6.3h2.45l3.36-6.3H118l-3.3,6.3h1.92l3.27-6h8.25l-2.89,6h2.55l-1.12,2.59Zm-7.59-11.45-1.55.3c-2-17-11.41-34.36-15.4-41.53l46.85.66Zm55-98.23s-4.47,5.74-4.77,15.38L168,52.1C167.74,42.32,168.52,40.12,168.52,40.12Zm-4.72,16.1c-.07,7.17,1.81,11.75,4.19,15.32A71.61,71.61,0,0,1,168.77,61Zm-116,137.21L32.66,183v2.29l18,12.23Zm-2.73-5.6c-4-2-12.42-8.35-12.42-8.35v2.09L46,190.92a.43.43,0,0,0,.73-.09c-.52-.89-1.15-2.09-1.63-3Zm-3.71-9.06-8.71-6.07v1.89c2.24,2,9.58,6.75,9.58,6.75Zm-8.71-7.45,8.19,5.29-.51-2.35-5.81-3.94ZM179.79,98l.43-37.71c-8.53,4-10.22,15.8-9.93,16.17-8.49-8.75-11.69-27.62.22-40.31.89,4.07,1.19,10,9.62,15.37l.21-8L192.15,36l-.1-9.08-28.31-.22c-4.4,5.57-8.79,11.9-13.13,17.8-1.63,2.22-2,3.26-1.73,4.41,2.86,10.27,2.29,22.91,8.28,28.89,8.05-7.57,15.58,3.82,9.33,10.84ZM57.45,261c1.09,3.43.34,10.36.27,10.36,1.3-.71,4.83-10.74,4-14.51m41-184.15c-2-.57-3.51-1.43-5.62-1.23-1.67.17-2.23-.38-1.22-1.28,1.33-1.13,2.62-1.59,5.08-.31,7.4,3.88,7.63-1.78,4.3-2.18-1-.11-.9-.72,0-.56C110.39,67.36,108.81,74.21,102.64,72.72ZM94,67.07c-1-.36-2.16-1-2.6-.84-1.1.3-1.14-.31-1-1,.31-1.73,2.08-1.42,4.41.07,3.35,2.13,4.63-.93,1.58-2.58-1-.56-.7-.71-.1-.74,1.58-.06,3.07,2.09,2.65,3.86C97.87,68.65,95.28,67.54,94,67.07Zm9.8-5.23c-2.17-.37-5.3-3.28-6.75-3.48-.82-.09-1.78,0-2-.32-.8-1,1.46-1,1.61-1.37,0-.85.06-1.38,0-1.67-.4-.54-2-2.71-1.92-3.75,0-.07.83.58,1.23.58,3.86-2,6.51-1.13,9.77.3,1.34.6,4.82,3.3,4.86,3.72.08.73-1.47-.63-2.68-1.44-3-2.08-5.67-3.55-9.41-2.32-.58.2-.48.31,1.44.19s3.4.46,5.8,2c.59.39,1.31,1.05,1.74,1.26,3,1.43,3.67,2.84,1.75,2.46-.41-.08-1.2-.51-2-.78-1.37-.49-.89-.34-2.21.27a9.33,9.33,0,0,1-2.5.79c-.71.11-3,.09-2,1.06a12.85,12.85,0,0,0,4.07,2.35C105.49,62.11,104.81,62,103.79,61.84Zm.25-4.67c1.42-.53.31-1.71-1.49-2-.41-.06-1.29,1.88-1.31,2.29S103.27,57.45,104,57.17Zm-3.89.21a7.17,7.17,0,0,0,1.41-2c0-1-1.28-.72-1.58.33C99.62,57,99.59,57.73,100.15,57.38Zm-4.5-8.11c-1.16-.51-2.74-2.75-.94-2.37a34.6,34.6,0,0,0,3.72.2,16.81,16.81,0,0,1,11.69,5c1.57,1.63,1.67,2.84.08,1.71C104.57,48.71,101.11,49.66,95.65,49.27Zm43.9,174.42-1.57.84c0,.87.32.73,1,1.35a8.73,8.73,0,0,1-1.67.11c-1.15-.07-1.41-.06-.9.75l.55.93a3.69,3.69,0,0,1-1.56-.12c-1.42-.39-2.15-.2-1.61.59l.43.63a19.09,19.09,0,0,1-2.94-1.16L130,228c2.68,5.23,12.22,1.93,9.6-4.33Zm46.52-7.47c1.47-1.24.76-2.76-1.39-3.87-.9-.46-.81-.47-2.27.39-1.79,1-1.91,1.1-.64,2.45C183.31,216.83,185,217.13,186.07,216.22Zm-5.47-3.5c1.35-.6.85-.5.76-1.92-.4-1.63.53-1.74,1-3.27.18-.83-.52-.52-1.89.75-1.13.95-1.47,1.18-1.46.72s-.78-1.38-1.59-1.51-.62-.27.05-1.14a4.89,4.89,0,0,0,.86-5.06c-1-2.11-1.31-2.42-3.48-.58-1.12,1-2.69,1.82-3.45,3.08-.55.94-.23,1.84.63,3.67,2.15,4.58,5.47,6.64,8.58,5.26Zm7.62,0c2.39-.94,1.42-3.52-2.31-6.12-2.25-1.57-2.89-1.55-1,.15,1.22,1.09,1.41,1.47.89,2.25s-.9,1.42-.46,2C186,212,187.21,213.15,188.22,212.76Zm-134.6-4.29L51,206.82v2.25l2.61,1.56Zm130.23,2a2.92,2.92,0,0,0,1-1.83c.12-1-1.58-.8-2.4.36S182.58,211.39,183.85,210.5Zm5.84-3.54c1.18-1.25.61-2.57-1.83-4.15-.94-.62-1.42-1-1.31.2,0,.38-.37.87-.63,1.16-.85,1-.47,1.12,1.93,2.65C189.08,207.59,189,207.66,189.69,207ZM53.62,204.57,51,203v2l2.61,1.75Zm-5.7,2,0-2.05-3.38-2.25,0,2.29Zm132.77-.83c-.44,1.17,1.31.64,1.41.52.3-.59,0-.65-.11-.71C181.68,205.46,180.49,205.66,180.69,205.78Zm.76-1.48c.6-.2.67-.12.59-1.2-.13-1.64.12-1.77,1.2-2.48.87-.58.87-.49.86-1.49,0-1.21.07-1.73,1.66-2,.65-.1,1-.26,1.07-.77.09-.87-1.29-2.32-3-3.16a45.51,45.51,0,0,0-5.19,4.51l-.65.71.78,1.47c1.23,2.3,1,3.15.31,6.2-.15.81.48.69.64-.29S180.05,204.57,181.45,204.3Zm5.88-8.14c-.3,1.86.66,3,1.56,2.07.5-.5.91-4.59.57-5.23C187.6,191,187.4,195.72,187.33,196.16Zm-30,30.67c6.92-4.05,15.81-.74,20.81-4.06,2.34-2.58,4.69-4.22,3.36-6-1-1.38-1.7-1.59-1.7-1.59a11.5,11.5,0,0,1-9.05,2.5C161.78,217.38,157.53,220.21,157.36,226.83Zm11.82-9.64c4.41.15,8-.61,9.62-1.89,1-.79,1.17-.93-.42-1.06-3.42-.28-6.88-4.24-8-8.09-.22-.79-.48-1.65-.48-1.65-9.11,7.27-29.17,18.73-29.17,18.73,1.33,6.19-3.16,9.88-9.23,7.69-1.06-.1-.92,1.26-.72,1.82a5.08,5.08,0,0,0,1.21,1.8c.9.78,1.07,1.29.93,2s-.12.71.4,1c.91.49.86,1.18.36,2.62-.53,2-.57,2.53.88,3.49,1.87,1.2,5.54,2.51,5,4.32-1.23,4.09-3.24,7.62-5,11.45a4,4,0,0,0,0,3.63c.64,1.25.56,2.75,1.4,3.9,4.6,6.83,8.57,12.85,12.77,19l43.91.41-1.1-101.27s-6.76,6.67-6.74,7.14,1.59,1.44,2.26,1.55c0-.3,0-1.5.08-1.92.06-.61,2-.46,2.66.07.46.38.32,2.8-.14,4.77-.38,1.62-.32,1.64.37,2.57a4.56,4.56,0,0,1,1,3.39,3.57,3.57,0,0,0,.15,1.72,3.88,3.88,0,0,1-.19,3.35c-.75,1-.76,1.2-.59,1.76.61,1.93.38,3.57-1.77,4.4a2,2,0,0,0-.75,1c-.94,3.08-2.7,3.08-5.1,2.19-1.71,6.64-8.63,8.3-13.62,8.11-5.2-.21-10.48.18-12.83,3.58.55-8,4.15-11.93,12.81-11.63Zm15.69-13.37a1,1,0,0,0,.25-1.84c-1.14-.91-2.45,0-1.92,1.32C183.5,204,184,204.14,184.87,203.82ZM48.07,200.9l-3.46-2.4,0,2.14,3.44,2.22Zm6.53,1.76-2.45-2.94c-7.22-4.41-13.48-9.35-19.49-13.33l0,2.72,1.72.87s.14-.6.26-.94c.22-.65,2.2,1.17,2.84,2.64l.5,1.17,2.31,1.28s0-.66,0-.84c0-1.39,2.48.53,3.61,2.8.27.56.63,1.14.63,1.14l2.18,1.32c.86-1.17,3,.44,3.6,1.86.71,1.81,2,2,2,2Zm-13-.4v-2.08L38,197.8l-.05,2.12Zm148.56.17c.09-.54-.45-2.67-1.26-2.79-.51-.08-1.3.69-1.3,1.23C187.56,201.56,190,203,190.12,202.43Zm-2.94-2.53c.79-.86-.2-2-1.41-1.59-1.43.46-.94,1.76.67,1.79C186.79,200.1,187,200.09,187.18,199.9Zm-145.8-1.53v-2l-3.33-2.2L38,196.12Zm-6.56-.7,0-1.92-2.19-1.52v2.29Zm.08-5.74-2.24-1.46v2.08L35,193.89ZM44,185.62c-.24-.61-1.18-2.55-1.18-2.55L32.66,176v2.18L44,185.8Zm-4.75-16.83-.12-.88-.9.48Zm-2.15.22-1.42.77L40,172.57l-.35-2Zm148.84-23.48,1.11-.8-1.95-1.33-.15,1.35Zm2-1.28,1.45-1.19-4.85-3.43.34,2.13Zm3.45-1.79V141l-7.87-5.32.54,2.67c1.39.81,3.09,2,4.86,3.22C190,142.37,190,142.67,191.36,142.46Zm0-2.71v-2.32l-9.11-6.05.74,2.72Zm0-3.48v-2.44l-11-7.29,1.21,3.22Zm0-6.12-13.9-9.3,1.78,3.56,12.13,8.11Zm0-3.55L173.9,115l2,3.25,15.5,10.47Zm0-3.78h-.66c0,1.66-1.85.46-2.53-1.37-.51-1.23-.63-1.54-.63-1.54L184,117.54c.07.48.28,1.86.28,1.86L181.94,118s-.69-2.29-.71-2.31l-4-2.75c.08.47.15,1.24-.11,1.3a4.83,4.83,0,0,1-1.79-1.35,4.05,4.05,0,0,1-.68-1.7l-3.3-2.14-.82.09s-.45-.3-.86-.64c-.79-1.4-1.7-1.61-2.8-2.18,0,0,2.32,2.71,3.57,4.31a15.6,15.6,0,0,0,2.52,2.54l18.44,12.3Zm0-3.79-1.43-.86.1,2.25,1.33.9ZM47.63,114.09c.08-.14-.28-.31-.68-1.19a6.34,6.34,0,0,1-.56-5.23c.25-1.1-.74-1.56-1.2-.4-.35.91-.91,1.42-1.44,1.35s-.6.15-.38.84A2.32,2.32,0,0,1,42.26,112c-.81.21-1,.72-.73,1.46.38,1.23-1,2.27-2,2.21-1.61-.09-1,1.38,1,2.77.72.52,1,.8,1.61.54C43.57,117.58,46.31,115.59,47.63,114.09Zm139.77,4.5-.08-2.14-4-2.74.5,2.87Zm4-.9v-2.16l-1.67-1.07.08,2.29ZM38.84,114.35c.39.39.77.43,1.39.06s.44-.94-.3-1.3S38.26,113.85,38.84,114.35Zm-1.21-.95a1.18,1.18,0,0,1,.88-1.08c.83,0,.68-.49-.27-1.07-.45-.27-1.24-.9-1.53-1.11-1.42-1-2.79.56-1.74,1.91C35.86,113.18,37.16,113.85,37.63,113.4ZM187,114.74l-.31-2.38L183,109.92l.28,2.63ZM54,108.93a1.69,1.69,0,0,0,.24-1,9.47,9.47,0,0,0-1.93-4.74,9.24,9.24,0,0,0-2.78-2.59c-2.8-1.44-6.53-.82-6,1,.39,1.25.3,2.3-.78,2.93-.73.43-.82,1,0,1a3.91,3.91,0,0,0,2.67-1.49c.88-1.38,1.38-2.18,1.18.07-.08.94,0,.87,1.49.79,2-.1,1.62.27.46,1.16a4.35,4.35,0,0,0-1.17,5.36c.53,1.15.89,1.77,1.58,1.61A40.33,40.33,0,0,0,54,108.93Zm126.57,2.78-3.61-2.37.15,2.54,3.88,2.29ZM42.3,109.39a1.17,1.17,0,1,0-1.87,1.39C41.16,111.42,43,110.77,42.3,109.39Zm-3.12.23c-.16-.52.79-1.35.94-1.68.44-1-3.47-3.65-4.69-2.06-.83,1.1-.25,2.19,2,3.69C38.8,110.48,39.45,110.48,39.18,109.62Zm141-1.6-3.33-2.08,0,2.19,3.54,2.13Zm-5.87,2v-2.24L171,105.4l-.05,2.32Zm-130.4-2.65c.6-.6.4-.8-.78-.73-.74,0-1-.09-1,.25C42,107.6,43.29,108,43.92,107.33Zm-2.8-.84c.06-.16-.36-.47-1-1-1.31-1.1-1.46-1.78-.2-2.64,1.79-1.22-.09-3-2.17-2.25-1.69.57-1.69,2.27-.69,3.36C38.39,104.83,40.88,107.47,41.12,106.49Zm133.2-2.24L171,102v2.2l3.3,1.92Zm-132.58.14c1.47-.74,1.55-2.62.08-1.94-.61.29-1.4,1.06-1.4,1.41C40.41,104.53,41,104.78,41.74,104.39Zm1.08-4.31c1.91-1,1.62-2-.28-3.16-2.32-1.33-3.94,1.22-2,3C41.51,100.78,41.74,100.67,42.82,100.08Zm2.47-1.84c3.1-3.33,5.15-3.16,9.24-3.07,10.54.1,13.77-4.94,13.44-8.48-5.12,2.55-9.7,1.18-14.57,1.92-8.42,1.88-9.4,5.83-10,8.1ZM87.56,86.91c2.72,0,2.59.11,1.48-2.13,2.64.36,3.71,1.63,2.84-1,1.4.5,2.24.88,3.69,1.36l.92-.53c-5.6-5.45-11.8-.83-10.17,4.66l2.08-1Z" transform="translate(-5.81 -9.76)"/>
    <path class="c" d="M197.84,303v-3.58h3.23s0,1.25,0-11.65c0-11.25.11-11.33.44-12.42,2.25-7.53,15.64-7.52,16.5.83.05,4.07.07,4.93.1,4.93h-3.59v-1.61c0-4.18-1.28-6-4.59-6.06-2.52,0-3.93.88-4.72,2.95a6.58,6.58,0,0,0-.49,2.85v20.18h3.6l.05,3.56ZM101.22,286l1.3-6.31,11.61.57s1.35,4,1.89,5.74Zm-26.82-.15,6.16-10.18L89.31,278l-2,8Zm17,.15,2.66-10.86c-5-1.11-9.73-1.83-15.26-3.32l-9,14.17-5.4-.15c4.65-6.19,13.14-18.7,13.14-18.7a115.39,115.39,0,0,0,58.87,4.29s7.28,9.61,9.89,14.82l-5.13-.25-6.38-10.69c-4.45.49-8.82,1.08-13.45,1.27l3.17,9.42h-5.1l-2.89-9.39c-5.56-.22-10.24.22-16.9-.83L97.32,286Zm36.75,0-1.75-6.68,6.27-.73s2.9,5.09,4.49,7.41Zm18.36-20c.31-4.65,1.24-8.3,5.56-14.46,5.52-7.89,15.55-23.25,15.8-24,0,0,10.29,15.44,14.89,22.41,3.93,6,6.32,12.64,6.45,16.64.25,7.67-4.59,12.47-11.07,13.27-4.45.55-9.07-3.48-9.42-8.23-.15-1.94-1.21-2.53-1.49-.82a9.22,9.22,0,0,1-10.43,8.89C148.83,278.89,146.19,271,146.52,265.94Zm55.88-.7c-2-.65-3.51-2.75-3.77-5.39-.29-3,.8-6.1,4.48-11.75a93.82,93.82,0,0,0,5-8.55c2.17,3.19,3.29,5.63,5.48,8.92,5,8,6,12.39,3.42,15.47-1.8,2.18-5.61,2.23-7.18.11a5,5,0,0,1-.91-2.34c-.15-.62-.6-.7-.73-.13C207.56,264.55,205.1,266.1,202.4,265.24ZM71.92,223.9c7.79-11.85,35.32-50.05,35.32-50.05l4,.38s-24.45,34.1-36.32,51.4ZM32.17,205.47l9.6,6.91.06,53.82-9.75,6.86Zm39.85-88,5.81,11.37c-24.69,23.4-19.85,50.85-6.62,70.43a38.56,38.56,0,0,1-5.44,9c-17.89-11.8-23.34-42.47-23.2-42.8C62.29,147.86,65,142.25,72,117.42Zm100.89,83.84c1.28-17.32,9.75-28.64,19.24-35.56l.49,17.62C186.42,189.28,179.85,195.44,172.91,201.26Zm-25.78-17.45c21.63-20.19,22.36-48.87,6.61-69.92l6.45-9c9.14,9.78,18.1,20,21.91,43.84-13.69,10.8-25.79,28.63-29,46.64Zm-29.79-23.49,0-8.26,8.09,0-.24,8.24Zm-17.1-.07-.12-8.22,8,.06-.13,8.33Zm13.85-22s26.8-37.51,37.32-51.06l2.23,1.65L118,138.44ZM51.48,112c0,14.8-9.51,26.53-19.2,34.18l.13-16.85Zm5.65-26.94S37.84,59.25,35.78,48c-.69-6.83,3.19-14,9.9-14.92a9.8,9.8,0,0,1,10.87,8.43c.12,1,.35,1.33.91,1.08.4-.18.46-.39.63-2.19.5-5.16,5.3-8,10.29-7.57,8.93,1.15,12.05,12.3,9.56,17.94C72.66,62.68,56,85.5,57.13,85.06ZM6,55.25c-.74-3,.4-6.91,2.56-7.89a4.71,4.71,0,0,1,6.84,3.24c.2,1.08.65,1,.83-.11a4.34,4.34,0,0,1,6.41-2.88c3.44,1.77,4.12,6.35,1.56,11.45-2.87,4.85-8.72,14.14-8.72,14.14C15.34,72.66,7.34,60.61,6,55.25ZM192.3,40.57l.06,65.7-9.06-5.46.77-55.09Zm-43.17,3.89c-20.45-5.32-39.07-6.91-58.66-2.71C87.92,38.71,79.34,26,79.34,26l5,.07,7,11.22,13.35-1.75-3.44-9.12,5.5,0,2.75,9c0-.07,10.85.11,16.9.82,1-3.32,2.76-9.92,2.76-9.92h6.06C134.4,29.49,132.31,37,132.31,37a142.42,142.42,0,0,1,14.26,3.13c3.23-4.57,6.23-9.13,9.15-13.7l5.91,0C159.89,29.39,149.46,44.61,149.13,44.46ZM6.19,31.76H9.87c-.12,2.68-.08,5.87,2.39,7,4.39,1.5,7.3-1.16,7.59-5,.2-4.41.09-20.38.09-20.38H16.45V9.76H27.17v3.62H23.65s.25,13.68,0,20.5-5.31,9-9.56,8.77C5.27,42.32,6,36,6.19,31.76Zm139.17,4.83-9-2.11,2.36-8h12.63ZM93.49,33.71l-4.2-7.39h8.08l2.67,6.5Zm18.34-1.51-1.22-5.88h14.67l-1.5,6.26Z" transform="translate(-5.81 -9.76)"/>
    <path d="M78.27,25.82,91.33,44.66a105.39,105.39,0,0,1,14.44-1.79c7.09-.35,15.54.09,15.61.31,0,0,2.24,6.73,3,10a27.11,27.11,0,0,1-.16,12.88c-1.54,4.94-2.36,6.42-5.81,9.82a31.47,31.47,0,0,1-9.9,6.62c-5.17,2.16-5.69,2.14-8.74,2.29a5.71,5.71,0,0,0-3.31.74c-.34.12-.57.47-.87.57a1.85,1.85,0,0,1-.74,0A206.94,206.94,0,0,0,55,109c-.11.09-.19.47-.3.56-.81.66-1.56,1.17-2.35,1.78-.11.08-.35-.07-.46,0-11.68,9-18.3,16.3-20.73,18.41l.24,41.9s5.31-2.74,8-4.4a67.54,67.54,0,0,0,22.79,42.93l-5.55,7.64L31.12,200.27l.35,77.31,13.59-9.43V260c4,2.73,8,3.79,10.87,16.2C58.22,271.83,58,265.34,57,261c0,0,3.45-2.84,4.5-5l-5-4.47s1.3-10.84-1.08-13C53.49,243.41,52,248.63,45,252.42l-.08-37.66c3.5,2.22,6.82,4.73,10.29,7l.47-.09,3.59,2.46s-.38.76-.73,1.29c-4.36,6.61,2.91,14.72,8.81,9.84,2.31-1.91,6.65,6,7.47,13.67.84,4.93,1.29,11.06,2.63,15.34a2.14,2.14,0,0,1-.63,2.71c-4.53,6.37-13.63,19.2-13.63,19.2H69.7l.47-.75H65.34c4.16-5.54,8.13-12,12.45-17.39,16.09,6,42.44,7.45,58.36,3.78,3.29,4.61,6.48,9.44,9.64,14.14h-4.57l.63,1H148l-13-19.2c-9,2.67-30.9,1.63-30.5,1.41,0,0-.06-.15-.82-2.33-3.77-12.14-4.11-22.93,5.33-31.64,5-4.46,10.61-7.4,16.86-6.84,2.8-.06,2.85-.21,4-.73a14,14,0,0,1,2-.59l6.34-3.52.83-.16,1.83-1,.37-.45,2.95-1.5.33,0,4-2.29.05-.32,1.57-1,.37.39c.44,0,15.61-9.91,21.93-15.46l.4.14c7.38-6,17.43-15.4,20.41-19L193.05,165l-.25-.21L192.69,145h-.57l0-2.45c-3.26,1.21-6.86,4.24-7.1,4.11A69.86,69.86,0,0,0,162.52,103l5.38-7.44,25,16.83.07-4.92h.31c.3-18.85.47-67.72.47-67.72l-.25,0V35.77l-12.79,8.17-.18,8.25c-5.67-1.86-9.26-8.67-10.45-14.74-1.65.67-2.41,7.06-1.8,15.15a13.36,13.36,0,0,0-4,3.58A34.41,34.41,0,0,0,169,60.82c-.36.77-1.11,11.57-.36,12.91.34,1,1.52.85,1.52-.19,1.73-8.43,9.72-14,10.17-13.45l-.2,38.84L165.92,89c3-3.36,3.6-9-.15-11.81a5.59,5.59,0,0,0-8.32,1.34c-4.61-3-6.16-14.13-6.83-18.48a53.62,53.62,0,0,0-1.34-7.6,25.52,25.52,0,0,1-.92-4.64A2.36,2.36,0,0,1,149,46l13.8-19.58-7.05,0-.07.12h5.55L148.82,44.16a121.16,121.16,0,0,0-58.91-3.58L79.65,26.15l4.67,0-.19-.31ZM89.1,26l.2.35,8.06,0-.12-.3Zm12,0,.15.43,5.51,0-.17-.42Zm28.09.15-.05.2h6.06l.05-.2Zm-18.58,0,.06.24h14.63l0-.23Zm28.17.13-.06.2h12.63l.1-.19ZM192,37.09l0,2.65-8.48,5.4c-.21,11.36-.54,55.08-.54,55.08l-2-1.33.4-54.75S188.9,39.32,192,37.09Zm-22.25,2.13H170l.09.62h-.5Zm.6,1.61.22.83h-1.24l.21-.81Zm21.4.43V43l-7.31,4.57V45.85Zm-22.58,1.45,1.91,0,.32,1H169Zm-47,.51,1.28.19c2.94,7,3.69,13,4.2,19.26,1.17,8.11,3.53,16.25,5.17,19.7l-1.87,0a97.1,97.1,0,0,1-5-18.71,35.5,35.5,0,0,1-.2-3.92A59.71,59.71,0,0,0,122.18,43.22Zm2.41.28,1.63.17c1.14,5,2.81,9.66,3.48,14.65,1.09,8,1.66,16.14,5.51,24l-1.52,0A66.66,66.66,0,0,1,129,65.44c-.73-3.44-.73-6-1.12-9.13A82,82,0,0,0,124.59,43.5Zm2.48.23,1.64.25c1.07,4.93,2.92,10.36,3.4,14.82,1,9.08,2.42,17.54,5.29,23.55l-1.14,0c-4.43-8.58-4.5-16.22-5.74-24.25-.73-4.73-2.28-9.46-3.45-14.34Zm2.61.39,1.44.22c1,4.91,2.81,10.46,3.22,15.44.75,8.82,2.31,15.49,5.59,22.6l-1.35,0c-4-6.93-4.5-15.44-5.73-24C132.17,53.6,130.63,48.81,129.68,44.12Zm62.08,0v2.14L184.45,51V48.85ZM132,44.54l1.5.24c1,4.73,2.78,9.78,3.21,14.39.73,7.88,2.18,15.84,5.43,23.16l-1.4.09a61.72,61.72,0,0,1-5.58-22.64C134.84,55,133,49.19,132,44.54Zm39.85,0,.52,1.27-3.5.17,0-1.43ZM134.52,45l1.79.35c1.9,7.55,2.4,14.7,3.7,21.88,1.61,8.92,3.32,13.4,4.71,15.07l-1.48,0C139.62,74.63,138.33,67,137.49,59c-.49-4.69-2-9.31-3-14Zm2.73.51,1.37.28a131.08,131.08,0,0,1,3.08,17.53c1.31,10.61,4.84,18.68,5.6,19l-1.51-.06c-3.27-4.52-4.48-12.22-6.09-23.08-.71-4.77-1.41-9.27-2.45-13.72Zm2.21.44,1.53.38s1.38,5.43,2.42,12.64c.87,6,1.33,17.82,7.86,24.62,3.26,3.39,9,6.33,12.91,3.13a5.3,5.3,0,0,0,1.75-6.16c-1.69-4.09-7.42-3.39-5.51.91.21,1-1.14,1.07-2.07.06s-.74-2.29,0-3.42c1.47-2.38,5.41-2.62,7.73-.5,3.69,3.62,2.09,9.84-2.59,11.81-5.39,2.29-12.34-2.44-15.1-7-4.55-7.87-5.26-15.33-6.32-23.27C141.48,54.92,140.44,50.42,139.46,46Zm2.3.64,1.56.38s1.71,7.65,2.27,12.17c.7,5.59,1.47,12.18,3.86,17.26a19.24,19.24,0,0,0,5.84,7.37c1.88,1.33,3.57,2.17,6.08,1.63,2.89-.63,3-5.11.25-5.12-1.41,0-.49-1.36.68-1.4,4.16-.13,4.28,6.42.37,7.88-4.49,1.68-9.33-1.48-12.33-5.44-5.25-8.16-5.05-15.6-6.2-22.17A122.18,122.18,0,0,0,141.76,46.6Zm31.47.23,1,1.27-5.28,0,0-1.2Zm-29.15.42,1.49.52A114.2,114.2,0,0,1,148,60.69c1.07,6.76,1.42,12.38,4.91,17.25,1.46,2,4.2,4.74,5.93,5.06,1.07.23,2.18,0,2.46-.82.44-1.33,1.59-.72,1.61.49a2.22,2.22,0,0,1-1.68,2c-5.14.89-9.84-5.56-11.27-8.83-1.93-4.76-2.76-10.08-3.59-16.7-.36-2.81-2.05-11.74-2.26-11.92Zm47.68.24,0,2.14-7.29,4.59V52.14Zm-45.44.41,1.67.46A100.08,100.08,0,0,1,150.21,60c.84,6.52,2.65,14.11,6,18a10.19,10.19,0,0,1,.65.86c.24.54,0,1.44-.3,1.44-6-3.13-7.44-15.72-8-20a100.78,100.78,0,0,0-2.31-12.47Zm23.4,1,5.31.15,1.27,1.25-7-.06C168.52,49.48,169,49.57,169.72,48.91Zm22,1.74v1.77l-7.31,4.64V55.24Zm-21.85.56,7.76.14L180.4,53l-11.87-.1Zm21.85,2.25v2.13l-7.31,4.59v-2Zm-24.73.4,13.2.14,0,1.43L166,55.07Zm-1.72,2.45,14.93,0,0,1.58L166.7,57.8Zm26.45.24v2.22l-7.31,4.54V61.2Zm-23.64,2.33,11.44,0-1.24,1.33-8.63-.09Zm23.64.78v2.1l-7.31,4.6V64.29Zm-15,1.6-1.39,1.35-5.93-.08.2-1.23Zm15,1.47V65l-7.31,4.47v-2Zm-22.43.82,4.89.11-.75,1h-4.28Zm-44,1.79c.74,5.65,4.84,17,4.84,17h-1.62a77.35,77.35,0,0,1-4-14C124.4,67.7,124.85,65.49,125.33,65.34Zm43.68.32,3.77.07L172,67.19h-3.07Zm22.75.35v2l-7.31,4.5V70.68Zm-22.87,2,2.49.07-.59,1.35-1.93-.06Zm22.87,1v2.1l-7.31,4.54v-2Zm-68,.45c.73,4.11,3.85,12.38,4.09,12.92l-1.38,0c-.06.19-3.24-7.41-3.58-10.66C122.75,71.1,123.11,69.75,123.79,69.5Zm45.07.87,1.48.07-.25.77-1.2,0Zm.13,1.86h.77l-.18.74h-.48Zm22.77,0V74l-7.31,4.63V77Zm-69.8.19c1.11,3.3,2.22,6.65,3.53,9.87l-1.64,0a68.64,68.64,0,0,1-2.69-7.48,2.28,2.28,0,0,1,.8-2.35Zm-1.64,2.2,2.73,7.61H121.5c-.64-1.53-1.35-3.24-1.85-4.82s-.47-1.69.67-2.79Zm71.44.47v2l-7.31,4.53V79.93Zm-72.58,2.95,1.5,4.22-1.91-.05a13.09,13.09,0,0,1-1-3.78c0-.63-.16-1.25.28-1.52C118.86,76.46,118.76,76.86,119.18,78.07Zm-2,1.73.8,2.47-1.79,0A5.39,5.39,0,0,1,115.6,79c1.07-1.24,1.15-.59,1.55.81Zm74.61-1.46v2.1l-7.31,4.4v-2Zm-77.14,1.51.75,2.44-1.61,0a4.68,4.68,0,0,1-.11-1.91Zm-2.11,1.25s0,0,0,0c.23,1.07,0,1.14,0,1.13h-2.25A11.15,11.15,0,0,1,112.51,81.1Zm79.25.63v1.68L184.45,88v-1.7Zm-87,2.66,44,.12,1.47,2.07s-4.28.12-18.29,0c-11.8.15-35.5-.25-35.5-.25l2.31-1.09A27.81,27.81,0,0,0,104.76,84.39Zm87,.24v1.85l-7.31,4.43V89.12ZM68,86.41a19.57,19.57,0,0,1-9.3,1.75c-5.31-.43-13.43,1.79-15.07,6.89-.51,1.8-.51,1.85.46,2.77.48.45.95.8,1,.76.86-.75,2-2.16,3.2-2.57a17.59,17.59,0,0,1,5.08-.67c5.64-.25,6.91-.48,8.31-.85,3.09-.82,6.2-3.86,6.38-7.24a3.29,3.29,0,0,0-.1-.84Zm-.15.46c-.6,7-8.24,8-11.59,7.77-6.81-.41-9.49,1.63-10.57,2.89-.35.34-.56.26-.5,0,.79-3.91,7.1-4.06,10.27-4,7.79.35,9.76-3.4,9.54-3.44-.59.27-1,.5-1.62.78-.26.11-.21,0-.88-.44,0,0-.78,1.8-1.77.14,0,.09-.71,1.48-2.07.18,0,.14-.82,1.33-2.15.11-1.25,1.07-1.84.48-2.38-.27-.39.24-1.55,1.8-2.51.12-1,.65-1.46,1.36-2.34.93-2.07.37-3.85,2.49-4.58,4.43-.23.66-.69.77-.74,0-.25-2,3.08-5.53,6.43-6.5,2.6-.75,4.37-1.3,10.08-1.08A21.21,21.21,0,0,0,67.89,86.87Zm83.41.53,2.06,1.4L117.5,138.25l-3.17-.08Zm-57.53,0h4.07v6.74H94.33l-1.26-1.87A2.18,2.18,0,1,0,92,90.43a1.63,1.63,0,0,0,0,.31L90.7,88.79a20.87,20.87,0,0,1,1.89-.92C92.94,87.71,93.77,87.44,93.77,87.44Zm12.56,0h6.91v6.74h-6.91Zm15.14,0h7.15v6.78l-7.15,0Zm15.44,0h7.15v6.74h-7.15Zm54.75.16.1,2.1-7.31,4.45V92.07Zm-51.43.69a2.31,2.31,0,1,0,2.31,2.31A2.32,2.32,0,0,0,140.23,88.29Zm-30.42.13a2.31,2.31,0,1,0,2.31,2.3A2.31,2.31,0,0,0,109.81,88.42Zm15.07,0a2.31,2.31,0,1,0,2.31,2.31A2.31,2.31,0,0,0,124.88,88.46Zm7.78.28a1.94,1.94,0,1,1-1.94,1.93A1.93,1.93,0,0,1,132.66,88.74Zm-30.66,0a1.94,1.94,0,1,1-1.94,1.94A1.94,1.94,0,0,1,102,88.76Zm46,.07a1.82,1.82,0,0,1,1.2.46L147,92.16a1.79,1.79,0,0,1,.92-3.33Zm-30.36,0a1.94,1.94,0,1,1-1.94,1.94A1.94,1.94,0,0,1,117.6,88.84ZM94.18,89a1.45,1.45,0,1,1-1.45,1.45A1.44,1.44,0,0,1,94.18,89Zm-4.44.08A104.48,104.48,0,0,1,111.49,138l-2.06-.1A107,107,0,0,0,87.84,89.82Zm50.49,0a1.53,1.53,0,1,1-1.54,1.53A1.54,1.54,0,0,1,140.23,89.07Zm-30.42.13a1.53,1.53,0,1,1-1.54,1.52A1.53,1.53,0,0,1,109.81,89.2Zm15.07,0a1.53,1.53,0,1,1-1.54,1.53A1.53,1.53,0,0,1,124.88,89.24Zm38.34,1.1c.81,6.21-.79,10.22-5.53,10.87-6,.82-6.82,1.28-6.85,7,0,6.78-1.05,8.73-5.85,9.27-5.4.6-6.65,1.24-6.17,8,.35,4.89-1.58,7-5.74,7.89-3.25.71-6.06,1.8-7.27,5.08l-3,0c.77-5.16,6-7.62,9.28-7.79,3.59-.85,4.34-2.05,3.76-8.34-.44-4.73,1.3-6.17,6.85-7.25,4.45-.87,5.54-2.15,5.29-5.78-.52-7.79,0-9,4.43-9.91,2.25-.54,5.93-.78,7.33-2.5,1.59-2,1.18-3.63,1-6Zm28.54.2v2l-7.31,4.51v-2ZM84.22,91.75c-1.56,6.76,3.82,8.22,7.09,9.36,3.81,1.33,4.74,3.25,4.3,10-.32,5.08.24,6.2,3.52,8,5,2.59,6.38,6.28,4.15,11.68-1.38,3.32-.65,4.26.22,7.16l-2.44,0c-.18,0-2.24-3.63-.48-7.59,2.08-4.69,2-7-2.62-9.15-3.59-1.64-4.69-3.18-4.92-6.54a25.1,25.1,0,0,1,.25-5.2c.42-3.88-1-5.55-6.7-7.68-2.56-1-4.29-3.16-4.81-6.67a9.3,9.3,0,0,1,0-2.11Zm85.79.73L191.82,107l-.15,3.22L168.53,94.76ZM156,92.8A1.91,1.91,0,1,1,154,94.71,1.91,1.91,0,0,1,156,92.8Zm-68.63.84a1.73,1.73,0,1,1-1.73,1.73A1.72,1.72,0,0,1,87.32,93.64Zm104.38.2-.07,2-7.18,4.44v-2ZM77.86,95.2c6.6,8.6,13.08,17.45,18.08,34.15l-2.13.82a99.88,99.88,0,0,0-18-33.83Zm17.23-.08h49.7l-1.28,1.71L96,96.35Zm96.67,1.61v2.13l-5.5,3.35-1.62-1.06ZM74.94,97l1,1.28s-1.06.83-2.25,1.68c-3.26,2.33-3.68,2.59-3.9,4.11-.51,3.6,3.19,5.37,6.9,3.29,1.34-.61,4.26-2.46,4.26-2.46l.84,1.24s-4.19,3.13-6.65,3.84c-5.39,1.57-9.41-5.26-5.43-9.32a20.75,20.75,0,0,1,2.92-2.11C73.66,97.83,74.94,97,74.94,97Zm22.19.85,45.79.27-29.25,40-1.29-.08C110.11,123,104.49,110,97.13,97.81Zm-20,1.69,2.68,3.74a23.81,23.81,0,0,1-4.63,3.24c-2.31,1.26-4.81-1-3.36-3.1S77.16,99.5,77.16,99.5Zm114.6.38v2l-3.17,2-1.45-.93Zm-114.94,1.5a6.57,6.57,0,0,0-4.09,2.75,1.13,1.13,0,0,0,.09,1.35c.43.56.94.52,2.47-.29,3.11-1.66,3.69-2.64,2.32-3.61a1.26,1.26,0,0,0-.67-.2Zm-.1.8c.2,0,.44,0,.63,0,.54.23.37.89-.19,1-.12-.19-1.06-.22-1,.73-.23.54-.22.5-.91.57a.74.74,0,0,0-.84.4c-.47.26-1,.18-1.16-.11s.28-1.07.61-1.07c.16,0,.44-.22.73-.42,0-.51.6-.59.77-.59a1,1,0,0,0,1-.43.42.42,0,0,1,.31-.15Zm115,.47v3l-2.29-1.47Zm-127,.37a84.66,84.66,0,0,1,18.17,34.84L81.2,139c-2.52-10.17-6.41-20.91-17.92-34.89Zm97.57.17c3.77,3.21,19.25,17.77,22.2,43.62l-2.07,1.27a69.9,69.9,0,0,0-21.47-43.15Zm-7.46.9a1.91,1.91,0,1,1-1.91,1.91A1.91,1.91,0,0,1,154.82,104.09Zm-92.43.74s1.75,1.8,1.75,2.23c0,.85-.68,1.33-4.71,2.8-.68.25-3.66.93-3.66.93l-.11-1.44c1.52-.55,5.6-1.52,5.9-2.39.14-.34-.58-1.2-.43-1.2Zm27.78.37a1.74,1.74,0,1,1-1.74,1.74A1.73,1.73,0,0,1,90.17,105.2Zm70.19.5a70,70,0,0,1,21.17,43.24c-14.68,11.94-24.66,26.95-28.62,45.73-2-3.27-3.62-7-5.43-10.69,19.58-17.22,23.71-48.22,6.76-69.95ZM83.27,108l.88,1.37s-.18.17-2.93,1.87c-4,2.49-4.67,4.12-3.33,6.67s2.89,2.75,7.21.66c1.52-.74,2.81-1.51,2.81-1.51l.69,1.43A21.14,21.14,0,0,1,83,121.46c-3.49,1.28-6.8-.9-7.42-4.94-.45-2.94.83-4.51,5.93-7.41C82,108.81,83.27,108,83.27,108Zm60.06.65a1.91,1.91,0,1,1-1.91,1.91A1.91,1.91,0,0,1,143.33,108.69Zm-77.9.07,1.16,1.09s-.5.73-3.34,2.45c-2.56,1.53-2.82,1.28-1.55,2.36,2.37,2,5.66,6.44,5.65,7.59s-1,2.12-2.91,3c-1,.47-5.14,1.93-5.75,2-1.2.13-1.54.61-.34,1.7,2,2.34,3.78,7.35,3.08,8.87-.78,1.72-1.73,2-9.28,2.36-.86,0-1.27-.2-.81.9a26.44,26.44,0,0,1,1.37,5.29c.6,3,.5,4.39-.68,5-.67.35-5.92.23-8.09-.2-2.49-.49-2.76-.52-2.36,1.1.52,2.23.85,8.21-.84,9.37-.7.46-1.46.34-4.54-.69-2-.67-3.67-1.42-3.67-1.42l0-1.86c1.6.66,6,2.56,7.25,2,1.48-2.13-.58-9.57-1.36-11.17-1-1.9,0-2.32,2.23-1.14,1.15.81,11,4.71,10.47,1.22-.6-3.31-1.68-7.08-3.76-9.44-1.93-2.19-1-3.09,1.18-2.13,3.8,1.7,11.65,1.29,11.26-.47-.52-2.87-3.12-6.75-6.68-9.75-1-.84-1-1.2.14-1.4,3.32-.27,12.84-1.25,11.51-3.48a22.48,22.48,0,0,0-4-4.93A17.48,17.48,0,0,0,55.6,114l.06-1.37c4.33-.36,6.59-1.66,9.77-3.9ZM55,110.11c-1.56,16.29-8.37,29.7-22.43,39.06l-.08-1.82c12.37-9.29,18.3-22.48,19.91-35.25Zm30,1h0a49.21,49.21,0,0,1,2.26,4.44c-1.34,1.24-4.87,3.06-6.31,2.64-2.22-.71-2.57-3.09-.43-4.48a25.12,25.12,0,0,1,4.45-2.6Zm-18-.26,1.16,1a11.4,11.4,0,0,1-2,1.78c-1.3,1-.84.6,0,1.79.78.94,2.18,2.83,2.18,2.83l-.42,2.52A41.28,41.28,0,0,0,63,115c-1.1-1.14-1-1.17.54-2C64.75,112.37,65.71,111.58,66.88,110.88Zm31.57,1.62a1.74,1.74,0,1,1-1.74,1.74A1.73,1.73,0,0,1,98.45,112.5Zm-14,.15c-1.65.43-3.27,1.91-4.18,2.56-.33.24-.07,1.42.25,1.83s1.16.44,2.06-.06c.37-.21,1.06-.55,1.51-.76,1.27-.59,1.8-1,1.75-1.52C85.62,114.05,85.1,112.6,84.43,112.65Zm.09.75a.79.79,0,0,1,.65,1c-.8.43-1.24.07-1.14.67,0,0,.08.94-1.08,1a1,1,0,0,0-1,.14c-.81.34-1.53-.38-.64-.78.24-.11.83-.3,1-.66s.46-.81.87-.56c.22,0,.71,0,.87-.3-.07-.39.21-.42.41-.43Zm-33.33-.12c.36,1.83-.74,5-1.37,6.85-3.7,4.83-9.06,7.31-14.16,9a7.12,7.12,0,0,1-2.65.19C40.06,122.05,46.11,116.73,51.19,113.28Zm-12.88,1.64c0-.4-1.81-.9-2-.64-.34.32-.89,5.36-.53,5.72.49.51,1.86.65,2,0A47.34,47.34,0,0,0,38.31,114.92Zm31.61-.15,1.21,1.5c-2.56,24.3-19.91,45.31-38.44,53.65l0-1.61c21.19-11.14,34-29.67,37.28-53.54Zm83.86.1,2.3,3.17-3.29.1Zm-116.09.59a14.9,14.9,0,0,1-.43,3.52c-.2.75-.78.58-1-.11a6.86,6.86,0,0,1,.39-3.59c.46-.79.82-.66,1,.18Zm17.54.44c1.14,0,7.17,3.72,6.37,5.57-.64,1.47-5.7,1.59-8,1.38l.35-1.42a9.75,9.75,0,0,0,3.39,0c2.83-.19,2.62-1.16-.62-3.21L55,117.1Zm16.73,2a86.39,86.39,0,0,1,5.31,10.68c-22.83,21.54-21.06,50.87-6.67,70.12l-6.2,8.37A71.05,71.05,0,0,1,43,165.23c18.1-13,26.6-32.45,29-47.33Zm84.76.95,1.36,2.6-3.27,0Zm-14.13,1.3a1.91,1.91,0,1,1-1.91,1.92A1.92,1.92,0,0,1,142.59,120.15Zm-53.11.52.65,1.48c0,.18-4.62,1.65-6.11,3.54a4.05,4.05,0,0,0-.48,4.81c1.33,1.79,2.26,2,4.5,1.35a29,29,0,0,0,5-2.23l.29.75s-2.6,1.52-4.58,2.64a4.93,4.93,0,0,1-2.42.58c-4.51-.11-6.9-5.93-3.18-9.37a27.42,27.42,0,0,1,3.94-2.31Zm59.69.92c14.89,21.47,4.7,45-4.91,53.32l-.26-2.52a40.52,40.52,0,0,0,3.81-49.54Zm9.58,1,1.17,2.65-3.46-.36Zm-60,.87A1.74,1.74,0,1,1,97,125.15,1.73,1.73,0,0,1,98.75,123.42Zm48.65.34c13,19,5.77,49.18-19.12,58.39l-.13-2.12c25.38-10.61,27.87-38.86,17.68-54.79Zm-56.56.11,1.65,4.45a12.7,12.7,0,0,1-5.22,2.2c-1.83.41-3.26-2.75-1.85-4a14.91,14.91,0,0,1,5.42-2.69Zm-42.32,0c.3,0,0,.74-.81,2.65-1.73,4.2-1.85,4.29-6.22,5a21.37,21.37,0,0,1-5.58.29c-2.44-.23-3.48-.92-1.9-1.25A39.74,39.74,0,0,0,47,124.89,6.16,6.16,0,0,1,48.52,123.89Zm82.93.52a2.15,2.15,0,1,1-2.14,2.14A2.14,2.14,0,0,1,131.45,124.41ZM66.59,125l-.18,1.65s-2.65,1.4-3.9,1.93c-1,.39-1,.47-.72,1.36a33.49,33.49,0,0,0,1.81,4l-1.1,2.51a30.2,30.2,0,0,0-2.63-6.74c-1.18-1.64-1.4-1.84.43-2.19A37,37,0,0,0,66.59,125Zm23.64.54c-1.3,0-4,1.14-4.27,2.18-.15.59,0,1.41.51,1.6,1.35.5,4-.61,4.77-1.62.22-.31-.12-1-.36-1.36S90.73,125.51,90.23,125.54Zm.06.88h.07c.22,0,1,1,.12.91a1,1,0,0,0-.84.35c0,.49-.73.67-1.06.5a.55.55,0,0,0-.64.29c-.5.36-1.14.34-1.22.08s.34-.92.78-.89a2.1,2.1,0,0,0,.7-.46c.15-.51.68-.42,1-.4s.73-.34,1.07-.38Zm70.1.08,1,2.66-3.42-.31Zm-14.69,3.06a2.36,2.36,0,0,1-2.39.87c.84,1,1.22,2.38.39,3.29-1.25,1.27-3.66-.68-3.48-.86l4.33-5.77a1.64,1.64,0,0,1,1.15,2.47Zm-94.06-1.5s5.27,4.53,5.31,6.57a1.05,1.05,0,0,1-.86,1.23c-2.06.68-7.82-1.08-7.82-1.08l.74-1.41c.9.25,5.36,1.41,5.75.84S51,129.6,51,129.59ZM77.77,130l.64,2.2-2.16-.54Zm84.08.4.56,3-3.45-.81Zm-65.72.05.51,1.77c-22.87,10.61-29.54,35-17.62,55.06l-1.35,1.85C61.71,163.21,77.88,137,96.13,130.4Zm-20.6,1.86.31,2.7-2.66-.16Zm-31.48-.07c.46,0,.54.25.54.51a20.26,20.26,0,0,1-3.06,4c-1.62.65-7.88-2-8.81-4-.18-.59.43-.33,1.82,0,3.51,1,7.07-.38,9.51-.46Zm60.93,0a1.74,1.74,0,1,1-1.73,1.73A1.72,1.72,0,0,1,105,132.22Zm-72,2.13a14.8,14.8,0,0,0,6.57,3.31c1.41.32,1,.46-.31,1.81s-1.12,1.44-2.37.81c-2.08-1.05-4.34-3.45-4.25-4.75C32.62,135,32.71,134.35,32.94,134.35Zm129.9.3.43,2.88L160,136.4Zm-90.55,1,1.06,2.57-2.89-.08Zm73.43,2.46c0,.36-.08,1-.08,1,1.7-1.08,4-.2,3.89,1.55-.1,2.47-1.3,2.49-3.27,2.16,1.08,1.79-.2,3.51-2.23,2.85-1.85-.6-1.49-2.55-.63-3.7-4.36.71-5.52,6.91-.49,8.75-1-1.57-1.26-3.43.93-3.75,2-.29,2.91,1.25,2,3.11,1.91-.66,3.72.44,3.14,2.3-.7,2.25-2.7,2.1-3.88.73a2,2,0,0,1-2.6,2.72c-2.33-1.25-1.18-3.47.39-4.07-6-.62-7.41,7.7-3,8.89-1.14-.72-1.27-4,1.33-3.54s1.95,2.88.31,4c2-.42,3.82,1.3,2.62,3-1.41,2.06-3.37.59-4.09-.81.22,1.88-1,3.07-2.51,2.37-2.64-1.21-.69-4.24,1.38-4-4.19-2.48-9.88,2.71-6.53,7-.13-2,.85-3.55,2.19-3.33a2.2,2.2,0,0,1,1.87,2.53,3.16,3.16,0,0,1-2.41,1.82c3.2.35,3.47,2.61,2.15,3.73-2.25,1.89-3.3-.29-3.82-1.57-.46,3.18-4.21,2.09-4.33-.2-.13-2.52,2.77-2.47,3.31-2.32a8.68,8.68,0,0,0-4.72-2.71l0-1.46c9.73-6.1,13.08-16.76,10-26.87l.59-.67c1.59,1.21,3.18,3.81,6.12,2.86a11.56,11.56,0,0,1-1-.82c-1.51-1.49-.66-3.24,1.44-3.34a1.75,1.75,0,0,1,1.9,1.85Zm-66,0,1,1.48c-14.77,17.3-12.07,37.09-3.58,50.19l-1.24,1.49c-7.51-9.63-13.65-33,3.81-53.16Zm12.58,2.39a5.28,5.28,0,0,0,0,.7,7,7,0,0,0,.58-.87c1.26-2.11,4-.89,3.53,1.53-.21,1.13-2.13,1.58-2.65,1.25.5,1.35,1.84,1.67,3.47,2.26.58.11,1.56.39,1.56.39l0,.91c-8.85,5.58-13.87,15-10.62,28l-1,1.32c-1.79-4.29-3.41-4.2-6.35-4.37a7.76,7.76,0,0,1,1.15,1c.89,1.05.49,2.89-.74,3.08-2.85.44-2.88-1.58-2.5-2.95,0,0-.52.43-.77.59a1.74,1.74,0,0,1-2.67-1.49c-.13-1.37.34-2.26,1.76-2.43a5.3,5.3,0,0,1,1.2.06l-.43-.84c-.68-1.33.81-2.47,2.17-2.18,2.15.52,2,2.37.74,3.83,3.34.25,5.09-1.93,4.84-4.09-.3-2.65-1.52-4.08-4.14-4.54,0,0,.42.67.6,1a1.83,1.83,0,0,1-1.7,2.65,1.89,1.89,0,0,1-1.82-2.65c.13-.32.68-.72.59-.76s-.8.21-1,.24A1.91,1.91,0,0,1,76,159.36a2.45,2.45,0,0,1,3.2-.84c.18.06.39.32.43.26s-.12-.41-.16-.66c-.36-1.4.31-2.15,1.83-2.05,2.12.14,2.92,1.87,1.49,3.43l-.94,1c.07.3,3,.53,4.55-1.06,1.75-1.83,2-5.65.26-6.9l-.87-.61c.84,1.68-.7,3.61-2.06,3.25-2.72-.66-2.49-2.88-.7-3.58a6.78,6.78,0,0,1-2.34-1.41,1.83,1.83,0,0,1,.4-2.71,2.46,2.46,0,0,1,3.47.8c.46-1.41,1.11-2.36,3-1.6,1.35.65,1.33,2.45-.15,3.42a6.94,6.94,0,0,1-1.32.61,6.39,6.39,0,0,0,2.83.74c3,0,5.36-3.49,4.15-6.19a6.31,6.31,0,0,0-.85-1.25,4.84,4.84,0,0,1-.26,1.3,2,2,0,0,1-3.22.52,1.66,1.66,0,0,1,.06-2.5,4.42,4.42,0,0,1,1.66-1c-.8-.27-1.69-.46-2.08-1.29a1.84,1.84,0,0,1,.85-2.35A2,2,0,0,1,92.25,140.53Zm-59.37-2.17a25.4,25.4,0,0,1,3.17,2.69c.88.72.87.84.14,1.52-1.64,1.58-2.55-.71-3.08-1.64C32.46,139.68,32.39,138.4,32.88,138.36Zm130.72.43.21,3.05-3.4-1.3ZM69.93,139l1.23,2.78-3.16,0Zm66,0c3,11-1.2,18.83-9.12,25l-.88-1.15c6.19-5.26,10.82-11.45,8.78-22.49ZM99.53,139l34.8.64-1.05,1.83h-2.71L125.2,151h-25ZM48.61,147c-1.21,1.91-8.44-2.21-8.35-2.43l.91-.87c1.15.47,4.72,2.44,5.51,2.13.28-1.8-1.83-4.12-2.62-5.67l.88-1.11s4.58,5.94,3.67,8Zm11.86-7-1.2,2.18c-1.13.34-4.53.4-4.8.63a34,34,0,0,1,.86,4.39L54,148.89c-.36-2.1-1-4.77-1.48-6.72-.45-1.66-.33-1.29,3.2-1.57A31.47,31.47,0,0,0,60.47,140Zm7.14,2.62L69,145.15l-2.9,0Zm-34.85.17c.16-.06,1.05.94,1.21,1.24-.07.66-1.09,1-1.25.78a8.33,8.33,0,0,1,0-2S32.75,142.78,32.76,142.77Zm131.27,0,0,3.18-3.45-1.53Zm27.37.72-.05,2.06c-12.5,6.1-31.15,22.49-36.47,51.9l-1.09-1.21A77.45,77.45,0,0,1,191.4,143.53ZM65.65,146.36l1.55,2.34-2.8.31Zm98.45.9-.28,2.82-3.39-1.89Zm-65.31.59c0,.66.07,1.15.11,1.81-7.7,5-10.31,12.84-9,22.72L88.81,174C86.3,165,88.83,154,98.79,147.85Zm89.31.58a24.84,24.84,0,0,0,3.33,1.21l0,1.87-5.24-1.88Zm-150.6,8c-1.12.92-3.72-.61-4.91-1.24l0-1.58s.9.46,1.81.83c1.86.82,1.87-.16.85-2.92-.36-1-.72-2.1-.72-2.1l1.23-1.16s2.93,6.61,1.77,8.17Zm26.32-5.93,2,2.1-2.8.64Zm122.36.25c1.77,0,5.2,1.45,5.2,1.45l0,2.07a46,46,0,0,0-5.6-1.74c-1.45-.2-1.37.62-1.38,2.67a18,18,0,0,0,2,8.07c1.1,2.3.53,2.92-1.27,1.89-3.24-2.22-10.13-3.9-11.19-2.6s1.05,7.94,3.54,11.1c1,1.28,1.07,1.49.6,2s-1,.43-2.09.08c-3.59-1.14-8.77-1.4-10.27-.43s2.38,7.59,5.62,9.73c2.1,1.5,1.7,2.24-1.7,2.32-5.55,0-9.82,1.26-9.58,2.78.4,2.57,4,6.1,8.12,8,2.52,1,1.47,1.44-.21,2a54.18,54.18,0,0,0-8.15,3.88l-1.27-1.63s2.66-1.68,5.55-3.31c.68-.38.64-.52-.3-1.31-3.08-2.58-5.34-5.46-5.81-7.4s.48-3.07,3.28-4.14a23.08,23.08,0,0,1,3.88-1.19c2.2-.49,2.24-.56,1.3-2.25L164.92,180c-3.28-5.6-1.55-7.62,6.05-7.73,1.86-.1,2.22-.1,2.12-.75-.41-2.64-1.57-5.66-1.41-7.9.35-3.37,3.82-4.18,9.91-2.66,1.41.35,1.5.28,1.26-.86-1.18-5.13.05-9.76,3.33-9.37Zm-22.35.36-.54,3.27-3.24-2.16Zm-121.31.77,8.94.59L50,154.11,44.63,154l-.2,4.62L42.7,160.1Zm58,.35h7.36L107.8,160h-7.34Zm8.77,0h6.86V160l-6.8.07Zm8.21,0h7.35l-.07,7.79h-7.27Zm64.2.63a47.06,47.06,0,0,0,.41,7.17c-.12.47-.44.4-2.36,0a28.73,28.73,0,0,0-5-.57l1.55-1.65c1.27.15,2.27.14,3.59.31,0-1.32,0-3.82,0-3.82Zm-119,1.54,2.06,2.07-2.64.67Zm100.46.67-.82,3.33-3-2.67Zm28.2,1.77v1.7l-2.93-1.32c0,1.94,1.69,5.44,1.69,5.44l-1.4.66a11.81,11.81,0,0,1-2.11-6c0-.8-.09-2.16.63-2.2a5.71,5.71,0,0,1,4.11,1.68ZM61.65,158.49,64.09,160,61.38,161Zm100.53.75-1.2,3.43-2.61-3Zm-129.6,1.09,6.59,2.24L38,163.81l-5.48-1.73Zm92.52.91.54,12.14L90.8,173.1,92,171.38l2.27,0,6-10.05Zm-63.92.94L63.77,164l-2.69,1.19Zm130.29,1.08v2c-8.41,6.22-17.51,16.93-19.05,35.87l-2.27,1.94c1.11-18.49,8.81-31.24,21.32-39.79Zm-30.69.07-1.23,3.08-2.42-2.87Zm23.7,4.19-.81.91c-.23.07-3.44-1.64-6-2.05a31.09,31.09,0,0,0,3,5.44L179.58,173c-.36-.08-4.93-6.84-3.72-8.36C177.83,163.31,182.59,166.08,184.48,167.52ZM170.8,163.9c-.05,1.83,1.43,7.52,1.43,7.52-2.29.11-4.52-.15-7,.54l1.17-2.08s1.07-.11,2-.3c1.95-.38,1.74-.15,1.29-1.84a17.44,17.44,0,0,1-.45-1.93A17.29,17.29,0,0,1,170.8,163.9Zm-128.59,2c3,18.24,10.2,30.76,21.55,42l-1.15,1.51A70.34,70.34,0,0,1,40.08,167Zm18.77.77L63.44,168l-2.52,1.47Zm130.45.05v2.68l-1.54-1.55a9.89,9.89,0,0,1,1.55-1.13Zm-32.34.55-1.67,3.07-2.18-2.91Zm32.16,6.94c-.34-.54-3.4-2.44-4.79-3.24a9.46,9.46,0,0,1,2.6-2.37C191.28,168.86,192,173.31,191.25,174.17ZM61,170.84l2.77,1.35L61.27,174Zm92.27,0,3.56.33L155,174.11Zm33,1.3a3.67,3.67,0,0,1,1.63.56c2.5,1.4,3.82,2.93,3.68,4.29-.06.62-.41.75-.82.29-.73-.82-3.2-1.88-5.32-2.3-1.61-.31-1.76-.45-1.28-1.19C184.86,172.66,185.47,172.14,186.24,172.14Zm-42.89,1.29a81,81,0,0,0,19.14,35.08L160.73,210c-6.46-7.42-13.57-16.09-19.37-34.85Zm7.7.78,3.56.54-2.09,2.66Zm-50.24.16c.41,0-1.22,6.23-6.88,6.66-3.59.59-4,1.19-4,6.77-.08,7.56-1.3,9.33-7.47,9.79-4.1.31-4.63,1.15-3.94,7,.66,5.59-1.46,8.44-6.67,8.44-4.51.37-6.38,2.48-6.38,6.66,0,1.69,0,2.1,0,2.1l-2.91.23a35.58,35.58,0,0,1,.22-4.09c.89-5.41,3.21-7.58,8.1-7.56,3.77-.28,4.36-.9,4.23-6.62s-.23-5.78,1.29-7.31a6,6,0,0,1,4.08-1.61c6.18-.58,6.66-1,6.65-7.32-.57-5.26.88-8.48,4.22-8.75,6.76-.54,6.6-4.21,6.31-4.36l3.14,0Zm13.83,0c4,21.39,16.51,41.42,23.4,48.81l-1.34.71c-10-12.46-19.16-26.78-23.67-49.49Zm-7.16,0,3.14,0L74.48,225.27l-1.91-1.43Zm4.38,0c3.4,12.33,6.07,24.39,16.74,40.51l-45.28-.29Zm12.51.05c.26-.12,1.32,6.24-.26,9.17-1.43,4-.73,6.22,2.37,7.67,5.33,2.48,6.67,5,6,11.07-.47,4.27.82,6.34,4.84,7.71,4.78,1.64,6.88,4.22,6.85,8.44a5.31,5.31,0,0,1-.24,1.38l-2.68,1.57s0-.57.14-1.26c.7-4.67-.19-5.94-5.71-8.15-5.22-2.08-6.51-4.49-5.62-10.5a8.93,8.93,0,0,0-.92-5.43c-1.37-2.43-4.38-2.4-6.55-4.62-1.79-1.9-2-4.56-.47-9.1,1-2.82,1.09-3.89.36-6.23-.49-1.55-.68-1.69-.68-1.69Zm-62.9.68,3.07.85-2.31,2.4Zm122,.64a11.61,11.61,0,0,1,4.76,1.17c3.83,1.91,4.53,3.47,1.17,2.63a16,16,0,0,0-7.24.28c-2.77.68-2.71.71-1.76-1C181.62,176.77,181.94,175.82,183.48,175.78ZM176.53,178l-.7,1.2c-1.52-.26-3.12-1-5.44-.82a18.93,18.93,0,0,0,3.59,4.37l-.56,1.2c-.14.16-4.42-3.41-5.28-5.81-.39-1.08,0-1.56,1.52-1.6A19.1,19.1,0,0,1,176.53,178Zm-57.21-1.18a2.08,2.08,0,1,1-2.07,2.08A2.08,2.08,0,0,1,119.32,176.85Zm29.25.56,3.51.63-2.34,2.62Zm-65.57,0c.83-.07,2.11,1.54,2.11,1.54l-4.25,5.88c-2-.41-1.59-3.47.26-3.57.43,0,1.21.08,1.21.08a3.22,3.22,0,0,1-.9-.75c-1.24-1.5-.06-3.05,1.57-3.18Zm79.32-.52s3.38,6.69,3.16,6.94c-2.09.93-4.38,1.4-6.69,2.24l.45-1.94a15.81,15.81,0,0,0,3.34-1c1.23-.47-1.35-3.9-1.35-3.9Zm-23.41,2c4.94,0,5,6.1,4.06,8.1-.69,1.38-1.74,2.14-4.9,3.57-2.73,1.24-3,1.15-3,1.15l-.66-1.46s1.6-.7,3.32-1.39c3.55-1.44,4.41-2.53,4-5.1-.55-3.63-3.36-4.2-8.79-1.76-.63.28-1.43.56-1.43.56l-.37-.73a37.05,37.05,0,0,1,6.74-2.86A7.9,7.9,0,0,1,138.91,178.89Zm-76.35.66,2.8.92-2,2Zm124.42.78c2.47,0,4.5.41,4.49,1.29,0,.42-.09.46-2.31.76-3.37.47-9,3.35-12.17,6-1.87,1.58-1.39,1.22-.6-1.08s2-5,2.6-5.41c1.58-1,5.19-1.56,8-1.57Zm-40.36.32,2.38.52-1.55,1.49Zm-8,1.29c.85,0,1.27.39,1.61,1.2.72,1.76,0,2.79-2.75,4a16.59,16.59,0,0,1-3.73,1.6l-1.73-4.65s.55-.2,2.35-.94A12.65,12.65,0,0,1,138.66,181.94Zm-8,.56a102.86,102.86,0,0,0,19.34,34l-1.72,1.08a99,99,0,0,1-19.53-34.85Zm7.62.55a11.5,11.5,0,0,0-3,.94c-1.94.75-2.11,1.65-1.24,2.77.38.48.77.38,2.63-.36s2.72-1.09,2.84-1.77a1.21,1.21,0,0,0-1.24-1.58Zm53.43.21c0,.66-9.89,10-15.54,14.79-2.58,2.18-2.49,2.16-2.71,1.89-.14-1.61,1-7.38,1.62-8.38a31,31,0,0,1,15.27-8.47C191.21,182.91,191.76,182.93,191.68,183.26Zm-53.25.32a.7.7,0,0,1,.66.71c0,.3-.44.59-.9.59a1.3,1.3,0,0,0-.8.34c-.24.36-.4.7-.84.62a1.36,1.36,0,0,0-.92.09c-.86.76-1.73.13-1.32-.63A.85.85,0,0,1,135,185c.25,0,.81-.06.9-.36s.65-.47,1-.45a1,1,0,0,0,.87-.33,1,1,0,0,1,.51-.3Zm-74.74.16,3.15.43-2,2.54Zm30,0a2.08,2.08,0,1,1-2.07,2.07A2.08,2.08,0,0,1,93.73,183.7Zm32.78,1.64a2.08,2.08,0,1,1-2.08,2.08A2.07,2.07,0,0,1,126.51,185.34ZM65.1,187.69l3.41.22-2,2.61Zm18,.5a2.08,2.08,0,1,1-2.07,2.07A2.08,2.08,0,0,1,83.12,188.19Zm85.28,1.29c1.43,0,3.08.12,3.08.12l-.4,1.6c-1.74.17-4-.32-5.83.46.69,1.13,4.74,2.73,5.19,3.13a13.71,13.71,0,0,1-.33,1.69c.11.39-6.86-2.82-7.09-5.54C163,190,166,189.52,168.4,189.48Zm-24,1.66c4,0,5.92,5.56,4.38,8a11.4,11.4,0,0,1-3.8,3.57c-.87.56-3.18,1.69-3.18,1.69l-1-1.6a18.63,18.63,0,0,0,1.79-.85c2.18-1.23,6.61-3.85,4.47-7.43-1.2-1.93-3-2.31-6.73-.41a20.47,20.47,0,0,1-3.42,1.54l-.71-1.28c.19.11,5.56-3.13,8.24-3.24Zm-77.27.58h3.1L69,194.52Zm90-.37a23.41,23.41,0,0,0,6,7.08s-3.22,2.07-5.14,3.39l-1.13-1.33,2.76-2.37-3.11-4.34Zm30.32.88a50.27,50.27,0,0,0-.55,5.83,2.66,2.66,0,0,0,1.83.9,14.74,14.74,0,0,0,.75-6.27,3.76,3.76,0,0,0-2-.46Zm1.56,1.37a9.92,9.92,0,0,1-.35,3.83c-.29.65-.95.41-1-.48,0-1.2.22-2.21.29-3.31,0-.62.31-1,.68-.85s.35.46.36.81Zm-44.87.82c2,.15,2.83,1.86,2.07,3.09-1.84,2.35-3.73,2.78-6.15,4.14l-2.41-4.51S142.42,194.49,144.21,194.42Zm-.06,1a9.94,9.94,0,0,0-3.34,1.37c-1.38.68-1.84,1.74-.89,2.69,1,1.16,4.66-1.6,5.26-2.27a1,1,0,0,0-.21-1.51,1.27,1.27,0,0,0-.82-.28Zm-74.43.19,3,0L71.11,198Zm74.71.48c.52.36.47,1-.26,1.21-.37.09-1,.09-1,.59s-.57.5-.89.45-.88-.08-1,.33c-.28.55-.49.56-.88.17s-.23-1,.59-1a1,1,0,0,0,.78-.56c0-.35.23-.55.61-.47a1.5,1.5,0,0,0,1.29-.72.78.78,0,0,1,.76,0Zm-17.79.06a2.08,2.08,0,1,1-2.07,2.07A2.07,2.07,0,0,1,126.64,196.16ZM82.32,200a2.08,2.08,0,1,1-2.08,2.08A2.08,2.08,0,0,1,82.32,200Zm-49.67,1.85,23.78,16.25-1.63,2.38-22.08-15Zm119.36.53c1.55,0,2.74.89,3.9,2.68,2.29,3.57,1.14,6.38-3.61,9.25l-2.22,1.35L149,214.24s1.61-.94,2.27-1.36c3.9-2.46,5-4.64,3.29-7.1s-3.39-2.17-8.21.89a16.32,16.32,0,0,1-2.14,1.11l-1-1.44s2.72-1.4,3.65-2a10.39,10.39,0,0,1,5.24-2Zm17.73-.62v1.57c.05.07-3.23,1.51-5.16,2.38-.62.35-.38,1-.34,1.69l-.92.63s-1.28-.94-1.45-1.54c-.47-1.89,5.56-4.16,7.86-4.73Zm-34.33,1.68a2.08,2.08,0,1,1-2.07,2.08A2.08,2.08,0,0,1,135.41,203.41ZM71,204a2.08,2.08,0,1,1-2.08,2.07A2.07,2.07,0,0,1,71,204Zm80.92,1.65a1.8,1.8,0,0,1,1.7,1.27c.82,2-.3,3.5-4.36,5.77l-1.06.58-3-4.13s1.05-.72,2-1.32C149.49,206.37,150.91,205.69,151.93,205.65Zm-.4,1a1.52,1.52,0,0,0-.67.23c-1,.6-2.79,1.25-3.61,2.34-.48.67-.26,1.33.65,2.18.77.51,4.76-2.42,4.86-3.27C152.42,207.21,152.1,206.63,151.53,206.64Zm-118.71.22.67.45-.67.52Zm119.34.73a.67.67,0,0,1-.51,1.07c-.31.06-.78.14-.93.61a1.06,1.06,0,0,1-1,.56.57.57,0,0,0-.77.4.75.75,0,0,1-1.2.09c-.28-.3.22-1.17.56-1.16.06,0,.43.11.87-.48a1,1,0,0,1,1-.68c.37.12.59-.29.73-.51A1.25,1.25,0,0,1,152.16,207.59ZM34.4,207.9l1,.65-2.54,1.8V208.9Zm1.86,1.21,1.29.87-4.73,3.39v-1.84Zm2.42,1.55,1.37.91-7.23,4.88v-1.88Zm2.6,1.32v1.57l-8.46,5.91v-1.59Zm1,1.13,1.82,1.25.46,53.23-11.4,7.84V273.1l9.57-6.92Zm137.51,1.44c-2.55,2.92-6,3.11-9,3-8.06.11-13.06.54-14.1,10.15,3.28-2.46,6.77-2.77,10.8-2.66,5.1,0,7.4-.34,9.47-1.38,3.33-1.66,5.44-4.64,5-6.73C181.59,216.52,180.56,214.66,179.75,214.55ZM41.28,215v1.84l-8.46,5.67v-1.88Zm96.62.17a2.08,2.08,0,1,1-2.08,2.07A2.08,2.08,0,0,1,137.9,215.19Zm-55.24.21c15,.46,46.7.28,46.7.28l1.69,2.44-49.91-.52Zm97,1.6c-1.79,1.75-3.64,2.61-9.52,2.51-6.21-.12-8.64.87-10.24,3.63-.47.81-.46,1.12.22.51s1.85-2,2.39-.74c1-.69,2-1.75,2.52-.42.3-.06,2.09-1.86,2.52-.27.85-.95,1.59-1.25,2,.1,1.21-.57,1.86-1.67,2.55-.16,1-.7,1.72-1.57,2.29-.24.84-.25,1.69-1.78,2.17-.56.09,0,3.11-1.78,4-3.58.7-1.59,1.34-.53.55,1.09-2.05,4-5.55,5.41-13.59,5.42-4.88,0-6.9.48-8.43,1.38-2.46,1.43-1.13-2.18.59-4.37,2.17-2.76,4.65-3.58,11.44-3.33,3.71,0,6.08-.49,7.08-1.3a4.58,4.58,0,0,1,1.93-1.18C180.55,215.46,180.62,216.07,179.67,217Zm-109.84-.67a2.08,2.08,0,1,1-2.07,2.08A2.08,2.08,0,0,1,69.83,216.33Zm-28.55,1.54v1.87l-8.46,5.77V223.6Zm40.91.89h6.57v6.93H82.19Zm14.71,0H104v6.93H96.9Zm15.73.23h6.81v6.7h-6.81Zm14.77.13,4.54.16s2.51,3.2,3.58,4.68l-3.36,1.72H127.4Zm-42.05.47a2.31,2.31,0,1,0,2.31,2.31A2.3,2.3,0,0,0,85.35,219.59Zm15.09.23a2.31,2.31,0,1,0,2.32,2.31A2.31,2.31,0,0,0,100.44,219.82Zm15.44.06a2.31,2.31,0,1,0,2.32,2.31A2.31,2.31,0,0,0,115.88,219.88ZM79,220.35a1.79,1.79,0,0,1-2,3Zm6.31,0a1.53,1.53,0,1,1-1.53,1.53A1.54,1.54,0,0,1,85.35,220.37Zm45.9.07a2.31,2.31,0,1,0,2.31,2.3A2.3,2.3,0,0,0,131.25,220.44Zm-38.41.06A1.86,1.86,0,1,1,91,222.36,1.86,1.86,0,0,1,92.84,220.5Zm30.59-.07a1.86,1.86,0,1,1-1.85,1.86A1.86,1.86,0,0,1,123.43,220.43Zm-82.15.2v1.86l-8.46,5.91v-1.83Zm59.16,0a1.53,1.53,0,1,1-1.53,1.53A1.53,1.53,0,0,1,100.44,220.6Zm15.44.06a1.53,1.53,0,1,1-1.53,1.53A1.52,1.52,0,0,1,115.88,220.66Zm-7.74.19a1.86,1.86,0,1,1-1.85,1.86A1.86,1.86,0,0,1,108.14,220.85Zm23.11.37a1.53,1.53,0,1,1,0,3.06,1.53,1.53,0,1,1,0-3.06Zm-65.81,1.6a13.35,13.35,0,0,1,10.61,5.28c3.64,4.86,6.08,11.07,7.18,19.21.55,4,2.43,16.15,3.5,19L85.26,266c-.2.09-2.09-7.62-3.28-17.81a40.17,40.17,0,0,0-3.43-13.08c-2.5-5.08-6.75-10.46-12.41-10.88-3.31-.25-6.41,1.82-6.74,4.73a4.62,4.62,0,0,0,2.65,5.17c1.74.71,3.82.18,4-2.19a2.33,2.33,0,0,0-.15-1.14,1.56,1.56,0,0,1,1.75.91c.17,0,0,3.44-2.68,4.11-3.25,1.06-7-2.15-7.28-5.42a7.55,7.55,0,0,1,4.52-7.08A9.65,9.65,0,0,1,65.44,222.82Zm-24.16,1.06v1.9l-8.46,5.84v-1.91Zm24.35,1.21c4.73-.13,9.34,5.14,11.29,8.62s3.65,9.38,4.21,14.81c.94,9.21,2.71,16.75,3.08,17.1l-1.29-.28c-.27.18-2-8.15-3.13-17.41A38.69,38.69,0,0,0,75,233.61c-2.12-3.66-5-6.4-8.35-6.8-2.12-.21-4.3.4-4.72,2.63a2.17,2.17,0,0,0,2,2.71l.78.06c.82.15-.47,1.48-1.32,1.37a3.89,3.89,0,0,1-2-6.64A6.61,6.61,0,0,1,65.63,225.09Zm10.13,1.35,53.15.54s0,1-3.26.8a16.71,16.71,0,0,0-6.5.86l-41.75-.1Zm-34.48.62v1.76l-8.46,5.92V232.8Zm24.7.75a5.68,5.68,0,0,1,2.85.7c6.58,3.81,9.1,13.28,10,19.23,1.19,8.83,2.55,17,2.93,17.23l-1.43-.33c-.19,0-1.77-7.64-2.74-16.21-.79-6.93-3.16-13.89-7.86-16.82-3-2.05-3.61-2.26-5-1.06-1.2,1-2.43-.52-1.42-1.79A4,4,0,0,1,66,227.81Zm-24.7,2.39v1.45l-8.46,5.89v-1.72Zm38.69,0c.11-.1,4.57,7.47,6,19.42.74,6.29,2.87,17,3.21,17.1l-1.55-.16c-1.58-6.33-2.45-12.32-3.3-17.71-1-6.11-1.72-11.53-5.53-18.61l1.18,0Zm1,.06,1.38,0a57.54,57.54,0,0,1,5.75,18.5c.75,6.05,1.51,12.2,3.67,18.61L90.3,267c-1.86-5.21-2.52-11.49-3.52-18-1.11-7.2-2.84-13.48-5.8-18.72Zm8.53,0c2.42,6.26,4,9.25,5.09,16.95a111.8,111.8,0,0,0,4.83,21.39l-1.4-.06a84.28,84.28,0,0,1-4.32-19.83,60.59,60.59,0,0,0-5.31-18.43Zm-2.38,0c.13-.19,4.61,8.77,5.65,18.62a90.14,90.14,0,0,0,4.33,19.3l-1.43,0c-1.66-1.91-2.89-11-4.26-19.41a63.52,63.52,0,0,0-5.52-18.46h1.22v0Zm-3.61,0h1.27c3.32,7.26,4.7,11.58,5.72,18.6,1.3,8.88,2.54,16.89,3.92,19l-1.56-.1A94.74,94.74,0,0,1,89,248.63,55.45,55.45,0,0,0,83.52,230.34Zm7,.06,1.51,0a56.29,56.29,0,0,1,5.52,19,91.44,91.44,0,0,0,4.13,19.46l-1.21-.07a92.08,92.08,0,0,1-4.78-20.2A65.75,65.75,0,0,0,90.53,230.4Zm9.29,0a68.75,68.75,0,0,1,3.37,11l-.86,1.66A118.64,118.64,0,0,0,98,230.47Zm-6.88,0,1.83,0A86.21,86.21,0,0,1,100,248.17s.43,2.3.46,3.05c-.1,6.4,1,11,3.39,17.85l-1.09-.07a86.25,86.25,0,0,1-4.22-19.12,55.84,55.84,0,0,0-5.6-19.43Zm4.24.06a140.65,140.65,0,0,1,4.62,13.75,5.13,5.13,0,0,1-.83,3c-1.53-5.54-2.83-11.3-5.2-16.73Zm3.47,0,1.46,0,2.9,8.31-1.14,1.25C103,237.38,102.15,234.36,100.65,230.55Zm8.49,0,1.06,2.5-1.14,1a29.6,29.6,0,0,1-1.48-3.44Zm2.16,0,.53,1.44-1,.74-.74-2.15Zm-8.33,0h1.5c.6,1.75,2.21,6,2.21,6l-1.07,1.13S103.58,232.39,103,230.63Zm2.32,0,1.33,0c.4,1.13,1.64,4.27,1.64,4.27l-.91.87Zm6.95.06,1.31.06-.15.33-.82.41Zm-43.1,1.85c5.51,2.9,7,11.59,7.62,16.37,1,8.33,2.21,15.12,2.46,15.3L78,264s-.9-4.29-1.53-8.36c-.52-3.39-.92-6.23-1.06-7.53-.09-.81-.23-1.76-.3-2.1a23.3,23.3,0,0,0-2-6.3,13.82,13.82,0,0,0-2.87-4.28,10.9,10.9,0,0,1-1.41-1.63C68.53,233.2,69.14,232.54,69.14,232.54ZM41.28,233v1.64l-8.46,6v-1.87Zm0,2.88v1.89l-8.46,5.58v-1.68Zm0,3.21v1.75l-8.46,5.9v-1.81Zm14.13,1.77h.75l.05,1.23L55.06,242Zm-14.13,1.52v1.87l-8.46,5.58v-1.74Zm13.26.71,1.79,0,0,1.28L54,244.3Zm-1,2.06,2.94.05v1.23l-3.64-.06Zm-12.22.27v2L32.82,253v-2Zm10.72,2,4.3.05,0,1-5.13,0Zm-10.72,1.14v1.92l-8.46,5.41v-1.72Zm8.93.91,5.91.08-.15,1-6.73,0Zm-8.93,2.09v1.85l-8.46,5.5v-1.77Zm6.71,0,7.78.18,1.64,1.49-12.1.07Zm-2.35,2.72,13.37.17.93.86-14.34.06Zm-4.36.43v2l-8.46,5.54v-1.79Zm4.38,1.72,14.81.07-1.08,1.18-13.75,0Zm-4.38,1.48v1.8l-8.46,5.74v-2.06Zm4,.94,12.8,0-1.5,1.18-8.85.2Zm-4,2.21v1.71l-8.46,6.07v-1.92Zm7.75.22,7.52,0,.14,1H50.22Zm2.08,2.08,5.77.06.27,1.3L52,264.68Zm-9.83.91v1.59l-8.46,5.91V270Zm16,1.31.07,1.24L53.9,267l-1-1.3Zm0,2.2,0,1.3-2.4,0-.54-1.25Zm-2.13,2.32,1.89,0-.16,1-1.47,0Zm.56,2.41h.93l-.16.79H56ZM74.4,285.81l-.44.56H87.19l.14-.56Zm17,0-.23.76h6l.16-.76Zm9.75.15-.18.72h15.26L116,286Zm18.26,0,.31.87h5.13l-.33-.87Zm17.71,0h-9l.33,1h9.32Z" transform="translate(-5.81 -9.76)"/>
  </g>
</svg>
