<svg xmlns="http://www.w3.org/2000/svg" viewBox="0 0 211 284.5">
  <defs>
    <style>
      .a {
        fill: #e2cf00;
      }

      .b {
        fill: #131f67;
      }

      .c {
        fill: #d40000;
      }
    </style>
  </defs>
  <title>hk</title>
  <g>
    <path class="a" d="M76.15,247.38l53,1.14c4.7,6.49,14.13,19.74,14.13,19.74L57.63,269.4ZM54,251.9c2.28-4.63,2.73-9.1,2.29-15.53-.33-4.93,2.74-8.78,6-7.31,2.46,1.15,1.33,5.82-1.21,4.83-1-.38-1.83,0-1.7,2.18.22,5.46,1.68,11.63.43,16.86-.88,5.09-7.86,2.75-5.73-1Zm-21.47-7.1c-2.7-4,2.14-7.85,5.17-6,1.43.67,1.23,2.14-.58,1.36-2.52-1.09-5.24,2.76-3,4.31,1,.72,1.4.63.64-.28-2.06-2.38,3.18-3.44,3-1.86-.14,1-.33,2.08-.57,3.1C36.06,247.07,34,246.22,32.49,244.8Zm7.54-17a4.45,4.45,0,0,1,.22-6.26l.15-.14c.87-.94-6.95-15.53-5.95-15.63,9.86-1,19.85-.25,29.71.05,0,0-5.27,9.51-7.37,14.2-.84,1.9,1.14,4.12.32,5.53-2.54,2.79-1,5.88-2.55,6-4.45-.57-8.85-1.31-13.79-.32-.36-.09-.4-2.18-.74-3.54ZM82.71,126.42c5,25.33-2.33,52.34-19.2,70.11-2.38-2.29-4.21-6.64-6.58-9.48-6.59-2-11.33.36-16,2.64a26.08,26.08,0,0,0-13.2-3.7l-.15-3.94c4.55-.09,9.38.33,13.44,2.84l6.35-2.58L27.57,161.75l.27-3.52,24,24.31,3.09.11c-6.81-18.17-.85-46.91,27.76-56.33Zm33.52,31.92L119.7,175s-18.37,19.84-29.78,29.26l-8.55-.78s11.69-20.85,9.54-19.25Zm69.08,22.78c-8.16,9.16-17.87,15-28.79,21.4-4.32-4.84-9.57-10.18-12.61-15,9.45-5.06,18.45-9,27.7-17.84-.5.58-11.8,4.41-11.76,4-.41,1.89-.16,3.06-2,3.55-2.17-3-4.27-5.51-7.7-6.87a7.81,7.81,0,0,1-3.35-.82c1-.2.53-11.89,0-12,0,0,.28-.35,2.79-.3,4.48-.31,7.38-5.74,10.17-7.61,8.7-.72,16.41.14,25-.09-.06,10.4.54,21.19.54,31.58Zm-55.25-26.33c-.22-.45-2.42-17.68-.34-28.49.39-2.53,4.38-3.39,5.15-5.28,1.26-4.11-.64-9.18.36-13.77s3.23-7.33,5.17-10.81c2.09-3.76,5.08-8.46,8.4-11.29,1-1,4.38,2.14,6.95,7.46,7.39,4.66,16.87-1.36,16.87-1.36s3.68,3,12,4.65l-.13,3.24c0,.94-9.35-1-11.36-2.88,0,0-7,2.33-7,2.75,0,1.82,18.34,18.86,18.34,18.86l.1,4.2c-2.74-3.84-24.25-22.29-24.25-22.29,4.76,28.07-6.62,45.55-30.26,55Zm-30.77-5.5-.41-16.53,15.67.18.64,16.71Zm-71.68-18c.42-.58-.61-30.81-.55-30.81C37,90.57,46.79,85,56.57,79,61,83.35,64.75,87.06,68,92.38l-13.49,8.33c.51,2-.82,2.77,7.88,10.67.15-.54,3-2.15,3.51.26-1.18,5.08.52,9.41.75,12.14-1.19,1.6-3.85-.12-3.85-.12-1.71-1.79-8.45,7.07-10.37,8.06-8.38-.31-25.3.26-24.81-.4ZM122,77.44c.11-.11,8.54.06,8.42.37-1.53,4.12-5.34,11.45-8.82,19.89-4,7.21-9.58,11.45-14.35,16.17-3.8,3.77-7.18,9.72-9.78,8.18-1.58-5.12-2-9.65-3.7-15.31C93,103.38,97.83,101.19,122,77.44ZM158.85,49.1c3.08,1.32,11.75.63,13.12,0,1.77,1.2.66,2.79.45,3.68,1.8,2.3,2.79,3.12.74,6.82-.47,0,6.31,15.33,6.49,15.34,0,0-7.16-3.41-9.7-5.72l-5,6.6-5.75-7.45c0,.67-11.06,8-11.2,7.68-.35-.35,10.09-11.63,8-18.25-.5-1.59.64-3.22,1.43-4.63C158,52.25,157.32,50.38,158.85,49.1Zm-5.74-1.37c.48-.54-2.68-14.4.73-20,1.45-2,4.06-2.14,5.16-.48.83,2.32-1.65,5.54-2.16,7.12-1.62,4.38.79,10.17-.38,14.32C152.94,57.76,146.73,47.81,153.11,47.73Zm23.39-6.15c-1.86.08-.57-5.48-.26-7.07,0-.31,3.39-1.11,4.61,1.07C182.83,38.84,180.46,43,176.5,41.58Zm-22.08-28L137,34.87c-17.63-2-35.33-3.33-53.35-.57L69.13,14Z" transform="translate(-0.79 0.09)"/>
    <path class="b" d="M186.06,12l-161.33.5,1.78,258.16,161-1Zm-37.12,1.63h5.31L135,37.46l-.48.16a113.2,113.2,0,0,0,4.84,12.06c2.79,5.79,9.82,16.43,5.43,24.95-.42.73-.82,1.08-1.36,1.08-.74,0-.73-.44-.29-1.3a18.35,18.35,0,0,0,1.25-8.7,34.54,34.54,0,0,0-2.66-7.33c-7.35-13.61-9.64-20.87-9.23-20.87a1.93,1.93,0,0,0-.52-.2l-.73-.24c2.55,8.6,6.68,15.83,9.93,22.53,2.68,6.22,3,8.63,1.57,13.17-.55,1.75-1.53,2.87-2.49,2.87-.73,0-.69-.15-.19-1,2.57-4.64,2-9.7-1.22-15.58-4.65-9.72-7.43-15.86-9.09-22.1,0,0-.84-.27-1.14-.34,1.38,6.49,5.23,14,8.81,21.63,3,5.9,3.82,10.19,2.75,13.59-.35,1.47-1.47,3.66-2.88,3.73-.55,0-.64-.29-.12-1,2.19-3.79,2.59-7.27-1.34-15.19-3.61-7.3-7.23-15.45-8.47-22.58-.08-.59-1.65-1.28-1.31-.31,1.94,8.42,5.8,17,9.93,25.45,2.3,5.21,2.54,8.55.81,11.48-1,1.63-1.21,2-1.93,2s-.85,0-.38-.94c2.09-4.39,1.76-8.26-1-14.59-3.84-8.7-7.08-15.89-8.46-23.55-.25-.07-1.54-.58-1.36-.2a126,126,0,0,0,7.54,20.91,68.37,68.37,0,0,1,3.47,9.3c1.09,4.4-1.37,10.46-4.6,10.76-1.21.12-1.06-.49.29-1.74,2.3-2.16,2.75-5.61,2-9.6a50.79,50.79,0,0,0-3-9.72c-2.82-6.79-5.89-13.88-6.86-20.14,0-.56-1.26-.57-.89,0A70.9,70.9,0,0,0,125.74,50c2,5.09,5,10.8,6,17,.79,5.12-2.38,9.94-6.23,10.23-4.65.35-5.56-4.26-4.44-6.44,1.82-3.23,7.11-1.38,5.54,1.93A1.83,1.83,0,0,1,123,72c0-.19.26-.76.2-.8s-.49.32-.62.56c-.94,1.68,1.87,4,3.84,2.59,6.57-3.58,2.13-14.49-.74-21.16-2.76-6.2-4.8-11.81-5.68-17.56-.24-.17-1.32-.45-1.17-.25.79,3.06,1.16,5.66,2,8.24,1.24,4,3.47,8.56,5.28,13.1,1.65,4.46,3.31,8.24,2.55,12.89a2.49,2.49,0,0,1-.53,1.26c-.29.32-.54.27-.63-.92,0-.16-.24-.38-.27-.58a14.27,14.27,0,0,0-.4-5.12,24.25,24.25,0,0,0-2.77-5.44c-.61-1-2.21-4-1.64-1.94a28.76,28.76,0,0,0,2.63,5.79c.7,1.18,1.45,4.43,1.23,5s-.77.65-1,.44-.23-1.06-.29-1.59c-.24-2.21-2.48-6-4-7.56-1.12-1.26,2.64,5.33,2.91,7.09.12.74.35,1.35.1,1.71s-.51.24-.84.16-.3-.31-.64-1.44a11.31,11.31,0,0,0-2.76-4.65c-.51-.6-.84.15,0,1.12,1.11,1.77,2,2.9,2.23,5.18-.71,1-1.07.83-2.59-1.78-1-1.73-1.6-2.17-1.85-2.16-.67,0,0,.86,1.82,3.8,1,1.57,1,2.55-.11,2.55-.37,0-2.45-2.31-3-3.3-.43-.83-1-1.46-1-.45a12.87,12.87,0,0,0,2.17,3.54c1.4,1.63,1.79,2,2,2.67.08.35.25.94.37,1.33.36,1.17.18,1.5-.55.88-.32-.86-.59-1-1.49-1.61a15.34,15.34,0,0,1-2.49-3c-.26-.39-.48-.88-.74-1.27-.68-1.27-1.57-1.38-.92-.1a20.13,20.13,0,0,0,1.32,2.3c.88,1.25.69,1.9-.34,1.89-.45,0-1.69-1.63-2.46-2.92-.51-.84-1.3-1.43-1.2-.6a9.71,9.71,0,0,0,1.44,2.74c1,1.24,1.14,1.9.16,1.9-.65,0-1.22-.64-2.06-1.93s-1.3-1.67-1.53-1.52,1.15,2.61,2.32,3.94.3,2-1,.85a14.36,14.36,0,0,1-2.46-3.24c-.71-1.53-1.15-1.11-.71.1a11,11,0,0,0,2.22,3.76c.48.5,1.5.89,2,1.32,1.4,1.22,2.29,2.34,2.18,2.54-4,.22-7.27-4-8.17-6.64-.64-1.7-1.36-2-.67.45,2,6,8,9.07,12.2,6.4,2.53-1.62.3-5.82-1.78-4.47-.56.37-.58,1.41.13.86,1.34-1,2.7,1.54,1.23,2.3-2.06,1.08-4.35-1-3-3.59s6.94-1.12,5.85,3.12a7.62,7.62,0,0,1-6,4.33c-4.61.09-7.77-3.45-9.55-7-.23-.45-.63-1.33-1-2-.17-.37-.35-.73-.55-1.08.51,4.24,4.55,9.49,8.16,10.35,6,1.42,7.65-2.17,11.58-5.89,0,0,2.87.38,3,.31a35.49,35.49,0,0,1,5.74-.25c-21.5,39.17-19.85,85.68-1.37,121,1.22,2.58,1.44,2.09-.59,1.56s-4,.3-5.69-.09c-3.52-.73-4.26,1.68-6.95,3-3.38,1.28-2.61,3.63-3.42,5.9-.25.36-.43.64-.3.6a2.14,2.14,0,0,0,1-1.33,5.49,5.49,0,0,1,1.28-3.3c.58-.57,1-.85,1.13-.61a2.1,2.1,0,0,1-.26,1.41c-.82,1.55.26,6.74.33,3.05a9.19,9.19,0,0,1,4.3-7.53c2-1,2.59-.88,1,.62a10.53,10.53,0,0,0-3.15,7.09c0,1.18.44,2.16.6,1.1-.07-5.41,5.32-11.44,11.1-8.44.28.2.52.6.44.82-5.6-.94-10.46,2.13-9.74,9.39a22.44,22.44,0,0,0,.78-2.84c.88-4.45,5.9-6.4,9.41-5.18.66.28,1.18,1.22,1.09,1.34-4.3-1.35-9,2.73-9.29,7.15-.09,1.45-.06,2.68.68.07,2.77-9.82,11.34-5.37,10.28-4.56-6.62-.79-9,3.68-8.88,8.87.1.48.34.64.54,1.08a16,16,0,0,1,1.36,7.16c-.07.91.69,6.73-.07,6.49-2.41-.9-4.24-2-8.42-.07-.37,0-.49-.19-.36-.52a12.5,12.5,0,0,1,2-2.6c2.56-2.74,1.09-2-1-.1-1.36,1.24-1.06.39.22-3.81.52-1.7.2-1.91-2-3.05s-3.9-1.35-2-.12a17.45,17.45,0,0,0,2.45,1.31c1,.56.9.79.15,3.25-1.46,4.77-2,6.51-1.89,9.71.19,7.79,7.59,7,11.79,5.27l.17,5.14,15.88,22.43s-55.42-.06-85.07.43c1.69-4.08,19.61-21.38,20.68-24.48.1,0-2-6.33-3.08-9.08-5.18-13-12-18.5-8-27,.84-1.69,1-2.27,1.64-2.26.87,0,1.16.59.16,2.24-4.22,7.15,4.81,19.46,7.87,27.32a88.73,88.73,0,0,1,2.89,9.13c0,.62,1.47.82,1.07.1-1.13-4-2.54-8.39-3.2-10-2.41-5.8-5-9.76-7.31-15.42-1.31-3.58-2-7.73,0-11.44.75-1.35,1-2.1,1.44-2.17s.68.15.7.49a4,4,0,0,1-.76,1.95c-3.56,6.1,2.77,15.94,5.91,23a55.62,55.62,0,0,1,4.51,13.72.73.73,0,0,0,.73.73.83.83,0,0,0,.46-.17c-1.36-8.11-5.35-16-8.85-23.55-3-5.91-4.1-11.07-.11-15.94.35-.34,1.1-.28,1.15.22a6.32,6.32,0,0,1-.86,2.27c-3.51,7.39,1.93,13.38,4.48,20.42,2.49,5.89,4.81,10.83,5.74,17.1.7.27,1,.61,1.13-.28-1.82-8.86-5.75-16.83-9.15-24.5-1.58-3.33-2.14-4.93-2.25-7.16-.14-3.08,1.4-7,2.78-8,.36-.27.58-.32.91-.14s.35.41-.53,2.09A12.09,12.09,0,0,0,78,218.46c2.71,5.86,5,10.68,6.6,15A51.22,51.22,0,0,1,87.78,246s1.2.54,1-.26a67.46,67.46,0,0,0-4.28-15.08c-1.73-4.29-3.91-8.41-5.66-12.65a10.79,10.79,0,0,1,4-13.45h2c-.12-.05-4.59,1.73-4.82,8.15-.23,6.13,2.66,9.89,4.74,15.07,2.54,6.26,4.82,11.74,5.36,18.42a1.9,1.9,0,0,0,1.28.19,63.92,63.92,0,0,0-3.71-14c-2-5.59-4-8.06-5.79-13.92-1.25-4-1.08-9.34,1.69-11.79,4.15-4.21,9.93-1.21,8.49,3.6-1.12,3.4-5.74,2.72-5.72-.46a1.8,1.8,0,0,1,1.76-1.86,1.78,1.78,0,0,1,1.58.86c.19.3.32,1.62.41,1.67a3.59,3.59,0,0,0,.35-1.29,2.84,2.84,0,0,0-4-2.24c-2.32,1.17-3.83,3.86-3.68,7.48.15,3.83.85,6.32,4,12.33,3.64,7,4.85,14.61,5.62,19.74a1.81,1.81,0,0,1,.88,0,58.79,58.79,0,0,0-5.66-20.11c-3.45-7.21-4.42-11.62-3.27-14.87.17-.47.33-.83.54-.86.39-.06.51.56.86,1.86a4,4,0,0,1-.11,1.51c-.29,3,1.77,9.11,3.69,11.84.56.78,1.28.76.66-.63a23.28,23.28,0,0,1-3.34-11.16c0-1.29,1.44-.7,1.47-.06.11,2.07.31,4.52,1.3,6.26,2,3.44,3.12,3.59,1.07-.25-.46-.89-1.76-4.67-1.23-6,.29-.27.64-.31.82-.05a14.76,14.76,0,0,0,2.92,5.84c.74.86.86.47.48-.59-.66-1.24-2.7-5.37-1.76-6.31.3-.25.13-.11,1,1.25A15.76,15.76,0,0,0,95,217.32c.75.73.93.24.16-1-1.54-2.57-2.41-4.72-1.87-5.26s.66-.29,1.87,1.79c.55.93,1.32,2.28,1.59,2.61s.51.4.52.13A10.09,10.09,0,0,0,94,209.74a14.8,14.8,0,0,1-.08-2.21c3.22,1.66,3.35,3.54,5.47,6.43.22.22.54,0,.45-.45a17.33,17.33,0,0,0-2.13-4c-.62-.83-.65-1.3-.12-1.54.85-.39,2,.88,3.3,3.15.59,1,1.38,1.66,1.38,1.11a12.3,12.3,0,0,0-1.85-3.8c-1.26-1.31-.63-2.22.82-1a6.56,6.56,0,0,1,2.48,3c.54,1.17,1,1.32,1,.39s-1.74-3.6-3-4.31c-.9-.54-1.42-1.15-1.17-1.56.81-1.18,4,1.82,5.13,4.62.33.82.91,1.25,1,.88.25-.18-.41-2.2-1.08-3.13-1.12-2.13-3.74-4.19-5.29-3.94-.29,0-1.13-1.7-1.13-1.7,4-.64,7.81,4.12,8.5,5.9,1.3,3.38,2,3,.82,0-2.21-5.8-9.11-9-12.9-6.24-2.18,1.6-.87,5.41,1.37,4.77.88-.34,1.75-1.25.19-.95a1.54,1.54,0,0,1-.53-3c2.86-.86,3.52,3.71,1.2,4.73a3.13,3.13,0,0,1-4.55-3.15c.42-5,6.54-6.44,12.57-2.39,1.69,1.13,3.79,4.83,4.5,7.18a1.26,1.26,0,0,0,1.13.94,35,35,0,0,0-2.3-5.39c-2.62-6-12.12-6.33-12.12-6a35,35,0,0,0-7,6.22l-8.48-.79c21.62-34.85,23.32-86.06,1.14-122.38.28.18,4.26,1.22,5.63.13A2.41,2.41,0,0,1,90.72,81c1.26.46,2.58,0,4-1.2,1-1,1.06-1.24,1.72-1.16,2,.26,3.28-.9,3.69-3.75.16-1.11.26-2.28.11-2.11a8.71,8.71,0,0,0-.47,1.68,4.67,4.67,0,0,1-1.42,2.83c-1.07.9-1.7.4-1.25-1,.43-.88.78-3.14.2-4.17-.1-.19-.13.51-.28,1.07-1.16,4.47-2.39,6.73-4.51,7.26-1,.24-1.46.09-1.13-.48,3.73-4,3.49-8.43,3.21-8-.8,2.56-2.28,6.38-4.7,8-2.09,1.36-5.16,1.48-6.87.35-1-.65.5-.84,2.69-.87,3.7,0,7.14-5,6.57-9.17-.13-.77-.34,0-.64,1.33-1.37,4.51-3.7,7.68-9,6.74a2.36,2.36,0,0,1-.93-.51c-.87-.6-.54-1,1.19-.79,3.86.5,7.21-3.13,7.19-7.52,0-2.11-.31-2.08-.64-.52-.47,2.22-2.19,9-8.43,6.79-1.12-.61-1.74-1.39-1.34-1.51,3.64.74,7-.07,8.28-4.87a10.11,10.11,0,0,0-.14-5.79c-.19-1.15-.58-2-.71-3.2a65.7,65.7,0,0,1-.69-10c.3-.3.35-.23,1.4.46,2,1.37,3.61,1.06,5.71.25,2.69-1,2.45-.8-.37,2.39a16,16,0,0,0-1.25,1.6c-.72,1.36.63.37,1.64-.91,1.4-1.76,1.69-2.17,2-2.17a22.81,22.81,0,0,1-1,5.8C94,59.57,94,60,95.1,60.41c.48.2,1.4.57,1.92.82,2.3,1.1,2.08.2.25-.84-2.48-1.4-2.5-1.33-1.79-3.66a58.42,58.42,0,0,0,1.78-8c1.11-6.7-4-10.39-10.61-8-.39.19-.83-3.53-.77-4.51.06-.36-1-.28-1.88-1.36.26-.24-9.87-13-14.59-20.71,26.46,0,53-.48,79.58-.47ZM132.48,37.54l.11.08C132.54,37.57,132.51,37.54,132.48,37.54Zm22.94-23.33H183.8l.42,61.63-2.52.06s-4.74-8.18-6-12c-.31-1-.85-2.3-1.07-2.82-.48-1.18-.82-1.33-.18-2,1.29-1.44,1-4.38-.21-5.79-.39-.45-.58-.3-.56-1.41a4.79,4.79,0,0,0-.15-2.06c-.42-.82-.71-.88-.1-1.79a15.87,15.87,0,0,0,1.81-3.7c.58-2,.17-2.32,1.44-1.86a4.34,4.34,0,0,0,5.55-2.64,4.39,4.39,0,0,0,.24-1.87,4.56,4.56,0,0,0-4.61-4.51,4.24,4.24,0,0,0-.94.11c-.68.17-.81.12-1.86-.54a7.27,7.27,0,0,0-1.15-.74c-.48-.18-.88-.17-1.09-.51a3.68,3.68,0,0,0-3.12-1.7,6.37,6.37,0,0,1-2.44-.46c-.51-.27-2-.05-3.86-.33a6.68,6.68,0,0,0-1.89.2c-1.15,0-.69-.13-.91-1-1.44-4.58-5.65-4-7.58-.59a17.27,17.27,0,0,0-1.49,5.42l-11.34-.17Zm-87.77.14c4.24,5.4,8.3,11.47,12.56,17,5.26,6.69,5.43,7.46,4,14.2-.8,3.8-1.14,4.68-2.73,4.39a2.65,2.65,0,0,0-3,2.29s0,.08,0,.12c-.39,2.82,2.32,4.56,5,3.16,1.43-.76,1.48-.84,1,1.63-.68,3.52-2.05,6.55-3,6.45-2.29-4.86-7.83-1.4-6,3.64-.58.88.18,2,.47,2.92a16.5,16.5,0,0,1-3.15,1.17C57.35,76,38.09,88,27.58,99.34l-.73-84.73Zm89.22,11.56a2.5,2.5,0,0,1,1.8.66c1.36,1.22,1,2.93-.84,6.14-2,4.48-1.42,8-1,12.73,0,2.73-.93,5.32-2.39,6.44a2.57,2.57,0,0,1-3.66-.17,2.62,2.62,0,0,1-.41-2.91c.63-1.23,2-.51,2.28-1.67.11-.69.1-1.78.18-2.3-.29-2.06-.87-8.36-.87-10.55a15.43,15.43,0,0,1,1.49-6A4.25,4.25,0,0,1,156.87,25.91Zm3.74,7.31c-.53.45-1.44.46-1.53-.1a6.28,6.28,0,0,1,.77-2.68C161.83,30,161.18,32.73,160.61,33.22Zm2.91-2.93c1.61-.06,2.66,4.06,1.27,6.48a20.9,20.9,0,0,0-2.22.07,10.75,10.75,0,0,1,.24-2.11,4,4,0,0,0,0-2c-.53-1.89-.88-2.25.72-2.44Zm3.06.06h.16c1.63,0,2.56,3.17,2,6.63-.08.49-.12,1-.29,1.13a7.8,7.8,0,0,0-2.62.49,3.71,3.71,0,0,1,.14-2.06,6.83,6.83,0,0,0,0-4.42c-.37-1.47-.38-1.75.49-1.77Zm4.07.91c1.79.3,1.9,5.29,1.17,6.91-.18.24-.85.18-1.09.27-1.53.44-1.19.66-1-1.77a17.12,17.12,0,0,0-.1-4.35c-.12-.61-.17-1,.26-1.07A2.1,2.1,0,0,1,170.65,31.26Zm-8.93,1.95c.7,1,.13,3.25-.41,4.1s-.87,1-.54,1.42a2,2,0,0,1,.26,1.43c-.34.68.54.81,1.34,1.22,1.29.68,1.92,1.94,2.88,4.22.34.79,1,.54.69-.31s-.39-1.81-.59-2.53,0-1.11.86-.9c1.28.33,1.1,0,1.57-.15,1-.57,1.72.24,1.09.68a8.07,8.07,0,0,1-2,.65c-.72.19-.55.88.17.88a22.72,22.72,0,0,0,3.79-.91c3.54-1.08,3.66-1.66,3.32.37-.43,2.68-1.88,4.69-4.29,5.37a21.72,21.72,0,0,1-9.08-.21c-2-.93-2.17-1.58-2.8-3.39-.84-2.48-1.34-6.69-.36-9.12.85-2.06.77-1.85,1.58-1.74a1.79,1.79,0,0,0,1.94-.48c.14-.22.42-.61.55-.6Zm13.55,1.46a5.42,5.42,0,0,1-.16,3.09c-.22.4-1.46.38-2,.39-.29.06-.26-3.73,0-4.14C173.93,32.94,174.87,33.81,175.27,34.67Zm-36-.65h3.51v.86h-4.14Zm12.28.15v1.11h-5.28v7h5.91v1.46h-7.94V34.19Zm26.86-.23c5.42,1.2,3,7.24,1,7.6-2.53.46-4.68.17-4-2.07.71-1.53.22-3.42.42-4.8a3.52,3.52,0,0,1,2.56-.71Zm-40.84,2.12,5.21,0v1.15h-6Zm11.58,1.06a1.53,1.53,0,1,1-1.51,1.55,1.52,1.52,0,0,1,1.51-1.55h0Zm14.71.6c1,.11,1.05,1.6.65,2a1.09,1.09,0,0,1-1.54-.12,1,1,0,0,1-.2-.37,1.19,1.19,0,0,1,.78-1.5,1.55,1.55,0,0,1,.31-.06Zm-27.79.65h6.67v.94h-6.73l-.18-.6Zm37.55.41c.92,0,1.49.77.91,1.44-.83,1-2.61-.54-.89-1.42Zm-71.07,2c-1.49,1.27-.3,2.51,1.68,1.31,4.27-2.58,10.56-.53,14.66,1.62.8.41.91-.55.12-1.22-3.75-3.31-11.82-5.23-16.42-1.65ZM167.22,39c1.05,0,1,1.33.36,1.79a1.18,1.18,0,0,1-1.23,0c-.6-.12-.12-1.72.91-1.73Zm3.69,0c1.24.06,1.1,2.58-.77,1.67a1,1,0,0,1,.24-1.4,1,1,0,0,1,.57-.19Zm-34.47,1.3,6.49.06v1.06l-6.07-.06Zm-41.88,2.5c1.76,1.42,1.22,1.5-1.72.46a8.9,8.9,0,0,0-5,.33c-1.42.56-1.75.4-1.13-.56,1.69-1.79,6.25-1.36,7.92-.15Zm8.51,2.35c-.17.44-.78-.36-1.6-.2-1.18.22-.84.27.4,1.69s1.64,1.76,1.57,2.3c-.11.81.11,1.25.9,1.16.39,0,.85.4,1.43.94a20.26,20.26,0,0,0,3.72,3.07c2.68,1.17,1.47-.15-.25-1.35-2.86-2-3.85-3.31-1.82-2.6a10.17,10.17,0,0,0,7.29-.7c.83-.51,1.36-1.28,2.53-.91,1.65.53,2.28-.44,1.82-1-.75-.49-2.46-1.06-4.07-2.16-3.48-1.78-7.13-1.72-9.55-.3-1.44.85-2,.25-.54-.58,5.64-3.06,10.09-.13,13.71,2.07.62.38,1.06.35,1.06.08-.1-.89-1.7-1.43-2.35-1.83-5-3.08-10.31-4.07-14.25.31Zm34.22-2.71h5.64v1.23h-5.22ZM91.5,44c1.56,0,5,1.4,4.89,2.57-.06.44-.91,0-1.64-.41a8.44,8.44,0,0,0-5.69-.73c-1.58.3-2.09.56-2.31.37C86.2,44.53,90.05,44,91.5,44Zm60.91.83v2c-3.06.22-3.7,3.65-1.73,5.55,1.61,1.56,4.27,1,5.6-1.27.23-.39.26-.63.4-.43a3.17,3.17,0,0,1,.24.85c.22,1.06-.09,1.33-.77,2.23a4.43,4.43,0,0,0-.58,4.67c.2.38.6.92.53,1.17.39,0-3.47,10.88-9.11,16.38-1,.63-1.63-.12-1.15-1.14,4.6-10.59-4.19-20.43-7.61-29.89l14.17-.13Zm-40.87,1.83.8.07c-.64,4.87-5.35,4.09-5.52.12h.67C108.4,50.48,111.55,49,111.54,46.62ZM85,46.68a2.41,2.41,0,0,1,.34.85V50.8c-.27,4.7-6.18,5.57-5.73,1.55a1.56,1.56,0,0,1,3-.35c.76,1.94.9-.47.91-1.22A22.86,22.86,0,0,0,85,46.68Zm28.48.33a1.81,1.81,0,0,1,1,.59c.39.42.25.63-.67,1.1s-1.43.46-1.07-.57c.24-.6.4-1.09.75-1.08Zm44.2.25c.13,0,.47.18.39.69-.13.85-.86,1.33-1.05,1.13.12-.4.27-1.61.66-1.78ZM106.43,48.9c-.12.35-.32.2-.83-.24s-.54-.8,0-1.15c.88-.47.94,1.17.83,1.43Zm-17.9-1.22c1,3.14,3,2.74,3.9.15h.86c-.2,4-5.27,4-5.32.06Zm-1.77.39c.29,0,.08,1,.08,1s-.84-.43-.34-.89A.76.76,0,0,1,86.76,48.07Zm7.46.27a1,1,0,0,1,.51.21c.49.33.4.52-.16,1-.87.72-1.26.32-.8-.66.18-.37.31-.56.45-.56Zm64.87.68a8,8,0,0,1,2,.44,21.21,21.21,0,0,0,10.44-.18c1.08-.3,1.89,1.61,1.3,3-.26.61-.21.69.58,1.51a4.18,4.18,0,0,1,.45,4.78c-.62,1.25-.58,1.14.15,3.27.34,1,.77,2,.85,2.24.92,3.14,3.2,6.85,4.59,10,1.39,2.18-2.49,0-2.49,0a14.2,14.2,0,0,0,2.43,2.47c1.34,1,4,.33,5.2,1.58.28.39-.27,8.74-.56,9-11.91-.57-31.88-.12-31.88-.12l3.74,5.87a17.58,17.58,0,0,0,16.87-1.64c-.13.49,6.53,3.78,12,4.14v3.94c-4.07-.46-8.19-.55-11.91-2.94,0,0-3.47,1.46-7,2.55l19.48,20.32v3.39s-8.32-7.83-16.87-16.64l.18,43.35,16.88.33c-.53,11.28-.32,18.46-.2,31.38a111,111,0,0,1-29,21.42,84.08,84.08,0,0,1-12.17-15c-.07-.11.34-.33.27-.44s-.7-.23-.81-.39c-2.1-3.16-7-11.93-6.22-12.13,1.5.1,8.43-.76,9.81-4.95a7.47,7.47,0,0,1,0-1.89c.49-2.28.74-5.73-.09-7.92-1.49-4,3-2.68,3.15-2.42v-15c-5.84,4.71-11.72,9.36-19.52,11.3-4.86-24.66,2.84-55.33,24.81-76.13l-1.21-.1c-22.54,23.51-28.45,49.37-24.61,76.6,0,0,.15.85.17,1.14a1.48,1.48,0,0,1-.7,1.42c-.6.49-1.09.79-1,1.25.1.87-.74.9-1.83.9-.5-.45-1.17.11-1.58.32-.56.08-.84-2.25-1.57-.54-.27,1.08-.79,1.16-2,.62-.76-.22-.78.16,0,1,1,1.09,1.84,2.72,1.69,3.21a2,2,0,0,0,.9,2.68,2.23,2.23,0,0,0,.43.16c-.09,0-.94,3.34,1.44,3.24a21.64,21.64,0,0,1,2.68.4,1.24,1.24,0,0,1-.37,1.28l-1.66-.83-.43,2-2.21-.15,5.37,6.68.63-5.21,6.29.8c1,2.64,7.35,17.31,19.48,28.23,0,0-6.63,2.91-8.48,3.82l-1.17-4.15-1,1.51-1.85-.48-.21,1.7-1.66.54,2.88,2.19L136.6,210c-21.16-34.41-30.77-82.21-4.38-132.76l6.66.09-1.3,2.24,1.89-.31.54,1.64,1.39-.67L142.8,82l1.59-4.71s4.71.1,5.31,0,9.92-8.1,9.76-8.41-10.36,7.31-10.7,7c0,0-1,.25-.23-.71a37.51,37.51,0,0,0,3.7-5.47,26.43,26.43,0,0,0,4.05-10,2,2,0,0,0-.1-.95c-.92-1.83-.72-3,.93-5.2.58-.75.62-.94.45-1.41a2.35,2.35,0,0,1,.74-2.65,1.23,1.23,0,0,1,.79-.47ZM103,56.35c4.18,1.72.83,5.55-2.28,2.22-1.62-1.75-2.91-1.64-3.79-.36-.4.57.18,1.58.7,1.26s1-.65,1.66,0c5.29,4.9,9.08-2,4.53-3.67-.57-.27-1.36.31-.82.54Zm-17.21-.17a.2.2,0,0,1,.15.06,5.36,5.36,0,0,1,0,2.58c-.66,3.69-3.27,12.28-8.63,8.07-2.13-1.66-.19-5.85,2.35-4.43,2,1.11.65,3.76-1.5,2.24-1.05-.74-.71.79.17,1.22,1.5.79,4.21-.56,5.48-3a22.81,22.81,0,0,0,1.51-5.1c.27-1.23.29-1.66.46-1.67Zm.45,6.39c.45,2.67-1.57,7.34-4.45,8-2.19.54-4.91-.91-4.71-2.24.06-.39.22.12,2.2.45,2.78.46,4.55-1,6.16-4.53a11.85,11.85,0,0,1,.8-1.69Zm7,1.28a11,11,0,0,1-.27,1.62c-.29,1.25-.48,1.73.88,1.11a3.8,3.8,0,0,1,3.5-.09c1.5.84,2.93.69,4.69-.07,1.54-.51,2.29-.52,3.14,0,1.57.9,1,.33.82-2-.14-1.6-.56-1.39-1.13-.78a1.59,1.59,0,0,1-2,0,3,3,0,0,0-2.83.09c-.47.38-1.13.44-2-.18-.59-.41-.93-.19-1.66.14a1.86,1.86,0,0,1-2.34-.26c-.6-.44-.88-.31-.89.35Zm-6,1.91c.16,0,.18.62.07,1.86-.5,4.59-4.07,7.14-8.26,4.92-1.82-1-1.57-1.81.23-1.14,2.88,1,5.79-.43,7.21-4.19C86.75,66.21,87,65.77,87.13,65.76ZM97.36,69c2.06.86,4.36.59,5-.18s-.35-.71-.87-.59a6,6,0,0,1-3.8,0c-2.19-.89-2.05,0-.32.76ZM75.72,71.6a52.06,52.06,0,0,1,5.35,7.72c16.87,28.92,22.32,65.48,11.2,98.67A118.69,118.69,0,0,1,80.1,204l-5.79.07,2-2.29-2.7.2-.15-1.54-2,.67-1-2.28-1.85,5.22H57.82c25.14-24.6,30.09-54.43,25.4-78.33,0,0,2.11-1.33,2.39-2.1a4.7,4.7,0,0,1,.38-1.11c.93-.61,1.55-1.21,2-1.09a.88.88,0,0,1,.58.47c.9,1.31,1.08,1.51,1.57.2.34-1,.19-1.29,1.33-1.11.67.36,1.56.35,1.48.21s-1-1.22-1.46-1.85c-1.06-1.52-1.36-1.79-1.26-2.45a2.69,2.69,0,0,0-1.14-2.35c.14-2.71-.89-3-3.81-3.58a2.5,2.5,0,0,1,.27-1.26L87.33,111l.63-2.55,2.32.13L83.54,102a51,51,0,0,1,0,5.53c-3.17-.17-6.28-1.2-6.33-1A85.34,85.34,0,0,0,57.93,78.94l7.46-3.61,2.09,4.06.52-2.3,1.85.33.31-1.48,2.06-.24L70,73.54Zm44.43,4.75c.28.36.51.38.89.71l-.76.55A3.56,3.56,0,0,0,120.15,76.35ZM70.51,77.7a1.16,1.16,0,1,0,1.15,1.16,1.15,1.15,0,0,0-1.15-1.16Zm6.22.19a1.16,1.16,0,1,0,1.15,1.16h0a1.14,1.14,0,0,0-1.14-1.15Zm-20.05.81c3.69,3.1,7.1,7.13,11.22,13.44l-.09.85,1.26.47s6.85,9.09,6.49,13.13c-2.35.5-4.18-.38-8.39,3.59l-2.7-.6-2.85.7a1.47,1.47,0,0,0,.75,1.2c.31.13.82-1.12,1.15-1.09,1.38.17,2.78.19,2.52.63-.29.12-1,9.16.41,11.08.8,2,.23,1.94-.49,2.3-.78.52-3.25-.57-3.25-.57l.56,14.34c6.52-7.44,20.28-12.44,19.31-11.92,7,36.78-9.52,61.33-26.71,79.32l9,.05s-7.77,12.56-8.35,16c.45,1.16,1.67,3.55-.4,5.22-.7.78-.77,4.28-.77,4.28-4.73.17-8.84-1.49-14.31.44-.56.19-.69-3-.72-3.58a5,5,0,0,1-.49-6.47c.54-.62.31-.29-.14-2.38-.72-3.32-3.12-7.89-5-10.82a27.09,27.09,0,0,1-1.34-2.42c-1.3-1.56-4.72-.84-5.14-1.25s-.62-8.83-.24-9c13.5,1.08,34.64-.16,34.64-.16l-5.67-8c-6.95-2.74-16.59,1.94-16.12,2.19,0,0-7.67-4.23-13-3.62l.18-4.17A24.58,24.58,0,0,1,40.93,185l6.48-2.44-19.85-21,.23-3.47s5.08,5.48,10.6,11.34c4.74,5,6.51,5.87,6.51,5.87V131.73H27.81l-.43-9-.45-.77-.2-6.41.48-.65L27,112.17l-.16-.39-.21-6.53.36-.55.06-4.12C35.35,92.45,56.68,78.7,56.68,78.7Zm14.61,1.24,2,8.81,1.34-1.67,2,.65.14-2,1.88-.65Zm67.93,1.46a1.16,1.16,0,1,0,1.16,1.16,1.16,1.16,0,0,0-1.16-1.16Zm-5.37.73A1.16,1.16,0,1,0,135,83.32a1.17,1.17,0,0,0-1.13-1.19ZM68,83.13a1.16,1.16,0,1,0,1.14,1.17h0A1.17,1.17,0,0,0,68,83.18Zm70,.7-8,7.64,2.25-.1.4,2.21,2-.92,1.62,1.51Zm3.41,2.55a1.17,1.17,0,1,0,1.15,1.17h0a1.16,1.16,0,0,0-1.15-1.11Zm-63.6,1.5a1.16,1.16,0,1,0,1.14,1.17h0a1.14,1.14,0,0,0-1.14-1.11Zm5,1a1.16,1.16,0,1,0,1.14,1.17v0a1.14,1.14,0,0,0-1.13-1.13ZM78.23,90.6c.22,3.09.58,6.77.65,9.87L80.38,99l1.76.72.62-1.9,1.91-.1Zm49.24,2.58a1.16,1.16,0,1,0,1.15,1.16,1.15,1.15,0,0,0-1.14-1.14Zm-52.54.2a1.16,1.16,0,1,0,1.16,1.16,1.16,1.16,0,0,0-1.16-1.16Zm57.07.33a1.14,1.14,0,0,0-1.15,1.14h0A1.15,1.15,0,1,0,132,93.71Zm-.69,2.5-6.63,6.88,2.18.2.68,2,1.39-1.19,1.69,1.25Zm3.67,1.5a1.16,1.16,0,1,0,1.15,1.16A1.16,1.16,0,0,0,135,97.71ZM82.71,99.85A1.16,1.16,0,1,0,83.86,101a1.15,1.15,0,0,0-1.15-1.16Zm-28.13.66-2.17,1.66.54-.08s1.3,1.54,1.3,1.65.8,0,.8,0Zm33.59,1a1.17,1.17,0,1,0,1.15,1.21,1.16,1.16,0,0,0-1.15-1.21h0Zm-8.23,1.66a1.16,1.16,0,1,0,1.15,1.16,1.15,1.15,0,0,0-1.15-1.16h0Zm47.47,2.33a1.16,1.16,0,1,0,1.15,1.16,1.15,1.15,0,0,0-1.16-1.15h0Zm-4.53,1.7a1.16,1.16,0,1,0,1.15,1.16,1.16,1.16,0,0,0-1.15-1.16h0Zm46.29.29,2.39,2.61v38.28h-2.33Zm-93,.27c2,0,4.12.28,4.81,1.47,1.07,1.34-1.21.82-3.14,1.11-1.76.22-.74.59,1.77.73,3.45.21,4.81.3,5.33,1.1a6.22,6.22,0,0,1,.14,2.06l-4-.19a24.61,24.61,0,0,0-3.84.12c-.48.13-.34.52-.18.68a26.79,26.79,0,0,0,3.47.16c4.92.13,6,.3,6.34,1.89s-.91,1.23-6,.68a7.26,7.26,0,0,0-3.77.51c-.56.27,1.6.55,2.3.43a36.22,36.22,0,0,1,4.87.51c1,.16.12.13-.38.74-.34.51-.23,1.1-.76,1.38s-1.91.34-4.21.34c-2.61,0-3.83.64-.23.8,2.31.1,2.45.06,2.64.73.52,1.67-.59,2-3,2.34a19.87,19.87,0,0,1-4.08,0c-5-.36-6.74-1.56-7.42-3.78-2.52-8.3.6-13.36,7.88-13.76.47,0,.91,0,1.35,0Zm50.63.37-5.65,8.28,2.17-.86,1,2.25,1.75-1.25,1.74,1.08Zm-42.28,1c.3.36.17.63-.32.9a2.06,2.06,0,0,1-1.56-.14c-.61-.27-.68-1.36-.17-1.48a2.33,2.33,0,0,1,2,.73Zm-41-.41-3.09,3,.09.12,4.07-1.62ZM130.3,110a1.16,1.16,0,1,0,1.15,1.16A1.15,1.15,0,0,0,130.3,110Zm42.07,1,4.06,4.07h-1.08v2.25h3.41l1.86,1.86h-5.19v2.31h6.44v-1l2.54,2.32.29,25.66H172.44c0-12.64,0-24.83-.07-37.47ZM88.2,113.77c-.18.56-.57.56-1.25.28-1-.4-.85-1.51-.09-1.63C88.32,112.26,88.54,112.92,88.2,113.77Zm3.86.49a1.16,1.16,0,1,0,1.15,1.16,1.15,1.15,0,0,0-1.15-1.16Zm-4,.89a1.84,1.84,0,0,1,1.14.51c.63.64.41,1.23-.3,1.6s-1.34-.15-1.57-1.09a.74.74,0,0,1,.46-1,.59.59,0,0,1,.27,0Zm36.07,3a1.18,1.18,0,1,0,1.15,1.19v0a1.17,1.17,0,0,0-1.18-1.14h0Zm-38,1.42a1,1,0,0,1,1,1,1,1,0,0,1-.19.58,1.1,1.1,0,0,1-2-1A1.07,1.07,0,0,1,86.11,119.57ZM120,120a1.15,1.15,0,0,0-1.19,1.12,1.15,1.15,0,1,0,2.3.08h0a1.15,1.15,0,0,0-1.11-1.16Zm4.08.77-5.14,8.69,2.08-.83,1.26,1.68,1.3-1.15,2,1Zm-40.36,1.45c.92,0,1.18.73.52,1.4a1,1,0,0,1-1.41.1l-.09-.1c-.8-.56-.18-1.37,1-1.37Zm44,.11a1.16,1.16,0,1,0,1.15,1.16,1.14,1.14,0,0,0-1.15-1.13Zm-37.44.91a1.11,1.11,0,0,0-1.1,1.13v0a1.15,1.15,0,1,0,2.3,0,1.19,1.19,0,0,0-1.2-1.13Zm85.2.26V126h6.48v-2.46Zm-85.1,2.19-2.48,9.15,2.07-1.21L91.19,135l1.21-1.51,2.17.57Zm4.41,1a1.16,1.16,0,1,0,1.15,1.16,1.15,1.15,0,0,0-1.15-1.16h0Zm-8.09.47a1.16,1.16,0,1,0,1.15,1.16,1.17,1.17,0,0,0-1.16-1.15h0Zm88.79.72v2.21h6.48v-2.2Zm-53.35,2.89a1.16,1.16,0,1,0,1.15,1.16,1.16,1.16,0,0,0-1.15-1.16Zm53.33,1.24v2.39h6.48v-2.39Zm-133.62.29h2.29v41.47l-2.23-2.37Zm-1,.08-.11,37.9-4.27-4.57h1.14v-2.58H33.82l-1.6-1.56h5.33v-2.53H31.23v1.53l-3.12-3.34.06-24.75Zm81.39,1.16-3.46,9,2.18-1.25,1.12,1.11,1.16-1,2,1Zm-91,.43v2.43h6.38V134Zm94.93.5a1.16,1.16,0,1,0,1.15,1.16h0a1.14,1.14,0,0,0-1.08-1.15Zm-7.82.13a1.16,1.16,0,1,0,1.15,1.16h0a1.14,1.14,0,0,0-1.08-1.15Zm-27,.43a1.15,1.15,0,0,0-1,1.26,1.16,1.16,0,1,0,1.26-1.26Zm84.11.93v2.55h6.48V136Zm-84.25,1.44-1,1.49L88,138.18l3,9.14,3.77-9.53L92.55,139Zm-59.92.66v2.42h6.35V138.1Zm144.17,2.17v2.53h6.48v-2.53ZM31.24,142.38v2.43h6.35v-2.43Zm90.93.46a1.16,1.16,0,1,0,1.15,1.16,1.16,1.16,0,0,0-1.15-1.16Zm-34.6,1.21a1.16,1.16,0,1,0,1.15,1.16,1.15,1.15,0,0,0-1.15-1.16Zm7.37.22a1.16,1.16,0,1,0,1.16,1.16,1.16,1.16,0,0,0-1.16-1.16Zm80.47.16v2.31h6.48v-2.28Zm-53.25,1.06L120.78,147l-2-.57,4.47,8.42,2.27-9-2,1.26Zm-90.92.86v2.75h6.35v-2.75Zm60,1.24A1.17,1.17,0,0,0,90,148.76a1.16,1.16,0,1,0,2.32,0v0a1.15,1.15,0,0,0-1.16-1.15Zm-.07,2.4c-.49.36-.7,1-1.22,1.3l-2.1-.91,1.26,11.45L94.91,151l-2.67.46Zm-59.89.38v2.87h6.35v-2.87Zm95.43,1.38a1.16,1.16,0,0,0-1.17,1.16,1.16,1.16,0,1,0,2.32,0v0a1.16,1.16,0,0,0-1.15-1.16Zm-7.47.13a1.17,1.17,0,1,0,1.16,1.17h0a1.15,1.15,0,0,0-1.09-1.22h-.07Zm-88,2.7v2.86h6.35v-2.86Zm92.13.63a1.17,1.17,0,1,0,1.15,1.18h0a1.16,1.16,0,0,0-1.11-1.22h0Zm16.29.1c6.17.2,7.08,2.2,7.12,9.11,0,5.53-1.6,7.69-5.59,8.75a26.82,26.82,0,0,1-8.43-.47c0-.47-.79-1.57-1-2.41a22.92,22.92,0,0,1,4,.29c1.91.18,2.39-.13,1.8-.51-3.6-.85-6-.62-9.47-1.28a5.25,5.25,0,0,0-.89-2.25c.19-.07,5.31.48,8,.4,1.2,0,.48-.62,0-.72-3.14-.47-5.2-.39-8.52-.82a3.21,3.21,0,0,0-.89-2.29H131c1.82,0,3.42.1,4.21.07,1.35,0,1.23-.63.06-.72-1.42-.16-7-.19-7-.19a4.9,4.9,0,0,0,.74-2.74h2.36c4.49-.17,5.26-.09,5.34-.26.59-.54-1-.76-2.66-.75-.71,0-1.74.16-1.74-.24a4.2,4.2,0,0,0-.37-1.85,18.57,18.57,0,0,1,7.74-1.15Zm-53.32,1.37a1.16,1.16,0,1,0,1.16,1.16,1.15,1.15,0,0,0-1.16-1.16Zm44.08.24c.76,0,1,1.38.29,1.6-1.09.33-1.7.07-1.66-.59a2,2,0,0,1,1.41-1Zm-36.54,1.2A1.16,1.16,0,1,0,95,159.28a1.16,1.16,0,0,0-1.15-1.16Zm32.86,1.3c2.61,0,1.26,3.56-.75,2.27-.94-.64-.26-2.26.79-2.27Zm-41.29,2.86c-.06,0-.08.05-.08.18l.6,10.89,6.32-10.17-2.5.94-1.07-1.65-1.34,1.07c-.55.44-1.61-1.23-1.89-1.26Zm38.87,1.12c1.17.16,2,1.34,1.14,1.91-1.79.82-2.77-1.83-1.11-1.91Zm-2.77,2.35a1.18,1.18,0,1,0,1.15,1.19h0a1.17,1.17,0,0,0-1.14-1.18Zm4.43,1a1,1,0,0,1,1,1,1,1,0,0,1-.56.95,1.43,1.43,0,0,1-1.11,0C124.19,167.76,124.79,166.87,126,166.76Zm-43.2,1.79a1.15,1.15,0,0,0-1.16,1.17,1.16,1.16,0,1,0,1.2-1.15h0ZM170.92,170l-4.28,1.45v2c1.86-.6,3-2.12,4.28-3.48Zm-40.07,1c.73.32.94,1.33.29,1.67a2.37,2.37,0,0,1-2.19-.22C128.09,171.07,129.94,170.67,130.85,171Zm-40.32.4a1.17,1.17,0,1,0,1.15,1.18h0a1.16,1.16,0,0,0-1.14-1.17Zm-4.73,2a1,1,0,1,0,1,1,1,1,0,0,0-1-1Zm48,1.73a1.18,1.18,0,0,0-1.17,1.16,1.17,1.17,0,1,0,2.33,0v0a1.16,1.16,0,0,0-1.16-1.15Zm-51.68.06v10.29l6.8-8.42-2.36.52-1-2.09-1.45,1Zm43.17,2.37a1.17,1.17,0,1,0,1.16,1.17h0a1.17,1.17,0,0,0-1.16-1.15h0Zm34,0-1.11,1.92,3.17-1.77Zm-29.43,1.37a1.16,1.16,0,0,0,0,2.32A1.15,1.15,0,0,0,131,180.1a1.17,1.17,0,0,0-1.17-1.11Zm3.89,1.25-1.37,2-1.82-.6-.54,1.9-2.18-.08,7.09,6.22ZM78.5,181a1.18,1.18,0,1,0,1.15,1.19h0A1.16,1.16,0,0,0,78.5,181Zm106.28,1.68.58,85.23-40.3.09-16.6-22.84a30.76,30.76,0,0,1,1.41-12.53c1.63,1.13,5.19.51,5.07-3.89-.08-2.87-4.48-4.34-6.67-2.18.1-2.78,1.23-7,2.83-8.18,1.12,1,1.36,2.51,3.87,2.09a3.42,3.42,0,0,0,2.58-4.08,3.5,3.5,0,0,0-.17-.55,6.17,6.17,0,0,1-.3-1.8,11.07,11.07,0,0,0-.05-1.82c-.12-.64-.17-1.32-.17-1.32a121.59,121.59,0,0,0,47.92-28.17Zm-98.2,1.51a1.16,1.16,0,0,0-1.17,1.16,1.16,1.16,0,1,0,2.32,0h0A1.16,1.16,0,0,0,86.58,184.17Zm-5.44,1.14A1.16,1.16,0,0,0,80,186.47a1.16,1.16,0,1,0,2.32,0v0A1.16,1.16,0,0,0,81.14,185.31Zm57.09.56a1.17,1.17,0,1,0,1.15,1.18v0a1.15,1.15,0,0,0-1.15-1.16ZM77,187.11l-1.8,10.83,7.85-8.1H80.92L80.49,188l-2,.65Zm53.41,2.31a1.16,1.16,0,1,0,1.15,1.16,1.15,1.15,0,0,0-1.15-1.16Zm5.09,1.26a1.17,1.17,0,0,0,0,2.34,1.16,1.16,0,0,0,1.17-1.16v0a1.15,1.15,0,0,0-1.15-1.16Zm-63.39,1.41a1.18,1.18,0,0,0-1.18,1.16,1.17,1.17,0,1,0,2.33,0h0a1.17,1.17,0,0,0-1.14-1.17Zm68,.88-1.89,1.44-1.73-1.07-.4,2.3-1.47.78,6.18,4.38Zm4.56,3.1a1.17,1.17,0,1,0,1.15,1.16,1.16,1.16,0,0,0-1.15-1.16Zm-65.27.39a1.17,1.17,0,1,0,1.15,1.17,1.16,1.16,0,0,0-1.15-1.17ZM74.27,198a1.16,1.16,0,1,0,1.15,1.16h0A1.15,1.15,0,0,0,74.29,198Zm67.42,3.07a1.16,1.16,0,1,0,1.15,1.16,1.16,1.16,0,0,0-1.15-1.16Zm-4.84,1a1.17,1.17,0,1,0,1.15,1.18v0a1.15,1.15,0,0,0-1.13-1.12ZM92.2,203.78h0a2,2,0,0,1,.17,1.74c-.18-.09-1-.86-.8-1.13.1-.12.5-.62.61-.62ZM66,205.58a8.86,8.86,0,0,1,1.36.16,6.62,6.62,0,0,1-.56,1.62,14.43,14.43,0,0,0-.21,11.26c2.4,5.15,9.18,17.35,8.67,18.46l-15,.06.07-2.29c4.21-.17,4.87-2.76,3.82-4.9a3.64,3.64,0,0,0-4.64-1.57c-2.69,1.14-2.86,2.48-3.82,4.55l-.43-.54a4.72,4.72,0,0,0,1-3.32c-.06-1.17-.1-.84.31-1.48,2.34-2.54.81-5.84.81-5.84-.28-2,7-15,8.58-16.17Zm-34.24.33c4.26,3.42,7.94,14.93,7.72,15.1-.2-.16-3.43,3.7,0,7.29a6.8,6.8,0,0,0,.46,3.28c-1.54,3.22-1.81,3.46-2,6.1h-1.7c-7,0-7.38,9-.33,9.51,1,.07,1.3-.15,1.87.43S39,249.1,40,248.71a2,2,0,0,1,1,.61,3,3,0,0,0,3.07,1.33,5.84,5.84,0,0,1,1.53.39,2.67,2.67,0,0,0,2.53.49,1.57,1.57,0,0,1,1.13,0,2.61,2.61,0,0,0,2.44-.11c.94-.5,1.15.29,1.11,1A3.22,3.22,0,0,0,55,256.27c3.39,1.06,5.11-1,5.83-5.21.18-.91.34-2,.34-2l11.34.29-16.29,19-27.64.46-.15-62.89a25,25,0,0,1,3.35,0Zm102,3.39c2.07.81,2.24,2.28.17,1.64-3.34-1-6.94,1-7.69,4a3.74,3.74,0,0,1-.38,1.06c-.46.57-.44.05-.3-1.59a5.73,5.73,0,0,1,5.43-5.64,9.21,9.21,0,0,1,2.8.49Zm-1,2.25a3.75,3.75,0,0,1,2.47.85c.78.87.55,1.44,0,1.41-2.81-1.19-6.37.25-7.77,3.81-.85,2.19-1,1-.62-.67.69-3.07,3-5.35,6-5.4Zm-19.49.84a4.7,4.7,0,0,0-3,.81c-1.12,1.08-.19,1.1,1.85.39a7.39,7.39,0,0,1,4.11.24c1,.35,1.38.5,1.33.18-.1-1-2.32-1.63-4.35-1.62ZM136.13,216c.51,1.19.18,3.29-1.63,3.5-2.12.25-3.22-3.34.66-2.71-.5-1.44-2.24-1-3.1-.68-1.75.77-3,2.51-4,5.69-.32.95-.55,1.44-.67,1.35a6.56,6.56,0,0,1,.17-3.4c.84-3.18,2.9-5.11,5.08-5.17,1.41-.22,3.06.39,3.51,1.42Zm-30.41-1.38c-.18,0,.14.71.66,1.75a5.78,5.78,0,0,1,.49,1.47c0,.56.42.7,1,.34s.85-.74,1.88-.27a2.86,2.86,0,0,0,2.82.32c.49-.29.81-.28,1.74,0,1.11.3,1.26.34,2.08,0a2.82,2.82,0,0,1,2.59.16c.26.29.11-.11.69-1.46.27-.62.65-1.38.55-1.59s-1.12,0-2.17.31a3.94,3.94,0,0,1-2.2-.21,6.68,6.68,0,0,0-5.19.23c-.81.38-2.83-.15-4.87-1a.13.13,0,0,0-.12,0Zm4.53,6.21a2.69,2.69,0,0,0-2.41,1.55c-.5,1.25.36,3.52,1.65,3.71s1.11-.54.53-.73c-.88-.29-1.91-1.56-1.25-2.66.47-.76,1.86-.75,2.82.18,2,1.88,4.18,2,4.61.37.12-.65-.37-1.52-1.14-1.28a4,4,0,0,1-3.08-.54,3.14,3.14,0,0,0-1.74-.62Zm20.57,6c5-.3,2.84,6.55,0,4.79-1-.62-.58-2.94,2.15-2.9-2.68-2.09-4.5.47-3.84,3.34-.61.93-.77,2.71-1.16,3.72-.61,1.15-1.08-1.86-.47-4.78s1.59-4,3.35-4.17Zm-28.12.24c-1,0,0,1.12.19,1.25,3.09,2.46,4.61,4,2.12,3.17-4.05-1-5.09.18-8.18,1.55-.57.27-.72.1-1.4-.1-2.71-.81-2.51.91.32,2.45,4.27,2.33,7.8,2.86,11.12,1.11,2.13-1.12,2.24-.39.25.85-3.39,2-6.94,1.7-12.45-1.75-1.78-1.11-2-.37-.21.8,4.14,2.53,9.73,4.81,14.28,1.09.89-.8,1.07-1.22,1.77-.87,1.81.91,1.22-.68,0-2.18-.44-.54-.77-1-.74-1.33.1-1.3-.61-1.3-1.27-1.27s-.69-.22-1.64-1.28c-1.43-1.58-3.14-3.24-4.17-3.51ZM61.33,234c-1.73.14-2.12.22-1.7,3.77.08.67.38,2.67.46,3.42,1,9.31.18,13.43-2.39,14.57a3.13,3.13,0,0,1-2.51,0c-1.63-.65-2.3-2.64-1.12-5a13.63,13.63,0,0,0,.86-2.19c.15-.57.5-1.82.77-2.78a26.36,26.36,0,0,0,.61-9.28c-.25-2.31-.19-2.5.37-4,1.25-2.3,2.07-3.48,4.7-3.51,3,.32,3.76,4.81,0,5.09Zm63.26-.2h-.81c-1-3.26-3-2.2-3.33.08h-.68c.12-4.34,5.51-3.16,4.82-.11ZM49,231.36c5.49.55,6.49,1.92,7,8.61,0,3.24-.18,5.2-.67,5.94-.82.4-1.62-.35-2.79.4-.64.4-.51.44-.79,0s0-2.12.46-3.49-.28-2-2.11-3.72a6.56,6.56,0,0,1-1.36-2c-.94-2.55-1.43-1.43-.63.78.38,1,.47,1.42-.71,1a2.22,2.22,0,0,0-1.85.33c-1.5.39-2.8-.44-1.49-.94a11.54,11.54,0,0,1,2.66-.74c.32,0,.47-.08.47-.23,0-.64-2.9-.57-5.12.2-2.73,1.27-2.88,1-2.63-.92.61-5,5.21-5.58,9.6-5.24Zm53.75.44a2.6,2.6,0,0,1,2.44,2.77.92.92,0,0,1,0,.16h-.67c-.31-2.59-2.75-2.7-3.39.2h-1c.6-2.24,1.62-3.07,2.59-3.11Zm16.37,0c.56.33.17,1.23-.42,1.41-.22,0-.94-.44-.76-.75A2.44,2.44,0,0,1,119.09,231.8Zm6.3.44a.89.89,0,0,1,1,.72c0,.77-.57.61-.75.54-.38-.36-.53-1.23-.21-1.26Zm-19.27.61c1,.12,1.41,1.43.24,1.51-.58.14-.6-1.17-.29-1.48Zm-6.26.14c.12,0-.07,1.08-.33,1.23-.51.31-1.16,0-1.13-.35,0-.74.93-.85,1.41-.85Zm18,2.6c2,.75,4.52,1.48,7,.64.89-.34,1.58-.73,1.58-.36s-.69,1-2,1.34c-2.59.73-4.45.45-6.23-.89C117.64,235.94,117.47,235.59,117.83,235.59Zm-.81,1.12c3.19,1.87,6,2.06,8.65.69,1-.36,1.08,0,1.08.65C122.08,242.18,116.26,237.89,117,236.71Zm-78.14,2.85c-.78,1.6-1.21,5.57-2.5,6.74-8.84-.49-3.18-12.18,2.45-6.71Zm54.51-1.31c-.5.26-.06,1.52.72,1.86,6.73,2.92,10.18,3.26,14,1.92a3.82,3.82,0,0,0,2.53-2.49c.09-.76-.94-.83-2.72,0-5.46,2.15-8.94.47-13.28-1.2a2,2,0,0,0-1.26-.06Zm-25.76.09v9.89l-6.4-.11.07-1.46,4.79.14-.14-7-5.57-.05V238.4h7.21Zm1.49,0h6.3l.32,1H69.07v-1Zm-25.81,3.13a1.17,1.17,0,0,1-1.45.16c-.67-.69,0-1.95,1.08-1.95S44.12,240.74,43.31,241.47Zm3-1.6c1,0,1.29.91.54,1.64-.49.46-.74.49-1.2.15a1.07,1.07,0,0,1,.14-1.5,1,1,0,0,1,.46-.23Zm-6.3.24a.63.63,0,0,1,.63.27c.59,1.21-1.34,2.05-1.74,1.15C38.59,240.8,39.33,240.13,40,240.11Zm36.14.13.36,1.27H69.13v-1.27Zm-26.38.37c1.1.13.94,1.24.43,1.74-.88.82-1.73.55-1.51-.55a1.34,1.34,0,0,1,1.08-1.19Zm-6,3.64c-.39,1.4.43,4.22.19,4.51-.54.64-1.4.31-1.79.1-1.33-.87-1.41-5.92-.13-6.23.83.42,1.39-.33,1.77-.43s.13.57,0,2.05Zm19.46-2.07A1.33,1.33,0,1,1,62,243.52v0a1.34,1.34,0,0,1,1.29-1.26Zm5.83.17h7.53a1.5,1.5,0,0,1,.28,1.5H69.07v-1.51ZM47,242.52c.34,0,.52.74.28,1.59a10,10,0,0,0-.1,4.52c.19.63.38,1.05.27,1.23-.4.62-1.59.2-2.09-.62-1.24-2.31-1-6.64.43-6.3C46.31,243.22,46.63,242.78,47,242.52Zm-6.65.58c-.35.59-.1,3.89-.14,4.16s-1,.16-1.49-.07c-1.28-.61-.93-2.14-.68-3.39.28-1,.89-1.05,1.65-1.14.42,0,1,0,.67.44Zm10.26.18c.4,0,.46.29.36,1.51a10.84,10.84,0,0,0,0,2.67c.33,1.91.37,2.43-.11,2.8a1.48,1.48,0,0,1-1.91-.21c-1.21-1-1.29-5.72-.34-6.13.88.23,1.44-.48,2-.64Zm26,1.52-1.08,1.51H69.07V244.8Zm-22.91,2c1,0,.84,1.8.3,2.92-.46.68-.79.75-1.48.11s.15-3,1.18-3Zm21,.5-.91.84h-4.7v-.83Z" transform="translate(-0.79 0.09)"/>
    <path class="c" d="M190.87,284.37v-3h3l6.36-9.83-6.85-15.28h-2.51V253h9.68v3.23h-3.12l4.79,11.93,3.49-4.62v-7.31h-2.56V253h8.66v3.23h-3v25.11h3v3h-8.66v-3h2.45V269.82l-8.07,11.59h3.06v3Zm-42.35-23c-7.11-2.6-10-11.54-6-20.38,5.41-11.83,13.48-19.43,18.86-30.6-.06,0,10.55,15.72,14.79,21.55,9.09,13.23,8.63,24.11-.17,28.41-6.33,3.09-12.82-.46-13.56-7.13-.12-1-.19-1.18-.67-1.18s-.63.37-.76,1.91c-.51,5.93-6.89,9.46-12.51,7.42Zm43.8-23c2.76-6.54,6-10,9.34-17,2.71,5.36,7.73,11.16,9.42,16.58,1.26,4.19.27,7.61-2.44,8.62-3.15,1.18-5.51-.15-6.14-3.14-.26-1.19-.85-1.08-.88-.18-.11,2.94-3.46,4.21-6.13,3.44-1.54-.44-4.28-3.61-3.17-8.34ZM43.16,211.62l-7.8-6.17c9.28-.21,18.57,0,27.85.17l-9.27,6.66c-1.89-2.09-3-4.9-5.72-6.26-2,.84-3.37,3.72-5.06,5.6Zm68.49-2.15a1,1,0,0,1-.38-.1c-.22-.13-.35-.43-.5-1.43-2.33-10.9-13.72-10.12-13.64-9.8-.09-.43,14.15-13.39,22.53-23.57,2.53,7.78,10.2,25.54,9.93,25.48,0,0-2.23,0-7.94-.13-5.24,2.38-8.94,4.7-8.71,8.06,0,1.19-.32,1.68-.7,1.58l-.51-.09Zm25.58-35.08c7.41-.11,8.81-3.76,9.66-4.2,4.86-.81,7.87,2.39,10,5.8,2.73,1.65,2.38.13,3-2.45l6.79-2v2.22a33.6,33.6,0,0,0-5.2,4l-2.07-.12-1.18,1.59c-4.74,2.54-9.34,5.64-14.3,7.62,0,0-6-7.76-6.64-12.46Zm-92.31.69L44.84,132c3.07-.22,8.71-.19,8.71-.19,2.37-4.2,5.58-6.17,8.94-8.61a144.33,144.33,0,0,1,.53,15.7c-8.78,10.8-13.65,24.1-8.24,44l-3.25-.36Zm48.54,2.41A151.25,151.25,0,0,0,98.71,150l16.71-.25.34,5.78Zm56.93-19.62-.33-16.13C162.26,127,163,114.23,158.46,98c4,.94,6.1,4.1,9.93,8.48v42c-2.67.4-9.28.79-9.28.79-.19,2-5.78,6.7-8.74,8.56ZM98.72,132.46l-.75-7.1,21.73-20.92c-1.79,9.06-4,18.37-4.6,28Zm-36.07-22.2c-1.55,1-7.27-5-8.2-9,1.43-2,14-8.16,14-8.16s7.35,9.51,7.05,13.48c-3.27.88-6.09,1.13-8.58,3.81-1.42.12-1.91-1.48-4.28-.14Zm-9.93-8c1.75.29.63,2.68.36,4.42l-9.25,2.76c3.19-2.77,5.45-5.1,8.9-7.22Zm30.11-21c1.89,0,3.88.74,5.34.14A5.4,5.4,0,0,1,91,81.06c2.76.86,3.74-2.2,5.49-2.22,2.29,0,3.55-1.6,3.57-4.82,0-1.39.12-1.54.37-1.68a1.18,1.18,0,0,1,1.6.53,1.33,1.33,0,0,1,.12.4c1.63,5.92,5.76,11.25,12.27,10.83-5.17,5.27-20.94,21.62-20.94,21.62A159.35,159.35,0,0,0,82.84,81.18Zm67.07-5.1,9.5-7,5.69,7,5-6.64c2.89,2.09,9.46,6.74,9.46,6.74s-19.7.29-29.56-.12Zm-99-3.61c2,1.43-19-24.31-21.46-33.41-1.81-5.36-.44-11.9,3.52-14.71,6.7-4.76,14.57-2.86,16.07,5.15.42,2.27,1.12,2,1.37,0,.89-10.2,13.32-10.9,18.1-3.82,3.28,4.86,3.3,12.6-1.44,20.36C65.88,48.56,50.77,71.83,50.87,72.53ZM10.71,62.69c-2.8-5.54-6.94-11.13-9.22-16.3C-.16,42.17,1.25,37.78,4.34,37s5.28.47,5.86,3.36c.2,1,.58,1,.77.15,1.15-5.46,8.78-4.28,9.3,1.43.33,3.64-.6,6-5.06,12.92C14.14,57.1,11.23,60.33,10.71,62.69Zm1.49-35h3.18L10.71,16.13,7.15,21.06v6.67h2.5v3.43H.86V27.73h2.9V2.91H.86v-3H9.79V3H7.33l0,12.1,7.81-12.2H12.33v-3h9.49v3H19.35l-6.46,10,6.29,14.84H22v3.43H12.23Z" transform="translate(-0.79 0.09)"/>
    <path d="M155.3,13.08,68,13.64l17,22.85c18-3.7,33.75-1.3,50,1.57Zm-2.23,1.16-5.81,7.27c-1.6-1.46-5.2-.94-4.69,2.28-4.45-2.34-5.4,4.07-1.62,3.81-.47,1.26-4.29,1.59-5.37-.69-3.91,2.21-5.11.06-6.15-1.33,5,3.41,7.4-3.61,1.92-4,2.16-4.39-5.53-6.39-5.08-.67-5.06-1.16-3.9,6-.18,4.56-2.42,3.67-6.38,1.21-7.18.49-2,1.54-5.9,1.59-7-.87,5.64,1.14,5-6.35,0-4.63,2.67-5.74-6.22-5-4.06-.26-5.05-.2-4,6.09.5,5-4,3.75-6.94.26-7.52.18-2.33,2.6-6.43,1.18-6.95-.36,4,1.6,5.34-5.22.27-4.81,1.3-4.38-6-4.91-4.39.07-4-.92-4.24,5.58.27,4.57.23,1.82-3.32,3.49-5.51,1.82-1.6.88-3.34,2.25-5.43.22,3.17-.51,3.7-5.92-1.43-4.76.25-3.31-1.63-3.49-4-2.65L70,14.38ZM92.83,22.37c-.27.62-.74,1-.63,1.52a5.8,5.8,0,0,0,1,1.65c4.38,5.74,13.23,5.54,15.88-.37.55-1.1.44-1.35-.22-2.29a1.39,1.39,0,0,1,.22-1.94,1.37,1.37,0,0,1,1.92.22,1.38,1.38,0,0,1-.07,1.81c-1.51,1.92,2.64,6.25,6.76,6.93,5.31.87,10.33-2.89,9.63-6.25a3.09,3.09,0,0,0-.18-.59c-.56-2.82,3.88-1.47,2.28.33-.6.66-.93.85-.85,1.57,1.29,6,8.49,6.58,11.91,4.75-4.41,7.26-11.42,1.66-12.65-3.42-6.21,9-13.67,7.16-17.87-.78.49.5-8.19,14.24-18,.15C87.74,37,80.14,29.33,80.65,28.87c3.5,2,9.84,1.25,10.45-4.82.08-.75-.47-.8-.8-1.39-1.66-3,3.67-3,2.44-.29Zm-16.42.75c.8.07.93.41.8,1.22Zm67.77,2.14L143,26.67c-.28-.67-.29-1.32,1.14-1.41Zm12.44.48c-2.72.12-4.81,3.9-4.67,8.94.07,2.44.49,8.59.65,9.5.24,1.28,0,3-.46,3.19-1.17.48-1.62.79-1.94,1.36-.82,1.47-.14,3.13,1.6,3.87,1.24.53,2.82-.2,3.88-1.8.6-.89.74-1.29,1.25-3.52a12,12,0,0,0-.05-4.31c-.62-3.57-.17-8,1.05-10.09,2.19-3.74,2.15-6.18-.11-7a3,3,0,0,0-1.2-.14Zm-.14.57c3.16,0,3.08,3.19,1.32,4.16a2.31,2.31,0,0,1-2.34-.17c-.93-.54-.8.08.16.79,1.14.83,1.62.78,1,2.72a23.73,23.73,0,0,0-.55,8c.85,6.09.13,9.12-2.41,10.18a2.27,2.27,0,0,1-3-1.22h0c-.54-1.58.43-3,2.82-2.57,0,0,.17-.5-.45-5.78-.86-7.36-.53-12.49.81-14.29a3.71,3.71,0,0,1,2.6-1.77Zm21.44,7.58a4.63,4.63,0,0,0-2.34.67s-.09,3.3-.19,3.8c-.53,2.81-.37,3.14.92,3.54,3.14,1,5.71-1.14,5.6-4.44a3.91,3.91,0,0,0-4-3.57Zm.43.44c1.72,0,3.28,2,3.11,3.87a3.42,3.42,0,0,1-3.63,3.21,3.72,3.72,0,0,1-.57-.08c-.58-.09-1.16-.2-1.35-.63-.39-.6.24-.82,1.54-.82s1.7-.19,2.17-1c.93-1.6-.27-3.62-1.79-3.24-.53.13-.61.36,0,.54,1.87.85,1.18,2,.52,2.52s-2-.21-2.27-.69l.13-3.08a3.24,3.24,0,0,1,2.13-.6ZM159,48.68a5.6,5.6,0,0,0-1.07.66,2.56,2.56,0,0,0-.54,2.83c.16.46.14.54-.44,1.3-1.65,2.16-1.85,3.24-1,5.18.38.89.38.89,0,2a46.19,46.19,0,0,1-7.86,14.62,4.1,4.1,0,0,0-.72,1.23,4,4,0,0,0,1.19-.25c3.38-1.69,6.95-5,10.25-7.12C153.6,73.42,148,77.25,148,77.25l7.11.38c-1.78,1.85-33,28.52-24.72,76.36,9.75-2.44,14.28-6.5,19.48-11.18,0,3.85.13,14.23.17,14.23.1-.17-4.51-1.75-3.41,2.07.64,2.1,1,7.41-.18,10.41,0,.13.5.33.45.45s-.75.13-.75.13c-1.76,3.33-6.32,4.06-8.57,4-.83-.08-.5,1.06-.39,1.48.43,1.71,2.38,5.38,6,11.28l1,.12-.56.52a27.51,27.51,0,0,0,1.59,2.29l.05.5s2,2.82,3.09,4.14c.06.09.23-.13.31,0,.6.73,1.31,1.54,1.92,2.26,0,0-.09.26,0,.31,1.15,1.27,3.39,3.81,3.39,3.81l.45-.11,1.77,2c14.67-6.73,30-21.61,29.84-21.58l.13-32H168.86l-.14-42.53,17.35,17.29-.11-5C182,115.08,166.21,99,166.21,99a19.63,19.63,0,0,0,6.69-2.26,19.58,19.58,0,0,0,12.43,2.73V94.76a15.27,15.27,0,0,1-10.85-3.87l-3.25-.11c-5.95,4.58-10.21,2.46-14.77,1.55l-3.14-4.56,32.23-.17-.23-11.09-4.89.11-3.18-2.36,3.68,1.57a4.72,4.72,0,0,0-.79-1.77,74.81,74.81,0,0,1-6-12.29c-.73-2.14-.73-2.05-.12-3.3a4.5,4.5,0,0,0-.44-5c-.8-.82-.77-1-.51-1.61a2.18,2.18,0,0,0-.86-2.94,2.08,2.08,0,0,0-.63-.23c-5.4,2.09-12.63-.07-12.5-.13Zm12.55.88c1.07,0,1.19.47,1.19,1.28-.1,1.48-2,2-2.88,2.22-4.13,1-11.35.39-11.83-1.55-.33-1.43.55-2.23,3.49-1.52,4.72,1,7.65-.12,10-.48ZM158.2,53.68a1.33,1.33,0,0,1,1.09,1.16,4.56,4.56,0,0,1-1,2.85c-1.31,1-2.5-.57-1.62-2.32C157.14,54.36,157.63,53.68,158.2,53.68Zm14.13.2a1.78,1.78,0,0,1,.78.21c1,.75,1.14,3.33.16,3.7s-1.92-.67-1.91-2.3c0-1.05.34-1.66,1-1.65Zm-3.31.54a1.42,1.42,0,0,1,.67.14c.87.4,1.29,3.11.42,4a1.5,1.5,0,0,1-2.13,0,1.54,1.54,0,0,1-.39-.72c-.49-1.74.28-3.39,1.43-3.44Zm-7.34.07c1.27,0,1.55,2.87.31,4-1,1-2.63,0-2.13-1.93.25-1,.82-2,1.82-2.11Zm3.62.46c1.86.33,1.7,4.92-.74,4.46-1.39-1-1.36-4.43.74-4.5Zm-8.15,4.93,2.63.24s-3.4,7.43-6.52,10.27c-1.16,1.2-1.84,1.25-1,0,2-2.5,4.88-10.55,4.88-10.55Zm15.78,0a129.74,129.74,0,0,0,5.21,12.56c-3.18-3.11-6-7.87-8.61-12.34Zm-12.38.4h1.75a13.19,13.19,0,0,0,2.76,5.85,26.47,26.47,0,0,0,2.29-5.69h1.39c.53.32-1.62,8.39-3.74,9.37-2.24-1.84-4.13-6.79-4.45-9.53Zm-.76,1.91c-.15.19,2.71,7.1,5.12,9.33a19,19,0,0,0,4.71-8.66l7.48,10.59-7.29-5a37,37,0,0,1-4.87,6.71,90.81,90.81,0,0,1-5.56-7.24c-2.81,2.1-4.78,4.36-8.43,6.32C151,74.28,158.13,66.42,159.79,62.19Zm-.69,7.52L164.18,76l-13.52-.19Zm11,.1,8.56,5.94-12.75.14ZM102,72.7a4.44,4.44,0,0,0,.16.6c1.51,6.24,5.7,11.43,12,10.81L93.46,105A121.56,121.56,0,0,0,83.1,81.33l2.26.46a5.35,5.35,0,0,0,2.32-.09c.53-.08.93-.43,1.41-.53a4.76,4.76,0,0,1,2.33.31c1.42.27,2.39-.53,4.17-2.12.48-.42.66-.32,1.25-.31,2.23,0,3.66-1.93,3.41-4.92l-.11-1.33-.29,1.5c-.53,2.81-.91,4-3.67,4.15-.67,0-.93.48-2,1.4-1.49,1.28-2.54,1.39-3.58.89s-1.18-.21-2.2.27a6.4,6.4,0,0,1-4.36.06c-2.13-.62-1.87-.41-1.87-.41,12.31,22.08,16.64,43.26,16.36,62a121.08,121.08,0,0,1-17.87,61.48s1.4-.14,2.64-.33a2.58,2.58,0,0,1,1.66.21,3,3,0,0,0,1.52.12,10.83,10.83,0,0,1,2.13.11c1.51.21,1.61,0,3.26-1.6,4.68-4.58,4.38-4.41,7.77-4.3,5.08.17,9.15,3.55,10.85,9,.22.7.49,1.67.53,1.67l-.32-1.45c-1.49-7.35-7.74-10-12.91-9.94l22-22.23c-.11,0,5.09,16.91,9.63,24.44a8.59,8.59,0,0,0-3.9-.27,13.75,13.75,0,0,1-3.79-.16c-1.11,0-1.78.31-3.16,1.46a7.21,7.21,0,0,1-2.23,1.51c-2.67,1.14-3.74,2.32-3.75,5.27,0,.54-.08,1.23-.08,1.49v.2a1.43,1.43,0,0,0,.16-.19,5.24,5.24,0,0,0,.62-2c.36-2.21.82-3,2.9-4a18.2,18.2,0,0,0,2.52-1.56c1.91-1.54,2.55-1.89,4.11-1.52a7.64,7.64,0,0,0,2.82.17,5.27,5.27,0,0,1,3,.14c1,.27,2.3.53,2.3.53-21.31-43.14-20.61-83.13.42-123.7,0,0-6.22.07-6.49.24a6.35,6.35,0,0,1-1.68-.16c-1.69-.31-1.33-.1-5.33,4-5,5-12.84,1-15.22-7.39a3.54,3.54,0,0,0-.42-1,2,2,0,0,0-.22-.27Zm20.14,5c.92.1,1.6.34,1.49,1.2l-29.35,29-.46-1.86Zm6.2.18c-.37.71-1.34,1.61-1.78,2.29l1.6,2-.89,1.62-2.45-2.09-4.67,4.64,3.91,4.37-3.69,3.75-1.23-1.4,2-2.06-3-2.85-5.33,5.22,4.35,4.45-3.19,3.08-1.33-1.19,1.68-1.86-2.84-3-5,5.11,4,4.42-3,3L106.05,106l1.46-1.53-2.81-3-5.06,5,4.11,4.49-3,2.72-1.15-1,1.46-1.58-2.76-3L95.18,111l-.52-2,31.07-31.12Zm1.78.46L128.81,81l-1-1.12,1.32-1.36Zm-73.29.17c-.8.19-19.31,10.59-29.84,22v4.26l-.38.51.18,6.57.26.35.09,2.68-.42.71V123l.56.09.09,9,17.31.05v43s-10.22-11.29-17.54-17.93v5L46.5,182.38a14.8,14.8,0,0,0-5.68,2,21.44,21.44,0,0,0-13.54-2.75v5.13a19.11,19.11,0,0,1,13.63,3.48c4-2.73,8.81-4.38,16-2.22a48.4,48.4,0,0,0,4.73,6.81l-34.27.26v10.38h5.32c1.93,3.81,5.72,9,7.29,15.55-2.16,2.61-2,4.71.11,7.35,0,1.19-.37,2.5,1,3.83,4.36-2.15,9.29-1.2,12.9-.1,1.24.37,1.71-1,1.67-2.85-.11-1-.11-1.47.67-2.16,1.87-1.63.71-5,.42-5-.11-2.93,9.22-17.64,9.23-17.37l-1.86.68h-8c21-20.4,29.78-43.67,27.92-69.93a42,42,0,0,0-1.43-9.66c-7.39,3.31-13.46,5.71-19.37,12.09l-.39-13.69a3,3,0,0,0,3.5.41c.67-.44.74-.91.12-2.57-.91-2.41-1.11-7.59-.44-9.35a9.12,9.12,0,0,0,.2-1.29c.08-.72-.08-.76-.15-.75.18,0,.89.11,1,0a13.53,13.53,0,0,1,8.55-3.78l.08-1.63C73.28,99,71.19,96.53,69,93a2.58,2.58,0,0,0-1-.13l.51-.54c-3.12-5-7.58-9.56-11.67-13.88h0Zm-.14.85,2.22,2.06c-10.59,5.13-21,12.65-31.31,22.84l.14-3.75a133,133,0,0,1,29-21.18Zm68,3.74L126,84.41l-1.84,2.16,1.2,1.24-.68,1.65-3.06-3.23Zm-66.13.14a1.27,1.27,0,0,1,0,2.54,1.26,1.26,0,0,1-1.26-1.27h0A1.26,1.26,0,0,1,58.55,83.24ZM149.14,85c21.58,24.21,10.5,59.4-18.3,67.86l-.33-2c29.06-9.87,35.88-42.89,17-63.64Zm-86.85.16,1.38,1.6c-12.27,5.95-24.27,14.8-35.89,27.6l-.12-3.23a123.65,123.65,0,0,1,34.67-26Zm-7.94.49a1.28,1.28,0,1,1-1.27,1.28,1.27,1.27,0,0,1,1.31-1.23h0Zm-3.85,2.4a1.27,1.27,0,0,1,1.28,1.27,1.27,1.27,0,1,1-2.54,0v0A1.27,1.27,0,0,1,50.5,88h0Zm12.8.84A1.27,1.27,0,1,1,62,90.16h0a1.26,1.26,0,0,1,1.26-1.27h0Zm54.81.87,1.26,1.35-2,2,2.85,3L123,93.45l-1.37,4L97.44,121.8l-.51-2.55,1.91-1.94-2.92-2.93-.52-2,2.87-2.7,1.2,1.24-1.68,2,2.7,2.68,4.91-4.55-4-4.47,3.33-3.26,1.15,1.14-1.59,1.65,2.81,3.07,5-4.85L108,99.92l3.32-3.3,1.26,1.21-1.67,2,2.85,2.79,5-4.9-4-4.29Zm-71.37.86a1.27,1.27,0,1,1-1.27,1.27h0a1.27,1.27,0,0,1,1.26-1.27h0Zm19.9.25,1,1.6C53,99.93,42.81,107.4,27.87,124.57v-2.16c11.59-14.32,23.62-23.56,38.82-31.54Zm-7.36.19A1.27,1.27,0,1,1,58,92.33h0a1.26,1.26,0,0,1,1.26-1.27h0Zm113.32.48c2.59,2.32,8,4.63,11.51,4.38l.09,2.79c-6.1.58-11.43-3.35-11.43-3.35a17.94,17.94,0,0,1-14.46,2l-1.91-4.14c7.44,3.49,14.37.16,16.29-1.68Zm-29.19.76a4.7,4.7,0,0,0,1.18,1.09c5.7-1.5,7.47,4.41,4.82,7.79l.75,2.48a6.59,6.59,0,0,1,2.63,1,4.79,4.79,0,0,1,2,4.4c.19,1.9-2.64,3.68-2.79,3.54v2.73a10.77,10.77,0,0,1,2.36,2.26,4.29,4.29,0,0,1-1.06,5.94l-.21.14a4.39,4.39,0,0,1-2.66.87l-1.31,3.1a3.65,3.65,0,0,1,1.66,2.57,4.93,4.93,0,0,1-2.34,4.84c-1.9,1-4.51.12-4.51.12l-1.87,1.88a6.33,6.33,0,0,1,.36,3.55c-.63,2.36-3.09,3.29-5.06,3.11a5,5,0,0,1-2.72-1.28l-2.07.8c.06,0,0,2.64-1,3.44a11.63,11.63,0,0,1-1.5,1.11L129.8,146a3.56,3.56,0,0,0,1.17-3.09l4.46-2.2a4.48,4.48,0,0,0,2.06,1.53,3,3,0,0,0,3.48-2.39l0-.2a9.66,9.66,0,0,0-.68-2.3l3.79-4c1.57.54,2.67.64,3.37.23a3.1,3.1,0,0,0,1.43-3.32,4.47,4.47,0,0,0-1.37-2l2.12-5.38a3.85,3.85,0,0,0,2.36-.67,2.93,2.93,0,0,0,.69-4,3.09,3.09,0,0,0-2.08-1.35l.16-5.59s2.13-1,2.36-2.29c.35-1.83-.43-3-2.67-3.52-1.24-.29-1.17,0-1.17,0l-1.78-5.07c2.81-1.73,1.92-4.47.5-5.39s-3.62-.07-3.62-.07-1-1-1.69-1.74Zm-75.1,1a59.41,59.41,0,0,1,6.71,12,5.92,5.92,0,0,1,0,1.19c-5,.44-6.69,2.4-8.45,3.79-1.37-.71-2-1.54-4.44,0,0,.07-6.32-3.85-7.53-9.19a145.45,145.45,0,0,1,13.76-7.78ZM43,93.3a1.27,1.27,0,1,1-1.26,1.27h0a1.26,1.26,0,0,1,1.31-1.21Zm12,.25a1.27,1.27,0,1,1-1.26,1.27h0a1.26,1.26,0,0,1,1.31-1.21Zm86.36,1.56c2.18,2.88,5.46,8.35,6.24,13.18,1.09,6.8.36,13.94-2.73,18.92-5.62,10.66-15.34,12.93-15.35,13.3l-.1-2.19c.1.49,7.44-2.62,12.44-9.67a28,28,0,0,0,4.24-16.92c-.36-7.66-5.76-14.74-5.81-14.77Zm-102.24,1a1.27,1.27,0,1,1-1.26,1.27h0a1.26,1.26,0,0,1,1.29-1.17Zm11.91,0a1.27,1.27,0,1,1-1.26,1.27h0a1.27,1.27,0,0,1,1.33-1.15ZM158.8,98.25c2.81.31,6.23,5.43,9.35,8.35v41.73l-9.31.19c-1.21,2.95-4,5.85-8.51,8.71V141.74c15.28-16.5,11.12-34.56,8.44-43.34Zm-123.08.6a1.27,1.27,0,0,1,0,2.54,1.26,1.26,0,0,1-1.26-1.27h0A1.26,1.26,0,0,1,35.72,98.85Zm11.5.22A1.28,1.28,0,1,1,46,100.36h0A1.28,1.28,0,0,1,47.22,99.07Zm118.22.1,19,19.36-.07,2.84L163,99.35ZM54.21,101l.5,2.44c-.62-1-.64-1.34-1.7-1.51Zm-10.31.72a1.28,1.28,0,1,1-1.23,1.3v0A1.27,1.27,0,0,1,43.9,101.71Zm-11.4.35a1.29,1.29,0,1,1-1.26,1.3h0a1.28,1.28,0,0,1,1.24-1.3h0Zm107.1,0,3.76,2.7-1.22,4.83-3.85-3.48Zm-86.85.4.67.41-.78,3.3L44,109.32A65.1,65.1,0,0,1,52.75,102.46ZM54.17,104a44,44,0,0,0,3.58,9.14c-1.11.58-5.1,2.86-5.09,3.91.57,1.93,4.79,3.69,4.79,3.69A48.41,48.41,0,0,0,53.08,130c-.72-1.24-.81-6.11.75-8.14a20.09,20.09,0,0,1-5.21-3.45c1-3.66,5.4-5.85,5.6-5.88-.08.19-1.3-7.64,0-8.51Zm-14.05.61a1.28,1.28,0,0,1,0,2.56,1.29,1.29,0,0,1-1.28-1.27v0a1.27,1.27,0,0,1,1.25-1.28h0Zm96.36.11c5.62,10.54,2.28,19.7-6.68,26.27l.21-2.49c6.18-4.52,10.19-13.42,5.67-21.9Zm-107,.3a1.27,1.27,0,1,1-1.26,1.27h0A1.27,1.27,0,0,1,29.45,105h0Zm89.84.07a127.07,127.07,0,0,0-4.49,26.77l-16,.14-.63-5.58Zm-63.92.42s3.47,3.25,6.59,6.08l-.38.74-3,.38a60.86,60.86,0,0,1-3.17-7.21Zm-2.87,1.7h0l.2,2.3c-1,0-12.3,4.7-20.93,12.27a26.4,26.4,0,0,1,5.56-6.36c4.48-4.42,15.17-8.22,15.17-8.22Zm-16,.5A1.27,1.27,0,1,1,35.25,109h0A1.27,1.27,0,0,1,36.51,107.72Zm7.09,1.45.64.66-3,1.56Zm20.84.67h.06a1.61,1.61,0,0,1,.93.5,6.57,6.57,0,0,0-1.71-.16,1,1,0,0,1,.69-.32ZM53,110.32l.28,1.73c-6.48,3.7-14.18,7.22-25.38,17.89v-3.55a80.56,80.56,0,0,1,25.07-16Zm8.71.17a2.36,2.36,0,0,0,1.12,0s-.22.47-.5.48-.65-.46-.65-.46Zm2.74.1c.82-.06,1.37.69,1.21,1.66a20.49,20.49,0,0,0,.07,8.92c.53,1.8.66,2.44.22,2.74-3.81,2.65-5.95-9.31-2.72-12.7a2,2,0,0,1,1.19-.6ZM33.32,111A1.28,1.28,0,1,1,32,112.28h0A1.27,1.27,0,0,1,33.29,111Zm109.67.3,2.37,4L142.05,119l-2-4.35ZM61.3,113.47l-.12,1.39a12.39,12.39,0,0,0-4.47,2.35c-.25.22,4,2.13,4.39,1.69v1.48c-.06.48-7-1.72-7.41-3.37.75-1.07,5.1-3.61,7.58-3.52ZM30,114.21a1.27,1.27,0,1,1-1.26,1.27A1.26,1.26,0,0,1,30,114.21Zm18.73,1.51a10,10,0,0,0-1.35,3.54c-4.71,2.89-9.56,5.58-15.44,12.2H28.75l-.07-.84C35.11,124.39,42.09,119.05,48.72,115.72Zm12.17.4v1.74a4.6,4.6,0,0,1-2.52-.76,4.63,4.63,0,0,1,2.49-1Zm35.51.19.89.93-.56.52Zm-47.78,3.6L50.37,121A48.43,48.43,0,0,0,37,131.43H33.53C37.9,126.65,42.67,122.37,48.62,119.91Zm93.21,1.25.35,4.74-4.39,2.42.08-5Zm-83.47,0,3,.33.3,1.29a48.18,48.18,0,0,0-6.84,5.5,26.87,26.87,0,0,1,3.52-7.12Zm-7.24.51,1.29.6-.51,2.23a33.81,33.81,0,0,0-9.8,6.91H38.51a50.55,50.55,0,0,1,12.57-9.68Zm11.23,2.09h0l.46,14.6c-13.06,15.39-12.34,30.3-8.54,43.8l-2.49-.11a87.63,87.63,0,0,0-6.73-7.29V132.25h9c2.11-4.94,7.94-8.46,8.28-8.5Zm-10.61,2,.11,2a25.45,25.45,0,0,0-4.8,3.65H43.66c2.31-2.17,4.62-4.38,8-5.58Zm30.65,1,.49,2.29c-30.26,11-35.73,43.13-17.86,65.15l-1.21,1.36c-20.56-22.17-11.56-58.43,18.56-68.77ZM52,129.05s.16,1.76.21,2.35H48.76a6,6,0,0,1,3.18-2.32Zm85.17.74-2,4.59-5.2.08,2.37-4.59ZM104.21,133h4.73v4.58h-4.73Zm-20.53.46.08,2c-2.11,1.08-1.58,2.8-2.11,2.77a35.74,35.74,0,0,0-4.71,2.16,3,3,0,0,0-3.6-.29c-1.06.69-1.28,2.31-1,3.68L68.72,148c-1.75-.75-3.45-.7-4.3.47-1,1.33-.59,3,1,4.83l-2,5.1c-.23-.31-3.52.67-3.57,2.65s2.66,3.45,2.66,3.61l-.13,5.64c-.13-.27-2.84.84-2.47,3.54.33,2.48,3.69,2.18,3.76,2.39l1.82,5.38c-.12-.16-2.47,2.16-1,4.35,1.2,1.83,4.69.65,4.66.53l1,1.37L69.09,189s-.46-.56-.72-.51c-2,.39-4.29-.08-5.38-1.71-1.48-2.3.17-5.9.7-5.87l-1.25-3.11A4.59,4.59,0,0,1,58.12,174a5.36,5.36,0,0,1,2.72-5.08l.09-3.37c-.18.2-2.9-1.75-2.84-4a5.47,5.47,0,0,1,3.1-4.32l1.24-.59,1.08-2.74a7.29,7.29,0,0,1-1.19-4.7c.77-3.57,5.39-3.33,6.12-3l2.15-2.71a4.41,4.41,0,0,1,2.58-5.64,3.92,3.92,0,0,1,.56-.16,17.08,17.08,0,0,1,4,.54l2.75-1.43c0-1.49,1.61-2.47,3.13-3.4Zm15.61,5h4.06V143H99.24Zm10.83,0h4.58V143h-4.58ZM84,139.57v1.74c-26.34,12.82-15.61,39.37-11.85,42.46l-.85,1.88c-4.6-2.82-16.48-33.46,12.66-46.09Zm20.2,4.61h5v4.69h-5Zm-21.34,2.28-1.6,4.29-4.86.4,1.79-4.27Zm98.45,3.13h3.28c-6.16,7.28-12.81,12.23-19.37,14.94a3.31,3.31,0,0,1,.18-1.16,3.64,3.64,0,0,0-.1-1.43,46.76,46.76,0,0,0,16-12.35Zm-16.87.06a10.93,10.93,0,0,1-3,2.61L161,149.6h3.5Zm5.8-.06c.33.86-8.65,5.74-8.68,5.33v-1.63l4.85-3.63Zm2,0h2.44c-2.28,3.65-14.37,10.24-13.9,9.31l.49-2.66a54.55,54.55,0,0,0,10.83-6.66Zm4.27,0h3.32c-5,6.42-10.08,8.76-15,11.51a2.43,2.43,0,0,0-1.07-.12l-1.67-1.31c.2.3,11.09-6.13,14.27-10.08Zm-93.13.23-.22,1.93c-7,6.07-9.81,13.83-6.17,22.84l-.86,1.92c-3.93-9.59-2.76-18.94,7.14-26.69Zm31.9.31.37,5.23L93.79,176.69a157.58,157.58,0,0,0,5.13-26.53Zm69.63,1.23v2.9c-8.57,9.51-17.21,13.79-24.67,15.51l-.18-1.11,3.46-2.15c11.14-4.9,16-9.82,21.38-15.15Zm-26,.08c.15,2.09-1.71,6.05-3.82,8.28h-3.63l-.4-1.58a23.54,23.54,0,0,0,7.75-6.7Zm1.09.62c1.33,2.16-.67,7.75-.76,7.53-.15.38,11.4,2.84-.46,8.61.26,1.69,1.37,5.3.5,7.54-.26-.86-2.33-6.65-4-8.14,3.71-1.06,6.38-3.35,6.09-4.11-.61-1.07-2.26-2.38-5.06-3.35a20.5,20.5,0,0,0,3.61-8.08Zm-84.85,1.06.37,4.4-4.22,2.56L71,155.25Zm73.45,4.09a1.11,1.11,0,0,1,.8.26c2.08.85,2.23,11.1.35,12.15a1.49,1.49,0,0,1-2.09-.37,1.44,1.44,0,0,1-.21-.41c.91-4.73.34-7.64,0-10.94-.15-.47.44-.7,1-.69Zm36.36.15V161c-12.26,12.81-25.46,22.9-38.94,28.57l-1.23-2.1a122.29,122.29,0,0,0,40-30.12Zm-2.33.39c-5.68,8-12.59,13.16-22.07,15.52l-.17-2.26C172.21,168.26,183,157.75,182.62,157.75ZM28.17,159c7.4,7.62,15,15.17,22.5,23l-3,.16L28.08,161.64Zm88,.38.26,1.87-2.15,2.38,3.39,3.69.18.87L115,171.26l-1.32-1.32,1.61-1.82-2.74-2.92-5.08,4.94,4.18,4.58-3.16,3-1.26-1.27,1.61-1.88-2.8-3-5.16,5.19,3.91,4.36L102.13,184l-1.24-1.27,1.35-1.57-2.85-2.94-5,4.84,4.1,4.56L95.19,191l-1.3-1.23,1.88-2-3.08-3-2.46,2.35s.93-2.33,1.06-2.72c.2-.58,1-1,6.2-6.19,6.18-6.2,12.52-12,18.69-18.79Zm35.45,1.25a17.63,17.63,0,0,1,6.37,1.26c2.77,1.47,1.9,2.63.1,3.49a14.44,14.44,0,0,1-6.34,1.62l.09-1.24a15.87,15.87,0,0,0,4.12-1.38,2.69,2.69,0,0,0,1.08-.87,6.53,6.53,0,0,0-2.16-1.34,18.51,18.51,0,0,0-3.13-.48ZM70.78,162.2l2.27,3.44-2.69,4.56-2.59-3.93Zm45.88.37c.08.65.9,3.17.47,2.68l-1.51-1.71Zm35.11.34a11.22,11.22,0,0,1,3.5.59,7,7,0,0,1-3.42,1.25Zm31.56,1.72A1.4,1.4,0,1,1,182,166h0a1.38,1.38,0,0,1,1.37-1.39Zm-71,2.41,1.18,1.14L112,170l2.75,2.92,3.4-3.21.45,2-31.9,31.68L85,203.22l2-2.41-2.3-2.38,1-1.72,2.7,2.45,5-4.81-4-4.29,3.45-3.57,1.3,1.13-2,2.17,2.88,3,5.22-5.18-4.08-4.47L99.36,180l1.2,1.14L99,182.77l3,3.12,4.4-4.62-4-4.44,3.55-3.49,1.09,1.1-1.63,1.84,3,3.12,4.81-5-4-4.31Zm67.79.82a1.39,1.39,0,1,1-1.37,1.4h0A1.38,1.38,0,0,1,180.14,167.86Zm-25.93.07a15,15,0,0,1,3.72,8.48,25.53,25.53,0,0,0-6.82-7l.5-1.29Zm30.59.2v3.1a104.61,104.61,0,0,1-33.44,25.14l-2.05-2.51c14.25-6.41,24.55-14.37,35.49-25.73Zm-14.22,2.16-3.91,3.07V172l4-1.74Zm-20.19.23a15.84,15.84,0,0,1,7.8,8.52,146.35,146.35,0,0,1-14.28,7.55,65.85,65.85,0,0,1-6.39-12c7.34,0,9.36-4.1,9.41-4.13,1.73.71,2.1.79,3.46.07Zm26.39.6a1.41,1.41,0,0,1,1.4,1.34,1.38,1.38,0,0,1-2.75,0c.15-1,.75-1.35,1.35-1.34Zm-10.16.92v1.33c-1.88,1.66-5.52,4.34-5.52,4.34l-1.51-.08.49-3.8a58.91,58.91,0,0,0,6.53-1.79Zm-96,.15,3.6,3-1.1,4.57-3.55-2.71Zm48.32.87.33,1.34L89.74,203.87l-1.68-.28Zm54.54,1.14a1.39,1.39,0,1,1-1.37,1.4h0A1.39,1.39,0,0,1,173.51,174.2Zm10.92,0c.15,0,.35,0,.35.15v2.54a1.22,1.22,0,0,1-.46.09,1.31,1.31,0,0,1-1.28-1.34v0a1.38,1.38,0,0,1,1.37-1.4h0Zm-3.34,3.09a1.39,1.39,0,1,1-1.38,1.39h0a1.37,1.37,0,0,1,1.35-1.4h0Zm-11.55,0a1.39,1.39,0,1,1-1.38,1.39h0a1.37,1.37,0,0,1,1.38-1.37h0Zm-9.93.42H161l-2.62,1.58a10.44,10.44,0,0,0,1.19-1.53Zm25.2.65v2.85a109.46,109.46,0,0,1-28.35,20.7l-1.63-1.68a106.19,106.19,0,0,0,30-21.86Zm-19.19,1.56a1.4,1.4,0,1,1-1.38,1.39h0a1.38,1.38,0,0,1,1.36-1.37Zm12.23.1a1.4,1.4,0,1,1-1.38,1.39h0a1.38,1.38,0,0,1,1.36-1.38Zm-137,5.57c4.67-2.73,8.42-3.05,13.77-2.22l1.59,3.17c-5.21-.93-10.69-.85-15.37,2.8-4.86-3.09-8.56-4-12.55-3.48l-.07-3.35A17.73,17.73,0,0,1,40.87,185.59Zm120.94-3a1.39,1.39,0,1,1-1.37,1.39h0a1.37,1.37,0,0,1,1.34-1.4Zm12.58.57a1.39,1.39,0,1,1-1.38,1.39h0a1.37,1.37,0,0,1,1.35-1.4h0Zm-16.71,2.07a1.39,1.39,0,1,1-1.37,1.4h0a1.38,1.38,0,0,1,1.36-1.4Zm12.82.81a1.39,1.39,0,1,1-1.37,1.4v0a1.37,1.37,0,0,1,1.36-1.39h0Zm-17.06,1.64a1.41,1.41,0,1,1-1.39,1.42v0a1.4,1.4,0,0,1,1.38-1.41Zm13.39,1.16a1.39,1.39,0,1,1-1.38,1.39h0a1.37,1.37,0,0,1,1.35-1.4h0Zm-17.46,1a1.39,1.39,0,1,1-1.38,1.39h0a1.38,1.38,0,0,1,1.29-1.46h.08Zm-60.8,1.25L92,194.25l-3.55,3.53-1.3-1.27,2-2.07-1.34-1.81Zm74.45.31a1.39,1.39,0,1,1-1.38,1.39h0a1.38,1.38,0,0,1,1.31-1.44H163Zm-4,2.35a1.39,1.39,0,1,1-1.38,1.39h0A1.37,1.37,0,0,1,159,193.7h.09Zm-4.31,2.35a1.4,1.4,0,1,1-1.37,1.4h0a1.4,1.4,0,0,1,1.33-1.45h.06ZM84,200l1.11.92L83.36,203H82Zm-21.61,5.73A33.54,33.54,0,0,0,54,211.27l-3.89-5.44Zm-26.52,0,10.38.15-3.46,4.92a21,21,0,0,0-6.92-5Zm12.36.54c1.13.36,4.07,4.58,5.45,6.89,3-2.37,5.85-5,9-6.43a70.21,70.21,0,0,0-9.39,12.11c-.67-1.79-2.52-6.95-4.85-9.19a21.4,21.4,0,0,0-5.15,7.67,67.14,67.14,0,0,0-7.14-10c-.45-.62,3.37,1.78,7.15,5.49,1.06-2.71,4-6.41,5-6.51ZM35.81,208.9c1.77,1.43,6.63,7.7,7.18,11.47l-2.32.15C39.44,216.65,37.37,212.77,35.81,208.9Zm25.8.64c-1.75,3.63-4,7.34-5.49,11.36l-2.3-.1c2.52-5.49,3.44-6.5,7.8-11.22Zm-13.16,1.62h.06a21.78,21.78,0,0,1,3.86,9.47l-1.68-.07a33.25,33.25,0,0,0-2-4.82c-.53-.76-1-.67-1.31,0a20.66,20.66,0,0,0-1.61,4.65l-2-.14c-.36-2.69,4-9,4.61-9.07Zm-.31,10.34c.8,0,1.62.87,1.61,2.38.06.71-.48,2.28-1.07,2.36-1.1.59-2.4-1.24-2.07-2.76.28-1.26.85-1.95,1.54-1.94Zm-3.81.28c1.56.14,1.89,3.66,1.26,4.38a1.85,1.85,0,0,1-2.59-.5,2.1,2.1,0,0,1-.24-.5c-.61-1.6.53-3.32,1.58-3.37Zm7.69,0c1.68.24,1.26,4.11.38,4.67-1.36.73-2.4-.48-2-2.3.37-1.46.92-2.33,1.56-2.37Zm4,.64c2,.22.81,3.62,0,4.32-1.23,1-2.43-.48-1.84-2.21.47-1.34,1.22-2.12,1.87-2.11Zm-15.7.11c1.42.22,2.24,3.45,1.4,4.37-.44.53-1.72-.24-2.3-1.13-.7-1.06,0-3.25.9-3.24Zm15.06,7c.16,1.69-1.1,1.69-4.75.86a21.42,21.42,0,0,0-6.78.15c-2.81.52-3.22.32-3.21-.83,0-1.35,1.58-2.11,5.23-2.22,2.57,0,9.06-.07,9.47,2.08Zm5.67-1c-4.35.42-5.5,5.91-5,7.94a26.92,26.92,0,0,1-.43,9.34,28.36,28.36,0,0,1-1.63,5c-1.14,2.29-.84,4,.85,4.91a3.42,3.42,0,0,0,4.18-.67c2-2.1,2.18-6.56,1-16.7-.42-3.57-.19-4.29,1.52-4.09,3.62,0,3.47-5.64-.46-5.65Zm-.52,4.62c-1-.37-1.64.52-1.51,2.73a29.92,29.92,0,0,0,.34,3c1.4,9.73.87,16.24-2.08,16.56-2.58.42-4.33-1.5-3.07-3.47.71-1.12,1.33-1.28,2.71-.69,1.91,1.19,1.43-.54-.29-1.82-1.09-.78-1.18-.78-.58-3.24a28.25,28.25,0,0,0,.76-9.86c-.41-3,.58-6.88,4.32-7.11a2.08,2.08,0,0,1,.6,4.11,2.08,2.08,0,0,1-1.2-.18ZM33.73,246a4.2,4.2,0,0,0,3.6,0c.45-2.07.48-3.79,1.86-6.6a4.58,4.58,0,0,0-7.25,1,4.09,4.09,0,0,0,1.62,5.51Zm3.72-7.2c1.4.3,1.2,1.77-.11,1.29-3.13-1.48-5.68,3-3.16,4.66,1.29.74,1.86.32.57-.69-.51-.6-.38-.85-.06-1.46.65-1.22,3-1,2.86-.13-.54,2.83-.9,3.65-1.74,3.65C31,246.4,30,237.23,37.45,238.8Zm41.25,5.1s-14.47,16.48-21.43,24.92l87.29-.41L128,245.31C113.7,248.64,97,247.68,78.7,243.9Zm-.44,5.28c2.18,0,4.66,1.62,6.81,6.93.11.05,9.6-14.52,17.81.57,1.34-3.39,9.07-12.22,18-.88,3.18-7.59,10.5-5,11.19-2.38-.16-.57-7-2.2-9.93,2.83-.54,1.06-.57,2.07,0,2.67a1.47,1.47,0,0,1,.2,2.06,1.45,1.45,0,0,1-2,.2,1.47,1.47,0,0,1-.2-2.05c1.49-1.11-1.56-4.58-4-5.83-3.44-1.71-8.22-1-10.52,1.5a8.14,8.14,0,0,0-2.18,3.46.89.89,0,0,0,.23,1c1,1.22.34,2.89-1,2.69-1.77-.27-1.54-1.94-.35-2.85.36-.18.22-.4.11-.71-3.23-9.16-15.27-7.41-16.57-1.07a2.14,2.14,0,0,0-.1.71c.14.6.49,1.12.36,1.59a1.58,1.58,0,0,1-1.89,1.18,1.6,1.6,0,0,1-1.2-1.4c-.05-.73.75-1,1.13-1.63a1.51,1.51,0,0,0,.11-1.4c-3.26-6.88-8.86-5.44-11.63-3.88-.06,0,2.48-3.31,5.67-3.27Zm-3.61,4a4.1,4.1,0,0,1,3.28,1.73c3.43-1.82,5.85,1.33,5.45,1.64-4.84-3.17-6.41,4.22-1.65,3.93-2.09,4.37,5.39,6.24,4.56.66,4.62,1.63,5.38-4.77.69-4.68,1.52-2.63,5.44-1.91,7.1-.26,2-2.4,6.75-.11,7.23,1.94-5.38-2.77-6,5.72-.72,3.92-1.54,5.39,6.73,4.62,4.45,0,5.15,1.71,4.45-6.06-.62-4.49-.3-.4,4-4.89,7.15-.67.42-.74,5.31-3.18,7.94.64-5.8-2-4.7,5.91-.54,4.34-1.12,5.22,6.39,4.37,4.47-.07,5.82,1.48,3.24-7.46-.84-4.16.66-3.59,5.55-2.1,5.5-1.55,0,0,2.59-2.83,5.5-.76-4.54.39-3,6.57,1.29,4.8a2.84,2.84,0,0,0,4,2.78l3.67,5.17-83.69.53,6.68-8c2.25,1.87,4.56,1,4.85-1.94,4.86,3,6.13-4.13,1.57-4.44a4.86,4.86,0,0,1,2.61-1ZM70,255.5c.29.2-.1,1.2-.74.91Zm65.25,2.07c.25.36.43.59.68.95s-1.31-.18-.68-1Z" transform="translate(-0.79 0.09)"/>
  </g>
</svg>
