<svg xmlns="http://www.w3.org/2000/svg" viewBox="0 0 212.6 284.28">
  <defs>
    <style>
      .a {
        fill: #e2cf00;
      }

      .b {
        fill: #131f67;
      }

      .c {
        fill: #d40000;
      }
    </style>
  </defs>
  <title>KH</title>
  <g>
    <path class="a" d="M81.73,261.57l53.41,1.14c4.74,6.49,14.24,19.73,14.24,19.73l-86.3,1.14Zm-22.35,4.52c2.3-4.63,2.75-9.09,2.31-15.52-.34-4.93,2.76-8.77,6-7.3,2.48,1.14,1.34,5.81-1.22,4.82-1-.38-1.84,0-1.71,2.18.22,5.46,1.69,11.62.43,16.85-.88,5.09-7.92,2.75-5.77-1ZM37.75,259c-2.72-4,2.15-7.85,5.21-6,1.44.67,1.24,2.14-.59,1.36-2.54-1.09-5.28,2.76-3.07,4.31,1,.71,1.41.62.64-.28-2.07-2.38,3.21-3.44,3.06-1.86a29.87,29.87,0,0,1-.58,3.09C41.34,261.26,39.28,260.41,37.75,259Zm7.59-17a4.43,4.43,0,0,1,.38-6.4c.87-.94-7-15.52-6-15.62,9.94-1,20-.25,29.94.05,0,0-5.31,9.5-7.43,14.19-.85,1.9,1.15,4.12.32,5.53-2.56,2.79-1,5.87-2.57,6-4.48-.57-8.91-1.31-13.89-.32C45.73,245.34,45.69,243.26,45.34,241.9Zm43-101.31C93.38,166,86,193,69,210.76c-2.4-2.29-4.24-6.64-6.63-9.48-6.64-2-11.41.36-16.07,2.64A26.48,26.48,0,0,0,33,200.22l-.15-3.94c4.59-.09,9.45.33,13.54,2.84l6.4-2.58L32.79,176l.27-3.52,24.22,24.29,3.12.11C53.54,178.73,59.54,150,88.36,140.59Zm33.77,31.9,3.5,16.6s-18.51,19.83-30,29.24l-8.62-.78s11.78-20.84,9.62-19.24Zm69.6,22.77c-8.22,9.15-18,15-29,21.38-4.36-4.84-9.65-10.17-12.71-14.94,9.52-5.06,18.59-9,27.91-17.83-.51.58-11.89,4.41-11.85,4-.41,1.89-.16,3.06-2,3.55-2.19-3-4.31-5.51-7.76-6.87a8,8,0,0,1-3.38-.82c1-.2.54-11.88,0-12,0,0,.28-.35,2.81-.3,4.52-.31,7.44-5.74,10.25-7.6,8.76-.72,16.53.14,25.16-.09-.06,10.39.54,21.17.54,31.56Zm-55.66-26.32c-.22-.45-2.44-17.67-.34-28.47.39-2.53,4.41-3.39,5.18-5.28,1.27-4.1-.64-9.17.37-13.76s3.25-7.32,5.2-10.8c2.11-3.76,5.12-8.46,8.47-11.28,1-.95,4.41,2.13,7,7.45,7.44,4.66,17-1.36,17-1.36s3.7,3,12.08,4.65l-.14,3.24c0,.94-9.42-1-11.44-2.88,0,0-7,2.33-7,2.75,0,1.82,18.47,18.85,18.47,18.85l.11,4.19c-2.77-3.83-24.44-22.27-24.44-22.27,4.8,28.05-6.67,45.52-30.48,55Zm-31-5.49-.42-16.52,15.79.18.65,16.7ZM32.83,145.59c.42-.58-.61-30.79-.55-30.79,10-9.94,19.88-15.5,29.73-21.55,4.45,4.4,8.24,8.1,11.52,13.42L59.94,115c.52,2-.82,2.76,7.94,10.66.15-.54,3-2.15,3.54.26-1.19,5.08.52,9.4.75,12.13-1.2,1.6-3.87-.12-3.87-.12-1.73-1.79-8.52,7.07-10.45,8.06-8.45-.31-25.49.26-25-.4Zm95.1-53.85c.11-.11,8.6.06,8.48.37-1.54,4.12-5.38,11.44-8.89,19.88-4,7.2-9.65,11.44-14.45,16.16-3.83,3.77-7.24,9.71-9.86,8.17-1.59-5.11-2-9.64-3.72-15.3C98.68,117.66,103.58,115.48,127.93,91.74Zm37.12-28.32c3.11,1.32,11.84.63,13.22,0,1.78,1.2.67,2.79.45,3.68,1.82,2.3,2.82,3.11.75,6.81-.47,0,6.36,15.32,6.54,15.33,0,0-7.22-3.41-9.77-5.71l-5,6.59-5.79-7.44c0,.67-11.15,8-11.29,7.67-.35-.35,10.17-11.62,8.08-18.24-.5-1.59.65-3.21,1.44-4.62C164.24,66.57,163.51,64.7,165.05,63.42Zm-5.78-1.37c.48-.54-2.7-14.39.74-20,1.46-2,4.09-2.14,5.19-.48.84,2.32-1.66,5.54-2.17,7.12-1.63,4.38.79,10.16-.39,14.31C159.1,72.07,152.84,62.13,159.27,62.05Zm23.56-6.15c-1.87.08-.57-5.47-.26-7.06,0-.31,3.42-1.11,4.65,1.07C189.21,53.17,186.82,57.29,182.83,55.9Zm-22.24-28L143,49.2c-17.76-2-35.59-3.33-53.75-.57L74.66,28.35Z" transform="translate(-5.81 -14.26)"/>
    <path class="b" d="M192.47,26.37l-162.54.5,1.79,258,162.16-1ZM155.07,28h5.35L141,51.79l-.48.16A111.14,111.14,0,0,0,145.4,64c2.81,5.78,9.89,16.42,5.47,24.93-.43.73-.83,1.08-1.37,1.08-.75,0-.74-.44-.29-1.3a18.17,18.17,0,0,0,1.25-8.69,34,34,0,0,0-2.68-7.33c-7.4-13.6-9.71-20.85-9.29-20.85a1.61,1.61,0,0,0-.53-.2l-.73-.24c2.57,8.59,6.73,15.82,10,22.51,2.7,6.22,3,8.63,1.58,13.16-.55,1.75-1.54,2.87-2.51,2.87-.73,0-.69-.15-.19-1,2.59-4.63,2-9.69-1.23-15.57-4.68-9.71-7.48-15.85-9.15-22.08,0,0-.85-.27-1.15-.34,1.39,6.48,5.27,14,8.87,21.61,3,5.9,3.85,10.19,2.77,13.58-.35,1.47-1.48,3.66-2.9,3.73-.55,0-.64-.29-.12-1,2.21-3.78,2.61-7.26-1.35-15.18-3.64-7.29-7.28-15.44-8.53-22.56-.08-.59-1.66-1.28-1.32-.31,1.95,8.41,5.84,17,10,25.43,2.32,5.21,2.56,8.55.82,11.47-1,1.63-1.22,2-1.95,2s-.85,0-.38-.94c2.11-4.38,1.77-8.25-1.05-14.58-3.87-8.69-7.13-15.88-8.52-23.53-.25-.07-1.55-.58-1.37-.2a124.23,124.23,0,0,0,7.6,20.89,69.29,69.29,0,0,1,3.49,9.3c1.1,4.4-1.38,10.45-4.63,10.75-1.22.12-1.07-.49.29-1.74,2.32-2.16,2.77-5.6,2-9.59a50,50,0,0,0-3-9.72c-2.84-6.78-5.93-13.87-6.91-20.12,0-.56-1.27-.57-.9,0a71.17,71.17,0,0,0,4.21,14.06c2,5.09,5,10.79,6,17,.8,5.11-2.4,9.93-6.28,10.22-4.68.35-5.6-4.26-4.47-6.43,1.83-3.23,7.16-1.38,5.58,1.92-.92,1.9-3.7,1.4-3.58-.68,0-.19.27-.76.21-.8s-.5.32-.63.56c-.95,1.68,1.89,4,3.87,2.59,6.62-3.57,2.15-14.48-.74-21.14-2.79-6.2-4.84-11.81-5.73-17.55-.24-.17-1.33-.45-1.18-.25.8,3.06,1.17,5.65,2,8.23,1.25,4,3.49,8.56,5.32,13.09,1.66,4.46,3.33,8.24,2.57,12.89a2.51,2.51,0,0,1-.54,1.26c-.29.31-.54.26-.63-.92,0-.16-.24-.38-.27-.58a14.15,14.15,0,0,0-.41-5.12A24.13,24.13,0,0,0,130,73.15c-.61-1-2.22-4-1.65-1.94A28.43,28.43,0,0,0,131,77c.71,1.18,1.46,4.43,1.24,5.05s-.78.65-1,.44-.23-1.06-.29-1.59c-.24-2.21-2.5-6-4.07-7.56-1.13-1.26,2.66,5.33,2.93,7.09.12.74.35,1.35.1,1.71s-.51.24-.84.16-.31-.31-.65-1.44a11.28,11.28,0,0,0-2.78-4.65c-.51-.6-.85.15,0,1.12,1.12,1.77,2,2.9,2.25,5.18-.72,1-1.08.83-2.61-1.78-1-1.73-1.61-2.17-1.87-2.16-.67,0,0,.86,1.84,3.8,1,1.57,1,2.55-.11,2.55-.38,0-2.47-2.31-3-3.3-.43-.83-1-1.46-1-.45a13.12,13.12,0,0,0,2.18,3.54c1.41,1.62,1.81,2,2,2.66.08.35.25.94.37,1.33.36,1.17.18,1.5-.55.88-.33-.86-.6-1-1.5-1.61a15,15,0,0,1-2.51-3c-.26-.39-.49-.88-.75-1.27-.68-1.27-1.58-1.38-.93-.1a20.94,20.94,0,0,0,1.33,2.29c.89,1.25.7,1.9-.34,1.89-.45,0-1.7-1.63-2.48-2.91-.51-.84-1.31-1.43-1.21-.6A9.72,9.72,0,0,0,118.21,87c1,1.24,1.14,1.9.16,1.9-.66,0-1.23-.64-2.08-1.93s-1.31-1.66-1.54-1.52,1.16,2.61,2.34,3.94.3,2-1,.85A14,14,0,0,1,113.61,87c-.71-1.53-1.16-1.11-.71.1a11,11,0,0,0,2.23,3.76c.49.5,1.51.89,2,1.32,1.41,1.22,2.3,2.34,2.19,2.54-4,.22-7.32-4-8.23-6.64-.64-1.7-1.37-2-.67.45,2,6,8.07,9.07,12.29,6.4,2.55-1.62.3-5.82-1.79-4.47-.57.37-.59,1.41.13.86,1.35-1,2.72,1.54,1.24,2.3-2.08,1.08-4.39-1-3-3.59s7-1.12,5.9,3.12a7.67,7.67,0,0,1-6.06,4.33c-4.64.09-7.83-3.45-9.62-6.95-.23-.45-.63-1.33-1-2.05a11,11,0,0,0-.55-1.08c.51,4.24,4.58,9.49,8.22,10.35,6.06,1.42,7.71-2.17,11.67-5.89,0,0,2.89.38,3,.31a36.58,36.58,0,0,1,5.78-.25c-21.66,39.15-20,85.63-1.38,120.91,1.23,2.58,1.45,2.09-.59,1.56s-4,.3-5.74-.09c-3.54-.73-4.29,1.68-7,3-3.4,1.28-2.63,3.63-3.44,5.9-.25.36-.44.64-.3.6a2.16,2.16,0,0,0,1-1.33,5.48,5.48,0,0,1,1.29-3.3c.59-.57,1-.85,1.14-.61a2.1,2.1,0,0,1-.26,1.41c-.83,1.55.26,6.74.33,3.05a9.2,9.2,0,0,1,4.33-7.53c2-1,2.61-.88,1,.62a10.48,10.48,0,0,0-3.17,7.09c0,1.18.44,2.16.6,1.1-.07-5.41,5.36-11.44,11.18-8.44.29.2.53.6.45.82-5.64-.94-10.54,2.13-9.82,9.39a22.65,22.65,0,0,0,.79-2.84c.89-4.45,5.94-6.4,9.48-5.18.67.28,1.19,1.22,1.1,1.34-4.33-1.35-9.09,2.73-9.36,7.15-.09,1.44-.06,2.67.68.07,2.8-9.82,11.43-5.37,10.36-4.56-6.67-.79-9.09,3.68-8.94,8.86.1.48.34.64.54,1.08a15.92,15.92,0,0,1,1.37,7.16c-.07.91.69,6.72-.07,6.48-2.43-.9-4.27-2-8.48-.07-.38,0-.5-.19-.37-.52a12.69,12.69,0,0,1,2-2.59c2.58-2.74,1.1-2-1-.1-1.37,1.23-1.07.39.22-3.81.53-1.7.2-1.91-2-3.05s-3.93-1.35-2-.12a17.07,17.07,0,0,0,2.47,1.31c1,.56.91.79.15,3.25-1.47,4.76-2,6.5-1.9,9.7.19,7.79,7.64,7,11.88,5.27l.17,5.13,16,22.42s-55.84-.06-85.71.43c1.7-4.08,19.76-21.37,20.84-24.46.1,0-2-6.33-3.11-9.08-5.22-13-12.09-18.49-8.11-27,.85-1.69,1-2.27,1.65-2.26.88,0,1.17.59.17,2.24-4.26,7.14,4.84,19.45,7.92,27.3a88.3,88.3,0,0,1,2.92,9.13c0,.61,1.48.81,1.07.1-1.13-4-2.56-8.39-3.22-10-2.43-5.79-5-9.75-7.36-15.41-1.32-3.58-2-7.72,0-11.43.75-1.35,1-2.1,1.45-2.17s.68.15.7.49a4,4,0,0,1-.76,1.95c-3.59,6.09,2.79,15.93,5.95,22.94a55.15,55.15,0,0,1,4.54,13.72.73.73,0,0,0,1.2.55c-1.37-8.1-5.39-16-8.91-23.53-3-5.91-4.13-11.06-.11-15.93.35-.34,1.1-.28,1.15.22a6.22,6.22,0,0,1-.86,2.27c-3.54,7.38,1.94,13.37,4.51,20.41,2.51,5.88,4.85,10.82,5.78,17.08.71.27,1.06.61,1.14-.28-1.83-8.85-5.79-16.81-9.22-24.48-1.59-3.33-2.15-4.93-2.26-7.16-.14-3.07,1.41-6.95,2.8-8,.36-.27.58-.32.91-.14s.36.41-.53,2.09a12,12,0,0,0-.27,10.63c2.73,5.86,5,10.67,6.65,15a51,51,0,0,1,3.19,12.49s1.21.54,1-.26a67.27,67.27,0,0,0-4.31-15.07c-1.75-4.28-3.94-8.4-5.71-12.64a10.75,10.75,0,0,1,4-13.44l2,0c-.12-.05-4.63,1.73-4.86,8.15-.23,6.12,2.68,9.88,4.78,15.06,2.56,6.25,4.85,11.73,5.4,18.4a1.88,1.88,0,0,0,1.29.19,63.8,63.8,0,0,0-3.74-14c-2-5.58-4-8.05-5.83-13.91-1.26-4-1.09-9.33,1.7-11.78,4.18-4.21,10-1.21,8.55,3.6-1.12,3.39-5.78,2.72-5.76-.46a1.82,1.82,0,0,1,3.37-1c.19.3.32,1.62.41,1.67a3.61,3.61,0,0,0,.35-1.29c0-1.68-2.28-3.1-4-2.24-2.34,1.17-3.86,3.86-3.71,7.47.16,3.83.86,6.32,4,12.33,3.67,7,4.89,14.6,5.67,19.72.34-.14.75,0,.88,0a58.37,58.37,0,0,0-5.7-20.09c-3.48-7.21-4.45-11.62-3.29-14.86.17-.47.33-.83.54-.86.39-.06.51.56.87,1.86a4.15,4.15,0,0,1-.11,1.5c-.3,3,1.78,9.11,3.71,11.84.57.78,1.29.76.67-.63a23.17,23.17,0,0,1-3.37-11.16c0-1.28,1.45-.7,1.48-.06.11,2.07.32,4.52,1.31,6.26,2,3.44,3.15,3.59,1.08-.25-.46-.89-1.77-4.67-1.24-6,.29-.27.65-.31.83-.05A14.67,14.67,0,0,0,98.65,234c.75.86.87.47.48-.59-.66-1.24-2.72-5.37-1.77-6.3.3-.25.13-.11,1,1.24a15.44,15.44,0,0,0,2.35,3.18c.75.73.93.24.16-1-1.55-2.57-2.43-4.71-1.89-5.25s.67-.29,1.89,1.79c.55.92,1.33,2.27,1.6,2.6s.51.4.52.13a10.07,10.07,0,0,0-3.31-5.84,14.58,14.58,0,0,1-.08-2.21c3.24,1.66,3.37,3.54,5.51,6.42.22.22.54,0,.45-.45a17.54,17.54,0,0,0-2.14-4c-.63-.83-.66-1.3-.13-1.54.86-.39,2.06.88,3.33,3.15.59,1,1.39,1.66,1.39,1.11a12.4,12.4,0,0,0-1.86-3.8c-1.27-1.31-.64-2.22.82-1a6.55,6.55,0,0,1,2.5,3c.54,1.17,1,1.32,1,.39s-1.76-3.6-3-4.31c-.91-.54-1.44-1.15-1.18-1.56.81-1.18,4.06,1.82,5.17,4.62.33.82.91,1.25,1,.88.25-.18-.41-2.2-1.09-3.13-1.12-2.13-3.76-4.19-5.32-3.94-.3.05-1.14-1.7-1.14-1.7,4-.64,7.87,4.12,8.56,5.9,1.31,3.38,2,3,.83,0-2.23-5.8-9.18-9-13-6.24-2.2,1.6-.88,5.41,1.38,4.77.89-.34,1.76-1.25.19-.95a1.54,1.54,0,0,1-.53-3c2.88-.86,3.54,3.71,1.21,4.73s-4.82-.51-4.59-3.15c.43-5,6.59-6.43,12.67-2.39,1.7,1.13,3.81,4.83,4.53,7.18.24.77,1,1,1.14.94s-1.68-4.34-2.32-5.39c-2.64-6-12.21-6.33-12.21-6a35.15,35.15,0,0,0-7.08,6.22l-8.55-.79c21.79-34.83,23.5-86,1.15-122.3.29.18,4.3,1.22,5.68.13a2.43,2.43,0,0,1,2.44-.25c1.27.46,2.6,0,4-1.2,1-.95,1.07-1.24,1.74-1.16,2,.26,3.3-.9,3.71-3.75.16-1.11.27-2.28.11-2.11a9.8,9.8,0,0,0-.47,1.68,4.6,4.6,0,0,1-1.43,2.83c-1.08.9-1.71.4-1.26-1,.43-.88.79-3.14.2-4.17-.1-.19-.13.51-.28,1.07-1.17,4.47-2.41,6.73-4.54,7.26-1,.24-1.47.09-1.14-.48,3.76-4,3.51-8.43,3.23-8-.8,2.56-2.29,6.38-4.73,8-2.11,1.36-5.2,1.48-6.92.35-1-.65.5-.84,2.71-.87,3.72,0,7.19-5,6.62-9.16-.14-.77-.35,0-.65,1.32-1.38,4.51-3.73,7.68-9.11,6.74a2.33,2.33,0,0,1-.93-.51c-.88-.6-.55-1,1.19-.79,3.89.5,7.27-3.13,7.25-7.51,0-2.11-.31-2.08-.65-.52-.47,2.21-2.2,9-8.49,6.78-1.13-.61-1.75-1.39-1.35-1.51,3.67.74,7-.07,8.34-4.86a10,10,0,0,0-.14-5.79c-.19-1.15-.58-2-.71-3.2a64.78,64.78,0,0,1-.7-10c.3-.3.35-.23,1.41.46,2.07,1.37,3.64,1.06,5.75.25,2.71-1,2.47-.8-.37,2.39a15.9,15.9,0,0,0-1.26,1.6c-.72,1.35.64.36,1.65-.91,1.41-1.76,1.71-2.17,2-2.17a22.62,22.62,0,0,1-1,5.79c-.47,1.73-.46,2.13.64,2.57.48.2,1.41.57,1.93.82,2.32,1.1,2.1.2.25-.84-2.5-1.4-2.52-1.33-1.8-3.66A57,57,0,0,0,103,63c1.12-6.7-4-10.38-10.69-8-.39.19-.83-3.52-.77-4.5.06-.36-1-.28-1.9-1.36.27-.24-9.94-13-14.7-20.7,26.66,0,53.44-.48,80.18-.47ZM138.49,51.87l.11.08C138.55,51.9,138.52,51.87,138.49,51.87ZM161.6,28.55h28.59l.42,61.59-2.54.06s-4.77-8.17-6-12c-.31-1-.86-2.3-1.08-2.82-.48-1.18-.82-1.33-.18-2,1.3-1.44,1-4.37-.21-5.78-.39-.45-.59-.3-.57-1.41a4.77,4.77,0,0,0-.15-2.06c-.42-.82-.71-.88-.1-1.79a15.57,15.57,0,0,0,1.83-3.7c.58-2,.17-2.32,1.45-1.86a4.37,4.37,0,0,0,5.83-4.5,4.58,4.58,0,0,0-5.59-4.4c-.69.17-.82.12-1.88-.54a7.58,7.58,0,0,0-1.15-.74c-.49-.18-.89-.17-1.1-.51a3.74,3.74,0,0,0-3.15-1.7,6.37,6.37,0,0,1-2.45-.46c-.52-.27-2-.05-3.89-.33a6.91,6.91,0,0,0-1.91.2c-1.16,0-.69-.13-.91-1-1.45-4.58-5.7-4-7.64-.59a17.13,17.13,0,0,0-1.5,5.42l-11.43-.17Zm-88.43.14c4.27,5.4,8.36,11.46,12.66,17,5.29,6.69,5.47,7.46,4,14.19-.8,3.8-1.14,4.68-2.75,4.39a2.66,2.66,0,0,0-3,2.41c-.39,2.82,2.34,4.55,5.08,3.15,1.44-.75,1.49-.83,1,1.63-.69,3.52-2.07,6.55-3,6.45-2.3-4.86-7.88-1.4-6,3.64-.58.88.18,2,.47,2.92,0,0,0,.11-3.17,1.16-15.67,4.62-35.07,16.67-45.66,28l-.73-84.68Zm89.89,11.55a2.53,2.53,0,0,1,1.81.66c1.37,1.22,1,2.93-.84,6.14-2,4.48-1.44,8-1,12.72,0,2.73-.94,5.32-2.41,6.44a2.61,2.61,0,0,1-4.1-3.08c.63-1.23,2-.51,2.3-1.67.11-.69.1-1.78.18-2.3-.29-2.06-.88-8.35-.88-10.54a15.35,15.35,0,0,1,1.5-6A4.3,4.3,0,0,1,163.06,40.24Zm3.77,7.31c-.54.45-1.45.46-1.55-.1a6.33,6.33,0,0,1,.78-2.68c2-.45,1.34,2.29.77,2.78Zm2.93-2.93c1.62-.06,2.68,4.06,1.28,6.48-.27,0-2.23,0-2.24.07a11,11,0,0,1,.24-2.11,4,4,0,0,0,0-2c-.53-1.89-.88-2.25.73-2.44Zm3.08.06H173c1.64,0,2.58,3.17,2.07,6.63-.08.49-.12,1-.3,1.13a7.59,7.59,0,0,0-2.63.49,3.55,3.55,0,0,1,.14-2.06,6.83,6.83,0,0,0,0-4.42c-.38-1.47-.39-1.75.49-1.77Zm4.1.91c1.8.3,1.92,5.29,1.18,6.91-.18.24-.86.18-1.1.27-1.54.44-1.2.66-1-1.77a16.79,16.79,0,0,0-.1-4.35c-.12-.61-.17-1,.27-1.07A2,2,0,0,1,176.94,45.59Zm-9,1.95c.71,1,.14,3.25-.41,4.1s-.88,1-.54,1.42a1.94,1.94,0,0,1,.26,1.42c-.34.68.54.81,1.35,1.22,1.3.68,1.93,1.94,2.9,4.22.34.79,1,.54.7-.31s-.4-1.81-.6-2.53,0-1.11.87-.9c1.29.33,1.11,0,1.58-.15,1-.57,1.73.24,1.1.68a7.74,7.74,0,0,1-2,.65c-.72.19-.55.88.17.88a22.71,22.71,0,0,0,3.82-.91c3.57-1.08,3.69-1.66,3.35.37-.44,2.68-1.9,4.69-4.32,5.37a22.08,22.08,0,0,1-9.15-.21c-2.06-.93-2.19-1.58-2.82-3.39-.85-2.48-1.35-6.68-.37-9.11.86-2.06.78-1.85,1.6-1.74a1.8,1.8,0,0,0,1.95-.48C167.52,47.92,167.8,47.53,167.93,47.54ZM181.6,49a5.39,5.39,0,0,1-.17,3.09c-.22.4-1.47.38-2,.39-.29.06-.26-3.73,0-4.14C180.25,47.27,181.19,48.14,181.6,49Zm-36.22-.65,3.53,0v.86l-4.17,0Zm12.37.15v1.11h-5.32v7l5.95,0,0,1.46-8,0,0-9.55Zm27.06-.23c5.46,1.2,3,7.23,1,7.59-2.55.46-4.72.17-4-2.07.71-1.52.22-3.41.42-4.79A3.57,3.57,0,0,1,184.81,48.29Zm-41.15,2.12,5.25.05v1.15h-6Zm11.67,1.06A1.52,1.52,0,1,1,153.81,53,1.52,1.52,0,0,1,155.33,51.47Zm14.82.6c1,.11,1.06,1.6.66,2a1.1,1.1,0,0,1-1.76-.48,1.2,1.2,0,0,1,1.1-1.56Zm-28,.65,6.72,0v.94l-6.78,0-.18-.6Zm37.83.41c.93,0,1.5.76.92,1.43C180.06,55.53,178.27,54,180,53.13Zm-71.6,2c-1.5,1.27-.3,2.51,1.7,1.31,4.3-2.58,10.63-.53,14.76,1.62.81.41.92-.55.13-1.22C121.19,53.52,113.06,51.6,108.42,55.17Zm65.11-1.77c1.05,0,1,1.32.36,1.78a1.2,1.2,0,0,1-1.24,0C172,55,172.49,53.41,173.53,53.4Zm3.71,0c1.25.06,1.11,2.57-.77,1.66A1,1,0,0,1,177.24,53.42Zm-34.72,1.29,6.53.06v1.06l-6.11-.06Zm-42.2,2.5c1.78,1.42,1.23,1.5-1.73.46a9.12,9.12,0,0,0-5.07.33c-1.43.56-1.76.4-1.14-.56C94.05,55.57,98.64,56,100.32,57.21Zm8.58,2.35c-.18.44-.79-.36-1.62-.2-1.18.22-.84.27.41,1.69s1.65,1.76,1.58,2.3c-.11.81.11,1.25.91,1.16.39,0,.85.4,1.44.94a20.45,20.45,0,0,0,3.74,3.07c2.7,1.16,1.48-.15-.25-1.35-2.88-2-3.88-3.31-1.83-2.6a10.37,10.37,0,0,0,7.34-.7c.84-.51,1.37-1.28,2.55-.91,1.66.53,2.3-.44,1.84-1-.76-.49-2.48-1.06-4.11-2.16-3.5-1.78-7.18-1.72-9.62-.3-1.45.85-2,.25-.54-.58,5.68-3.06,10.17-.13,13.81,2.07.63.38,1.07.35,1.07.08-.1-.89-1.71-1.43-2.37-1.83-5.06-3.08-10.38-4.07-14.35.31Zm34.47-2.71h5.68V58l-5.26,0ZM97.2,58.28c1.57,0,5,1.4,4.93,2.57-.06.44-.92,0-1.66-.41a8.58,8.58,0,0,0-5.73-.73c-1.59.3-2.1.56-2.33.37-.55-1.23,3.33-1.8,4.79-1.8Zm61.36.83v2c-3.08.22-3.72,3.65-1.74,5.55,1.62,1.56,4.3,1,5.64-1.27.24-.39.27-.63.41-.43a3,3,0,0,1,.24.85c.22,1.06-.09,1.33-.78,2.23a4.38,4.38,0,0,0-.58,4.66c.2.38.6.92.53,1.17.4,0-3.49,10.88-9.18,16.37-1,.63-1.64-.12-1.15-1.14,4.63-10.58-4.23-20.41-7.67-29.87l14.27-.13Zm-41.17,1.83.81.07c-.65,4.87-5.39,4.09-5.57.12l.68,0C114.23,64.8,117.4,63.29,117.39,60.94ZM90.66,61a2.32,2.32,0,0,1,.34.85c0,1.13,0,2.77,0,3.27-.27,4.69-6.22,5.56-5.77,1.55a1.57,1.57,0,0,1,3-.35c.77,1.94.91-.47.92-1.22A22.13,22.13,0,0,0,90.66,61Zm28.69.33a1.77,1.77,0,0,1,1,.59c.39.42.25.63-.67,1.1s-1.44.46-1.08-.57C118.84,61.85,119,61.36,119.35,61.37Zm44.53.25c.14,0,.48.18.4.69-.13.85-.87,1.33-1.06,1.13C163.34,63,163.49,61.79,163.88,61.62Zm-51.64,1.64c-.12.35-.32.2-.84-.24s-.54-.8,0-1.15C112.29,61.36,112.35,63,112.24,63.26ZM94.21,62c1,3.14,3,2.74,3.93.15H99c-.2,4-5.31,4-5.36.06Zm-1.79.39c.3-.05.08,1,.08,1s-.84-.43-.34-.89a.69.69,0,0,1,.26-.11Zm7.52.27a1,1,0,0,1,.51.21c.5.33.41.52-.16,1-.87.72-1.27.32-.8-.66C99.67,62.84,99.8,62.65,99.94,62.65Zm65.35.68a8.24,8.24,0,0,1,2,.44,21.48,21.48,0,0,0,10.52-.18c1.09-.3,1.9,1.61,1.31,3-.26.61-.21.69.58,1.51a4.14,4.14,0,0,1,.45,4.77c-.62,1.25-.58,1.14.16,3.27.34,1,.77,2,.85,2.24.93,3.14,3.23,6.85,4.63,10,1.4,2.18-2.51,0-2.51,0a14.07,14.07,0,0,0,2.45,2.47c1.35,1,4,.33,5.24,1.58.28.39-.28,8.73-.57,9-12-.56-32.12-.12-32.12-.12l3.77,5.87a17.85,17.85,0,0,0,17-1.64c-.13.49,6.58,3.78,12.1,4.14l0,3.94c-4.1-.46-8.25-.55-12-2.94,0,0-3.5,1.46-7,2.55l19.62,20.3v3.39s-8.38-7.82-17-16.63l.19,43.33,17,.33c-.53,11.27-.32,18.44-.2,31.36a111.84,111.84,0,0,1-29.26,21.4,84,84,0,0,1-12.26-15c-.07-.11.35-.33.28-.44s-.71-.23-.82-.39c-2.12-3.16-7.05-11.92-6.27-12.12,1.51.1,8.5-.76,9.89-4.95a6.74,6.74,0,0,1,0-1.89c.49-2.27.74-5.72-.09-7.91-1.51-3.95,3-2.68,3.17-2.42V156.57c-5.88,4.71-11.81,9.35-19.67,11.29-4.89-24.64,2.86-55.29,25-76.08l-1.22-.1c-22.71,23.5-28.66,49.34-24.79,76.55,0,0,.15.85.17,1.14,0,.68-.11.93-.71,1.42s-1.1.79-1,1.25c.1.87-.74.9-1.84.9-.5-.45-1.18.11-1.59.32-.57.08-.85-2.25-1.58-.54-.28,1.08-.8,1.16-2,.62-.76-.22-.78.16,0,1,1,1.09,1.86,2.72,1.7,3.21a2,2,0,0,0,1.34,2.83c-.09,0-.94,3.34,1.46,3.24a23.08,23.08,0,0,1,2.7.4,1.24,1.24,0,0,1-.38,1.28l-1.67-.83-.43,2-2.23-.15,5.41,6.68.64-5.21,6.33.8c1,2.64,7.41,17.3,19.63,28.21,0,0-6.68,2.91-8.55,3.82l-1.17-4.15-1,1.51-1.87-.48-.21,1.7-1.67.54,2.9,2.19-7.46,2.27c-21.32-34.39-31-82.16-4.42-132.68l6.71.09-1.31,2.24,1.91-.31.54,1.64,1.4-.67,1.41,1.77,1.6-4.71s4.75.1,5.35,0,10-8.09,9.84-8.4-10.44,7.3-10.78,7c0,0-1,.25-.23-.71A37.32,37.32,0,0,0,158.38,84a26.15,26.15,0,0,0,4.08-10,2,2,0,0,0-.1-.95c-.92-1.83-.72-3,.94-5.19.58-.75.62-.94.45-1.41a2.36,2.36,0,0,1,.75-2.65A1.23,1.23,0,0,1,165.29,63.33Zm-56.54,7.32c4.21,1.72.83,5.55-2.3,2.22-1.63-1.75-2.93-1.64-3.82-.36-.4.57.18,1.58.7,1.26s1-.65,1.68,0c5.33,4.9,9.15-2,4.56-3.67C109,69.84,108.2,70.42,108.75,70.65Zm-17.34-.17a.33.33,0,0,1,.15.06,5.42,5.42,0,0,1,0,2.58c-.67,3.69-3.3,12.27-8.7,8.07-2.14-1.66-.19-5.85,2.37-4.43,2,1.11.66,3.76-1.51,2.24-1.06-.74-.72.79.17,1.22,1.51.79,4.24-.56,5.52-3a22.53,22.53,0,0,0,1.52-5.1c.27-1.23.3-1.66.47-1.67Zm.45,6.39c.45,2.67-1.58,7.34-4.48,8-2.21.53-4.95-.91-4.75-2.24.06-.39.22.12,2.22.45,2.8.46,4.58-1,6.2-4.53A12.09,12.09,0,0,1,91.86,76.87Zm7,1.28a9.83,9.83,0,0,1-.27,1.62c-.29,1.25-.48,1.73.89,1.11A3.84,3.84,0,0,1,103,80.8c1.51.84,2.95.69,4.73-.07,1.55-.51,2.3-.52,3.16,0,1.58.9,1,.33.83-2-.14-1.6-.57-1.39-1.14-.78a1.62,1.62,0,0,1-2,0,3,3,0,0,0-2.85.09c-.47.38-1.14.44-2.06-.18-.6-.41-.94-.19-1.68.14a1.87,1.87,0,0,1-2.35-.26c-.61-.44-.89-.31-.9.35Zm-6.06,1.91c.16,0,.18.62.07,1.86-.51,4.58-4.1,7.13-8.32,4.91-1.84-1-1.59-1.8.23-1.14,2.9,1,5.83-.42,7.26-4.18.37-1,.62-1.44.76-1.45Zm10.3,3.27c2.08.86,4.4.59,5-.18s-.35-.71-.88-.59a6.09,6.09,0,0,1-3.82,0C101.19,81.68,101.33,82.58,103.07,83.33ZM81.3,85.9a51.5,51.5,0,0,1,5.39,7.72c17,28.9,22.49,65.44,11.29,98.61a118.54,118.54,0,0,1-12.27,26l-5.83.07,2-2.29-2.72.2L79,214.67l-2.06.67-1-2.28-1.86,5.22-10.81,0C88.6,193.7,93.58,163.89,88.86,140c0,0,2.12-1.33,2.41-2.1a4.68,4.68,0,0,1,.38-1.11c.94-.61,1.56-1.21,2-1.09a.91.91,0,0,1,.59.47c.9,1.31,1.09,1.51,1.58.2.34-1,.19-1.29,1.34-1.11.67.36,1.57.35,1.49.21s-1-1.22-1.47-1.85c-1.07-1.51-1.37-1.78-1.27-2.44a2.67,2.67,0,0,0-1.15-2.35c.14-2.71-.9-3-3.84-3.58a2.58,2.58,0,0,1,.27-1.26L93,125.32l.63-2.55,2.34.13-6.79-6.58a50.66,50.66,0,0,1,0,5.52c-3.19-.17-6.33-1.2-6.38-1A85.17,85.17,0,0,0,63.38,93.24l7.51-3.61L73,93.69l.52-2.3,1.87.33.31-1.48L77.78,90l-2.27-2.16Zm44.76,4.75c.29.36.52.38.9.71l-.77.55A3.31,3.31,0,0,0,126.06,90.65ZM76.05,92a1.16,1.16,0,1,0,1.16,1.16A1.16,1.16,0,0,0,76.05,92Zm6.27.19a1.16,1.16,0,1,0,1.16,1.15A1.15,1.15,0,0,0,82.32,92.19ZM62.12,93c3.72,3.1,7.15,7.13,11.3,13.43l-.09.85,1.27.47s6.9,9.09,6.54,13.12c-2.37.5-4.21-.38-8.45,3.59l-2.72-.6-2.87.7a1.44,1.44,0,0,0,.75,1.2c.31.13.83-1.12,1.16-1.09,1.39.17,2.8.19,2.54.63-.29.12-1,9.15.41,11.07.81,2,.23,1.94-.49,2.3-.79.52-3.28-.57-3.28-.57l.57,14.33C75.33,145,89.19,140,88.21,140.52c7,36.76-9.59,61.29-26.91,79.27l9.08.05s-7.83,12.55-8.41,16c.45,1.16,1.68,3.55-.4,5.22-.71.78-.78,4.27-.78,4.27-4.77.17-8.91-1.49-14.42.44-.56.19-.69-3-.72-3.57a5,5,0,0,1-.5-6.47c.55-.62.32-.29-.14-2.38-.72-3.32-3.14-7.88-5-10.81a24.41,24.41,0,0,1-1.35-2.42c-1.31-1.56-4.76-.84-5.18-1.25s-.63-8.82-.25-9c13.61,1.08,34.9-.16,34.9-.16l-5.71-8c-7-2.74-16.71,1.94-16.24,2.19,0,0-7.73-4.23-13.11-3.62l.18-4.17a25,25,0,0,1,13,3.14l6.53-2.44-20-21,.23-3.47s5.12,5.48,10.68,11.33c4.78,5,6.56,5.87,6.56,5.87V146l-17.22,0L32.6,137l-.45-.77-.2-6.4.48-.65-.17-2.73-.16-.39-.22-6.53.37-.55.06-4.11C40.63,106.74,62.12,93,62.12,93Zm14.72,1.24,2,8.8,1.35-1.67,2.07.65.14-2,1.89-.65Zm68.44,1.46a1.16,1.16,0,1,0,1.16,1.16A1.15,1.15,0,0,0,145.28,95.73Zm-5.41.73A1.16,1.16,0,1,0,141,97.62,1.16,1.16,0,0,0,139.87,96.46Zm-66.37,1a1.16,1.16,0,1,0,1.15,1.16A1.16,1.16,0,0,0,73.5,97.48Zm70.52.7L136,105.76l2.26-.1.41,2.21,2-.92,1.63,1.51Zm3.43,2.55a1.16,1.16,0,1,0,1.16,1.15A1.16,1.16,0,0,0,147.45,100.73Zm-64.07,1.49a1.16,1.16,0,1,0,1.15,1.16A1.16,1.16,0,0,0,83.38,102.22Zm5,1a1.16,1.16,0,1,0,1.15,1.15A1.15,1.15,0,0,0,88.39,103.19Zm-4.55,1.72c.22,3.09.58,6.77.66,9.87L86,113.27l1.77.72.62-1.9,1.93-.1Zm49.61,2.58a1.16,1.16,0,1,0,1.16,1.16A1.16,1.16,0,0,0,133.45,107.49Zm-52.93.2a1.16,1.16,0,1,0,1.16,1.16A1.16,1.16,0,0,0,80.52,107.69ZM138,108a1.15,1.15,0,0,0-1.16,1.15,1.16,1.16,0,0,0,2.32,0A1.15,1.15,0,0,0,138,108Zm-.69,2.5-6.68,6.87,2.19.2.69,2,1.4-1.19,1.7,1.25ZM141,112a1.16,1.16,0,1,0,1.16,1.16A1.16,1.16,0,0,0,141,112Zm-52.66,2.14a1.16,1.16,0,0,0,0,2.32,1.16,1.16,0,1,0,0-2.32ZM60,114.8l-2.18,1.66.54-.08s1.31,1.53,1.31,1.64.81,0,.81,0Zm33.84,1A1.16,1.16,0,1,0,95,117,1.15,1.15,0,0,0,93.83,115.81Zm-8.29,1.65a1.16,1.16,0,1,0,1.16,1.16A1.16,1.16,0,0,0,85.54,117.46Zm47.83,2.33a1.16,1.16,0,1,0,1.16,1.16A1.16,1.16,0,0,0,133.37,119.79Zm-4.57,1.7a1.16,1.16,0,1,0,1.16,1.16A1.16,1.16,0,0,0,128.8,121.49Zm46.64.29,2.41,2.61v38.26l-2.35,0Zm-93.65.27c2,0,4.15.28,4.84,1.47,1.08,1.34-1.22.82-3.16,1.11-1.78.22-.75.59,1.78.73,3.48.21,4.85.3,5.37,1.1a6.15,6.15,0,0,1,.14,2.06l-4-.19a25,25,0,0,0-3.87.12c-.48.13-.34.52-.18.68a29.39,29.39,0,0,0,3.5.16c4.95.13,6,.3,6.39,1.89s-.92,1.23-6,.68a7.3,7.3,0,0,0-3.8.51c-.56.27,1.61.54,2.32.42a39.89,39.89,0,0,1,4.91.51c1,.16.12.13-.39.74-.34.51-.23,1.1-.76,1.38s-1.93.34-4.24.34c-2.63,0-3.86.64-.24.8,2.33.1,2.47.06,2.66.73.53,1.67-.59,2-3,2.34a20.17,20.17,0,0,1-4.11,0c-5-.36-6.79-1.56-7.47-3.78-2.54-8.29.6-13.35,7.94-13.75C80.9,122.06,81.34,122.05,81.79,122.05Zm51,.37-5.69,8.28,2.19-.86,1,2.25,1.76-1.25,1.75,1.08Zm-42.59,1c.3.36.17.63-.32.9a2.1,2.1,0,0,1-1.58-.14c-.61-.27-.68-1.36-.17-1.48A2.35,2.35,0,0,1,90.15,123.42ZM48.92,123l-3.11,3,.09.12,4.1-1.62Zm87.37,1.27a1.16,1.16,0,1,0,1.16,1.16A1.16,1.16,0,0,0,136.29,124.27Zm42.38,1s2.9,2.87,4.09,4.07h-1.08l0,2.25,3.43,0,1.88,1.85-5.23,0v2.31h6.48l0-1,2.56,2.32.3,25.65-12.36,0C178.7,150.08,178.73,137.9,178.67,125.27Zm-84.8,2.78c-.18.56-.57.56-1.25.28-1-.4-.86-1.51-.1-1.63C94,126.54,94.22,127.2,93.87,128.05Zm3.89.49a1.16,1.16,0,1,0,1.16,1.16A1.16,1.16,0,0,0,97.76,128.54Zm-4.07.89a1.86,1.86,0,0,1,1.15.51c.64.64.41,1.23-.3,1.6s-1.35-.15-1.58-1.09a.75.75,0,0,1,.73-1Zm36.34,3a1.17,1.17,0,1,0,1.16,1.16A1.16,1.16,0,0,0,130,132.46Zm-38.26,1.41a1,1,0,0,1,.78,1.6,1.11,1.11,0,1,1-.78-1.6Zm34.11.47A1.16,1.16,0,1,0,127,135.5,1.16,1.16,0,0,0,125.88,134.34Zm4.11.77-5.18,8.69,2.1-.83,1.27,1.68,1.31-1.15,2,1Zm-40.66,1.45c.93,0,1.19.73.52,1.4a1,1,0,0,1-1.51,0C87.54,137.37,88.16,136.56,89.33,136.56Zm44.29.11a1.16,1.16,0,1,0,1.16,1.16A1.15,1.15,0,0,0,133.62,136.67Zm-37.72.91a1.12,1.12,0,0,0-1.11,1.16,1.16,1.16,0,0,0,2.32,0A1.2,1.2,0,0,0,95.9,137.58Zm85.84.26v2.46h6.53v-2.46ZM96,140l-2.5,9.14,2.09-1.2,1.3,1.34,1.22-1.5,2.18.57Zm4.44,1a1.16,1.16,0,1,0,1.16,1.16A1.15,1.15,0,0,0,100.43,141Zm-8.15.47a1.16,1.16,0,1,0,1.16,1.16A1.16,1.16,0,0,0,92.28,141.48Zm89.46.72v2.21h6.53v-2.2ZM128,145.08a1.16,1.16,0,1,0,1.16,1.16A1.16,1.16,0,0,0,128,145.08Zm53.73,1.24v2.38h6.53v-2.38Zm-134.62.29,2.3,0,0,41.44-2.24-2.37Zm-1,.08-.11,37.87L41.7,180l1.15,0v-2.58l-3.76,0-1.61-1.56h5.37v-2.53l-6.37,0v1.53l-3.14-3.34.06-24.73Zm82,1.16-3.49,9,2.2-1.25,1.13,1.11,1.17-1.05,2,1Zm-91.69.43,0,2.42h6.43v-2.42Zm95.64.49a1.16,1.16,0,1,0,1.16,1.15A1.15,1.15,0,0,0,132.13,148.77Zm-7.88.13a1.16,1.16,0,1,0,1.16,1.15A1.15,1.15,0,0,0,124.25,148.9ZM97,149.33a1.16,1.16,0,0,0,0,2.31,1.16,1.16,0,1,0,0-2.31Zm84.74.93v2.55h6.53v-2.55ZM96.86,151.7l-1,1.49-2.21-.75,3,9.14,3.79-9.53-2.18,1.24Zm-60.37.66v2.42h6.4v-2.42Zm145.25,2.17v2.53h6.53v-2.53ZM36.49,156.64v2.43h6.4v-2.43Zm91.61.46a1.16,1.16,0,1,0,1.16,1.16A1.16,1.16,0,0,0,128.1,157.1Zm-34.86,1.21a1.16,1.16,0,1,0,1.16,1.16A1.16,1.16,0,0,0,93.24,158.31Zm7.43.22a1.16,1.16,0,1,0,1.16,1.16A1.16,1.16,0,0,0,100.67,158.53Zm81.07.16V161h6.53v-2.28Zm-53.65,1.06-1.39,1.46-2-.57,4.51,8.41,2.28-9-2,1.26Zm-91.6.86v2.75h6.4v-2.75Zm60.41,1.24A1.17,1.17,0,1,0,98.07,163,1.16,1.16,0,0,0,96.9,161.85Zm-.07,2.4c-.5.35-.71,1-1.23,1.29l-2.12-.91,1.27,11.45,5.88-10.82-2.69.46Zm-60.34.37v2.87h6.4v-2.87ZM132.63,166a1.17,1.17,0,1,0,1.16,1.16A1.16,1.16,0,0,0,132.63,166Zm-7.52.13a1.17,1.17,0,1,0,1.17,1.17A1.16,1.16,0,0,0,125.11,166.08Zm-88.62,2.7v2.86h6.4v-2.86Zm92.82.63a1.17,1.17,0,1,0,1.16,1.17A1.17,1.17,0,0,0,129.31,169.41Zm16.41.1c6.22.2,7.13,2.2,7.17,9.11,0,5.52-1.61,7.68-5.63,8.74a27.43,27.43,0,0,1-8.49-.47c0-.47-.8-1.57-1-2.41a23.68,23.68,0,0,1,4,.29c1.92.18,2.41-.13,1.81-.51-3.62-.85-6.07-.62-9.54-1.28a5.34,5.34,0,0,0-.89-2.25c.19-.07,5.35.48,8.07.4,1.2,0,.48-.62,0-.72-3.17-.46-5.24-.38-8.59-.81a3.17,3.17,0,0,0-.89-2.29s1.7,0,5.2,0c1.84,0,3.45.1,4.25.07,1.36,0,1.23-.63.06-.72-1.43-.16-7.06-.19-7.06-.19a4.85,4.85,0,0,0,.75-2.74s1.46,0,2.38,0c4.52-.17,5.3-.09,5.38-.26.59-.54-1-.76-2.68-.75-.72,0-1.76.16-1.76-.24a4.11,4.11,0,0,0-.37-1.85,19,19,0,0,1,7.8-1.15ZM92,170.93a1.16,1.16,0,1,0,1.17,1.16A1.16,1.16,0,0,0,92,170.93Zm44.41.24c.77,0,1,1.38.29,1.6-1.1.33-1.71.07-1.67-.59C135.09,171.81,136,171.17,136.45,171.17Zm-36.81,1.2a1.16,1.16,0,1,0,1.16,1.16A1.16,1.16,0,0,0,99.64,172.37Zm33.1,1.3c2.63,0,1.27,3.56-.75,2.27C131,175.3,131.69,173.68,132.74,173.67Zm-41.6,2.86c-.06,0-.08.05-.08.18l.61,10.88L98,177.43l-2.52.94-1.08-1.65-1.35,1.07C92.49,178.23,91.43,176.56,91.14,176.53Zm39.16,1.12c1.18.16,2,1.34,1.15,1.91C129.61,180.37,128.62,177.73,130.3,177.65ZM127.47,180a1.17,1.17,0,1,0,1.16,1.17A1.16,1.16,0,0,0,127.47,180Zm4.47,1a1,1,0,0,1,.48,1.9,1.42,1.42,0,0,1-1.12,0C130.13,182,130.74,181.11,131.94,181Zm-43.53,1.79A1.17,1.17,0,1,0,89.58,184,1.16,1.16,0,0,0,88.41,182.81Zm88.8,1.46-4.31,1.45v2c1.88-.6,3-2.12,4.31-3.48Zm-40.37,1c.74.32.95,1.33.3,1.67a2.41,2.41,0,0,1-2.21-.22c-.87-1.39,1-1.79,1.91-1.45Zm-40.62.4a1.17,1.17,0,1,0,1.16,1.17A1.16,1.16,0,0,0,96.22,185.65Zm-4.76,2a1,1,0,1,0,1,1A1,1,0,0,0,91.46,187.66Zm48.32,1.73a1.17,1.17,0,1,0,1.16,1.16A1.16,1.16,0,0,0,139.78,189.39Zm-52.07.06,0,10.28,6.85-8.41-2.38.52-1-2.09-1.46,1Zm43.49,2.37a1.17,1.17,0,1,0,1.17,1.16A1.16,1.16,0,0,0,131.2,191.82Zm34.29,0-1.12,1.92,3.19-1.77Zm-29.65,1.37a1.16,1.16,0,1,0,1.17,1.16A1.16,1.16,0,0,0,135.84,193.23Zm3.92,1.25-1.39,2-1.83-.59-.54,1.89-2.2-.08,7.14,6.22Zm-55.66.79a1.17,1.17,0,1,0,1.16,1.17A1.16,1.16,0,0,0,84.1,195.27Zm107.08,1.67.58,85.18-40.6.09-16.72-22.83a30.43,30.43,0,0,1,1.42-12.52c1.64,1.13,5.22.51,5.1-3.88-.08-2.87-4.51-4.34-6.72-2.18.11-2.78,1.24-7,2.86-8.18,1.12,1,1.37,2.51,3.89,2.09a3.42,3.42,0,0,0,2.43-4.63,6.26,6.26,0,0,1-.3-1.8,10.92,10.92,0,0,0-.05-1.81c-.12-.64-.17-1.32-.17-1.32A122.74,122.74,0,0,0,191.18,196.94ZM92.24,198.4a1.17,1.17,0,1,0,1.16,1.17A1.17,1.17,0,0,0,92.24,198.4Zm-5.48,1.14a1.17,1.17,0,1,0,1.16,1.16A1.16,1.16,0,0,0,86.76,199.54Zm57.52.56a1.17,1.17,0,1,0,1.16,1.16A1.16,1.16,0,0,0,144.28,200.1Zm-61.69,1.24-1.81,10.82,7.91-8.09-2.15,0-.43-1.85-2,.65Zm53.81,2.31a1.16,1.16,0,1,0,1.16,1.16A1.16,1.16,0,0,0,136.4,203.65Zm5.13,1.26a1.17,1.17,0,1,0,1.16,1.16A1.16,1.16,0,0,0,141.53,204.91Zm-63.87,1.41a1.17,1.17,0,1,0,1.16,1.17A1.16,1.16,0,0,0,77.66,206.32Zm68.5.88-1.9,1.44-1.74-1.07-.41,2.3-1.48.78,6.23,4.37Zm4.6,3.1a1.16,1.16,0,1,0,1.16,1.16A1.16,1.16,0,0,0,150.76,210.3ZM85,210.69a1.16,1.16,0,1,0,1.16,1.16A1.16,1.16,0,0,0,85,210.69Zm-5.16,1.52A1.16,1.16,0,1,0,81,213.37,1.16,1.16,0,0,0,79.86,212.21Zm67.92,3.07a1.16,1.16,0,1,0,1.16,1.16A1.16,1.16,0,0,0,147.78,215.28Zm-4.87,1a1.17,1.17,0,1,0,1.16,1.16A1.16,1.16,0,0,0,142.91,216.32ZM97.9,218h0a2,2,0,0,1,.18,1.74c-.19-.09-1-.86-.81-1.13.1-.12.5-.62.61-.62ZM71.52,219.8a8.72,8.72,0,0,1,1.37.16,6.42,6.42,0,0,1-.57,1.62,14.34,14.34,0,0,0-.21,11.25c2.42,5.15,9.25,17.34,8.74,18.45l-15.09.06.07-2.29c4.24-.17,4.9-2.76,3.85-4.9A3.68,3.68,0,0,0,65,242.59c-2.71,1.13-2.88,2.47-3.85,4.54l-.43-.54a4.72,4.72,0,0,0,1-3.31c-.06-1.17-.1-.84.31-1.48,2.36-2.54.81-5.84.81-5.84-.28-2,7.07-15,8.65-16.16Zm-34.5.33c4.29,3.42,8,14.92,7.78,15.09-.2-.16-3.46,3.7.05,7.29a6.73,6.73,0,0,0,.46,3.27c-1.55,3.22-1.82,3.46-2,6.1,0,0-.27,0-1.71,0-7.11,0-7.44,9-.34,9.5,1,.07,1.31-.15,1.89.43.6.73,1.13,1.48,2.15,1.09a2,2,0,0,1,1,.61,3,3,0,0,0,3.09,1.33,6.29,6.29,0,0,1,1.55.39,2.71,2.71,0,0,0,2.55.49,1.58,1.58,0,0,1,1.13,0,2.64,2.64,0,0,0,2.46-.11c.95-.5,1.16.29,1.12,1a3.22,3.22,0,0,0,2.2,3.85c3.41,1.06,5.14-1,5.87-5.21.18-.91.34-2,.34-2l11.43.29-16.41,19L33.78,283l-.15-62.85C34.86,220,35.79,220.13,37,220.13Zm102.78,3.39c2.08.81,2.25,2.28.17,1.64-3.37-1-7,1-7.75,4a4,4,0,0,1-.38,1.06c-.47.57-.45.05-.31-1.59A5.75,5.75,0,0,1,137,223a9.28,9.28,0,0,1,2.83.49Zm-1,2.25a3.79,3.79,0,0,1,2.49.85c.78.86.55,1.43-.05,1.4-2.83-1.18-6.42.25-7.83,3.81-.86,2.19-1,1-.63-.67.7-3.07,3-5.34,6-5.39Zm-19.64.84a4.71,4.71,0,0,0-3,.81c-1.13,1.07-.19,1.09,1.86.38a7.61,7.61,0,0,1,4.14.24c1,.35,1.39.5,1.34.18C123.4,227.26,121.17,226.6,119.12,226.61Zm23,3.58c.52,1.19.18,3.29-1.64,3.5-2.14.25-3.24-3.34.67-2.71-.51-1.44-2.26-1-3.13-.68-1.76.77-3,2.51-4.05,5.69-.32.95-.55,1.44-.67,1.35s-.31-1.63.17-3.4c.85-3.18,2.92-5.11,5.12-5.17,1.42-.22,3.08.39,3.53,1.42Zm-30.63-1.38c-.19,0,.14.71.66,1.75a5.44,5.44,0,0,1,.49,1.47c0,.56.43.7,1.06.34s.86-.74,1.9-.27a2.87,2.87,0,0,0,2.84.32c.49-.29.81-.28,1.75,0,1.12.3,1.27.34,2.1,0a2.89,2.89,0,0,1,2.61.16c.26.29.11-.11.69-1.46.27-.62.66-1.38.55-1.59s-1.12,0-2.18.31a4,4,0,0,1-2.22-.21,6.81,6.81,0,0,0-5.23.23c-.81.38-2.85-.15-4.9-1a.19.19,0,0,0-.12,0Zm4.56,6.21a2.71,2.71,0,0,0-2.43,1.55c-.5,1.25.36,3.52,1.66,3.71s1.12-.54.54-.73c-.89-.29-1.93-1.56-1.26-2.66.47-.76,1.87-.75,2.84.18,2,1.88,4.21,2,4.64.37.13-.65-.37-1.52-1.14-1.28a4,4,0,0,1-3.11-.54A3.17,3.17,0,0,0,116.08,235Zm20.72,6c5-.3,2.86,6.54,0,4.78-1-.62-.58-2.93,2.17-2.89-2.7-2.09-4.53.46-3.87,3.33-.61.93-.77,2.71-1.17,3.72-.61,1.15-1.09-1.86-.47-4.78s1.6-4,3.37-4.16Zm-28.33.24c-1,0,0,1.12.19,1.25,3.12,2.45,4.65,4,2.14,3.16-4.08-1-5.13.18-8.24,1.55-.57.27-.73.1-1.41-.1-2.73-.81-2.53.91.32,2.45,4.3,2.33,7.86,2.86,11.2,1.11,2.15-1.12,2.26-.39.26.85-3.42,2-7,1.7-12.55-1.75-1.79-1.11-2-.37-.21.8,4.17,2.53,9.8,4.81,14.39,1.09.9-.8,1.08-1.22,1.78-.87,1.83.91,1.23-.68,0-2.18-.44-.54-.77-1-.74-1.33.1-1.3-.62-1.3-1.28-1.27s-.7-.22-1.66-1.28C111.23,243.17,109.51,241.51,108.47,241.24Zm-41.68,6.93c-1.74.14-2.13.22-1.71,3.77.08.67.38,2.67.46,3.42,1,9.3.19,13.42-2.4,14.56a3.2,3.2,0,0,1-2.53,0c-1.64-.65-2.32-2.64-1.13-5a13.63,13.63,0,0,0,.87-2.19c.15-.57.5-1.82.77-2.78a26,26,0,0,0,.62-9.27c-.26-2.31-.2-2.5.37-4,1.26-2.3,2.08-3.47,4.73-3.5,3,.31,3.79,4.8,0,5.08Zm63.74-.2-.82,0c-1-3.26-3-2.2-3.35.08h-.69c.12-4.34,5.55-3.16,4.86-.11Zm-76.19-2.43c5.53.55,6.54,1.92,7,8.61,0,3.24-.18,5.19-.67,5.93-.83.4-1.63-.35-2.81.4-.65.4-.52.44-.8,0s0-2.11.47-3.48-.29-2-2.13-3.72a6.49,6.49,0,0,1-1.37-2c-.95-2.55-1.44-1.43-.64.78.39.95.48,1.42-.71,1a2.26,2.26,0,0,0-1.86.33c-1.52.39-2.83-.44-1.51-.94a12,12,0,0,1,2.68-.74c.33,0,.48-.08.48-.23,0-.64-2.92-.57-5.16.2-2.75,1.27-2.9,1-2.65-.92C45.28,245.81,49.92,245.2,54.34,245.54Zm54.15.44a2.62,2.62,0,0,1,2.45,2.93l-.67,0c-.32-2.59-2.77-2.7-3.42.2l-1,0c.61-2.24,1.64-3.07,2.61-3.11ZM125,246c.56.33.17,1.23-.43,1.41-.22.05-.94-.44-.76-.75A2.49,2.49,0,0,1,125,246Zm6.34.44a.91.91,0,0,1,1,.72c0,.77-.57.61-.76.54-.38-.36-.53-1.23-.21-1.26Zm-19.41.61c1,.12,1.42,1.43.24,1.51C111.59,248.7,111.57,247.39,111.88,247.08Zm-6.31.14c.12,0-.07,1.08-.33,1.23-.51.31-1.17,0-1.14-.35C104.15,247.33,105.09,247.22,105.57,247.22Zm18.11,2.6c2,.75,4.55,1.48,7,.64.89-.34,1.59-.73,1.59-.36s-.7,1-2,1.34c-2.61.73-4.49.45-6.28-.89-.51-.38-.68-.73-.31-.73Zm-.82,1.12c3.21,1.87,6.1,2.06,8.71.69,1.06-.36,1.09,0,1.09.65-4.7,4.13-10.57-.16-9.8-1.34Zm-78.72,2.85c-.79,1.6-1.22,5.56-2.52,6.73C32.76,260,38.46,248.32,44.14,253.79Zm54.91-1.31c-.5.26-.06,1.52.73,1.86,6.78,2.92,10.26,3.26,14.11,1.92a3.83,3.83,0,0,0,2.55-2.49c.09-.76-.94-.83-2.74,0-5.5,2.15-9,.47-13.38-1.2a1.91,1.91,0,0,0-1.27-.06Zm-25.95.09,0,9.88-6.45-.11.07-1.46,4.83.14L71.46,254l-5.61-.05V252.6l7.26,0Zm1.5,0H81l.32,1H74.6v-1Zm-26,3.13a1.19,1.19,0,0,1-1.46.16c-.68-.69,0-1.95,1.09-1.95s1.19,1.06.37,1.79Zm3-1.6c1,0,1.3.91.55,1.64-.5.46-.75.49-1.21.15A1.07,1.07,0,0,1,51.59,254.13Zm-6.35.24a.64.64,0,0,1,.64.27c.59,1.21-1.35,2.05-1.75,1.15-.3-.73.45-1.4,1.11-1.42Zm36.41.13.37,1.27-7.42,0v-1.27Zm-26.57.37c1.11.13.94,1.24.43,1.74-.89.82-1.74.55-1.52-.55a1.33,1.33,0,0,1,1.09-1.19Zm-6,3.64c-.39,1.39.44,4.21.19,4.5-.54.64-1.41.31-1.8.1-1.34-.87-1.42-5.91-.13-6.22.84.42,1.4-.33,1.78-.43s.13.57,0,2.05Zm19.61-2.07a1.33,1.33,0,1,1-1.32,1.32A1.33,1.33,0,0,1,68.73,256.44Zm5.87.17h7.59a1.5,1.5,0,0,1,.28,1.5H74.6v-1.51Zm-22.29.17c.34,0,.52.74.28,1.59a9.91,9.91,0,0,0-.1,4.51c.19.63.38,1.05.27,1.23-.4.62-1.6.2-2.11-.62-1.25-2.31-1-6.63.44-6.29.56.28.88-.16,1.22-.42Zm-6.7.58c-.36.59-.1,3.88-.14,4.15s-1,.16-1.51-.07c-1.28-.61-.93-2.14-.68-3.38.28-1,.9-1.05,1.66-1.14.42-.05,1,0,.68.44Zm10.33.18c.41,0,.47.29.37,1.51a10.72,10.72,0,0,0,0,2.66c.33,1.91.37,2.43-.11,2.8a1.5,1.5,0,0,1-1.93-.21c-1.22-1-1.3-5.71-.34-6.12.89.23,1.45-.48,2-.64ZM82.16,259l-1.09,1.5H74.6V259Zm-23.08,2c1,0,.84,1.8.3,2.92-.46.68-.8.75-1.49.11s.15-3,1.19-3Zm21.19.5-.91.84H74.62v-.83Z" transform="translate(-5.81 -14.26)"/>
    <path class="c" d="M197.31,298.54v-3h3l6.41-9.82-6.9-15.27h-2.53v-3.23h9.75v3.23h-3.14l4.83,11.92,3.51-4.62v-7.3h-2.58v-3.23h8.73v3.23h-3v25.09h3v3h-8.73v-3h2.47V284L204,295.58h3.08v3Zm-42.66-23c-7.17-2.59-10.1-11.53-6-20.36,5.45-11.83,13.58-19.42,19-30.58-.06,0,10.63,15.71,14.9,21.53,9.16,13.22,8.7,24.1-.17,28.4-6.38,3.08-12.91-.46-13.66-7.13-.12-1-.19-1.18-.67-1.18s-.64.37-.77,1.91c-.51,5.93-6.94,9.45-12.6,7.41Zm44.12-23c2.78-6.54,6-10,9.41-17,2.73,5.36,7.79,11.15,9.49,16.57,1.27,4.19.28,7.6-2.45,8.61-3.18,1.18-5.56-.15-6.19-3.13-.26-1.19-.86-1.08-.89-.18-.11,2.93-3.48,4.2-6.17,3.43C200.42,260.4,197.65,257.24,198.77,252.51ZM48.5,225.84l-7.86-6.17c9.35-.21,18.71,0,28.06.17l-9.34,6.66c-1.91-2.09-3-4.9-5.76-6.26-2,.84-3.4,3.72-5.1,5.6Zm69-2.15a1.09,1.09,0,0,1-.38-.1c-.22-.13-.36-.43-.51-1.43-2.34-10.89-13.82-10.12-13.74-9.8-.09-.43,14.26-13.38,22.7-23.55,2.55,7.77,10.28,25.52,10,25.46,0,0-2.24,0-8-.13-5.27,2.38-9,4.7-8.77,8.06,0,1.19-.32,1.68-.71,1.58l-.51-.09Zm25.77-35.06c7.47-.11,8.88-3.76,9.73-4.2,4.9-.81,7.93,2.39,10.08,5.8,2.75,1.65,2.4.13,3-2.45l6.84-2V188a34.52,34.52,0,0,0-5.24,4l-2.08-.12-1.19,1.59C159.63,196,155,199.1,150,201.08c0,0-6-7.75-6.69-12.45Zm-93,.69-.08-43.06c3.09-.22,8.78-.19,8.78-.19,2.38-4.2,5.62-6.17,9-8.61a141.84,141.84,0,0,1,.54,15.69c-8.85,10.8-13.76,24.09-8.31,44l-3.27-.36Zm48.9,2.41a149.65,149.65,0,0,0,5.29-27.5l16.84-.25.34,5.77Zm57.36-19.61L156.2,156c12.29-14.69,13-27.49,8.46-43.69,4.06.94,6.15,4.1,10,8.47v42c-2.69.4-9.35.79-9.35.79C165.12,165.56,159.49,170.26,156.51,172.12Zm-52.06-25.39-.75-7.1,21.89-20.91c-1.8,9.06-4,18.36-4.63,28ZM68.13,124.54c-1.56,1-7.32-5-8.26-9,1.44-2,14.12-8.16,14.12-8.16s7.4,9.51,7.1,13.47c-3.29.88-6.14,1.13-8.64,3.81-1.43.12-1.93-1.48-4.32-.14Zm-10-8c1.76.29.63,2.67.36,4.41l-9.32,2.76C52.39,120.94,54.66,118.61,58.14,116.5Zm30.33-21c1.91,0,3.91.74,5.38.14a5.43,5.43,0,0,1,2.87-.32c2.78.86,3.76-2.2,5.53-2.22,2.3,0,3.57-1.6,3.59-4.82,0-1.39.12-1.54.38-1.68a1.2,1.2,0,0,1,1.73.93c1.64,5.92,5.8,11.25,12.36,10.83C115.09,103.66,99.2,120,99.2,120A158.39,158.39,0,0,0,88.47,95.48Zm67.58-5.1,9.57-6.95,5.73,7,5-6.63c2.91,2.08,9.53,6.73,9.53,6.73s-19.85.29-29.78-.12ZM56.27,86.83c2,1.43-19.18-24.29-21.62-33.38-1.83-5.36-.45-11.9,3.54-14.71,6.75-4.75,14.68-2.85,16.19,5.15.42,2.27,1.13,2,1.38,0C56.66,33.7,69.18,33,74,40.07c3.3,4.86,3.32,12.6-1.45,20.35C71.39,62.88,56.17,86.13,56.27,86.83ZM15.81,77c-2.83-5.54-7-11.12-9.29-16.29-1.67-4.22-.25-8.6,2.87-9.41s5.32.47,5.9,3.35c.2,1,.59,1,.78.15,1.16-5.45,8.84-4.27,9.37,1.43.33,3.64-.61,6-5.1,12.92C19.26,71.41,16.33,74.64,15.81,77Zm1.5-35h3.2l-4.7-11.53L12.22,35.4l0,6.66h2.52v3.43H5.88V42.06H8.8V17.26H5.88v-3h9v3.1H12.4l-.05,12.09,7.87-12.19H17.44v-3H27v3H24.51L18,27.23l6.34,14.83h2.82v3.43H17.34Z" transform="translate(-5.81 -14.26)"/>
    <path d="M161.48,27.42l-88,.56,17.1,22.84c18.16-3.7,34-1.3,50.38,1.57Zm-2.25,1.16-5.85,7.27c-1.62-1.46-5.24-.94-4.73,2.27-4.48-2.33-5.44,4.07-1.63,3.81-.47,1.26-4.32,1.59-5.41-.69-3.94,2.21-5.15.06-6.2-1.33,5,3.41,7.46-3.6,1.94-4,2.17-4.39-5.57-6.39-5.12-.67-5.1-1.16-3.93,6-.18,4.55-2.44,3.67-6.43,1.21-7.24.49-2.06,1.54-5.94,1.59-7-.87,5.68,1.14,5.06-6.34,0-4.62,2.69-5.74-6.26-5-4.09-.26-5.09-.2-4,6.08.51,5-4,3.75-7,.26-7.58.18-2.35,2.6-6.48,1.18-7-.36,4,1.6,5.38-5.21.27-4.8,1.31-4.38-6-4.91-4.42.07-4-.92-4.27,5.57.27,4.56C96,41,92.42,42.67,90.22,41c-1.61.88-3.37,2.25-5.47.22,3.19-.51,3.72-5.91-1.44-4.75.25-3.31-1.65-3.49-4-2.65l-3.77-5.1ZM98.54,36.71c-.27.62-.75,1-.64,1.51a5.89,5.89,0,0,0,1,1.65c4.41,5.74,13.33,5.54,16-.37.55-1.1.44-1.35-.22-2.28a1.38,1.38,0,1,1,2.08.09c-1.52,1.91,2.66,6.24,6.82,6.92,5.34.87,10.4-2.89,9.7-6.25,0-.2-.14-.38-.18-.58-.57-2.82,3.9-1.47,2.29.33-.6.65-.93.84-.85,1.56,1.3,6,8.55,6.58,12,4.75-4.45,7.26-11.51,1.66-12.75-3.42-6.26,9-13.77,7.16-18-.78.49.5-8.25,14.23-18.18.15-4.2,11.33-11.86,3.67-11.34,3.21,3.52,2,9.91,1.25,10.53-4.82.08-.74-.48-.79-.81-1.38-1.67-3,3.7-3,2.46-.29ZM82,37.46c.8.07.93.41.8,1.21Zm68.27,2.13L149.12,41C148.84,40.33,148.83,39.68,150.27,39.59Zm12.54.48c-2.74.12-4.85,3.9-4.71,8.94.07,2.44.5,8.58.66,9.49.24,1.28,0,3-.47,3.19-1.18.48-1.63.79-1.95,1.36-.83,1.47-.14,3.13,1.61,3.87,1.25.53,2.84-.2,3.91-1.8.6-.89.74-1.29,1.26-3.52a12,12,0,0,0-.05-4.31c-.63-3.56-.17-8,1.06-10.08,2.2-3.74,2.16-6.18-.11-7A3.27,3.27,0,0,0,162.81,40.07Zm-.14.57c3.18,0,3.1,3.19,1.33,4.16a2.35,2.35,0,0,1-2.36-.17c-.94-.54-.81.08.16.79,1.15.83,1.63.78,1,2.72a23.5,23.5,0,0,0-.56,8c.86,6.09.13,9.12-2.43,10.18a2.29,2.29,0,0,1-3-1.23c-.54-1.58.43-3,2.84-2.57,0,0,.17-.5-.45-5.78-.87-7.35-.53-12.48.82-14.28a3.75,3.75,0,0,1,2.61-1.77Zm21.6,7.58a4.73,4.73,0,0,0-2.36.67s-.09,3.3-.19,3.8c-.54,2.8-.38,3.13.92,3.53,3.17,1,5.76-1.14,5.65-4.43A3.93,3.93,0,0,0,184.27,48.22Zm.43.44c1.73,0,3.3,2,3.13,3.87a3.44,3.44,0,0,1-4.23,3.12c-.58-.09-1.17-.2-1.36-.63-.39-.6.24-.82,1.55-.82s1.71-.19,2.19-1c.94-1.6-.27-3.62-1.81-3.24-.53.13-.61.36,0,.54,1.89.85,1.19,2,.53,2.52s-2.07-.21-2.29-.69l.13-3.08a3.27,3.27,0,0,1,2.15-.6ZM165.22,63a5.51,5.51,0,0,0-1.07.66,2.54,2.54,0,0,0-.55,2.83c.16.46.14.54-.44,1.3-1.66,2.15-1.87,3.23-1,5.17.38.89.38.89,0,2a45.8,45.8,0,0,1-7.92,14.61,4.29,4.29,0,0,0-.72,1.23,3.93,3.93,0,0,0,1.2-.25c3.4-1.69,7-5,10.32-7.11-5.28,4.28-10.89,8.11-10.89,8.11l7.17.38c-1.8,1.85-33.26,28.5-24.91,76.31,9.82-2.44,14.39-6.49,19.63-11.17.05,3.85.13,14.22.17,14.22.1-.17-4.55-1.75-3.44,2.07.65,2.1,1,7.4-.18,10.4-.05.13.5.33.45.45s-.75.13-.75.13c-1.78,3.33-6.37,4.06-8.64,4-.83-.08-.5,1.06-.39,1.48.43,1.71,2.4,5.38,6.08,11.27l1,.12-.56.52a26.71,26.71,0,0,0,1.6,2.29l.05.5s2,2.82,3.11,4.14c.07.09.24-.13.32,0,.6.73,1.32,1.54,1.93,2.26.05,0-.09.26,0,.31,1.16,1.26,3.42,3.8,3.42,3.8l.45-.11,1.78,2c14.78-6.72,30.23-21.59,30.07-21.56l.13-32-17.5,0L175,120.85l17.48,17.28-.11-5c-4-3.77-19.9-19.84-19.9-19.84a20,20,0,0,0,6.74-2.26,19.87,19.87,0,0,0,12.52,2.73l0-4.71c-5.28,0-8.56-1.76-10.93-3.87l-3.27-.11c-6,4.58-10.29,2.46-14.88,1.55l-3.17-4.56,32.47-.17-.23-11.08-4.93.11-3.2-2.36,3.71,1.57a4.69,4.69,0,0,0-.8-1.77,74.7,74.7,0,0,1-6.06-12.28c-.74-2.14-.74-2.05-.12-3.3a4.46,4.46,0,0,0-.45-5c-.8-.82-.77-1-.51-1.61a2.17,2.17,0,0,0-1.5-3.17c-5.44,2.09-12.73-.07-12.6-.13Zm12.65.88c1.08,0,1.2.47,1.2,1.28-.1,1.48-2,2-2.9,2.22-4.17,1-11.44.39-11.92-1.55-.34-1.43.55-2.23,3.51-1.52C172.52,65.29,175.47,64.19,177.87,63.83ZM164.4,68a1.33,1.33,0,0,1,1.1,1.16A4.53,4.53,0,0,1,164.45,72c-1.32,1-2.52-.57-1.63-2.32.51-1,1-1.68,1.58-1.68Zm14.23.2a1.64,1.64,0,0,1,.79.21c1.05.75,1.15,3.32.16,3.69s-1.93-.67-1.92-2.3C177.67,68.76,178,68.15,178.63,68.16Zm-3.33.54a1.29,1.29,0,0,1,.67.14c.88.4,1.3,3.1.43,4a1.52,1.52,0,0,1-2.54-.75C173.36,70.39,174.14,68.75,175.3,68.7Zm-7.4.07c1.28,0,1.57,2.86.32,4-1.05,1-2.65,0-2.15-1.93.25-1,.83-2,1.83-2.1Zm3.65.46c1.87.32,1.71,4.91-.74,4.45C169.41,72.71,169.44,69.3,171.55,69.23Zm-8.21,4.92,2.65.24s-3.43,7.43-6.57,10.27c-1.17,1.19-1.85,1.24-1,0C160.43,82.2,163.34,74.15,163.34,74.15Zm15.9,0a127.06,127.06,0,0,0,5.25,12.55c-3.21-3.1-6.05-7.86-8.68-12.33Zm-12.47.4,1.76,0a13.15,13.15,0,0,0,2.78,5.85,26.09,26.09,0,0,0,2.31-5.69l1.4,0c.53.32-1.64,8.39-3.77,9.37-2.26-1.84-4.16-6.79-4.48-9.53ZM166,76.5c-.15.19,2.73,7.1,5.16,9.32a18.88,18.88,0,0,0,4.74-8.65l7.54,10.58-7.35-5a36.92,36.92,0,0,1-4.9,6.7,88.9,88.9,0,0,1-5.6-7.23c-2.83,2.1-4.82,4.35-8.5,6.31C157.13,88.58,164.33,80.73,166,76.5Zm-.7,7.52,5.12,6.27L156.8,90.1Zm11.1.1,8.62,5.93-12.84.14ZM107.78,87a3.91,3.91,0,0,0,.16.6c1.52,6.24,5.74,11.43,12.09,10.81L99.17,119.31A121,121,0,0,0,88.74,95.63l2.27.46A5.44,5.44,0,0,0,93.35,96c.53-.08.94-.43,1.42-.53a4.84,4.84,0,0,1,2.35.31c1.43.27,2.41-.53,4.2-2.12.48-.42.66-.32,1.26-.31,2.25,0,3.69-1.93,3.43-4.92l-.11-1.33-.29,1.5c-.53,2.81-.91,4-3.7,4.15-.67,0-.93.48-2,1.4-1.5,1.28-2.56,1.39-3.61.89s-1.19-.21-2.21.27a6.59,6.59,0,0,1-4.4.06c-2.14-.62-1.88-.41-1.88-.41,12.4,22.06,16.76,43.23,16.48,62a120.25,120.25,0,0,1-18,61.44s1.41-.14,2.66-.33a2.62,2.62,0,0,1,1.67.21,3.09,3.09,0,0,0,1.53.12,11.21,11.21,0,0,1,2.15.11c1.52.21,1.62,0,3.28-1.6,4.72-4.58,4.41-4.41,7.83-4.3,5.12.17,9.22,3.55,10.93,9,.22.7.5,1.67.54,1.67l-.33-1.45c-1.5-7.35-7.79-10-13-9.94l22.15-22.21c-.11,0,5.13,16.9,9.7,24.42a8.86,8.86,0,0,0-3.93-.27,13.72,13.72,0,0,1-3.81-.16c-1.12,0-1.8.31-3.19,1.46a7.33,7.33,0,0,1-2.24,1.51c-2.69,1.14-3.77,2.32-3.78,5.27,0,.54-.08,1.23-.08,1.49,0,.07,0,.2,0,.2s.11-.11.16-.19a5.26,5.26,0,0,0,.62-2c.37-2.21.83-3,2.92-4a17,17,0,0,0,2.54-1.56c1.93-1.54,2.57-1.89,4.14-1.52a7.56,7.56,0,0,0,2.84.17,5.5,5.5,0,0,1,3,.14c1,.27,2.31.53,2.31.53-21.47-43.11-20.76-83.07.43-123.62,0,0-6.27.07-6.54.24a6.14,6.14,0,0,1-1.69-.16c-1.71-.31-1.34-.1-5.37,3.95-5,5-12.94,1-15.34-7.39a3.79,3.79,0,0,0-.42-1,2.28,2.28,0,0,0-.22-.27ZM128.07,92c.93.1,1.61.34,1.5,1.2l-29.57,29-.46-1.86Zm6.24.18c-.37.71-1.35,1.61-1.79,2.29l1.61,2-.89,1.62L130.77,96l-4.71,4.64L130,105l-3.71,3.75-1.24-1.4,2-2.06-3.06-2.85-5.37,5.22,4.38,4.45-3.21,3.08L118.45,114l1.69-1.86-2.86-3-5,5.11,4,4.41-3.06,3-1.36-1.37,1.47-1.53-2.83-3-5.1,5,4.14,4.49-3,2.72L105.38,127l1.47-1.58-2.78-3-3.16,2.87-.53-2,31.31-31.1Zm1.8.46-1.32,2.64-1-1.12,1.33-1.36Zm-73.84.17c-.81.19-19.45,10.58-30.06,22l0,4.25-.39.51.19,6.57.26.35.09,2.68-.42.71v7.36l.56.09.09,9,17.44.05,0,43S39.73,178.1,32.36,171.46l0,5,19.5,20.15a15.26,15.26,0,0,0-5.72,2,21.74,21.74,0,0,0-13.64-2.74l0,5.12a19.39,19.39,0,0,1,13.73,3.48c4-2.73,8.88-4.38,16.11-2.22a48.3,48.3,0,0,0,4.77,6.81l-34.53.26,0,10.37c1.53,0,5.36,0,5.36,0,1.94,3.81,5.76,9,7.34,15.54-2.17,2.61-2,4.71.12,7.35,0,1.18-.38,2.49,1,3.82,4.4-2.15,9.36-1.2,13-.1,1.25.37,1.72-1,1.68-2.85-.11-1-.11-1.46.68-2.15,1.88-1.63.71-5,.42-5-.11-2.93,9.29-17.63,9.3-17.36l-1.88.68-8,0c21.14-20.39,30-43.64,28.12-69.89a41.38,41.38,0,0,0-1.44-9.65c-7.44,3.31-13.56,5.71-19.51,12.08l-.39-13.68a3,3,0,0,0,3.52.41c.68-.44.75-.91.12-2.57-.91-2.41-1.12-7.58-.44-9.34a9.08,9.08,0,0,0,.2-1.29c.08-.72-.08-.76-.15-.75.18,0,.9.11,1,0a13.63,13.63,0,0,1,8.61-3.78l.08-1.63c-2.48-6.26-4.58-8.71-6.82-12.21a2.65,2.65,0,0,0-1-.13l.52-.54c-3.15-5-7.64-9.55-11.76-13.87,0,0,0,0,0,0Zm-.14.85,2.24,2.06c-10.67,5.13-21.19,12.64-31.55,22.82l.14-3.74A134,134,0,0,1,62.13,93.63Zm68.5,3.74L132,98.71l-1.86,2.16,1.21,1.23-.68,1.65-3.09-3.22ZM64,97.54a1.27,1.27,0,1,1-1.27,1.27A1.27,1.27,0,0,1,64,97.54Zm91.27,1.76c21.74,24.19,10.58,59.36-18.44,67.81l-.33-2c29.28-9.86,36.15-42.86,17.15-63.6Zm-87.5.16,1.39,1.6C56.8,107,44.71,115.85,33,128.64l-.12-3.23A124.3,124.3,0,0,1,67.81,99.46Zm-8,.49a1.27,1.27,0,1,1-1.28,1.27A1.27,1.27,0,0,1,59.82,100Zm-3.88,2.39a1.28,1.28,0,1,1-1.27,1.27A1.27,1.27,0,0,1,55.94,102.34Zm12.9.84a1.27,1.27,0,1,1-1.27,1.27A1.27,1.27,0,0,1,68.84,103.18Zm55.22.87,1.27,1.35-2,2,2.87,3,2.76-2.66-1.38,4-24.35,24.33-.51-2.55,1.92-1.93-2.94-2.93-.52-2,2.89-2.7,1.21,1.24-1.69,2,2.72,2.68,4.94-4.55-4.07-4.47,3.36-3.26,1.16,1.14-1.61,1.65,2.84,3.07,5.06-4.85-4.16-4.4,3.35-3.3,1.27,1.21-1.69,2,2.88,2.79,5-4.9-4.08-4.29Zm-71.91.86a1.27,1.27,0,1,1-1.27,1.27A1.27,1.27,0,0,1,52.15,104.91Zm20.05.25,1,1.6c-14.76,7.46-25,14.92-40.06,32.08v-2.16C44.77,122.37,56.89,113.14,72.2,105.16Zm-7.41.19a1.27,1.27,0,1,1-1.27,1.27A1.27,1.27,0,0,1,64.79,105.35Zm114.17.48c2.6,2.32,8.07,4.63,11.59,4.38l.09,2.79c-6.14.58-11.51-3.35-11.51-3.35a18.22,18.22,0,0,1-14.57,2l-1.93-4.14C170.08,111,177.06,107.67,179,105.83Zm-29.41.76a4.56,4.56,0,0,0,1.19,1.09c5.74-1.5,7.52,4.41,4.85,7.79l.76,2.47a6.86,6.86,0,0,1,2.65,1,4.78,4.78,0,0,1,2,4.4c.19,1.9-2.66,3.68-2.81,3.54l0,2.73a10.82,10.82,0,0,1,2.38,2.26,4.26,4.26,0,0,1-1.28,6.07,4.45,4.45,0,0,1-2.68.87l-1.32,3.1a3.62,3.62,0,0,1,1.67,2.57,4.91,4.91,0,0,1-2.35,4.83c-1.92,1-4.55.12-4.55.12l-1.88,1.88a6.33,6.33,0,0,1,.36,3.55c-.63,2.36-3.11,3.29-5.1,3.11a5.08,5.08,0,0,1-2.74-1.28l-2.08.8c.06,0,0,2.64-1,3.44a13.06,13.06,0,0,1-1.51,1.11l-.27-1.82a3.56,3.56,0,0,0,1.17-3.09l4.5-2.2a4.49,4.49,0,0,0,2.07,1.53,3,3,0,0,0,3.54-2.59,9.54,9.54,0,0,0-.69-2.3l3.82-4c1.58.54,2.69.64,3.4.23a3.1,3.1,0,0,0,1.44-3.32,4.51,4.51,0,0,0-1.38-2l2.13-5.38a3.87,3.87,0,0,0,2.38-.67,2.9,2.9,0,0,0,.7-4,3.09,3.09,0,0,0-2.1-1.35l.16-5.59s2.15-1,2.38-2.29c.35-1.83-.43-3-2.69-3.52-1.25-.29-1.18,0-1.18,0l-1.79-5.06c2.83-1.73,1.93-4.47.5-5.39s-3.64-.07-3.64-.07-1-1-1.71-1.74Zm-75.66,1a59.48,59.48,0,0,1,6.76,12,6.36,6.36,0,0,1,0,1.19c-5,.44-6.74,2.4-8.52,3.79-1.38-.71-2-1.54-4.47,0,0,.07-6.37-3.85-7.59-9.18A145.08,145.08,0,0,1,73.89,107.61Zm-25.47,0a1.27,1.27,0,1,1-1.27,1.27A1.27,1.27,0,0,1,48.42,107.65Zm12.06.25a1.27,1.27,0,1,1-1.27,1.27A1.27,1.27,0,0,1,60.48,107.9Zm87,1.56c2.2,2.88,5.5,8.34,6.29,13.17,1.1,6.8.36,13.93-2.75,18.91-5.66,10.65-15.46,12.92-15.47,13.29l-.1-2.19c.1.49,7.5-2.62,12.54-9.66a27.86,27.86,0,0,0,4.27-16.91c-.37-7.66-5.81-14.73-5.86-14.76Zm-103,1a1.27,1.27,0,1,1-1.27,1.27A1.27,1.27,0,0,1,44.46,110.5Zm12,0a1.27,1.27,0,1,1-1.27,1.27A1.27,1.27,0,0,1,56.5,110.52Zm108.57,2.14c2.83.31,6.28,5.42,9.42,8.34l0,41.71-9.38.19c-1.22,2.94-4.06,5.84-8.57,8.7V156c15.39-16.49,11.2-34.54,8.5-43.31ZM41,113.14a1.27,1.27,0,1,1-1.27,1.27A1.27,1.27,0,0,1,41,113.14Zm11.59.22a1.28,1.28,0,1,1-1.27,1.28A1.28,1.28,0,0,1,52.59,113.36Zm119.1.1,19.18,19.34-.07,2.84-21.61-22ZM59.63,115.28l.5,2.43c-.62-1-.64-1.33-1.71-1.5ZM49.24,116A1.27,1.27,0,1,1,48,117.26,1.27,1.27,0,0,1,49.24,116Zm-11.48.35a1.28,1.28,0,1,1-1.27,1.28A1.27,1.27,0,0,1,37.76,116.34Zm107.9,0,3.79,2.69-1.23,4.83-3.88-3.48Zm-87.5.4.67.4-.78,3.3-8.71,3.15a65.58,65.58,0,0,1,8.82-6.85Zm1.43,1.54a44,44,0,0,0,3.61,9.14c-1.12.58-5.14,2.86-5.13,3.91.57,1.92,4.82,3.68,4.82,3.68a48.68,48.68,0,0,0-4.4,9.23c-.72-1.24-.81-6.11.76-8.14A20,20,0,0,1,54,132.67c1-3.66,5.44-5.85,5.64-5.88-.08.19-1.31-7.64,0-8.51Zm-14.15.61a1.28,1.28,0,1,1-1.27,1.27A1.27,1.27,0,0,1,45.44,118.89Zm97.08.11c5.66,10.54,2.29,19.69-6.73,26.26l.21-2.49c6.22-4.52,10.26-13.41,5.71-21.89Zm-107.82.3a1.27,1.27,0,1,1-1.27,1.27A1.27,1.27,0,0,1,34.7,119.3Zm90.51.07a126.27,126.27,0,0,0-4.53,26.76l-16.12.14-.63-5.58Zm-64.4.42s3.5,3.25,6.64,6.08l-.38.74L64,127A60.5,60.5,0,0,1,60.81,119.79Zm-2.89,1.7h0l.2,2.3c-1,0-12.39,4.7-21.09,12.26a26.7,26.7,0,0,1,5.6-6.35C47.15,125.29,57.92,121.49,57.92,121.49ZM41.8,122a1.27,1.27,0,1,1-1.27,1.27A1.27,1.27,0,0,1,41.8,122Zm7.14,1.45.65.66-3,1.56Zm21,.67H70a1.61,1.61,0,0,1,.93.5,6.85,6.85,0,0,0-1.72-.16A1,1,0,0,1,69.91,124.14Zm-11.51.48.28,1.73c-6.52,3.7-14.28,7.21-25.57,17.88v-3.55A81.44,81.44,0,0,1,58.4,124.62Zm8.78.17a2.28,2.28,0,0,0,1.13,0s-.23.47-.51.48S67.18,124.79,67.18,124.79Zm2.76.1c.82-.06,1.38.69,1.22,1.66a20.21,20.21,0,0,0,.07,8.91c.53,1.8.66,2.44.22,2.74-3.84,2.65-6-9.3-2.74-12.69A2,2,0,0,1,69.94,124.89Zm-31.39.41a1.28,1.28,0,1,1-1.28,1.27A1.27,1.27,0,0,1,38.55,125.3Zm110.49.3,2.39,4-3.33,3.73-2-4.34Zm-82.3,2.17-.12,1.39a12.33,12.33,0,0,0-4.5,2.35c-.25.22,4,2.12,4.42,1.68v1.48c-.06.48-7-1.72-7.46-3.36C59.86,130.22,64.24,127.68,66.74,127.77Zm-31.54.74a1.27,1.27,0,1,1-1.27,1.27A1.27,1.27,0,0,1,35.2,128.51ZM54.1,130a10.05,10.05,0,0,0-1.36,3.53c-4.75,2.89-9.63,5.58-15.56,12.2l-3.2,0-.07-.84C40.39,138.66,47.42,133.32,54.1,130Zm12.26.4,0,1.74a4.76,4.76,0,0,1-2.54-.76,4.66,4.66,0,0,1,2.51-1Zm35.78.19.89.93-.56.52ZM54,134.18l1.76,1.09A48.77,48.77,0,0,0,42.28,145.7H38.8C43.2,140.92,48,136.64,54,134.18Zm93.91,1.25.35,4.74-4.42,2.42.08-5Zm-84.1,0,3,.33.31,1.29a47.91,47.91,0,0,0-6.89,5.5,26.63,26.63,0,0,1,3.54-7.12Zm-7.29.51,1.3.6-.52,2.23a34,34,0,0,0-9.87,6.91H43.81A50.85,50.85,0,0,1,56.48,136Zm11.31,2.09h0l.47,14.59C55.14,168,55.86,182.9,59.69,196.39l-2.51-.11A87.8,87.8,0,0,0,50.4,189V146.52l9.06,0c2.13-4.94,8-8.46,8.34-8.5Zm-10.69,2,.11,2a25.45,25.45,0,0,0-4.83,3.65H49C51.33,143.51,53.66,141.3,57.1,140.1Zm30.88,1,.5,2.29c-30.49,11-36,43.1-18,65.11l-1.22,1.36C48.59,187.63,57.66,151.39,88,141.06Zm-30.64,2.29s.17,1.76.22,2.35H54.14A6,6,0,0,1,57.34,143.35Zm85.81.74-2,4.58-5.24.08,2.38-4.58ZM110,147.22h4.77v4.57H110Zm-20.68.46.08,2c-2.12,1.08-1.59,2.8-2.12,2.77a36.2,36.2,0,0,0-4.75,2.16,3,3,0,0,0-3.63-.29c-1.06.69-1.29,2.31-1,3.68l-3.65,4.26c-1.76-.75-3.48-.7-4.33.47-1,1.33-.6,3,1,4.82l-2,5.1c-.23-.31-3.55.67-3.6,2.65S68,178.75,68,178.91l-.13,5.63c-.13-.27-2.86.84-2.49,3.54.34,2.48,3.72,2.18,3.79,2.39l1.84,5.38c-.13-.16-2.49,2.15-1,4.34,1.21,1.83,4.72.65,4.69.53l1,1.37-1.08,1.17s-.46-.56-.72-.51c-2.05.39-4.33-.08-5.42-1.71-1.49-2.3.17-5.89.7-5.86l-1.26-3.11a4.61,4.61,0,0,1-4.35-3.82,5.35,5.35,0,0,1,2.74-5.08l.09-3.36c-.18.2-2.92-1.75-2.86-4a5.48,5.48,0,0,1,3.12-4.32l1.25-.59L69,168.16a7.23,7.23,0,0,1-1.2-4.69c.78-3.57,5.43-3.33,6.17-3l2.16-2.71a4.39,4.39,0,0,1,3.17-5.8,17.47,17.47,0,0,1,4.06.54l2.77-1.43C86.1,149.58,87.75,148.6,89.28,147.68Zm15.73,5h4.09v4.57H105Zm10.91,0h4.61v4.57h-4.61Zm-26.31,1.15,0,1.74C63.12,168.38,73.93,194.92,77.71,198l-.85,1.88C72.22,197.06,60.26,166.44,89.61,153.82ZM110,158.44h5l0,4.69h-5Zm-21.5,2.28L86.89,165,82,165.4l1.8-4.26Zm99.19,3.13H191c-6.21,7.27-12.91,12.22-19.52,14.93a3.17,3.17,0,0,1,.18-1.16,3.52,3.52,0,0,0-.1-1.43A47.25,47.25,0,0,0,187.65,163.85Zm-17,.06a10.76,10.76,0,0,1-3,2.6l-.48-2.65c1,0,3.52,0,3.52,0Zm5.85-.06c.33.85-8.72,5.73-8.75,5.32l0-1.63,4.89-3.62Zm2,0H181c-2.3,3.64-14.48,10.23-14,9.3l.49-2.66a54.9,54.9,0,0,0,10.91-6.65Zm4.3,0h3.35c-5.05,6.41-10.16,8.75-15.07,11.5a2.39,2.39,0,0,0-1.08-.12l-1.68-1.31C168.56,174.22,179.53,167.79,182.73,163.85Zm-93.82.23L88.8,166c-7.06,6.07-9.89,13.83-6.22,22.83l-.87,1.92C77.76,181.16,78.93,171.82,88.91,164.08Zm32.14.3.37,5.23L99.51,190.93a155.65,155.65,0,0,0,5.16-26.52Zm70.15,1.23v2.9c-8.64,9.51-17.34,13.78-24.86,15.5l-.18-1.11,3.49-2.15c11.22-4.89,16.13-9.81,21.54-15.14Zm-26.21.08c.15,2.09-1.72,6.05-3.85,8.28h-3.65l-.41-1.58A23.58,23.58,0,0,0,165,165.69Zm1.1.62c1.34,2.16-.67,7.75-.76,7.53-.16.38,11.48,2.84-.47,8.6.26,1.69,1.38,5.3.51,7.54-.27-.86-2.35-6.65-4-8.14,3.73-1.06,6.42-3.34,6.13-4.1-.61-1.07-2.28-2.38-5.1-3.35a20.36,20.36,0,0,0,3.64-8.08Zm-85.48,1.06.37,4.4-4.25,2.56-.33-4.83Zm74,4.09a1.14,1.14,0,0,1,.8.26c2.1.85,2.25,11.09.35,12.14a1.51,1.51,0,0,1-2.31-.78c.91-4.72.34-7.63,0-10.93C153.41,171.68,154,171.45,154.57,171.46Zm36.63.15v3.65c-12.35,12.8-25.65,22.88-39.23,28.55l-1.24-2.1A123.23,123.23,0,0,0,191.2,171.61ZM189,172c-5.72,8-12.68,13.15-22.23,15.51l-.18-2.26C178.51,182.5,189.34,172,189,172ZM33.4,173.24c7.45,7.61,15.08,15.16,22.66,23l-3,.16L33.31,175.89Zm88.66.38.27,1.87-2.17,2.38,3.42,3.68.18.87-2.94,3.08-1.33-1.32,1.63-1.82-2.76-2.91-5.12,4.93,4.21,4.58-3.18,3L113,190.69l1.62-1.88-2.82-3L106.6,191l3.94,4.36-2.63,2.91L106.66,197l1.36-1.56-2.87-2.94-5,4.83,4.13,4.56-3.36,3.34L99.61,204l1.89-2-3.1-3-2.48,2.35s.94-2.33,1.07-2.72c.2-.58,1-1,6.24-6.18,6.23-6.2,12.62-12,18.83-18.78Zm35.72,1.25a17.82,17.82,0,0,1,6.42,1.26c2.79,1.47,1.91,2.63.1,3.49a14.67,14.67,0,0,1-6.39,1.61L158,180a16.6,16.6,0,0,0,4.15-1.38,2.85,2.85,0,0,0,1.09-.87,6.46,6.46,0,0,0-2.18-1.34,17.53,17.53,0,0,0-3.15-.48Zm-81.46,1.58,2.29,3.44-2.71,4.55-2.61-3.93Zm46.23.37c.08.65.9,3.17.47,2.68l-1.52-1.71Zm35.37.34a11,11,0,0,1,3.53.59A7.28,7.28,0,0,1,158,179Zm31.8,1.72a1.39,1.39,0,1,1-1.39,1.38A1.38,1.38,0,0,1,189.72,178.88Zm-71.51,2.4,1.18,1.14-1.52,1.78,2.77,2.92,3.43-3.21.45,2L92.38,217.57l-1.78-.13,2-2.41-2.32-2.38,1-1.71L94,213.38l5-4.8L95,204.29l3.48-3.57,1.31,1.13-2,2.17,2.91,3,5.25-5.18-4.11-4.47,3.28-3.13,1.21,1.14L104.78,197l3,3.12,4.43-4.61-4-4.44,3.58-3.49,1.1,1.1-1.65,1.84,3,3.12,4.84-5-4-4.31Zm68.29.82a1.39,1.39,0,1,1-1.38,1.39A1.39,1.39,0,0,1,186.5,182.1Zm-26.12.07a15,15,0,0,1,3.75,8.48,25.71,25.71,0,0,0-6.87-7l.5-1.29Zm30.82.2v3.1a105.46,105.46,0,0,1-33.69,25.13l-2.07-2.51C169.8,201.68,180.18,193.73,191.2,182.37Zm-14.33,2.16-3.94,3.07v-1.33l4-1.74Zm-20.34.23a15.91,15.91,0,0,1,7.86,8.52A149,149,0,0,1,150,200.82a66.32,66.32,0,0,1-6.44-12c7.4,0,9.43-4.1,9.48-4.13C154.79,185.4,155.16,185.48,156.53,184.76Zm26.59.6a1.43,1.43,0,0,1,1.41,1.34,1.39,1.39,0,0,1-2.77,0C181.91,185.74,182.51,185.35,183.12,185.36Zm-10.24.92v1.33c-1.89,1.66-5.56,4.34-5.56,4.34l-1.52-.08.49-3.8a60,60,0,0,0,6.58-1.79Zm-96.69.15,3.63,3L78.71,194l-3.57-2.71Zm48.68.87.34,1.34L95.43,218.09l-1.7-.28Zm54.95,1.14a1.39,1.39,0,1,1-1.38,1.39A1.39,1.39,0,0,1,179.82,188.44Zm11,0c.16,0,.36,0,.36.15v2.54a1.27,1.27,0,0,1-.47.09,1.31,1.31,0,0,1-1.28-1.39A1.39,1.39,0,0,1,190.82,188.43Zm-3.36,3.09a1.39,1.39,0,1,1-1.39,1.39A1.38,1.38,0,0,1,187.46,191.52Zm-11.64,0a1.39,1.39,0,1,1-1.39,1.38A1.38,1.38,0,0,1,175.82,191.54Zm-10,.42,1.42,0-2.64,1.58A11.11,11.11,0,0,0,165.8,192Zm25.39.65,0,2.85a110.51,110.51,0,0,1-28.57,20.68L161,214.45a107.14,107.14,0,0,0,30.22-21.84Zm-19.34,1.56a1.39,1.39,0,1,1-1.39,1.38A1.39,1.39,0,0,1,171.85,194.17Zm12.32.1a1.39,1.39,0,1,1-1.39,1.39A1.38,1.38,0,0,1,184.17,194.27Zm-138,5.56c4.71-2.73,8.48-3.05,13.87-2.22l1.61,3.17c-5.25-.93-10.77-.85-15.49,2.8-4.9-3.09-8.62-4-12.64-3.48l-.07-3.35a18,18,0,0,1,12.72,3.08Zm121.85-3a1.39,1.39,0,1,1-1.39,1.39A1.39,1.39,0,0,1,168,196.81Zm12.67.57a1.39,1.39,0,1,1-1.39,1.39A1.38,1.38,0,0,1,180.7,197.38Zm-16.84,2.07a1.39,1.39,0,1,1-1.38,1.39A1.39,1.39,0,0,1,163.86,199.45Zm12.92.81a1.39,1.39,0,1,1-1.38,1.38A1.38,1.38,0,0,1,176.78,200.26Zm-17.19,1.64a1.41,1.41,0,1,1-1.4,1.4A1.41,1.41,0,0,1,159.59,201.9Zm13.49,1.16a1.39,1.39,0,1,1-1.39,1.39A1.38,1.38,0,0,1,173.08,203.06Zm-17.59,1a1.39,1.39,0,1,1-1.39,1.39A1.38,1.38,0,0,1,155.49,204Zm-61.25,1.25,3.44,3.16L94.12,212l-1.31-1.26,2-2.07-1.35-1.81Zm75,.31a1.39,1.39,0,1,1-1.39,1.39A1.38,1.38,0,0,1,169.26,205.58Zm-4,2.35a1.39,1.39,0,1,1-1.39,1.38A1.38,1.38,0,0,1,165.27,207.93Zm-4.34,2.35a1.39,1.39,0,1,1-1.38,1.39A1.39,1.39,0,0,1,160.93,210.28ZM89.68,214.2l1.12.92L89,217.24l-1.35,0Zm-21.77,5.73a33.75,33.75,0,0,0-8.53,5.56l-3.92-5.44Zm-26.72,0,10.46.15L48.17,225A21.12,21.12,0,0,0,41.19,220Zm12.46.54c1.13.36,4.1,4.58,5.49,6.89,3-2.37,5.89-5,9.07-6.43a70.37,70.37,0,0,0-9.46,12.1c-.67-1.79-2.53-6.94-4.88-9.18a21.41,21.41,0,0,0-5.19,7.66,67.17,67.17,0,0,0-7.19-10c-.46-.62,3.39,1.78,7.2,5.49,1.07-2.71,4-6.41,5-6.51Zm-12.56,2.65c1.79,1.43,6.68,7.69,7.24,11.46l-2.34.15c-1.24-3.87-3.33-7.74-4.9-11.61Zm26,.64c-1.77,3.63-4,7.33-5.54,11.35l-2.31-.1C61.78,229.52,62.7,228.51,67.1,223.8Zm-13.26,1.62a.06.06,0,0,1,.06,0,21.66,21.66,0,0,1,3.89,9.46l-1.7-.07a32.74,32.74,0,0,0-2-4.82c-.53-.76-1-.67-1.32,0a20.68,20.68,0,0,0-1.62,4.65l-2-.14c-.36-2.69,4-9,4.65-9.06Zm-.31,10.33c.8,0,1.63.87,1.62,2.38.06.71-.49,2.28-1.08,2.36-1.11.59-2.42-1.24-2.09-2.76C52.26,236.43,52.83,235.74,53.53,235.75Zm-3.84.28c1.57.14,1.9,3.66,1.27,4.38a1.88,1.88,0,0,1-2.85-1C47.48,237.77,48.63,236.05,49.69,236Zm7.74,0c1.7.24,1.27,4.11.39,4.67-1.37.73-2.42-.48-2-2.3.38-1.46.93-2.33,1.57-2.37Zm4,.64c2,.22.82,3.62,0,4.32-1.24,1-2.44-.48-1.85-2.21.47-1.34,1.23-2.12,1.88-2.11Zm-15.81.11c1.43.22,2.25,3.45,1.41,4.37-.45.53-1.74-.24-2.32-1.13-.71-1.06,0-3.25.91-3.24Zm15.17,7c.16,1.69-1.11,1.69-4.79.86a21.92,21.92,0,0,0-6.83.15c-2.83.52-3.24.32-3.23-.83,0-1.34,1.59-2.1,5.27-2.21C53.79,241.67,60.33,241.64,60.74,243.78Zm5.71-1c-4.38.42-5.54,5.9-5.06,7.93A26.41,26.41,0,0,1,61,260a28.21,28.21,0,0,1-1.64,5c-1.15,2.29-.85,4,.86,4.91a3.48,3.48,0,0,0,4.21-.67c2-2.1,2.19-6.56,1-16.69-.42-3.57-.19-4.29,1.54-4.09,3.64,0,3.49-5.63-.47-5.64Zm-.52,4.61c-1-.37-1.65.52-1.52,2.73a29.23,29.23,0,0,0,.34,3c1.41,9.72.88,16.23-2.1,16.55-2.6.42-4.36-1.5-3.09-3.47.72-1.12,1.34-1.28,2.73-.69,1.92,1.19,1.44-.54-.29-1.82-1.1-.78-1.19-.78-.59-3.24a28,28,0,0,0,.77-9.85c-.41-2.95.58-6.88,4.35-7.11a2.08,2.08,0,1,1-.6,3.93ZM39,260.19a4.21,4.21,0,0,0,3.62,0c.46-2.06.49-3.78,1.88-6.59-2.31-2.32-6.21-1.41-7.31,1A4.06,4.06,0,0,0,39,260.19ZM42.75,253c1.41.3,1.2,1.77-.12,1.29-3.15-1.48-5.72,3-3.18,4.66,1.3.73,1.87.31.58-.69-.52-.6-.39-.85-.07-1.46.66-1.22,3.06-1,2.89-.13-.55,2.82-.91,3.64-1.76,3.64C36.2,260.59,35.28,251.43,42.75,253ZM84.3,258.1S69.73,274.57,62.71,283l87.95-.41-16.74-23.09C119.57,262.83,102.7,261.87,84.3,258.1Zm-.44,5.27c2.2,0,4.7,1.62,6.86,6.93.11.05,9.67-14.51,17.94.57,1.35-3.39,9.14-12.21,18.15-.88,3.2-7.59,10.58-5,11.27-2.38-.16-.57-7-2.2-10,2.83-.55,1.06-.58,2.07.05,2.67a1.46,1.46,0,1,1-2.06.21c1.5-1.11-1.57-4.58-4.08-5.83-3.46-1.71-8.28-.95-10.6,1.5a8,8,0,0,0-2.19,3.46.9.9,0,0,0,.23,1c1,1.22.34,2.88-1,2.68-1.78-.27-1.55-1.93-.35-2.84.36-.18.22-.4.11-.71-3.25-9.16-15.38-7.41-16.69-1.07a1.91,1.91,0,0,0-.1.71c.14.6.49,1.12.36,1.59a1.58,1.58,0,0,1-3.11-.22c-.05-.73.75-1,1.13-1.63a1.51,1.51,0,0,0,.12-1.4c-3.29-6.88-8.93-5.44-11.72-3.88-.06,0,2.5-3.31,5.71-3.27Zm-3.64,4a4.13,4.13,0,0,1,3.31,1.73c3.45-1.82,5.89,1.33,5.49,1.64-4.88-3.17-6.46,4.21-1.66,3.93-2.11,4.36,5.43,6.23,4.59.65,4.65,1.63,5.42-4.76.7-4.67,1.53-2.63,5.48-1.91,7.15-.26,2-2.4,6.8-.11,7.28,1.94-5.42-2.77-6,5.71-.72,3.91-1.55,5.39,6.78,4.62,4.48,0,5.19,1.71,4.48-6.05-.62-4.48-.31-.4,4-4.89,7.2-.67.42-.74,5.35-3.18,8,.64-5.84-2-4.74,5.9-.55,4.33-1.12,5.22,6.44,4.37,4.51-.07,5.86,1.48,3.26-7.45-.85-4.15.67-3.59,5.59-2.1,5.54-1.55,0,0,2.61-2.83,5.54-.76-4.57.39-3,6.56,1.3,4.8,0,2.09,1.7,3.48,4,2.77l3.7,5.17-84.31.53,6.73-8c2.26,1.86,4.59,1,4.88-1.94,4.9,3,6.18-4.13,1.58-4.44a5,5,0,0,1,2.63-1Zm-4.72,2.32c.29.2-.1,1.2-.75.91Zm65.74,2.07c.25.36.43.59.68.95S140.6,272.53,141.24,271.75Z" transform="translate(-5.81 -14.26)"/>
  </g>
</svg>
