<svg xmlns="http://www.w3.org/2000/svg" viewBox="0 0 212.6 291.11">
  <defs>
    <style>
      .a {
        fill: #131f67;
      }

      .b {
        fill: #e2cf00;
      }

      .c {
        fill: #d40000;
      }
    </style>
  </defs>
  <title>QH</title>
  <g>
    <path class="a" d="M193.21,24.94,30,25l1,262,163.78-.34C193.5,199.33,193.38,112.14,193.21,24.94ZM174,27.14l17.21.09V128.05s-1.07,0-1-.74a5.21,5.21,0,0,0-.67-3.45,7.16,7.16,0,0,1-.92-1.17,4.72,4.72,0,0,0-1.79-2.08c-.3-.13-.64-.2-.68-.4s-.14-.82-.27-1.4c-.31-1.45-.6-1.4.32-2.84,3.19-5,4.42-9.58,4-14.13a15.91,15.91,0,0,0-.65-3.51c-3.08,3.08-5.32,6.9-7.41,9.72a97.31,97.31,0,0,1-.47-10.3c1.64-.47,2.64-1.35,3.35-3.59,0,0,1.76,1.38,2.85,1.19l-.72-2.61c4.72-1.45,5.37-7.61-.21-8.91l.51-3.24s-1.69.56-2.43.92c-.36.16-.46,0-.71-.5-2.6-4-6.64-3.18-8.42.81l-2.18-.93a8.58,8.58,0,0,1,.32,3.33c-4.57,2-3.44,7.6.21,8.33l-.32,2.6,2.74-.89c.4,1.23.2,1.93,2.39,3.31-.05,5.45-.14,8.86,0,13.7a22.6,22.6,0,0,0-10.45-6.45,16.47,16.47,0,0,0,.23,3c.1.59.08.5-.2.5-.63,0-3.46-4.57-3.46-4.57a1,1,0,0,0-.62.29c-.34.34.43,1,1.52,2.56,1.27,1.89,1.14,1.81.15,2.65-5.67,4.81-13.84,23.1-12.47,24.88-3.58.21-17.53,7-20.07,21.16-.15.63-.45,1.46-.45,1.46l-4-1c2.43-11.55,7.93-35,7.93-35a48.77,48.77,0,0,1,6.12-1.34l0-.91-5.31,1.24.25-2,5-1,0-.48-5.31.71.87-3.35s-11.92,1.75-16.2,1.63c.27,13-.75,23.86-.2,37.9l-5.83-3.53c-.52-9.78-.67-34.48-.67-34.48l-16.1-2.53.53,3.88C86.94,111.1,73.55,106.24,63.7,95.9c6.06-4.66,16.19-9.28,16.19-9.28l-.33-.74C54.66,98.72,45.41,107.63,32.9,118.7l-.34-91.47,68,0-.22,16.68a1.8,1.8,0,0,1-.22.58c-.83,4,1.55,11.21,1.07,14.71a16.65,16.65,0,0,1,.15,3.08,50.49,50.49,0,0,0-8,17.29,26.54,26.54,0,0,1-2.45,1l-.21.88a51.69,51.69,0,0,1,6.11-2.3c20.11,9.8,34.89,7.4,50.7.12-2.52,8.85,3,20.11,12,22.47a9.31,9.31,0,0,0,3.81.24c1-.29-2.27-7.81-3.72-8.09-4.36-1.88-6.16-6.32-5.69-11.41l-.72-1.21c-1.49,6.18,2.08,12.45,7,14l1.32,2.88c-8.89-2.67-12.68-11-9.72-19.24,0-5.14-3.28-7.41-4.81-9.63-7.73-3-9.17-10.11-7.82-15.9,3.6,1.53-2.42-5.09-2.42-5.09-2.66,5.75-3.77,13,2.3,20.37A52.69,52.69,0,0,1,124.29,81.5c-8.27,4.32-14.48,1.41-18.47-8.15a43.86,43.86,0,0,1-3.25-17.44c0-3.71.06-3.82,1.45-3.2a8.09,8.09,0,0,0,5.83-.19c2.3-1.19,2.19-.47-.32,2.11a12,12,0,0,0-1.41,1.47c0,.76,1.07.12,2.6-1.4.56-.55,1-1.08,1.15-1.08s.18.73-.05,1.5c-.09.29-.37,1.54-.63,2.77s-.6,2.67-.78,3.21c-.68,2.13-.49,3.12,1.55,4.1a15.82,15.82,0,0,1,2.9,2.28,9.15,9.15,0,0,1-.27-2.56c.19-.74,1.08-.21,2,.22,2,1,3.17,1,4.25.09a2.93,2.93,0,0,0-.78-4.75c-1.35-.54-1.58,0-.24.89,2,1.41-.25,3.58-2,2.24-1.34-1.06-3.66-1.18-3.92-.3s-.5.68-1.43.14c-1.44-.84-1.45-1-.24-5.64,2.28-8.79,2.06-12-1-14.69a8.24,8.24,0,0,0-9.79-.7v-3c5.64-2.25,9.75-6,13.06-12.22h.64c3.3,7.13,8.62,12.25,18.64,16,3.92,3.87-5-11.1-2.13-5A24.36,24.36,0,0,1,119,27.2h1.45a27.19,27.19,0,0,0,10.13,9,.75.75,0,0,0,1,0s-4.62-7.25-5.38-9l46.19-.33C171,38.15,168.88,50.37,177,72.28c-3.81-2-19.08,2.26-16.39,3.11,1.35-1.56,11.08-3.86,18.28-2.16-.59-.52-11-24.62-4.94-46.09Zm4.94,46.09s0,0,0,0Zm-35.68,43.41,0,1.76.37-.09-.21-1.71ZM101.51,27.2h2a4.88,4.88,0,0,1-2.09,2.16Zm3.49,0h2.18a16,16,0,0,1-5.69,5.62l0-2.12A28.65,28.65,0,0,0,105,27.2Zm3.6,0h2c-2.74,4.19-5.54,7-9.13,8.79V34.28C103.71,32.55,106.85,30,108.6,27.2Zm3.08,0h1.62a22.7,22.7,0,0,1-11.81,11.06V37A24.52,24.52,0,0,0,111.68,27.2Zm4.45,0h2a27.23,27.23,0,0,0,14.38,12.58l.93,2.16C125.32,39,120,34.82,116.13,27.2Zm5.65,0h1.4a20.48,20.48,0,0,0,5.33,5.09l1.26,2.45C127,32.85,123.83,30.56,121.78,27.2Zm2.55,0,1.56.08L128,30.72C126.58,30,125.54,28.37,124.33,27.2ZM122.54,41a8.64,8.64,0,0,0-5.5,1.72c-1.48,1.22-.39,2.54,1.75,1.55,3.65-1.7,7.84-.93,12.37,1.54,3.8,2.09,2.47-.09-1.08-2.41A14,14,0,0,0,122.54,41Zm-17.2,2.73c3.07,0,6.58,1.38,6.67,3.18-2-1.7-6.13-2.53-10.05-.78-.3-.06-.35-1.13-.17-1.52A6,6,0,0,1,105.34,43.77Zm18.58,1.16c-1.94,0-3.71.5-4.53,1.6-.42.51-.53.57-1,.49-.9-.15-.85.37.18,1.8a1.93,1.93,0,0,1-.25,2.42c-.77,1.08-.62,1.13,1.67,2.22a51.7,51.7,0,0,1,4.73,3c1.13.64,1.36.08.31-.77-.35-.29-1.42-1.05-2.37-1.67-1.62-1-2.81-2.12-1.53-1.65a7.56,7.56,0,0,0,1.4.38,12,12,0,0,0,4.71.28,8.12,8.12,0,0,0,3.4-1.8c.27-.12.54,0,1.21,0,2.55.1,2-.65-1.68-2.65s-6.47-2.34-8.79-1.25c-1,.46-1.54.57-1.4.28a2.22,2.22,0,0,1,.86-.91c3.75-2.24,6.77-.38,10.07,1.3,1.42.85,1.8,1.07,2,.8s-1.58-1.63-4-2.84A11.29,11.29,0,0,0,123.92,44.93Zm-12,2.59c.63.25.35,1-.23.75-3.46-1.56-4.16-2.31-8.28-.87-1.37.47-1.91.05-.23-.67,3.64-1.52,6.29-.49,8.74.79Zm-2.37,1.83c-.94,4.76-5.68,3.3-5.15,0h.87c.07,2.88,2.95,2.86,3.45,0Zm27.57,0,1.27,2.73a14,14,0,0,0,9.24,18.36s1.33,2,1.07,2.3C133.25,69.32,134.44,54.57,137.14,49.36Zm-14.66.18.43,0c1.34,3.32,3.28,1.42,3.66,0l1,0C127.25,53,122,53.62,122.48,49.54Zm-11.93.1c.62-.08.84.86.66,1s-1.19,1.16-1.33.5A1.25,1.25,0,0,1,110.55,49.64Zm-7.22.09h.16a1.65,1.65,0,0,1,.34,1.64c-.23.24-1.16-.09-1.34-.44A.83.83,0,0,1,103.33,49.73Zm25.1.32c.3,0,1.15.38,1.06.78,0,.1-1.19,1-1.45.82-.51-.27.19-1.5.29-1.58Zm-6.84.15h0a.88.88,0,0,1,.2,1.39,2,2,0,0,1-.9-.34C120.84,50.75,121.47,50.24,121.59,50.2Zm18.75,6c-.19,4,.85,7.79,5.16,10.25l-.93-1.69c-1.1-.88-3.42-3.4-3.13-6.39Zm-38.75,7.06.48,2.6A59.36,59.36,0,0,0,96.4,78.25l-2.24.82C95.94,73.35,97.59,68.82,101.59,63.29Zm.94,4.05.64,2.24A33.3,33.3,0,0,0,100,77l-2.48.92A36,36,0,0,1,102.53,67.34Zm7.86.93h-.11c0,.44,0,1.66.08,3.67,0,.38.39.22,1.44-.32s.82-.54,1.72-.25a6.54,6.54,0,0,0,4.55.23,3.19,3.19,0,0,1,2.92.29,6.62,6.62,0,0,0,1.24.53c.67.25.42-.05,0-1.87-.52-2.06-.29-2.28-1.12-1.75a3.1,3.1,0,0,1-1,.44c-.71.09-1.91-.79-2.63-.51-1.73.67-1.71.49-3.32.1-.8-.2-1.57.29-2.27.43C111.46,69.32,111,68.26,110.39,68.27Zm29.44,1.06c2.92,2.68,5.93,3.6,9.19,4.62-.4,1.33-1.18,2.83-1.55,4.57-17,9-34,8.69-50.1.55l8.35-3.19c4.56,7.89,10.4,10,17,7.42A44.32,44.32,0,0,0,139.83,69.33Zm-36.25,1.58.72,1.94-1.08,2.92-2,.83A16.72,16.72,0,0,1,103.58,70.91Zm15.33,2.25a17.65,17.65,0,0,1-3,.37,19.16,19.16,0,0,0-2,0c-.76.15.13.49,1.83,1s3.79-.25,4-1C119.78,73.34,119.55,73.13,118.91,73.16Zm-14.14,1,.45,1-.76.28Zm45.11.55,1.27,2.89c-2.19,4.75-3.65,17.76,11,21.81l.64,1.87C152.82,101.42,142.83,88.75,149.88,74.66Zm-33.54,1a6.4,6.4,0,0,0-3.9,1.1c-.87.69.2,1.13,1.33.58a6.25,6.25,0,0,1,5.37.24c1.1.75,1.67.62.93-.52C119.5,76.15,118,75.66,116.34,75.65Zm64,3.24c3.83-.07,4.23,5.42,3.49,5.89a5,5,0,0,1,1.8-.24c2.8.07,4.27,1.62,4.43,3.88s-1.57,3.54-4.09,3.41c-.93,0-1.57-.14-1.53,0,.47,1.81-.1,4.55-2.51,5.24a1.25,1.25,0,0,0-.68.6c-.18,2.88.65,12.78.65,12.78s4.51-7.59,5.52-8.74c2-2.71,2.35-2.47,2.35,2-.32,6.25-1.33,7.68-5,12.93-1.58,2.26-5.31,1.07-5,2.6a5.17,5.17,0,0,0,1.29,1.52,2,2,0,0,0,1.69.57c1.59-.06,2.21-.38,1.26,1-.75,1.1-3.39,1.33-3.69,1.9-.7,1.32-.22,1-1.41,2.19-.9,1-.59.49-.17,1.31.64,1,.37,3.16-.27,4.58a4.61,4.61,0,0,0-.47,2A7.47,7.47,0,0,0,179.9,131c.37-1.55.8-2.32.79-1.46,0,1.1.19,2.58,1.17,3.14.78.45.9.9.77,1.45s.47,1.07,1.07,1.55c.14.14.61.32.56.62-.16,1,.23,2.07.92,2.25.31.15,2.27,0,2.6-1.12,0-.35,0-1.81-.79-1.89-.55-.25-.49-.41.35-.91a11.16,11.16,0,0,1,2.77-1.39,3.33,3.33,0,0,0,1.63-1l.16,59.66a175.78,175.78,0,0,1-26.3,22.6c-6.24-5.19-13.06-10.46-20.29-14.39l-2.5-1.48.89-1.15-4.33-5.72,4.88-3.93,1.24,1.57-2.31,2.24,3.46,3.83,7.79-7.6-5.13-4.91,2.67-5,1.71.84L152.39,182l3.91,2.47,4.89-9.71-6.2-2.82,1.57-6.52,1.91.2-.64,4.7,4.83.95,2-11.07-7.09-1.26.6-6.32,2,0-.29,3.49,5,.71.95-9.65L158.84,146l.89-7.45,1.59.23-.31,4.59,5.1.87c.56-3.11,1-7,1.85-10.08l-6.57-2.45,2.33-6.25,1.48.51-1.29,3.39,4.85,2.06,4.08-8.06-5.71-4a26.24,26.24,0,0,1,4.39-5.87l1.12,1a8.47,8.47,0,0,0-1,1.25c-.77,1.06-1,1.6-.91,1.88a25.64,25.64,0,0,0,3.9,2.88,7.07,7.07,0,0,0,2.09-1.78c.64-.77,1-.84,1.65-.37a3.22,3.22,0,0,1,.46.45,1,1,0,0,1,.24.48.35.35,0,0,1,0,.25,1.8,1.8,0,0,1,.44-.29c.48-.27-.93-1.51-2.08-2.15-3.45-1.93-7.5-5.58-8.43-10.13-.35-2.05,4.94.41,8.59,4,.55.55,2.6,2.54,2.6,2.54a156.83,156.83,0,0,1-.49-16l-.81-.56a4.32,4.32,0,0,1-1.66-3.36c-.07-.89.69-1.35-1.05-1.29-3.63,0-5.72-3.38-3.52-6.3.78-1.09,4.13-1.62,4.12-1.59A4.26,4.26,0,0,1,180.3,78.89ZM179,119.47C178.92,119.53,179,119.53,179,119.47Zm4.8-34.69-.1,0A.19.19,0,0,0,183.79,84.78ZM63.05,96.18c10.12,8.52,16.58,14.26,37.2,20.68l.51,3c-11.85-2.73-24.78-8.27-40.16-22Zm-3,2a105.09,105.09,0,0,0,19.64,14.37l2.33,1.4-1.2,1.23,3.91,5.65-5,4.11-1.2-1.2,2.63-2.57-3.75-3.68-7.62,7.71,5.23,4.63-3,4.66-1.1-.49,1.61-3.25-4.86-2.65-5.42,10,6.91,3.15-1.56,6.12-1.62-.08.55-4.8-5.2-.92-1.75,11.21,6.69,1.05L66,160.22l-1.78,0,.12-3.64-5.28-.25-.47,9.41,6.5.84-.65,7.63-1.6-.41.18-5-5-.49-1.7,10.54,6.68,1.9-2.36,6.57-1.45-.79.95-3.39c-1.22-.53-4.65-2-4.65-2l-4.36,8.18,5.66,3.86-3.48,6.11-1.35-.9,2.41-3.57-4.7-2.95L47,195.59a50.08,50.08,0,0,1-4-3.28,2.39,2.39,0,0,0-2.54-.62c-.84.2-1.66.35-1.47.05.09-.14,1.7-1.22,4.15-2.78.69-.43,1.23-.81,1.22-1.2s.37-.75.86-1,.43-.64.34-1a11.11,11.11,0,0,1,.75-6.64c.62-1.29.82-1.52.41-1.52-1.19.15-2.65,4.48-2.93,5.69a13.09,13.09,0,0,1-.3-1.67c-.16-.79-.27-1.29-.9-1.44s-.52-.54-.6-1.11a2.15,2.15,0,0,0-1.36-1.85c-.76-.31-.85-.44-.81-1.2a3.19,3.19,0,0,0-1.09-1.93l-2.65.93a2,2,0,0,0,.51,1.94c1.33,1.25-.62,1.27-2,2.08-.36.24-.79.74-1.08.58-.85-.28-.78,2.25-1.61,1.93l.2-60.69C39.32,113.47,60,98.15,60,98.15Zm107.26,10.73,1,1.13a64.64,64.64,0,0,0-8,11.71,47.46,47.46,0,0,0-5,15c-.76,3.58-.87,7.21-1.34,10.87-.48,3.93-.57,9.23-1.32,13.38-1.39,11.39-4.59,17.45-11.54,23.92-3.06,2.84-12.57,8.2-12.83,8.15l-2.25-.56c19.49-10,24.37-16.86,26.48-40.49C152.9,122.36,166.38,110.88,167.26,108.88Zm1.92,2,1,1-5.7,8,5.61,4-2.22,5.2-1.7-.63,1.21-3.55-4.72-2-3.82,10.33,6.73,2.12-1.11,6.73-1.36-.37v-4.59l-5-1-1.45,11.53,7.35,1-.54,6-1.74-.13-.07-3.54-5.1-.27-1.16,10,7.23,1.23-1.31,7.1-1.54-.37.35-4.68-4.86-.64-2.8,9.59,6.09,3.07-3,6.15-1.28-.89,1.66-3.64-4.74-2.34-4.58,7.94,5,4.88-4.86,5.09-1.08-1.39,2.5-2.69-3.74-3.71-7.78,6.19,4,5.24-.47.66-4.1-1.65-2-2.6-2.35,1-1.86-.7c11.5-6,19-13,22.06-23.56,1.7-5.83,2.2-12.18,2.75-18.59.29-3.33.58-6.67,1.07-10a49.59,49.59,0,0,1,3.57-15.06,59.21,59.21,0,0,1,9.81-15.51Zm-61.85,4,7.89,4.16-.12,2.76-7.29-3.65Zm2.22.07,5.62.77,0,2.27ZM84.19,115l3.29,1.47,2.78,3.22,2.09-1.37,2.26.85c-7.15,3.67-13.5,8.07-18.44,15.66-5.51,8.45-6.12,19.52-6.83,30.21-1.17,14.73-3.7,25.09-13.49,37l-1.45-.91,5.29-8.39-6-3.86,2.71-5,1.38.47-1.07,3,4.93,2.6,3.78-10.58-6.95-2.17,1.16-6.62,1.75.15L61,175.5l5,.78,1.43-11.19-6.7-1,.15-5.91,1.64.16v3.6l5.28.28L68.13,152l-6.57-.73.81-7.21,1.84.19-.42,4.33,5.05.72,2.4-9.33-6.57-3,3.55-6.3,1.59.73-1.63,3.49,4.56,2.22,4.78-7.3L72.44,125l5-5.22,1.22,1.2L75.94,124l3.75,3.47,7.43-6.23-3.63-5.46Zm47.24.34L131.2,118l-7.91,4.49v-2.56Zm42.46.09,1.75,1.09-1.26,1.5-1.53-1Zm-45.79.38-4.74,2.73v-2.72ZM184,118.35a1.21,1.21,0,0,1,.65.17.9.9,0,0,1-.13,1.46c-.7.49-2.62.45-2.81,0C181.42,119.2,182.91,118.32,184,118.35Zm-75.63,1.08,6.8,3.67,0,2.58-6.55-3.6Zm22.15.08-.39,3.37-7,3.71,0-2.92Zm-33.89.06,2.79.71c-10.32,4.6-20.52,11.28-24.49,22.94a53.13,53.13,0,0,0-2.62,12.33c-.26,5.24-.93,10.4-1.18,14.77-.51,8.9-3.44,21-13.55,33.76l-1-.76A57.24,57.24,0,0,0,68,181.4c3.15-11.65,1.59-24.52,5-36.26,2-7.14,6.32-13.52,12.7-19A70.17,70.17,0,0,1,96.61,119.57Zm4.69,1h0c2.5,8.43,5.6,23.81,5.6,23.81-6.63-3.2-17.67-2.62-17.67-2.62s-6.21-8-7.41-8.67C86.84,126.39,100.35,120.6,101.3,120.55Zm85.35,1.33c1.53,0,1.42,2.27-.51,3.85-1,.8-1.45.69-2.18,0a1.6,1.6,0,0,0-1.29-.43c-1.08,0,1.06-2.25,3-3.17A2.58,2.58,0,0,1,186.65,121.88Zm-77.5,1.89,6.06,3.11.06,2.56-5.61-3Zm20.56.34-.33,2.82-6.32,3.28,0-2.59Zm59.08,1a.59.59,0,0,1,.52.23c.86,1-.77,3.87-2.63,4.74a1.37,1.37,0,0,1-1.74-.23c-.29-.25-.72-.58-1-.55-1.06.11-.48-1.08.38-1.15a18.05,18.05,0,0,0,2.85-2.07A3.59,3.59,0,0,1,188.79,125.16Zm-6.42,1.13c1.34,0,1.83,1.09.24,1.57-1.13.35-1.76.1-1.76-.66C181.09,126.42,181.77,126.33,182.37,126.29ZM110,127.8l5.37,2.7,0,2.76-4.94-2.57Zm19.24.38-.37,2.62-5.8,3,0-2.16Zm60.73,1.1c.36,0,.47.43.47,1.16a3.25,3.25,0,0,1-2,2.85c-.87.39-1.49.36-1.92-.11a1.3,1.3,0,0,0-.62-.39c-1.87-.07-1.57-.55.22-1.3a17.93,17.93,0,0,0,2.46-1.54A2.69,2.69,0,0,1,190,129.28Zm-6.87.85c.92,0,1.72.65,1.22,1.07a2.71,2.71,0,0,1-2.17.19C181.59,130.83,182.08,130.13,183.09,130.13ZM110.88,132l4.58,2.47,0,2.63-4.38-2.47Zm17.58.2-.1,2.69-5.27,2.6,0-2.57Zm56.64,1.12c.89.06.77.93.05,1.34a1.08,1.08,0,0,1-1.51-.26C183,133.18,184.45,133.32,185.1,133.31Zm1.78,2.76a.85.85,0,0,1-.22,1c-.39.16-1.41,0-1.56-.3s-.1-.37.15-.62C185.66,135.82,186.59,135.58,186.88,136.07Zm-75.34.05,3.92,2.14,0,2.58-3.6-2.09Zm16.28.07-.19,2.48-4.56,2.26.07-2.42Zm-47.69,1.57c1,0,1.73.66,1.15,1.77-.36.69-.63.95-2.19,2.05-.64.45-1.19.86-1.23.91a6.71,6.71,0,0,1-.72.52c-1.4,1-.91-1,.83-4A2.49,2.49,0,0,1,80.13,137.76ZM127.48,140l-.37,2.74L123,144.79v-2.64Zm-15.32.26,3.29,1.63,0,2.66-3-1.57Zm39.57.2a.28.28,0,0,1,.26.13,5.22,5.22,0,0,1,0,2.93c-.46,1.09-1.36-1.65-1.26-2.35A1.6,1.6,0,0,1,151.73,140.43Zm-69.25.5c1.33,0,2.3.88,1.85,2.23s-3.53,2.12-4.89,3c-.88.44-1.1,0-.82-.8.12-.36.22-.63-.46-.73-1.64-.25-.64-1,2.37-3.06A3.7,3.7,0,0,1,82.48,140.93Zm66.06.85a2.37,2.37,0,0,1,1.66.93c1,1.12,1.78,3.48,1.22,4.1-.43-.05-.65.59-.67.85-.07.74-1.42-.62-2.71-2.76C147,143.17,147.51,141.79,148.54,141.78Zm-55.48.4c4.06,0,11.82.81,22.55,7.53a46.73,46.73,0,0,0,4.29,2.56,39.44,39.44,0,0,0,12.68,4.67l-.15,2.71c-.05.86,1.36,5.82.71,8.61-1,0,.93.83.93.83l1.24,2.52a72.83,72.83,0,0,1-9.38-.63c-4.71-.77-13.32-4.77-17.49-7.91A43.16,43.16,0,0,0,92,156.24l-.07-2.34s-.56-8-1-9.09l-1-2.53C90.14,142.38,91.22,142.19,93.06,142.18Zm33.88,1.75-.31,2.69-3.57,1.67V146Zm17.81.12c1,0,2.51,1.18,4.24,3.51a4.17,4.17,0,0,1,.75,1.3c0,.3-.13.46-.42.43-.68-.12-.93-.37-1.12.48,0,.2.08.58-.16.52-1.21-.36-4.68-3.86-4.47-5C143.73,144.47,144.15,144.05,144.75,144.05Zm-31.82.18,2.6,1.39.12,2.64-2.32-1Zm-28,.81a1.44,1.44,0,0,1,1.55.91c.61,1.49-.47,2.39-3.69,3.07-2.8.66-2.75.71-2.35-.33.26-.69-.61-.77-1.09-.95-.82-.31-.15-.41,2.2-1.58A8.92,8.92,0,0,1,84.93,145Zm-9.31.7c.07,0,.17.07.31.25a10.68,10.68,0,0,1-2.13,15.66c-.59.38-.61,0-.54-.75l.1-1.46c0-.29,5.92-3.91,1.56-11.95l.37-1.14C75.4,146,75.48,145.76,75.62,145.74Zm66.48,1.54c1.6,0,6.11,4.09,4.19,4.24-.22,0-.15.31-.15.49a2.87,2.87,0,0,1-.06.68c-.14.36-.67.29-1.47-.19a14.75,14.75,0,0,1-3.23-2.28C140,148.9,140.38,147.27,142.1,147.28Zm-15.88.7,0,2.2L123,151.74l0-2Zm-40.71,1.58c2.16-.07,3.38,2.08,1.22,3.22-.86.45-3.71.13-5,0-1.49-.13-.61-.57-.53-.7.21-.34.37-.39-.41-.86-.62-.65-1-.81.57-1a25.59,25.59,0,0,0,3.2-.48A3.57,3.57,0,0,1,85.51,149.56Zm65.81.53c.16,0,.14.26.08.94l-.11,1.48c-1,.15-5.88,6.23-1.9,13.31l-.33,1.25c-.16.62-.21.72-.72.33-3-2.06-4-12.54,2.22-16.87C151,150.27,151.19,150.09,151.32,150.09Zm-11.62,1.23a5.33,5.33,0,0,1,2.09.54c1.88.85,3.13,1.54,3.42,2,.18.28-.1.52-.48.62s-.52.33-.39.87c0,.31.07.66-.32.68a10.13,10.13,0,0,1-4-1.36C137.27,153.18,137.65,151.28,139.7,151.32Zm-14,0V154L123,152.81Zm-44.24,2.31a7.73,7.73,0,0,1,1.14.13,13.46,13.46,0,0,0,2,.18c3-.05,4.26,2,1.78,3.11-.68.29-1,.26-2.82-.28-.89-.26-2-.53-2.42-.66-.9-.25-1.21-.53-.62-.74s.6-.56.26-1.07C80.64,153.82,80.8,153.64,81.41,153.66Zm69.89,0c-.42,4.15-.77,7.39-1.4,11.45C149.44,164.93,146.2,157.27,151.3,153.66Zm-12.65,2a13.77,13.77,0,0,1,4.24,1c1.4.52,1.58.66.61,1.07-.59.25-.52.47-.34.86s.77.86,0,.74a26.69,26.69,0,0,1-4.18-.2c-2.27-.4-2.89-2.44-1-3.39A1.72,1.72,0,0,1,138.65,155.65Zm-58.24,1a5.22,5.22,0,0,1,1.29.33c4.07,1.28,5.72,2.84,3.73,4.35-.58.43-1.48.25-3.17-.7a15.07,15.07,0,0,1-2.92-1.84c-.32-.34-.15-.73.34-.7.68.05.58-.29.52-.86C80.17,156.89,80.14,156.7,80.41,156.7Zm11,.37,3.12.71-7.79,34.08a27.63,27.63,0,0,0-6.06,2.1l5.39-.93-.47,2.44-4.89.92-.11.72,5.6-1s-.2,2.33-.39,3.23c5.35-.43,10.63-1.92,16-2,0,0,.13-26.89.11-29.82,0-3.17,0-7,0-7l5.4,3,.89,33.9,16.89,2.74c-.12-.57-.58-3.19-.58-3.19,12.53,3.69,25.23,9.15,36.47,20.44-5.23,2.83-10.18,5.63-15.26,8.35l-.73,1.06c12.88-6,32.47-18.53,46.62-32.36l.31,89.62-67.7.27s0-4.32,0-8.39l0-7.49c-.28-4.81.56-10.1-.91-14.13l-.29-4.22c4.17-4.86,6.43-11,8.42-17.23,0,0,2-.78,3-1.12l.34-1.23c-1.94,1-6.39,2.65-6.39,2.65.47-.37-9.48-4.56-15.62-5.54-10.14-1.63-23.79.05-34.66,5.44-.53.37-.76.37-.63-.12A17.1,17.1,0,0,0,65.36,212a14.69,14.69,0,0,0-3.6-.56l.17.81c15.26,1.71,18.84,17.84,13,25.33-1.54,2.47-1.77,3.19,1.46,3.11C89.41,240.58,94,255.18,88,263.25a8.23,8.23,0,0,1,.48.94,16.11,16.11,0,0,0-1.88-20.75c4.87-5.43,14.21-14.11,22.28-13.6,2.94.19,5.84,3.74,7.77,6.58,4.1,6,5.15,14.42,5.44,19.21.07,1.25.24,2.16.24,2.82,0,1.92-.36,1.69-1.6,1.37a10.65,10.65,0,0,0-5.26.06c-2.54.77-2.13.33.13-2.46,1.33-1.65,1.5-2.15,1-2.26-.16,0-.73.53-1.47,1.66-2.22,3.42-2,2-.44-3.31,1-3.47.94-3.71-1.91-5.87a23.75,23.75,0,0,1-2.2-1.62c-.53-1.14-.76.29-.28,1.23s-.52,1.33-2.27.39c-4.11-2.28-6.79,2.33-3.12,4.33.87.47,1.35.08.68-.53-2.26-2.09-.69-3.85,2.37-2,1.77,1.07,2.44.72,3-.61.33-.55,3.07,1.41,3.07,2.18a18.66,18.66,0,0,1-.63,3.17,55,55,0,0,0-1.5,5.93c-.69,3.56-.67,5.38.07,6.94a7.48,7.48,0,0,0,9.43,3.75,10.14,10.14,0,0,1,1.54-.38l0,2.58c-7.13,2.7-12.28,11.12-12,11.41h-2.54a30.07,30.07,0,0,0-16.86-14.53s-.91-1.51-.09,1.25a5,5,0,0,0,2.15,3.21c3.59,1.82,8.33,5.05,11,10.07l-1.8,0A29.49,29.49,0,0,0,95,276.86c-.64-.14.46,6.07,3,8l-46.47.81c3.17-12.41,3.78-26.17-3.65-44.22a35.44,35.44,0,0,0,16.63-3.13L64.09,237c-5.7,2.73-12,3.26-18.23,2.62,4.75,8.8,8.91,27.24,4.86,45l-17,.09L33.43,188s.67.61.88.82a4.7,4.7,0,0,1,1,1.92c.19.75.4.79,1.46,1.59.51.38.8.71.8.91a2,2,0,0,0,.31,1.32c.94,1.13.77,1.86.07,2.59-3.27,3.4-5.32,10.55-3.67,18.09,3.88-2.61,7.88-9.44,8-9.45l.38,9.32c-.35-.07-2.71,1.33-2.74,3.16-1.07.32-2.38-.21-3.47-.53l.79,2.75c-4,1.58-4.2,7,.41,8.58,0,0-.42,2.13-.78,3.28l3-.46c1.74,5.2,8.42,3.53,8.38-.09,0,0,2,.76,2.81,1.1l-.75-3.54c7.59-3.79,1.91-8.75.18-8.68,0-1,.47-1.31.89-2.46l-3.07.19c-.56-1.83-2.62-3.32-2.7-3.12L45.24,202a39,39,0,0,0,7.67,5.71c2.84,1.49,3.13,1.15,2.71-1.41a11.3,11.3,0,0,1-.17-1.92c1.06.25,3.75,3.74,3.62,5.46,1,1.28,1.87-2.16-.66-5.09,6.73-7.06,11.87-18.75,13-26.71l9-3.57.1-1.16c6.1-4.09,9.29-9.77,11-16.19Zm7.46,2.09,2.06.92-2.34,1.16ZM79,159.72a13.3,13.3,0,0,1,1.82,1.18c1.75,1.29,2.77,2.17,2.81,2.95a1.33,1.33,0,0,1-.71,1.12c-1.06.56-2.07.1-4.36-2.24a19,19,0,0,1-1.46-1.5c-.26-.39-.07-.76.37-.6C79.32,161.47,77.71,159.14,79,159.72Zm63.12.48a4.86,4.86,0,0,1,.87.05c.49.1.64.38.33.65-.48.43-.34.86.14,1.09s.2.49-.2.72a6.08,6.08,0,0,1-1.08.42c-2.81.88-4.88.62-5.42-.69-.63-1.51.57-2.24,4-2.23Zm-41,.9,0,2-2.91,1.41.31-2.05Zm-24.81.63c.26,0,.68.41,1.29,1.15,2.81,3.45,3.19,4.12,2.27,5-1.09,1.09-2.62,0-4.28-3a9.41,9.41,0,0,0-.65-1.12c-.61-.71-.34-.93.43-.87.42,0,.62-.12.63-.55S76.15,161.72,76.35,161.73Zm67.46,1.74c.51,0,.48.18.25.77s-.47.7.28,1c.12.06.39.4.15.55a31.49,31.49,0,0,1-4.17,1.9c-1.84.62-3-.89-1.89-2.38.45-.63,3.57-1.76,5.13-1.86Zm-68.93,2c1.87,2.79,2.1,4.09.87,4.91-.78.59-2.44-.26-2.82-2.06a7.21,7.21,0,0,1,0-4C73.63,162.61,74.68,165.18,74.88,165.47Zm26.26-1.16,0,2.19-3.55,1.78.33-2.41Zm7.24.09,3.33,2.16.2,1.86-3.45-1.9Zm37.23,2.15c.08,0,.13,0,.13.14,0,.26-.06,1.17.44,1.25,1,.17.75.47-.11,1.21a15.94,15.94,0,0,1-2.9,2.41c-2.89,1.07-3.8-2-1.06-3.58a11.15,11.15,0,0,1,2.44-1.11A9,9,0,0,1,145.61,166.55Zm-37.14,1.12,3.87,2.28.13,2.29-3.84-2Zm-7.46.21v2L97.25,172l.31-2.23Zm15.63,1.63c1.06.5,14.79,4.31,19.33,3,0,0,3.89,5.61,6.77,7.61-4.46,6.54-19.54,13-19.54,13Zm30.88.14c.25,0,.31.24.31.71-.06,1.35-2.29,6.35-4.06,3.79-.49-1,0-1.94,1.56-3.12C146.57,170.1,147.2,169.66,147.52,169.65Zm-74.71.79c.34.37.18,1.5-.55,1.43-.21,0-.23-1.18-.1-1.8C72.37,170,72.69,170.32,72.81,170.44Zm28.25.63,0,2.53L96.55,176l.49-2.82Zm7.4.36,4.44,2.36.52,2.8L108.5,174Zm-7.41,3.44v2.55L96,180l.35-2.52Zm7.5.22,5,2.82.65,2.66-5.54-2.86Zm-70.31.08a.77.77,0,0,1,.49,1.41c-.4.38-1.55.3-1.66,0C36.56,176.08,37.27,175.19,38.24,175.17Zm1.52,2.71a.89.89,0,0,1,.33,0,1,1,0,0,1,.59,1.48c-.66.89-2.41.27-2.15-.85C38.6,178.23,39.24,177.91,39.76,177.88Zm61.2.85V181l-5.48,2.89.35-2.55Zm7.74.32,5.65,3,.44,2.56-6.08-3.16Zm-71.63.06a.61.61,0,0,1,.61.27c.11.18.23.65.62.87.73.43.81.52-.58,1.13a18,18,0,0,0-2.14,1.31c-1.23.82-1.73.55-1.82-.43C33.65,181,35.89,179.18,37.07,179.11ZM41.31,181a1.25,1.25,0,0,1,.76.17.74.74,0,0,1,0,1.25c-1,.66-2.66-.25-1.79-1A1.64,1.64,0,0,1,41.31,181ZM101,182.22l0,3-6.11,3.22.41-3Zm-62.66.35a1.67,1.67,0,0,1,1.12.31,1.48,1.48,0,0,0,1.05.61c1,0,.71.42-.39.92A13.39,13.39,0,0,0,36.41,187c-1.14,1.05-1.22,1.28-1.59.84C33.43,186.24,36.13,182.69,38.29,182.57Zm70.51,0,6.4,3.5.54,3-6.94-3.87Zm-66.3,2.08a1,1,0,0,1,.69.22c.46.37.19,1.08-.44,1.41a1.79,1.79,0,0,1-1.67-.1C40.48,185.6,41.57,184.71,42.5,184.68Zm-3.09,1.49c.39,0,.74.46,1.05,1,.12.13.55.07.87.08,1.19,0,1.36.51.2,1.16a22.84,22.84,0,0,0-2.2,1.67c-2,1.92-3.1,1.47-2.84-.49A4.08,4.08,0,0,1,39.41,186.17Zm69.39.19,7.06,3.87.68,3.18-7.74-4.17Zm-7.8,0,0,2.94-6.64,3.51.51-3Zm7.9,3.74,7.91,4.78.29,3.12-8.2-4.72Zm-7.9.52v2.87l-7.35,3.73.38-2.72Zm-59.66,1.9a1,1,0,0,1,.51.09c.86.4.64,1.08-.66,1.79s-1.77.59-2-.22,1.19-1.64,2.2-1.66Zm82.57.39c13.75,3.15,27.21,9.95,40.28,21.83l-2.73,1.93S150,203.66,124.55,196ZM109,194.33l3.82,2.24v.58l-3.83-.32Zm-65,0a7.71,7.71,0,0,1,1.91.83c5.48,3.95,7.67,6.34,9,10.67.81,2.6.79,2.49-1.88,1.08a26.36,26.36,0,0,1-8.2-6.43,122.12,122.12,0,0,0,.42,15.14c3.42,1.69,2.31,6.08,2.3,6.05,8.8-2.4,6.87,9.21.32,6.71,1.56,8.71-8.41,8-7.39.53-7.94-.31-6.54-9,.05-7.76-.68-2.67.26-4.48,2.69-5.63l-.37-11.4s-6.47,9.29-7.55,9.14c-.63-.09-1.59-1.15,0-9.29.84-4.24,5.33-9.41,7.85-9.57C43.65,194.39,43.83,194.34,44,194.35Zm6.33.09,1.16.79-1.09,2-1.21-.88ZM101,195l0,1.7-3.56.22ZM61.89,214.3c-.54,0,.9.35,1.81,1.16,8.38,1.3,13.51,11.56,9.63,19-.47.33.26,2,.73,1.34,4.09-5.8,1-20-10.89-21.41-.71-.06-1.11-.09-1.28-.08Zm3.16,3.89c-.67,1.85-.85,2.29.88,1.54,3,1.13,6.35,6.1,5.29,11.09-.34.58.26-.38.66,1.26C73.38,228.43,71.88,220.55,65.05,218.19Zm38.77,9.3c8.58,0,17.08,1.85,23.83,5.74-2.29,1.27-9.62,3.06-9.62,3.06-4.12-4.63-6.22-9.25-13.67-6.89-7.8,2-14.82,8.77-18.78,13.25-4-2.36-6.11-2.94-9.62-3.13-.21,0-.51.89-.26-.56a26.1,26.1,0,0,0,2.37-5.07,53.39,53.39,0,0,1,25.75-6.4Zm26.68,5.93c-1.71,5.54-3.92,11-7.66,15.78l-.46-2.4a55,55,0,0,0,5.94-12.47Zm-3.32,1.44c.22.35-3.42,9-5.21,10.58l-.7-2.23a47.47,47.47,0,0,0,3.56-7.58Zm-22.16,0c-.12,0-.16.11-.16.33,0,.79.83,1.42,2.34,1.76,2,.46,4.9-.24,4.9-1.21,0-.56-.4-.6-1.57-.06-1.46.68-2.75.55-4.67-.46A2.28,2.28,0,0,0,105,234.87Zm18.17,1.38a16.89,16.89,0,0,1-2.49,5.25l-.35-1.11a37.15,37.15,0,0,0,1.87-3.91Zm-2.14.68a6.19,6.19,0,0,1-1.21,2.23l-.82-1.74Zm-12.91,1.61c-1.39,0-2.75.47-2.87,1.2-.06.36.47.22,3-.09,1.36-.17,2,.63,3.25.55.63-.07,0-.66-.16-.83A5.26,5.26,0,0,0,108.14,238.54Zm-5.9,1.6c-.14,0,0,.38.53,1.28a6.37,6.37,0,0,1,.41,2.09c-.07,1.53-.07,1.49.69.6.47-.47,1.4-.37,2.86,0,1,.26,1.18.35,1.83-.06s.94-.24,1.59-.11a4.08,4.08,0,0,0,1.9-.32,2.53,2.53,0,0,1,1.74,0c1.13.54,1,.49,1.06-1.42s0-2-1.09-1.37a3.36,3.36,0,0,1-3.39.32,3.8,3.8,0,0,0-3.26-.08c-1.51.46-2.19.61-3.4-.12a6.24,6.24,0,0,0-1.47-.84ZM77.66,243l.68,1.1c6.08,2.17,10.19,7.14,7.76,15.52l.58.92C89.72,252.07,86.25,245.1,77.66,243Zm1.88,3.57.83,1.7c4.58,2.21,4.3,8.3,4,8.06l.72,1.58c1.14-3.93-1-9.75-5.6-11.34Zm19.11,9.08a.32.32,0,0,0-.34.19c-.12.3.23.48,2.32,1.93,1.8,1.24,3.19,2.16,3.08,2.34a5.86,5.86,0,0,1-2-.39,9.18,9.18,0,0,0-6.9,1.34c-.44.3-1.17,0-1.8-.19a2.83,2.83,0,0,0-1.09-.07c-1.31.35,0,1.59,3.15,3.21,3.93,2,6,2.17,8.43,1,1.58-.81,2.15-.21.42.73-3,1.63-5.92,1.12-10.69-2.16-2.21-1.52-3.1-1.27-1.19.18,3.33,2.61,9.75,5.79,13.7,1.9a3,3,0,0,1,.68,0c.82,0,.86-.25,0-1.6-.51-.82-1.56-1.68-.29-2.68,1-.75.89-1.11-.27-1.46-.3-.09-.27.12-.73-.26C102.36,257.31,99.63,255.62,98.65,255.62Zm1.21,4.45a3,3,0,0,1,2.72,2.55,3.58,3.58,0,0,1,.09.45l-1,0c-.83-3.31-3.32-2.21-3.57-.28l-.9-.12c.33-1.84,1.49-2.68,2.66-2.64Zm20.68,2.82-.67.1c-.43-1.22-2.4-2.86-3.34.11l-.84,0c.59-4,4.23-3.4,4.85-.18Zm-5.1-1.67c.27.38-.2,1-.48,1.33s-.86,0-1.1-.24a.75.75,0,0,1,.3-1c.37-.19,1-.36,1.28-.08Zm-11.68.12c.28.62-.5,1.09-.6.87-.17,0-.38-1.08-.28-1.15C103.14,261.05,103.65,261.14,103.76,261.34Zm17.56-.1a1,1,0,0,1,1,.7.78.78,0,0,1-.77.68,1.15,1.15,0,0,1-.75-1.24c.15-.26.32-.16.56-.14Zm-24.41.19c.14.23-.13.9-.2,1a2.71,2.71,0,0,1-.91-.06,1.9,1.9,0,0,1,.14-.95c.25-.15.79-.24,1,0Zm16.28,2.18a.85.85,0,0,1,.44.16c2.51,1.63,5.73,2.36,8.06,1.19.52-.26.86-.24.85,0s-.57.84-1.64,1.16c-2.4.72-6.35-.23-7.71-1.7-.4-.43-.35-.83,0-.82Zm-22,1.71c-.24,0-.32.13-.27.42.16,1,6.87,4.82,9.67,5.34a7.8,7.8,0,0,0,5.5-.58c3.42-2,2.54-4.67-.81-2.65-2.24,1.36-7.94.74-11.33-1.22A9.24,9.24,0,0,0,91.2,265.32Zm30.22,1.41c.84-.36,1.21-.48,1.39-.33.87.72-.55,1.85-3.12,2.29a6.06,6.06,0,0,1-5.65-1.34c-1.82-1.34-1-2,.08-1.39A7.65,7.65,0,0,0,121.42,266.73Zm-29.62,4.2c5.93,2.13,12.68,7.25,15.68,13.48l-1.83,0a28.91,28.91,0,0,0-12.72-11.24,4.27,4.27,0,0,1-1.13-2.22ZM123,273.85v1.94a21.89,21.89,0,0,0-9.06,8.62l-2.08,0A24.55,24.55,0,0,1,123,273.85Zm0,3v2.39a17,17,0,0,0-5.61,5.21h-2.46A18.82,18.82,0,0,1,123,276.81Zm-27.17,1.84a17.87,17.87,0,0,1,5.76,5.81l-1,0a33.12,33.12,0,0,0-3.75-3.74A5.5,5.5,0,0,1,95.79,278.65ZM123,280.18s0,0,0,.06v1.9a14,14,0,0,0-2.51,2.27h-2A11,11,0,0,1,123,280.18Zm0,3.16v1.07h-1.25a4.43,4.43,0,0,1,1.25-1.07Zm-24.43.26a2.2,2.2,0,0,1,.66.91l-.33,0Z" transform="translate(-5.81 -10.85)"/>
    <path class="b" d="M47.81,241.58c4.12.12,12.83-1.43,12.69-1.27,0,0,27,44.9,25.92,44.45-.35.56-34.61.54-34.61.54-.74,0,7.27-16.64-4-43.72ZM60.06,210c13.16-10.91,27-11,41.77-12.49l.34-37.07,5.36,3.2.11,34a85.56,85.56,0,0,1,50.91,21.15c.18.27-21,11.58-30.23,14.57-7.19-5.27-26.16-8.6-38.74-4.54-3.45,1.11-7.69,2.89-11.82,4.21,3-17.9-11-20.54-15.9-21.37-.62-.1-1.36-1.42-1.8-1.64Zm-16.9,5.79a85.8,85.8,0,0,0-.31-11.53c-.07-.89-7.7,11.6-8.12,8.57-1.07-7.58,2.7-17.23,8.62-18.41.59-.8,12.31,6.46,11.77,12.73-.17,2-10.45-6.9-10.5-6.37-.24,1.05.31,15,.62,15,3,1.67,2.32,3.81,2.64,5.58,7.94-1.17,7.51,7.64,0,7.36.46,10.4-9.2,5.7-7.3.16-9.72-.46-4.93-9.54-.09-7.54C40.22,219,40.79,216.61,43.16,215.74Zm11.16-44.12c-.56-.22-20.75-1.25-20.75-1.25l1-49.16c10.31-23.66,49.1-12.59,42.93-7.56-18.54,12.14-21.36,34.28-23.23,58Zm37.23-20.19L90.93,146c-1.58-3.39,41.28,16.4,41.76,16.82l1.25,5.83c.24,2.56-27.26-10.37-42.39-17.19Zm78-9.64c-.63,22.06-4,37-16.85,55-.36.59-4,2.09-4.26,2.6,1.83,2.9,12.29,7.15,17.12,9.43l25.13-15c.29,0-.86-52.42-.86-52.42ZM179,117.84c-3.38-.52-11.23-8.66-9.6-11.13.05-1.85,9.77,5.23,10.78,7.14-.5-.57-.57-17.29-.72-16.62-.37.19-3-1.67-2.3-5.15-7.45,1.65-7-8-.53-7.64-.84-8.81,9.93-5.58,7.06.32,9.21-1.69,7.62,8.65.66,7,.59,3.92-1,5-3.29,5.79.15,1.64.76,12.61.76,12.61s6.81-10.44,7.3-9.54c1.37,3.17-1.12,19.9-10.12,17.26ZM147.46,79.36c-3.08,10.59,5.35,22.69,13.3,22.65,1.6-.25,4.67.62,3.61,1.47-12.55,10.17-41.84,12.28-41.85,11.84.31,12.48-.25,25.08-.55,37.56l-5.37-3.23c-.17-11.39-.45-23-.71-34.4-18.77-2.45-35.63-8.5-49-21.37,8.85-6.56,19.42-10.66,29.58-14.79C109.29,85.73,127.1,89.56,147.46,79.36ZM138.2,29c-.59-.26,2-2.2,2-2.2s21.8.29,32.62.14c-3.94,16.17-1.16,30.66,3.93,44.57-1.35-.31-10.3.41-12.49,1.39-.35.35-25.81-43.5-26.08-43.9Z" transform="translate(-5.81 -10.85)"/>
    <path class="c" d="M201.53,297.15c-.34-1-.35-1.11-.43-10.17s0-10.16.46-12.06c.94-2.37-1.83-2.38-3.58-2.66v-3.75c2.06-.28,4.54.32,5.44,1.52a7.48,7.48,0,0,1,5-1.67c5,0,7.15,3.09,7,9a16.21,16.21,0,0,0,.16,2.2h2.67v3.79h-2.81s.46,9.39-.18,12.71c-1.93,7.4-11.11,7.88-13.75,1.07Zm10.13-1.33c.47-1.13.4-.66.42-9.28V282.6c-3.94-.91-7.42-5.63-7.4-5.63s0-.45-.08,8.49c0,10.14.31,10.73,2.46,12.37,2.09,1.18,3.8-.16,4.61-2Zm-5.5-22.8a23.12,23.12,0,0,0,4.46,4.8,4.59,4.59,0,0,0,1.59.73s-.05-1.14-.06-1.73c0-3.54-2.57-6.32-6-3.8Zm-119,11.68L60.77,240.2l4-1.71,27.18,46.27ZM156,278.53c-9.9-1.56-12.68-14-5.41-25.7,3.44-5.68,17.85-26.8,17-26.1-.45-.39,11.08,16.35,16.84,24.94,5.45,9.06,8.35,23.86-5.05,26.58-5.13,1-10.47-2.05-10.71-8,0-.84-.38-1.53-.87-1.53s-.7.59-.7,1.17c-.14,5.72-5.28,9.63-11.1,8.68Zm46.4-14.64c-4.41-1.47-5.19-6.75-1.91-12.8,2.69-4.8,4.1-6,6.58-10.8,1-2,1.13-2,1.89-.67,1.84,3,3.86,6.36,5.51,8.94,4.31,6.73,5.07,11.42,2.3,14.25-2.51,2.57-7.83,1.08-7.86-2.2a1.49,1.49,0,0,0-.16-.59c-.21-.38-.61-.13-.61.38,0,2.39-3.22,4.33-5.74,3.49ZM40.23,225.21,44,221.29l3.81,3.87-4,3.71Zm84.57-25-.53-3.19a81.6,81.6,0,0,1,36.56,20l-2.13,1.55C159.36,218.47,137.12,201.8,124.8,200.26Zm-44.11-3.14,4.82-.7-.14,2.68-4.58,1Zm88.9-2.11L167,192.89l1.89-2.23,2.55,2Zm-89.2-21.56c6.52-3.09,11.61-15.54,11-16.37l3.55.85L86.71,192l-6.18,1.12c0-6.53-.14-13.18-.14-19.7Zm42.91,19.3c-2.21-7.18-6.57-23.42-6.57-23.42.16.53,14.15,4.5,19.13,3a58.49,58.49,0,0,0,6.94,7.83,60.2,60.2,0,0,1-19.5,12.54Zm58.61-26.14-2.46-2.13,2.2-2.71,2.71,2.06Zm-32.18-1.43c-2-3.6-2.15-7.68,1.57-11.7Zm-76.52-7a77.55,77.55,0,0,1,1.08-9.29c.42-.66,1.23,1.73,1.61,3.56C76.38,154.76,73.8,159.56,73.21,158.19Zm56.28-2.65s5.41-25.09,7.76-34.92l6.6-1.66-.89,20.6C137.53,144.41,133,156,133,156Zm-87-4.17-2.62-2.44,2.22-2.42,2.3,2.36Zm46.83-9.78-7.18-8.4c4.45-6.19,11.83-9.77,19.66-12.58l5.3,23.57c-6-1.8-12.45-3.76-17.78-2.59Zm-36.71-21,1.85-2.29,2.41,1.9L55,122.72Zm86.47-7.08,4.62-.66-.34,3.17-4.9.78ZM63.77,95.67l2.84-1.77a84.64,84.64,0,0,0,33.06,18.67l.81,3.88c-13.57-4.19-26.39-10.52-36.71-20.78ZM180.5,92.09l-3.7-3.64,3.33-3.71,4,3.42a23.38,23.38,0,0,1-3.59,3.93ZM56.33,85.35c-4.59-7.08-9.87-14.6-14-20.79C35.42,54.25,33.56,47.27,35.73,41c3.55-10.36,18.72-9.82,19.83.71.23,2.15,1.24,2,1.52-.25,1.46-11.7,19.26-10.18,20.33,2.29,1.13,10.59-6.19,18.81-10.24,24.42C63.59,73.83,59.41,79.27,56.33,85.35ZM12.47,68.57c-3-5-11.21-16.36-3.34-19.85,2.8-1.24,6.37,1,6.36,3.33,0,1.07.58,1.13.72,0,.58-4.63,7.09-5,9.17-.48,1.78,5.34-1.44,10.21-5.94,17.06-1,1.58-3.42,5.86-3.42,5.86ZM160,74.34,132.31,27.11l4,0,27.25,45.5ZM8.84,33.11H6v-3.8H8.84s0-2,.1-5.64c.18-7.67.38-8.87,2.64-11,4.47-4.18,12-.77,11.86,5.51-.12,8.86,0,17.31-.29,18.51-.47,2.1-.52,2.22-.32,2.61.38.77,3.77,1.11,3.77.89v3.73a7.09,7.09,0,0,1-5.73-1.49,8.61,8.61,0,0,1-8.34,1C10.16,42.36,8.35,39.53,8.84,33.11Zm9.57,6.61c-1.4-2-3.76-4.71-6-5.67-.13,2.29.06,4.21.88,5.24a3.31,3.31,0,0,0,5.11.43Zm1.17-21.89c-1-2.9-3.72-3.88-5.67-2.07-1.23,1.13-1.42,2.32-1.45,8.76,0,4,0,5.65,0,5.65,3.81,1.21,7.37,5.56,7.33,5.51l.1-12A34.37,34.37,0,0,0,19.58,17.83Z" transform="translate(-5.81 -10.85)"/>
    <path d="M132.06,26.31l-6.62,0L163,101.87a8.05,8.05,0,0,1-3-.35c-9-2.37-14.58-11.9-12.54-21.25a8.75,8.75,0,0,0,.26-1.34c-23.26,10.52-37.65,6.64-51.08-.06l-5.72,2.2c.38-3.46,4.65-16.44,11-22.56V52l-.15-3.09-.51-5.61c-9.52,9-20.62,23.07-22,43.11,0,0-8.67,4.45-16.07,9.37.41,0,11.52,13.59,38.22,21.25l-1.17-4.35a114.75,114.75,0,0,0,15.22,2.71l.76,34.19,6.37,3.78.22-37.86a86.5,86.5,0,0,0,15.54-1.63l-.76,3.65,5.31-1v2.66l-5.82,1.38-8.28,35.39,4.82,1.07c1.42-7.13,5-12.89,10.15-16.43l0-1.36c3.31-2.38,10.2-4.27,10.25-4.22,2.35-11.48,7.82-19.43,13.63-27l-2.77-3.76,10.62-3.9L160.73,75.19c5.67-3.91,16.92-2.46,16.92-2.46-4.82-13-9.06-26.43-4.3-46.13l-41,0Zm13.45.82c0,3.29-4.31,2.95-4.84,0Zm26.34-.1c-2.61,15.08-1.75,29.77,4.3,43.73,0,0-.88,0-1,0s.1-.76.06-1c-.12-.53-1-.28-1.72.21a9.05,9.05,0,0,1-.92.57C171.84,71,168,71,168,71c1.24-.84,3-3.2,2-4.58-.23-.29-.37-.16-.59.23-1.08,1.92-1.62,2.22-3.06,2.2-2.26,0-3.88-1.43-3.7-3.54s3.2-3.14,2.75-1.15c-.12,1.78,1.64,2.12,2,.35.12-.66,0-.35.17-1.13,3.52-1.87,1.58-5.67-1.71-4.88-.78.21-.87.28-1.42,0-1-.52-1.85-.36-2.24.37s.18,1.17.93,1.17.93.38.93.85c0,1.09-1.88,1.61-3.13,1-3.29-1.67-2.07-6,1.75-6,1.16,0,1.65.08,1.69-.17.14-.71-1.63-1.93-2.63-1.75-.85.17-1.36.39-.91-.74a4.46,4.46,0,0,0,0-2.56c-.61-1.25-.6-.61-1,.4-1.26,2.09-3.16,2.55-4.79,1.41s-1.47-3.07,0-4.51c1-1,2.08-.31,1.47.8a.78.78,0,0,0,.4,1.14c.9.23,1.46-.3,1.47-1.39,0-.61-.19-.74.9-1.36a2.61,2.61,0,0,0-2.47-4.59c-.69.31-.86.62-1.17.47-1.33-1.25-3.23.33-2.11,1.17a3.92,3.92,0,0,0,1.24.34c.28.16.18.55-.22,1-1.31,1.55-4.29.78-5-1.4-.82-2.53,1.77-5.2,3.76-3.72.58.44,1.09.48,1.1-.16,0-1-1.27-2.16-2.88-2s-1.47.33-.57-1.16a3.26,3.26,0,0,0,0-3.38c-.44-.6-.9-.73-.85-.09a2.87,2.87,0,0,1-3.82,3,3.39,3.39,0,0,1-1.82-4.6c.82-1.62,2.81-1.79,2.48-.05-.16,1.1.69,1.68,1.5,1,.29-.24.36-.45.38-1.16s-.3-1,.22-1.49c1.34-.18,1.42-3,1.22-3.15Zm-24.06.09c.86,0,1.56.29,1.56,1.14a1.54,1.54,0,1,1-3.08,0C146.27,27.41,146.94,27.12,147.79,27.12Zm-15.12.11h3.43l27.09,45.15L160,73.94Zm5.63,1.58a12.47,12.47,0,0,0,5.22,1.91,11.07,11.07,0,0,0-1.25,4.85Zm5.52,9.09c1.67.6,3.12,1.51,5.88.59A10.87,10.87,0,0,0,146.78,43Zm14.1,5.46a1.43,1.43,0,1,1-1.43,1.43A1.43,1.43,0,0,1,157.92,43.36Zm-8.78,3.56a9.73,9.73,0,0,0,3.88.68,7.4,7.4,0,0,0-1,4.07ZM153.29,54a7.67,7.67,0,0,0,4.79,1.08,7.74,7.74,0,0,0-1.38,4.52Zm13.57,5.24a1.5,1.5,0,1,1-1.49,1.5A1.5,1.5,0,0,1,166.86,59.28Zm-8.41,3.36a6.51,6.51,0,0,0,3.07.75,10.26,10.26,0,0,0-.66,3.24Zm4.71,7.69a8.91,8.91,0,0,0,4,.88,17.61,17.61,0,0,0-3.06.88Zm17.17,8.44c-3.51.23-4.32,2.92-3.9,5.64-2.68-.42-5.67,2.11-4.83,5.21.79,2.94,3.52,3,5.41,2.85-.15.71-.54,3.11,2.36,5.14l.38,15.26s-1.27-1.17-2.11-2c-3.64-3.63-9.13-6.26-8.78-4.21,0,.3.16,1.06.25,1.7.58,3.45,5.22,7.18,8.39,9.06a9.52,9.52,0,0,1,1.83,1.31c-5.92,6.33-9.1,13.08-9.89,19.78-.74,6.22-1.34,11.83-1.92,17.55-2.42,28.67-14.72,35.88-15.31,37.28l-.23,3.83-3.43-.26-4,3.43c13,6.7,20.53,14.78,20.42,14.93a210.46,210.46,0,0,0,27.73-22.1l-.16-63.84a5.43,5.43,0,0,1-.89.25c-.64,0-.72.29-.94,1.51a4.59,4.59,0,0,1-.81,1.69c-.58.81-.38.4.35.69,1.66.68-.49,3.72-2.85,4.09-1.7.27-2.65.58-2.94,1-3.58,3.13-7.14,3.62-9.84,2.47-1.33-.57-2.77-1.39-3.25-2.77-1.11-3.14,1.19-7.65,2.55-10.26a32.63,32.63,0,0,1,6.6-8.38l-.67-.73a5.66,5.66,0,0,0,1,0c3.56-1.29,3.78-1.31,4.43-2.25a39.31,39.31,0,0,0,2.64-4.52c1.83-4.76,2.08-5.06,2.07-8.18,0-2.53-.17-4.22-.66-4.35-2.8,2.15-5.63,7.16-7.28,10.12-.57-4.38-.74-12-.74-12,.59-.65,3.95-.29,3.21-5.77,3,1.33,6.08-.71,5.95-3.56-.2-4.44-3.62-4.31-6.41-3.75C185.39,81.84,182.87,78.61,180.33,78.77Zm-.05.38c3.66.11,4.38,4.15,2.14,6.44,0,0-1.45-1.11-2.22-1.75-.74.57-.95,1.07-1.75,1.66a4,4,0,0,1-1.54-3.15,3.5,3.5,0,0,1,3.37-3.2Zm-83.62.12c14.81,8.28,33.38,8.87,50.38.44l-.2,1.4-1.87,1L146,84.09l.58-.28v1.28c-14,7.56-37.48,9.13-55.85-3.44l1.59-.74.71.47a25.56,25.56,0,0,0,2.51,1.4l1.11-1.6s-1.7-1-1.53-1.1l1.5-.81ZM98,81.81l-.85,1.93,2.13,1.13.81-1.94ZM89.91,82c22.81,14.31,44,10,56.79,4.2l.16,1.52c-16.46,7-38.09,8.88-58.69-5Zm53.68.92-2,.81.8,1.85,2.09-.89Zm-56.4.34C105.72,95.24,125.6,97.58,147,88.83l.82,2.28c-20.87,8.38-42.88,7.42-63-6.82Zm14.24.07-.83,2,2.3.88.67-2Zm39,.83-2,.65.63,1.92,2.08-.71Zm-35.46.55-.5,2,2.35.66.41-2Zm84.87,3.31c.32,3.43-4.76,5.08-6.66,1.88l1.68-2-1.5-1.4A3.47,3.47,0,0,1,189.81,88.05ZM84.33,84.85l5.53,3.8-4,6.24-6-4Zm95.82.17,3.51,3-3.22,3.77-3.29-3.33Zm-2.18,1-2,2.3,2.14,2.27c-2.53,2.69-6.31,1-6.28-2.26C171.88,85.84,175.73,83.39,178,86.05ZM137,85.17l-2.11.63.48,1.85,2.18-.57Zm-28.45.58-.39,2,2.42.52.41-2Zm25,.34-2.25.49.39,2,2.25-.47Zm46.83.47-1.85,1.81,1.85,1.92,1.86-1.92Zm-67.92.06-.28,2,2.54.34.2-2Zm17.1.27-2.29.26.23,2,2.37-.3Zm-13.48.23,0,2.06,2.23.18v-2Zm9.82.19-2.24.09,0,2,2.28-.15-.06-1.93Zm-40.77,0a2.38,2.38,0,1,0,2.37,2.38A2.38,2.38,0,0,0,85.14,87.33Zm37,.07-2.2,0v2h2.27l-.08-2Zm58.23,0,1,1-1,.95-1-.95Zm-95.26.76a1.57,1.57,0,1,1-1.56,1.56A1.56,1.56,0,0,1,85.13,88.17Zm-8.46.12,3.16,2.57a59.61,59.61,0,0,1-4.19,6l-5.85-4.69,3.06-1.72a2.25,2.25,0,0,0-.26,1.06,2.34,2.34,0,1,0,2.5-2.33ZM74.9,89.94a1.57,1.57,0,1,1-1.57,1.57A1.57,1.57,0,0,1,74.9,89.94Zm107.54.75a2.92,2.92,0,0,1,1.07.65A3.54,3.54,0,0,1,180.6,97,3.32,3.32,0,0,1,178.68,91l1.86,1.76ZM96.06,91.75l6.55,2.51-2.49,7.12L93,98.44Zm-26.92.74a79.34,79.34,0,0,0,92.27,9.82l1.68,0,.89.91c-31.43,18.59-70.51,14.55-96.88-9.38Zm73.57,1.43,2.11,7-7.24,1.9L136,95.74Zm-76.31.26a80,80,0,0,0,33,18.54l.33,2.89c-14.29-4.3-25.09-10-35.61-20Zm31.39.11a2.34,2.34,0,1,0,2.34,2.34A2.34,2.34,0,0,0,97.79,94.29Zm-11.65.52,6.76,3.58-3.37,6.73-7.17-3.84Zm11.62.25a1.57,1.57,0,1,1-1.57,1.57A1.57,1.57,0,0,1,97.76,95.06ZM109,96l6.49.94-.3,7.2-7.57-.91C107.86,100.71,109,96,109,96Zm31.36.18a2.34,2.34,0,1,0,2.34,2.34A2.34,2.34,0,0,0,140.31,96.2Zm0,.77a1.57,1.57,0,1,1-1.57,1.57A1.57,1.57,0,0,1,140.28,97Zm-52.78.1a2.34,2.34,0,1,0,2.34,2.34A2.34,2.34,0,0,0,87.5,97.07Zm41.5,0,.93,7.22-7.09.36-.42-7.21Zm50.8.64h1a170.48,170.48,0,0,0,1.31,18.75c.1.79.15,1,.07,1.17-.69,1.23-1.5-.32-1.82-3.86-.08-1-.2-2.39-.32-3.33C179.69,107.63,179.8,97.72,179.8,97.72ZM60,97.83c-10.66,6.65-28.39,22.54-28.28,22.91l.07,61,1.39.07,1.15-2.25c-1.78-.44-1.28-3.77,2.11-4.44a11.63,11.63,0,0,0,2.79-1c2.58-2,6.76-3.13,9.7-2.35,4.29,1.09,5.16,4.24,3.1,9.72-1.62,4.32-4.84,9.84-7.87,11.42l-.78.39s.71.63,1,.8c8.33-4.81,12.54-22.08,12.31-32.82.34-11,2.23-22,6.68-30.07,7.34-13.28,17-18.61,17-18.66S67.23,104.59,60,97.83Zm27.48,0a1.57,1.57,0,1,1-1.57,1.57A1.57,1.57,0,0,1,87.47,97.84Zm64.74.25,2.53,6.72-7,2.87-2.54-7.06Zm-40.41,0a2.34,2.34,0,1,0,2.34,2.34A2.34,2.34,0,0,0,111.8,98.12Zm14.28.58a2.34,2.34,0,1,0,2.34,2.34A2.34,2.34,0,0,0,126.08,98.7Zm-14.31.19a1.57,1.57,0,1,1-1.57,1.57A1.57,1.57,0,0,1,111.77,98.89Zm14.29.58a1.57,1.57,0,1,1-1.57,1.57A1.58,1.58,0,0,1,126.06,99.47Zm23.89.8a2.34,2.34,0,1,0,2.34,2.34A2.34,2.34,0,0,0,150,100.27Zm0,.77a1.57,1.57,0,1,1-1.57,1.57A1.57,1.57,0,0,1,149.92,101Zm-49.62.13,7,1.79-1.64,7.36-7.92-2.1Zm88.82-.19c1.15,3.59-1,8.21-1.07,8.51-1.27,3.61-2.81,6.57-3.37,6.74s-.68.07-.68-.38a56.64,56.64,0,0,1,2.8-8.29,21.61,21.61,0,0,0,1-3.31c0-.56-.54.35-1.12,1.74-1.13,2.78-2.78,5.76-3.13,8.46-.26,2.21-.68,1.9-1-.73-.42-3.64.37-5.52,4.47-10.59C188,101.91,189,100.66,189.12,101Zm-51.58,1.87,2,7.2-8.29,1.42L130,104.16Zm-34.71.72a2.34,2.34,0,1,0,2.34,2.34A2.34,2.34,0,0,0,102.83,103.57Zm12.39.47,7.51.43.07,7.49-8.15-.35Zm-12.42.3a1.57,1.57,0,1,1-1.57,1.57A1.57,1.57,0,0,1,102.8,104.34Zm31.51.67a2.34,2.34,0,1,0,2.34,2.34A2.34,2.34,0,0,0,134.31,105Zm-15.56.6a2.34,2.34,0,1,0,2.34,2.34A2.34,2.34,0,0,0,118.75,105.61Zm15.54.17a1.57,1.57,0,1,1-1.57,1.57A1.57,1.57,0,0,1,134.29,105.78Zm-15.57.6a1.57,1.57,0,1,1-1.57,1.57A1.57,1.57,0,0,1,118.72,106.38Zm51.2.45.39,0c1.68,0,7.33,4,8.78,6.5,1.2,2.17.58,3-.8,1.09-1.91-2.12-5.44-5.28-5.89-5.28s.18.69,2.43,2.87,4.58,5,4.57,5.51c0,.33-.44.29-1.07-.1a23.27,23.27,0,0,1-3.22-2.3c-.37-.35-1.08-1-1.58-1.44-2.08-1.82-4.44-6-3.78-6.82C169.78,106.84,169.84,106.83,169.92,106.83Zm-104.76.6A2.89,2.89,0,0,1,68.31,110c0,1.19.13,1.28,1.2,1.3s4,.37,4,.37l0,3.33s-1.44,0-3.09-.09c-2.81-.13-2.79-.13-3.15,1.1a1.76,1.76,0,0,1-.91,1.11c-2.52,1.66-4.95-1.34-3.39-4.18.54-1,.57-1.31.2-1.9A2.46,2.46,0,0,1,65.16,107.43Zm.62,1.7a1.36,1.36,0,0,0-1,.44,2.23,2.23,0,0,0,0,2.28c.4.65.39.83-.07,1.26a2,2,0,0,0,0,2.83c.73.52,1.5-.16,1.5-1.21s.81-1.12.81-1.12l5.28.09v-.86l-3.83-.19a2.77,2.77,0,0,1-1.5-.34c-.43-.3-.93-.82-.46-1.46a1,1,0,0,0-.72-1.72Zm-11.44,2,2.5,4.26,2.92.1.26,2.59,3.54,2.29-3.63,2.12-.18,2.61-2.75.35-2.56,3.2L52,125.42l-2.7,0,0-2.68-3.72-2.39,4.07-2.29,0-3,2.88-.19ZM142.79,113l.13,2.57-4.1.72.53-2.62Zm-26.26,2.59,5.52.17-.31,36.09h-1.3l0-1.41-1.77.06-1.8-1.09Zm-62.19.91-3.24,4.1L55,124.07l3.46-4Zm63.85.55v1.66h2.31v-1.66Zm-63.78,1.42,2.28,1.67L55,122.48l-2.21-1.91Zm88.5.95-.07,19.75c-7.59,6-10,16.44-10,16.44l-3.08-.18,7.84-34.8Zm-41.14.43c-6.83,3.25-13.71,5.71-20.49,13.46a37.62,37.62,0,0,1,7.86,8.79c5.64-.84,11.92.17,18.76,2.86Zm16.42.45v1.72h2.31v-1.72Zm-76.77,2.48a5.58,5.58,0,0,1,.22,1.08c5-.42,3.73,5.4.54,5.6-.37,0,.31,1,1,1.34,1.9.8,3.26.28,4.51-1.37a9.89,9.89,0,0,0,1-1.46l3.09,1.64s.09,0-.46,1.37c-1,2.58.46,5.75,1.58,3.44A3,3,0,0,1,56.52,133c1.42.59,1.91,3.13.92,4.72-.31.49-.31.59-.13,1a5.3,5.3,0,0,1,.16,3c-.38.72-.82.89-1.67.3A10.15,10.15,0,0,0,52,140.35c-3.57-.67-4.27-1.93-5.68-4.86-4.22,1.27-10.54-1.38-9.7-7.65.39-1.38.49-4-.21-4.58-1.38-1.06.13-2.6,2.21-2.84C40.28,120.25,41.1,121.86,41.42,122.82Zm59.7-1.82,5.49,23c-6-2.21-11.94-3.93-17.17-2.65a36.76,36.76,0,0,0-7.1-8.19C87.52,126.91,94.11,123.41,101.12,121ZM39,122.13a1.73,1.73,0,0,0-1.17.52,2.48,2.48,0,0,1,.57.73c.32.67.32.67,0,2.17-1.67,6,2.3,10,8,8.22,1.38-.43,1.33-.38,1.73,1.24.66,2.69,2.55,4.07,6.32,4.58a2.65,2.65,0,0,1,.93.29c1.66,1.06,1-.35.52-.89a4.87,4.87,0,0,0-.91-.85s.5-.33.74-.46c1.06-.56,1.46-2.77.58-3.24s-2.16.22-2.17,1c0,1.5-1.89,1.65-3.55.41-2.12-1.6-.24-5.63-.23-5.62l-1.19-.53c.16.14-2.52,3.95-5.82,2.62-2.3-.92-3.93-3.59-2.86-4.35.78-.21,1.71.22,2.3-.24,1.18-.92.23-2.54-1.45-2.48a10.67,10.67,0,0,0-1.16.17,7.4,7.4,0,0,0,.19-2A1.38,1.38,0,0,0,39,122.13Zm79.2,1.75v1.41l2.29,0v-1.42Zm0,2.91v1.46h2.31v-1.46Zm0,3.15v1.49h2.31v-1.49Zm0,2.93v1.58h2.31v-1.58Zm0,2.94v1.48h2.31v-1.48Zm0,3v1.49h2.31v-1.49Zm-75.31,1.46,1.95,3.29,2.31.1.1,2.27,3.94,3-3.45,2.46-.25,2.44-2.73.09-2.21,3.72-2.72-3.27L37.63,154l-.25-3L34,148.54,37.18,146l.26-2.64,2.57.22Zm128.18,1.57a1.8,1.8,0,0,1,.69.19c.82.41,1.07.46,3.2.57,2.47.12,3.34.34,4.56,1.16.74.49.78.49,1.57,0,3.46-2.3,7.42-.21,7.71,4.06a5.53,5.53,0,0,0,.63,2.52c.3.65.61,1.17.43,1.58-.56,1.28-3.22,1.36-4.68-.53a1.09,1.09,0,0,0-.88-.41c-.72.27-2.57-1.18-2.55-1.25-.17,1-.26,1.82-.44,3.29l-3.23-.05s-.07-.59-.22-2.66c-.17-2.37-.76-3.07-1.52-1.79-1.31,2.21-4.78,1.24-5-1.39-.07-.89-.12-1-.61-1.38C169.11,144.46,169.58,141.81,171.06,141.84Zm-52.87.13v1.32h2.31V142Zm53.24,1.41c-.64.05-.28,1.19.78,1.79.61.34.61.34.53,1.39-.14,1.9,1.69,2.83,2.5,1.27a1.3,1.3,0,0,0,.14-.84c-.34-1.38,2.65-1,3.36.42a7.62,7.62,0,0,1,.44,2.08c.09.84.11,1.8.11,1.8h1a10.23,10.23,0,0,1,0-1.12c.23-2.36,1.27-3.85,2.68-3.85.6,0,.63.11.2.89-.71,1.31,0,2.27,1.64,2.28,1.05,0,1.05,0,1.44.75s.75,1.08,1.15.93.29.05-.08-2.75c-.55-4.17-3-5.3-6.33-2.93-1,.67-1.16.65-2-.16-1.26-1.22-2.06-1.5-4.53-1.59a14.44,14.44,0,0,1-2.57-.26A1.16,1.16,0,0,0,171.43,143.38Zm-79.58,1.2c-.55,0-1.19.12-1.74.17a94,94,0,0,1,1.18,9.68c2.82-.49,6.48,0,11.31,2.21A75.34,75.34,0,0,1,113,163a36.3,36.3,0,0,0,13,5.47c5,1.09,9,1,8.88.76-.22,0-1.79-7.91-1.59-9.61A40.7,40.7,0,0,1,114.61,153c-6.74-4.59-14.53-8.57-22.76-8.43Zm26.34.27v1.34h2.31v-1.34Zm-76,.26-3.66,3.82,4,3.78,3.38-3.85Zm-.1,1.74,2.08,2L42.47,151l-2.33-2Zm51.68.31c.48,0,1,.35,2.58,1.25,1.35.94,2.43,1.52,2,.06.31-.43,1.81.95,3.58,1.81,2.13,1.71,2.14,1.3,2.42.45.28-.62.67-.2,2.38,1.38,2.24,2.07,2,2.07,2.48,1.56.51-1,.68-1,2.51,1.13s2.3,2.57,2.7,1.66c.62-.46,1,0,3.52,2.41,1.27,1.26,1.56,1.06,1.8.21s.32-.67,2.45,1c2.48,2,2.72,2.13,2.82,1.44.17-1.09.93-.7,3.48,1.13,1.54,1.1,2.13,1.41,2.46,1.13.33-.59-.84-1.73,1.65-.66l.68,3.62-.86-.25c-.53-.15-1.69-.54-1.25.58.25.65-.38.58-2.31-.58-2.77-1.64-3.28-2-3.48-1.69-.37,1.24-.32,1.32-2.19-.14-2.17-1.65-2.61-2.11-2.91-1.55,0,1.25-.65,1-2.68-.75-1.71-1.5-2.08-2.28-2.84-1.14-.21.4-.42.3-.71.09a39.68,39.68,0,0,1-3.56-3.45c-.45-.49-.7-.33-1.07.07s-.37.26-1.47-.76c-2.64-2.42-3.14-3-3.5-2.7-.3.57,0,1.34-2-.26-2.54-1.83-3.64-2.64-3.47-1.44-.44.54-.13.64-2.68-.77s-2.73-1.74-3.08-1.28a.75.75,0,0,1-1,.43l-.49-3.68h.87a5,5,0,0,1,1.23-.34Zm-19.43.31c-.19.57-1.52,3.84-1.54,12.19.16.19,3.31-3,3.46-6C76.39,150.82,74.33,147.46,74.32,147.47Zm43.86.23v1.52h2.32V147.7Zm-43.69,1.21c2.94,4.66-.3,9.07-1.11,9.38A42.64,42.64,0,0,1,74.49,148.91Zm77.27,3.92c-4.84,3-4,11.3-1.68,13.42A75.78,75.78,0,0,0,151.76,152.83Zm-.66,1-1.3,10.63C148.1,162.59,147.8,157,151.1,153.84Zm30.52,1.8,2.56,3.21,2.27.17.51,2.32,3.32,2.7L187,166.3l-.3,2.57-2.47.25L181.74,173l-2.39-3.77-2.29-.25-.07-2.47-3.61-2.66,3.44-2.07.07-2.8h2.69Zm-90.56,1c-1.62,7.73-5.5,13-11,16.57l0,.78-9.22,3.7c-2,9.42-5.65,18.61-13.27,27.24l2.13,4.31-10.3,3.54,14.74,25.29c1,0-7.14,3.86-17,2.86,6.23,15.26,7.52,31.06,4.07,44.9l48.26-.2L62.65,213.24,62,212.06c-.51-.94,19.61,2.83,15.34,21.49-.06.44.09.49.33.31,3.92-3.36,29.9-12.67,50.64-.37l6.17-2.56c-2.94,10.27-6.27,17.34-11.89,23.53l1,14.62a62.18,62.18,0,0,0,22.19-43c4.48-2.18,8.38-4.66,12.55-7l.55.18,2.71-1.62c-8.67-9.48-26.36-18.54-37.7-20.92l.67,3.21a93.18,93.18,0,0,0-15.8-2.57l-.74-34-6.3-3.71-.2,37.52c-4.71,0-15.54,1.91-15.54,1.91l.49-3.2-5,1-.09-3.13,5.6-1.61,8.13-34.46Zm.68.77,2.59.52-8,33.79s-4.52,1.25-4.79,1.07c-.36-6.33-.5-19.24-.5-19.24C88.94,166.93,90.18,162.24,91.74,157.41Zm-55.23,2.48c1.21,0,2.52.87,2.6,1.66.21.49.38.7.71.75,2,.28,2.09.81,2.15,2-.28,2.24,1.22.36,1.64-1.87,0-.24,0-1.94,0-1.94l2.49,0s.08,1.77.12,2.06c.22,1.72.95,3.12,1.46,2.2,1.75-3.14,5.76-1.54,5.12,1.49-.15.72-.14.76.34,1.31a2.71,2.71,0,0,1,.83,2.64c-.25.8-.81.92-2,.44a9,9,0,0,0-3.08-.36c-2.59-.08-2.75-.13-3.76-1.11l-.63-.61-1.1.64a5.12,5.12,0,0,1-5.42.13c-1.26-.65-2-2.19-2.19-4.6,0-1.28-.4-2.21-1.19-2.51-.43-.41,0-1.21.78-1.94A1.93,1.93,0,0,1,36.51,159.89Zm144.9.36L178,164.51l4.06,3.63,3.78-4.44Zm-79.09.62,4.73,2.7.61,33.53-5.35-.15V160.87Zm-65.68.46c-.36,0-.13.62.13,1.5a3.87,3.87,0,0,1,.22,1.82c-.5,3.67,3.71,5.54,6.75,3,.81-.93.95-.87,1.62.12.84,1,2,1.39,4.6,1.23,1.16-.07,1.93.55,2.43.14.37-.26,0-1-.69-1.37-.43-.25-.45-.29-.36-1.15.21-2.17-1.58-2.75-2.85-.91-1.05,1.51-2.64.51-3.15-2-.31-1.93-.55-1.9-.78-.22-.25,2-2.93,4.26-4,3.25-.29-.3-.29-.22,0-1.25.39-1.31.08-1.8-1.36-2.14a1,1,0,0,1-.59-.44c-.76-1.17-.73-1.59-2-1.59Zm145.11.78,2.17,1.87L182,166.21l-2.3-1.77Zm-77.94,1.2v1.58h2v-1.58Zm0,3.19v1.67h2V166.5ZM116,168.42q3.41,12.63,6.83,25.24c2.16-.86,14.61-6.39,20.49-13.46a39.41,39.41,0,0,1-7.14-8.23C130.3,172.93,123.55,171.7,116,168.42Zm-12.18,1V171h2v-1.55Zm13.46.42c5.35,1.6,12.21,3.8,18.52,2.68a27.57,27.57,0,0,0,6.65,7.56c-4.78,5.19-11.69,9.16-18.84,12.21Zm50.81.61a1.2,1.2,0,0,1,.81.34,5.31,5.31,0,0,0,3.23,1.29,6.53,6.53,0,0,1,5.52,4.52c.25,1,.39,1,1.78.68,5.26-1.33,9.32,3,8.06,8.86-.43,2-.57,2.28,0,3.08,1.34,1.44,1.63,1.46.17,2.73a2.91,2.91,0,0,1-4.54-1.32c-.54-1.07-.53-1.15-1.42-1.29a3,3,0,0,1,0-5.84,4.93,4.93,0,0,0,.6-.06c.92-.41-1-2.58-2.58-2.25-1.95.41-2.92,1.65-3.68,3.61L173,183.05c.76-1.59,1.33-3.63.66-4.9-.54-1.07-1.22-1.11-1.43-.09-.49,2.41-3.48,3.13-5.44,1.17-1.1-1.1-1.23-2.27-.42-3.85.52-1,.53-1.1.31-1.54C165.87,172.34,166.92,170.44,168.08,170.45Zm-64.27,2V174h2V172.4Zm64.65.14c-.62,0-.62.61-.05,1.35.52.52.62.75-.09,1.2a2.33,2.33,0,0,0-.47,3,1.52,1.52,0,0,0,2.8-1c-.17-1.17.75-1.69,2.21-1.25,2.12.64,3.14,3,2.3,5.41-.16.45-.47,1.5-.47,1.5l.63.38s.74-1.19,1-1.55c2.42-3,8.13-1.46,7.49,2.25-.1,1.17-.09,1.32-1.36,1-.85-.44-1.66.46-1.64,1.59A1.8,1.8,0,0,0,183,188c1-.18,1.21-.15,1.14,1.15a2.14,2.14,0,0,0,1,1.82c1.44.59,2.18-.23,1-1.43a2.67,2.67,0,0,1-.22-2.92,8.43,8.43,0,0,0-.55-5.62c-1.16-2.26-4.4-3.21-7.12-2.08-1.24.66-1.38.82-1.5-.35a6.46,6.46,0,0,0-5.55-5.26,16.38,16.38,0,0,1-2.79-.78Zm-64.65,3V177h2v-1.49Zm0,2.92v1.66h2v-1.66Zm0,3.23v1.65s1.1,0,2,0v-1.65Zm66.05,2.64,2.21,3.28,2.46.16.28,2.65,3.72,2.31-3.22,2,0,2.56-3.08.26-2.71,3.6-2.31-3.18h-2.32l-.54-2.83L160.24,193l4.2-2.39-.12-3,2.86,0,2.68-3.37Zm-66.05.39v1.7h2v-1.7Zm0,3.11v1.68h2v-1.68ZM168.62,189l-3.18,4.22,4.28,3.54,3.4-4.28Zm-64.81,1.69v1.83h2v-1.83Zm65.13.22,2.21,1.7-1.57,2-2.2-1.67Zm-65.13,3.17v1.54h2v-1.54Zm-60.2.2c-3.9,0-7.59,6.33-8.47,9.32-1,3.83-1.2,10.76-.21,11,3.5-2.52,5.15-6.78,7.78-10,.41,3.69.34,10.8.34,10.8a7.34,7.34,0,0,0-2.39,2.11,4,4,0,0,0-.28,3.56c-1.94-.63-5.46.08-5.67,3.67.13,5.05,5.65,4.34,5.67,4.27s-1.09,5.37,3.81,5.95c1.75.2,4.84-1.08,3.93-6,3.09.51,5.75-1.19,5.79-4.16,0-2-1.51-3.79-4.18-3.8a12,12,0,0,0-1.73.25c0-.29,1.07-3.46-2.52-5.75l-.56-14.63s1.24,1.35,1.79,1.86a27.33,27.33,0,0,0,6.69,4.75c2.68,1.41,2.35,1.06,1.88-1.62-1.26-4-3.91-7.07-9.5-10.87a3.72,3.72,0,0,0-2.17-.7Zm.38.31.79,20.68H43.62l-1-20.66Zm114.75.68h.32a2.7,2.7,0,0,1,2,4.29c-.45.49-.6.6-.37.9,1.08,1.38.48,3.54-.59,3.88-3.41,1.05-3.92-.81-3.91-3l-5.26-.2,0-3.06,5.8.12a2.18,2.18,0,0,1,1.94-2.94Zm-117.18,0h.06c.55,0,0,1.5-1.54,3.72a38.7,38.7,0,0,0-2.88,5.21c-.94,2.34-1.57,6.53-.94,5.76.57-1.75.62-2.48,1.11-3.74a50.12,50.12,0,0,1,4.22-7.57c.51-.46.64-.18.63,1.34,0,3.42-1.65,7-5.52,11.24a12.37,12.37,0,0,1-1.56,1.47c-.37,0-.36-.78-.36-2.41,0-6.46,2.43-12.23,6.12-14.71A1.53,1.53,0,0,1,41.56,195.34Zm3.91.3c1.7.49,4.74,3.21,6,4.61,1.45,1.57,3.4,5.91,3.06,6.58-.12.3-.36.25-1.21-.23-5.4-3-9.26-6.78-8.25-8,.28-.34,1.44.36,3,1.8,1.06.93,2.14,1.88,3.11,2.83,1.51,1.5,1.85,1.72.94.06a24.38,24.38,0,0,0-6-6.12c-1.15-.86-1.41-1.56-.68-1.54Zm113.61.87a.5.5,0,0,0-.19,0c-1.06.45-.63,1.82-.73,2.88l-5.84-.2,0,.81,5.47.3c.1.82-.33,2.6.37,2.9,1.54.64,2.37-1.33,1.07-2.52-.46-.41-1-.59.32-1.17a1.94,1.94,0,0,0,.26-2.77,1.05,1.05,0,0,0-.7-.26Zm-73.85.24-.29,2.16-3.39.85-.08-2.31Zm39.93.76c12.5,3.37,26.39,11,35.41,19.65l-1.8,1.18a85.55,85.55,0,0,0-33.1-18.5Zm-21.54.34c20.59-.06,39.35,7.94,54.49,20.86l-2.48,1.56c-13.81-11.41-29.11-19-49.69-19.93-13.46-.6-28.82,2.85-43.95,11.18l-1.13-2.05c14.7-8,29.13-11.59,42.76-11.62ZM102,201l8.09.23-.5,7.52-7.36-.24Zm-8.71.53,1.14,7.25-7,1.32-2-7.27Zm25.62,1,8,2.14-2.66,7.4-7.06-2Zm-12.88.11a2.31,2.31,0,1,0,2.31,2.31A2.3,2.3,0,0,0,106,202.55Zm0,.8a1.51,1.51,0,1,1-1.54,1.51A1.52,1.52,0,0,1,106,203.35Zm-16,0a2.31,2.31,0,1,0,2.31,2.31A2.31,2.31,0,0,0,90.07,203.36Zm0,.8a1.52,1.52,0,1,1-1.54,1.51A1.52,1.52,0,0,1,90.07,204.16Zm31.84.93a2.31,2.31,0,1,0,2.31,2.31A2.3,2.3,0,0,0,121.91,205.09Zm-44.82.27,2.39,7.07-6.83,2.77-2.55-7Zm44.82.53a1.52,1.52,0,1,1-1.54,1.51A1.52,1.52,0,0,1,121.91,205.89Zm13.37,1.69,7.24,3.83-3.75,6.76L132,214.65Zm-60.6.62A2.31,2.31,0,1,0,77,210.51,2.31,2.31,0,0,0,74.68,208.2Zm27.34.22.34,7.14L96,216l-1.17-7.1Zm7.69.37,7.31,1-1.72,6.88-6.62-1.06,1-6.83Zm-35,.2a1.52,1.52,0,1,1-1.55,1.52A1.53,1.53,0,0,1,74.68,209Zm23.93.93a2.31,2.31,0,1,0,2.31,2.31A2.3,2.3,0,0,0,98.61,209.92Zm-11.67.29,1.89,6.95-7,2-2.16-6.68Zm25.57.11a2.31,2.31,0,1,0,2.31,2.31A2.31,2.31,0,0,0,112.51,210.32Zm-13.9.4a1.52,1.52,0,1,1-1.54,1.51A1.52,1.52,0,0,1,98.61,210.72Zm13.9.4a1.52,1.52,0,1,1-1.54,1.51A1.52,1.52,0,0,1,112.51,211.12Zm24.73,0a2.32,2.32,0,1,0,2.31,2.31A2.31,2.31,0,0,0,137.24,211.13Zm-12.51.68,7.06,2.41-2.82,6.6-6.75-2.57Zm12.51.12a1.52,1.52,0,1,1-1.54,1.51A1.53,1.53,0,0,1,137.24,211.93Zm-53.11.25a2.31,2.31,0,1,0,2.31,2.31A2.3,2.3,0,0,0,84.13,212.18Zm0,.8a1.52,1.52,0,1,1-1.54,1.51A1.52,1.52,0,0,1,84.13,213Zm42.77,1.35a2.31,2.31,0,1,0,2.31,2.31A2.31,2.31,0,0,0,126.9,214.33Zm0,.79a1.52,1.52,0,1,1-1.54,1.52A1.53,1.53,0,0,1,126.9,215.12Zm-82.69.81a3.63,3.63,0,0,1,3.31,3.46c.07,1.31-1.61,3-1.61,3L44,220.62l-1.87,1.72c-.32.11-1.77-2.36-1.33-3.64C41.35,217,42.54,215.86,44.21,215.93Zm105,0,5.59,4.57s-2.45,1.5-2.91,1.76a2.58,2.58,0,0,0,.09-.62,2.32,2.32,0,1,0-2.84,2.25l-1.34.76-2.95-2.48Zm-8.85,12.23-2.47,1c-15.23-10-36.06-15.47-59.87-5.4l-.81-2C94.84,214.43,117.14,212.14,140.32,228.16Zm-1.35-10,6,3.68-3.81,5.84-5.85-3.74Zm-1.81,11.33-2.52.94c-18.58-11.94-38.39-11.3-56.09-4.14l-.27-1.68c20.84-9,41.75-6.15,58.88,4.88Zm12.46-9.37a1.52,1.52,0,1,1-1.54,1.52A1.53,1.53,0,0,1,149.62,220.12ZM41.49,222.86,39.43,225l1.88,2.12a7.94,7.94,0,0,1-1,.74,3.45,3.45,0,0,1-5.05-3.08c.19-3.34,4.22-4.94,6.26-1.87Zm98.34-1.6a2.32,2.32,0,1,0,2.31,2.32A2.31,2.31,0,0,0,139.83,221.26Zm-90,.1a3.48,3.48,0,0,1,3.44,3,3.56,3.56,0,0,1-2,3.42c-2,1.2-4.26-.74-4.22-.86l1.66-1.64-2-2a4.17,4.17,0,0,1,3.1-1.93Zm-5.75.4,3.4,3.39-3.6,3.36-3.34-3.35Zm89.79,9-1.92.88-2.6-1.57-.77,1.48,1.45.92-1.51.56c-17.36-9.75-37-6.93-50-.46,0,0,.11-1,.12-1l1.41-.72-.52-1.8-.77.22,0-2c18.62-8.38,39.75-6.46,55.18,3.48Zm5.93-8.73a1.52,1.52,0,1,1-1.54,1.52A1.53,1.53,0,0,1,139.83,222.06ZM44,223.28l-1.81,1.8L44,227l1.77-1.86Zm56.84.4-2.38.1.13,1.94,2.32-.05Zm1.62,0,.05,1.94h2.15V223.7Zm3.83,0-.11,1.93,2.15.1.15-1.92Zm-9.25.25-2.43.26.27,2,2.3-.27Zm13.24,0-.17,2,2.2.25.3-1.91ZM44,224l1.06,1.12-1.05,1.05-1.12-1.1ZM93,224.6l-2.35.37.25,2,2.29-.46Zm21.32,0-.39,1.86,2.18.52.36-1.9Zm-25.18.81-2,.53.43,1.95,2.08-.51Zm28.93.08-.42,1.89,2.23.6.45-1.81Zm-32.19.94-2.06.73.53,1.81,2.1-.71Zm36,.2-.69,1.82,1.93.78.85-1.65ZM82.44,227.7l-2,.8.81,1.8,1.86-.85Zm-40.4.05,2,2,2.36-2.13c2,1.82,2,6.07-1.62,6.78-3.18.62-6.09-4.14-2.73-6.64Zm83.37.39-.75,1.66,2.13.94.74-1.6ZM64.56,238.83l26.92,45.75-4.25-.08L61.17,240.29Zm-4.42,1.74,1.49,2.31c-2.91-2.32-7.2-.36-7,2.56.15,1.31,1.25,2.1,1.26.84s1.73-2.46,3.08-2.4c2.49,0,4,3.24,2.29,4.84-1.13,1-2.66,1-2.14-.43.08-.5,0-.68-.2-.89a1.1,1.1,0,0,0-1.71,1.13c.21.62.27.77-.46,1.27-2.86,2-.87,6,2.59,4.16.71-.26,1-.29,1.31-.17,1.44.55,2.42-.69,1.06-1.34-.79-.38-.81-1,0-1.53,1.63-1.09,4.17.61,4.17,2.79,0,1.54-2.05,2.68-4,2.23-1.16-.26-1.3.52-.23,1.34,2.06,1.58,5.14.27,6.06-2.57a3.11,3.11,0,0,0,.25-1.09l2.74,4.54a14.46,14.46,0,0,0-1.36-.56c-2.59-.79-5.49.89-5.5,3.18,0,1.08.64,1.5,1,.65a3.23,3.23,0,0,1,4.5-1.91,3.12,3.12,0,0,1,1.83,4.07c-.7,1.62-3.06,2.1-2.8.56.13-.73-.32-1.18-1.1-1.1-.3,0-.68.89-.58,1.31s0,.48-1,1.27c-2.4,1.87-.56,4.92,2.44,4a1.24,1.24,0,0,1,1.14.08c1.08.52,2.22.2,2.22-.64,0-.57-.25-.79-.93-.79-1,0-.8-1.17.33-1.73,2.85-1.43,5.76,2.17,4,5-.75,1.2-1.22,1.33-3.88,1-.43-.05-.63.24-.37.59.79,1.12,3.13,1.47,4.5.86a4.76,4.76,0,0,0,2.47-4.15l3,5.26a4,4,0,0,0-7,2c0,.89.81,1.35,1.09.62A3,3,0,0,1,80.5,279a2,2,0,0,1-.46,1.34c-.85,1.64-3,2-2.63.57.17-.45-.18-1-.77-1.09s-1,.35-1,1.25c0,.67,0,.87,0,.87a3.35,3.35,0,0,0-2,2.68l-21.09,0c2.51-14.61,1.92-27.81-2.87-40.29-.42-1.08-1-2.65-1-2.65l3.72.09c.9.78,4.29.48,5.61-.72Zm3.58,5.74,2.18,3.91a7.33,7.33,0,0,0-3.22-1A8.44,8.44,0,0,0,63.72,246.31ZM58,250.47a1.44,1.44,0,1,1-1.44,1.43A1.43,1.43,0,0,1,58,250.47Zm15,11.68,2.1,3.74a8.11,8.11,0,0,0-3.48-.9A8.18,8.18,0,0,0,73,262.15Zm-6,4a1.36,1.36,0,1,1,0,2.72,1.36,1.36,0,1,1,0-2.72Zm15.19,11.64,3.1,5.49c-1.22-.7-2.53-1.58-4.17-1.41.78-1.67,1.2-2.58,1.07-4.08ZM78,284.64H74.72C75.39,281.75,78.07,282.5,78,284.64Zm3.15-1.4a3.16,3.16,0,0,1,2.71,1.43H79.72a1.45,1.45,0,0,1,1.47-1.44Z" transform="translate(-5.81 -10.85)"/>
  </g>
</svg>
