<svg xmlns="http://www.w3.org/2000/svg" viewBox="0 0 211 284.5">
  <title>s10</title>
  <g>
    <g>
      <path d="M209.49,252.79v31.54h-3.15V252.79Z" transform="translate(1.51 0.17)"/>
      <path d="M197,284.3a5.74,5.74,0,0,0,5.47-6V258.8a5.74,5.74,0,0,0-5.47-6h-1.8a5.76,5.76,0,0,0-5.48,6v19.48a5.74,5.74,0,0,0,5.48,6Zm-.92-3a3.12,3.12,0,0,1-3.23-3V258.57a3.25,3.25,0,0,1,6.47,0v19.74a3.12,3.12,0,0,1-3.22,3h0Z" transform="translate(1.51 0.17)"/>
      <g>
        <path d="M-1.51,31.37V-.17H1.64V31.37Z" transform="translate(1.51 0.17)"/>
        <path d="M11-.17a5.75,5.75,0,0,0-5.48,6v19.5a5.74,5.74,0,0,0,5.48,6h1.77a5.76,5.76,0,0,0,5.49-6V5.86a5.74,5.74,0,0,0-5.49-6Zm.92,3a3.12,3.12,0,0,1,3.23,3v19.7a3.25,3.25,0,0,1-6.47,0V5.82a3.12,3.12,0,0,1,3.21-3h0Z" transform="translate(1.51 0.17)"/>
      </g>
    </g>
    <path d="M44.44,54.56c0-2-1.6-2.08-1.58-.6C42.72,61.4,36.35,65.07,31.7,64.2c-7.1-1.34-9.41-8.33-9.34-12.45C22.57,39,35.55,29.67,47.24,13.37,55.81,28.07,70,39.63,70.79,51c1.12,15.12-18.26,20.76-21,3.13-.18-1.24-1.66-1.8-1.55-.06.42,4.83-.17,6.84,5.35,18.74H39.13A41.24,41.24,0,0,0,44.44,54.56Z" transform="translate(1.51 0.17)"/>
    <path d="M101,87.27c0-2-1.62-2.06-1.6-.58-.13,7.44-6.51,11.1-11.16,10.24-7.1-1.35-9.41-8.34-9.34-12.46.2-12.7,13.19-22.09,24.88-38.37,8.57,14.7,22.71,26.26,23.56,37.62,1.11,15.12-18.27,20.76-21,3.14-.17-1.25-1.66-1.81-1.54-.07.42,4.83-.18,6.84,5.34,18.75H95.66A41.46,41.46,0,0,0,101,87.27Z" transform="translate(1.51 0.17)"/>
    <path d="M157.64,54.56c0-2-1.61-2.08-1.59-.6-.14,7.44-6.52,11.11-11.16,10.24-7.1-1.34-9.42-8.33-9.36-12.45.22-12.71,13.19-22.08,24.88-38.38C169,28.07,183.14,39.63,184,51c1.1,15.12-18.26,20.76-21,3.13-.19-1.24-1.67-1.8-1.56-.06.43,4.83-.17,6.84,5.35,18.74H152.29A41.42,41.42,0,0,0,157.64,54.56Z" transform="translate(1.51 0.17)"/>
    <path d="M157.64,120c0-2-1.61-2.07-1.59-.59-.14,7.44-6.52,11.11-11.16,10.24-7.1-1.35-9.42-8.33-9.36-12.45.22-12.71,13.19-22.09,24.88-38.39C169,93.5,183.14,105.06,184,116.43c1.1,15.12-18.26,20.75-21,3.13-.19-1.24-1.67-1.8-1.56-.06.43,4.83-.17,6.84,5.35,18.75H152.29A41.5,41.5,0,0,0,157.64,120Z" transform="translate(1.51 0.17)"/>
    <path d="M44.44,120c0-2-1.6-2.07-1.58-.59-.14,7.44-6.51,11.11-11.16,10.24-7.1-1.35-9.41-8.33-9.34-12.45.21-12.71,13.19-22.09,24.88-38.39C55.81,93.5,70,105.06,70.79,116.43c1.12,15.12-18.26,20.75-21,3.13-.18-1.24-1.66-1.8-1.55-.06.42,4.83-.17,6.84,5.35,18.75H39.13A41.32,41.32,0,0,0,44.44,120Z" transform="translate(1.51 0.17)"/>
    <path d="M157.64,164.17c0,2-1.61,2.07-1.59.59-.14-7.44-6.52-11.11-11.16-10.24-7.1,1.35-9.42,8.33-9.36,12.46.22,12.7,13.19,22.08,24.88,38.38,8.57-14.71,22.73-26.27,23.57-37.64,1.1-15.11-18.26-20.74-21-3.13-.19,1.25-1.67,1.8-1.56.07.43-4.84-.17-6.84,5.35-18.75H152.3A41.58,41.58,0,0,1,157.64,164.17Z" transform="translate(1.51 0.17)"/>
    <path d="M157.64,229.57c0,2-1.61,2.08-1.59.6-.14-7.44-6.52-11.11-11.16-10.24-7.1,1.34-9.42,8.33-9.36,12.46.22,12.7,13.19,22.08,24.88,38.37,8.57-14.7,22.73-26.26,23.57-37.62,1.1-15.12-18.26-20.76-21-3.14-.19,1.25-1.67,1.8-1.56.07.43-4.83-.17-6.84,5.35-18.75H152.3A41.54,41.54,0,0,1,157.64,229.57Z" transform="translate(1.51 0.17)"/>
    <path d="M101.46,196.88c0,2-1.61,2.06-1.59.58-.13-7.43-6.51-11.1-11.16-10.23-7.1,1.34-9.41,8.33-9.35,12.45.21,12.71,13.19,22.09,24.87,38.38,8.58-14.7,22.73-26.26,23.57-37.63,1.11-15.12-18.26-20.76-21-3.13-.18,1.24-1.66,1.8-1.55.06.42-4.83-.17-6.84,5.34-18.75H96.15a41.58,41.58,0,0,1,5.31,18.27Z" transform="translate(1.51 0.17)"/>
    <path d="M44.47,164.17c0,2-1.62,2.07-1.6.59-.14-7.44-6.51-11.11-11.16-10.24-7.1,1.35-9.42,8.33-9.35,12.46.21,12.7,13.19,22.08,24.88,38.38,8.57-14.71,22.72-26.27,23.55-37.64,1.12-15.11-18.26-20.74-21-3.13-.18,1.25-1.66,1.8-1.55.07.43-4.84-.17-6.84,5.35-18.75H39.15a41.54,41.54,0,0,1,5.31,18.26Z" transform="translate(1.51 0.17)"/>
    <path d="M44.47,229.57c0,2-1.62,2.08-1.6.6-.14-7.44-6.51-11.11-11.16-10.24-7.1,1.34-9.42,8.33-9.35,12.46.21,12.7,13.19,22.08,24.88,38.37,8.57-14.7,22.72-26.26,23.55-37.62,1.12-15.12-18.26-20.76-21-3.14-.18,1.25-1.66,1.8-1.55.07.43-4.83-.17-6.84,5.35-18.75H39.15a41.54,41.54,0,0,1,5.31,18.25Z" transform="translate(1.51 0.17)"/>
    <path d="M7.78,55.93c0-.87-.91-.47-1-.19-1.17,2-2.91,2.45-4.61,1.73A4.21,4.21,0,0,1-.34,52.94C0,49.5,2.71,45.73,4.08,43.6a67.81,67.81,0,0,0,4.13-7.16c1.73,3.37,2.6,4.33,4.47,7.4,1.65,2.71,4,5.36,4.13,8.63,0,2.5-1,4.84-3.45,5.27-1.35.24-2.62-.44-3.55-2-.29-.4-.86-.19-.85.37a10.45,10.45,0,0,0,2.87,6.21h-7a10,10,0,0,0,3-6.35Z" transform="translate(1.51 0.17)"/>
    <path d="M199.34,228.87c0,.88-.9.47-1,.19-1.18-2-2.91-2.44-4.61-1.73a4.2,4.2,0,0,0-2.5,4.53c.32,3.44,3,7.21,4.43,9.34a67.81,67.81,0,0,1,4.13,7.16,85.34,85.34,0,0,1,4.47-7.4c1.65-2.71,3.95-5.36,4.13-8.63,0-2.49-1.07-4.84-3.45-5.27-1.35-.24-2.62.44-3.56,2-.29.41-.85.19-.84-.36a10.41,10.41,0,0,1,2.86-6.22h-7a10,10,0,0,1,2.95,6.35Z" transform="translate(1.51 0.17)"/>
  </g>
</svg>
