<svg xmlns="http://www.w3.org/2000/svg" viewBox="0 0 207.97 284.14">
  <title>0S</title>
  <g>
    <g>
      <path d="M216.1,267v31.5H213V267Z" transform="translate(-8.13 -14.34)"/>
      <path d="M203.77,298.47c3,0,5.4-2.68,5.4-6V273c0-3.34-2.41-6-5.4-6H202c-3,0-5.4,2.69-5.4,6v19.46c0,3.34,2.41,6,5.4,6Zm-.9-3a3.09,3.09,0,0,1-3.19-3V272.77a3.2,3.2,0,0,1,6.38,0v19.72A3.09,3.09,0,0,1,202.87,295.49Z" transform="translate(-8.13 -14.34)"/>
      <g>
        <path d="M8.13,45.84V14.34h3.11v31.5Z" transform="translate(-8.13 -14.34)"/>
        <path d="M20.46,14.34c-3,0-5.41,2.68-5.41,6V39.82c0,3.34,2.41,6,5.41,6H22.2c3,0,5.41-2.68,5.41-6V20.36c0-3.34-2.41-6-5.41-6Zm.9,3a3.09,3.09,0,0,1,3.19,3V40a3.2,3.2,0,0,1-6.38,0V20.32A3.09,3.09,0,0,1,21.36,17.31Z" transform="translate(-8.13 -14.34)"/>
      </g>
    </g>
    <path d="M53.43,69c0-2-1.58-2.07-1.56-.59-.14,7.43-6.42,11.09-11,10.22-7-1.34-9.28-8.32-9.21-12.43.21-12.7,13-22.06,24.52-38.34,8.45,14.69,22.4,26.23,23.22,37.59,1.1,15.1-18,20.73-20.73,3.13-.18-1.24-1.64-1.8-1.53-.06.41,4.82-.17,6.83,5.27,18.71H48.19A41.72,41.72,0,0,0,53.43,69Z" transform="translate(-8.13 -14.34)"/>
    <path d="M109.15,101.68c0-2-1.59-2.06-1.57-.58-.13,7.43-6.42,11.08-11,10.22-7-1.34-9.28-8.33-9.21-12.44.2-12.69,13-22.06,24.52-38.33,8.45,14.69,22.39,26.23,23.22,37.58,1.1,15.1-18,20.73-20.74,3.14-.17-1.25-1.64-1.81-1.52-.07.41,4.82-.18,6.83,5.26,18.72H103.91a41.77,41.77,0,0,0,5.24-18.24Z" transform="translate(-8.13 -14.34)"/>
    <path d="M165,69c0-2-1.59-2.07-1.57-.59-.14,7.43-6.42,11.09-11,10.22-7-1.34-9.28-8.32-9.22-12.43.21-12.7,13-22.06,24.52-38.34,8.45,14.69,22.4,26.23,23.23,37.59,1.09,15.1-18,20.73-20.74,3.13-.18-1.24-1.64-1.8-1.53-.06.42,4.82-.17,6.83,5.27,18.71H159.73A41.86,41.86,0,0,0,165,69Z" transform="translate(-8.13 -14.34)"/>
    <path d="M165,134.35c0-2-1.59-2.07-1.57-.59-.14,7.43-6.42,11.09-11,10.22-7-1.34-9.28-8.32-9.22-12.43.21-12.7,13-22.06,24.52-38.34,8.45,14.69,22.4,26.23,23.23,37.59,1.09,15.1-18,20.73-20.74,3.13-.18-1.24-1.64-1.8-1.53-.06.42,4.82-.17,6.83,5.27,18.72H159.73A41.94,41.94,0,0,0,165,134.35Z" transform="translate(-8.13 -14.34)"/>
    <path d="M53.43,134.35c0-2-1.58-2.07-1.56-.59-.14,7.43-6.42,11.09-11,10.22-7-1.34-9.28-8.32-9.21-12.43.21-12.7,13-22.06,24.52-38.34,8.45,14.69,22.4,26.23,23.22,37.59,1.1,15.1-18,20.73-20.73,3.13-.18-1.24-1.64-1.8-1.53-.06.41,4.82-.17,6.83,5.27,18.72H48.19a41.8,41.8,0,0,0,5.24-18.24Z" transform="translate(-8.13 -14.34)"/>
    <path d="M165,178.48c0,2-1.59,2.07-1.57.59-.14-7.43-6.42-11.09-11-10.22-7,1.34-9.28,8.32-9.22,12.44.21,12.69,13,22.05,24.52,38.33,8.45-14.69,22.4-26.23,23.23-37.59,1.09-15.09-18-20.72-20.74-3.13-.18,1.25-1.64,1.8-1.53.07.42-4.83-.17-6.83,5.27-18.72H159.74A41.86,41.86,0,0,1,165,178.48Z" transform="translate(-8.13 -14.34)"/>
    <path d="M165,243.81c0,2-1.59,2.07-1.57.59-.14-7.43-6.42-11.09-11-10.22-7,1.34-9.28,8.32-9.22,12.44.21,12.69,13,22.06,24.52,38.33,8.45-14.69,22.4-26.23,23.23-37.58,1.09-15.1-18-20.73-20.74-3.14-.18,1.25-1.64,1.8-1.53.07.42-4.82-.17-6.83,5.27-18.72H159.74A41.86,41.86,0,0,1,165,243.81Z" transform="translate(-8.13 -14.34)"/>
    <path d="M109.63,211.15c0,2-1.59,2.06-1.57.58-.13-7.42-6.42-11.08-11-10.21-7,1.33-9.28,8.32-9.22,12.43.21,12.7,13,22.06,24.52,38.34,8.45-14.69,22.4-26.23,23.23-37.59,1.09-15.1-18-20.73-20.74-3.13-.18,1.24-1.64,1.8-1.53.06.42-4.82-.17-6.83,5.27-18.72H104.39a41.94,41.94,0,0,1,5.24,18.24Z" transform="translate(-8.13 -14.34)"/>
    <path d="M53.45,178.48c0,2-1.59,2.07-1.57.59-.14-7.43-6.42-11.09-11-10.22-7,1.34-9.29,8.32-9.22,12.44.21,12.69,13,22.05,24.52,38.33,8.45-14.69,22.4-26.23,23.22-37.59,1.1-15.09-18-20.72-20.73-3.13-.18,1.25-1.64,1.8-1.53.07.42-4.83-.17-6.83,5.27-18.72H48.21a41.84,41.84,0,0,1,5.23,18.23Z" transform="translate(-8.13 -14.34)"/>
    <path d="M53.45,243.81c0,2-1.59,2.07-1.57.59-.14-7.43-6.42-11.09-11-10.22-7,1.34-9.29,8.32-9.22,12.44.21,12.69,13,22.06,24.52,38.33,8.45-14.69,22.4-26.23,23.22-37.58,1.1-15.1-18-20.73-20.73-3.14-.18,1.25-1.64,1.8-1.53.07.42-4.82-.17-6.83,5.27-18.72H48.21a41.84,41.84,0,0,1,5.23,18.23Z" transform="translate(-8.13 -14.34)"/>
    <path d="M17.29,70.37c0-.87-.9-.47-1-.19-1.16,2-2.87,2.45-4.55,1.73a4.21,4.21,0,0,1-2.45-4.52c.31-3.44,3-7.2,4.35-9.33a69.69,69.69,0,0,0,4.08-7.15c1.7,3.36,2.56,4.32,4.4,7.39,1.63,2.7,3.9,5.35,4.07,8.62,0,2.49-1,4.83-3.4,5.26-1.33.24-2.58-.44-3.5-2-.28-.4-.85-.19-.84.37a10.56,10.56,0,0,0,2.83,6.21H14.37a10.1,10.1,0,0,0,2.92-6.35Z" transform="translate(-8.13 -14.34)"/>
    <path d="M206.1,243.11c0,.88-.89.47-1,.19-1.17-2-2.87-2.44-4.55-1.73a4.21,4.21,0,0,0-2.46,4.52c.31,3.44,3,7.2,4.36,9.33a68,68,0,0,1,4.07,7.15c1.7-3.36,2.56-4.32,4.41-7.39,1.63-2.7,3.89-5.35,4.07-8.62,0-2.48-1.05-4.83-3.4-5.26-1.33-.24-2.58.44-3.51,2-.28.41-.84.19-.83-.36a10.54,10.54,0,0,1,2.82-6.22h-6.88a10,10,0,0,1,2.91,6.35Z" transform="translate(-8.13 -14.34)"/>
  </g>
</svg>
