<svg xmlns="http://www.w3.org/2000/svg" viewBox="0 0 211 284.5">
  <title>s2</title>
  <g>
    <g>
      <path d="M-2.11,32.44l.16-2c.52-6.25,1.92-8.37,9.83-14.89C11.7,12.37,13,10.81,13.14,9c.5-4.26-3.42-5.61-6-5.63-3.31,0-7,1.92-5.26,6.44l-3.72,1c-.74-4.21,0-8.16,3.5-9.91C6.32-1.35,12.28-.45,15.28,3.15a8.33,8.33,0,0,1,1.4,8.37C13.52,18.21,2.78,21.15,1.9,28.88H13.76v-4.3h3.49V32.5Z" transform="translate(2.11 0.32)"/>
      <path d="M208.72,251.45l-.17,2c-.52,6.25-1.91,8.37-9.82,14.89-3.84,3.17-5.1,4.72-5.27,6.53-.5,4.27,3.41,5.61,6,5.64,3.3,0,7.05-1.93,5.26-6.44l3.71-1.07c.75,4.21,0,8.17-3.49,9.92-4.65,2.29-10.6,1.39-13.6-2.21a8.37,8.37,0,0,1-1.4-8.38c3.17-6.69,13.9-9.62,14.79-17.35H192.84v4.3h-3.5v-7.91Z" transform="translate(2.11 0.32)"/>
    </g>
    <path d="M102.24,54c0-2-1.63-2.07-1.61-.59-.13,7.44-6.55,11.11-11.22,10.24-7.14-1.34-9.47-8.34-9.4-12.46.21-12.73,13.27-22.11,25-38.43,8.63,14.74,22.85,26.29,23.7,37.68,1.12,15.13-18.37,20.77-21.17,3.13-.17-1.24-1.67-1.8-1.55-.06.42,4.83-.18,6.85,5.37,18.77H96.89A41.28,41.28,0,0,0,102.24,54Z" transform="translate(2.11 0.32)"/>
    <path d="M102.25,230.33c0,2-1.63,2.07-1.6.59-.14-7.45-6.55-11.12-11.23-10.25C82.28,222,80,229,80,233.14c.21,12.72,13.27,22.05,25,38.42,8.63-14.73,22.85-26.29,23.7-37.68,1.12-15.12-18.37-20.76-21.17-3.13-.17,1.25-1.67,1.8-1.55.07.42-4.84-.18-6.85,5.37-18.76H96.9a41.16,41.16,0,0,1,5.35,18.27Z" transform="translate(2.11 0.32)"/>
    <path d="M8.28,55.14c0-.88-.91-.47-1-.19a3.5,3.5,0,0,1-4.64,1.73,4.21,4.21,0,0,1-2.5-4.53c.32-3.45,3.06-7.22,4.44-9.35a69.23,69.23,0,0,0,4.16-7.17C10.46,39,11.33,40,13.21,43c1.67,2.71,4,5.36,4.16,8.64,0,2.49-1.08,4.84-3.47,5.27-1.36.24-2.64-.44-3.58-2-.28-.41-.86-.19-.85.36a10.41,10.41,0,0,0,2.89,6.23H5.22A10,10,0,0,0,8.28,55.14Z" transform="translate(2.11 0.32)"/>
    <path d="M199.8,228.73c0,.87-.92.46-1,.19a3.5,3.5,0,0,0-4.64-1.74,4.21,4.21,0,0,0-2.5,4.54c.32,3.44,3.06,7.22,4.45,9.34a68.26,68.26,0,0,1,4.15,7.18c1.74-3.38,2.61-4.33,4.5-7.41,1.66-2.72,4-5.37,4.15-8.65,0-2.49-1-4.84-3.46-5.27-1.37-.24-2.64.44-3.59,2-.28.41-.86.19-.85-.36a10.49,10.49,0,0,1,2.88-6.22h-7A9.87,9.87,0,0,1,199.8,228.73Z" transform="translate(2.11 0.32)"/>
  </g>
</svg>
