<svg xmlns="http://www.w3.org/2000/svg" viewBox="0 0 206.76 283.89">
  <title>2S</title>
  <g>
    <g>
      <path d="M8.81,47.14l.16-2c.51-6.24,1.88-8.35,9.63-14.86,3.75-3.16,5-4.72,5.16-6.53.49-4.25-3.35-5.59-5.85-5.61-3.24,0-6.91,1.91-5.16,6.42L9.11,25.6c-.73-4.2,0-8.14,3.43-9.89,4.54-2.28,10.38-1.38,13.32,2.21a8.43,8.43,0,0,1,1.37,8.35c-3.1,6.67-13.62,9.61-14.49,17.32H24.37V39.3h3.42v7.9Z" transform="translate(-8.81 -14.46)"/>
      <path d="M215.42,265.67l-.17,2c-.51,6.24-1.87,8.35-9.62,14.86-3.76,3.16-5,4.71-5.17,6.52-.49,4.26,3.35,5.59,5.86,5.62,3.24,0,6.91-1.92,5.16-6.42l3.63-1.07c.74,4.2,0,8.15-3.42,9.9-4.55,2.28-10.38,1.38-13.32-2.21a8.45,8.45,0,0,1-1.37-8.36c3.1-6.67,13.62-9.6,14.49-17.31H199.86v4.29h-3.43V265.6Z" transform="translate(-8.81 -14.46)"/>
    </g>
    <path d="M111.07,68.66c0-2-1.59-2.06-1.57-.58-.13,7.42-6.42,11.08-11,10.21-7-1.33-9.28-8.32-9.21-12.43.2-12.7,13-22.06,24.52-38.34,8.45,14.7,22.39,26.23,23.22,37.59,1.1,15.1-18,20.73-20.74,3.13-.17-1.24-1.64-1.8-1.52-.06.41,4.82-.18,6.83,5.26,18.72H105.83a41.8,41.8,0,0,0,5.24-18.24Z" transform="translate(-8.81 -14.46)"/>
    <path d="M111.08,244.59c0,2-1.59,2.07-1.57.59-.13-7.43-6.41-11.09-11-10.22-7,1.34-9.28,8.32-9.21,12.44.2,12.69,13,22,24.52,38.33,8.45-14.69,22.39-26.23,23.22-37.59,1.1-15.09-18-20.72-20.74-3.13-.17,1.25-1.64,1.8-1.52.07.41-4.83-.18-6.83,5.26-18.72H105.84a41.72,41.72,0,0,1,5.24,18.23Z" transform="translate(-8.81 -14.46)"/>
    <path d="M19,69.79c0-.88-.9-.47-1-.19-1.16,2-2.87,2.44-4.55,1.73a4.21,4.21,0,0,1-2.45-4.52c.31-3.44,3-7.2,4.35-9.33a69.69,69.69,0,0,0,4.08-7.15c1.7,3.36,2.56,4.32,4.4,7.39,1.63,2.7,3.9,5.35,4.07,8.62,0,2.48-1.05,4.83-3.4,5.26-1.33.24-2.58-.44-3.5-2-.28-.41-.85-.19-.84.36a10.5,10.5,0,0,0,2.83,6.22H16A10.1,10.1,0,0,0,19,69.79Z" transform="translate(-8.81 -14.46)"/>
    <path d="M206.68,243c0,.87-.9.46-1,.19-1.16-2-2.86-2.45-4.55-1.74a4.22,4.22,0,0,0-2.45,4.53c.31,3.43,3,7.2,4.36,9.32a69,69,0,0,1,4.07,7.16c1.7-3.37,2.56-4.32,4.41-7.39,1.62-2.71,3.89-5.36,4.06-8.63,0-2.48-1-4.83-3.39-5.26-1.34-.24-2.58.44-3.51,2-.28.41-.85.19-.84-.36a10.6,10.6,0,0,1,2.83-6.21h-6.89A10,10,0,0,1,206.68,243Z" transform="translate(-8.81 -14.46)"/>
  </g>
</svg>
