<svg xmlns="http://www.w3.org/2000/svg" viewBox="0 0 211 284.5">
  <title>s3</title>
  <g>
    <g>
      <path d="M-2.3,25.21.3,23.37C2.57,26.91,5.09,29.24,9,28.84c5.8-.38,8.18-6.23,7-10.64a6.79,6.79,0,0,0-8.49-4.3,6.58,6.58,0,0,0-1.36.59c-.9.5-1.95,1.15-1.95,1.15L2.81,13.38l9-10.21H2V7.4H-1.7V-.18h19V2.39s-5.12,5.08-6.76,7.86a9.18,9.18,0,0,1,8.68,6.67,17,17,0,0,1-.54,9,11.71,11.71,0,0,1-9.52,6.43c-6.43.41-9.83-3.91-11.52-7.11Z" transform="translate(2.34 0.18)"/>
      <path d="M208.66,259l-2.61,1.84c-2.26-3.54-4.77-5.88-8.65-5.48-5.81.39-8.18,6.23-7,10.65a6.77,6.77,0,0,0,8.45,4.33h0a6.35,6.35,0,0,0,1.34-.57c.9-.5,2-1,2-1l1.6,2L194.55,281h9.73v-4.23H208v7.58H188.94v-2.57s5.12-5.08,6.79-7.86a9.17,9.17,0,0,1-8.69-6.67,17,17,0,0,1,.52-9,11.76,11.76,0,0,1,9.56-6.37c6.43-.41,9.83,3.9,11.52,7.11Z" transform="translate(2.34 0.18)"/>
    </g>
    <path d="M100.91,55c0-2-1.63-2.06-1.61-.58-.13,7.44-6.56,11.09-11.25,10.23-7.15-1.34-9.49-8.34-9.42-12.45.21-12.72,13.29-22.09,25.06-38.38,8.64,14.71,22.91,26.26,23.76,37.63,1.13,15.11-18.41,20.75-21.21,3.13-.19-1.24-1.68-1.8-1.57-.06.43,4.83-.17,6.84,5.39,18.74H95.54A41.31,41.31,0,0,0,100.91,55Z" transform="translate(2.34 0.18)"/>
    <path d="M101,130.64c0,2-1.61,2.06-1.6.58-.13-7.43-6.55-11.1-11.25-10.23-7.16,1.34-9.48,8.33-9.41,12.45.2,12.72,13.29,22.09,25.07,38.39,8.65-14.71,22.9-26.27,23.75-37.64,1.13-15.12-18.41-20.76-21.2-3.13-.18,1.24-1.68,1.8-1.56.06.42-4.83-.19-6.84,5.38-18.75H95.61A41.24,41.24,0,0,1,101,130.64Z" transform="translate(2.34 0.18)"/>
    <path d="M100.91,229.42c0,2-1.62,2.06-1.61.59-.12-7.44-6.56-11.1-11.25-10.23-7.15,1.33-9.49,8.33-9.41,12.44.2,12.72,13.29,22.09,25.08,38.39,8.63-14.71,22.9-26.26,23.75-37.63,1.12-15.12-18.41-20.76-21.21-3.14-.18,1.24-1.68,1.8-1.56.06.42-4.82-.18-6.84,5.38-18.74H95.55A41.3,41.3,0,0,1,100.91,229.42Z" transform="translate(2.34 0.18)"/>
    <path d="M7.41,55.76c0-.87-.91-.47-1-.19A3.49,3.49,0,0,1,1.74,57.3,4.21,4.21,0,0,1-.78,52.78c.32-3.45,3.07-7.21,4.46-9.34a68.43,68.43,0,0,0,4.17-7.16,84.05,84.05,0,0,0,4.51,7.4c1.66,2.7,4,5.35,4.16,8.63,0,2.49-1.08,4.83-3.48,5.26-1.36.24-2.64-.44-3.59-2-.28-.4-.87-.19-.86.37a10.6,10.6,0,0,0,2.9,6.22H4.43a9.94,9.94,0,0,0,3-6.36Z" transform="translate(2.34 0.18)"/>
    <path d="M198.64,229.08c0,.87-.91.46-1,.19-1.2-2-2.94-2.45-4.67-1.73a4.19,4.19,0,0,0-2.51,4.52c.31,3.45,3.06,7.21,4.45,9.35a69.12,69.12,0,0,1,4.18,7.15c1.73-3.36,2.61-4.32,4.5-7.39,1.66-2.72,4-5.36,4.16-8.64,0-2.49-1.07-4.84-3.47-5.26-1.37-.25-2.65.44-3.59,2-.28.41-.86.2-.85-.36a10.39,10.39,0,0,1,2.89-6.22h-7a9.94,9.94,0,0,1,3,6.36Z" transform="translate(2.34 0.18)"/>
  </g>
</svg>
