<svg xmlns="http://www.w3.org/2000/svg" viewBox="0 0 206.33 284.1">
  <title>3S</title>
  <g>
    <g>
      <path d="M9,39.71l2.54-1.84c2.22,3.54,4.69,5.86,8.47,5.46,5.67-.38,8-6.22,6.84-10.62A6.6,6.6,0,0,0,17.22,29c-.88.5-1.9,1.11-1.9,1.11L14,27.89,22.75,17.7H13.24v4.22H9.59V14.35H28.18v2.57s-5,5.07-6.62,7.85a9,9,0,0,1,8.49,6.66,17.3,17.3,0,0,1-.52,9,11.46,11.46,0,0,1-9.32,6.42c-6.27.41-9.6-3.91-11.26-7.1Z" transform="translate(-8.95 -14.35)"/>
      <path d="M215.28,273.1l-2.55,1.84c-2.21-3.54-4.68-5.87-8.46-5.47-5.68.39-8,6.22-6.84,10.63a6.6,6.6,0,0,0,9.58,3.76c.88-.5,1.9-1,1.9-1l1.57,2-9,10.23H211v-4.22h3.65v7.57H196v-2.57s5-5.07,6.63-7.85a9,9,0,0,1-8.49-6.66,17.33,17.33,0,0,1,.51-9A11.48,11.48,0,0,1,204,266c6.27-.41,9.6,3.9,11.26,7.1Z" transform="translate(-8.95 -14.35)"/>
    </g>
    <path d="M109.91,69.43c0-2-1.59-2.06-1.57-.58-.13,7.43-6.42,11.08-11,10.22-7-1.34-9.28-8.33-9.22-12.44.21-12.7,13-22.06,24.52-38.33,8.45,14.69,22.4,26.23,23.23,37.58,1.1,15.1-18,20.73-20.74,3.13-.18-1.24-1.64-1.8-1.53-.06.42,4.82-.17,6.83,5.27,18.72H104.67a41.94,41.94,0,0,0,5.24-18.24Z" transform="translate(-8.95 -14.35)"/>
    <path d="M110,145c0,2-1.58,2.06-1.57.58-.13-7.42-6.41-11.08-11-10.21-7,1.33-9.28,8.32-9.21,12.43.21,12.7,13,22.06,24.52,38.34,8.45-14.69,22.4-26.23,23.22-37.59,1.1-15.1-18-20.73-20.73-3.13-.18,1.24-1.64,1.8-1.53.06.41-4.82-.18-6.83,5.26-18.72H104.74A41.8,41.8,0,0,1,110,145Z" transform="translate(-8.95 -14.35)"/>
    <path d="M109.92,243.66c0,2-1.59,2.06-1.57.59-.13-7.43-6.42-11.09-11-10.22-7,1.33-9.28,8.32-9.21,12.43.2,12.7,13,22.06,24.52,38.34,8.45-14.69,22.39-26.23,23.22-37.59,1.1-15.1-18-20.73-20.74-3.13-.17,1.24-1.64,1.8-1.52.06.41-4.82-.18-6.83,5.26-18.72H104.68a41.94,41.94,0,0,1,5.24,18.24Z" transform="translate(-8.95 -14.35)"/>
    <path d="M18.49,70.22c0-.87-.89-.47-1-.19-1.16,2-2.86,2.45-4.54,1.73a4.21,4.21,0,0,1-2.46-4.52c.31-3.44,3-7.2,4.36-9.33a69.83,69.83,0,0,0,4.07-7.15c1.7,3.36,2.56,4.32,4.41,7.39,1.62,2.7,3.89,5.35,4.07,8.62,0,2.49-1.05,4.83-3.4,5.26-1.33.24-2.58-.44-3.51-2-.28-.4-.85-.19-.84.37a10.62,10.62,0,0,0,2.83,6.21H15.58a10.09,10.09,0,0,0,2.91-6.35Z" transform="translate(-8.95 -14.35)"/>
    <path d="M205.47,243.32c0,.87-.89.46-1,.19-1.17-2-2.87-2.45-4.55-1.73a4.21,4.21,0,0,0-2.46,4.52c.31,3.44,3,7.2,4.36,9.33a69.69,69.69,0,0,1,4.08,7.15c1.69-3.36,2.55-4.32,4.4-7.39,1.63-2.71,3.89-5.35,4.07-8.62,0-2.49-1.05-4.84-3.4-5.26-1.33-.25-2.58.44-3.51,2-.28.41-.84.2-.83-.36a10.54,10.54,0,0,1,2.82-6.21h-6.88a10,10,0,0,1,2.91,6.35Z" transform="translate(-8.95 -14.35)"/>
  </g>
</svg>
