<svg xmlns="http://www.w3.org/2000/svg" viewBox="0 0 208.24 282.7">
  <title>4S</title>
  <g>
    <g>
      <path d="M18.33,46.87V44.06h2.59V39.42H8V36.15l14-21.1h2.28V36.15h4v3.27h-4l-.07,4.64h2.17v2.81Zm2.59-24.09L12,36.15h8.88Z" transform="translate(-7.99 -15.05)"/>
      <path d="M205.89,265.94v2.81h-2.58v4.63h12.92v3.28l-14,21.09H200V276.66h-4v-3.28h4l.08-4.63h-2.17v-2.81ZM203.31,290l8.88-13.37h-8.88Z" transform="translate(-7.99 -15.05)"/>
    </g>
    <path d="M55.4,66.76c0-2-1.58-2.06-1.56-.59-.14,7.43-6.42,11.09-11,10.22-7-1.33-9.29-8.32-9.22-12.43.21-12.7,13-22.06,24.52-38.34,8.45,14.69,22.4,26.23,23.22,37.59,1.1,15.1-18,20.73-20.73,3.13-.18-1.24-1.64-1.8-1.53-.06C59.54,71.1,59,73.11,64.39,85H50.16A41.8,41.8,0,0,0,55.4,66.76Z" transform="translate(-7.99 -15.05)"/>
    <path d="M166.94,66.76c0-2-1.59-2.06-1.57-.59-.14,7.43-6.42,11.09-11,10.22-7-1.33-9.28-8.32-9.22-12.43.21-12.7,13-22.06,24.52-38.34,8.45,14.69,22.4,26.23,23.23,37.59,1.09,15.1-18,20.73-20.74,3.13-.18-1.24-1.64-1.8-1.53-.06.42,4.82-.17,6.83,5.27,18.72H161.7a41.94,41.94,0,0,0,5.24-18.24Z" transform="translate(-7.99 -15.05)"/>
    <path d="M55.42,242.73c0,2-1.59,2.07-1.57.59-.14-7.43-6.42-11.09-11-10.22-7,1.34-9.29,8.32-9.22,12.43.21,12.7,13,22.06,24.52,38.34,8.45-14.69,22.4-26.23,23.22-37.59,1.1-15.1-18-20.73-20.73-3.13-.18,1.24-1.64,1.8-1.53.06.42-4.82-.17-6.83,5.27-18.71H50.18a41.86,41.86,0,0,1,5.24,18.23Z" transform="translate(-7.99 -15.05)"/>
    <path d="M167,242.73c0,2-1.59,2.07-1.57.59-.13-7.43-6.42-11.09-11-10.22-7,1.34-9.28,8.32-9.22,12.43.21,12.7,13,22.06,24.52,38.34,8.45-14.69,22.4-26.23,23.23-37.59,1.1-15.1-18-20.73-20.74-3.13-.18,1.24-1.64,1.8-1.53.06.42-4.82-.17-6.83,5.27-18.71H161.71A41.86,41.86,0,0,1,167,242.73Z" transform="translate(-7.99 -15.05)"/>
    <path d="M17.5,70.55c0-.87-.9-.47-1-.19-1.16,2-2.86,2.45-4.55,1.73a4.22,4.22,0,0,1-2.45-4.52c.31-3.44,3-7.2,4.36-9.33a69.83,69.83,0,0,0,4.07-7.15c1.7,3.36,2.56,4.32,4.41,7.39,1.62,2.7,3.89,5.35,4.06,8.62,0,2.49-1,4.83-3.39,5.26-1.34.24-2.58-.44-3.51-2-.28-.4-.85-.19-.84.37a10.62,10.62,0,0,0,2.83,6.21H14.58a10.1,10.1,0,0,0,2.92-6.35Z" transform="translate(-7.99 -15.05)"/>
    <path d="M204.72,242.55c0,.87-.9.46-1,.19-1.16-2-2.86-2.45-4.55-1.73a4.22,4.22,0,0,0-2.45,4.52c.31,3.44,3,7.2,4.35,9.33a67.87,67.87,0,0,1,4.08,7.15c1.7-3.36,2.56-4.32,4.41-7.39,1.62-2.71,3.89-5.35,4.06-8.62,0-2.49-1-4.84-3.4-5.26-1.33-.24-2.58.44-3.5,2-.28.41-.85.2-.84-.36a10.62,10.62,0,0,1,2.83-6.21H201.8a10.08,10.08,0,0,1,2.92,6.35Z" transform="translate(-7.99 -15.05)"/>
  </g>
</svg>
