<svg xmlns="http://www.w3.org/2000/svg" viewBox="0 0 206.87 284.52">
  <title>5S</title>
  <g>
    <g>
      <path d="M8.68,38l3.22,0c.61,1.94,2,3.92,3.81,4.47,5.22,1.23,8.57-1.69,9.68-5,1.34-4.07,0-9.79-3.62-11.82-3-1.69-7.4-.27-9.42,3.34l-2.26-1.38L11.3,14.14H26v3.18H14.09l-.18,5.59A9.54,9.54,0,0,1,23,22.39c4.87,2.32,7.13,7.59,6.18,13.81-1.31,6.18-4.2,9.68-10.72,10.19-7.24.06-9.8-4.92-9.77-8.35Z" transform="translate(-8.68 -14.14)"/>
      <path d="M215.55,274.77l-3.22,0c-.62-1.94-2-3.93-3.82-4.47-5.21-1.23-8.57,1.68-9.67,5-1.34,4.08,0,9.8,3.62,11.83,3,1.69,7.39.26,9.42-3.34l2.25,1.38-1.21,13.42H198.19v-3.17h11.94l.19-5.59a9.59,9.59,0,0,1-9.09.52c-4.86-2.32-7.12-7.59-6.17-13.81,1.31-6.18,4.19-9.69,10.71-10.19,7.25-.06,9.81,4.92,9.78,8.35Z" transform="translate(-8.68 -14.14)"/>
    </g>
    <path d="M54.46,68.62c0-2-1.58-2.07-1.57-.59-.13,7.43-6.41,11.09-11,10.22-7-1.34-9.28-8.32-9.21-12.43.21-12.7,13-22.06,24.52-38.34,8.45,14.69,22.4,26.23,23.22,37.59,1.1,15.09-18,20.73-20.73,3.13-.18-1.24-1.64-1.8-1.53-.07C58.59,73,58,75,63.44,86.85H49.22a41.72,41.72,0,0,0,5.24-18.23Z" transform="translate(-8.68 -14.14)"/>
    <path d="M165.14,68.62c0-2-1.58-2.07-1.56-.59-.14,7.43-6.42,11.09-11,10.22-7-1.34-9.28-8.32-9.21-12.43.21-12.7,13-22.06,24.52-38.34,8.45,14.69,22.4,26.23,23.22,37.59,1.1,15.09-18,20.73-20.73,3.13-.18-1.24-1.64-1.8-1.53-.07.41,4.83-.17,6.84,5.27,18.72H159.9a41.72,41.72,0,0,0,5.24-18.23Z" transform="translate(-8.68 -14.14)"/>
    <path d="M109.9,167.88c0-2-1.59-2.06-1.57-.59-.13,7.43-6.41,11.09-11,10.22-7-1.33-9.28-8.32-9.21-12.43.2-12.7,13-22.06,24.52-38.34,8.45,14.69,22.39,26.23,23.22,37.59,1.1,15.1-18,20.73-20.74,3.13-.17-1.24-1.64-1.8-1.52-.06.41,4.82-.18,6.83,5.26,18.72H104.66a41.8,41.8,0,0,0,5.24-18.24Z" transform="translate(-8.68 -14.14)"/>
    <path d="M54.47,242.39c0,2-1.58,2.07-1.56.59-.14-7.43-6.42-11.09-11-10.22-7,1.34-9.28,8.32-9.21,12.44.21,12.69,13,22.05,24.52,38.33,8.45-14.69,22.4-26.23,23.22-37.59,1.1-15.09-18-20.72-20.73-3.13-.18,1.25-1.64,1.8-1.53.07.41-4.83-.18-6.83,5.27-18.72H49.23a41.72,41.72,0,0,1,5.24,18.23Z" transform="translate(-8.68 -14.14)"/>
    <path d="M165.15,242.39c0,2-1.58,2.07-1.56.59-.14-7.43-6.42-11.09-11-10.22-7,1.34-9.29,8.32-9.22,12.44.21,12.69,13,22.05,24.52,38.33,8.45-14.69,22.4-26.23,23.22-37.59,1.1-15.09-18-20.72-20.73-3.13-.18,1.25-1.64,1.8-1.53.07.42-4.83-.17-6.83,5.27-18.72H159.92a41.84,41.84,0,0,1,5.23,18.23Z" transform="translate(-8.68 -14.14)"/>
    <path d="M18.26,70.15c0-.87-.9-.46-1-.19-1.17,2-2.87,2.45-4.55,1.73a4.21,4.21,0,0,1-2.45-4.52c.31-3.44,3-7.2,4.35-9.33a69.69,69.69,0,0,0,4.08-7.15c1.69,3.36,2.56,4.32,4.4,7.39,1.63,2.71,3.89,5.36,4.07,8.62,0,2.49-1.05,4.84-3.4,5.26-1.33.25-2.58-.44-3.5-2-.29-.41-.85-.2-.84.36a10.5,10.5,0,0,0,2.83,6.21H15.34a10.08,10.08,0,0,0,2.92-6.35Z" transform="translate(-8.68 -14.14)"/>
    <path d="M205,242.9c0,.87-.89.46-1,.19-1.17-2-2.87-2.45-4.55-1.73a4.2,4.2,0,0,0-2.46,4.52c.31,3.44,3,7.2,4.36,9.32a70,70,0,0,1,4.08,7.16c1.69-3.36,2.55-4.32,4.4-7.39,1.63-2.71,3.89-5.36,4.07-8.63,0-2.48-1-4.83-3.4-5.25-1.33-.25-2.58.44-3.51,2-.28.41-.84.2-.83-.36a10.54,10.54,0,0,1,2.82-6.21h-6.88A10,10,0,0,1,205,242.9Z" transform="translate(-8.68 -14.14)"/>
  </g>
</svg>
