<svg xmlns="http://www.w3.org/2000/svg" viewBox="0 0 211 284.5">
  <title>s5</title>
  <g>
    <g>
      <path d="M-2.06,23.84H1.22c.62,1.94,2,3.92,3.89,4.47,5.32,1.23,8.74-1.69,9.87-5,1.37-4.07,0-9.79-3.69-11.82-3.06-1.69-7.55-.27-9.61,3.34L-.63,13.45.61,0h15V3.16H3.45L3.27,8.75a9.86,9.86,0,0,1,9.27-.52c5,2.32,7.27,7.59,6.3,13.81-1.33,6.18-4.28,9.68-10.93,10.19-7.38.06-10-4.92-10-8.35Z" transform="translate(2.06 0.03)"/>
      <path d="M208.93,260.65h-3.28c-.63-1.94-2-3.93-3.9-4.47-5.31-1.23-8.74,1.68-9.86,5-1.37,4.08,0,9.8,3.69,11.83,3.06,1.69,7.54.26,9.61-3.34l2.3,1.38-1.24,13.42h-15V281.3h12.18l.19-5.59a9.92,9.92,0,0,1-9.27.52c-5-2.32-7.26-7.59-6.29-13.81,1.33-6.18,4.27-9.69,10.92-10.19,7.39-.06,10,4.92,10,8.35Z" transform="translate(2.06 0.03)"/>
    </g>
    <path d="M44.63,54.46c0-2-1.61-2.07-1.6-.59C42.9,61.31,36.49,65,31.81,64.1c-7.14-1.34-9.47-8.33-9.4-12.44.22-12.7,13.26-22.06,25-38.34C56,28,70.27,39.55,71.11,50.91,72.23,66,52.75,71.65,50,54c-.18-1.24-1.67-1.8-1.56-.07.44,4.88-.16,6.88,5.39,18.73H39.28A41.12,41.12,0,0,0,44.63,54.46Z" transform="translate(2.06 0.03)"/>
    <path d="M157.52,54.46c0-2-1.61-2.07-1.59-.59-.15,7.44-6.55,11.1-11.22,10.23-7.14-1.34-9.47-8.33-9.4-12.44.22-12.7,13.26-22.06,25-38.34C168.94,28,183.17,39.55,184,50.91,185.13,66,165.65,71.65,162.86,54c-.18-1.24-1.67-1.8-1.56-.07.42,4.84-.17,6.85,5.38,18.73H152.17A41.12,41.12,0,0,0,157.52,54.46Z" transform="translate(2.06 0.03)"/>
    <path d="M101.18,153.74c0-2-1.63-2.06-1.61-.59-.13,7.43-6.53,11.09-11.22,10.22-7.13-1.33-9.46-8.32-9.39-12.43.2-12.7,13.26-22.06,25-38.35,8.62,14.7,22.84,26.24,23.68,37.6,1.13,15.1-18.36,20.74-21.15,3.13-.17-1.24-1.67-1.8-1.55-.06.42,4.82-.18,6.83,5.36,18.73H95.83a41.29,41.29,0,0,0,5.35-18.25Z" transform="translate(2.06 0.03)"/>
    <path d="M44.64,228.27c0,2-1.61,2.07-1.59.59-.14-7.44-6.55-11.1-11.22-10.23-7.14,1.34-9.47,8.32-9.4,12.45.22,12.69,13.26,22,25,38.33,8.62-14.69,22.85-26.23,23.69-37.59,1.12-15.1-18.36-20.73-21.15-3.13-.18,1.25-1.67,1.8-1.56.07.42-4.84-.18-6.84,5.38-18.73H39.29A41.12,41.12,0,0,1,44.64,228.27Z" transform="translate(2.06 0.03)"/>
    <path d="M157.53,228.27c0,2-1.61,2.07-1.59.59-.15-7.44-6.55-11.1-11.22-10.23-7.14,1.34-9.48,8.32-9.41,12.45.22,12.69,13.26,22,25,38.33,8.62-14.69,22.85-26.23,23.69-37.59,1.12-15.1-18.36-20.73-21.15-3.13-.18,1.25-1.67,1.8-1.56.07.43-4.84-.17-6.84,5.38-18.73H152.19A41.23,41.23,0,0,1,157.53,228.27Z" transform="translate(2.06 0.03)"/>
    <path d="M7.71,56c0-.87-.92-.46-1-.19-1.2,2-2.93,2.46-4.64,1.74A4.2,4.2,0,0,1-.45,53c.31-3.44,3.06-7.2,4.43-9.33a69,69,0,0,0,4.16-7.15c1.73,3.36,2.62,4.32,4.49,7.39,1.67,2.71,4,5.36,4.15,8.62,0,2.49-1.07,4.85-3.46,5.27-1.36.25-2.64-.44-3.57-2-.3-.41-.87-.2-.86.36a10.44,10.44,0,0,0,2.89,6.22h-7a10.06,10.06,0,0,0,3-6.36Z" transform="translate(2.06 0.03)"/>
    <path d="M198.17,228.78c0,.87-.9.46-1,.19-1.19-2-2.92-2.46-4.64-1.74a4.2,4.2,0,0,0-2.51,4.53c.32,3.44,3.06,7.2,4.45,9.32a68.06,68.06,0,0,1,4.16,7.16c1.73-3.36,2.6-4.32,4.49-7.39,1.66-2.71,4-5.36,4.15-8.63,0-2.48-1-4.84-3.47-5.26-1.35-.25-2.63.44-3.58,2-.28.41-.85.2-.84-.36a10.48,10.48,0,0,1,2.87-6.22h-7A9.88,9.88,0,0,1,198.17,228.78Z" transform="translate(2.06 0.03)"/>
  </g>
</svg>
