<svg xmlns="http://www.w3.org/2000/svg" viewBox="0 0 207.37 284.97">
  <title>6S</title>
  <g>
    <g>
      <path d="M8.74,36.5a64.58,64.58,0,0,1-.07-11.94c1-6.43,3.53-9.37,7.72-10.34s9.79.11,11.05,5.49L24,19.77c-1.84-3.63-6.49-2.66-9.11-1.08-2.1,1.26-3,6.52-2.64,6.84,0,0,4-2.88,7.08-2.66,6.67.68,9.42,6.35,9.18,11.71-.21,6.45-2.29,11.61-9.36,12C12.46,46.28,9.38,42.68,8.74,36.5Zm16.57-1.71c0-4.47-2-7.82-5.95-8.19S11.5,30,11.77,34.54,13.85,43,18.6,43c5.1,0,6.68-5,6.71-8.16Z" transform="translate(-8.43 -13.92)"/>
      <path d="M215.49,276.31a63.67,63.67,0,0,1,.06,11.94c-1,6.43-3.53,9.37-7.72,10.33s-9.79-.1-11-5.48l3.4-.06c1.84,3.63,6.5,2.66,9.12,1.08,2.09-1.26,3-6.52,2.63-6.84,0,0-3.95,2.88-7.07,2.66-6.67-.68-9.42-6.35-9.19-11.72.21-6.45,2.3-11.6,9.36-11.94,6.72.25,9.8,3.85,10.45,10ZM198.92,278c0,4.48,2,7.83,6,8.2s7.86-3.39,7.59-7.95-2.08-8.43-6.83-8.41c-5.11,0-6.69,5-6.71,8.16Z" transform="translate(-8.43 -13.92)"/>
    </g>
    <path d="M54.35,69.06c0-2-1.59-2.07-1.57-.59-.14,7.43-6.42,11.09-11,10.22-7-1.34-9.29-8.32-9.22-12.43.21-12.7,13-22.06,24.52-38.34,8.45,14.69,22.4,26.23,23.23,37.59,1.09,15.1-18,20.73-20.74,3.13-.18-1.24-1.64-1.8-1.53-.06.42,4.82-.17,6.83,5.27,18.71H49.11a41.86,41.86,0,0,0,5.24-18.23Z" transform="translate(-8.43 -13.92)"/>
    <path d="M165.88,69.06c0-2-1.59-2.07-1.57-.59-.13,7.43-6.42,11.09-11,10.22-7-1.34-9.28-8.32-9.22-12.43.21-12.7,13-22.06,24.53-38.34,8.45,14.69,22.39,26.23,23.22,37.59,1.1,15.1-18,20.73-20.74,3.13-.17-1.24-1.64-1.8-1.52-.06.41,4.82-.18,6.83,5.26,18.71H160.64a41.86,41.86,0,0,0,5.24-18.23Z" transform="translate(-8.43 -13.92)"/>
    <path d="M54.36,145.08c0,2-1.59,2.06-1.57.58-.14-7.43-6.42-11.08-11-10.22-7,1.34-9.28,8.33-9.22,12.44.21,12.7,13,22.06,24.52,38.33,8.45-14.69,22.4-26.23,23.23-37.58,1.09-15.1-18-20.73-20.74-3.13-.18,1.24-1.64,1.8-1.53.06.42-4.82-.17-6.83,5.27-18.72H49.12a41.94,41.94,0,0,1,5.24,18.24Z" transform="translate(-8.43 -13.92)"/>
    <path d="M165.89,145.08c0,2-1.59,2.06-1.57.58-.13-7.43-6.42-11.08-11-10.22-7,1.34-9.28,8.33-9.21,12.44.2,12.7,13,22.06,24.52,38.33C177.1,171.52,191,160,191.87,148.63c1.1-15.1-18-20.73-20.74-3.13-.17,1.24-1.64,1.8-1.52.06.41-4.82-.18-6.83,5.26-18.72H160.65a41.8,41.8,0,0,1,5.24,18.24Z" transform="translate(-8.43 -13.92)"/>
    <path d="M165.89,243.68c0,2-1.59,2.06-1.57.58-.13-7.43-6.42-11.09-11-10.22-7,1.34-9.28,8.32-9.21,12.44.2,12.69,13,22.06,24.52,38.33,8.45-14.69,22.39-26.23,23.22-37.58,1.1-15.1-18-20.73-20.74-3.14-.17,1.25-1.64,1.8-1.52.07.41-4.82-.18-6.83,5.26-18.72H160.65A41.73,41.73,0,0,1,165.89,243.68Z" transform="translate(-8.43 -13.92)"/>
    <path d="M54.36,243.68c0,2-1.59,2.06-1.57.58-.14-7.43-6.42-11.09-11-10.22-7,1.34-9.28,8.32-9.22,12.44.21,12.69,13,22.06,24.52,38.33,8.45-14.69,22.4-26.23,23.23-37.58,1.09-15.1-18-20.73-20.74-3.14-.18,1.25-1.64,1.8-1.53.07.42-4.82-.17-6.83,5.27-18.72H49.12A41.86,41.86,0,0,1,54.36,243.68Z" transform="translate(-8.43 -13.92)"/>
    <path d="M17.39,68.93c0-.87-.89-.47-1-.19-1.17,2-2.87,2.45-4.55,1.73A4.21,4.21,0,0,1,9.37,66c.31-3.44,3-7.2,4.36-9.33a69.69,69.69,0,0,0,4.08-7.15c1.69,3.36,2.55,4.32,4.4,7.39,1.63,2.7,3.89,5.35,4.07,8.62,0,2.49-1.05,4.83-3.4,5.26-1.33.24-2.58-.44-3.5-2-.29-.4-.85-.19-.84.37a10.5,10.5,0,0,0,2.83,6.21H14.48a10,10,0,0,0,2.91-6.35Z" transform="translate(-8.43 -13.92)"/>
    <path d="M206.21,241.67c0,.88-.9.47-1,.19-1.16-2-2.86-2.44-4.55-1.73a4.22,4.22,0,0,0-2.45,4.52c.31,3.44,3,7.2,4.35,9.33a67.87,67.87,0,0,1,4.08,7.15c1.7-3.36,2.56-4.32,4.41-7.39,1.62-2.7,3.89-5.35,4.06-8.62,0-2.48-1-4.83-3.4-5.26-1.33-.24-2.57.44-3.5,2-.28.41-.85.19-.84-.36a10.62,10.62,0,0,1,2.83-6.22h-6.89a10.1,10.1,0,0,1,2.92,6.35Z" transform="translate(-8.43 -13.92)"/>
  </g>
</svg>
