<svg xmlns="http://www.w3.org/2000/svg" viewBox="0 0 211 284.5">
  <title>s6</title>
  <g>
    <g>
      <path d="M-1.5,22.79a63.29,63.29,0,0,1-.07-11.92C-.55,4.45,2,1.52,6.29.55S16.25.66,17.53,6L14,6.09C12.16,2.46,7.43,3.43,4.76,5c-2.14,1.26-3,6.51-2.69,6.83,0,0,4.07-2.88,7.21-2.66,6.78.68,9.58,6.34,9.34,11.69-.22,6.44-2.33,11.59-9.53,12C2.29,32.55-.85,29-1.5,22.79Zm16.86-1.71c0-4.46-2-7.81-6-8.17s-8,3.39-7.72,7.92,2.11,8.45,6.94,8.45c5.19,0,6.8-5,6.83-8.15Z" transform="translate(1.82 -0.23)"/>
      <path d="M208.87,262.18a62.46,62.46,0,0,1,.06,11.92c-1,6.42-3.59,9.35-7.86,10.31s-10-.1-11.19-5.47l3.46-.06c1.87,3.63,6.61,2.66,9.28,1.08,2.13-1.26,3-6.51,2.68-6.83,0,0-4,2.88-7.2,2.66-6.78-.68-9.58-6.34-9.35-11.7.22-6.44,2.34-11.58,9.53-11.92,6.83.25,10,3.84,10.63,10ZM192,263.87c0,4.47,2,7.82,6.1,8.18s8-3.38,7.73-7.93-2.12-8.42-7-8.4c-5.2,0-6.81,5-6.83,8.15Z" transform="translate(1.82 -0.23)"/>
    </g>
    <path d="M44.91,55.29c0-2-1.62-2.06-1.6-.59-.14,7.42-6.53,11.07-11.19,10.21C25,63.57,22.67,56.6,22.74,52.5c.21-12.68,13.23-22,25-38.28,8.6,14.67,22.79,26.19,23.63,37.53C72.43,66.82,53,72.44,50.22,54.87c-.18-1.24-1.67-1.79-1.56-.06.43,4.81-.17,6.82,5.37,18.68H39.58A41.19,41.19,0,0,0,44.91,55.29Z" transform="translate(1.82 -0.23)"/>
    <path d="M158.39,55.29c0-2-1.62-2.06-1.6-.59-.13,7.42-6.53,11.07-11.19,10.21-7.12-1.34-9.44-8.31-9.38-12.41.21-12.68,13.23-22,25-38.28,8.6,14.67,22.78,26.19,23.62,37.53,1.12,15.07-18.31,20.69-21.1,3.12-.17-1.24-1.67-1.79-1.55-.06.42,4.81-.18,6.82,5.36,18.68H153.06A41.19,41.19,0,0,0,158.39,55.29Z" transform="translate(1.82 -0.23)"/>
    <path d="M44.92,131.18c0,2-1.62,2.06-1.6.58-.14-7.42-6.53-11.06-11.19-10.2-7.12,1.33-9.44,8.31-9.38,12.41.21,12.68,13.23,22,25,38.27,8.6-14.67,22.79-26.19,23.63-37.52C72.44,119.65,53,114,50.23,131.6c-.18,1.24-1.67,1.8-1.56.06.43-4.81-.17-6.82,5.37-18.69H39.59A41.36,41.36,0,0,1,44.92,131.18Z" transform="translate(1.82 -0.23)"/>
    <path d="M158.4,131.18c0,2-1.62,2.06-1.6.58-.13-7.42-6.53-11.06-11.19-10.2-7.12,1.33-9.44,8.31-9.37,12.41.2,12.68,13.23,22,24.95,38.27,8.62-14.67,22.76-26.17,23.64-37.52,1.12-15.07-18.31-20.69-21.1-3.12-.17,1.24-1.67,1.8-1.54.06.41-4.81-.19-6.82,5.35-18.69H153.07A41.1,41.1,0,0,1,158.4,131.18Z" transform="translate(1.82 -0.23)"/>
    <path d="M158.4,229.61c0,2-1.62,2-1.6.58-.13-7.42-6.53-11.07-11.19-10.2-7.12,1.33-9.44,8.3-9.37,12.41.2,12.67,13.23,22,24.95,38.27,8.6-14.67,22.78-26.19,23.62-37.52,1.12-15.07-18.31-20.69-21.1-3.13-.17,1.25-1.67,1.79-1.55.07.42-4.81-.18-6.82,5.36-18.69H153.07A41.1,41.1,0,0,1,158.4,229.61Z" transform="translate(1.82 -0.23)"/>
    <path d="M44.92,229.61c0,2-1.62,2-1.6.58-.14-7.42-6.53-11.07-11.19-10.2-7.12,1.33-9.44,8.3-9.38,12.41.21,12.67,13.23,22,25,38.27,8.6-14.67,22.79-26.19,23.63-37.52C72.44,218.08,53,212.46,50.23,230c-.18,1.25-1.67,1.79-1.56.07.43-4.81-.17-6.82,5.37-18.69H39.59A41.23,41.23,0,0,1,44.92,229.61Z" transform="translate(1.82 -0.23)"/>
    <path d="M7.3,55.16c0-.87-.9-.47-1-.19C5.1,57,3.37,57.42,1.66,56.7A4.19,4.19,0,0,1-.86,52.24c.32-3.44,3.06-7.19,4.44-9.32a68.58,68.58,0,0,0,4.15-7.13c1.72,3.35,2.6,4.31,4.48,7.37,1.66,2.7,4,5.34,4.14,8.61,0,2.48-1.07,4.82-3.46,5.25-1.35.24-2.63-.44-3.56-2-.3-.4-.87-.19-.86.37a10.44,10.44,0,0,0,2.88,6.2h-7a9.84,9.84,0,0,0,3-6.34Z" transform="translate(1.82 -0.23)"/>
    <path d="M199.43,227.6c0,.88-.92.47-1,.19a3.5,3.5,0,0,0-4.63-1.73,4.2,4.2,0,0,0-2.49,4.52c.31,3.43,3.05,7.18,4.42,9.31a66,66,0,0,1,4.15,7.14c1.73-3.36,2.61-4.31,4.49-7.38,1.65-2.69,4-5.34,4.13-8.6,0-2.48-1-4.83-3.46-5.26-1.35-.23-2.61.44-3.56,2-.28.41-.86.19-.85-.36a10.43,10.43,0,0,1,2.88-6.21h-7a10,10,0,0,1,3,6.34Z" transform="translate(1.82 -0.23)"/>
  </g>
</svg>
