<svg xmlns="http://www.w3.org/2000/svg" viewBox="0 0 208.5 282.57">
  <title>7S</title>
  <g>
    <g>
      <path d="M12.84,47C15,35.92,17.25,27.6,23.22,18.56H11.08v3.89H7.86V15.12H25.61l2.19,3.44C21.46,25.35,15.65,47.33,16.68,47Z" transform="translate(-7.86 -15.12)"/>
      <path d="M211.38,265.8c-2.13,11.09-4.41,19.41-10.38,28.44h12.14v-3.89h3.22v7.33H198.61l-2.19-3.44c6.34-6.79,12.15-28.76,11.12-28.44Z" transform="translate(-7.86 -15.12)"/>
    </g>
    <path d="M53.59,70.5c0-2-1.59-2.06-1.57-.59C51.89,77.34,45.61,81,41,80.13c-7-1.34-9.28-8.32-9.21-12.43.2-12.7,13-22.06,24.52-38.34C64.8,44.05,78.74,55.59,79.57,67c1.1,15.1-18,20.73-20.74,3.13-.17-1.24-1.64-1.8-1.52-.06.41,4.82-.18,6.83,5.26,18.72H48.35A41.8,41.8,0,0,0,53.59,70.5Z" transform="translate(-7.86 -15.12)"/>
    <path d="M165.12,70.5c0-2-1.58-2.06-1.56-.59-.14,7.43-6.42,11.09-11,10.22-7-1.34-9.28-8.32-9.21-12.43.21-12.7,13-22.06,24.52-38.34,8.45,14.69,22.4,26.23,23.22,37.59,1.1,15.1-18,20.73-20.73,3.13-.18-1.24-1.64-1.8-1.53-.06.41,4.82-.17,6.83,5.27,18.72H159.88a41.8,41.8,0,0,0,5.24-18.24Z" transform="translate(-7.86 -15.12)"/>
    <path d="M110,120.62c0-2-1.59-2.06-1.57-.58-.14,7.43-6.42,11.08-11,10.22-7-1.34-9.29-8.33-9.22-12.44.21-12.69,13-22.06,24.52-38.33,8.45,14.69,22.4,26.23,23.22,37.58,1.1,15.1-18,20.73-20.73,3.14-.18-1.25-1.64-1.81-1.53-.07.42,4.82-.17,6.83,5.27,18.72H104.79A41.89,41.89,0,0,0,110,120.62Z" transform="translate(-7.86 -15.12)"/>
    <path d="M165.12,170.75c0-2-1.58-2.07-1.56-.59-.14,7.43-6.42,11.09-11,10.22-7-1.34-9.28-8.32-9.21-12.43.21-12.7,13-22.06,24.52-38.34,8.45,14.69,22.4,26.23,23.22,37.59,1.1,15.09-18,20.73-20.73,3.13-.18-1.24-1.64-1.8-1.53-.07.41,4.83-.17,6.84,5.27,18.72H159.88a41.72,41.72,0,0,0,5.24-18.23Z" transform="translate(-7.86 -15.12)"/>
    <path d="M53.59,170.75c0-2-1.59-2.07-1.57-.59-.13,7.43-6.41,11.09-11,10.22-7-1.34-9.28-8.32-9.21-12.43.2-12.7,13-22.06,24.52-38.34,8.45,14.69,22.39,26.23,23.22,37.59,1.1,15.09-18,20.73-20.74,3.13-.17-1.24-1.64-1.8-1.52-.07.41,4.83-.18,6.84,5.26,18.72H48.35a41.72,41.72,0,0,0,5.24-18.23Z" transform="translate(-7.86 -15.12)"/>
    <path d="M165.13,246.47c0,2-1.58,2.07-1.56.59-.14-7.43-6.42-11.09-11-10.22-7,1.34-9.29,8.32-9.22,12.43.21,12.7,13,22.06,24.52,38.34,8.45-14.69,22.4-26.23,23.22-37.59,1.1-15.1-18-20.73-20.73-3.13-.18,1.24-1.64,1.8-1.53.06.42-4.82-.17-6.83,5.27-18.71H159.89a41.72,41.72,0,0,1,5.24,18.23Z" transform="translate(-7.86 -15.12)"/>
    <path d="M53.6,246.47c0,2-1.58,2.07-1.57.59-.13-7.43-6.41-11.09-11-10.22-7,1.34-9.28,8.32-9.21,12.43.21,12.7,13,22.06,24.52,38.34,8.45-14.69,22.4-26.23,23.22-37.59,1.1-15.1-18-20.73-20.74-3.13-.17,1.24-1.64,1.8-1.52.06.41-4.82-.18-6.83,5.26-18.71H48.36a41.72,41.72,0,0,1,5.24,18.23Z" transform="translate(-7.86 -15.12)"/>
    <path d="M17.57,71.51c0-.87-.9-.46-1-.19-1.16,2-2.86,2.45-4.55,1.73a4.22,4.22,0,0,1-2.45-4.52c.31-3.44,3-7.2,4.35-9.33A67.87,67.87,0,0,0,18,52.05c1.7,3.36,2.56,4.32,4.41,7.39,1.62,2.71,3.89,5.35,4.06,8.62,0,2.49-1,4.84-3.4,5.26-1.33.25-2.58-.44-3.5-2-.28-.41-.85-.2-.84.36a10.62,10.62,0,0,0,2.83,6.21H14.65a10.08,10.08,0,0,0,2.92-6.35Z" transform="translate(-7.86 -15.12)"/>
    <path d="M206.38,244.26c0,.87-.89.46-1,.19-1.17-2-2.87-2.45-4.55-1.73a4.2,4.2,0,0,0-2.46,4.52c.31,3.44,3,7.2,4.36,9.32a70,70,0,0,1,4.08,7.16,84.78,84.78,0,0,1,4.4-7.39c1.63-2.71,3.89-5.36,4.07-8.63,0-2.48-1.05-4.83-3.4-5.26-1.33-.24-2.58.45-3.51,2-.28.41-.84.2-.83-.36a10.5,10.5,0,0,1,2.83-6.21h-6.89a10,10,0,0,1,2.91,6.35Z" transform="translate(-7.86 -15.12)"/>
  </g>
</svg>
