<svg xmlns="http://www.w3.org/2000/svg" viewBox="0 0 211 284.5">
  <title>s7</title>
  <g>
    <g>
      <path d="M3.79,31.13C6,20,8.25,11.6,14.29,2.49H2V6.41H-1.25V-1h18l2.22,3.46c-6.42,6.84-12.3,29-11.25,28.64Z" transform="translate(1.25 0.97)"/>
      <path d="M204.71,251.43c-2.16,11.17-4.46,19.54-10.5,28.64h12.28v-3.92h3.26v7.38h-18l-2.22-3.46c6.42-6.84,12.3-29,11.25-28.64Z" transform="translate(1.25 0.97)"/>
    </g>
    <path d="M45,54.79c0-2-1.61-2.07-1.59-.59C43.31,61.68,37,65.36,32.29,64.49,25.2,63.14,22.9,56.11,23,52c.2-12.79,13.15-22.21,24.81-38.6,8.59,14.79,22.7,26.41,23.54,37.9,1.11,15.2-18.22,20.87-21,3.15-.17-1.25-1.66-1.81-1.54-.06.42,4.85-.18,6.87,5.33,18.85H39.73A42.06,42.06,0,0,0,45,54.79Z" transform="translate(1.25 0.97)"/>
    <path d="M157.9,54.79c0-2-1.6-2.07-1.58-.59-.14,7.48-6.5,11.16-11.13,10.29-7.09-1.35-9.4-8.38-9.33-12.52.22-12.79,13.16-22.21,24.82-38.6,8.55,14.79,22.67,26.41,23.5,37.85,1.11,15.2-18.22,20.87-21,3.15-.18-1.25-1.66-1.82-1.55-.06.42,4.85-.17,6.87,5.33,18.85H152.59a42,42,0,0,0,5.31-18.37Z" transform="translate(1.25 0.97)"/>
    <path d="M102.11,105.25c0-2-1.6-2.07-1.58-.58-.15,7.48-6.5,11.16-11.14,10.29-7.08-1.35-9.4-8.39-9.33-12.52.22-12.78,13.16-22.22,24.82-38.6,8.55,14.79,22.67,26.41,23.5,37.84,1.11,15.2-18.22,20.87-21,3.16-.18-1.26-1.66-1.82-1.55-.07.42,4.85-.17,6.88,5.33,18.85H96.84A41.91,41.91,0,0,0,102.11,105.25Z" transform="translate(1.25 0.97)"/>
    <path d="M157.9,155.73c0-2-1.6-2.09-1.58-.6-.14,7.49-6.5,11.17-11.13,10.29-7.09-1.34-9.4-8.37-9.33-12.51.22-12.79,13.16-22.21,24.82-38.6,8.55,14.79,22.67,26.41,23.5,37.84,1.11,15.2-18.22,20.88-21,3.16-.18-1.25-1.66-1.82-1.55-.07.42,4.86-.17,6.88,5.33,18.84H152.59a41.87,41.87,0,0,0,5.31-18.35Z" transform="translate(1.25 0.97)"/>
    <path d="M45,155.73c0-2-1.61-2.09-1.59-.6-.13,7.49-6.49,11.17-11.13,10.29-7.09-1.34-9.39-8.37-9.32-12.51.2-12.79,13.15-22.21,24.81-38.6,8.55,14.79,22.66,26.41,23.5,37.84,1.11,15.2-18.22,20.88-21,3.16-.17-1.25-1.66-1.82-1.54-.07.42,4.86-.18,6.88,5.33,18.84H39.73A41.86,41.86,0,0,0,45,155.73Z" transform="translate(1.25 0.97)"/>
    <path d="M157.91,232c0,2-1.6,2.08-1.58.59-.14-7.48-6.5-11.16-11.13-10.29-7.09,1.35-9.41,8.38-9.34,12.52.22,12.78,13.16,22.21,24.82,38.6,8.55-14.79,22.67-26.41,23.5-37.85,1.11-15.2-18.22-20.87-21-3.15-.18,1.25-1.66,1.81-1.55.06.43-4.85-.17-6.88,5.33-18.84H152.6A42,42,0,0,1,157.91,232Z" transform="translate(1.25 0.97)"/>
    <path d="M45,232c0,2-1.6,2.08-1.59.59-.13-7.48-6.49-11.16-11.13-10.29-7.09,1.35-9.39,8.38-9.32,12.52.21,12.78,13.15,22.21,24.81,38.6,8.55-14.79,22.67-26.41,23.5-37.85,1.11-15.2-18.22-20.87-21-3.15-.17,1.25-1.66,1.81-1.54.06.42-4.85-.18-6.88,5.33-18.84H39.74A41.94,41.94,0,0,1,45,232Z" transform="translate(1.25 0.97)"/>
    <path d="M8.58,55.81c0-.88-.91-.47-1-.19-1.17,2-2.89,2.46-4.6,1.74A4.25,4.25,0,0,1,.48,52.81c.31-3.47,3-7.25,4.4-9.4A68.38,68.38,0,0,0,9,36.21c1.72,3.39,2.59,4.35,4.46,7.44,1.64,2.73,3.94,5.39,4.11,8.68,0,2.51-1,4.88-3.44,5.3-1.34.25-2.61-.44-3.54-2-.28-.42-.86-.21-.85.36a10.67,10.67,0,0,0,2.86,6.25h-7a10.14,10.14,0,0,0,3-6.39Z" transform="translate(1.25 0.97)"/>
    <path d="M199.65,229.74c0,.88-.9.47-1,.19-1.19-2-2.91-2.46-4.61-1.74a4.24,4.24,0,0,0-2.49,4.55c.32,3.47,3,7.25,4.42,9.39a73.39,73.39,0,0,1,4.13,7.21,82.12,82.12,0,0,1,4.45-7.44c1.65-2.73,3.93-5.4,4.12-8.69,0-2.5-1.07-4.87-3.44-5.3-1.35-.24-2.61.45-3.56,2-.28.42-.85.21-.84-.36a10.56,10.56,0,0,1,2.87-6.25h-7a10.07,10.07,0,0,1,2.94,6.39Z" transform="translate(1.25 0.97)"/>
  </g>
</svg>
