<svg xmlns="http://www.w3.org/2000/svg" viewBox="0 0 211 284.5">
  <title>s8</title>
  <g>
    <g>
      <path d="M-.72,22.33c.16-4.41,1.79-6,5-8.36A7.61,7.61,0,0,1,.85,7.23C1.39,1.76,5.7-1,10.41-.81S19.17,3,19.47,7c.27,3.46-.77,5.13-3.28,7,3,2.45,4.87,4,4.8,8.41a10.29,10.29,0,0,1-10.37,9.59C4.08,32.09-.88,26.72-.72,22.33Zm18.3,0c.28-4-3.3-6.67-7.36-6.71s-7.48,3.26-7.48,6.84c0,3.84,4.59,5.93,7.56,5.94,3.6,0,7.05-2.63,7.28-6ZM16.29,8.08c.07-3.36-3.08-5.77-6.33-5.66-2.9.08-6,2.25-6,5,0,3.51,3.48,5.26,6.45,5.33C13.15,12.87,16.23,10.62,16.29,8.08Z" transform="translate(0.72 0.82)"/>
      <path d="M210.26,260.48c-.17,4.4-1.79,6-5,8.36a7.55,7.55,0,0,1,3.41,6.74c-.53,5.47-4.85,8.22-9.55,8.09s-8.77-3.78-9.06-7.76c-.28-3.47.77-5.14,3.28-7-3-2.45-4.88-4.07-4.8-8.41a10.3,10.3,0,0,1,10.38-9.65c6.55-.16,11.5,5.2,11.34,9.6Zm-18.3,0c-.28,4,3.31,6.68,7.36,6.72s7.48-3.27,7.49-6.84c0-3.84-4.6-5.93-7.57-5.94-3.6,0-7.05,2.63-7.28,6Zm1.3,14.25c-.08,3.36,3.08,5.77,6.33,5.66,2.89-.08,6-2.25,6-5,0-3.51-3.48-5.26-6.46-5.33C196.39,269.94,193.32,272.19,193.26,274.73Z" transform="translate(0.72 0.82)"/>
    </g>
    <path d="M45.26,52.79c0-2-1.6-2.07-1.58-.58-.17,7.47-6.48,11.15-11.09,10.31-7.05-1.35-9.34-8.38-9.28-12.52C23.52,37.23,36.4,27.81,48,11.44,56.5,26.19,70.55,37.8,71.43,49.22c1.1,15.19-18.12,20.86-20.88,3.15-.18-1.25-1.65-1.81-1.54-.06.42,4.85-.17,6.87,5.31,18.83H40A42.28,42.28,0,0,0,45.26,52.79Z" transform="translate(0.72 0.82)"/>
    <path d="M157.52,52.79c0-2-1.6-2.07-1.58-.58-.13,7.47-6.46,11.15-11.08,10.28-7.05-1.35-9.34-8.38-9.27-12.52.2-12.77,13.09-22.19,24.69-38.56,8.5,14.78,22.54,26.39,23.38,37.81,1.1,15.19-18.13,20.86-20.89,3.15-.17-1.25-1.65-1.81-1.53-.06.42,4.85-.18,6.87,5.3,18.83h-14.3A42,42,0,0,0,157.52,52.79Z" transform="translate(0.72 0.82)"/>
    <path d="M101.79,103.23c0-2-1.6-2.08-1.58-.6-.13,7.48-6.45,11.16-11.08,10.29-7-1.35-9.34-8.37-9.27-12.52.2-12.77,13.09-22.18,24.69-38.56,8.51,14.78,22.54,26.39,23.38,37.82,1.1,15.18-18.13,20.85-20.88,3.15-.18-1.25-1.66-1.82-1.54-.08.42,4.86-.18,6.88,5.3,18.84H96.51A41.93,41.93,0,0,0,101.79,103.23Z" transform="translate(0.72 0.82)"/>
    <path d="M45.26,153.65c0-2-1.6-2.07-1.58-.58-.14,7.47-6.47,11.15-11.08,10.27-7-1.33-9.34-8.37-9.28-12.5.21-12.78,13.09-22.2,24.68-38.58,8.5,14.78,22.55,26.39,23.43,37.79,1.1,15.19-18.12,20.86-20.88,3.15-.18-1.25-1.65-1.81-1.54-.06.42,4.85-.17,6.87,5.31,18.84H40A42.33,42.33,0,0,0,45.26,153.65Z" transform="translate(0.72 0.82)"/>
    <path d="M157.52,153.65c0-2-1.6-2.07-1.58-.58-.13,7.47-6.46,11.15-11.08,10.27-7.05-1.33-9.34-8.37-9.27-12.5.2-12.78,13.09-22.2,24.69-38.58,8.5,14.78,22.54,26.39,23.38,37.82,1.1,15.19-18.13,20.86-20.89,3.15-.17-1.25-1.65-1.81-1.53-.06.42,4.85-.18,6.87,5.3,18.84h-14.3A42.05,42.05,0,0,0,157.52,153.65Z" transform="translate(0.72 0.82)"/>
    <path d="M157.53,229.84c0,2-1.6,2.08-1.58.59-.13-7.47-6.46-11.16-11.08-10.28-7.05,1.35-9.34,8.37-9.27,12.51.2,12.77,13.09,22.19,24.69,38.57,8.5-14.78,22.54-26.39,23.38-37.81,1.1-15.19-18.13-20.86-20.89-3.16-.17,1.26-1.65,1.81-1.53.07.42-4.85-.18-6.87,5.3-18.83h-14.3a41.89,41.89,0,0,1,5.28,18.34Z" transform="translate(0.72 0.82)"/>
    <path d="M101.8,180.24c0,2-1.59,2.08-1.58.59-.13-7.48-6.45-11.16-11.08-10.28-7,1.35-9.34,8.37-9.27,12.51.21,12.77,13.09,22.2,24.69,38.57,8.51-14.78,22.55-26.39,23.38-37.81,1.1-15.19-18.13-20.86-20.88-3.16-.18,1.26-1.66,1.81-1.53.07.41-4.85-.19-6.87,5.29-18.84H96.52A42,42,0,0,1,101.8,180.24Z" transform="translate(0.72 0.82)"/>
    <path d="M45.26,229.84c0,2-1.6,2.08-1.58.59-.14-7.47-6.47-11.16-11.08-10.28-7,1.35-9.34,8.37-9.28,12.51.21,12.77,13.09,22.19,24.68,38.57,8.52-14.78,22.56-26.39,23.39-37.81,1.11-15.19-18.12-20.86-20.88-3.16-.18,1.26-1.65,1.81-1.54.07.42-4.85-.17-6.87,5.31-18.83H40A42.05,42.05,0,0,1,45.26,229.84Z" transform="translate(0.72 0.82)"/>
    <path d="M10.35,57c0-.88-.91-.47-1-.19-1.18,2-2.89,2.46-4.58,1.75S2.14,56.21,2.29,54c.32-3.45,3-7.25,4.38-9.38a69.08,69.08,0,0,0,4.09-7.2c1.7,3.39,2.58,4.34,4.43,7.44,1.64,2.72,3.93,5.39,4.1,8.68,0,2.49-1.06,4.86-3.42,5.29-1.34.24-2.6-.44-3.53-2-.28-.42-.85-.2-.84.36a10.47,10.47,0,0,0,2.85,6.25H7.41A10.12,10.12,0,0,0,10.35,57Z" transform="translate(0.72 0.82)"/>
    <path d="M200.45,230.75c0,.88-.9.47-1,.19-1.17-2-2.88-2.46-4.57-1.74a4.26,4.26,0,0,0-2.48,4.55c.32,3.46,3,7.25,4.39,9.39a69,69,0,0,1,4.1,7.19c1.71-3.38,2.58-4.34,4.44-7.43,1.63-2.72,3.92-5.39,4.1-8.68,0-2.5-1.06-4.86-3.42-5.29-1.35-.24-2.6.44-3.54,2-.28.42-.85.21-.84-.36a10.62,10.62,0,0,1,2.85-6.25h-6.93A10.13,10.13,0,0,1,200.45,230.75Z" transform="translate(0.72 0.82)"/>
  </g>
</svg>
