<svg xmlns="http://www.w3.org/2000/svg" viewBox="0 0 209.55 282.82">
  <title>8S</title>
  <g>
    <g>
      <path d="M7.34,38.05c.16-4.38,1.77-6,4.95-8.31A7.54,7.54,0,0,1,8.9,23.05c.53-5.44,4.81-8.17,9.49-8s8.7,3.76,9,7.72c.27,3.44-.77,5.1-3.26,6.92,3,2.44,4.84,4,4.77,8.36A10.23,10.23,0,0,1,18.6,47.59c-6.5.16-11.42-5.17-11.26-9.54Zm18.17,0c.28-4-3.28-6.63-7.31-6.67s-7.43,3.24-7.43,6.8c0,3.82,4.56,5.9,7.51,5.91,3.58,0,7-2.62,7.23-6ZM24.23,23.89c.07-3.34-3.06-5.73-6.29-5.63-2.88.08-5.92,2.24-5.92,5,0,3.49,3.46,5.23,6.41,5.3C21.11,28.65,24.17,26.41,24.23,23.89Z" transform="translate(-7.34 -15)"/>
      <path d="M216.88,274.76c-.16,4.37-1.77,6-4.94,8.31a7.49,7.49,0,0,1,3.38,6.69c-.52,5.44-4.81,8.17-9.48,8.05s-8.71-3.76-9-7.72c-.28-3.45.77-5.11,3.26-6.92-3-2.44-4.85-4.05-4.77-8.36a10.24,10.24,0,0,1,10.31-9.6c6.51-.15,11.42,5.17,11.26,9.55Zm-18.17,0c-.28,4,3.29,6.64,7.31,6.68s7.43-3.25,7.44-6.8c0-3.82-4.57-5.9-7.52-5.91-3.58,0-7,2.62-7.23,6ZM200,288.92c-.08,3.34,3.06,5.73,6.29,5.63,2.87-.08,5.92-2.24,5.92-5,0-3.49-3.46-5.23-6.42-5.3C203.11,284.16,200.06,286.4,200,288.92Z" transform="translate(-7.34 -15)"/>
    </g>
    <path d="M53,68.33c0-2-1.59-2.06-1.57-.58C51.27,75.18,45,78.83,40.42,78c-7-1.34-9.28-8.33-9.22-12.44.21-12.7,13-22.06,24.52-38.33C64.17,41.89,78.12,53.43,79,64.78c1.09,15.1-18,20.73-20.74,3.13-.18-1.24-1.64-1.8-1.53-.06.42,4.82-.17,6.83,5.27,18.72H47.73A41.94,41.94,0,0,0,53,68.33Z" transform="translate(-7.34 -15)"/>
    <path d="M164.5,68.33c0-2-1.59-2.06-1.57-.58-.13,7.43-6.41,11.08-11,10.22-7-1.34-9.28-8.33-9.21-12.44.2-12.7,13-22.06,24.52-38.33,8.45,14.69,22.39,26.23,23.22,37.58,1.1,15.1-18,20.73-20.74,3.13-.17-1.24-1.64-1.8-1.52-.06.41,4.82-.18,6.83,5.26,18.72H159.26a41.8,41.8,0,0,0,5.24-18.24Z" transform="translate(-7.34 -15)"/>
    <path d="M109.15,118.46c0-2-1.59-2.07-1.57-.59-.13,7.43-6.41,11.09-11,10.22-7-1.34-9.28-8.32-9.21-12.44.2-12.69,13-22.05,24.52-38.33,8.45,14.69,22.39,26.23,23.22,37.59,1.1,15.09-18,20.73-20.74,3.13-.17-1.24-1.64-1.8-1.52-.07.41,4.83-.18,6.83,5.26,18.72H103.91a41.72,41.72,0,0,0,5.24-18.23Z" transform="translate(-7.34 -15)"/>
    <path d="M53,168.58c0-2-1.59-2.06-1.57-.58-.13,7.42-6.42,11.08-11,10.21-7-1.33-9.28-8.32-9.22-12.43.21-12.7,13-22.06,24.52-38.34C64.17,142.13,78.12,153.67,79,165c1.09,15.1-18,20.73-20.74,3.13-.18-1.24-1.64-1.8-1.53-.06.42,4.82-.17,6.83,5.27,18.72H47.73A41.94,41.94,0,0,0,53,168.58Z" transform="translate(-7.34 -15)"/>
    <path d="M164.5,168.58c0-2-1.59-2.06-1.57-.58-.13,7.42-6.41,11.08-11,10.21-7-1.33-9.28-8.32-9.21-12.43.2-12.7,13-22.06,24.52-38.34,8.45,14.69,22.39,26.23,23.22,37.59,1.1,15.1-18,20.73-20.74,3.13-.17-1.24-1.64-1.8-1.52-.06.41,4.82-.18,6.83,5.26,18.72H159.26a41.8,41.8,0,0,0,5.24-18.24Z" transform="translate(-7.34 -15)"/>
    <path d="M164.51,244.3c0,2-1.59,2.07-1.57.59-.13-7.43-6.41-11.09-11-10.22-7,1.34-9.28,8.32-9.21,12.44.2,12.69,13,22.05,24.52,38.33,8.45-14.69,22.39-26.23,23.22-37.58,1.1-15.1-18-20.73-20.74-3.14-.17,1.25-1.64,1.8-1.52.07.41-4.82-.18-6.83,5.26-18.72H159.27a41.72,41.72,0,0,1,5.24,18.23Z" transform="translate(-7.34 -15)"/>
    <path d="M109.16,195c0,2-1.58,2.07-1.57.59-.13-7.43-6.41-11.09-11-10.22-7,1.34-9.28,8.32-9.21,12.44.21,12.69,13,22.06,24.52,38.33,8.45-14.69,22.4-26.23,23.22-37.58,1.1-15.1-18-20.73-20.74-3.14-.17,1.25-1.64,1.8-1.52.07.41-4.82-.18-6.83,5.26-18.72H103.92A41.72,41.72,0,0,1,109.16,195Z" transform="translate(-7.34 -15)"/>
    <path d="M53,244.3c0,2-1.59,2.07-1.57.59-.13-7.43-6.42-11.09-11-10.22-7,1.34-9.28,8.32-9.22,12.44.21,12.69,13,22.05,24.52,38.33,8.46-14.69,22.4-26.23,23.23-37.58,1.1-15.1-18-20.73-20.74-3.14-.18,1.25-1.64,1.8-1.53.07.42-4.82-.17-6.83,5.27-18.72H47.74A41.86,41.86,0,0,1,53,244.3Z" transform="translate(-7.34 -15)"/>
    <path d="M18.33,72.46c0-.87-.9-.46-1-.19-1.17,2-2.87,2.45-4.55,1.74s-2.6-2.28-2.45-4.53c.31-3.43,3-7.2,4.35-9.32A68.9,68.9,0,0,0,18.74,53c1.69,3.37,2.56,4.32,4.4,7.4,1.63,2.7,3.9,5.35,4.07,8.62,0,2.48-1.05,4.83-3.4,5.26-1.33.24-2.58-.44-3.5-2-.28-.41-.85-.19-.84.36a10.45,10.45,0,0,0,2.83,6.21H15.41a10.05,10.05,0,0,0,2.92-6.35Z" transform="translate(-7.34 -15)"/>
    <path d="M207.14,245.21c0,.87-.89.46-1,.19-1.16-2-2.86-2.45-4.54-1.73a4.21,4.21,0,0,0-2.46,4.52c.31,3.44,3,7.2,4.36,9.33a69.83,69.83,0,0,1,4.07,7.15c1.7-3.36,2.56-4.32,4.41-7.39,1.62-2.7,3.89-5.35,4.07-8.62,0-2.49-1.05-4.83-3.4-5.26-1.34-.24-2.58.44-3.51,2-.28.41-.85.2-.84-.36a10.62,10.62,0,0,1,2.83-6.21h-6.88A10.07,10.07,0,0,1,207.14,245.21Z" transform="translate(-7.34 -15)"/>
  </g>
</svg>
