<svg xmlns="http://www.w3.org/2000/svg" viewBox="0 0 211 284.5">
  <title>s9</title>
  <g>
    <g>
      <path d="M-2,26.71l3.06-.94a5.52,5.52,0,0,0,6,3.68c4.47-.34,6-5.13,6.3-9.37a9.14,9.14,0,0,1-6.6,2.57c-7.15-.37-9-5.82-9-11.55-.19-4.82,1.89-8.32,5.47-10a12.78,12.78,0,0,1,8.17.15c4.37,2.2,6,6,5.7,15.13,0,7.49-1.65,16.22-10,16.4a8.1,8.1,0,0,1-9-6.15ZM10.14,18.5a7.12,7.12,0,0,0,2.94-3c.53-1,.71-1.54.56-3.65C13.25,6.43,10.27,3.35,6,4,3.54,4.3,2.23,5.59,1.47,8,.08,12.42,1.85,17.6,5.16,18.8A6.71,6.71,0,0,0,10.14,18.5Z" transform="translate(2.26 -0.55)"/>
      <path d="M208.48,258.9l-3.06.94a5.52,5.52,0,0,0-6-3.68c-4.47.34-6,5.13-6.29,9.37a9.1,9.1,0,0,1,6.6-2.58c7.15.37,9,5.83,9,11.55.19,4.83-1.89,8.33-5.47,10a12.92,12.92,0,0,1-8.17-.15c-4.37-2.21-6-6-5.7-15.13,0-7.5,1.66-16.22,10.05-16.41a8.09,8.09,0,0,1,9,6.16Zm-12.14,8.21a7.16,7.16,0,0,0-2.93,3c-.54,1-.72,1.55-.57,3.66.4,5.43,3.37,8.51,7.69,7.9,2.41-.34,3.72-1.63,4.48-4,1.4-4.44-.38-9.62-3.69-10.82a6.76,6.76,0,0,0-5,.34Z" transform="translate(2.26 -0.55)"/>
    </g>
    <path d="M43.45,56.11c0-2-1.63-2.06-1.61-.58-.13,7.39-6.55,11-11.23,10.17-7.15-1.33-9.48-8.29-9.41-12.38.2-12.65,13.28-22,25.05-38.19C54.88,29.76,69.12,41.26,70,52.57c1.12,15-18.39,20.65-21.19,3.12-.17-1.24-1.68-1.8-1.55-.06.42,4.8-.19,6.8,5.37,18.64H38.07a41,41,0,0,0,5.36-18.16Z" transform="translate(2.26 -0.55)"/>
    <path d="M157.38,56.11c0-2-1.61-2.06-1.6-.58-.13,7.39-6.55,11-11.24,10.17-7.15-1.33-9.48-8.29-9.41-12.38.22-12.65,13.28-22,25.05-38.19,8.66,14.63,23,26.13,23.74,37.44,1.13,15-18.38,20.65-21.18,3.12-.18-1.24-1.68-1.8-1.56-.06.42,4.8-.18,6.8,5.38,18.64H152a40.79,40.79,0,0,0,5.35-18.16Z" transform="translate(2.26 -0.55)"/>
    <path d="M157.38,121.17c0-2-1.61-2-1.6-.58-.13,7.39-6.55,11-11.24,10.17-7.16-1.33-9.42-8.3-9.42-12.38.22-12.65,13.28-22,25-38.18,8.63,14.64,22.89,26.12,23.72,37.43,1.13,15-18.39,20.65-21.18,3.12-.18-1.23-1.68-1.79-1.56-.06.42,4.8-.18,6.8,5.38,18.64H152a40.79,40.79,0,0,0,5.35-18.16Z" transform="translate(2.26 -0.55)"/>
    <path d="M43.45,121.17c0-2-1.63-2-1.61-.58-.13,7.39-6.55,11-11.23,10.17-7.15-1.33-9.48-8.29-9.41-12.38.2-12.65,13.28-22,25.05-38.18C54.88,94.84,69.12,106.32,70,117.63c1.12,15-18.39,20.65-21.19,3.12-.17-1.23-1.68-1.79-1.55-.06.42,4.8-.19,6.8,5.37,18.64H38.07a40.93,40.93,0,0,0,5.36-18.16Z" transform="translate(2.26 -0.55)"/>
    <path d="M157.39,229.85c0,2-1.61,2.05-1.6.58-.13-7.39-6.55-11-11.24-10.17-7.15,1.33-9.48,8.29-9.41,12.38.22,12.65,13.28,22,25.05,38.18,8.63-14.64,22.89-26.12,23.72-37.43,1.13-15-18.38-20.65-21.17-3.12-.19,1.24-1.68,1.79-1.57.06.42-4.8-.18-6.8,5.38-18.64H152A40.79,40.79,0,0,1,157.39,229.85Z" transform="translate(2.26 -0.55)"/>
    <path d="M157.39,165c0,2-1.61,2.06-1.6.59-.13-7.4-6.55-11-11.24-10.18-7.15,1.33-9.48,8.28-9.41,12.39.22,12.64,13.28,22,25.05,38.17,8.63-14.63,22.89-26.12,23.72-37.44,1.13-15-18.38-20.64-21.17-3.11-.19,1.23-1.68,1.79-1.57.07.42-4.81-.18-6.81,5.38-18.65H152A40.79,40.79,0,0,1,157.39,165Z" transform="translate(2.26 -0.55)"/>
    <path d="M101.12,131.43c0,2-1.62,2.06-1.6.58-.14-7.4-6.56-11-11.24-10.17-7.15,1.33-9.49,8.28-9.41,12.39.21,12.63,13.28,21.91,25,38.17,8.64-14.63,22.89-26.12,23.73-37.44,1.12-15-18.39-20.64-21.18-3.12-.19,1.24-1.68,1.8-1.57.07.43-4.81-.17-6.8,5.39-18.64H95.76A40.89,40.89,0,0,1,101.12,131.43Z" transform="translate(2.26 -0.55)"/>
    <path d="M43.46,165c0,2-1.63,2.06-1.61.59-.13-7.4-6.55-11-11.23-10.18-7.15,1.33-9.48,8.28-9.41,12.39.2,12.64,13.28,22,25,38.17,8.63-14.63,22.87-26.12,23.72-37.44,1.12-15-18.39-20.64-21.19-3.11-.17,1.23-1.68,1.79-1.55.07.42-4.81-.19-6.81,5.37-18.65H38.07A40.8,40.8,0,0,1,43.43,165Z" transform="translate(2.26 -0.55)"/>
    <path d="M43.46,229.85c0,2-1.63,2.05-1.61.58-.13-7.39-6.55-11-11.23-10.17-7.15,1.33-9.48,8.29-9.41,12.38.2,12.65,13.28,22,25,38.18C54.89,256.18,69.13,244.7,70,233.39c1.12-15-18.39-20.65-21.19-3.12-.17,1.24-1.68,1.79-1.55.06.42-4.8-.19-6.8,5.37-18.64H38.07a40.93,40.93,0,0,1,5.36,18.16Z" transform="translate(2.26 -0.55)"/>
    <path d="M6.74,54.62c0-.86-.92-.47-1-.19a3.52,3.52,0,0,1-4.65,1.73,4.18,4.18,0,0,1-2.52-4.51c.32-3.42,3.06-7.17,4.44-9.29a66.86,66.86,0,0,0,4.17-7.12c1.74,3.35,2.62,4.3,4.5,7.36,1.66,2.69,4,5.33,4.15,8.59,0,2.48-1,4.81-3.47,5.23-1.36.24-2.64-.43-3.57-2-.29-.4-.87-.19-.86.37A10.31,10.31,0,0,0,10.8,61h-7a10,10,0,0,0,3-6.33Z" transform="translate(2.26 -0.55)"/>
    <path d="M199.63,226.67c0,.86-.91.45-1,.19a3.5,3.5,0,0,0-4.63-1.74,4.18,4.18,0,0,0-2.52,4.51c.32,3.42,3.07,7.17,4.46,9.29a65.86,65.86,0,0,1,4.15,7.13c1.74-3.36,2.62-4.31,4.51-7.37,1.66-2.69,4-5.33,4.16-8.59,0-2.47-1.08-4.81-3.48-5.24-1.35-.24-2.63.44-3.58,2a.48.48,0,0,1-.86-.36,10.45,10.45,0,0,1,2.89-6.19h-7a9.86,9.86,0,0,1,3,6.33Z" transform="translate(2.26 -0.55)"/>
  </g>
</svg>
