<svg xmlns="http://www.w3.org/2000/svg" viewBox="0 0 206.48 285.56">
  <title>9S</title>
  <g>
    <g>
      <path d="M8.77,39.85l3-.94a5.38,5.38,0,0,0,5.89,3.69c4.38-.34,5.84-5.15,6.17-9.4a8.83,8.83,0,0,1-6.46,2.58c-7-.37-8.77-5.85-8.84-11.6-.19-4.84,1.85-8.35,5.35-10,1.85-.82,6.1-.82,8,.15,4.28,2.21,5.87,6.05,5.58,15.19,0,7.52-1.62,16.29-9.84,16.47a7.94,7.94,0,0,1-8.84-6.18Zm11.89-8.24a7.08,7.08,0,0,0,2.87-3c.52-1,.7-1.55.55-3.67-.38-5.45-3.3-8.54-7.52-7.93-2.36.34-3.65,1.64-4.39,4.05-1.36,4.45.37,9.65,3.61,10.85A6.43,6.43,0,0,0,20.66,31.61Z" transform="translate(-8.55 -13.62)"/>
      <path d="M214.81,273l-3,.94a5.38,5.38,0,0,0-5.89-3.69c-4.38.34-5.83,5.15-6.16,9.4a8.85,8.85,0,0,1,6.46-2.59c7,.37,8.77,5.86,8.83,11.6.19,4.85-1.85,8.36-5.35,10-1.85.81-6.09.81-8-.15-4.28-2.22-5.86-6.05-5.58-15.19,0-7.53,1.63-16.29,9.84-16.48a7.94,7.94,0,0,1,8.84,6.19Zm-11.89,8.24a7.09,7.09,0,0,0-2.86,3c-.53,1-.71,1.56-.56,3.68.39,5.45,3.3,8.54,7.53,7.93,2.35-.34,3.64-1.64,4.38-4,1.37-4.45-.37-9.66-3.61-10.86a6.48,6.48,0,0,0-4.88.34Z" transform="translate(-8.55 -13.62)"/>
    </g>
    <path d="M53.26,69.37c0-2-1.59-2.06-1.57-.58-.13,7.42-6.42,11.08-11,10.21-7-1.33-9.28-8.32-9.21-12.43.2-12.7,13-22.06,24.52-38.34,8.45,14.69,22.39,26.23,23.22,37.59,1.1,15.1-18,20.73-20.74,3.13-.17-1.24-1.64-1.8-1.52-.06.41,4.82-.18,6.83,5.26,18.72H48a41.94,41.94,0,0,0,5.24-18.24Z" transform="translate(-8.55 -13.62)"/>
    <path d="M164.79,69.37c0-2-1.58-2.06-1.57-.58-.13,7.42-6.41,11.08-11,10.21-7-1.33-9.28-8.32-9.21-12.43.21-12.7,13-22.06,24.52-38.34C176,42.92,190,54.46,190.77,65.82c1.1,15.1-18,20.73-20.74,3.13-.17-1.24-1.64-1.8-1.52-.06.41,4.82-.18,6.83,5.26,18.72H159.55a41.8,41.8,0,0,0,5.24-18.24Z" transform="translate(-8.55 -13.62)"/>
    <path d="M164.79,134.7c0-2-1.58-2.06-1.57-.58-.13,7.42-6.41,11.08-11,10.21C145.21,143,143,136,143,131.9c.21-12.7,13-22.06,24.52-38.34,8.45,14.7,22.4,26.23,23.22,37.59,1.1,15.1-18,20.73-20.74,3.13-.17-1.24-1.64-1.8-1.52-.06.41,4.82-.18,6.83,5.26,18.72H159.55a41.8,41.8,0,0,0,5.24-18.24Z" transform="translate(-8.55 -13.62)"/>
    <path d="M53.26,134.7c0-2-1.59-2.06-1.57-.58-.13,7.42-6.42,11.08-11,10.21-7-1.33-9.28-8.32-9.21-12.43.2-12.7,13-22.06,24.52-38.34,8.45,14.7,22.39,26.23,23.22,37.59,1.1,15.1-18,20.73-20.74,3.13-.17-1.24-1.64-1.8-1.52-.06.41,4.82-.18,6.83,5.26,18.72H48a41.94,41.94,0,0,0,5.24-18.24Z" transform="translate(-8.55 -13.62)"/>
    <path d="M164.8,243.83c0,2-1.58,2.06-1.57.58-.13-7.42-6.41-11.08-11-10.21-7,1.33-9.28,8.32-9.21,12.43.21,12.7,13,22.06,24.52,38.34,8.45-14.7,22.4-26.23,23.22-37.59,1.1-15.1-18-20.73-20.73-3.13-.18,1.24-1.64,1.8-1.53.06.41-4.82-.18-6.83,5.26-18.72H159.56a41.8,41.8,0,0,1,5.24,18.24Z" transform="translate(-8.55 -13.62)"/>
    <path d="M164.8,178.72c0,2-1.58,2.07-1.57.59-.13-7.43-6.41-11.09-11-10.22-7,1.34-9.28,8.32-9.21,12.44.21,12.69,13,22.05,24.52,38.33,8.45-14.69,22.4-26.23,23.22-37.59,1.1-15.09-18-20.73-20.73-3.13-.18,1.24-1.64,1.8-1.53.07.41-4.83-.18-6.83,5.26-18.72H159.56a41.72,41.72,0,0,1,5.24,18.23Z" transform="translate(-8.55 -13.62)"/>
    <path d="M109.71,145c0,2-1.58,2.07-1.56.59-.14-7.43-6.42-11.09-11-10.22-7,1.34-9.29,8.32-9.22,12.44.21,12.69,13,22,24.52,38.33,8.45-14.69,22.4-26.23,23.22-37.59,1.1-15.09-18-20.73-20.73-3.13-.18,1.24-1.64,1.8-1.53.07.42-4.83-.17-6.83,5.27-18.72H104.47A41.72,41.72,0,0,1,109.71,145Z" transform="translate(-8.55 -13.62)"/>
    <path d="M53.27,178.72c0,2-1.59,2.07-1.57.59-.13-7.43-6.42-11.09-11-10.22-7,1.34-9.28,8.32-9.21,12.44.2,12.69,13,22.05,24.52,38.33,8.45-14.69,22.39-26.23,23.22-37.59,1.1-15.09-18-20.73-20.74-3.13-.17,1.24-1.64,1.8-1.52.07.41-4.83-.18-6.83,5.26-18.72H48a41.72,41.72,0,0,1,5.24,18.23Z" transform="translate(-8.55 -13.62)"/>
    <path d="M53.27,243.83c0,2-1.59,2.06-1.57.58-.13-7.42-6.42-11.08-11-10.21-7,1.33-9.28,8.32-9.21,12.43.2,12.7,13,22.06,24.52,38.34,8.45-14.7,22.39-26.23,23.22-37.59,1.1-15.1-18-20.73-20.74-3.13-.17,1.24-1.64,1.8-1.52.06.41-4.82-.18-6.83,5.26-18.72H48a41.8,41.8,0,0,1,5.24,18.24Z" transform="translate(-8.55 -13.62)"/>
    <path d="M17.33,67.88c0-.87-.9-.47-1-.19-1.16,2-2.87,2.45-4.55,1.73A4.21,4.21,0,0,1,9.31,64.9c.31-3.44,3-7.2,4.35-9.33a69.69,69.69,0,0,0,4.08-7.15c1.7,3.36,2.56,4.32,4.4,7.39,1.63,2.7,3.9,5.35,4.07,8.62,0,2.49-1,4.83-3.4,5.26-1.33.24-2.58-.44-3.5-2-.28-.4-.85-.19-.84.37a10.5,10.5,0,0,0,2.83,6.21H14.41a10.1,10.1,0,0,0,2.92-6.35Z" transform="translate(-8.55 -13.62)"/>
    <path d="M206.14,240.63c0,.87-.89.46-1,.19-1.16-2-2.86-2.45-4.54-1.74a4.22,4.22,0,0,0-2.46,4.53c.31,3.43,3,7.2,4.36,9.32a67.24,67.24,0,0,1,4.07,7.16c1.7-3.37,2.56-4.32,4.41-7.4,1.63-2.7,3.89-5.35,4.07-8.62,0-2.48-1.05-4.83-3.4-5.26-1.33-.24-2.58.44-3.51,2-.28.41-.85.19-.84-.36a10.57,10.57,0,0,1,2.83-6.21h-6.88a10,10,0,0,1,2.91,6.35Z" transform="translate(-8.55 -13.62)"/>
  </g>
</svg>
