<svg xmlns="http://www.w3.org/2000/svg" viewBox="0 0 208.76 283.7">
  <title>AS</title>
  <g>
    <g>
      <path d="M7.73,46.56V43.83h2.66l5.67-29.27h3.22l6.24,29.27h2.15v2.73H20.35V43.83h2l-.79-4.49H14.16l-.57,4.49h2v2.73ZM20.91,36.15,17.7,20.48l-3,15.67Z" transform="translate(-7.73 -14.56)"/>
      <path d="M216.49,266.24V269h-2.66l-5.66,29.27h-3.23L198.7,269h-2.15v-2.74h7.32V269h-2l.79,4.49h7.39l.57-4.49h-2v-2.74Zm-13.18,10.42,3.21,15.67,3-15.67Z" transform="translate(-7.73 -14.56)"/>
    </g>
    <path d="M110.82,167.75c0-2-1.58-2.06-1.56-.59-.14,7.43-6.42,11.09-11,10.22-7-1.33-9.28-8.32-9.21-12.43.21-12.7,13-22.06,24.52-38.34C122,141.3,136,152.84,136.8,164.2c1.1,15.1-18,20.73-20.73,3.13-.18-1.24-1.64-1.8-1.53-.06.41,4.82-.17,6.83,5.27,18.72H105.58a41.8,41.8,0,0,0,5.24-18.24Z" transform="translate(-7.73 -14.56)"/>
    <path d="M18,70.31c0-.87-.89-.47-1-.19-1.16,2-2.86,2.45-4.54,1.73A4.21,4.21,0,0,1,10,67.33c.31-3.44,3-7.2,4.36-9.33a69.83,69.83,0,0,0,4.07-7.15c1.7,3.36,2.56,4.32,4.41,7.39,1.62,2.7,3.89,5.35,4.07,8.62,0,2.49-1.05,4.83-3.4,5.26-1.33.24-2.58-.44-3.51-2-.28-.4-.85-.19-.84.37A10.62,10.62,0,0,0,22,76.66H15.11A10,10,0,0,0,18,70.31Z" transform="translate(-7.73 -14.56)"/>
    <path d="M206.4,242.88c0,.88-.89.47-1,.19-1.16-2-2.86-2.44-4.54-1.73a4.21,4.21,0,0,0-2.46,4.52c.31,3.44,3,7.2,4.36,9.33a69.83,69.83,0,0,1,4.07,7.15c1.7-3.36,2.56-4.32,4.41-7.39,1.62-2.7,3.89-5.35,4.07-8.62,0-2.48-1-4.83-3.4-5.26-1.33-.24-2.58.44-3.51,2-.28.4-.85.19-.84-.36a10.62,10.62,0,0,1,2.83-6.22h-6.88a10.09,10.09,0,0,1,2.91,6.35Z" transform="translate(-7.73 -14.56)"/>
  </g>
</svg>
