<svg xmlns="http://www.w3.org/2000/svg" viewBox="0 0 211 284.5">
  <title>sa</title>
  <g>
    <g>
      <path d="M-1.12,31.69V29H1.57L7.3-.4h3.25L16.86,29H19v2.73H11.64V29h2l-.8-4.51H5.38L4.8,29h2v2.73ZM12.2,21.26,9,5.54l-3,15.72Z" transform="translate(1.12 0.4)"/>
      <path d="M209.88,252v2.76h-2.69l-5.72,29.35h-3.26l-6.31-29.35h-2.17V252h7.39v2.74h-2l.8,4.51h7.47l.58-4.51h-2V252Zm-13.32,10.44,3.24,15.72,3-15.72Z" transform="translate(1.12 0.4)"/>
    </g>
    <path d="M103.08,153.22c0-2-1.6-2.06-1.58-.59-.14,7.45-6.49,11.12-11.12,10.25-7.07-1.34-9.38-8.34-9.31-12.47.21-12.73,13.14-22.12,24.79-38.44,8.52,14.73,22.67,26.3,23.47,37.69,1.12,15.14-18.19,20.79-21,3.14-.18-1.24-1.66-1.8-1.54-.06.41,4.83-.18,6.85,5.32,18.77H97.78A41.61,41.61,0,0,0,103.08,153.22Z" transform="translate(1.12 0.4)"/>
    <path d="M9.26,55.51c0-.87-.9-.47-1-.19-1.17,2-2.89,2.46-4.59,1.73a4.22,4.22,0,0,1-2.49-4.53c.32-3.45,3-7.22,4.41-9.35A69.86,69.86,0,0,0,9.69,36c1.72,3.37,2.59,4.33,4.46,7.41,1.64,2.7,3.93,5.36,4.12,8.64,0,2.5-1.07,4.84-3.44,5.28-1.34.24-2.61-.45-3.55-2-.28-.4-.86-.19-.85.37a10.66,10.66,0,0,0,2.87,6.19h-7A10,10,0,0,0,9.26,55.51Z" transform="translate(1.12 0.4)"/>
    <path d="M199.68,228.56c0,.88-.9.47-1,.19-1.17-2-2.89-2.45-4.59-1.73a4.2,4.2,0,0,0-2.48,4.53c.31,3.45,3,7.22,4.4,9.36a70.6,70.6,0,0,1,4.12,7.16c1.71-3.36,2.58-4.33,4.45-7.41,1.64-2.7,3.94-5.36,4.12-8.64,0-2.49-1-4.84-3.44-5.27-1.34-.24-2.61.44-3.55,2-.28.4-.86.19-.85-.36a10.67,10.67,0,0,1,2.86-6.24h-7a10.09,10.09,0,0,1,2.94,6.37Z" transform="translate(1.12 0.4)"/>
  </g>
</svg>
