<svg xmlns="http://www.w3.org/2000/svg" viewBox="0 0 211 284.5">
  <defs>
    <style>
      .a {
        fill: #131f67;
      }

      .b {
        fill: #d40000;
      }

      .c {
        fill: #e2cf00;
      }
    </style>
  </defs>
  <title>sj</title>
  <g>
    <path class="a" d="M24.29,19.7V275.37l163.4.34.1-255.77Zm51.9,1.5,74,.26S141.74,32.14,140,37c-1.36,1.7-2,1.39-4.22,1-6-1.53-16.16-1.5-21.19-1.59-9.51-.41-18.06,2.44-27.57,2.89C83.7,33.87,78.94,27.18,76.19,21.2Zm-49.84.47L74,21.8,85.12,41.53c.4.55,0,1.69-.23,2.32a49.08,49.08,0,0,1-5.38,10.4C76.87,58.5,75.92,62.39,76.86,65a2.6,2.6,0,0,1,.21,1.23,6.09,6.09,0,0,1-2.82,3.84c-1,.16-3.21.29-4.46,1.49A6.21,6.21,0,0,0,68,76.85a14.93,14.93,0,0,0,.2,1.62C54,84.24,43.79,90.89,44.12,91.14c-.13-.06-12.47-5.57-17.61-6.93ZM152.84,22h32.63l.2,90.24-12.53-7.87c1-.69,1.66-1.11,2.74-1.82.2,0,.56,0,.79-.11,2.19-.47,3.71-2,3-3.69-.51-1.11.19-1,.82-1.93a2.46,2.46,0,0,0,.11-2.79c-.22-.43-.1-.59.27-1.38a2.73,2.73,0,0,0-.95-3.82l0,0c-.13-.19.14-.49.21-.77.36-1.62-.31-3.05-1.76-3.41-.75-.19-1-.32-.73-1,.46-1.15-.15-1.58-1.12-1.92-1.64-.63-1.18-.73.85-1.61,4.14-1.8,5.11-7.16,2.26-12-.37-.62-1.33-2.07-2-3-.79-1.2-1.53-2.16-1.53-2.16l5.48-7.41a58.45,58.45,0,0,1-5.17-6.79c.31-1.2,4.13-5,4.63-8.59.78-5.77-3.7-9.38-7.94-8.94-3,.29-6.55,2.11-6.28,7.4a12.24,12.24,0,0,0,2,5.39c.85,1.54,1.93,3.17,3,4.73L166.23,56l5.57,6.84-.2.3c-.54.85-2.16,3.36-2.86,4.81-2.05,3.94-2.77,8.26,1.44,11.3a10.84,10.84,0,0,1,1.62,1.12c.42.39.16.7-.5.85a13.27,13.27,0,0,0-2.42.47,26.65,26.65,0,0,0-7.18,3.92,20.19,20.19,0,0,0-3.8,5.59c-1.13,2.31-1.45,2.82-1.45,2.82L137.08,82a7.79,7.79,0,0,1-.63-.51c-.37-.4-.24-.63,0-1.06a5.13,5.13,0,0,0,.12-2.27,3.71,3.71,0,0,1,.92-3,2.08,2.08,0,0,0,.28-1.81c-.31-.87-.34-.59.25-1.2.23-.27.49-.4.54-.7s0-1.07,0-2.35c0-2.56,0-2.34,1.46-3.47,1.84-1.39,2.53-2.06,2.82-2.68.42-.91,0-1.59-1-3.4-.48-.82-1.21-1.92-1.56-2.56a21.07,21.07,0,0,1-2.07-4,4.38,4.38,0,0,1,.05-4.06c.8-1.39,1-2.22,1-5,0-2.6-.23-2.36.46-3.22C144.78,34.15,152.84,22,152.84,22Zm20.74,9.55h.33a7.06,7.06,0,0,1,4.67,1.92c2,1.93,1.88,4.81,1.21,7.7a9.31,9.31,0,0,1-1.15,2.65,6.66,6.66,0,0,0-.63,1,16.85,16.85,0,0,1-1.07,1.71c-.58.87-1.27,2.08-1.27,2.08a32.93,32.93,0,0,0,2.63,3.69c1.26,1.83,2.09,3.41,2.19,3.32a7.15,7.15,0,0,1-.77,1.34,59.57,59.57,0,0,0-3.88,5.61c0,.09-.28.18-.28.27,0,.33.51.71,1.24,1.69,4.43,5.89,5,10.86,1.73,13.78a6.24,6.24,0,0,1-5,1.72,6.32,6.32,0,0,1-5.78-6.83,8.56,8.56,0,0,1,1.14-4.38,24.9,24.9,0,0,1,2.33-4.15,18.68,18.68,0,0,0,1.27-1.79A60.71,60.71,0,0,0,168,57.25a5.37,5.37,0,0,1-.84-1.42l5-7.11a16.06,16.06,0,0,0-1.55-2.78c-2-2.89-3.25-5.92-3.24-7.64,0-4.24,2.9-6.73,6.29-6.74Zm12.34,101.71c-3,1.51-5.77,6.66-.19,3.06l.13,3c-2.89,4-8.57,1.06-7.12-3.06-3.92.49-4.53-3.36-4.33-5.19-5.15-1.09-3.37-6.37-3.37-6.37-3-2.4-3.5-4.93-1.08-7.59-2.44-1.47-3.13-2.41-5.8-3.48,2,17.69,11.91,26.93,22.27,35.06,0,0,.23,5.69-1,4.65-14.8-10.72-24.32-23-26-42.8-.12.31-7-5.17-8.15-4.88-2.39,32.1,24,53.2,34.95,57.36a33.64,33.64,0,0,1,0,4.49c-16.62-7-35.11-27.65-38.7-52.19L137.77,130l-3.67-1.52L150,104.29l-10.73-6.52-17.46,26.81s-.46,2.24.8,2.21c24.51,2.53,61,31.07,48.74,77.51-1.05-.41-2.73-1.2-2.82-1.17,1.91-4,7.26-29.93-8.82-50.86-7.36-9.62-18.79-19.81-37.12-22.83,1.51,3,.85,9.9.85,9.9l4.28.84a12.6,12.6,0,0,1-3.23-4.3c-.79-2.49.38-4,3.23-2.48,1.13.62,1.42.59,2.52-.2a2.66,2.66,0,0,1,4.31,2.8c-.09.4,0,.65,1.11.75a10.11,10.11,0,0,1,6.57,3.29c.78,1,1,.82,1.66.24,1.73-1.46,4.58.55,4.07,2.8-.29,1.28-.13,1.59.48,1.84,3.36,1.37,4.2,2.23,5.24,5.09.39,1.05.7,1.39.9,1.33s.7-.22,1.18-.4c2.51-1,4,2,2.21,4.34-.37.47-.1,1,.54,1.27,2.1,1.1,3.53,3.74,3.76,6.51.1,1.05.21,1.05,1.3,1,2.78-.11,4.11,3.52,1.85,4.87-.79.46-.65,1.07,0,1.77a6.42,6.42,0,0,1,1.86,5.34c-.19,2.82,0,2.78.93,3.11,2.7,1,2.19,5.18-.46,5.18,1.92,4.3-.6,9.56-.52,9.66,5.1,2.78.49,5.77-1,5.21,0,0-.75,1.92.1,2.93-4.46,5.77-10.32,6.69-16.8,9.53l-.2-20.19c2.69,2.11,5.37,4.07,8,6,0,0,.68-.2.06-.75-1.19-1.07-4.18-2.93-5-3.68a109.22,109.22,0,0,1-9.59-8.9c-.53-1-1.33-.41-1.31-.35a44.42,44.42,0,0,0,2.41,4.24c2.21,3,4.36,6.27,4.13,9.54a12,12,0,0,1-1.21,4.64c-.32,1.26-2.37-.21-1.85-1.27.91-2.88,1.67-5.26-1.6-9.91a64.2,64.2,0,0,1-3.67-6.38l-1.33.31v26.32c-1.12,0-4,.75-3.35.77,8.78-1.7,11.47,10.48,3,10.87-1.61.06-3.28,2.74-3.45,4.2.07,3.53.61,7.26-2.06,10.66-.7.89-1,2.31-1.68,3.42-3.25,5.6-4.71,8.8-4.37,10.24.08.38.16.87.16.87-10.39,2.51-18.17,3.15-28.63,3.39a120,120,0,0,1,6.18-15.06c2-3.73,3-6.28,2.41-7-8.3.4-6.71-11.39,1.23-11,0,0,2-6.78,4.22-9.84,2.11-1.15,6.35.41,8.73-1.12,5.61-1.66,9.28,4.81,9.28,4.81l1.51-6.12L82,210.15s-5.12,1.86-7.74.81a13.94,13.94,0,0,1-3.58-2.56s18.95-29.49,21.74-33.75c.22-.34-.5-1.08-.5-1.09-.1-1-22.06,32.19-22,33.65a1.13,1.13,0,0,1-1.55.17l-.09-.07c-12.42-8.3-42.09-26.15-42.09-26.15V167.94c10.32-6.31,9.39-8.88-.17-2-.13.11-.2-5-.2-5,7.28-6.3,1.22-4.33-.22-2.14,0-1.57-.33-3.71.71-4.65,3.18-2.88,7-.23,7.12,4,4.14.79,3.63,4.32,4.7,5.77,4.23,2.32,2,5.83,3.06,7,4.45,2.72,1.35,7.11.39,7,.57.37,6.11,4,6.58,3.85-.47-18.87-21.91-36.88-22.51-35.93l.45-4.06s26.8,16.6,26.56,43.27l8.58,4.78c-.7-27.31-13.36-45.77-34.89-57.5l-.46-5.15C44,135.34,60.74,151.85,64.65,178.9l10-15,3.52,1.66-16.07,25,10,6.39C79.93,187,86.43,174.81,90.39,169c-.11-.53-.33-1.29-.33-1.29-38.27-6.12-59.83-40.87-49.55-77.19l2.65,1.14c-7.94,26.92,5,65.61,46.65,73.52-.08-2.89-.6-9.9-.6-9.9s-5.47-1.59-4.66-1c1.34,1.11,4.34,5.9,3.07,7.6a6.72,6.72,0,0,1-4.12-1.57c-.63-.44-.65-.34-1.36.39a2.72,2.72,0,0,1-4.85-1.93c0-1.18-.06-1.43-1.79-1.44-2.62,0-3.8-.45-5.37-2.49-1.12-1.44-1-1.45-2.33-1a2.73,2.73,0,0,1-3.62-1.12,2.52,2.52,0,0,1-.11-2.16c.39-1,0-1.24-1.17-1.42-2.22-.36-4.74-3.07-5.2-5.28-.1-.45-.33-.57-1.65-.52-2.57.09-4-1.42-3-3.55.54-1.14.69-1.6-.33-2.38a7.24,7.24,0,0,1-2.54-2.76,11.15,11.15,0,0,1-.82-3.45c-.1-.68-.33-.79-1.25-.91-2.66-.33-3.71-3-1.75-4.68.59-.53.59-.51-.31-1.64-1.75-2.2-2.39-5-1.64-7a1,1,0,0,0-.53-1.26l-.08,0c-2.44-.58-2.48-3.19-.15-4.66.67-.42.71-.7.2-1.57-.9-1.5-.85-5.43,0-7.31.55-1.23.55-1.25-.32-1.79A2.7,2.7,0,0,1,43,96.6a2.79,2.79,0,0,1,1.4-.95c1-.25,1.12-.39.84-1.64-.51-2.22-.59-2.79.76-3.67,3.72-2.34,13.25-6.82,13.25-6.82L62.52,82s.32,18.64.11,20.84c-.12,1,.76,1.53,1.79,2.52,2.11,2,3.27,4.45,6.09,6.15,0,0,1.77-1,2.85-1.63l.08-26.57c.22-.6.38-.67,1.1-.75a24.46,24.46,0,0,0,2.62-.42c1.21-.35,1.4-.82-.19-.66a15,15,0,0,0-2,.4c-5,1.45-8.69-6.08-4.88-9.88a12.25,12.25,0,0,1,4.69-1.8c.36,0,1.42-1.27,2.15-2.45a3.41,3.41,0,0,0,.62-3.23c-.88-2.49,0-6.3,2.59-10.47a37.58,37.58,0,0,0,6.18-13C96.45,39.9,105,37.46,114.13,38c.36,3-9.92,20.62-7.82,21.66,8.14,1.92,5.36,11.23-.82,10.92-.93,0-1,.08-1.61,2.06-1.12,2.88-1.85,5.11-3,7.81,0,.69-.5.62-3.89.59-3.1-.44-5.23,1.2-7.47,1.29a6.36,6.36,0,0,1-6.31-3.41c-.45-1-.86-.34-.87,2,0,1.85-.09,2.94-.09,2.94l25.36.06c27.3,0,24.58.45,26.8-.6,1.26-.61,2.09-1.28,4.28.11,3.51,2.21,3.39,1.92,2.37,3.34-6.86,9.86-22,33.58-22,33.58l1.07,1S135.29,97.91,142.27,87c.31-.36,1.77.09,1.77.09l41.79,26.33c-.35,4,.06,12.91.06,12.91-11.75,6-8.15,9.11-.08,1.79ZM115,38.51s12.13.1,18.2,1c5.32.83,5.06.67,5,4.42,0,2.67,0,2.6-.73,3.85-1.3,2.35-1.08,4.66,1,7.91S142,61.21,142,61.66c0,.69-.12,1.55-1.85,2.71-2,1.38-2.43,2.35-2.4,3.75,0,1.12-.2,1.5-.89,1.5a11.4,11.4,0,0,0-2.34,1,5.82,5.82,0,0,1-3.62.85c-.88,0-1.3-.33-1.55-.24-.46.22-.89,1.74-.88,2.18,0,.16.3.07.81-.11,2.9-1,7.21-.52,7.33-.1.58.51.58,1.3-.3,2.12a2.94,2.94,0,0,0-.58,2.67c.31,1.82.08,2.55-.89,3.19-3,1.92-6.87,2.17-13.17,1-6.62-1.23-11.15-3.68-14.88-8.07-1.69-1.92-2.11-2.64-1.27-2.78a13.58,13.58,0,0,0,3.21-.79c4.66-1.93,4.58-10.21-1.7-11.07C104.42,59.33,112.26,47.65,115,38.51Zm6,5.7c-2.25,1.22-3.43,2.71-3.44,3.51,0,.34.08.27,1.16-.41,3.12-2,11.34-4.85,14.28-3.2,2.11,1.23,3,.83,1.7-.83-2.84-3.88-10.6-.7-13.62.93Zm8,1.29a6.66,6.66,0,0,0-1,.12c-2.17.46-4.55,2.2-6.54,3.72A16.05,16.05,0,0,0,118.93,52c-.48.88.59,1.85,2.06,1.07a2,2,0,0,1,1.75-.24,17.94,17.94,0,0,0,7.4,1.15c.32.06.29.13.18.42A10.46,10.46,0,0,1,127.39,57c-.79.57-1.49,1-1.55,1.12-.24.38.82.41,2-.23a17.16,17.16,0,0,0,4.73-4.53,2.83,2.83,0,0,0,.32-.45c.11-.38-.59-.22-1-.32-.16,0-.13-.43-.17-.61a6.59,6.59,0,0,1,.17-1.93c.06-.55.67-1,1.07-1.37,1.74-1.76,1.6-2.56-.74-1.21a2.47,2.47,0,0,1-1.09.39c-3.46.11-5.47,0-8.36,2.34-1.28,1-2,1.09-.91,0,1.75-1.37,4-3.31,6.35-3.85,1.45-.35,2.84.73,3.49.45,0-.77-1.22-1.33-2.66-1.32Zm-.5,4.87a3.23,3.23,0,0,1,.74,2c0,.51-1,.3-1.08.06L127.71,51c-.19-.49.47-.76.86-.56Zm-1.77.3a5.48,5.48,0,0,1,.77,2c-.16.52-3.56-.19-4-.77a4.49,4.49,0,0,1,3.23-1.24Zm6,9.41a1.24,1.24,0,0,0-.9.4,3.08,3.08,0,0,0,.07,4.45,3.13,3.13,0,0,0,.73.52c.9.4,2.26.1,4.27-.49a9.43,9.43,0,0,1,1.82-.42,1.06,1.06,0,0,0,.9-1.22,1,1,0,0,0-.23-.49c-.64-.62-2.15-.53-3.76.68a3.41,3.41,0,0,1-2.08.91c-1.62,0-2.4-1.64-.74-3.34.54-.57.35-1-.08-1ZM121.42,71.24c1.91,1.5,5.54.71,7.94-.85,2.19-1.4,3.09-1.82,4.84-1.52,2.14.36,2.06-.46,1.13-1.49s-3.65-.8-5.83.6c-4.82,3.09-6.57,3.61-7.94,1.92s.29-4.12,2.06-2.89c1.46,1,1.44.24.83-.41-3.49-2.88-6,2.26-3,4.6Zm-17,1.47c2.45,3,4.77,5.46,8.27,7.29v.56H101.42A74,74,0,0,0,104.46,72.71ZM66.15,80.5c-.24,4.52.59,7.16,3.32,10.29,2.9,3.35,2.69,8.57.82,11.79-.82,1.44-2.5-.32-1.7-1.24,1.12-1.36,1.19-4.71.65-6.8-1.19-3.45-3.9-5.14-5-8.79A21.93,21.93,0,0,1,64,81.39Zm3.54.38a2,2,0,0,1,1,.56c1.6,1.34,1.33,5.19-.5,7.69-.57.75-1,.54-1.57-.16-.73-.7-.47-.76.14-1.93a8.06,8.06,0,0,0,.72-4.46C69.36,81.46,69.4,80.93,69.69,80.88ZM173.51,82.2c1.41,0,3.17.27,3.33.77s-.18,1.08-1,1.41c-2.06.85-4.79-.34-4.11-1.79C171.93,82.33,172.68,82.21,173.51,82.2Zm-3.58.32a2.41,2.41,0,0,1,1,.21c.67.33-.39,2.65,3,2.6.8.12,1.39-.07,1.29.29-.17.53-1.61,1.33-3.18,1.56-4.7.67-4.5.44-4.29,3.66a10.79,10.79,0,0,1-.3,4.08c-.5,2.21-.7,4.34-.36,3.63A17.31,17.31,0,0,0,168.68,93c0-2.49.91-3,1.28-1.19.14,1.2-.4,1.87.42,3.09.47.68.69.66.37,1.73a1.53,1.53,0,0,0,.26,1.68c.33.48.67.59.38,1.25a2,2,0,0,0,1.09,2.72,2.19,2.19,0,0,0,.68.17c.66,0,.83.33.64.57a3,3,0,0,1-1.6.73l-14.89-9.24s1.1-2.15,1.44-2.73c2.14-4.55,3.84-6.63,10.11-9A3.25,3.25,0,0,1,169.93,82.52Zm7.93,3a1.36,1.36,0,0,1,1.07.63c.91,1.14.12,2.57-2.14,3.85-1.92,1.05-2.49,1.19-2.9-.48a2.21,2.21,0,0,0-.52-.82c-.45-.4-.35-.72.22-1a19.86,19.86,0,0,0,1.83-1,6.15,6.15,0,0,1,2.44-1.21Zm-6.36,3.36a2.49,2.49,0,0,1,1.31.34,1,1,0,0,1,.25,1.46,1.14,1.14,0,0,1-.25.24c-1.2.47-3.08-.16-2.92-1.23C170,89.1,170.7,88.81,171.5,88.87ZM179.17,90a1.16,1.16,0,0,1,1,.58c.7,1.06-.12,2.11-2.49,3.23-1.56.74-3.55,1.06-3.42.63a5.77,5.77,0,0,0-.7-2.35c-.09-.3,0,0,2-.63a10.82,10.82,0,0,0,2-.82,3.49,3.49,0,0,1,1.64-.67ZM67.22,92.72a8.72,8.72,0,0,0-.75,6.35c.43,2.23.94,3.35,3.3,6.65,1.8,2.51,2.38,3.49,2,4.28-.3.43-1,.82-1.42.41-.88-1.11-1.41-2.46-2.26-3.7-3.3-4.69-3.53-5.9-4-9.62-.19-1.69.82-5.3,1.68-5.84C66.71,90.92,67.49,92.14,67.22,92.72Zm76.33-1.19a.42.42,0,0,0-.24.14,9.63,9.63,0,0,0-1.69,2.77c.1.67.67.23,2.15-1.93.36-.46.13-1-.22-1ZM172,92.72c1.32,0,1.79,1.19,1.19,1.79a1.46,1.46,0,0,1-2-.06,1.35,1.35,0,0,1-.39-.91C170.77,93,171,92.72,172,92.72Zm7.32,1.63c.77,0,.87.77.46,1.83s-1.1,1.14-2.92,1.69c-2.18.65-2.54.57-2.87-1.37-.11-.75-.06-.58,2-1.1a20,20,0,0,0,2.4-.84,2.82,2.82,0,0,1,.94-.23Zm-128.52.88.54,3.91.86-2.88Zm121.46,1.33c1.07,0,1.65,1,1.1,1.49a1.53,1.53,0,0,1-1.45.14C171.06,97.52,171.21,96.56,172.25,96.56Zm-32.75,2,2.08,1.25-17,26h-2l-.19-.41Zm38.46.25c1.25,0,1.36,1.14-.15,2.18a3.71,3.71,0,0,1-1.86.5c-.75,0-1.26-.15-1.32-.66-.33-1.24-.52-1.55.64-1.47a3.37,3.37,0,0,0,1.38-.23,4,4,0,0,1,1.35-.36ZM172.78,100c.87,0,1.41,1,.84,1.36s-1.62.2-1.61-.62c0-.57.19-.78.81-.78ZM50.84,101.78l-4.61,4a73.79,73.79,0,0,1,4.57,5.9Zm93.29.25c2-.07,2.65.87,1.71,1.49a5.07,5.07,0,0,1-3.86.61c-1.94-.35-.4-1.86,1.73-2.07ZM142,104.86a5.57,5.57,0,0,1,1.77.35c1.31.43,3,1.76,2.86,2.5-.12,1.19-2.44.57-4.3-1.14-1.21-1.06-1.24-1.69-.36-1.71Zm-1.77,0c1.13.11,2.26,3.85,1.39,5s-2.38-1.3-2.1-3.19c.11-.75.29-1.74.6-1.78l.08,0Zm-74.12.82c.63.14,1.46,1,1.28,1.65-.13.26-.4.19-.7.12a1.49,1.49,0,0,1-.82-1.51q0-.22.21-.24Zm86,.63,3.34,2.2-3.34.12Zm-13.81,4.44c2.56,0,3.09.81,1.19,1.79a6.25,6.25,0,0,1-3.73.15c-1.62-.52.28-1.93,2.51-1.92ZM159,112.42l.18,2.25-6.42.55-.34-2.35Zm-22.2,1.11a4.77,4.77,0,0,1,2.08.64c1.75.87,2.74,2.34,1.84,2.8s-2.27-.08-3.3-1.13c-1.39-1.36-1.46-2.23-.65-2.29Zm-2.19,0c1.18.07,2.18,3.17,1.41,4.7-.41.84-1,.66-1.71-.72s-.79-3.69.07-4a.67.67,0,0,1,.2,0Zm-83.51.88-2.81,5.47,5.09,4.3Zm108.68,4.27.45,2.16-6.16,1.47-.61-2.35Zm-26.91.42a3,3,0,0,1,1.85.53c.57.48.45.7-.88,1.22-2.36,1-5.28.37-3.59-1a4.33,4.33,0,0,1,2.6-.75Zm40-.12c-2.35,1.53-.09,2.36,1.6,1.21a2.61,2.61,0,0,0-1.62-1.24ZM131.13,122c1.69,0,5,2.29,4.29,3.36-.39.59-2.59.09-3.48-.72-1.15-1.08-1.76-2.51-1.12-2.62a1,1,0,0,1,.29,0Zm-2.12.1c.87-.15,2.26,3.77,1.21,4.81-.39.37-.5.35-1.16-.21a3.46,3.46,0,0,1-.3-4.38.38.38,0,0,1,.26-.25Zm51.74,2.08a2.38,2.38,0,0,0-.83-.84c-8.23,3-6.1,5.88.81.81Zm-19.39.27.81,2.18L156,129.05l-.91-2.39ZM55.17,128.63,53.08,134c2.28,0,4.33,1.06,6.43,2Zm108.23,1.59,1.34,2.11-5.83,3.06-1.2-2.29ZM27.79,134.37,30.18,136l-3.51,4.23-.32-.6v-3.51Zm138.83,1.33,1.41,2-5.62,3.78L161,139.31ZM33.79,138.24l2.58,1.92L32.29,145l-2.47-1.83Zm28.41,1.18-.12,5.77,6.07.23ZM132.43,142l6.95,3.84-1-5.88A60.6,60.6,0,0,0,132.43,142Zm37.93-1.21,1.62,1.92-5.2,4.22-1.66-2Zm-131.3,1.7,2.4,2.14-4.23,4.44-2.24-2Zm135.74,3.15,1.85,1.88-4.72,4.8-1.87-1.92ZM44.53,148l1.87,2.1-4.85,3.72-1.79-2.11Zm27.92.49,1.36,5.62c-.1-.41,6-1.68,6.83-1.25Zm71.35.47,5.78,5.92.66-5.7Zm35.73,1,2.1,1.59-3.89,5.35-2.37-1.79ZM48.7,153.47l1.73,2.41-5.09,2.89-1.43-2.13ZM185,154l.32.3v3.85l-1.62,2.3-2.19-1.26Zm-32.75,4.29,5.11,9,1.45-6.73a15,15,0,0,1-6.56-2.29Zm-99.54,1.21,1.22,2.6-5.34,2.37L47.38,162Zm2.9,6.26,1,2.6-5.71,1.84L50,167.72Zm-25.5,4.72,1.78,1.21c9.25-4.76,6.37-6.15-1.78-1.26Zm52.29-3c.35,0,.75.43,1.07,1.46.5,1.57.23,3.5-.86,3.48-.73-.09-1-1.92-1-2.45,0-1.57.35-2.45.8-2.49Zm5.07,1,2.21.23v.6L72.15,196.24,70,194.93Zm-9.44.62a4.25,4.25,0,0,1,2.63,1.41,4.6,4.6,0,0,1,1.23,2.16c0,.26-.49.16-1,.1a5.33,5.33,0,0,1-3.42-1.93c-.68-1.18-.29-1.77.51-1.76Zm80.67,1,2.34,11c.73-2.77,2.26-4.36,3.39-6.54a16,16,0,0,1-5.68-4.59ZM57.91,172.31l.54,2.88-5.85,1.23L52,173.64Zm22,1a1,1,0,0,1,.25,0c2.16.23,2.46.69,1,1.64-.88.57-3.26.66-3.66,0s1.14-1.68,2.4-1.69Zm-42.89,1.67,1.83,1c3.14-2.24-.29-2.67-1.83-1.08Zm39.77,1c.67,0,1.07,1.16,1.29,2.2a3.14,3.14,0,0,1-.09,2.46c-.5.62-1,.73-1.37.11-1.16-1.85-1.13-4.82.17-4.81ZM72,177.57a3,3,0,0,1,1.15.23c1.54.55,3.58,2.83,2.71,3.15-1.27.46-4-.88-4.56-2.25-.26-.69,0-1.11.7-1.13ZM59.33,179.4l.14,2.83-6.22.24-.18-2.81Zm15.22,2.38a4.25,4.25,0,0,1,1.73.27c.88.37.24,1-1.29,1.55-1,.35-2.45.44-3,0-1.15-.89.71-1.8,2.54-1.86Zm-48.07.32c4.26,2.51,13,8.1,13,8.1a3.37,3.37,0,0,0-1.27.7,4.4,4.4,0,0,1-1,.61,9.78,9.78,0,0,1-1.3.3c-2.75.57-4.09,2.07-3.24,3.95.34.74.43.61-.16,1.24-1.64,1.51-1.44,1.92-.85,3.9,0,.27-2,2.6-.22,4.35,1,.81,1,.31.65,2.14a1.93,1.93,0,0,0,1.53,2.29,1.65,1.65,0,0,0,.32,0c.92.41.91.27.59,1a1.47,1.47,0,0,0,.86,1.92h0c.71.44,1,.55.5,1-5.53,2.75-7.23,7.52-2,14.54.62.84,2.16,3.18,2.16,3.18-1.75,2.53-3.43,4.6-5.23,6.86l5.22,7.07a50.09,50.09,0,0,0-4,6.46c-1.83,3.85-.63,9.28,4.62,10.91a7,7,0,0,0,7.09-1.93c1.51-1.71,2.34-5.1,1-8.65-1.76-4-3.86-5.91-4.54-7l5.58-6.79s-3.84-5.37-5.38-7.31c10.47-12.42,1.92-15.89.28-17-.26-.16-.2-1-.2-1C50,212,53.16,207,55.93,200.63c5.61,3.5,13.64,8.22,19.28,11.9.53.48.89.79.81,1.06a9.53,9.53,0,0,0-.3,2.26c.26,1.64.14,2.39-.54,3s-.52.86-.42,1.5c.18,1.12.36,1.23-.16,1.79s-.84,1-.72,2.7a5.19,5.19,0,0,1-.07,2.32c-.36.77-1.31,1.16-2.57,2.12-2.21,1.67-1.91,2.19,1.13,8.27,2.6,5.18,2.89,6.37,1.89,8.21a8.2,8.2,0,0,0-1,4.92c0,.57.07,1.19.07,1.48,0,.72,0,.63-.43,1.08a17.78,17.78,0,0,0-1.22,1.53c-3.61,5.26-13.13,18.63-13.13,18.63l-32-.05Zm44.86,2.46c.37,0,.83.62,1.34,1.92a3,3,0,0,1-.21,2.59c-1,1-2.27-1.36-1.86-3.23.19-.88.44-1.3.73-1.32Zm90-1.46c0,4.81-.1,11-1.81,15.59l1.94.85c-.63-4.7.15-8.57,4.61-10.58a15.06,15.06,0,0,1-4.74-5.83Zm-94.76,3a1.91,1.91,0,0,1,.53.1,5.18,5.18,0,0,1,2.14,1.12c.92.91,1.86,2,1.62,2.1-1.52.65-5.35-1.33-4.85-2.88a.59.59,0,0,1,.56-.45Zm-6.73.21v2.34l-3.71-2.31Zm84.91,1.12c.59.06,1.53.82,1.39,1.35s-.59.52-1-.08c-.51-.76-.73-1.23-.39-1.28Zm-75.33,2.89c.9,0,1.68.17,1.77.62s-.7,1-1.54,1.24c-2.11.64-3.7.23-3.12-.78.36-.62,1.73-1,2.89-1.07ZM143,193c-.89,1.55-1,6.51.58,8.54,2.45,2.62,4.71,6,4.44,10.58l-2.35,1c.13-3.74,0-6.16-3-9.38-3.58-3.78-2.74-10.32-1.5-12.24,1.07-1.89,2.59.81,1.87,1.5ZM39.88,190.94c.75,0,1.67.4,3.34,1.45,4.26,2.89,6.57,4.05,10.79,7,.62.55.59.48.48,1a15.39,15.39,0,0,1-13.25,11.6c-.81.11-.39-.38-.88-1.32a2.62,2.62,0,0,0-2.44-1.4c-2.87,0-.42-1.58,3.09-2a6.93,6.93,0,0,0,3.29-1c.16.07-.6-4.68.18-6.35.41-1.51,0-2.24-.42-1.31a16.58,16.58,0,0,0-.85,3.67c-.18,1.32-.46,1.5-.78.86a2.13,2.13,0,0,1,.09-1.53c.25-1.25-1.36-2.18-1-3.33a2,2,0,0,0-.56-2.35,2.51,2.51,0,0,1-.22-1.5A2.45,2.45,0,0,0,39,192c-.47-.24-.34-.49.17-.74a2,2,0,0,1,.72-.19Zm-3.49,1.71a2.83,2.83,0,0,1,.82.09c.56.34,1,2.22.38,2.3a9.91,9.91,0,0,0-1.52.28c-1.9.53-2.8.46-2.76-.6S34.9,192.72,36.39,192.65Zm2.54.2c.75,0,1.35.85.89,1.3a.87.87,0,0,1-1.21-.05.77.77,0,0,1-.22-.5C38.39,193.24,38.57,192.85,38.93,192.85Zm.51,2.94a1.69,1.69,0,0,1,.7.15c.71.32,1.11,1.47.66,1.92a1.66,1.66,0,0,1-1.82-.22c-.92-.78-.47-1.81.46-1.85Zm-2.36.17c.42,0,.74.14.82.43s0,.48.07.84c.18.56.55,1,.23,1.2-1.47-.08-4.5,1.69-5.38,1.62-.72-.1-.81-.75-.18-1.81A6.32,6.32,0,0,1,37.08,196ZM38,199.4c.32,0,.37.15.24.6a3.06,3.06,0,0,0,.21,1.58c.25.53.68.83.45,1-.91.2-1.8.45-2.69.74-1.36.73-5.18,2.88-4.21-.59.3-1.17,1.7-2,4.16-2.83a10.62,10.62,0,0,1,1.84-.49Zm2,0a1.55,1.55,0,0,1,1.56,1c.89,1.72-1.65,1.93-2.47.53-.48-.83.14-1.42.91-1.47Zm.48,4c1.32,0,2.34,1.6,1.38,2.2a3.27,3.27,0,0,1-2.4.14c-1.22-.52-.66-2.35,1-2.34Zm126.55,0a99.78,99.78,0,0,0,18.5,6.65l-.22,63.2H140.14l-12.41-20.87s-.42-.69-.55-1a2.19,2.19,0,0,1,0-1.63,34.69,34.69,0,0,1,2.83-6.09c3-5.33,7.26-11.18,5-16.34-.26-.59,2.38-3.77,2.38-3.77,4.08.32,7.46-2.25,6.25-8.33,8.5-3.37,15.52-6.11,23.41-11.8Zm-128.9.31c.12,0-.23,1.39.5,2.23.44.68.37.65-1.16,1.23a9.42,9.42,0,0,0-1.46,1c-2.19,1.92-4.35-.58-2.24-2.57a8,8,0,0,1,4.34-1.92Zm104,1.31c.72.12,1.67,1.07,1.38,1.59a7.27,7.27,0,0,0-1.18,4.31c-.1,1.93.23,2.22-.53,1.93-.5-.23-1.42-.62-1.63-1.11-.46-1.1.77-6.86,2-6.64ZM37.39,209.94a2.73,2.73,0,0,1,2.15.84c.4.5.44,1,0,1.13-1,.48-4.08.23-4.24-.39C35.1,210.56,36.2,210,37.39,209.94Zm47.45,1.23a32.31,32.31,0,0,1,11.75,2.27c5,1.79,9.23,6.37,10.22,8.32.28.6-.32.6-.85.64-5.84,1-7.79,7.91-2.86,11.24a5.08,5.08,0,0,0,2.8.84c1.25-.1-5.55,12.56-8.26,20.44-8.39-.33-14.73.92-22.93-1.81-.88-1.42-.67-4.55,0-6.17.59-1.47,1.36-2.6,1-4.3-.64-2.94-3.41-6.73-4.34-9.21-.82-1.85-.76-2.55.65-3.61a10.94,10.94,0,0,0,2.54-2.15c.43-.58.25-.72.25-2,0-1.61,0-1.36,1.35-1.6a10.69,10.69,0,0,0,2.47-.88c1.8-.91,3-.88,4.1-.31.46.12.42-.34.61-1a5.09,5.09,0,0,0,.26-.84c0-.27-.64-.19-1.31-.11-2.68.37-4.78.45-5.86.06s-1-1-.4-1.92a3.11,3.11,0,0,0,.64-2.79c-.25-2.38.09-2.89,1.24-3.65,1.42-1,4-1.43,6.94-1.42Zm13.84,2.1h12.47a29.8,29.8,0,0,0-3.34,7.63c-.12.22-.25.44-.54.16A25.11,25.11,0,0,0,98.68,213.27Zm-10.35,8.48a13.53,13.53,0,0,0-5.69,2c-1.59.87-2.89,1.42-4.57,1.12-1-.17-1.09,0-1.22.26-.56,1.37,1.54,2.83,3.67,1.87.62-.25,5.36-2.63,5.62-2.83a9.89,9.89,0,0,1,2.76-.78,2.28,2.28,0,0,1,2.43,2.1,2,2,0,0,1,0,.49c-.25,1.85-3,1.92-3.12.3-.14-1.26-.69-.7-.74-.08a3.22,3.22,0,0,0,.89,2.06c2.27,1.37,5.28-1.31,3.84-4.07A3.92,3.92,0,0,0,88.33,221.75Zm-10.22,6.41c-1.53.29-2.54.88-4.2,1-1.37.28-1.27,1.34-.42,1.92.66.42,1.49.16,3.89-1.32a2.09,2.09,0,0,1,2.84.52,1.94,1.94,0,0,1-.34,2.61c-1.19,1-.38,1.23.44.64,2.09-1.51.89-5.93-2.21-5.37ZM85.46,236a1.72,1.72,0,0,0-.84.22,10,10,0,0,0-4,2.71c-.14.24-.06.65-.13,1s-.27.55-.23.73.53.29.6.44a6.3,6.3,0,0,1-.07,3c-.08.49-.84.64-1.14,1-1,1-.74,1.28.32.89.73-.26.43-.76,2.26-.41a8.88,8.88,0,0,0,6.13-1.18c2.07-1.13,2.82-1.74,2.91-1.61s0,.34-1.45,1.53c-3.72,3-6.48,3.68-8.55,2.56-.62-.41-1.12-.58-.65.31a3.46,3.46,0,0,0,.92.62c2.13,1,4.81.15,8.23-2.47.74-.57,1.4-1.21,2.27-1.92,2.84-2.3,2.09-3.35-1.11-2.23-1,.35-1.29,0-2.65-.54a10.36,10.36,0,0,0-4.54-.79c-1.83,0-2.11.13-2.11-.16a5.11,5.11,0,0,1,2.62-2.31C85.63,236.71,86,236,85.46,236Zm3.37,5.66c.35.34-.15.55-1.47,1.16a9.25,9.25,0,0,1-1.53.62c-.11.21-1.36-2.52-1-2.65.12-.08,3.18.17,4,.85ZM84,241.37a8.21,8.21,0,0,1,.65,1.86c0,.18.16.44-.13.44s-.62.06-.76-.15a5.14,5.14,0,0,1-.52-2.31c.22-.32.63-.11.76.13ZM95,246.27a1.5,1.5,0,0,0-.65.27c-5.26,3-11.57,4.58-15.63,3.09-1.37-.5-1.62-.32-1.12.58a3.43,3.43,0,0,0,2.07,1.65c3.32.88,8.66-.41,12.77-3,1.66-1.07,3-2.59,2.56-2.58Zm31,8.07s9.3,18.58,11.11,19.44l-75.68-.12L74.12,256C74.22,257,104.88,261.06,125.93,254.34Z" transform="translate(-0.8 -5.68)"/>
    <path class="b" d="M61.81,273.43,74,256c18.07,3.33,34.32,1.57,52.14-1.51l11.91,19.39Zm95.82-65.16-.08-10.38,3.73,1.35c-1.29-4.81,2-9.88,5-10.08-9.51-7-1.61-14.42-1.77-14.56-10.41-5.2-5.19-13.19-6-13.91-12.62-3.18-7.66-12.94-8.65-11.93-7.39,2.15-11.45-3.85-11.58-8.72-6.38,3.51-16.26-1.47-13.16-7,0,0,3.38,1.56,4,1.24,5.22-3.68,4.8,1.6,5.89,2.75,3.89-.55,6.18,2.33,7.16,3.74,5.73,0,5.5-1.33,5.54,4.07,4.33,1.05,4.16,3.32,6.66,6.42,5.45.06,4.54,1.77,3.31,4.69,3.92,3,4.25,5.41,4.89,8.17,4.29,1.51,5.05,2.11,2.25,5.61,3.8,5.5,2,8.66,2.55,9,4.71,3.3,2.36,4.49.29,5.77.72,4.39,1.29,5-.37,9.48,5.42,3.73-.86,5.42-1.18,5.34v3.69ZM26.35,181.18l-.12-12.86,46,28.78-5.81,8.82ZM87.4,200.11l10.92-22-3.9-24,31.13.66c3.51,7.69,5.62,14.27,14.58,27l-9.48,2.88.34,15.46ZM114,194.34a2.68,2.68,0,0,1-.44-1.37c.11-.37.41-.35.78-.15,1.32.62,2.65,1.16,3.62,0a1.68,1.68,0,0,0,0-2c-.75-1.47-3.1-.41-3.89-.36s-1-.58-.42-1.43a2.09,2.09,0,0,0,.65-1.26c.42-3.37-5.51-2.17-3.45,1.09.93,1.22.38,1.93-1,1.18s-3.61-.06-3.54,1.72c0,1.34,1.79,2.16,3.26,1.35.33-.18.59-.38.83-.49.68-.28,1.17,0,1,.7-.6,1-1.32,2.26-.72,3.13.6,1.28,2.66,1.16,3.37.37a2.07,2.07,0,0,0,0-2.46Zm71.82-67.56L139.81,97.85l1.59-2.44c2.07-1.12,2.92-2.5,2.85-4.43l1.25-2.68,40.41,25.13Zm-72-9.78,4.72,23.34-32.15.46c-1.77-7.84-12.81-25.58-12.78-25.27l8.57-20.42H124.9Zm-12.07-8.66c.82-.72.77-1.82-.13-3.07s-.48-2.06.91-1.25a3.72,3.72,0,0,0,2.83.35,1.84,1.84,0,0,0,1.33-2.18c-.19-1.25-1.61-1.59-3.13-1-.44.1-.7.44-1.08.61-.82.34-1.14-.61-.4-1.84a1.88,1.88,0,0,0-.58-2.66,2,2,0,0,0-1-.31,2,2,0,0,0-2.12,1.77,1.72,1.72,0,0,0,.14.87c1,1.42.26,2.41-1.1,1.45-2-1.35-4.55.37-3.49,2.4.52,1,2.22,1.24,3.74.61,1.26-.52,1.63.08.87,1.34-1.58,2.59,1,4.81,3.14,3ZM55.15,85.42l-.34,12.44C50,95,50.71,95,50.53,95a8.81,8.81,0,0,1-4.31,10.63c7.35,6.73,3.38,11.39,2.17,14.56a10.18,10.18,0,0,1,4.69,13.88l0,0c9.26.06,9.08,7.91,9.33,11.18,11.46-.7,9.93,8.17,11.44,8.93,5.55-2.4,12-1.59,13.75,5.64,1.11,4.11-3,.16-4.75.33-6.32,3.85-5.11-2-5.47-2.83-5.24.48-6-1.92-8.24-3.65-5.66,1.06-5.2-.75-4.86-4.09-4.45-.86-5.41-3.55-7.18-6.18-6.13.19-3.63-4-3.61-4.81-.74-.64-4.27-4-4.43-7.84-6.31-1.74-2.35-4.81-2.12-5.86-2.38-2.88-3-5-2.21-8.65-5.59-2.53-.92-4.9-.53-6.34-1.82-4.72-.49-6.13.23-8.66-3.6-4.08-1.45-3.84,1.18-6.33.33-.44-.58-2.5-.53-3.7ZM87.44,39.28l-10-17.48h72s-7.83,10.52-10.92,15.81C120.53,34.86,103.73,36.17,87.44,39.28Z" transform="translate(-0.8 -5.68)"/>
    <path class="c" d="M37.19,262.09c-6.32-1.4-7.42-9.09-1.46-15.52a5,5,0,0,0,.81-1.32s-1.06-1.68-3.82-5.39c-.52-.69-1.27-1.79-1.27-1.79,1.52-2.13,3.11-3.85,4.8-6.18.23-.3.65-.65.59-1a22.89,22.89,0,0,0-1.43-1.85c-4.28-6.11-4.75-8.53-2.58-12.16,2-3.41,7-3.84,9.92-.8,3.21,3.25,3.06,6.21-1.11,12.22-.91,1.31-1.58,2.51-1.58,2.51s0,.42,1.48,2.3c2.09,2.62,3.63,4.81,3.63,4.81l-1.86,2.2a31.37,31.37,0,0,0-3.49,4.65,2.57,2.57,0,0,0,.52,1C47,253,46.44,261.38,39,262.12A10.33,10.33,0,0,1,37.19,262.09Zm53.21-92.7c-.17-.28-23.82,36.79-23.82,36.79l2.69,1.68,22.62-34.27c.34.25.67.55.61,1,0,0-18.63,29.4-21.73,34.09a45.77,45.77,0,0,0,4.77,2.84c6.95-3.31,35.81-.44,55-1.59.06.06-.3,6.53-.3,6.53s-4.38-4.9-5.26-4.93c-4.36-.14-8.93,1.65-12.23,1.45-2.1.63-4.49,8-5,9.89-3.82-.43-7.51,3.44-6.63,7,1.25,4,3.39,3.71,5.72,3.77-.22,4.53-8.48,16.49-8.52,22.37,8.73-.66,18.19-.82,27.2-3.45,0,0,3.39-9.43,7.66-15.66a12.41,12.41,0,0,0,1.51-8.19c-.36-2.46.74-3.09,1.71-4.81.6-1.07,2.8-1,3.08-1.11,5.73-1.61,3.69-8.79,1.25-10.07-3.05-1.6-7.35.88-9-2.36-1.75-3.42-1.18-10.49-1.18-10.49l-43.28.21s12.23-22.51,11.91-22.68c-3.34-1.78-8.8-8-8.85-8ZM61.46,189.88c.2-2.28.58-39.27-35.5-57.69l.19-4.87c.23-.25,32.82,14.26,38.42,51.93L74.62,164l3.7,1.4c-5.47,8-16.34,27.28-16.87,24.46ZM39.55,176.56c1.49-4.27-1-2-3.17-2.19-1.53-.79-3-1.83-4.42-2.73,10.54-5.41,4.26-5.15-1.88-1.35-1.6-.84-3.61-2.67-3.73-2.51,11.91-7.42,7.43-7.57-.19-2.2.27-5,.08-3.15.19-4.81,6.49-6.73.44-3.08,0-3-1.6-6.73,6-5.32,6.74-.24,1.35,1,4,2.17,4.77,6.34,3.66,2.26,3.29,4.14,3.11,6.85,1.44,1.37,5.14,4.28.82,7ZM25.86,145.88l.25-3.72c.5-1.52,28.33,17.72,26.32,42.43.33-.17-3.08-1.73-4.06-2.57,0-18.15-22.07-37-22.51-36.14Zm159.6,20.88c-18.57-8.25-36.2-28-37.12-53.71l-10.49,17-3.72-1.53c.35.28,8.29-14,16.47-23.88,2.31,32.42,15.44,47.5,35.31,58.44ZM88.2,154.9c-18-2.16-44-25.89-36.23-58.07,1.14-3.28,18.49,14.83,18.49,14.82.11-.82,15.61,23.38,15.18,28.1,13.08,3.61,38.61.19,38.61.19,21.23,4.6,43.43,26.79,35.41,58.33a97.16,97.16,0,0,1-10.36-7.77c-14.32-13.46-18.85-24.45-24-36.62-18.34-1.6-35.53,1.59-37.11,1Zm97.41-26.8a40.45,40.45,0,0,1,.16,4.92c-4.78,5-5.28,5.14.72,3.52-.75,4.8-4.44,5.63-6.63,4-.8-.61-.81-3.94-.81-3.94-3.64-.88-4.89-1.92-4.37-5.77-4.19-.49-4-2.46-3.67-6.58-3.82-2.08-2.87-5.39-.62-6.8l1.89,1.26c-.61.53-.31,3.85,3,1.36,0,0,2.67,2.16,4,3-9.66,6-3.8,4.7,2.16.75,1.11.74,2.64,1.92,3.43,2.46-7.83,5.48-10.41,10,.77,1.84Zm.46,20.48-.32,4.35c-19.08-11.32-24.25-26.24-25.67-42.14,0,0,2.56,1.83,3.73,2.59C165.52,133.88,184.89,147.73,186.07,148.58ZM81.54,94.77l45.77.28-12.19,22.5,6.41,7.34s15.88-24,23.9-36.59l-2.77-1.6-22.82,34.75-.92-1,22.5-34.73c-1.35-.85-3.9-2.23-3.9-2.23s-39,.61-55.92.54a40.18,40.18,0,0,0,.77-6.29c2.49,3.47,5.17,6.58,11,3.17,0,0,6.89.22,7.14-.1.85-1.32,2.34-5.47,4.08-10.16,6.64-.44,6-3.55,6.74-4.57-.5-9.15-5.8-4.22-5.35-7.55,1.5-5.93,9.15-19.36,8.18-20.53-2-1.27-21.55,2.46-27.24,3.15-.53-.21-3.32,8.65-6.24,12.37-3.2,4.1-4.34,8.49-2.7,12.64-1.7,4.55-5,4.08-7.53,5.38-3,3.09-2.14,7.83.67,9.62,2,1.28,5,1.21,8-1.2Zm91-31.81-5.35-7,5.19-7.32c-2.06-3.16-5.43-8-4.83-11.79,1.32-7.58,11.86-6.46,12.79.78.49,3.36-2,7.49-4.6,11,1.69,3,2.42,3.48,4.88,6.91-1.45,2.51-5,7.41-5,7.41,2.23,3.63,5.32,7.62,5.1,11.31-.23,3.17-3.8,6.38-7.12,5.71C163.19,77.88,169,67.17,172.49,63Z" transform="translate(-0.8 -5.68)"/>
    <path d="M11,5.68V9.06h3.42s.08,3.23.11,10.09c0,6.64.17,9.94-.28,11.83-1.2,4.38-7.85,4.4-9.17,1.25-.76-1.82-.55-3.24-.59-5.07H.8v2.05c0,4.92,1.73,7.25,5.73,8.19s8.93-.56,10.63-3.91c1-1.92.9-2,.93-13.54,0-7.7.14-10.89.14-10.89h3.15V5.68ZM75.65,21c2.84,5.17,10.92,19.1,10.92,19.1,19.17-3.85,35.3-4.81,52.24-1.23l12-17.79Zm2.5,1.05h3.47l6.8,13.56,11.73-2.28-2-11.25h3.32l1.67,10.82,17.24-.43L122.63,22h3.17l-2.28,10.58,13.64,1.78L143.84,22h4.59L138.28,37.34a123.74,123.74,0,0,0-51,1.32Zm6.54,0H94.81l2.45,9.13a23.63,23.63,0,0,1-7.44,1.55A111.05,111.05,0,0,1,84.69,22.05Zm19.52,0h15.4l-1.32,7.79-12.9.4Zm24.41,0h11.91l-4.68,9.46-8.94-1.18Zm-75.86,2.4a76.1,76.1,0,0,1-8.55,13.38C35.88,48.41,34.09,51.39,32.44,57.61c-2.58,9.69,6.26,17.56,14,12.27,1.81-1.25,3.83-4.68,3.83-6.16,0-1.07.76-1.64,1.37-1A2.32,2.32,0,0,1,51.78,64C51.35,68.36,49.52,75.5,46,80H60.11A25.07,25.07,0,0,1,54.48,63.8c0-2.24,1.38-2,1.69.27C57.67,75.3,72.62,73.19,73.31,62c.42-5.87-3.41-12.13-8.39-19.06C60.85,37.24,55.89,31.18,52.76,24.45Zm121.08,7.1a9.56,9.56,0,0,0-1.93.17c-3.08.63-4.68,2.89-4.71,6.66,0,1.71,1.29,4.75,3.27,7.61a26.19,26.19,0,0,1,1.61,2.69L166.92,56l5.5,7s-.87,1-1.37,1.67c-2.52,3.45-3.69,6.68-3.53,9.33.18,2.88,1.9,5,5.12,6.08a6.63,6.63,0,0,0,6-1.61,6,6,0,0,0,2.08-4.6c0-2.62-1.27-5.77-3.87-9.26a11.34,11.34,0,0,1-1.05-1.69s3.64-5,5-7.33l-5-6.92c4-5.77,4.75-7,4.86-10.58a6.73,6.73,0,0,0-6.88-6.56h0Zm-.5.42h.52c4.51.34,6.94,3.6,6.31,7.77-.62,4-4.33,7.7-5,9a79,79,0,0,0,5.15,6.81c-1.43,2.51-5.12,7.38-5.12,7.38.14.25.29.49.45.73,3.84,5.28,4.9,7.77,4.64,10.94a5.94,5.94,0,0,1-4.79,5.17,6.51,6.51,0,0,1-7.62-5,5.93,5.93,0,0,1-.1-.72c-.24-3.27,2-6.45,3.62-8.93.72-1,1.33-2,1.33-2l-5.47-7,.64-1c1-1.36,2.21-3,2.85-3.85,1.15-1.45,1.83-2.45,1.83-2.45l-1.57-2.43c-3-4.6-3.84-7-3.38-9.49A5.81,5.81,0,0,1,173.3,32Zm.41,2.36a4.42,4.42,0,0,0-3.9,3c-.93,3.23,2.6,8.14,4.19,9.45,3-3.34,4.91-7.08,3.81-9.71a4.66,4.66,0,0,0-4.17-2.73Zm.41,1.05c3,.06,4.16,3.54,1.83,7.5a25.5,25.5,0,0,1-2,2.77s-1.11-1.35-1.77-2.36c-2.71-4.1-2-7.31,1.31-7.87a3.83,3.83,0,0,1,.58-.07Zm-60.25,1.81a143.59,143.59,0,0,0-27.79,3.36A34.3,34.3,0,0,1,80,54.06c-2.59,4.17-3.58,7.8-2.71,10.28.82,2.33-1.42,5.77-3.89,6a5.08,5.08,0,0,0-5,5.2s0,.07,0,.1c-.09,4.73,3.27,7.62,7.85,6a1,1,0,0,1,.76.23L76.78,109a18.83,18.83,0,0,0-6.47,2l-.92-1L68,108.57a6.45,6.45,0,0,0-1.12-1,3.77,3.77,0,0,1-1-1,21.61,21.61,0,0,0-4.08-3.85c-.21-.14-.76-.58-1.2-1l-.82-.73v-9c0-4.94,0-9-.11-9.11a10.58,10.58,0,0,0-2.33,1,75.78,75.78,0,0,0-11.2,6.19c-1.35.87-1.49,1.36-1,3.58.28,1.24.21,1.38-.85,1.63-2.18.52-2.87,3.85-1,5,.87.54.87.57.32,1.78-.87,1.92-.84,5.49.06,7,.5.85.47,1.13-.2,1.56-2.32,1.46-2.16,4.59.26,5.18.62.15.78.41.58,1-.76,1.92-.07,4.81,1.67,7,.9,1.14.9,1.13.31,1.65a2.88,2.88,0,0,0-.19,4.17,3.11,3.11,0,0,0,1.95.94c.92.12.93.12,1,.8a9.84,9.84,0,0,0,.89,3.4,7.39,7.39,0,0,0,2.49,2.89c1,.77,1,.78.49,1.92-1,2.12.59,4.21,3.16,4.13,1.32,0,1.32,0,1.41.41a7.73,7.73,0,0,0,5.4,5.15c1.15.2,1.33.46,1,1.4-.62,1.51-.22,2.48,1.36,3.27a2.5,2.5,0,0,0,2.53.16c1.31-.44,1.32-.43,2.44,1,1.57,2,2.62,2.55,5.24,2.57,1.72,0,1.79.06,1.8,1.24a2.78,2.78,0,0,0,2.61,2.95,2.86,2.86,0,0,0,2.44-1c.71-.73.71-.73,1.34-.28,2.76,1.93,5.22,2.47,5,.64a11.48,11.48,0,0,0-3.75-6.93l4,1c.17,4.55.34,10,1.32,13.81L72.27,196.77s-1.08-.65-2.22-1.41c-1.69-1.12-3.75-2.44-5-3.21a19,19,0,0,1-2.12-1.4c-.63-.5.39-1.16.6-1.69,4.11-7.13,10.57-15.7,15.25-24l-4.54-1.7c-3.47,5.29-6,9.61-9.27,14.42-3.22-22.91-19.72-43-39.69-51.48l.06,6c22.09,10.93,35.85,33.08,35.47,57.11a22.82,22.82,0,0,1-4-2.33c-1.19-.77-3.6-2.29-3.89-2.44,1-28-27.68-44.55-27.73-43.77,0,0-.19,3.63-.27,5.3,12.22,7.93,21.83,22.35,22.83,35.19,0,.1-5.73-3.48-5.73-3.48,3.41-1.65,2.47-5.92,0-7.07-.77-.34-.81-.5-.43-1.51.79-2.07-.66-5.18-2.65-5.7-.87-.24-1-.46-1-1.64a4.06,4.06,0,0,0-3.55-4.06c-.62-.13-.63-.14-.66-.88-.19-4.2-4.42-5.92-7.61-3.08a5.12,5.12,0,0,0-.72,1v4.56c1.09-.58,2.74-2.56,3.41-2.48s.39.58-1.29,2c-1.09.91-2.15,1.88-2.15,1.88l.07,6c1.8-1.14,3.62-2.43,5.32-3.57,1.46-1,2.21-1.32,2.39-1s-.12.74-1,1.22c-2.23,1.44-4.82,3.14-6.69,4.55v4.13l.35.52.11,3.62-.34.09v4.55l44,27.23L92,173.83l.38.35L70,208.32a11.47,11.47,0,0,0,1.79,1.21c.9.49,2,1.12,3,1.74a2.37,2.37,0,0,0,2.07,1.25c.78-.82,4.15-1.67,4.47-2.06,12.56-.17,48.57.06,48.57.06l.2,5.59c-1.62-5.42-6.84-6.53-10.92-4.11h-6.74c-.06,0-4,6.95-4.57,10.58-2.83-.37-6.6,2.3-6.79,5-.47,3.84,2.15,6.68,5.59,6.13a17.94,17.94,0,0,1-2.48,6.8,101.58,101.58,0,0,0-5.46,12.65c-1.06,2.81-.71,3.31-.53,3.38,10.07-.14,19.32-1.08,28.85-4.07,0,0-.17-.65-.26-1-.34-1.49,1-4.56,4.63-10.88,2.84-4.9,3.65-6.73,4-9.07a9,9,0,0,0-.3-3.64,2.88,2.88,0,0,1-.15-.72c.3-1.47,2.6-4,2.66-4a9,9,0,0,0,1.17-.17c5.19-.36,6.81-7.2,2.42-10.29a6.26,6.26,0,0,0-5.66-.79V185.35l3.15.12,3.48-1.66c5.58,4.62,9.23,9.34,15.23,12.89l-.1.24-4.46-3v17.4c5.17-2.61,10-5,14.63-8.66l-.94-.78v-2.49c4.37.34,4.79-5.05,1.2-5.69a5.16,5.16,0,0,1,.43-1.13,7.83,7.83,0,0,0,.44-6.52c-.49-1.39-.47-1.74.11-1.74,2.65,0,2.41-4.54-.3-5.53-.93-.35-.87-.07-.68-2.89a6.71,6.71,0,0,0-2-5.43c-.62-.7-.57-1,.23-1.51,2.26-1.34.61-5.2-2.17-5.09-1.09,0-1.08,0-1.18-1a8.35,8.35,0,0,0-4-6.52c-.64-.34-.73-.62-.38-1.09,1.79-2.31.12-5.47-2.39-4.54l-1.14.39c-.2.06-.36-.21-.74-1.25-1-2.88-2-3.75-5.3-5.1-.66-.26-.7-.46-.4-1.75.51-2.24-2.68-4.33-4.41-2.89-.69.6-.72.59-1.5-.39a10.61,10.61,0,0,0-6.42-3.21c-1.09-.09-1.26-.18-1.17-.58a2.76,2.76,0,0,0-4.44-2.89c-1.1.79-1.39.82-2.52.21-2.38-1.3-3.43-1.35-3.67-.18a7.63,7.63,0,0,0,.39,2.84c.58,1.92,1.33,2.64,3,4,0,0-2.73-.73-3.42-.87.07-.06-.19-9.16-2-14.31l17.42-26.86,10,6.37-16,24.46,4.65,1.83s6.2-10,9.45-14.88c2.12,24.32,21.51,45.62,39.09,51.92-.06,0,.06-3.49.13-5.2-18.54-7.9-36.17-30-35.07-56.53l7.46,4.62c2.15,21.26,11.71,33.72,27.65,44.23V148.3c-11-7.87-20.09-18.15-22.51-34.62,0,0,3.72,2.28,5.39,3.35a5.56,5.56,0,0,0-.72.47c-2,1.6-1.39,4.89,1.23,6.73.43.3.43.3,0,1.33a3.89,3.89,0,0,0,2.39,5l.11,0c1.19.3,1.18.29,1.21,1.61,0,2.56,1.11,3.74,4,4.35.39.08.4.12.39,1.27a3.67,3.67,0,0,0,3.5,3.85,3.84,3.84,0,0,0,1.74-.3,31.63,31.63,0,0,0,3.18-2.33v-4.55s-1.09.86-1.88,1.57c-1.38,1.25-1.81,1.41-1.81.65,0-.56.63-1.28,2-2.23a21.24,21.24,0,0,0,1.73-1.55v-5.32a4,4,0,0,1-.58-2.08,13.24,13.24,0,0,1,.2-1.54h.66v-6.15l-.8-.6v-4.07L142.59,86,119.9,121l-.57-.65,22.72-34.76-6-3.73-3.64,1.74s-25.23-.38-49.83-.08a24.33,24.33,0,0,1,0-2.51c0-2.34.13-2.67.58-1.69a6.39,6.39,0,0,0,6.33,3.42,6.18,6.18,0,0,0,3.64-1.08c.68-.35.79-.36,4-.34,3.38,0,4-.09,4-.79a65.56,65.56,0,0,0,3-7.87c.32-1.1.47-1.58.73-1.81s.37-.13.87-.16c2.16-.14,2.75-.27,4.31-1.74,3.13-3,1.34-9.23-3.18-9.26-1.2,0-.38-3.1,2.15-8.11a82.47,82.47,0,0,0,4.35-9.46,21.53,21.53,0,0,0,1.41-4.89Zm-.24,1.5c.63.51-1,4.26-3.76,9.92A60.58,60.58,0,0,0,106,57.33c-.15.49-.35,1.19-.45,1.57a1.86,1.86,0,0,1-.9,1.14l-1.17.87c-.76.59-1,.4-.76-.79.34-2.22,1.26-4.61,3.35-8.77a89.9,89.9,0,0,0,4.55-10.48c.27-.85.41-1.7.88-2a3.13,3.13,0,0,1,2.13-.16Zm-3.4.21c.44.29-1.62,5.42-5.16,12.5-4.43,8.89-4.67,15.11-.69,16.64,3.15,1.2,6.31-2.15,4.37-4.59-.93-1.18-3-1.28-3.63-.06-.38.66.15,1.43.81.5,1-1.36,3,.21,2.47,1.82a3,3,0,0,1-2.9,1.78c-4.35-.83-3.53-6.77,1-7.1,4.32-.31,6.28,5.3,3.14,8.52a5.21,5.21,0,0,1-4.17,1.56c-2.81,0-5.44-2.26-5.17-4.34a8.05,8.05,0,0,0-.24-4.95,3.58,3.58,0,0,1-.47-1.58c0-1.68,1.48-4.31,4.69-10.79a61.69,61.69,0,0,0,3.24-8.88c.25-.74.13-1,.42-1.06a3.64,3.64,0,0,1,2.26,0Zm-3.7.09c.65,0-.86,4.71-2.76,8.66-1.45,3.05-3.42,7-4.89,10.58-.47.76-.79.82-1.75.32s-.74-1.42,1.76-6.25a74.48,74.48,0,0,0,5-12,1.64,1.64,0,0,1,.72-1.17,4.2,4.2,0,0,1,2-.19Zm-3.53.52c.35.46-2,6.73-5.48,13.87-.77,1.5-1.28,2.88-2,4.42a7.38,7.38,0,0,1-2.49.68c-.72-.09,0-1.42,2-5.49,1.68-3.31,2.17-4.26,3-6.27.65-1.48,1.6-4,2.48-6.38.07-.19.14-.63.33-.72a2.9,2.9,0,0,1,2.07-.14Zm-3.46.41c.06.14-.07.46-.12.7-.56,2.54-1.83,4.89-2.77,7.32-.11.33-1.13,2.39-2.27,4.58s-2.22,4.25-2.36,4.62l-.84,2.17c-2,4.24.15,7.59,2.86,7.82,4.22.35,4.62-5.39,1.64-5.94a1.89,1.89,0,0,0-2.3,1.3,1.52,1.52,0,0,0-.06.42c-.08.65.75,1.41.73.48,0-1.71,2.42-1.64,2.73-.18.59,2.82-2.73,4.21-4.7,2a3.29,3.29,0,0,1-.66-2.89,3.88,3.88,0,0,1,4.39-3.2,4,4,0,0,1,1.83.75c3.81,2.62,2.49,8.39-2.44,9.34a5.7,5.7,0,0,1-5.14-1.48,6.12,6.12,0,0,1-1.61-3.64,10.24,10.24,0,0,1,0-2.82c.39-3,2.63-7.29,4.59-11,1.51-3,2.7-7.07,4.07-10.3.4-.28,2.48-.53,2.42-.09Zm-3.72.4c.22.07-.93,3.58-2.57,7.38-1.82,3.84-4.16,8.26-5.49,12-.43,1-.72.91-1.92-.17-.63-.57-.27-1.41,2-5.77,3.39-6.73,4.66-9.61,5.16-11.18.24-.75.44-1.67,1-1.92a2.77,2.77,0,0,1,2-.33Zm-3.39.84a62.42,62.42,0,0,1-3.55,8.45c-1.27,2.5-2.5,5.28-3.74,7.87-.7,1.59-.72,1.59-1.9,1.83-2,.41-2,.39-.24-3.09.52-1,1.54-2.89,2.25-4.21a69.34,69.34,0,0,0,4-9.29,3.85,3.85,0,0,1,.78-1.5c.21-.1,1.8-.56,2.33-.09Zm-4.38.42a1,1,0,0,1,.83.24c.09.79-2.1,5.83-3.46,8.16-.41.73-.82,1.66-1.28,2.49a44.38,44.38,0,0,0-4.33,9.86C79,65.7,83,68.24,85,65.79c1.3-1.48-.06-4.14-2-3.39-.66.26-.39.54.5.61,1.48.12,1.6,2.33,0,2.82a2.41,2.41,0,0,1-2.91-1.71,2.3,2.3,0,0,1-.06-.74A3.37,3.37,0,0,1,84,60a3.44,3.44,0,0,1,2.26.81c2.17,1.75,2.51,5.91-.77,7.53s-7.16-.56-7.94-4.29c-.61-2.88,0-5.45,2.88-9.84a54.49,54.49,0,0,0,5.44-10.71,5.34,5.34,0,0,1,.71-1.46,2.6,2.6,0,0,1,1.51-.5Zm-77.23.77S9.54,44.7,7.77,47.52c-2.15,3.55-5.32,7-5.79,11a7.23,7.23,0,0,0,.3,2.89c1,2.88,5.27,3.34,6.77.89.45-.73.6-.86,1-.63.19.09.27.38.26.78-.37,2.6-1.4,4-2.89,6h7.15a10.48,10.48,0,0,1-3-6.07c0-.91.54-1,1.4,0,2.9,3.8,7.26-.39,6.87-3.88-.41-3.85-4.59-8.9-5.74-10.86-1.74-2.5-3.32-5.28-3.32-5.28ZM174,50.54l-4.31,5.27C171,57.55,173.9,61,173.9,61L178,55.87Zm0,3,1.79,2.24-2,2.34-1.92-2.18ZM174.19,65s-5.21,5.53-4,9.62c1.07,3.65,6.74,4.55,8.12-.8a6.19,6.19,0,0,0,0-1.72c-.21-2.2-4.16-7.14-4.16-7.14Zm0,1.1s1.49,2.1,2.54,4,1.49,6.73-2.7,6.56c-2.26.22-4.43-2.67-2.63-6.22a50.67,50.67,0,0,1,2.78-4.34ZM88.33,67c.28,0,.57.56.76,1,.25.6-.47,2.32-1.21,3.18a22.53,22.53,0,0,0-2.52,1A9.58,9.58,0,0,1,86,69.41c1-1,1.79-2,2.18-2.36A.23.23,0,0,1,88.33,67ZM78,67.29c.63.7,1.27,1.32,1.24,1.75,0,.64-.81,1.43-1.39,2-.74.71-2.2.28-2.2-.62a12.66,12.66,0,0,1,2.3-3.11Zm22,1a3.51,3.51,0,0,1,1.32,1.93c-.91,4.72-4.26,10.5-4.15,10.28a6.85,6.85,0,0,1-2.92-.07A36,36,0,0,0,99,70.32c.38-1.42.58-2.1.9-2.11Zm-1.91.67c.35,0,.48.25.19,1C96.94,75.1,94,80.59,91.61,81.59a5.81,5.81,0,0,1-7.45-2c-1.42-2.43-1.17-6.27,3.57-7.1,2.79-.28,5.65,1.85,4.16,5.28-1.66,2.54-6.1,1.12-4.8-2.16,1-1.2,3-.15,2.38,1.2-.35.7,0,1.12.49.64,1.62-1.53-1-4.17-2.84-2.89-3,2.15.68,6.87,4.1,4.81,1-.61,2.93-4.08,3.64-6.6A5.69,5.69,0,0,1,96.16,70,4.18,4.18,0,0,1,98,68.87Zm-7.79.21a1.79,1.79,0,0,1,.64.21c.34.16.74.46.69.85a3.32,3.32,0,0,1-.84,1.92c-.32-.11-1.19-.44-1.8-.61-.37-.09.13-.87.36-1.31.37-.7.57-1,.88-1Zm-9.69.17c.44,0,1.15.47,1.6.54.09.65-.76,2-2.14,3.67-1.14,1.35-1.13,1.35-1.9-.13-.48-1-.5-1,.91-2.63.75-1,1.12-1.32,1.45-1.44Zm4.4.48a5.22,5.22,0,0,1-.32,1.56c-1.61,4.5-5.29,9-8.32,10.12-4,1.26-7.58-.76-7.67-5.42.1-5.49,6.83-7,8.87-2,.92,2.26-1.59,5.66-3.75,5.09s-3.1-3.85-1.29-4.69a1.49,1.49,0,0,1,2,.58,1.37,1.37,0,0,1,.14,1c-.09.43-.07.49.19.44,1.12-.2.53-2.39-.79-2.89-2.52-1-4.41,2.24-2.71,4.69,2,2.88,5.21,2.35,7-1.25a12.19,12.19,0,0,1,1.32-1.93,17.19,17.19,0,0,0,2.44-3.38,14.36,14.36,0,0,1,1.12-1.78A7.34,7.34,0,0,0,85,69.74Zm8.87.24c.48,0,.85.3.84,1a12.65,12.65,0,0,1-1.16,3.31c-.15.2-.48,1-.53.77a8.17,8.17,0,0,0-1.41-2.35c-.13-.46.29-.9.47-1.31A2.13,2.13,0,0,1,93.83,70Zm8.37.72c.58,0,1.39.25,1.56.66.53.88-3,9.17-3.15,9.2L98,80.49a76.77,76.77,0,0,0,4-9.74,1.14,1.14,0,0,1,.25-.06Zm35.49,13.11,3.37,1.92-22.18,34.14-3.22-2.39Zm-55.36.66c20.7.08,49.23,0,49.23,0l-1.2,2.22s-31.16-.26-48-.22Zm-27.95,1.4V97.13s-.16-.07-2.14-1.35c-2.37-1.52-5-3.09-5.8-3.51-1.24-.61-1.09-.9,1.3-2.36S54.42,85.91,54.42,85.91ZM143.08,87l2.08,1.27-23.3,35.94-1.29-2.47Zm-60.71.5h3.25v3.55H82.37Zm7.43,0h4v3.55h-4Zm8.6,0h4v3.55h-4Zm8.44,0h4.09v3.55h-4.09Zm8.5,0h4v3.55h-4Zm8.51.07H128V90.1l-.62,1.05h-3.51Zm22.27,1.28,39.47,24.72V117L144.47,91.26Zm-2.6,2.89.34.23-1.67,2.49-.35-.2Zm-61,.36h44.34L125.5,94.3l-43-.06ZM46.08,93.21a4.66,4.66,0,0,1,1.79.72c2.18,1.19,3.55,3.69,2.61,4.59s-2.8-1-4-3.38C45.81,93.84,45.65,93.23,46.08,93.21Zm78.47,2.13-14.31,22.12c-3.24-4.3-6.86-8-14.78-5.49-4.13-3.1-8.49-3.58-13.14-1l.05-15.59Zm-73.66,0,1.12,1a12.22,12.22,0,0,0-.69,2.28,12.13,12.13,0,0,0-.43-3.22Zm90.71.23,44.09,28.11v2.61L140,97.8Zm-96.55.65a1.93,1.93,0,0,1,1.54.71,2,2,0,0,1-.54,2.81C44.19,101,42,98.6,43.43,97a2.22,2.22,0,0,1,1.62-.77Zm7.3.33,2.4,1.87c-4.14,23.14,7.77,46.4,33.48,53.39l.29,3c0,.13-10.92-3.17-15.72-6.64a48.34,48.34,0,0,1-15.88-17.37,49.41,49.41,0,0,1-5-13.57,55.91,55.91,0,0,1,.4-20.63Zm-2.73,3.14c.92,0,1,.68.29,1.92a9,9,0,0,1-4.71,3.61c-1.27.52-1.61.28-1.46-1,.22-2,1.64-3.43,4.11-4.19a6.61,6.61,0,0,1,1.76-.34Zm7.09.25,1,.79a1.91,1.91,0,0,0-1.2,2.46A2,2,0,0,0,59,104.35a2,2,0,0,0,1.28-1.46l1,.81a3.19,3.19,0,0,1-4.1,1.71,3,3,0,0,1-1.76-4,3.08,3.08,0,0,1,1.32-1.49Zm1.61,1.54a.81.81,0,0,1,.31,0l.7.57a1.08,1.08,0,0,1-.54,1.45A1.14,1.14,0,0,1,57.3,103a1.07,1.07,0,0,1,.54-1.45,1.18,1.18,0,0,1,.5-.1Zm-7.59.7a80.86,80.86,0,0,0-.08,9.21,8.39,8.39,0,0,0-4.12-5.59A18.92,18.92,0,0,0,50.73,102.18Zm11.59,2.34,2.14,1.78C62.61,130.75,84.72,140,85.3,139.61l.93,2.77A35.55,35.55,0,0,1,62.3,104.52ZM185.44,163.1l-.11,3.09c-17.33-6.52-37.07-30.54-36.81-53.56-4.45,6.61-7,11-10.77,17l-3-1.4c5-7.21,9.75-14.92,14.76-22,.58-.81,1-1.17,1.06.58C150.53,114.68,153.07,147.27,185.44,163.1ZM44.6,106.43a4.15,4.15,0,0,1,2.35.87c1.59,1,3.37,4.22,2.75,4.93s-2.9-.13-4.07-1.32C43.33,108.53,43.17,106.52,44.6,106.43Zm13.51.32a3.06,3.06,0,1,1-3.17,3,3.09,3.09,0,0,1,3.17-3Zm7.06.28,2.07,2.35c.4,20.51,17.11,26.84,17,26.92l.5,2.21C83.77,138.59,64,129.89,65.17,107Zm-7.06.82a1.93,1.93,0,1,0,2,1.93,2,2,0,0,0-2-1.93Zm0,.86A1.1,1.1,0,1,1,57,109.8h0a1.11,1.11,0,0,1,1.13-1.09Zm10.68,1.85c.24,0,1.43,1.69,1.43,1.69s-1.31.44-1.87-.11S68.09,110.56,68.79,110.56Zm91.49.76,3.1,2.05c1.44,13.85,9.62,26.46,22,35.22l-.08,3.44C170.23,142.18,161.89,128.81,160.28,111.32Zm-116,.24h.16a1.93,1.93,0,1,1-2.13,2.18,2.1,2.1,0,0,1,1.51-2.1A3.69,3.69,0,0,1,44.26,111.56Zm25.81,1.85a2.18,2.18,0,0,1,1.54.84c1.36,1.48,1.35,1.92-.09,2.48-2,.79-3.69-.31-3-2,.35-.87.92-1.33,1.56-1.33Zm-20.64.07a1.42,1.42,0,0,1,.46.06c1.49.57-1.74,6.28-3.86,6.86-1.35.38-1.64-.13-1.19-2.14.52-2.23,3-4.75,4.63-4.78Zm9.48.13a3.06,3.06,0,1,1-3.16,3.06,3.12,3.12,0,0,1,3.16-3.06h0Zm0,1.11a1.92,1.92,0,1,0,2,1.92,1.95,1.95,0,0,0-2-1.92Zm-7.94.16A33.11,33.11,0,0,0,53,123.82c-1.22-1.92-3-2.82-4.62-3.84,1.21-1.73,2.59-3.42,2.64-5.1Zm7.94.69a1.1,1.1,0,1,1,0,2.2,1.12,1.12,0,0,1-1.13-1.1h0a1.12,1.12,0,0,1,1.13-1.1h0Zm17.86.34a5.18,5.18,0,0,1,5.48,4.84V121a65.87,65.87,0,0,1,0,8.43l-2.67-4.74c0-1.35.2-2.37.09-3.7a3,3,0,0,0-4.12-2.74l-1.12-1.82a7,7,0,0,1,2.39-.51Zm11.62.37c3.08,0,4.87,1.67,5,4.67.19,5.77-.13,18.85-.13,18.85H86.59l-3.65-8.75a8,8,0,0,1-.11-1.46c.23-2.8.08-5.93.18-8.47a5.58,5.58,0,0,1,5.43-4.84Zm-15.46.9a1.52,1.52,0,0,1,1.13.42c1.55,1.51,1.54,2.51,0,3.19-2.09.91-3.16.74-3.87-.61s1.27-3,2.79-3Zm97.35.41,1.7,1.06s-.36.54-.55.87c-1,1.59.67,2.53,3,1.69a4.49,4.49,0,0,0,.76-.38l1.39,1s-1,.53-2.11,1c-2.82,1.34-4.85.77-5.54-1.55a3.3,3.3,0,0,1,.54-2.75,8.6,8.6,0,0,1,.88-1Zm-71.63.19a5.85,5.85,0,0,1,5.69,4.51c.25,1.23-.06,17.51-.06,17.51H94.07l.21-17.08a4.27,4.27,0,0,1,.6-2.89,5.2,5.2,0,0,1,3.82-2ZM88,118.53c-2.06.09-3.25,3.35-1.11,4.88.89.64.91.76.42,2.88a11.34,11.34,0,0,0,1.35,7.77c1,1.57.78.77.27-.63-.63-2.64-.33-4.58,1.25-7.64,1.4-2.57,2.76-6.54-1.7-7.26a3.08,3.08,0,0,0-.43,0Zm85.11.75.92.6-.33.3a1.09,1.09,0,0,1-1.33.14c-.33-.44.79-1,.79-1Zm-73.87,1.26c-2.22-.07-3.69,3.93-.84,4.89a1.11,1.11,0,0,1,.36,1.68,11.16,11.16,0,0,0-1,4.4,16.21,16.21,0,0,0,.8,4c.74,1.79.59,1.07.4-1a9.94,9.94,0,0,1,1.79-6.19c1.64-2.64,3.91-6.94-1.29-7.69h-.22Zm-38.29,0a2.23,2.23,0,1,0,0,.06Zm14.63.3c.55,0,1,.35,1.45,1.06,1.37,1.92,1.21,2.38-1.42,3.78-2.79,1.49-4.65-2.25-2-4a4.65,4.65,0,0,1,1.84-.86ZM46.66,121c3,0,7.54,4.09,5.3,4.68a3.36,3.36,0,0,1-.89.13c-3.65-.2-7.89-4.83-4.37-4.79Zm14.29.65a1.93,1.93,0,1,0,2,1.92,2,2,0,0,0-2-1.92Zm116.37.58,1.47,1s-.9.39-2,1c-2.86,1.48-3.69,2.58-2.7,3.54a1.27,1.27,0,0,0,1.52.22,42.43,42.43,0,0,0,5.7-3.1l1.1.74s-4.39,3-6.76,4.27c-3.74,1.87-5.87-1.92-3.79-4.47,1.67-1.55,3.38-2,5.49-3.1ZM61,122.53a1.1,1.1,0,1,1-1.14,1.09h0A1.12,1.12,0,0,1,61,122.53Zm118.64,1,.81.51-2.54,1.41c-2.67,1.48-2.77,1.51-2.92,1.28-.13-.08,0-.69.86-1.21A36,36,0,0,1,179.63,123.54Zm-69.27.07a5.27,5.27,0,0,1,4.72,2.59,10.12,10.12,0,0,1,.58,4v9.56H105.31a88.1,88.1,0,0,1,0-11.94,5.1,5.1,0,0,1,5.07-4.25ZM78.3,125c.67,0,1.14.57,1.77,1.92s.15,2.09-1.79,2.88a2.21,2.21,0,0,1-.62.18,2.12,2.12,0,0,1-1.35-3.64C77.18,125.51,77.8,125.06,78.3,125Zm105,1,.9.54s-.46.4-3.79,2.76c-2.69,1.92-3.08,2.42-2.52,3.49.45.86,1.43.75,2.79-.26,1.9-1.42,4.87-3.79,4.87-3.79l.1,1.62c-2,1.52-4.32,4.13-6.2,5.11-3.62,1.73-6.22-3-2.91-5.36a77.33,77.33,0,0,1,6.76-4.09Zm-72.44,0c-2.7,0-3.71,3.84-.81,4.68.85.44.77.66.21,2.6a8.25,8.25,0,0,0-.26,3.53c.22,1.17.49,1.14.38-.12a10,10,0,0,1,1.46-3.66c2.69-3.64,2-7-1-7Zm-62.91,0c1.79,0,2.78,2.41,1.25,3.45-1.11.74-3.39-.16-3.39-1.32A2.23,2.23,0,0,1,47.57,126a1,1,0,0,1,.35,0Zm5.14.2c.55,0,.88.8.87,2.37A6.81,6.81,0,0,1,51.61,134c-2.07,1.66-2.52-2.89-.6-5.88.81-1.25,1.5-1.87,2-1.87Zm132.16.6c.51,0,.43.37-.16.76s-1.24,1-3.64,2.89c-.44.36-1.06.82-1.39,1-.81.53-1.48.38-1.09-.21a37.48,37.48,0,0,1,6.23-4.41Zm-121.08.1a3,3,0,1,0,0,.07Zm0,1.12a1.89,1.89,0,1,1,0,.06Zm-37.78,0a68.54,68.54,0,0,1,38,52.36l10.38-16,2.81,1-15.14,24-.65-.19c-.06-23.34-12.06-45.42-35.42-57.53Zm37.78.8a1,1,0,1,0,0,.12Zm-8.82.13a37.33,37.33,0,0,0,3.83,6.5c-1.79-1.63-3.73-1.55-5.66-1.8Zm25.4.43a1.07,1.07,0,0,1,.93.46c.87,1.17,1,2.24.42,2.83a1.75,1.75,0,0,1-2.42-.12,1.57,1.57,0,0,1-.33-.53,1.91,1.91,0,0,1,1.19-2.46.83.83,0,0,1,.21-.06ZM185.52,131v1.81c-.26.29-.53.57-.82.84a16.9,16.9,0,0,0-3,3.24c-.38,1.43,1.08,1.92,2.51.91l1.21-1v2.23c-1.21,1-2.42,2-4.07,1.66a2.71,2.71,0,0,1-2-1.92c-.69-2.81,2.12-4.38,4.29-6.26a17.75,17.75,0,0,0,1.84-1.43ZM68.59,132.68h.16a3.09,3.09,0,1,1-.16,0Zm63.43.69a2,2,0,0,1,1.93,2.16,2,2,0,0,1-.68,1.35,2.32,2.32,0,0,1-2.47.39c-1.91-1.28-.5-3.81,1.19-3.9Zm-3.43,1.78c1,1,1.76,4,1.17,4.56-1.3,1.3-5.08-3-4.85-5.84.41-1.73,3.31.91,3.68,1.28Zm-46.17-1.62a.71.71,0,0,1,.75.68.92.92,0,0,1,0,.28c-.16.35-.73.38-1.17.21-.77-.27-.41-1.17.47-1.17Zm-13.67.27a1.92,1.92,0,1,0,2,1.92A2,2,0,0,0,68.75,133.8Zm-15,.85c3.81,0,7.83,2.89,4.33,3.49a6.73,6.73,0,0,1-6.29-1.86c-1-.91-.67-1.39,1.2-1.59h.76Zm15,0a1.1,1.1,0,1,1-1.13,1.11v0A1.13,1.13,0,0,1,68.75,134.65ZM74,137.42h.15a3.08,3.08,0,1,1-.15,0Zm62.08.15a3.21,3.21,0,0,1,2.15.56c.56.49-.28,1.44-2,2.25-2,1-5.49.82-5.49-.2,0-1.31,3-2.57,5.33-2.61Zm-76.06.81c1.75,0,2.23,5.27.71,7.79-.8,1.31-1.86.43-2.61-2.15C57.56,141.9,58.71,138.37,60.05,138.38Zm14.13.15a1.92,1.92,0,1,0,2,1.92A2,2,0,0,0,74.18,138.53Zm65.51.34a1.72,1.72,0,0,1,.58.19c1.91,1,3.31,5.16,2.3,7.05s-3.4-1.84-3.38-5.51c0-1.2.09-1.68.43-1.73Zm-84.57.27h.12c1.73.05,3,2.36,1.36,3.55a2.39,2.39,0,0,1-2.48.19,2,2,0,0,1-.62-2.83,2.06,2.06,0,0,1,1.59-.91Zm19.09.24a1.1,1.1,0,1,1-1.12,1.11h0a1.12,1.12,0,0,1,1.09-1.1Zm-11.8.37A41.39,41.39,0,0,0,67.72,145a11.76,11.76,0,0,0-5.18-.08,12.49,12.49,0,0,0-.16-5.2Zm61.6.31c26,5.89,41.84,32.6,35.56,57.7A11.65,11.65,0,0,1,157,196a51.5,51.5,0,0,0,.34-18.11c-2-11.71-11.75-28.9-33.23-34.8a14.7,14.7,0,0,1-.17-3Zm14,.19a47.15,47.15,0,0,0,1,5,32.39,32.39,0,0,0-6-3.26,15.53,15.53,0,0,0,5-1.72Zm7.49.55a1.94,1.94,0,0,1,2.05,1.85.17.17,0,0,1,0,.07,2.66,2.66,0,0,1-1.08,1.75,2,2,0,0,1-2.69-.78,2,2,0,0,1,1.68-2.89Zm-65.27.66a3.06,3.06,0,1,1-3.17,3.06,3.1,3.1,0,0,1,3.17-3.06Zm0,1.1a1.93,1.93,0,1,0,2,1.93,2,2,0,0,0-2-1.93h0Zm-53.76.3c12.9,7.38,24.48,23.08,25.35,40.83l-3.19-2c-1.35-12-7.66-25-22.32-35.63,0,0,.06-1.15.13-3.22Zm71.45,0h16.69v3.48l5-2.5v7.7l-5-2.94V152H97.92v-3.47l-5.11,2.38.06-7.69,5,2.75Zm-17.72.56a1.1,1.1,0,1,1-1.13,1.1h0a1.11,1.11,0,0,1,1.13-1.1Zm6.56.62h.06l.2,1.1h-.1a1.93,1.93,0,1,0,0,3.85,2,2,0,0,0,.76-.15l.19,1.12a3.34,3.34,0,0,1-1,.14,3.06,3.06,0,1,1-.16-6.11Zm37.71.38h.16a3.11,3.11,0,0,1,3.21,3,3.08,3.08,0,0,1-2.5,3l-.18-1.1a2,2,0,0,0,1.72-2.17,2,2,0,0,0-2.25-1.67h-.13l-.2-1.11Zm22.15,1c3.9,0,5.51,2.19,2.33,3.11a8.16,8.16,0,0,1-5.33-.62c-1.62-.68.57-2.5,3-2.49Zm-81.44.21a6.4,6.4,0,0,1,2.53.44c1.63.75,1.59,1.26-.15,2.23-2.43,1.36-8.15,0-6.43-1.53a6.7,6.7,0,0,1,4-1.14Zm21.76.34h.26l.34,2a1.16,1.16,0,0,1-.6.17,1.09,1.09,0,0,1,0-2.18Zm37.71.38a1.12,1.12,0,0,1,1.09,1.14h0a1.08,1.08,0,0,1-.75,1Zm6.88.78a3.07,3.07,0,1,1-3.17,3.07h0a3.13,3.13,0,0,1,3.14-3.06ZM70,147.94a.9.9,0,0,1,.62.25,7,7,0,0,1,2.09,7c-.71,2.25-3.67-1.75-3.65-4.94,0-1.47.41-2.31.93-2.34Zm81.8.27c.26,0,.54.19.81.63,1.18,1.93,1.12,5.77-.09,7-.7.7-1,.57-1.68-.84-1.24-2.42-.31-6.83,1-6.82Zm-20.29.07a1.92,1.92,0,1,0,2,1.92,2,2,0,0,0-2-1.92h0Zm-59,.52a61.6,61.6,0,0,0,7.36,3.9c-2.37-.55-4.13.22-6,1.27a6.85,6.85,0,0,0-1.42-5.17Zm71.68.41a17,17,0,0,0,5.6.15,16.46,16.46,0,0,0-.35,5.19A33.14,33.14,0,0,0,144.19,149.21Zm-12.68-.08a1.1,1.1,0,1,1-1.13,1.1h0a1.11,1.11,0,0,1,1.12-1.09Zm-65.15.75a2.9,2.9,0,0,1,1.12.29,1.81,1.81,0,0,1,1,2.41,1.88,1.88,0,0,1-.88.9c-1.79,1.13-4.12-.85-3-2.55a2.08,2.08,0,0,1,1.66-1Zm71.46,1.28a3.06,3.06,0,1,1-3.15,3.1,3.12,3.12,0,0,1,3.15-3.1h0Zm18.48.51a2.16,2.16,0,0,1,.94.22,1.77,1.77,0,0,1,.84,2.4,2,2,0,0,1-.37.49,1.88,1.88,0,0,1-2.58.14,1.76,1.76,0,0,1-.4-.5,1.8,1.8,0,0,1,.67-2.5,1.94,1.94,0,0,1,.91-.25Zm-30.47.45c15.55,5.14,26,21.9,23.45,38l-2-1.78c1.48-9.14-3.71-26.61-21-33.79Zm12,.16a1.92,1.92,0,1,0,2,1.92,1.95,1.95,0,0,0-2-1.92Zm0,.85a1.09,1.09,0,1,1-1.12,1.09,1.11,1.11,0,0,1,1.12-1.09h0Zm-59.12.19c.79.07,2.12-.07,2.44.66.36.91-1.59,2.5-4,2.81-1,.05-3.14.3-3.6-.4-.41-.87,2.48-3,5.22-3.09Zm-49.37.53c2.1-.08,4.47,2.64,2.34,4.87a44.07,44.07,0,0,1-5.18,4v-1.49s3.41-2.43,3.46-3.51a1.34,1.34,0,0,0-1.15-1.53,1.39,1.39,0,0,0-1.11.31c-.24.15-1.17.89-1.17.89l.07-2.51a4.22,4.22,0,0,1,2.74-1.06Zm53.7.65c1.56.06,5.17,5.45,4.25,6.56-.73.87-3.67-1.07-4.77-3.16-.58-1.11-.41-3.11.31-3.37a.78.78,0,0,1,.22,0Zm24,.65s.16,12.56-.56,13.74c-2.93,5.13-9.23,2.46-9.77-1.38-.38-2.31-.16-12.34-.16-12.34Zm.93,0H118.1s0,17.68-.45,18.69a6.65,6.65,0,0,1-2.72,2.64c-3,1.25-6.12-.52-6.94-3.85-.57-2.42,0-17.45,0-17.45Zm10.91,0h6.69s.23,1,.5,1.7c.47,1.35,2,5.21,2.22,5.44.82,1.05.86,12.61,0,13.93-3,4.28-7.86,3-9.65-1.71-.39-1.52.25-19.36.25-19.36Zm7.8.43c12,5.52,21.17,17.24,20,32.26l-2.2-2.14c.8-10.37-7.35-23.33-16.87-27.17Zm16.52.36a3.06,3.06,0,1,1-3.16,3.06h0a3.11,3.11,0,0,1,3.16-3.06h0Zm11.83.31a6.23,6.23,0,0,1,3.68,1.27c1.28,1,1.46,1.82.47,2.12a6,6,0,0,1-5.68-1.35c-1.33-1.29-.17-2.06,1.54-2Zm-11.83.8a1.92,1.92,0,1,0,2,1.92,2,2,0,0,0-2-1.92ZM80,157.3a2,2,0,0,1,1.16,3.46,2.76,2.76,0,0,1-2.6.18c-1.72-1.09-.7-3.65,1.45-3.64Zm22.24.57a25,25,0,0,1-2.19,4.5c-2,3.21-1.73,5.37.36,6.46a2.47,2.47,0,1,0,2.29-4.37c-1.06-.6-1.06-.6-.68-2.19.49-2,.58-4.35.23-4.4Zm41,0a1.13,1.13,0,0,1,1.23,1,1.12,1.12,0,0,1-1,1.2h-.21a1.1,1.1,0,0,1,0-2.19Zm-30.16.64c-.14,0,0,.79,0,2.2,0,2.29-.22,3-1.73,6-1.92,3.91-1.67,6.59.73,7.46a2.75,2.75,0,0,0,3.66-2.8,1.92,1.92,0,0,0-1.15-2c-.65,0-1.35-.33-1.3-.62.35-2.31,2.45-6.72-.2-10.27Zm39.85.31a11,11,0,0,0,5.48,1.93,16,16,0,0,0-1,5.77,36.45,36.45,0,0,0-4.43-7.77Zm-119,.36h.38a3.06,3.06,0,0,1,2.4,3.5c-.36,1.2-.47,1.4-5.26,4.51a27.1,27.1,0,0,1-3,1.8l-1.43-1,3.12-2c3.68-2.4,4.23-3,3.85-4s-1.8-.91-4,.71a43.63,43.63,0,0,1-3.55,2.56v-1.36s1.41-1.08,2-1.59c1.53-1.08,3.6-3.05,5.47-3.07Zm95.28.63a.49.49,0,0,1,.53.45.37.37,0,0,1,0,.18.55.55,0,0,1-.55.24.44.44,0,0,1,0-.87Zm32.34,1.66c.68,2.27-.78,6-1.68,6.52-1,1-1.55,0-1.75-2.33.05-1.89,2.33-7.89,3.49-4.16Zm-38.35-1.27c.29,3.26.4,6-1.18,8.65-2,3.44-1.52,6.38.68,7a2.76,2.76,0,0,0,3.55-1.45,2.6,2.6,0,0,0,.17-1.43,3,3,0,0,0-1.56-1.79c-.67-.16-.75-.57-.37-1.87a11.75,11.75,0,0,0-.62-8c-.1-.34-.51-1.11-.67-1.1Zm7.34,1.09a2,2,0,0,1,1.33,3.55c-.77.69-1.26.37-2.06-1.29s-.46-2.23.78-2.23Zm17.12.48a3.06,3.06,0,1,1-3.15,3h0a3.11,3.11,0,0,1,3.18-3h0Zm0,1.1a7.46,7.46,0,1,0,.06,0Zm0,.86a1.1,1.1,0,1,1-1.12,1.1h0a1.12,1.12,0,0,1,1.16-1.06h0Zm-13.54.81a1.41,1.41,0,0,1,.73.14c1.67.78,1.49,3-.34,4.34-1.17.84-1.66.56-2.74-1.63-.53-1.15,1-2.77,2.41-2.82Zm-96.42.29a2.67,2.67,0,0,1,.48.08,3.35,3.35,0,0,1,2.37,3.85c-1,2.27-4.15,3-6.58,4l-1.23-.9s1.79-1,3.51-1.76,1.89-1,1.77-1.92c-.24-1.78-1.13-1.71-5.16.4-1.64.85-2.84,1.6-2.84,1.6l-.89-.71c1.33-.85,2.13-1.32,3.59-2.28,2.43-1.61,3.82-2.31,4.83-2.36Zm128.16,1.33c.58,1.72-.62,3.24-2.42,2.56a1.91,1.91,0,0,1-1.17-2.47,1.6,1.6,0,0,1,.1-.23c.83-1.25,3.1-1,3.5.12Zm-36.17-.6,2.84,4.94s0,1.37.06,2.14c.11,3.2.81,4.27,2.76,4a7,7,0,0,0,.83-.21l1.23,2s-1.34.57-1.67.64c-2.3.46-5.45-1.19-6-3.42s-.1-10.05-.1-10.05Zm-93,2c.85.06.5.7.1.9-1.67.83-3.25,1.72-5,2.69l-1.17-.7s.9-.48,1.51-.86A15.48,15.48,0,0,1,36.72,167.57Zm114.13.63a3.07,3.07,0,1,1-3.16,3.08v0A3.11,3.11,0,0,1,150.85,168.2Zm-13.37.42a1.88,1.88,0,0,1,1.73.92c.84,1.35-.05,3-2.09,3.9-1.15.49-1.33.39-2.56-1.36-.82-1.19-.82-1.4.09-2.15A4.93,4.93,0,0,1,137.48,168.62Zm-110.87.27,45.24,28.39-1.34,2.17L26.64,171.57Zm134.43.37c2.75.05,6.34,3.13,5.07,4.35a1,1,0,0,1-.58.22c-4-.23-8.31-4.64-4.54-4.57Zm-10.19.06a1.92,1.92,0,1,0,2,1.92A1.95,1.95,0,0,0,150.85,169.32Zm-60.43.53,1.2,3L69.05,207.61l-2.21-1.38Zm60.43.32a1.1,1.1,0,1,1-1.12,1.11v0a1.11,1.11,0,0,1,1.12-1.09Zm8.27.36a9.45,9.45,0,0,0,5,4.05,7,7,0,0,0-2.89,5.77,51.8,51.8,0,0,0-2.19-9.82Zm-119.1,1a2.26,2.26,0,0,1,1.27.33c4.21,2.8.34,5.57,0,5.36l-1.45-.89c.49-.79,1.61-1.86-.19-2.88-1-.43-2.17.09-3.16.76l-1.51-1s3-1.71,5-1.7Zm99.53,1.58a3.53,3.53,0,0,1,.46,0c2.39.44,2.22,2.89-.27,4-1.41.65-1.66.51-2.9-1.55-.58-.91,1.17-2.42,2.71-2.47Zm-100.29.91a.69.69,0,0,1,.62.42c.12.64-1.11,1.29-1.11,1.29l-1.4-.92a5.08,5.08,0,0,1,1.89-.78Zm126.91.58a.62.62,0,0,1,.7.53c.49,1.92-1.7,5.43-3.71,6-1.17.33-1.52-.2-1.13-1.78.54-2.22,2.91-4.66,4.14-4.76Zm-73,.15,3.66,2.57L74.87,211l-3.81-2.19Zm59.82.27a3.07,3.07,0,1,1-3.15,3.07v0a3.1,3.1,0,0,1,3.15-3Zm0,1.11a1.93,1.93,0,1,0,2,1.92,2,2,0,0,0-2-1.92Zm0,.86a1.1,1.1,0,1,1-1.12,1.1v0A1.11,1.11,0,0,1,153,177Zm-50.51.1c2.38,2.62,5.06,8.45,14.42,5.7,3.18,2.51,7.59,3.94,13,1.15v15.7l-41.55,0Zm-75.89.41,40.88,26.1-1.28,2.19-39.7-24.57Zm114.87,0h.1c2.1.5,2.33,2.53.39,3.3-1,.41-1.25.31-2.24-1.11-.4-.56-.63-1-.57-1.17a4.34,4.34,0,0,1,2.32-1Zm26.24,2.17a2.06,2.06,0,0,1,2.06,2,2,2,0,0,1-1.07,1.73,2.09,2.09,0,0,1-2.78-.76,1.93,1.93,0,0,1,0-1.92,2,2,0,0,1,1.83-1.1Zm-25.62,2.13c1,0,1.77.9,1.31,1.45-.32.35-.72.25-1.23-.32S141.54,181.84,142.1,181.84Zm11.73.4a3.06,3.06,0,1,1-3.16,3.06h0a3.1,3.1,0,0,1,3.15-3Zm8.93.16c2.38,0,5.68,3.85,5.12,6-.19.7-1.52.32-3.11-.86C162.62,185.92,161.23,182.39,162.76,182.4Zm-8.93,1a1.93,1.93,0,1,0,2,1.93,2,2,0,0,0-2-1.93h0Zm7.65.4c.66,1.86,1.33,3.84,4.31,5.16C161.17,191,160.3,194.5,161,199l-1.07-.64a52.76,52.76,0,0,0,1.57-14.59Zm-7.65.46a1.1,1.1,0,1,1,0,2.19,1.1,1.1,0,0,1-1.14-1.08v0a1.11,1.11,0,0,1,1.12-1.11h0Zm-.59,4.91a3.12,3.12,0,0,1,3.17,3.05,3.05,3.05,0,0,1-1.43,2.57l-1-.74a1.91,1.91,0,0,0,1.1-2.5,2,2,0,0,0-2.58-1.07,1.9,1.9,0,0,0-1.24,1.65l-1-.74a3.16,3.16,0,0,1,3-2.24Zm14.37.4c1.51,0-.83,4.05-3,5.14-1.64.84-3.13.91-3.13.14,0-2,3.83-5.32,6.12-5.3Zm-14.37,1.57a1.1,1.1,0,0,1,1,1.19,1.12,1.12,0,0,1-1,1,1.19,1.19,0,0,1-1.13-1.09,1.11,1.11,0,0,1,1.11-1.11h0Zm13.9,3.68a2,2,0,0,1,1.78,1,1.68,1.68,0,0,1-.48,2.19c-1.82,1.74-4.29-.05-3.1-2.25a2,2,0,0,1,1.8-.87Zm-5.81,1.64c2.53.08,4.45,3.13,4,4.81-.4.45-3.19-1.6-3.49-1.81a8.38,8.38,0,0,1-.47-3Zm-3.45,1.93,7.94,4.61-7.94,4.92Zm-70.61,2.27,42.59.16v1.73H86.09l1.17-1.92Zm-1.73,2.68h2.87v3.38h-4v-1.86Zm40.94.08h3.44v3.38h-3.44Zm-33.82,0h3.92v3.39H92.66Zm8.16,0h4.23v3.39h-4.23Zm8.67,0h4.07v3.39h-4.07Zm8.7.06h3.88v3.39h-3.88Zm-35.47,4.17,47.25.11v2l-48.63-.11ZM123.06,212c4.82,0,7.61,5.16,3.86,8.81-3.46,3.36-9.23-1-6.35-4.71,1.61-2.11,5.56-.41,4.58,1.83a1.43,1.43,0,0,1-2.71-.8c0-.65-.49-.21-.55.48a2,2,0,0,0,1.92,1.82c2.79,0,3.21-3.57.51-4.89-2.4-1.17-5,.33-5.52,3.3a9.25,9.25,0,0,1-.75,1.71,16.51,16.51,0,0,0-1.63,4.7,4.77,4.77,0,0,1-1.26.86c-1.37.66-1.31.38-.8-1.78,1.48-6.23,3.9-10.24,6.85-11.05A7.2,7.2,0,0,1,123.06,212Zm14.23.33a5.85,5.85,0,0,1,5.6,4.14c1.7,5.57-5.95,9-8.59,3.94-1.49-2.89,1.59-6.33,4.41-5,2.32,1.1,2.17,4.51-.2,4.5-1.28,0-2.06-1.06-1.35-1.93.36-.34.81-.07,1-.66.08-.25-.29-.44-1.16-.27-1.45.28-1.3,3.11.37,3.67a2.94,2.94,0,0,0,3.46-4.25c-1.43-3-5.31-3.05-7.08.14-.26.46-.66,1.11-.88,1.41-2.65,3.47-2.86,4-3.64,5.93a.44.44,0,0,1-.46.31,5.86,5.86,0,0,0-2,.34c-.32-.08.11-1.3.14-1.4,1.83-5.44,6.45-10.79,10.35-10.92Zm-23,1.51a37.38,37.38,0,0,0-3.82,9.61,12.73,12.73,0,0,0-2-.8c-.24-.09,0-.38-.06-.81a23.48,23.48,0,0,1,3.69-8.34c.36-.25,2.66-.33,2.14.37Zm2.69,1c-1.61,2-3.3,7.3-3.65,10,0,.32-.1.64-.17,1-.26.82-1.84-1-1.83-2,0-1.86,2.13-7.48,3.63-9.62.53-.75.59-.87,1.72-.91,1.81,0,1,.63.3,1.51Zm-78.89-1.32a5.87,5.87,0,0,0-1.18.15c-2.34.56-5.12,3-5.4,5.5a6.2,6.2,0,0,0-.24,2.77c.78,3.42,2.83,5.77,5.35,9.12a62.34,62.34,0,0,1-5.37,6.88l5.14,7.2c-1.42,2.72-3.89,4.8-4.5,8.12-1,4.42,1.41,8.72,6.49,9.12,3.79.1,6.27-2.37,6.74-6.13.18-2.5-.87-5.63-4.69-10.57l-.55-.75s.42-.49.65-.81c1.34-1.76,4.84-6.06,4.84-6.06l-5.23-7.16a6.66,6.66,0,0,1,.63-1c4.27-5.64,5.06-8.5,4.31-11.3a6.5,6.5,0,0,0-2-2.89,7.07,7.07,0,0,0-5-2.22Zm-.12.69a6.57,6.57,0,0,1,4.71,2c3.2,3.25,2.92,6-1.25,12-.91,1.32-1.8,2.77-1.8,2.77l5.26,7a27.11,27.11,0,0,1-1.75,2.25,54.26,54.26,0,0,0-3.74,4.7c.91,1.36,2.39,2.8,3.31,4.43a13.36,13.36,0,0,1,2,5.36c.42,3.54-2,7.32-6,7.41a6.85,6.85,0,0,1-6.88-6.81c0-.11,0-.23,0-.35a10.61,10.61,0,0,1,1.71-5c.95-1.63,3.17-4.8,3.17-4.8L31.61,238,37,231s-3.92-4.64-5.12-8a6.92,6.92,0,0,1,1.09-6.3,6.2,6.2,0,0,1,4.91-2.55Zm113.4.4c3,3.34,4.66,8.12,5.37,12.23.27,1.68.32,4.56.08,4.87a.86.86,0,0,1-1.16.16.82.82,0,0,1-.32-.61c.54-5.77-5.9-9.93-11.47-7.42-4.29,1.92-6.59,6.43-5.51,12,2,10.57,11.16,18.27,17.34,28.84a23.26,23.26,0,0,1,2.69,5.54,34.91,34.91,0,0,1,2.65-5.07c4.41-7.84,10.39-12.9,14.89-20.75a26,26,0,0,0,3.64-10.57c0-7.7-7.67-13.46-13.69-9.41a10.19,10.19,0,0,0-4.73,6.43c-.13,1-.31,1.26-.75,1.25-1,0-1-.39-.22-4.93,1.26-4.51,2.76-8.79,5.49-12.58ZM34.6,224.24a13.9,13.9,0,0,0,3.49,4.81,21.87,21.87,0,0,0,3.64-5.41C45.65,214.55,30.47,213.81,34.6,224.24ZM38,228.18c-1.93-2.17-3.28-4-3.42-6.84-.21-5.69,7.45-5.05,7.07,0C41.26,224.13,39.76,225.88,38,228.18Zm95-8.92c.15.8,1,2.15.88,2.47-.37.84-.91,1.26-1.68,2.64-.16.29-.08.35-.5.28a14.55,14.55,0,0,1-1.48-.37c-.21-.06-.46-.17-.36-.44.74-1.62,1.55-3.55,3.14-4.58Zm-12.71,2.44-.9,2.27c-.09.24-.09.28-.36.23a7.31,7.31,0,0,0-1.48-.07c-1.12-.13,1-4.18,1.31-4.8.46.07,1.14,1.8,1.43,2.36Zm.85.52h.06a7.2,7.2,0,0,1,1.65.52c.28.11.29.12.16.45-.26.5-.57,1.93-.91,2.44,0,.07-1.6-.91-2-1.1,0-.27.53-2.23,1.12-2.31Zm13.43.27a3.38,3.38,0,0,1,1.52.74c.17.33,0,.65-.56,1.62s-1.05,1.78-1.18,1.69a6.72,6.72,0,0,1-1.48-1.16c-.27-.36.24-1.27.58-1.77.59-.78.86-1.08,1.16-1.08Zm-8.54-.11c.49.1-.29,2.51-.43,2.82a7.4,7.4,0,0,1-1.73,1.93c-.29.18-1.18-.34-1.16-1a18.18,18.18,0,0,1,1.14-3.17,8.22,8.22,0,0,1,2.18-.61Zm-19.76,1h.33a5.69,5.69,0,0,1,5.09,2.88c.58,1,.58,1,.46,1.92a8.23,8.23,0,0,0,.36,4.81c.66,1.47.56,1.93-1,5.25s-3.55,7.32-5,11a40,40,0,0,0-1.64,4.88c-.25,1-1.42.65-2.59.6-.58.13.86-3.74,3-8.36,1.72-3.71,4.06-7.88,5-12,.76-3.38.52-4.81.1-6.19-1.61-4.12-7.22-3.11-7.2.69.12,2.47,3.06,3.79,4.14,1.37.18-1.11-.38-.47-.86.07-1,1.16-2.75-.13-2.48-1.83a2.73,2.73,0,0,1,4.79-1.2c1.58,1.92,1.23,3.93-1,5.43a3.77,3.77,0,0,1-5.21-.36,4.24,4.24,0,0,1-.46-.65,5.43,5.43,0,0,1,2-7.58,5.76,5.76,0,0,1,2.32-.75ZM117.88,225c2.33.05,4.87,1.92,5.28,3.44.22,1-.12,2.22.26,3.21.31.78.61,1.24.39,1.92-1.93,6-6.45,12.36-8.7,19.45-.26.5-.49.56-1.07.72-.89.24-1.24.22-1.34-.23a8,8,0,0,1,.74-2.79,52.84,52.84,0,0,1,2.82-6.46c1.89-3.45,3-5.77,4.32-8.75.26-.55.33-.87.74-1.67,1.73-3.41-.23-6.73-3.82-6.78-2.84,0-4.11,4.3-1.62,5.57s4.24-2,2.08-3.17c-.51-.27-.65,0-.24.48,1,1.13.1,2.64-1.24,2-2.07-1-1-4.35,1.42-4.16,3.74.31,4.23,5.59.41,6.92-5.24,1.84-8-6.35-3.06-9.1a5.13,5.13,0,0,1,2.63-.65Zm11.06.17a5.71,5.71,0,0,1,4,1.55c2.92,2.73,2.15,6.95-2.81,15.1a53.76,53.76,0,0,0-4.07,8.4,1.77,1.77,0,0,1-.88,1.17c-.87.46-1.84.52-2,.19-.32-.83,2.13-6,6.51-14.07,1.15-2.15,2.6-4.65,2.53-7.22a3.28,3.28,0,0,0-3.52-3,3.45,3.45,0,0,0-.85.16,2.3,2.3,0,0,0-1.52,2.92,2.44,2.44,0,0,0,.45.78,2.24,2.24,0,0,0,1.47.65c.73,0,1.55-.67.14-.75a1.44,1.44,0,0,1-1.46-1.41,1.42,1.42,0,0,1,.73-1.23c1.8-1.17,3.87.22,3.73,2.5-.31,4.58-7.23,3.9-7.41-.82a4.77,4.77,0,0,1,4.63-4.91h.29Zm68.58,2a8.17,8.17,0,0,1,3.23,5.37c.09.63.18,1.28-.11,1.42s-.58-.08-1.3-1c-1.67-2.12-5-1.22-6.06,1.7s0,5.9,4.45,12.11c1.59,2.3,3,4.2,4.3,6.45a40.35,40.35,0,0,1,3.86-6.63c5-7.42,6-11.26,3.23-13.74-1.77-1.56-4.56-1.61-5.51.38-.64.82-1,1.21-1.29.72a2.8,2.8,0,0,1,0-1.35,8.87,8.87,0,0,1,3-5.44Zm-88.12,5.36c1-.08-.76,5.38-3.9,11.54a106.86,106.86,0,0,0-4.35,10.58c-.36.48-2.53.56-2.52.07,3.84-11.93,6.56-14,7.87-18.54.23-.77.4-1.92.43-2,1-.36,1.82-1.49,2.51-1.69Zm-71.15.8-4.07,5.14,4,5.47,4.13-5.23Zm88.18,1.6a26.93,26.93,0,0,1-2.15,5.36c-4,7.8-5,9.9-5.66,12a1,1,0,0,1-.58.71c-.5.19-1.88.45-2,.25.84-4.55,7.3-14.92,8.55-19.47.5,0,1.78.72,1.83,1.17Zm3.18-.49c.27,0,.38.1.31.45a30.32,30.32,0,0,1-2,4.2c-3.37,6.39-5.13,10.19-5.69,12.13-.13.47-.21.82-.44,1-.46.24-2.07.86-2.15.19.5-2.89,2.47-4.81,7.55-16.84.24-.39.45-.59.68-.62.62-.11,1.16-.39,1.77-.45Zm-13.78,2c-.12.75-1,2.3-2.46,5.19a72.61,72.61,0,0,0-5,11.54,2.72,2.72,0,0,1-.56,1.19,6.61,6.61,0,0,1-2.17.18c-.26-1.31,1.87-6.19,4.24-11.34,1.29-2.78,2.79-5.57,3.79-8.08.75.06,2.08.69,2.17,1.28Zm3.6-1.24c.71,0,.16,1.17-1.57,4.47a71,71,0,0,0-5.06,10.73c-.38,1-.81,2.13-1,2.62a2.07,2.07,0,0,1-.69,1.09,2.61,2.61,0,0,1-2,0c-.35-.42,1.51-5.27,3.32-9,1.6-3.14,2.72-5.66,4.1-8.55.38-.57.4-.61.79-.68a13.51,13.51,0,0,0,2.07-.67Zm-81.11.63,2.09,2.71-2.46,3-2-2.88ZM38,247.5a17,17,0,0,0-1.81,2.57c-2.68,4.32-2.75,7.51.41,9.4a4,4,0,0,0,4.17-.41c3.58-3,.92-7.18-1.39-10a14.56,14.56,0,0,0-1.34-1.6Zm.13,1.11a18.08,18.08,0,0,1,3.22,4.6c1,2.6.37,4.63-1.62,5.59-3.15,1.51-6-1.92-4.52-5.51a18,18,0,0,1,3-4.72Zm88.08,5.11c.33.54-29.94,7.27-52.2,1.5l-13.57,19,78.34-.13Zm-1.15,1.35L136,273.22h-5l-7.15-14.84a84,84,0,0,1-11.45,2.25l2.55,12.59h-3.74l-2.12-12a162,162,0,0,1-16.78.42l-2.46,11.62h-4l2.53-11.54c-4.34-.56-8.65-1.09-13-1.79l-7.39,13.34H62.36L74,256.47c17.28,3.36,33.23,2.57,51.15-1.44Zm78.25,2.8c-3.42,0-7,1.79-8.06,5.61-.36,1.21-.36,1.22-.37,12,0,8.94-.09,11.1-.09,11.1h-3.16v3.57H201.9v-3.61h-3.4s0-11.15,0-18.14a9.68,9.68,0,0,1,.52-4.52c1.82-4.06,8.21-3.17,9,.28a15.77,15.77,0,0,1,.23,4.39h3.56a30.3,30.3,0,0,0-.25-4.95c-.48-4.08-4.1-5.9-7.86-5.77Zm-81,3.76L128,273.26h-10.7l-2-10.38Zm-46,.84,9.4,1.19-2.42,9.61H70.59ZM107,263.88l1.29,9.35H92.1l1.8-9.17Z" transform="translate(-0.8 -5.68)"/>
  </g>
</svg>
