<svg xmlns="http://www.w3.org/2000/svg" viewBox="0 0 212.6 295.83">
  <defs>
    <style>
      .a {
        fill: #131f67;
      }

      .b {
        fill: #d40000;
      }

      .c {
        fill: #e2cf00;
      }
    </style>
  </defs>
  <title>JS</title>
  <g>
    <path class="a" d="M29.48,23.07l0,265.88,164.64.36.1-266Zm52.29,1.55,74.6.28S147.82,36,146.05,41c-1.37,1.77-2,1.45-4.26,1-6.06-1.59-16.28-1.56-21.35-1.65-9.58-.43-18.19,2.54-27.78,3-3.32-5.55-8.12-12.51-10.89-18.73Zm-50.22.49,48,.14L90.77,45.77c.4.57,0,1.75-.23,2.41A51.92,51.92,0,0,1,85.12,59c-2.66,4.42-3.62,8.46-2.67,11.17a2.77,2.77,0,0,1,.21,1.27,6.38,6.38,0,0,1-2.84,4c-1,.16-3.24.3-4.5,1.55-1.09,1.07-2,2.64-1.84,5.51a14.46,14.46,0,0,0,.2,1.68c-14.3,6-24.56,12.92-24.22,13.18-.13-.06-12.57-5.79-17.75-7.21ZM159,25.47l32.88,0,.2,93.84-12.62-8.18c1-.72,1.67-1.15,2.76-1.89.2-.06.56-.06.8-.12,2.2-.49,3.73-2.13,3-3.84-.52-1.15.19-1.08.82-2a2.63,2.63,0,0,0,.12-2.9c-.23-.45-.11-.62.27-1.44a2.89,2.89,0,0,0-1-4c-.13-.2.14-.51.21-.8.36-1.69-.31-3.18-1.77-3.55-.76-.2-1-.33-.74-1,.47-1.19-.15-1.64-1.13-2-1.65-.65-1.18-.75.86-1.67,4.17-1.87,5.15-7.45,2.28-12.51-.37-.64-1.34-2.15-2-3.16C183.15,69,182.4,68,182.4,68l5.52-7.7a61.8,61.8,0,0,1-5.21-7.07c.32-1.24,4.17-5.15,4.67-8.93.78-6-3.73-9.75-8-9.3-3,.31-6.6,2.2-6.33,7.7a12.91,12.91,0,0,0,2,5.61c.85,1.6,1.94,3.29,3,4.91l-5.55,7.6,5.61,7.11-.2.31c-.55.89-2.18,3.5-2.88,5-2.07,4.1-2.8,8.59,1.45,11.76a10.74,10.74,0,0,1,1.63,1.16c.42.41.16.73-.51.88a13.77,13.77,0,0,0-2.43.49,26.6,26.6,0,0,0-7.24,4.08,21.16,21.16,0,0,0-3.83,5.81c-1.14,2.41-1.46,2.94-1.46,2.94l-19.52-12.5a7.6,7.6,0,0,1-.63-.54c-.37-.41-.24-.65,0-1.1a5.52,5.52,0,0,0,.12-2.36,3.93,3.93,0,0,1,.93-3.15,2.25,2.25,0,0,0,.28-1.88c-.31-.91-.34-.62.25-1.25.23-.28.5-.42.55-.73s0-1.11,0-2.44c0-2.66,0-2.44,1.47-3.61,1.85-1.45,2.55-2.14,2.84-2.79.42-.94,0-1.65-1-3.53-.48-.86-1.22-2-1.57-2.67a22.46,22.46,0,0,1-2.09-4.16,4.71,4.71,0,0,1,.05-4.22c.81-1.44,1-2.31,1-5.21,0-2.7-.23-2.45.46-3.35C150.88,38.09,159,25.47,159,25.47Zm20.9,9.93h.33a7,7,0,0,1,4.71,2c2,2,1.89,5,1.22,8A10,10,0,0,1,185,48.16a7.2,7.2,0,0,0-.63,1.06A19.52,19.52,0,0,1,183.29,51c-.59.9-1.28,2.16-1.28,2.16A33,33,0,0,0,184.66,57c1.27,1.9,2.1,3.55,2.2,3.45a7.13,7.13,0,0,1-.77,1.4,60.52,60.52,0,0,0-3.91,5.83c0,.09-.28.19-.28.28,0,.34.51.74,1.25,1.76,4.46,6.12,5.09,11.29,1.74,14.33a6.17,6.17,0,0,1-5.07,1.79A6.51,6.51,0,0,1,174,78.73a9,9,0,0,1,1.15-4.55,26.81,26.81,0,0,1,2.34-4.32A18.37,18.37,0,0,0,178.77,68a61.88,61.88,0,0,0-4.5-5.88,5.85,5.85,0,0,1-.85-1.48l5-7.4a17.48,17.48,0,0,0-1.56-2.89c-2-3-3.28-6.15-3.27-7.94C173.62,38,176.52,35.41,179.93,35.4Zm12.44,105.77c-3,1.57-5.82,6.93-.2,3.19l.14,3.08c-2.92,4.15-8.64,1.11-7.18-3.18-3.95.51-4.56-3.49-4.36-5.4-5.19-1.13-3.4-6.62-3.4-6.62-3-2.5-3.52-5.13-1.09-7.89-2.45-1.53-3.15-2.51-5.84-3.62,2.06,18.39,12,28,22.44,36.46,0,0,.23,5.92-1,4.83-14.91-11.14-24.5-23.89-26.15-44.51-.13.33-7.07-5.37-8.22-5.07-2.41,33.38,24.17,55.33,35.22,59.65a38.32,38.32,0,0,1,0,4.67c-16.75-7.31-35.38-28.75-39-54.27l-9.88,15.31-3.7-1.58,16-25.18-10.81-6.78-17.59,27.88s-.47,2.33.8,2.29c24.7,2.64,61.43,32.32,49.12,80.61-1.06-.42-2.76-1.25-2.85-1.21,1.93-4.16,7.32-31.13-8.88-52.9-7.42-10-18.94-20.6-37.41-23.74,1.53,3.15.86,10.3.86,10.3l4.31.87a13,13,0,0,1-3.25-4.47c-.8-2.59.38-4.13,3.25-2.58,1.14.64,1.43.61,2.54-.21,2.31-1.72,4.95.05,4.34,2.91-.09.42,0,.68,1.12.78a10.09,10.09,0,0,1,6.62,3.42c.79,1,1,.86,1.68.25,1.74-1.51,4.61.58,4.1,2.92-.3,1.33-.13,1.65.48,1.91,3.39,1.42,4.23,2.32,5.28,5.29.39,1.09.71,1.45.91,1.39s.7-.23,1.19-.42c2.53-1,4,2.11,2.22,4.51-.37.49-.1,1,.55,1.32,2.11,1.15,3.55,3.89,3.79,6.77.1,1.1.21,1.1,1.31,1.06,2.8-.12,4.14,3.66,1.86,5.06-.8.48-.65,1.11,0,1.84a6.77,6.77,0,0,1,1.87,5.55c-.19,2.94,0,2.89.94,3.24,2.72,1,2.21,5.39-.46,5.38,1.93,4.48-.61,9.95-.53,10.05,5.14,2.89.5,6-1,5.42,0,0-.76,2,.1,3.05-4.5,6-10.4,6.95-16.93,9.91l-.2-21c2.71,2.19,5.41,4.23,8.1,6.26,0,0,.68-.21.06-.78-1.2-1.11-4.21-3.05-5-3.83a112.7,112.7,0,0,1-9.66-9.25c-.54-1-1.34-.43-1.32-.37a45.43,45.43,0,0,0,2.43,4.41c2.22,3.09,4.39,6.52,4.16,9.92A12.81,12.81,0,0,1,153,212.9c-.32,1.31-2.39-.22-1.87-1.32.92-3,1.69-5.47-1.61-10.31a68,68,0,0,1-3.7-6.63l-1.34.32,0,27.37c-1.12,0-4,.78-3.37.8,8.85-1.76,11.56,10.9,3,11.31-1.62.06-3.3,2.85-3.47,4.37.07,3.67.61,7.55-2.08,11.08-.71.93-1,2.4-1.69,3.56-3.28,5.82-4.75,9.15-4.41,10.65.08.39.16.9.16.9-10.46,2.61-18.3,3.28-28.84,3.53A126.47,126.47,0,0,1,110,252.87c2-3.88,3-6.53,2.43-7.33-8.36.42-6.76-11.84,1.24-11.41,0,0,2-7.06,4.25-10.24,2.13-1.19,6.4.43,8.8-1.16,5.65-1.73,9.35,5,9.35,5l1.52-6.36-50-.24s-5.15,1.93-7.79.84a14,14,0,0,1-3.61-2.66s19.09-30.67,21.9-35.1c.23-.36-.5-1.13-.5-1.14-.1-1-22.23,33.48-22.14,35a1.11,1.11,0,0,1-1.65.1c-12.51-8.63-42.41-27.19-42.41-27.19l0-13.75c10.4-6.56,9.46-9.24-.17-2.09-.13.11-.2-5.17-.2-5.17,7.33-6.55,1.23-4.5-.22-2.23,0-1.63-.34-3.85.71-4.83,3.2-3,7-.24,7.17,4.13,4.18.82,3.66,4.49,4.74,6,4.26,2.41,2,6.06,3.08,7.3,4.49,2.83,1.36,7.39.4,7.28.57.38,6.15,4.13,6.63,4-.48-19.62-22.08-38.35-22.68-37.36l.45-4.23s27,17.27,26.76,45L66.71,200C66,171.6,53.25,152.41,31.55,140.21l-.46-5.36c18.22,8.48,35.11,25.65,39.05,53.78L80.23,173l3.55,1.72-16.2,26,10.12,6.65c7.84-10.33,14.39-23,18.38-29-.11-.55-.33-1.34-.33-1.34-38.57-6.36-60.29-42.5-49.93-80.27l2.67,1.18c-8,28,5.08,68.23,47,76.46-.08-3-.6-10.29-.6-10.29s-5.51-1.66-4.7-1c1.35,1.15,4.38,6.13,3.1,7.9a6.63,6.63,0,0,1-4.15-1.63c-.64-.46-.66-.36-1.37.4-2,2.11-4.87.9-4.89-2,0-1.23-.06-1.49-1.8-1.5-2.64,0-3.83-.47-5.42-2.59-1.12-1.5-1-1.51-2.34-1.06a2.71,2.71,0,0,1-3.76-3.41c.39-1,0-1.29-1.18-1.48-2.24-.37-4.78-3.19-5.24-5.49-.1-.47-.33-.59-1.66-.54-2.59.09-4-1.48-3-3.69.55-1.19.7-1.67-.33-2.48a7.54,7.54,0,0,1-2.56-2.87,11.85,11.85,0,0,1-.82-3.59c-.1-.7-.34-.82-1.26-.94-2.68-.35-3.74-3.09-1.77-4.87.6-.55.6-.53-.31-1.71-1.76-2.28-2.41-5.24-1.65-7.22a1,1,0,0,0-.62-1.34c-2.45-.61-2.49-3.32-.15-4.85.68-.44.72-.73.2-1.63-.9-1.56-.85-5.65,0-7.61.56-1.27.56-1.3-.32-1.86a2.86,2.86,0,0,1,.88-5c1.06-.26,1.13-.4.85-1.7-.52-2.31-.6-2.91.76-3.82,3.75-2.44,13.35-7.09,13.35-7.09L68,87.88s.32,19.38.11,21.67c-.12,1,.76,1.59,1.8,2.62,2.13,2.09,3.3,4.63,6.14,6.39,0,0,1.78-1,2.87-1.69L79,89.24c.22-.63.38-.7,1.11-.78s2.13-.29,2.64-.44c1.22-.36,1.41-.85-.19-.69-.49,0-1.22.26-2,.42-5,1.51-8.75-6.32-4.92-10.27a12.14,12.14,0,0,1,4.73-1.88c.36,0,1.43-1.32,2.17-2.54a3.64,3.64,0,0,0,.62-3.36c-.89-2.59,0-6.55,2.61-10.89A39.74,39.74,0,0,0,92,45.3c10.18-1.23,18.82-3.76,28-3.2.36,3.11-10,21.44-7.88,22.52,8.2,2,5.4,11.68-.83,11.36-.93,0-1,.08-1.62,2.14-1.13,3-1.86,5.31-3.07,8.12,0,.72-.51.65-3.92.62-3.12-.46-5.27,1.24-7.53,1.34a6.37,6.37,0,0,1-6.36-3.55c-.45-1-.86-.35-.87,2.08,0,1.93-.09,3.06-.09,3.06l25.55.06c27.51,0,24.77.47,27-.62,1.27-.64,2.11-1.33,4.32.11,3.53,2.3,3.41,2,2.38,3.48-6.91,10.25-22.19,34.92-22.19,34.92l1.07,1S141.32,104.4,148.35,93c.32-.37,1.79.1,1.79.1l42.11,27.38c-.36,4.14.06,13.42.06,13.42-11.84,6.28-8.22,9.48-.08,1.87ZM120.92,42.63s12.22.1,18.34,1.08c5.36.86,5.09.7,5.07,4.6,0,2.77,0,2.7-.73,4-1.31,2.44-1.09,4.85,1,8.23s3.48,5.69,3.48,6.16c0,.72-.12,1.61-1.86,2.82-2.06,1.44-2.45,2.44-2.42,3.9,0,1.17-.2,1.56-.9,1.56a11.5,11.5,0,0,0-2.36,1,5.67,5.67,0,0,1-3.64.88c-.89,0-1.31-.34-1.56-.25-.47.23-.9,1.81-.89,2.27,0,.17.3.07.82-.11,2.92-1,7.26-.55,7.38-.11.59.53.59,1.35-.3,2.21a3.13,3.13,0,0,0-.59,2.77c.32,1.9.08,2.66-.89,3.32-3,2-6.93,2.26-13.27,1-6.67-1.28-11.24-3.83-15-8.39-1.7-2-2.12-2.75-1.28-2.89a13.1,13.1,0,0,0,3.24-.83c4.69-2,4.61-10.61-1.71-11.51C110.22,64.28,118.12,52.13,120.92,42.63Zm6,5.92c-2.27,1.27-3.45,2.82-3.46,3.66,0,.35.08.28,1.16-.43,3.15-2.07,11.43-5.05,14.39-3.33,2.13,1.28,3,.86,1.72-.86C137.86,43.55,130.05,46.86,127,48.55Zm8.1,1.35a6.27,6.27,0,0,0-1,.12c-2.19.48-4.59,2.29-6.59,3.87a16.29,16.29,0,0,0-2.59,2.74c-.49.92.59,1.93,2.07,1.12a2,2,0,0,1,1.77-.25,17.52,17.52,0,0,0,7.45,1.19c.32.07.29.14.18.44a10.8,10.8,0,0,1-2.95,2.72c-.8.59-1.5,1.08-1.56,1.16-.24.4.83.43,2-.24a17.36,17.36,0,0,0,4.77-4.71,2.3,2.3,0,0,0,.32-.47c.11-.39-.59-.23-1-.33-.16,0-.13-.45-.17-.64a7.45,7.45,0,0,1,.17-2c.07-.57.68-1,1.08-1.43,1.76-1.83,1.62-2.66-.74-1.26a2.41,2.41,0,0,1-1.1.41c-3.49.11-5.51,0-8.42,2.43-1.29,1-2.07,1.14-.92,0,1.76-1.42,4-3.44,6.4-4,1.46-.36,2.86.76,3.51.47,0-.8-1.23-1.39-2.68-1.38Zm-.5,5.06a3.5,3.5,0,0,1,.75,2.09c0,.53-1,.31-1.09.06l-.5-1.52C133.49,55.08,134.16,54.79,134.55,55Zm-1.78.31a6,6,0,0,1,.77,2.09c-.16.54-3.59-.19-4-.8a4.46,4.46,0,0,1,3.26-1.29Zm6,9.79a1.23,1.23,0,0,0-.91.42,3.27,3.27,0,0,0,.81,5.16c.91.42,2.28.11,4.3-.51a9.45,9.45,0,0,1,1.84-.43,1.1,1.1,0,0,0,.67-1.78c-.64-.65-2.16-.55-3.79.71a3.36,3.36,0,0,1-2.09.94c-1.63,0-2.42-1.7-.75-3.47.55-.59.35-1-.08-1ZM127.35,76.67c1.92,1.55,5.58.73,8-.89,2.2-1.46,3.11-1.89,4.87-1.58,2.16.37,2.08-.48,1.14-1.55s-3.68-.83-5.87.62c-4.86,3.22-6.62,3.76-8,2s.29-4.28,2.07-3c1.47,1,1.45.25.84-.43-3.52-3-6.07,2.35-3.06,4.78Zm-17.09,1.52c2.46,3.11,4.8,5.68,8.33,7.58l0,.59-11.4,0A77.71,77.71,0,0,0,110.26,78.19ZM71.65,86.3C71.41,91,72.25,93.74,75,97c2.92,3.48,2.71,8.91.83,12.26-.83,1.49-2.52-.34-1.72-1.29,1.13-1.42,1.2-4.9.66-7.07-1.2-3.59-3.93-5.35-5-9.15a23.05,23.05,0,0,1-.26-4.53Zm3.57.39c.2,0,.52.18,1,.58,1.61,1.4,1.34,5.4-.51,8-.57.78-1,.56-1.58-.17-.73-.72-.47-.79.14-2A8.7,8.7,0,0,0,75,88.46C74.89,87.29,74.93,86.74,75.22,86.69Zm104.61,1.37c1.42,0,3.2.28,3.36.8s-.18,1.13-1,1.47c-2.08.88-4.83-.35-4.14-1.86C178.24,88.2,179,88.07,179.83,88.06Zm-3.61.34a2.41,2.41,0,0,1,1,.21c.68.35-.39,2.76,3,2.71.81.12,1.41-.07,1.3.3-.17.55-1.62,1.38-3.2,1.62-4.74.7-4.53.46-4.32,3.81a11.9,11.9,0,0,1-.3,4.24c-.51,2.3-.71,4.51-.37,3.78a18.5,18.5,0,0,0,1.64-5.8c0-2.59.91-3.1,1.28-1.23.15,1.24-.4,1.94.43,3.21.47.71.69.69.37,1.8a1.64,1.64,0,0,0,.26,1.75c.34.49.68.61.39,1.3a2.14,2.14,0,0,0,1.78,3c.66,0,.84.34.64.59a2.89,2.89,0,0,1-1.61.76l-15-9.61s1.11-2.23,1.45-2.83c2.16-4.74,3.87-6.9,10.19-9.38A3.22,3.22,0,0,1,176.22,88.4Zm8,3.11a1.32,1.32,0,0,1,1.07.65c.92,1.19.12,2.67-2.15,4-1.94,1.1-2.51,1.24-2.93-.5a2.28,2.28,0,0,0-.52-.85c-.45-.41-.35-.75.22-1.05a17.68,17.68,0,0,0,1.85-1A6,6,0,0,1,184.21,91.51ZM177.81,95a2.53,2.53,0,0,1,1.32.35,1.09,1.09,0,0,1,0,1.77c-1.21.49-3.11-.17-2.95-1.28C176.26,95.24,177,94.94,177.81,95Zm7.73,1.21a1.13,1.13,0,0,1,1,.6c.71,1.1-.12,2.19-2.51,3.36-1.57.77-3.57,1.1-3.44.65a6.07,6.07,0,0,0-.71-2.44c-.09-.31,0,0,2-.66a10.75,10.75,0,0,0,2-.85A3.48,3.48,0,0,1,185.54,96.17ZM72.73,99a9.33,9.33,0,0,0-.75,6.61c.43,2.32.94,3.48,3.32,6.91,1.82,2.61,2.4,3.63,2,4.45-.31.45-1,.86-1.43.43-.89-1.15-1.42-2.56-2.28-3.85-3.33-4.88-3.56-6.13-4-10-.19-1.76.82-5.51,1.69-6.08C72.22,97.13,73,98.4,72.73,99Zm76.91-1.23a.47.47,0,0,0-.24.14,10.23,10.23,0,0,0-1.7,2.88c.1.7.67.24,2.17-2C150.23,98.31,150,97.74,149.64,97.78ZM178.3,99c1.33,0,1.8,1.24,1.2,1.86a1.44,1.44,0,0,1-2.43-1C177.07,99.25,177.32,99,178.3,99Zm7.38,1.7c.77,0,.87.8.46,1.9s-1.11,1.19-2.94,1.76c-2.2.68-2.56.59-2.89-1.43-.12-.78-.06-.6,2-1.14a19.61,19.61,0,0,0,2.42-.87A2.58,2.58,0,0,1,185.68,100.68Zm-129.5.91.54,4.07.87-3ZM178.56,103c1.08,0,1.66,1,1.11,1.55a1.49,1.49,0,0,1-1.46.14C177.36,104,177.51,103,178.56,103Zm-33,2.12,2.1,1.3-17.08,27-2.06,0-.19-.43Zm38.76.26c1.26,0,1.37,1.18-.16,2.27a3.69,3.69,0,0,1-1.87.52c-.76,0-1.27-.16-1.33-.69-.33-1.29-.52-1.61.65-1.53a3.43,3.43,0,0,0,1.39-.24A3.78,3.78,0,0,1,184.36,105.34Zm-5.22,1.18c.87,0,1.42,1,.84,1.42s-1.63.21-1.62-.65C178.36,106.74,178.51,106.52,179.14,106.52ZM56.23,108.43l-4.65,4.12c1.7,2,3.13,4,4.61,6.14Zm94,.26c2-.08,2.67.9,1.72,1.55a5,5,0,0,1-3.89.63c-1.95-.36-.4-1.93,1.74-2.15Zm-2.15,2.94a5.66,5.66,0,0,1,1.79.36c1.32.45,3,1.83,2.88,2.6-.12,1.24-2.46.6-4.34-1.18C147.2,112.3,147.16,111.65,148.05,111.63Zm-1.78,0c1.14.11,2.28,4,1.4,5.17s-2.4-1.35-2.12-3.32c.11-.78.3-1.81.61-1.85A.4.4,0,0,1,146.27,111.65Zm-74.69.85c.64.15,1.47,1,1.29,1.72-.13.27-.4.19-.7.12a1.55,1.55,0,0,1-.83-1.57C71.39,112.6,71.46,112.51,71.58,112.5Zm86.67.66,3.36,2.28-3.36.13Zm-13.92,4.61c2.58,0,3.12.85,1.2,1.87a6.21,6.21,0,0,1-3.76.15C140.17,119.23,142.09,117.76,144.33,117.77Zm20.85,1.74.18,2.34-6.47.57-.34-2.44Zm-22.37,1.16a4.74,4.74,0,0,1,2.1.66c1.76.91,2.76,2.43,1.85,2.91s-2.29-.08-3.32-1.17C142.07,121.63,142,120.73,142.81,120.67Zm-2.2,0c1.18.07,2.19,3.29,1.42,4.88-.42.88-1,.69-1.73-.75s-.79-3.83.07-4.1A.5.5,0,0,1,140.61,120.68Zm-84.15.91-2.83,5.69,5.13,4.47ZM166,126l.45,2.25-6.21,1.53-.61-2.45Zm-27.12.44a3,3,0,0,1,1.87.55c.57.5.45.73-.89,1.27-2.38,1-5.32.38-3.62-1.07A4.21,4.21,0,0,1,138.86,126.41Zm40.34-.13c-2.37,1.59-.09,2.46,1.61,1.26A2.67,2.67,0,0,0,179.2,126.28Zm-42.09,3.19c1.7.05,5,2.38,4.32,3.49-.39.61-2.61.09-3.5-.75-1.16-1.12-1.78-2.61-1.13-2.72A1,1,0,0,1,137.11,129.47Zm-2.14.1c.88-.16,2.28,3.92,1.22,5-.39.39-.5.37-1.17-.22-1.32-1.18-1.1-3.34-.3-4.55A.39.39,0,0,1,135,129.57Zm52.14,2.16a2.43,2.43,0,0,0-.84-.87C178,134,180.14,137,187.11,131.73Zm-19.54.28.82,2.27-6.26,2.48-.92-2.49Zm-107,4.31-2.11,5.57c2.3,0,4.37,1.1,6.48,2.07ZM169.64,138,171,140.2l-5.88,3.18L163.91,141ZM33,142.32l2.41,1.7-3.54,4.4-.32-.62,0-3.65Zm139.89,1.38,1.42,2.06-5.66,3.93-1.39-2.23ZM39.05,146.34l2.6,2-4.11,5-2.49-1.9Zm28.62,1.23-.12,6,6.12.24Zm70.77,2.69,7,4-1.05-6.12A60.27,60.27,0,0,0,138.44,150.26ZM176.66,149l1.63,2-5.24,4.39-1.67-2.1Zm-132.3,1.77L46.78,153l-4.27,4.62-2.25-2.12Zm136.77,3.28L183,156l-4.76,5L176.36,159ZM49.87,156.49l1.88,2.19-4.88,3.87-1.81-2.2ZM78,157l1.37,5.85c-.1-.43,6.08-1.75,6.88-1.3Zm71.9.49,5.82,6.16.66-5.93Zm36,1,2.11,1.65-3.92,5.57-2.38-1.87ZM54.07,162.18l1.74,2.51-5.12,3-1.45-2.21Zm137.38.59.32.32v4l-1.63,2.39-2.21-1.31Zm-33,4.47,5.15,9.37,1.46-7a14.87,14.87,0,0,1-6.61-2.38ZM58.15,168.49l1.23,2.71L54,173.66,52.74,171ZM61.07,175l1,2.71-5.75,1.91L55.4,177Zm-25.69,4.91,1.79,1.26C46.49,176.22,43.59,174.77,35.38,179.86Zm52.69-3.11c.35,0,.75.45,1.08,1.52.5,1.63.23,3.64-.87,3.62-.74-.09-1-2-1-2.55,0-1.63.35-2.55.81-2.59Zm5.11,1,2.22.24v.62L77.7,206.66l-2.14-1.36Zm-9.52.65a4.19,4.19,0,0,1,2.65,1.46,4.75,4.75,0,0,1,1.24,2.25c0,.27-.49.17-1,.1a5.28,5.28,0,0,1-3.45-2c-.68-1.23-.29-1.84.51-1.83Zm81.29,1,2.36,11.5c.73-2.88,2.27-4.54,3.41-6.8C167.72,182.69,166.48,181.05,165,179.37Zm-101.6,2.32.55,3L58,186.05l-.62-2.89Zm22.22,1a1,1,0,0,1,.25,0c2.18.24,2.48.72,1,1.71-.89.59-3.29.68-3.69,0s1.15-1.75,2.42-1.76Zm-43.22,1.74,1.85,1.08C47.36,183.26,43.9,182.81,42.35,184.47Zm40.08,1c.67,0,1.07,1.2,1.3,2.29a3.35,3.35,0,0,1-.1,2.55c-.5.65-1,.76-1.38.12C81.09,188.54,81.12,185.46,82.43,185.47Zm-4.91,1.73a3.15,3.15,0,0,1,1.16.24c1.55.58,3.6,2.95,2.73,3.28-1.28.48-4.07-.92-4.6-2.34-.26-.72,0-1.16.71-1.18Zm-12.74,1.91.14,2.94-6.26.25-.19-2.92Zm15.34,2.47a4.25,4.25,0,0,1,1.74.28c.89.39.24,1.09-1.3,1.62-1,.36-2.47.45-3,0C76.4,192.59,78.27,191.64,80.12,191.58Zm-48.44.34c4.29,2.61,13.14,8.42,13.14,8.42a3.42,3.42,0,0,0-1.28.73,4.19,4.19,0,0,1-1,.63,7.65,7.65,0,0,1-1.31.31c-2.77.6-4.12,2.16-3.26,4.11.34.77.43.64-.16,1.29-1.65,1.57-1.45,2-.86,4.06,0,.28-2,2.7-.22,4.52,1,.84,1,.32.66,2.23a2,2,0,0,0,1.86,2.42c.93.43.92.28.59,1.07a1.54,1.54,0,0,0,.89,2c.72.45,1,.57.5,1-5.57,2.86-7.28,7.82-2,15.12.62.87,2.18,3.3,2.18,3.3-1.77,2.63-3.46,4.79-5.27,7.14l5.26,7.35a53.05,53.05,0,0,0-4.06,6.72c-1.84,4-.63,9.65,4.66,11.34a6.88,6.88,0,0,0,7.14-2c1.53-1.78,2.36-5.31,1-9-1.77-4.12-3.89-6.14-4.57-7.31l5.62-7.06s-3.87-5.58-5.42-7.6c10.55-12.92,1.93-16.53.28-17.64-.26-.17-.2-1-.2-1,9.48-1.08,12.72-6.29,15.51-12.88,5.65,3.64,13.74,8.54,19.42,12.37.54.5.9.82.82,1.1a10.35,10.35,0,0,0-.3,2.35c.26,1.71.14,2.49-.55,3.14s-.52.9-.42,1.57c.18,1.16.36,1.27-.16,1.86s-.85,1.05-.73,2.8a5.52,5.52,0,0,1-.07,2.42c-.36.8-1.32,1.2-2.59,2.2-2.22,1.74-1.92,2.28,1.14,8.6,2.62,5.39,2.91,6.63,1.91,8.54a8.72,8.72,0,0,0-1,5.12c0,.59.07,1.23.07,1.54,0,.74,0,.65-.43,1.12a16,16,0,0,0-1.23,1.59c-3.64,5.47-13.23,19.37-13.23,19.37l-32.23-.05Zm45.2,2.55c.38,0,.84.65,1.35,2a3.18,3.18,0,0,1-.21,2.69c-1,1.05-2.28-1.41-1.87-3.36C76.34,194.93,76.59,194.49,76.88,194.47ZM167.53,193c0,5-.1,11.44-1.82,16.21l1.95.88c-.63-4.89.15-8.91,4.64-11a15.57,15.57,0,0,1-4.77-6.06Zm-95.48,3.14a1.82,1.82,0,0,1,.53.1,5.13,5.13,0,0,1,2.16,1.17c.92.94,1.87,2.07,1.63,2.18-1.53.67-5.39-1.38-4.89-3A.6.6,0,0,1,72.05,196.13Zm-6.78.21,0,2.44-3.74-2.4Zm85.55,1.17c.6.06,1.54.85,1.4,1.4s-.59.54-1-.08C150.7,198.05,150.48,197.56,150.82,197.51Zm-75.9,3c.91,0,1.69.18,1.78.65s-.7,1-1.55,1.29c-2.13.66-3.73.24-3.14-.81C72.37,201,73.75,200.56,74.92,200.53Zm74.17,2.77c-.9,1.61-1,6.77.58,8.88,2.47,2.73,4.75,6.27,4.48,11l-2.37,1.06c.13-3.89,0-6.41-3.06-9.76-3.61-3.93-2.76-10.73-1.51-12.73C148.28,199.78,149.82,202.58,149.09,203.3ZM45.18,201.15c.76,0,1.69.41,3.37,1.51,4.29,3,6.62,4.21,10.87,7.22.63.58.6.5.49,1-1.63,6.23-6.35,11.17-13.36,12.07-.81.11-.39-.4-.88-1.38a2.63,2.63,0,0,0-2.46-1.45c-2.89,0-.42-1.65,3.11-2.11,1.17-.18,2.58-.34,3.32-1,.16.07-.61-4.87.18-6.61.41-1.57,0-2.33-.42-1.36a17.36,17.36,0,0,0-.86,3.82c-.18,1.37-.46,1.56-.79.89a2.35,2.35,0,0,1,.09-1.59c.26-1.3-1.37-2.27-1-3.46a2.1,2.1,0,0,0-.57-2.45,2.66,2.66,0,0,1-.22-1.55,2.55,2.55,0,0,0-1.72-2.5c-.48-.25-.34-.51.17-.77a1.9,1.9,0,0,1,.72-.2Zm-3.51,1.78a2.79,2.79,0,0,1,.82.09c.57.35,1,2.31.39,2.39a10.58,10.58,0,0,0-1.53.29c-1.92.56-2.83.48-2.79-.62S40.17,203,41.67,202.93Zm2.56.2c.75,0,1.36.89.89,1.36a.86.86,0,0,1-1.44-.57c0-.38.18-.79.55-.79Zm.51,3.06a1.61,1.61,0,0,1,.71.16c.71.33,1.11,1.53.66,2a1.65,1.65,0,0,1-1.83-.23C43.35,207.31,43.8,206.23,44.74,206.19Zm-2.38.18c.43,0,.75.15.83.45s0,.5.07.87c.18.58.55,1,.23,1.25-1.48-.09-4.53,1.76-5.42,1.68-.73-.1-.82-.78-.18-1.88a6.29,6.29,0,0,1,4.47-2.37Zm.89,3.58c.32,0,.37.15.24.62a3.22,3.22,0,0,0,.21,1.64c.25.55.69.87.46,1.09a27.33,27.33,0,0,0-2.71.76c-1.37.76-5.22,3-4.25-.61.31-1.22,1.72-2.07,4.2-2.94A9.91,9.91,0,0,1,43.25,210Zm2,0a1.57,1.57,0,0,1,1.58,1c.89,1.78-1.67,2-2.49.55-.49-.87.14-1.48.91-1.53Zm.49,4.14c1.33,0,2.36,1.66,1.39,2.28a3.16,3.16,0,0,1-2.42.15c-1.23-.54-.66-2.44,1-2.43Zm127.51,0a98.51,98.51,0,0,0,18.64,6.91l-.22,65.73-45.46,0-12.51-21.71s-.42-.71-.55-1a2.35,2.35,0,0,1,0-1.69A36.8,36.8,0,0,1,136,256c3-5.55,7.32-11.63,5-17-.26-.61,2.4-3.92,2.4-3.92,4.11.34,7.51-2.34,6.29-8.66,8.57-3.5,15.64-6.35,23.59-12.27Zm-129.88.32c.12,0-.23,1.44.5,2.32.45.7.38.67-1.16,1.28a8.49,8.49,0,0,0-1.48,1.08c-2.2,2-4.38-.61-2.25-2.67a7.88,7.88,0,0,1,4.37-2Zm104.76,1.36c.73.13,1.69,1.11,1.39,1.65a7.85,7.85,0,0,0-1.19,4.49c-.1,2,.24,2.31-.53,2-.5-.24-1.43-.64-1.64-1.15C145.69,221.62,146.93,215.63,148.15,215.85ZM42.68,220.91a2.67,2.67,0,0,1,2.16.87c.4.52.44,1,0,1.18-1,.5-4.11.24-4.27-.41C40.37,221.55,41.48,220.93,42.68,220.91Zm47.81,1.28a31.73,31.73,0,0,1,11.84,2.36c5,1.86,9.3,6.62,10.29,8.65.29.62-.32.62-.85.67-5.89,1-7.85,8.22-2.88,11.69a5.08,5.08,0,0,0,2.82.87c1.26-.11-5.6,13.06-8.33,21.26-8.45-.35-14.84.95-23.1-1.89-.89-1.47-.68-4.73,0-6.41.59-1.53,1.37-2.71,1-4.47-.65-3.06-3.44-7-4.38-9.58-.82-1.93-.76-2.65.66-3.76a11.07,11.07,0,0,0,2.56-2.23c.43-.61.25-.75.25-2.14,0-1.67,0-1.41,1.36-1.66a10.79,10.79,0,0,0,2.49-.91c1.81-.95,3.07-.92,4.13-.33.46.13.42-.35.61-1a5,5,0,0,0,.27-.87c0-.28-.65-.2-1.32-.11-2.7.38-4.82.46-5.91.06s-.95-1-.4-2a3.29,3.29,0,0,0,.64-2.9c-.25-2.47.09-3,1.25-3.8,1.43-1,4-1.48,7-1.47Zm13.94,2.18H117a31.72,31.72,0,0,0-3.37,7.94c-.12.23-.25.45-.54.16A25.61,25.61,0,0,0,104.43,224.37ZM94,233.19a13.37,13.37,0,0,0-5.73,2.12c-1.6.91-2.91,1.48-4.61,1.17-1-.18-1.09,0-1.22.27-.57,1.42,1.55,2.94,3.69,1.94.63-.26,5.4-2.73,5.67-2.94a9.43,9.43,0,0,1,2.78-.81A2.32,2.32,0,0,1,97,237.63c-.26,1.92-3,2-3.15.31-.14-1.31-.69-.73-.74-.08A3.41,3.41,0,0,0,94,240c2.29,1.43,5.32-1.36,3.87-4.23A3.93,3.93,0,0,0,94,233.19Zm-10.29,6.67c-1.55.3-2.56.91-4.24,1-1.38.3-1.28,1.4-.42,2,.67.44,1.5.17,3.92-1.37a2.06,2.06,0,0,1,2.52,3.25c-1.2,1-.38,1.28.44.67,2.11-1.57.9-6.17-2.22-5.58ZM91.11,248a1.78,1.78,0,0,0-.85.23,10,10,0,0,0-4,2.82c-.14.25-.06.67-.13,1s-.27.58-.23.76.54.31.61.46a6.86,6.86,0,0,1-.07,3.14c-.08.51-.85.67-1.15,1-1,1-.75,1.33.32.93.74-.27.43-.79,2.28-.43a8.69,8.69,0,0,0,6.17-1.23c2.09-1.17,2.85-1.81,2.94-1.67s0,.35-1.47,1.59c-3.74,3.11-6.52,3.83-8.61,2.66-.63-.42-1.13-.6-.66.32a3.4,3.4,0,0,0,.93.65c2.15,1,4.85.15,8.29-2.57.75-.59,1.42-1.26,2.29-2,2.86-2.39,2.11-3.48-1.12-2.32-1,.37-1.3,0-2.67-.56a10.15,10.15,0,0,0-4.57-.82c-1.85,0-2.13.14-2.13-.17a5.28,5.28,0,0,1,2.64-2.4C91.28,248.75,91.66,248,91.11,248Zm3.4,5.89c.35.35-.15.57-1.48,1.2a10.43,10.43,0,0,1-1.55.65c-.11.22-1.37-2.62-1-2.76C90.6,252.9,93.68,253.16,94.51,253.86Zm-4.83-.3a8.56,8.56,0,0,1,.66,1.94c0,.19.16.46-.14.46s-.62.06-.76-.16a5.43,5.43,0,0,1-.53-2.4C89.14,253.09,89.55,253.31,89.68,253.56Zm11,5.1a1.6,1.6,0,0,0-.65.28c-5.3,3.13-11.66,4.76-15.75,3.21-1.38-.52-1.63-.33-1.13.61a3.48,3.48,0,0,0,2.09,1.71c3.34.92,8.72-.42,12.86-3.13,1.68-1.11,3.06-2.69,2.58-2.68Zm31.21,8.39s9.37,19.32,11.19,20.22l-76.25-.13,12.85-18.37c.11,1,31,5.27,52.21-1.72Z" transform="translate(-5.81 -8.49)"/>
    <path class="b" d="M67.28,286.94l12.31-18.18c18.21,3.46,34.59,1.63,52.54-1.57l12,20.16Zm96.55-67.77-.08-10.79,3.76,1.4c-1.3-5,2-10.27,5-10.48-9.59-7.24-1.63-15-1.79-15.14-10.49-5.41-5.23-13.72-6-14.47C152,166.38,157,156.23,156,157.28c-7.44,2.24-11.54-4-11.67-9.07-6.43,3.65-16.38-1.52-13.26-7.33,0,0,3.41,1.62,4,1.29,5.26-3.82,4.84,1.67,5.94,2.86,3.92-.57,6.23,2.43,7.21,3.89,5.78,0,5.54-1.38,5.59,4.23,4.36,1.1,4.19,3.46,6.71,6.68,5.49.06,4.57,1.84,3.33,4.88,3.95,3.16,4.28,5.62,4.93,8.49,4.32,1.57,5.09,2.2,2.27,5.84,3.82,5.72,2,9,2.56,9.34,4.75,3.43,2.38,4.67.3,6,.72,4.56,1.3,5.22-.38,9.86,5.47,3.88-.86,5.63-1.18,5.55l0,3.84ZM31.55,191l-.12-13.38,46.32,29.93-5.85,9.18Zm61.52,19.68,11-22.92-3.93-25,31.37.69c3.53,8,5.66,14.84,14.69,28.11l-9.55,3,.34,16.07Zm26.84-6a2.8,2.8,0,0,1-.44-1.42c.11-.38.41-.36.78-.16,1.33.65,2.67,1.21,3.65,0a1.78,1.78,0,0,0-.05-2.09c-.76-1.53-3.12-.42-3.92-.37s-1-.6-.42-1.49a2.22,2.22,0,0,0,.65-1.31c.42-3.5-5.55-2.25-3.48,1.14.94,1.26.39,2-1,1.22-1.53-.87-3.64-.06-3.57,1.79,0,1.39,1.8,2.25,3.28,1.41.34-.19.6-.4.84-.51.69-.3,1.18,0,1,.72-.61,1-1.33,2.35-.73,3.26.61,1.33,2.68,1.21,3.4.38a2.21,2.21,0,0,0,0-2.56Zm72.37-70.26-46.4-30.08,1.6-2.54c2.08-1.16,2.94-2.6,2.87-4.61l1.26-2.78,40.72,26.13Zm-72.55-10.17,4.75,24.28L92.09,149c-1.78-8.15-12.91-26.6-12.88-26.28l8.64-21.23,43,0Zm-12.16-9c.82-.75.77-1.9-.14-3.19s-.48-2.15.92-1.31a3.63,3.63,0,0,0,2.85.37,1.91,1.91,0,0,0,1.34-2.27c-.19-1.3-1.62-1.65-3.15-1.09-.44.1-.71.46-1.09.63-.83.36-1.15-.63-.4-1.91a2,2,0,0,0-1.57-3.09,2,2,0,0,0-2,2.75c1,1.47.26,2.5-1.11,1.51-2-1.41-4.58.38-3.51,2.49.52,1,2.23,1.29,3.76.64,1.27-.54,1.65.08.88,1.39-1.59,2.69,1,5,3.17,3.08Zm-47-23.84-.34,12.94c-4.85-3-4.13-3-4.31-3a9.3,9.3,0,0,1-4.35,11.06c7.41,7,3.41,11.84,2.19,15.14a10.74,10.74,0,0,1,4.7,14.49c9.33.06,9.15,8.22,9.41,11.62,11.54-.72,10,8.5,11.52,9.29,5.59-2.5,12.12-1.65,13.86,5.87,1.12,4.27-3,.16-4.79.34-6.37,4-5.15-2.09-5.51-2.94-5.28.5-6-2-8.3-3.8-5.71,1.1-5.24-.78-4.9-4.25-4.48-.9-5.45-3.7-7.23-6.43-6.18.2-3.66-4.16-3.64-5-.75-.67-4.3-4.17-4.47-8.16-6.35-1.8-2.36-5-2.13-6.09-2.4-3-3-5.2-2.23-9-5.63-2.63-.93-5.09-.53-6.59-1.84-4.91-.5-6.37.23-9-3.63-4.25-1.46-4,1.19-6.59.33-.46-.59-2.6-.54-3.85ZM93.11,43.43,83,25.25h72.54s-7.89,10.94-11,16.44C126.45,38.83,109.52,40.19,93.11,43.43Z" transform="translate(-5.81 -8.49)"/>
    <path class="c" d="M42.47,275.14C36.11,273.69,35,265.69,41,259a5.3,5.3,0,0,0,.82-1.37s-1.07-1.75-3.85-5.61c-.52-.71-1.28-1.86-1.28-1.86,1.53-2.21,3.13-4,4.84-6.42.23-.32.65-.68.59-1s-.7-.84-1.44-1.93c-4.31-6.35-4.79-8.87-2.6-12.64,2.06-3.55,7-4,10-.83,3.23,3.38,3.08,6.45-1.12,12.7-.92,1.37-1.59,2.61-1.59,2.61s0,.44,1.49,2.4c2.1,2.72,3.65,5,3.65,5s-1,1.23-1.87,2.29a33.3,33.3,0,0,0-3.52,4.83,2.79,2.79,0,0,0,.53,1c6.66,7.56,6.14,16.23-1.4,17A9.32,9.32,0,0,1,42.47,275.14Zm53.62-96.4c-.17-.29-24,38.26-24,38.26l2.71,1.74,22.79-35.63c.34.26.68.57.61,1,0,0-18.77,30.58-21.89,35.46a45.57,45.57,0,0,0,4.81,2.95c7-3.44,36.08-.46,55.41-1.65.07.06-.3,6.79-.3,6.79s-4.41-5.1-5.3-5.13c-4.39-.15-9,1.72-12.32,1.51-2.12.65-4.53,8.35-5,10.28-3.85-.44-7.57,3.58-6.68,7.33,1.26,4.16,3.42,3.85,5.76,3.92-.22,4.71-8.54,17.14-8.58,23.26,8.8-.69,18.33-.85,27.41-3.59,0,0,3.41-9.81,7.71-16.28a13.25,13.25,0,0,0,1.53-8.52c-.37-2.56.74-3.21,1.72-5,.6-1.12,2.82-1.08,3.1-1.16,5.78-1.67,3.72-9.14,1.26-10.47-3.07-1.66-7.4.91-9.07-2.45-1.76-3.56-1.19-10.91-1.19-10.91l-43.6.21s12.32-23.41,12-23.58c-3.37-1.85-8.87-8.28-8.92-8.35ZM66.93,200.05c.2-2.37.58-40.84-35.77-60l.19-5.06c.23-.26,33.07,14.83,38.71,54l10.13-15.88,3.73,1.46c-5.51,8.28-16.47,28.37-17,25.43ZM44.85,186.19c1.5-4.44-1-2.08-3.19-2.27-1.54-.83-3-1.91-4.46-2.84,10.62-5.63,4.3-5.36-1.89-1.41-1.61-.87-3.64-2.77-3.76-2.61,12-7.71,7.49-7.87-.19-2.29.27-5.23.08-3.27.19-5,6.54-7,.44-3.2,0-3.11-1.61-7,6.09-5.53,6.79-.25,1.36,1,4,2.26,4.81,6.6,3.69,2.35,3.31,4.3,3.13,7.12,1.45,1.43,5.18,4.45.83,7.23Zm-13.79-31.9.25-3.87c.5-1.58,28.54,18.43,26.52,44.13.33-.18-3.1-1.8-4.09-2.68C53.76,173,31.5,153.35,31.06,154.29ZM191.87,176c-18.71-8.58-36.47-29.13-37.4-55.85l-10.57,17.7-3.75-1.59c.35.29,8.36-14.57,16.6-24.84,2.33,33.72,15.55,49.4,35.58,60.78Zm-98-12.33c-18.12-2.25-44.34-26.93-36.5-60.39C58.51,99.87,76,118.7,76,118.69c.11-.85,15.73,24.31,15.29,29.22,13.18,3.76,38.91.2,38.91.2,21.39,4.78,43.76,27.86,35.68,60.66a97.21,97.21,0,0,1-10.44-8.08c-14.43-14-19-25.43-24.13-38.08-18.48-1.67-35.81,1.65-37.4,1Zm98.15-27.87a42.2,42.2,0,0,1,.17,5.11c-4.82,5.25-5.32,5.35.72,3.66-.75,5-4.47,5.86-6.68,4.14-.81-.63-.82-4.09-.82-4.09-3.66-.92-4.92-2-4.4-6-4.22-.51-4-2.56-3.7-6.85-3.85-2.16-2.89-5.6-.62-7.07l1.9,1.31c-.61.55-.31,4,3.06,1.42,0,0,2.69,2.24,4,3.11-9.74,6.26-3.83,4.88,2.17.77,1.12.77,2.66,2,3.46,2.56C183.39,139.57,180.79,144.31,192.05,135.79Zm.47,21.3-.32,4.52c-19.23-11.77-24.44-27.29-25.87-43.82,0,0,2.58,1.9,3.76,2.69,1.72,21.32,21.24,35.72,22.43,36.61ZM87.16,101.14l46.12.29L121,124.83l6.46,7.63s16-25,24.08-38.05l-2.79-1.67-23,36.14-.92-1,22.67-36.11c-1.36-.89-3.93-2.32-3.93-2.32s-39.28.63-56.35.56A42.57,42.57,0,0,0,88,83.47c2.51,3.61,5.21,6.84,11.08,3.29,0,0,6.94.23,7.2-.1.85-1.37,2.35-5.69,4.11-10.57,6.69-.45,6-3.69,6.79-4.75-.51-9.52-5.85-4.39-5.39-7.85,1.51-6.17,9.22-20.13,8.24-21.35-2-1.32-21.71,2.56-27.45,3.27-.53-.21-3.34,9-6.29,12.87-3.22,4.26-4.37,8.83-2.72,13.14-1.71,4.74-5,4.25-7.58,5.6-3,3.21-2.16,8.14.67,10,2,1.33,5,1.26,8.09-1.25ZM178.8,68.05l-5.39-7.25,5.23-7.62c-2.07-3.28-5.47-8.29-4.86-12.26,1.33-7.88,11.95-6.72,12.88.81.5,3.5-2,7.79-4.63,11.44,1.7,3.11,2.44,3.62,4.92,7.19-1.47,2.61-5.07,7.7-5.07,7.7,2.24,3.78,5.36,7.93,5.14,11.77-.24,3.29-3.83,6.63-7.18,5.93C169.43,83.57,175.24,72.43,178.8,68.05Z" transform="translate(-5.81 -8.49)"/>
    <path d="M16.08,8.49V12h3.45s.08,3.36.11,10.49c0,6.91.17,10.34-.28,12.31-1.21,4.55-7.91,4.57-9.24,1.3-.77-1.9-.56-3.37-.6-5.28H5.81s0,1,0,2.14c0,5.11,1.74,7.54,5.77,8.51s9-.58,10.71-4.06c1-2,.91-2.11.94-14.09,0-8,.14-11.32.14-11.32h3.17V8.49ZM81.23,24.42c2.86,5.37,11,19.86,11,19.86,19.32-4,35.57-5,52.64-1.28L157,24.5Zm2.52,1.09h3.49l6.85,14.1,11.82-2.37-2-11.7,3.34,0,1.69,11.25,17.37-.44,2.25-10.86,3.2,0-2.3,11,13.75,1.85,6.73-12.93h4.62l-10.23,16a121,121,0,0,0-51.41,1.37Zm6.59,0h10.19L103,35a23.05,23.05,0,0,1-7.5,1.62C93.62,33.36,91.69,28.63,90.34,25.51Zm19.66,0h15.52l-1.33,8.1-13,.42Zm24.6,0h12l-4.72,9.84-9-1.23ZM58.16,28a79.55,79.55,0,0,1-8.61,13.92c-8.4,11-10.2,14.1-11.86,20.57C35.09,72.57,44,80.75,51.81,75.25c1.83-1.3,3.86-4.87,3.86-6.41,0-1.11.77-1.7,1.38-1.08a2.45,2.45,0,0,1,.12,1.33c-.43,4.58-2.27,12-5.83,16.71H65.57A26.61,26.61,0,0,1,59.9,68.93c0-2.33,1.39-2.1,1.7.28,1.51,11.68,16.57,9.48,17.27-2.2.42-6.1-3.44-12.61-8.46-19.82C66.31,41.31,61.32,35,58.16,28Zm122,7.39a8.53,8.53,0,0,0-1.94.18c-3.1.65-4.72,3-4.75,6.92,0,1.78,1.3,4.94,3.3,7.92a26.22,26.22,0,0,1,1.62,2.79l-5.2,7.65,5.54,7.23s-.87,1-1.38,1.74c-2.54,3.59-3.71,6.95-3.55,9.7.18,3,1.91,5.24,5.16,6.33,1.78.6,4.33-.13,6-1.68a6.37,6.37,0,0,0,2.1-4.78c0-2.73-1.28-6-3.9-9.63A11.3,11.3,0,0,1,182.1,68s3.67-5.22,5.06-7.62l-5-7.2c4-6,4.79-7.33,4.9-11A6.88,6.88,0,0,0,180.12,35.36Zm-.5.44a4.51,4.51,0,0,1,.52,0c4.55.35,7,3.74,6.36,8.08-.62,4.15-4.36,8-5,9.34a85.62,85.62,0,0,0,5.19,7.08c-1.44,2.61-5.15,7.67-5.15,7.67a6.85,6.85,0,0,0,.45.76c3.87,5.49,4.94,8.08,4.67,11.38a6.09,6.09,0,0,1-4.82,5.38,6.58,6.58,0,0,1-7.78-6c-.24-3.4,2-6.7,3.65-9.28.72-1.08,1.34-2.11,1.34-2.11l-5.52-7.24s.4-.62.65-1c1-1.41,2.23-3.16,2.87-4,1.16-1.51,1.85-2.55,1.85-2.55l-1.59-2.53c-3-4.78-3.87-7.23-3.4-9.87A5.91,5.91,0,0,1,179.62,35.8Zm.41,2.45a4.47,4.47,0,0,0-3.93,3.08c-.93,3.36,2.62,8.46,4.23,9.83,3-3.48,4.94-7.37,3.83-10.1A4.66,4.66,0,0,0,180,38.25Zm.42,1.09c3.05.06,4.19,3.68,1.84,7.8a26.91,26.91,0,0,1-2,2.88s-1.12-1.4-1.79-2.45c-2.73-4.27-2-7.6,1.32-8.19A3.49,3.49,0,0,1,180.45,39.34Zm-60.71,1.88a140.05,140.05,0,0,0-28,3.5A36.24,36.24,0,0,1,85.61,58.8C83,63.14,82,66.91,82.88,69.49c.83,2.42-1.43,6-3.92,6.26a5.21,5.21,0,0,0-5,5.51c-.09,4.92,3.3,7.93,7.91,6.26a1,1,0,0,1,.77.24l-.27,28.15a18.55,18.55,0,0,0-6.52,2.14l-.93-1-1.44-1.56a6.05,6.05,0,0,0-1.13-1,4,4,0,0,1-1-1,21.7,21.7,0,0,0-4.11-4c-.21-.15-.76-.61-1.21-1l-.82-.76V98.41c0-5.14,0-9.4-.12-9.47a10.06,10.06,0,0,0-2.34,1,75.44,75.44,0,0,0-11.29,6.43c-1.36.91-1.5,1.42-1,3.73.29,1.29.22,1.43-.85,1.69-2.2.54-2.89,4-1,5.23.88.56.88.59.32,1.85-.87,2-.84,5.71.06,7.28.51.89.48,1.18-.2,1.62-2.34,1.52-2.18,4.78.26,5.39.63.16.79.43.59,1-.77,2-.07,5,1.68,7.25.91,1.18.91,1.17.31,1.71a3.07,3.07,0,0,0,1.78,5.32c.92.12.93.12,1,.83a10.75,10.75,0,0,0,.9,3.54,7.61,7.61,0,0,0,2.51,3c1,.8,1,.81.49,2-1,2.2.6,4.38,3.19,4.29,1.33,0,1.33,0,1.42.43a7.92,7.92,0,0,0,5.44,5.36c1.16.2,1.34.47,1,1.45-.63,1.57-.22,2.58,1.37,3.4a2.46,2.46,0,0,0,2.55.17c1.32-.46,1.33-.45,2.45,1.05,1.59,2.12,2.64,2.65,5.28,2.67,1.74,0,1.81.06,1.82,1.29a2.86,2.86,0,0,0,5.09,2c.71-.76.71-.76,1.35-.29,2.78,2,5.26,2.57,5,.66a12.11,12.11,0,0,0-3.78-7.2l4,1.05c.17,4.73.34,10.42,1.33,14.36l-18,28.71s-1.09-.67-2.24-1.46c-1.7-1.17-3.77-2.54-5-3.34a18.46,18.46,0,0,1-2.14-1.46c-.63-.52.39-1.21.6-1.76,4.15-7.41,10.65-16.32,15.37-25l-4.57-1.77c-3.5,5.51-6.08,10-9.34,15-3.25-23.82-19.87-44.73-40-53.54l.06,6.24A65.56,65.56,0,0,1,66.3,199.52a23.16,23.16,0,0,1-4-2.43c-1.2-.8-3.62-2.38-3.92-2.53,1-29.12-27.89-46.33-27.94-45.52,0,0-.19,3.77-.27,5.51,12.31,8.24,22,23.24,23,36.59,0,.11-5.77-3.61-5.77-3.61,3.44-1.72,2.49-6.16,0-7.36-.77-.35-.82-.52-.43-1.57.79-2.15-.67-5.38-2.67-5.93-.88-.24-1-.47-1.06-1.7a4.18,4.18,0,0,0-3.58-4.22c-.62-.14-.63-.15-.66-.92-.19-4.37-4.46-6.15-7.67-3.2a5.11,5.11,0,0,0-.73,1l0,4.74c1.1-.6,2.76-2.66,3.44-2.58s.39.6-1.3,2.06c-1.1.95-2.17,1.95-2.17,1.95l.07,6.24c1.82-1.18,3.65-2.52,5.36-3.71,1.48-1,2.23-1.37,2.41-1.07s-.12.77-1,1.27c-2.25,1.5-4.86,3.26-6.75,4.73v4.3l.36.54.11,3.76-.34.09v4.74L75.12,219l22.59-35.65.38.37-22.61,35.5a11.52,11.52,0,0,0,1.81,1.26c.9.51,2,1.17,3,1.81a2.37,2.37,0,0,0,2.09,1.3c.78-.85,4.18-1.74,4.5-2.14,12.65-.18,48.94.06,48.94.06l.2,5.81c-1.63-5.63-6.89-6.79-11-4.27h-6.79c-.06,0-4,7.23-4.61,11-2.85-.38-6.65,2.4-6.84,5.22-.47,4,2.17,6.95,5.63,6.38a19,19,0,0,1-2.5,7.07,108.51,108.51,0,0,0-5.5,13.16c-1.07,2.92-.71,3.44-.53,3.51,10.14-.14,19.46-1.12,29.07-4.23,0,0-.17-.68-.26-1.07-.35-1.55,1-4.74,4.66-11.32,2.86-5.09,3.68-7,4-9.43a9.57,9.57,0,0,0-.3-3.79,2.71,2.71,0,0,1-.15-.74c.3-1.53,2.62-4.21,2.68-4.15s.84-.15,1.18-.18c5.23-.37,6.86-7.49,2.44-10.7a6.14,6.14,0,0,0-5.71-.82l0-27.62,3.18.12,3.5-1.73c5.63,4.81,9.3,9.72,15.35,13.41l-.1.25-4.5-3.09v18.09c5.21-2.71,10.07-5.21,14.75-9l-.95-.81,0-2.59c4.4.35,4.82-5.25,1.21-5.92a5,5,0,0,1,.43-1.17,8.37,8.37,0,0,0,.44-6.78c-.49-1.45-.47-1.81.11-1.81,2.67,0,2.43-4.73-.3-5.76-.93-.36-.87-.07-.68-3a7.11,7.11,0,0,0-2-5.65c-.62-.73-.57-1.08.23-1.57,2.28-1.39.62-5.41-2.18-5.29-1.1,0-1.09,0-1.19-1.05a8.74,8.74,0,0,0-4-6.78c-.65-.36-.74-.65-.38-1.14,1.8-2.4.12-5.68-2.41-4.72l-1.15.41c-.2.06-.36-.22-.75-1.3-1-3-2-3.9-5.34-5.31-.66-.27-.7-.47-.4-1.82.51-2.33-2.7-4.5-4.44-3-.7.62-.73.61-1.52-.41a10.53,10.53,0,0,0-6.46-3.33c-1.1-.1-1.27-.19-1.18-.61.61-2.86-2.17-4.72-4.48-3-1.11.82-1.4.85-2.54.21-2.39-1.35-3.45-1.4-3.69-.18a8.18,8.18,0,0,0,.39,2.95c.58,2,1.34,2.75,3,4.17,0,0-2.75-.76-3.44-.9.07-.07-.2-9.53-2-14.89l17.55-27.93,10.06,6.63-16.08,25.43,4.68,1.91s6.25-10.39,9.52-15.48c2.14,25.29,21.68,47.45,39.39,54-.06,0,.06-3.63.13-5.41-18.68-8.22-36.44-31.2-35.33-58.79l7.51,4.8c2.17,22.11,11.8,35.07,27.86,46V156.8c-11.06-8.18-20.24-18.87-22.68-36,0,0,3.75,2.37,5.43,3.49a5.56,5.56,0,0,0-.72.48c-2,1.67-1.4,5.09,1.24,7,.43.31.43.31,0,1.39a4.07,4.07,0,0,0,2.52,5.27c1.2.31,1.19.3,1.22,1.67,0,2.66,1.11,3.89,4,4.53.39.08.4.12.39,1.32a3.77,3.77,0,0,0,5.28,3.69,34.13,34.13,0,0,0,3.2-2.42v-4.74s-1.1.9-1.89,1.64c-1.39,1.3-1.83,1.46-1.83.67,0-.58.64-1.33,2-2.32a20,20,0,0,0,1.74-1.61v-5.53a4.23,4.23,0,0,1-.58-2.16,13.58,13.58,0,0,1,.2-1.61h.66v-6.39l-.8-.63,0-4.23L148.68,92l-22.87,36.38-.57-.67,22.89-36.15-6.08-3.88-3.67,1.81s-25.42-.4-50.21-.09c0,0-.06-.68,0-2.61,0-2.43.13-2.77.58-1.75a6.4,6.4,0,0,0,6.38,3.55,6.11,6.11,0,0,0,3.67-1.12c.68-.36.8-.37,4-.35,3.41,0,4-.1,4-.82a68.69,68.69,0,0,0,3-8.19c.33-1.14.48-1.64.74-1.88s.37-.14.87-.17c2.18-.14,2.78-.28,4.35-1.81,3.15-3.17,1.35-9.6-3.21-9.63-1.21,0-.38-3.22,2.17-8.43a86.72,86.72,0,0,0,4.38-9.84,22.65,22.65,0,0,0,1.42-5.09Zm-.24,1.56c.63.53-1,4.43-3.79,10.32a63.45,63.45,0,0,0-3.9,9.07c-.15.51-.35,1.24-.46,1.63a1.93,1.93,0,0,1-.9,1.19c-.38.28-.91.68-1.18.9-.77.62-1,.42-.77-.82.35-2.31,1.27-4.79,3.38-9.12a95.4,95.4,0,0,0,4.58-10.9c.28-.88.42-1.77.89-2.1a3.07,3.07,0,0,1,2.15-.17Zm-3.43.22c.44.3-1.63,5.64-5.2,13-4.46,9.25-4.7,15.72-.69,17.31,3.17,1.25,6.35-2.24,4.4-4.78-.94-1.22-3-1.33-3.66-.06-.38.69.15,1.49.82.52,1-1.41,3,.22,2.49,1.89a3,3,0,0,1-2.93,1.86c-4.38-.87-3.55-7.05,1-7.39,4.35-.32,6.33,5.51,3.17,8.86a5.13,5.13,0,0,1-4.21,1.62c-2.83,0-5.48-2.35-5.21-4.51a8.54,8.54,0,0,0-.24-5.15,3.78,3.78,0,0,1-.47-1.64c0-1.75,1.49-4.48,4.72-11.22a64,64,0,0,0,3.27-9.24c.25-.77.13-1,.42-1.1A3.65,3.65,0,0,1,116.07,43Zm-3.73.1c.66,0-.86,4.89-2.78,9-1.46,3.17-3.45,7.24-4.93,11-.47.8-.79.86-1.76.34s-.75-1.48,1.77-6.5a77.9,77.9,0,0,0,5-12.46,1.71,1.71,0,0,1,.73-1.22,4.11,4.11,0,0,1,2-.2Zm-3.55.54c.35.47-2,7-5.53,14.42-.77,1.56-1.29,3-2.05,4.6a7.47,7.47,0,0,1-2.51.71c-.73-.1,0-1.48,2.06-5.71,1.7-3.45,2.19-4.43,3.08-6.52.65-1.54,1.61-4.18,2.5-6.64.07-.2.14-.65.33-.75A2.79,2.79,0,0,1,108.79,43.64Zm-3.49.42c.06.15-.07.48-.12.73-.57,2.64-1.85,5.09-2.79,7.61-.11.35-1.14,2.49-2.29,4.77S97.9,61.62,97.76,62l-.84,2.26c-2.06,4.41.15,7.89,2.88,8.13,4.25.36,4.65-5.6,1.65-6.18A1.9,1.9,0,0,0,99.07,68c-.08.68.76,1.47.74.5,0-1.78,2.44-1.7,2.75-.19.59,2.94-2.75,4.38-4.74,2.07a3.49,3.49,0,0,1-.66-3,3.91,3.91,0,0,1,6.26-2.55c3.84,2.72,2.51,8.73-2.45,9.71A5.61,5.61,0,0,1,95.79,73a6.51,6.51,0,0,1-1.63-3.78,11,11,0,0,1,0-2.93c.4-3.08,2.65-7.59,4.63-11.4,1.52-3.17,2.72-7.35,4.1-10.71.4-.29,2.5-.55,2.44-.1Zm-3.75.42c.22.07-.94,3.72-2.59,7.67-1.83,4-4.19,8.59-5.53,12.53-.43,1-.73.94-1.94-.18-.63-.59-.27-1.47,2-6,3.42-7,4.69-10,5.2-11.63.24-.78.44-1.74,1-2a2.72,2.72,0,0,1,2-.34Zm-3.42.87a65.26,65.26,0,0,1-3.57,8.79c-1.28,2.6-2.52,5.49-3.77,8.18-.71,1.66-.73,1.66-1.92,1.91-2,.42-2,.4-.24-3.22.53-1.07,1.55-3,2.27-4.37A73.62,73.62,0,0,0,95,47a4.07,4.07,0,0,1,.79-1.56C96,45.34,97.6,44.86,98.13,45.35Zm-4.41.44a1,1,0,0,1,.84.25c.09.82-2.12,6.06-3.49,8.49-.41.75-.82,1.72-1.29,2.58a46.75,46.75,0,0,0-4.36,10.26c-.85,3.5,3.14,6.14,5.22,3.6,1.31-1.54-.06-4.31-2-3.53-.66.27-.39.56.51.64,1.49.12,1.61,2.42,0,2.93a2.43,2.43,0,0,1-3-2.55,3.45,3.45,0,0,1,5.71-2.63c2.18,1.82,2.53,6.15-.78,7.83s-7.21-.58-8-4.46c-.61-3,.05-5.67,2.9-10.23a57.24,57.24,0,0,0,5.48-11.14,6,6,0,0,1,.72-1.52,2.55,2.55,0,0,1,1.52-.52Zm-77.82.8S14.61,49.06,12.83,52C10.66,55.69,7.47,59.31,7,63.41a7.62,7.62,0,0,0,.3,3c1,3,5.31,3.47,6.82.93.45-.76.6-.9,1-.66.19.1.27.4.26.81-.37,2.71-1.41,4.19-2.91,6.23h7.2a11,11,0,0,1-3-6.31c0-.95.54-1,1.41,0C21,71.36,25.39,67,25,63.37c-.41-4-4.62-9.25-5.78-11.29-1.76-2.6-3.35-5.49-3.35-5.49Zm164.41,8.52L176,60.62c1.25,1.81,4.22,5.37,4.22,5.37l4.12-5.31Zm0,3.08,1.8,2.33-2,2.43-1.93-2.27Zm.17,12s-5.25,5.75-4,10c1.07,3.8,6.79,4.73,8.18-.83a6.89,6.89,0,0,0,0-1.79C184.49,75.31,180.51,70.18,180.51,70.18Zm0,1.14s1.5,2.18,2.56,4.12,1.5,7-2.72,6.82c-2.28.23-4.47-2.78-2.65-6.47A52.22,52.22,0,0,1,180.51,71.32ZM94,72.24c.29,0,.58.59.77,1,.25.63-.47,2.42-1.22,3.31a24.12,24.12,0,0,0-2.54,1,10.34,10.34,0,0,1,.68-2.79c1-1,1.8-2.11,2.19-2.45A.25.25,0,0,1,94,72.24Zm-10.45.32c.64.73,1.28,1.37,1.25,1.82,0,.66-.81,1.48-1.4,2.06-.74.73-2.21.29-2.21-.65A13.13,13.13,0,0,1,83.5,72.56Zm22.2,1a3.57,3.57,0,0,1,1.33,2c-.91,4.91-4.29,10.92-4.18,10.69a6.62,6.62,0,0,1-2.94-.07,38,38,0,0,0,4.83-10.47C105.18,74.23,105.38,73.52,105.7,73.51Zm-1.92.69c.35,0,.48.26.19,1-1.34,5.43-4.34,11.14-6.71,12.18a5.76,5.76,0,0,1-7.51-2.1c-1.43-2.53-1.18-6.52,3.6-7.39,2.81-.29,5.69,1.93,4.19,5.49-1.67,2.65-6.15,1.17-4.84-2.24,1-1.25,3.08-.16,2.4,1.25-.35.72,0,1.16.5.66,1.63-1.59-1.06-4.33-2.87-3-3,2.23.69,7.14,4.14,5,1-.64,2.95-4.24,3.66-6.86a6,6,0,0,1,1.31-2.88A4.22,4.22,0,0,1,103.78,74.2Zm-7.85.22a1.67,1.67,0,0,1,.64.22c.35.17.75.48.7.88a3.51,3.51,0,0,1-.85,2c-.32-.11-1.2-.46-1.81-.63-.37-.1.13-.91.36-1.37.37-.72.58-1,.89-1.06Zm-9.77.18c.45,0,1.16.49,1.62.56.09.67-.77,2.12-2.16,3.82-1.15,1.4-1.14,1.4-1.91-.14-.49-1-.51-1,.91-2.73.76-1,1.13-1.38,1.46-1.5Zm4.44.5a5.86,5.86,0,0,1-.32,1.62C88.7,81.45,85,86.14,81.94,87.29c-4,1.31-7.64-.79-7.73-5.63.1-5.71,6.89-7.29,8.94-2.09.93,2.35-1.6,5.88-3.78,5.29s-3.12-4-1.3-4.88a1.49,1.49,0,0,1,2.16,1.64c-.09.44-.07.5.19.45,1.13-.21.53-2.48-.8-3-2.53-1.07-4.44,2.33-2.73,4.87,2,3,5.25,2.45,7.09-1.3a12,12,0,0,1,1.33-2,18,18,0,0,0,2.46-3.52,15.47,15.47,0,0,1,1.12-1.85A7.2,7.2,0,0,0,90.6,75.1Zm8.94.25c.48,0,.85.31.84,1a13.15,13.15,0,0,1-1.17,3.45c-.15.21-.48,1-.53.8a8.62,8.62,0,0,0-1.42-2.45c-.13-.47.29-.93.47-1.36A2.18,2.18,0,0,1,99.54,75.35Zm8.43.74c.58,0,1.4.26,1.57.69.53.92-3,9.54-3.17,9.57l-2.67-.12a82.61,82.61,0,0,0,4-10.12A.86.86,0,0,1,108,76.09Zm35.76,13.64,3.39,2-22.34,35.5-3.25-2.49ZM88,90.47c20.86.08,49.6,0,49.6,0l-1.21,2.3S105,92.5,88,92.54ZM59.83,91.92l0,11.67s-.16-.07-2.15-1.4c-2.39-1.59-5-3.22-5.85-3.65-1.25-.64-1.09-.94,1.31-2.46S59.83,91.92,59.83,91.92Zm89.34,1.16,2.1,1.32-23.48,37.37-1.3-2.57ZM88,93.6h3.27v3.69H88Zm7.48,0h4v3.69h-4Zm8.67,0h4.08v3.69h-4.08Zm8.5,0h4.13v3.69h-4.13Zm8.57,0h4.07v3.69h-4.07Zm8.57.07H134v2.61l-.63,1.09h-3.54ZM152.23,95,192,120.71l0,3.56L150.57,97.49Zm-2.62,3,.35.24-1.69,2.59-.35-.2Zm-61.49.38H132.8l-1.34,2.27-43.34-.07ZM51.43,99.51a4.6,4.6,0,0,1,1.8.75c2.2,1.24,3.58,3.84,2.63,4.78s-2.82-1-4-3.52C51.16,100.17,51,99.53,51.43,99.51Zm79.07,2.22-14.42,23c-3.26-4.47-6.91-8.33-14.89-5.71-4.16-3.22-8.56-3.72-13.24-1L88,101.81Zm-74.22,0,1.13,1a12.78,12.78,0,0,0-.7,2.37,12.78,12.78,0,0,0-.43-3.35Zm91.4.24,44.42,29.23v2.71l-46-29.62Zm-97.29.67a1.94,1.94,0,0,1,1.56.74,2.11,2.11,0,0,1-.55,2.92c-1.87,1.26-4.13-1.18-2.64-2.85A2.25,2.25,0,0,1,50.39,102.65Zm7.36.35,2.42,1.94C56,129,68,153.19,93.9,160.45l.29,3.08c0,.14-11-3.29-15.84-6.9a49.89,49.89,0,0,1-16-18.07,52.58,52.58,0,0,1-5-14.11A59.93,59.93,0,0,1,57.75,103ZM55,106.25c.93,0,1,.71.29,2A9.07,9.07,0,0,1,50.54,112c-1.28.54-1.62.29-1.47-1.08.23-2.06,1.66-3.57,4.14-4.36a6.76,6.76,0,0,1,1.78-.35Zm7.14.26,1,.82a2,2,0,1,0,2.64,2.25c.37.31.71.6,1,.84a3.18,3.18,0,1,1-4.58-3.91Zm1.62,1.6a1.13,1.13,0,0,1,.32,0l.7.6a1.13,1.13,0,1,1-1-.65Zm-7.64.73a84.75,84.75,0,0,0-.08,9.58,8.71,8.71,0,0,0-4.16-5.81,19.22,19.22,0,0,0,4.24-3.77Zm11.67,2.43,2.16,1.86c-1.86,25.42,20.42,35.07,21,34.64l.94,2.88c-15.39-5.24-26-21.14-24.12-39.38ZM191.85,172.2l-.11,3.21c-17.46-6.78-37.35-31.76-37.09-55.7-4.48,6.87-7,11.45-10.85,17.64l-3.06-1.46c5-7.5,9.82-15.52,14.87-22.89.58-.84,1-1.22,1.07.6,0,8.24,2.56,42.13,35.17,58.6ZM49.94,113.26a4.14,4.14,0,0,1,2.37.91c1.6,1.07,3.39,4.38,2.77,5.12s-2.92-.13-4.1-1.37C48.66,115.45,48.5,113.35,49.94,113.26Zm13.61.33a3.18,3.18,0,1,1-3.19,3.18A3.18,3.18,0,0,1,63.55,113.59Zm7.12.3,2.08,2.44c.41,21.33,17.24,27.91,17.09,28l.51,2.29C89.41,146.71,69.51,137.66,70.67,113.89Zm-7.12.85a2,2,0,1,0,2,2A2,2,0,0,0,63.55,114.74Zm0,.89a1.14,1.14,0,1,1-1.14,1.14A1.14,1.14,0,0,1,63.55,115.63Zm10.76,1.93c.25,0,1.45,1.75,1.45,1.75s-1.32.46-1.89-.11S73.61,117.56,74.31,117.56Zm92.19.79,3.12,2.13c1.46,14.4,9.7,27.52,22.13,36.63l-.08,3.57C176.53,150.44,168.12,136.54,166.5,118.35Zm-116.9.25h.16a2,2,0,1,1-2.15,2.26,2.18,2.18,0,0,1,1.52-2.18A2.72,2.72,0,0,1,49.6,118.6Zm26,1.92a2.2,2.2,0,0,1,1.56.87c1.37,1.54,1.36,2-.09,2.58-2,.82-3.72-.32-3-2.07C74.43,121,75,120.52,75.64,120.52Zm-20.79.07a1.35,1.35,0,0,1,.46.07c1.5.59-1.75,6.53-3.89,7.13-1.36.39-1.65-.14-1.2-2.23C50.71,123.24,53.26,120.62,54.85,120.59Zm9.55.14a3.18,3.18,0,1,1-3.19,3.18A3.18,3.18,0,0,1,64.4,120.73Zm0,1.15a2,2,0,1,0,2,2A2,2,0,0,0,64.4,121.88Zm-8,.17a35.27,35.27,0,0,0,2.07,9.3c-1.23-2-3-2.94-4.65-4C55,125.55,56.39,123.8,56.44,122.05Zm8,.72a1.14,1.14,0,1,1-1.14,1.14A1.14,1.14,0,0,1,64.4,122.77Zm18,.35a5.28,5.28,0,0,1,5.52,5.28,73.73,73.73,0,0,1,0,8.77l-2.69-4.93c0-1.4.2-2.46.09-3.85-.31-3.75-4-3.23-4.15-2.85L80,123.65A6.84,6.84,0,0,1,82.41,123.12Zm11.7.38c3.11,0,4.91,1.74,5,4.86.19,6-.13,19.6-.13,19.6H92.25l-3.68-9.1a9.14,9.14,0,0,1-.11-1.51c.23-2.92.08-6.17.18-8.81A5.7,5.7,0,0,1,94.11,123.5Zm-15.57.94a1.48,1.48,0,0,1,1.13.44c1.57,1.57,1.56,2.61,0,3.32-2.1.94-3.18.76-3.9-.64S77,124.46,78.54,124.44Zm98.09.43,1.71,1.1s-.36.56-.55.9c-1,1.66.67,2.64,3,1.76a4.63,4.63,0,0,0,.76-.39l1.41,1s-1,.55-2.13,1.09c-2.84,1.39-4.89.8-5.58-1.61a3.5,3.5,0,0,1,.54-2.86C176,125.47,176.63,124.87,176.63,124.87Zm-72.18.2a5.94,5.94,0,0,1,5.74,4.68c.25,1.28-.07,18.21-.07,18.21H99.79L100,130.2a4.56,4.56,0,0,1,.6-3A5.19,5.19,0,0,1,104.45,125.07Zm-10.73.78c-2.08.09-3.27,3.48-1.12,5.07.9.67.92.79.43,3A12.07,12.07,0,0,0,94.34,142c1,1.63.78.8.27-.66-.64-2.74-.33-4.76,1.26-7.94,1.41-2.68,2.78-6.81-1.72-7.55A1.56,1.56,0,0,0,93.72,125.85Zm85.76.77.93.63-.34.31c-.37.37-1.12.42-1.34.15C178.35,127.25,179.48,126.62,179.48,126.62ZM105,127.93c-2.24-.07-3.72,4.09-.85,5.09.65.42.76,1,.36,1.75a12,12,0,0,0-1,4.57,17.81,17.81,0,0,0,.81,4.11c.75,1.86.6,1.11.4-1a10.55,10.55,0,0,1,1.81-6.43c1.65-2.75,3.94-7.22-1.3-8l-.22,0Zm-38.59,0a3.18,3.18,0,1,1-3.19,3.18A3.18,3.18,0,0,1,66.45,128Zm14.75.32c.55,0,1,.36,1.46,1.1,1.38,2,1.22,2.47-1.43,3.93-2.81,1.55-4.69-2.34-2-4.14a4.69,4.69,0,0,1,1.86-.89Zm-29.14.15c3,0,7.59,4.26,5.34,4.87a3.66,3.66,0,0,1-.9.14C52.78,133.2,48.51,128.38,52.06,128.42Zm14.39.68a2,2,0,1,0,2,2A2,2,0,0,0,66.45,129.1Zm117.26.6,1.48,1s-.9.41-2,1c-2.88,1.54-3.72,2.68-2.72,3.68a1.25,1.25,0,0,0,1.53.23,43.3,43.3,0,0,0,5.74-3.22l1.11.76s-4.42,3.12-6.81,4.45c-3.77,1.94-5.92-2-3.82-4.65C179.86,131.32,181.59,130.8,183.71,129.7ZM66.45,130a1.14,1.14,0,1,1-1.14,1.14A1.14,1.14,0,0,1,66.45,130ZM186,131.05l.81.54-2.55,1.46c-2.69,1.54-2.8,1.57-2.95,1.33-.13-.08,0-.71.87-1.26A38.18,38.18,0,0,1,186,131.05Zm-69.8.08a5.29,5.29,0,0,1,4.76,2.69,10.91,10.91,0,0,1,.58,4.2l0,9.94H111.11a94.64,94.64,0,0,1,0-12.41A5.18,5.18,0,0,1,116.22,131.13ZM83.9,132.6c.67,0,1.15.6,1.78,2s.15,2.18-1.8,3a2.14,2.14,0,0,1-.63.18A2.22,2.22,0,0,1,81.89,134C82.77,133.1,83.39,132.64,83.9,132.6Zm105.77,1,.9.56s-.46.42-3.82,2.87c-2.71,2-3.1,2.52-2.54,3.63.46.9,1.45.78,2.82-.27,1.91-1.47,4.9-3.94,4.9-3.94l.1,1.69c-2,1.58-4.35,4.29-6.24,5.31-3.65,1.8-6.27-3.14-2.94-5.57A77.69,77.69,0,0,1,189.67,133.62Zm-73,0c-2.72,0-3.73,4-.81,4.87.85.46.77.69.21,2.7a8.92,8.92,0,0,0-.26,3.67c.22,1.22.49,1.19.38-.12a10.72,10.72,0,0,1,1.47-3.81c2.71-3.78,2-7.27-1-7.31Zm-63.38,0c1.8,0,2.8,2.51,1.25,3.59-1.11.77-3.41-.17-3.41-1.37a2.3,2.3,0,0,1,1.8-2.18,1.47,1.47,0,0,1,.36,0Zm5.17.21c.56,0,.89.83.88,2.47A7.16,7.16,0,0,1,57,141.94c-2.08,1.73-2.54-3-.6-6.11C57.22,134.53,57.91,133.88,58.41,133.88Zm133.17.62c.51,0,.43.39-.16.8s-1.25,1-3.67,3c-.44.37-1.07.85-1.4,1.07-.81.55-1.49.4-1.1-.22A38.3,38.3,0,0,1,191.58,134.5Zm-122,.11a3.18,3.18,0,1,1-3.19,3.18A3.18,3.18,0,0,1,69.63,134.61Zm0,1.16a2,2,0,1,0,2,2A2,2,0,0,0,69.63,135.77Zm-38.07,0c21.53,10.89,35,31.26,38.26,54.46l10.46-16.6,2.83,1.07L67.86,199.59l-.66-.2c-.06-24.27-12.15-47.23-35.69-59.83Zm38.07.84a1.13,1.13,0,1,1-1.14,1.13A1.13,1.13,0,0,1,69.63,136.66Zm-8.89.13a39.29,39.29,0,0,0,3.86,6.76c-1.8-1.69-3.76-1.61-5.7-1.87Zm25.6.45a1.05,1.05,0,0,1,.93.48c.88,1.21,1,2.33.43,2.94a1.73,1.73,0,0,1-2.78-.68A2,2,0,0,1,86.34,137.24Zm105.59,1.68,0,1.88a10.18,10.18,0,0,1-.82.88,17.79,17.79,0,0,0-3,3.37c-.38,1.49,1.09,2,2.53.94l1.22-1v2.32c-1.22,1-2.44,2.06-4.1,1.72a2.78,2.78,0,0,1-2-2c-.7-2.92,2.13-4.55,4.32-6.51C190.86,139.91,191.93,138.92,191.93,138.92ZM74.11,140.56h.16a3.1,3.1,0,1,1-.16,0Zm63.92.72a2.1,2.1,0,0,1,1.26,3.65,2.27,2.27,0,0,1-2.49.4C134.87,144,136.29,141.37,138,141.28Zm-3.46,1.85c1,1.07,1.77,4.16,1.18,4.74-1.31,1.35-5.12-3.14-4.89-6.07C131.27,140,134.2,142.74,134.57,143.13Zm-46.52-1.69a.73.73,0,0,1,.7,1c-.16.37-.73.4-1.18.22C86.8,142.38,87.16,141.44,88.05,141.44Zm-13.78.28a2,2,0,1,0,2,2A2,2,0,0,0,74.27,141.72Zm-15.15.89c3.84,0,7.89,3,4.36,3.63a6.63,6.63,0,0,1-6.34-1.94c-1-.94-.67-1.44,1.21-1.65a6.62,6.62,0,0,1,.77,0Zm15.15,0a1.14,1.14,0,1,1-1.13,1.13A1.14,1.14,0,0,1,74.27,142.61Zm5.32,2.88a.86.86,0,0,1,.16,0,3.1,3.1,0,1,1-.16,0Zm62.56.16a3.1,3.1,0,0,1,2.16.58c.57.51-.28,1.5-2,2.34-2,1-5.53.85-5.53-.21C136.78,147,139.83,145.69,142.15,145.65Zm-76.64.84c1.76,0,2.24,5.48.71,8.1-.8,1.36-1.87.45-2.63-2.24C63,150.15,64.16,146.48,65.51,146.49Zm14.24.15a2,2,0,1,0,2,2A2,2,0,0,0,79.75,146.64Zm66,.36a1.56,1.56,0,0,1,.59.2c1.92,1,3.33,5.36,2.32,7.33s-3.43-1.92-3.41-5.73c0-1.25.09-1.75.43-1.8Zm-85.21.28h.12c1.74.05,3,2.45,1.37,3.69a2.35,2.35,0,0,1-2.5.2,2.13,2.13,0,0,1,.12-3.64A2,2,0,0,1,60.51,147.28Zm19.24.25a1.14,1.14,0,1,1-1.13,1.14A1.14,1.14,0,0,1,79.75,147.53Zm-11.89.38a41.57,41.57,0,0,0,5.35,5.49,11.64,11.64,0,0,0-5.22-.08A13.51,13.51,0,0,0,67.86,147.91Zm62.06.33c26.18,6.12,42.16,33.9,35.84,60a11.6,11.6,0,0,1-2.55-1.82,55.36,55.36,0,0,0,.34-18.83c-2-12.18-11.84-30.06-33.48-36.19A15.56,15.56,0,0,1,129.92,148.24Zm14.11.19a51.63,51.63,0,0,0,1,5.18,32.68,32.68,0,0,0-6.07-3.39A15.19,15.19,0,0,0,144,148.43Zm7.55.57a2,2,0,0,1,2.07,2,2.78,2.78,0,0,1-1.08,1.82,2,2,0,0,1-2.76-2.61A1.94,1.94,0,0,1,151.58,149Zm-65.77.69a3.18,3.18,0,1,1-3.19,3.18A3.18,3.18,0,0,1,85.81,149.69Zm0,1.15a2,2,0,1,0,2,2A2,2,0,0,0,85.81,150.84Zm-54.17.31c13,7.67,24.67,24,25.54,42.46L54,191.55c-1.36-12.43-7.72-26-22.49-37.05C31.54,154.5,31.57,153.3,31.64,151.15Zm72,0h16.81v3.62l5-2.6v8l-5-3.05v3.49H103.67V157l-5.15,2.48.06-8,5.09,2.86Zm-17.86.58a1.14,1.14,0,1,1-1.14,1.14A1.14,1.14,0,0,1,85.81,151.73Zm6.61.64h.06l.2,1.15h-.1a2,2,0,0,0,0,4,2,2,0,0,0,.77-.15l.19,1.16a3.33,3.33,0,0,1-1,.15,3.18,3.18,0,0,1-.16-6.36Zm38,.4h.16a3.17,3.17,0,0,1,.72,6.27l-.19-1.14a2,2,0,0,0-.53-4h-.13l-.2-1.15Zm22.32,1.07c3.93,0,5.55,2.28,2.34,3.24a8.06,8.06,0,0,1-5.37-.65C148.08,155.72,150.29,153.83,152.72,153.84Zm-82.06.22a6.21,6.21,0,0,1,2.55.46c1.64.78,1.6,1.31-.16,2.32-2.44,1.41-8.21,0-6.47-1.6A6.62,6.62,0,0,1,70.66,154.06Zm21.92.35a1.09,1.09,0,0,1,.26,0l.35,2.06a1.12,1.12,0,0,1-.61.18,1.14,1.14,0,0,1,0-2.27Zm38,.4A1.14,1.14,0,0,1,131.7,156a1.12,1.12,0,0,1-.76,1.06Zm6.93.81a3.19,3.19,0,1,1-3.19,3.18A3.19,3.19,0,0,1,137.5,155.62Zm-62,.81a.91.91,0,0,1,.63.26A7.42,7.42,0,0,1,78.26,164c-.71,2.34-3.69-1.82-3.67-5.14C74.6,157.34,75,156.46,75.52,156.43Zm82.43.28c.26,0,.54.2.81.66,1.19,2,1.13,6-.09,7.31-.7.72-1,.59-1.69-.88C155.74,161.29,156.68,156.7,158,156.71Zm-20.45.07a2,2,0,1,0,2,2A2,2,0,0,0,137.5,156.78Zm-59.45.54a60.81,60.81,0,0,0,7.42,4.06c-2.39-.57-4.16.23-6,1.32A7.31,7.31,0,0,0,78.05,157.32Zm72.23.43a16.48,16.48,0,0,0,5.64.16,17.66,17.66,0,0,0-.35,5.39,34.18,34.18,0,0,0-5.29-5.55Zm-12.78-.08a1.14,1.14,0,1,1-1.14,1.13A1.14,1.14,0,0,1,137.5,157.67Zm-65.64.78a2.76,2.76,0,0,1,1.12.3,1.9,1.9,0,0,1,.08,3.44c-1.8,1.18-4.15-.88-3-2.65a2.09,2.09,0,0,1,1.67-1.08Zm72,1.33A3.18,3.18,0,1,1,140.7,163,3.18,3.18,0,0,1,143.88,159.78Zm18.62.53a2.11,2.11,0,0,1,.95.23,1.86,1.86,0,0,1,.47,3,1.84,1.84,0,0,1-3-.37A1.9,1.9,0,0,1,162.5,160.31Zm-30.7.47c15.67,5.34,26.16,22.77,23.63,39.55l-2-1.85c1.49-9.51-3.74-27.68-21.19-35.14Zm12.08.16a2,2,0,1,0,2,2A2,2,0,0,0,143.88,160.94Zm0,.89a1.13,1.13,0,1,1-1.13,1.13A1.13,1.13,0,0,1,143.88,161.83Zm-59.57.2c.8.07,2.14-.08,2.46.68.36.95-1.6,2.6-4.08,2.92-1,.06-3.17.32-3.63-.41C78.64,164.31,81.55,162.05,84.31,162Zm-49.75.55c2.12-.09,4.51,2.74,2.36,5.06a44.65,44.65,0,0,1-5.22,4.19v-1.55s3.44-2.52,3.49-3.65a1.39,1.39,0,0,0-2.28-1.27c-.24.16-1.18.93-1.18.93l.07-2.61a4.17,4.17,0,0,1,2.76-1.1Zm54.11.67c1.57.06,5.21,5.67,4.29,6.82-.74.91-3.7-1.11-4.81-3.28-.59-1.16-.41-3.24.31-3.51A.71.71,0,0,1,88.67,163.25Zm24.22.68s.16,13.06-.57,14.29c-2.95,5.33-9.3,2.56-9.84-1.44-.39-2.4-.16-12.83-.16-12.83Zm.93,0H124s0,18.38-.45,19.44a6.88,6.88,0,0,1-2.74,2.74c-3,1.3-6.17-.54-7-4-.57-2.52,0-18.15,0-18.15Zm11,0h6.74s.23,1,.5,1.77c.47,1.4,2.05,5.41,2.24,5.65.82,1.1.86,13.12,0,14.49-3,4.45-7.92,3.16-9.73-1.78C124.17,182.48,124.82,163.93,124.82,163.93Zm7.86.45c12.09,5.74,21.33,17.92,20.18,33.54l-2.22-2.22c.81-10.78-7.4-24.26-17-28.26Zm16.64.37a3.18,3.18,0,1,1-3.18,3.18A3.18,3.18,0,0,1,149.32,164.75Zm11.92.32a6.19,6.19,0,0,1,3.71,1.32c1.29,1.06,1.47,1.9.47,2.21a5.94,5.94,0,0,1-5.72-1.41C158.35,165.85,159.52,165.05,161.24,165.07Zm-11.92.83a2,2,0,1,0,2,2A2,2,0,0,0,149.32,165.9Zm-63.68.26c1.7,0,2.47,2.39,1.17,3.6a2.68,2.68,0,0,1-2.62.19C82.45,168.82,83.47,166.15,85.64,166.16Zm22.41.6a26.75,26.75,0,0,1-2.21,4.68c-2,3.34-1.74,5.58.37,6.71,3.11,1.66,5.36-2.8,2.3-4.54-1.07-.62-1.07-.62-.68-2.28C108.31,169.27,108.4,166.81,108.05,166.76Zm41.27,0a1.14,1.14,0,1,1,0,2.27,1.14,1.14,0,0,1,0-2.27Zm-30.39.66c-.14,0,0,.82,0,2.29,0,2.38-.22,3.1-1.74,6.29-1.94,4.07-1.68,6.86.73,7.76,1.87.7,3.68-.73,3.69-2.91a2,2,0,0,0-1.16-2.07c-.65,0-1.36-.34-1.31-.65C119.49,175.73,121.6,171.15,118.93,167.45Zm40.15.33a10.87,10.87,0,0,0,5.53,2,16.92,16.92,0,0,0-1.06,6,38.12,38.12,0,0,0-4.47-8.08Zm-119.87.37.38,0A3.17,3.17,0,0,1,42,171.76c-.36,1.25-.47,1.46-5.3,4.69a26.17,26.17,0,0,1-3,1.87l-1.44-1,3.14-2.11c3.71-2.49,4.26-3.08,3.88-4.2s-1.81-.95-4,.74c-3.24,2.5-3.58,2.66-3.58,2.66V173s1.42-1.13,2-1.66C35.24,170.22,37.32,168.17,39.21,168.15Zm96,.65a.51.51,0,0,1,.52.66.55.55,0,0,1-.56.25.46.46,0,0,1,0-.91Zm32.59,1.73c.69,2.36-.79,6.28-1.69,6.78-1,1-1.56.05-1.77-2.42C164.39,172.89,166.68,166.65,167.85,170.53Zm-38.64-1.32c.29,3.39.4,6.21-1.19,9-2.06,3.57-1.53,6.63.68,7.31a2.75,2.75,0,0,0,3.75-3,3.12,3.12,0,0,0-1.57-1.86c-.67-.17-.75-.59-.37-1.94a12.51,12.51,0,0,0-.63-8.28c-.1-.36-.51-1.16-.67-1.15Zm7.39,1.13a2.14,2.14,0,0,1,1.34,3.7c-.77.71-1.26.38-2.07-1.35S135.35,170.34,136.6,170.34Zm17.26.5a3.18,3.18,0,1,1-3.18,3.18A3.18,3.18,0,0,1,153.86,170.84Zm0,1.15a2,2,0,1,0,2,2A2,2,0,0,0,153.86,172Zm0,.89a1.14,1.14,0,1,1-1.13,1.14A1.14,1.14,0,0,1,153.86,172.88Zm-13.65.84a1.45,1.45,0,0,1,.74.15c1.68.81,1.5,3.13-.35,4.51-1.17.88-1.67.58-2.76-1.69C137.25,175.46,138.8,173.78,140.21,173.72ZM43,174a1.85,1.85,0,0,1,.48.08,3.48,3.48,0,0,1,2.39,4c-1,2.36-4.18,3.16-6.63,4.15L38,181.3s1.8-1,3.54-1.83,1.9-1.05,1.78-2c-.24-1.85-1.14-1.78-5.2.41-1.65.89-2.86,1.67-2.86,1.67l-.9-.74c1.34-.88,2.15-1.37,3.62-2.37,2.45-1.68,3.85-2.4,4.87-2.45Zm129.13,1.38c.59,1.79-.62,3.37-2.43,2.66a2,2,0,0,1-1.08-2.81C169.45,173.93,171.74,174.15,172.14,175.36Zm-36.44-.63,2.86,5.14s0,1.43.06,2.23c.11,3.33.82,4.44,2.78,4.11.14,0,.84-.22.84-.22l1.24,2.09s-1.35.59-1.69.66c-2.31.48-5.49-1.24-6-3.55s-.1-10.46-.1-10.46ZM42,176.84c.86.07.5.73.1.94-1.68.86-3.27,1.79-5,2.8l-1.18-.73s.91-.5,1.53-.89A15.4,15.4,0,0,1,42,176.84Zm115,.66a3.19,3.19,0,1,1-3.18,3.18A3.18,3.18,0,0,1,157,177.5Zm-13.47.44a1.87,1.87,0,0,1,1.74.95c.85,1.41-.05,3.14-2.11,4.06-1.15.51-1.34.4-2.57-1.42-.83-1.23-.83-1.45.09-2.23a4.87,4.87,0,0,1,2.85-1.36Zm-111.72.28,45.59,29.52L76.05,210,31.84,181Zm135.46.38c2.77.05,6.39,3.26,5.11,4.53a.92.92,0,0,1-.59.22C167.79,183.12,163.42,178.53,167.22,178.6Zm-10.27.06a2,2,0,1,0,2,2A2,2,0,0,0,157,178.66Zm-60.89.56,1.21,3.14L74.58,218.48l-2.23-1.43Zm60.89.33a1.14,1.14,0,1,1-1.13,1.13A1.13,1.13,0,0,1,157,179.55Zm8.33.37a9.62,9.62,0,0,0,5.07,4.22,7.38,7.38,0,0,0-2.91,6A55.28,55.28,0,0,0,165.28,179.92ZM45.33,181a2.26,2.26,0,0,1,1.27.35c4.25,2.91.35,5.79,0,5.57L45.14,186c.5-.82,1.63-1.94-.19-3-1-.45-2.18.1-3.18.79l-1.52-1s3-1.77,5.08-1.76Zm100.28,1.65a2.42,2.42,0,0,1,.47,0c2.4.46,2.23,3-.28,4.19-1.42.67-1.67.53-2.92-1.61C142.3,184.28,144.06,182.71,145.61,182.66Zm-101.05.94a.69.69,0,0,1,.62.44c.13.67-1.11,1.34-1.11,1.34l-1.42-.95A5,5,0,0,1,44.56,183.6Zm127.88.61a.63.63,0,0,1,.7.55c.49,2-1.71,5.65-3.74,6.25-1.18.34-1.53-.21-1.14-1.85.55-2.31,2.94-4.85,4.18-4.95Zm-73.54.15,3.69,2.68-22.15,35-3.84-2.28Zm60.28.28a3.19,3.19,0,1,1-3.18,3.18A3.18,3.18,0,0,1,159.18,184.64Zm0,1.16a2,2,0,1,0,2,2A2,2,0,0,0,159.18,185.8Zm0,.89a1.14,1.14,0,1,1-1.13,1.13A1.13,1.13,0,0,1,159.18,186.69Zm-50.9.11c2.4,2.72,5.1,8.78,14.53,5.92,3.21,2.61,7.65,4.1,13.12,1.2l0,16.33-41.87.05Zm-76.47.42L73,214.36l-1.29,2.27-40-25.55Zm115.75,0h.1c2.11.52,2.35,2.63.39,3.43-1.05.43-1.26.33-2.26-1.15-.4-.58-.63-1.07-.57-1.22a4.36,4.36,0,0,1,2.34-1.07ZM174,189.47a2.1,2.1,0,0,1,1,3.93,2.06,2.06,0,0,1-2.81-2.79,2,2,0,0,1,1.85-1.14Zm-25.82,2.22c1,0,1.79.93,1.32,1.5-.32.37-.72.26-1.24-.33s-.64-1.17-.08-1.17Zm11.82.41a3.18,3.18,0,1,1-3.18,3.17A3.17,3.17,0,0,1,160,192.1Zm9,.17c2.4,0,5.72,4,5.16,6.22-.19.72-1.53.33-3.13-.9C168.86,195.93,167.46,192.26,169,192.27Zm-9,1a2,2,0,1,0,2,2A2,2,0,0,0,160,193.25Zm7.71.41c.67,1.94,1.34,4,4.34,5.37-4.65,2.16-5.53,5.8-4.84,10.47l-1.08-.66a56.64,56.64,0,0,0,1.58-15.18Zm-7.71.48a1.14,1.14,0,1,1-1.13,1.13A1.14,1.14,0,0,1,160,194.14Zm-.59,5.11a3.18,3.18,0,0,1,1.75,5.84l-1-.77a2,2,0,1,0-2.74-2l-1-.77A3.2,3.2,0,0,1,159.43,199.25Zm14.48.41c1.52,0-.84,4.21-3,5.35-1.65.87-3.15.94-3.15.14C167.77,203.06,171.6,199.64,173.91,199.66Zm-14.48,1.63a1.14,1.14,0,0,1,0,2.27,1.22,1.22,0,0,1-1.14-1.13A1.14,1.14,0,0,1,159.43,201.29Zm14,3.83a2,2,0,0,1,1.8,1,1.79,1.79,0,0,1-.49,2.28c-1.83,1.81-4.32-.05-3.12-2.34a2,2,0,0,1,1.81-.91Zm-5.85,1.71c2.55.08,4.48,3.25,4,5-.4.47-3.21-1.66-3.52-1.88A9.14,9.14,0,0,1,167.57,206.83Zm-3.48,2,8,4.8-8,5.12Zm-71.15,2.37,42.92.16v1.8l-44.1,0,1.17-2ZM91.19,214h2.89v3.52h-4v-1.94Zm41.25.09h3.47v3.51h-3.47Zm-34.07,0h3.95v3.52H98.37Zm8.22,0h4.26v3.52h-4.26Zm8.73,0h4.11v3.52h-4.11Zm8.77.06H128v3.52h-3.91Zm-35.74,4.33,47.61.12v2.1l-49-.11ZM129,223c4.85-.05,7.67,5.36,3.89,9.16-3.49,3.49-9.3-1-6.4-4.9,1.62-2.19,5.6-.42,4.61,1.91-.65,1.54-2.8.83-2.73-.84,0-.67-.49-.21-.55.5a2,2,0,0,0,1.93,1.9c2.81,0,3.24-3.72.52-5.09-2.42-1.22-5,.34-5.56,3.43a10.37,10.37,0,0,1-.76,1.78,17.61,17.61,0,0,0-1.64,4.89,4.7,4.7,0,0,1-1.27.89c-1.38.69-1.32.4-.81-1.85,1.49-6.48,3.93-10.65,6.9-11.49A7.1,7.1,0,0,1,129,223Zm14.34.34a5.91,5.91,0,0,1,5.64,4.31c1.71,5.79-6,9.34-8.66,4.09-1.5-3,1.61-6.58,4.45-5.19,2.33,1.15,2.18,4.7-.2,4.68-1.29.06-2.08-1.1-1.37-2,.37-.36.82-.08,1-.69.08-.26-.29-.46-1.17-.28-1.46.29-1.31,3.23.38,3.82,2.53.87,4.68-1.79,3.48-4.42-1.44-3.16-5.35-3.17-7.13.14-.26.48-.67,1.16-.89,1.47-2.67,3.61-2.88,4.15-3.67,6.17a.43.43,0,0,1-.46.32,5.67,5.67,0,0,0-2,.35c-.33-.08.11-1.35.14-1.45C134.72,229,139.38,223.44,143.31,223.3Zm-23.19,1.57a39.77,39.77,0,0,0-3.85,10,12.42,12.42,0,0,0-2-.84c-.25-.09,0-.39-.06-.84a24.62,24.62,0,0,1,3.71-8.67c.37-.26,2.68-.34,2.16.38Zm2.71,1.06c-1.62,2.08-3.32,7.59-3.68,10.44a10.4,10.4,0,0,1-.17,1c-.26.85-1.85-1-1.84-2.1,0-1.93,2.14-7.78,3.66-10,.53-.78.59-.91,1.73-.95,1.82-.05,1,.66.3,1.57Zm-79.49-1.37a5.33,5.33,0,0,0-1.19.16c-2.36.58-5.16,3.08-5.44,5.72a6.72,6.72,0,0,0-.24,2.88c.78,3.55,2.85,6,5.39,9.48A64.77,64.77,0,0,1,36.48,250l5.18,7.48c-1.43,2.83-3.92,5-4.54,8.45-1,4.59,1.42,9.07,6.54,9.48,3.82.11,6.32-2.46,6.79-6.37.19-2.6-.87-5.86-4.72-11-.19-.25-.56-.78-.56-.78s.43-.5.66-.84c1.35-1.83,4.88-6.3,4.88-6.3l-5.27-7.45a7.27,7.27,0,0,1,.63-1.06c4.3-5.86,5.1-8.84,4.34-11.75a6.73,6.73,0,0,0-2-3,7,7,0,0,0-5.09-2.31Zm-.12.72A6.54,6.54,0,0,1,48,227.4c3.22,3.38,2.94,6.24-1.26,12.49-.92,1.37-1.82,2.88-1.82,2.88l5.3,7.31a28.4,28.4,0,0,1-1.76,2.34,55.41,55.41,0,0,0-3.77,4.89c.92,1.41,2.41,2.91,3.34,4.6a14.29,14.29,0,0,1,2,5.58c.42,3.68-2,7.61-6.06,7.7a7,7,0,0,1-6.91-7.44,11.27,11.27,0,0,1,1.73-5.23c.95-1.7,3.19-5,3.19-5l-5.13-7.47,5.43-7.25s-3.95-4.83-5.16-8.32a7.4,7.4,0,0,1,1.1-6.55,6.16,6.16,0,0,1,4.95-2.65Zm114.26.41c3.05,3.48,4.7,8.45,5.41,12.72.28,1.75.33,4.74.08,5.07a.83.83,0,0,1-1.49-.47c.55-6-5.94-10.33-11.55-7.72-4.33,2-6.64,6.69-5.56,12.51,2,11,11.25,19,17.48,30a24.87,24.87,0,0,1,2.71,5.76,36.73,36.73,0,0,1,2.67-5.28c4.44-8.15,10.47-13.41,15-21.57a27.63,27.63,0,0,0,3.67-11c0-8-7.73-14-13.8-9.78a10.56,10.56,0,0,0-4.76,6.68c-.13,1-.31,1.31-.76,1.3-1,0-1-.4-.22-5.12,1.27-4.69,2.78-9.14,5.53-13.09ZM39.86,235.78a14.5,14.5,0,0,0,3.52,5,22.61,22.61,0,0,0,3.67-5.62C51,225.7,35.7,224.93,39.86,235.78Zm3.46,4.1c-1.94-2.26-3.31-4.14-3.45-7.12-.21-5.91,7.51-5.25,7.13,0C46.57,235.67,45.06,237.49,43.32,239.88ZM139,230.6c.15.83,1,2.24.89,2.57-.37.87-.92,1.31-1.69,2.74-.16.31-.08.37-.51.3a14.81,14.81,0,0,1-1.49-.39c-.21-.06-.46-.18-.36-.46.74-1.68,1.56-3.69,3.16-4.76Zm-12.8,2.54-.91,2.36c-.09.25-.09.29-.36.24a6.77,6.77,0,0,0-1.49-.07c-1.13-.14,1-4.35,1.32-5,.46.08,1.14,1.88,1.44,2.46Zm.85.54h.06a7,7,0,0,1,1.67.54c.28.11.29.12.16.47-.26.52-.58,2-.92,2.54,0,.07-1.61-.95-2.06-1.15C126,235.8,126.5,233.76,127.09,233.68Zm13.54.28a3.37,3.37,0,0,1,1.53.77c.17.34,0,.67-.57,1.68s-1.06,1.86-1.19,1.76a7.13,7.13,0,0,1-1.49-1.21c-.27-.37.24-1.32.59-1.84C140.05,234.31,140.32,234,140.63,234Zm-8.61-.12c.49.11-.29,2.62-.43,2.94a7.66,7.66,0,0,1-1.75,2c-.29.19-1.19-.35-1.17-1a19.79,19.79,0,0,1,1.15-3.3,7.89,7.89,0,0,1,2.2-.63Zm-19.91,1h.33a5.71,5.71,0,0,1,5.13,3c.59,1,.59,1,.46,2a8.84,8.84,0,0,0,.37,5c.66,1.53.56,2-1.05,5.46s-3.58,7.61-5.07,11.48a41.37,41.37,0,0,0-1.65,5.07c-.25,1-1.43.68-2.61.63-.59.13.87-3.89,3-8.7,1.73-3.85,4.09-8.19,5-12.5.77-3.51.52-5,.1-6.43-1.62-4.29-7.27-3.24-7.25.71.12,2.57,3.08,3.94,4.17,1.43.18-1.16-.39-.49-.87.07-1,1.21-2.77-.13-2.5-1.9a2.73,2.73,0,0,1,4.83-1.25c1.59,2,1.24,4.09-1.06,5.65a3.72,3.72,0,0,1-5.71-1.05,5.75,5.75,0,0,1,4.32-8.67Zm11.71,1.7c2.35.05,4.91,2,5.32,3.58.22,1.06-.12,2.31.26,3.33.31.82.62,1.29.39,2-1.94,6.22-6.5,12.86-8.76,20.23-.26.52-.5.58-1.08.75-.9.25-1.25.23-1.35-.24a8.56,8.56,0,0,1,.74-2.9,55.63,55.63,0,0,1,2.85-6.72c1.9-3.59,3-6,4.35-9.1.26-.57.33-.91.74-1.74,1.75-3.54-.23-7-3.84-7.05-2.87,0-4.15,4.47-1.64,5.79s4.28-2.09,2.1-3.29c-.52-.28-.66,0-.24.5,1,1.17.1,2.74-1.25,2.11-2.09-1-1-4.53,1.43-4.33,3.77.32,4.26,5.81.41,7.2-5.28,1.91-8.06-6.61-3.08-9.47a5.1,5.1,0,0,1,2.65-.67Zm11.14.18a5.62,5.62,0,0,1,4.06,1.61c2.95,2.84,2.17,7.22-2.83,15.7a56.6,56.6,0,0,0-4.1,8.74,1.84,1.84,0,0,1-.89,1.21c-.87.48-1.85.54-2,.2-.32-.86,2.15-6.22,6.56-14.63,1.16-2.24,2.62-4.84,2.55-7.51a3.34,3.34,0,0,0-4.41-2.95,2.4,2.4,0,0,0-1.07,3.84,2.18,2.18,0,0,0,1.48.68c.73,0,1.56-.7.14-.78a1.47,1.47,0,0,1-.74-2.74c1.82-1.22,3.9.22,3.76,2.59-.31,4.77-7.28,4.06-7.46-.85a4.89,4.89,0,0,1,4.93-5.11Zm69.1,2.06a8.53,8.53,0,0,1,3.26,5.59c.09.66.18,1.33-.11,1.48s-.59-.09-1.31-1c-1.68-2.21-5-1.27-6.11,1.77s0,6.13,4.49,12.59c1.6,2.39,3,4.37,4.33,6.71a42.05,42.05,0,0,1,3.89-6.9c5.08-7.71,6-11.71,3.25-14.29-1.78-1.62-4.59-1.67-5.55.4-.64.85-1,1.26-1.3.75a3.19,3.19,0,0,1,0-1.41,9.28,9.28,0,0,1,3-5.65Zm-88.79,5.58c1-.08-.76,5.59-3.93,12a117.12,117.12,0,0,0-4.38,11c-.36.5-2.55.59-2.54.08,3.87-12.41,6.61-14.55,7.93-19.28.23-.81.4-2,.43-2.09C113.76,245.7,114.58,244.53,115.27,244.32Zm-71.69.83-4.1,5.35,4,5.69,4.16-5.44Zm88.85,1.66a28.33,28.33,0,0,1-2.16,5.58c-4,8.11-5,10.3-5.71,12.46a1.06,1.06,0,0,1-.58.74c-.5.19-1.89.46-2,.26.85-4.74,7.36-15.52,8.62-20.25.5,0,1.79.75,1.84,1.21Zm3.21-.5c.27,0,.38.1.31.46a31.86,31.86,0,0,1-2,4.37c-3.39,6.65-5.16,10.6-5.73,12.62-.13.48-.21.85-.44,1-.47.25-2.09.9-2.17.2.51-3,2.49-5,7.61-17.51.24-.41.45-.61.68-.65.63-.11,1.17-.4,1.79-.46Zm-13.89,2.06c-.12.78-1,2.4-2.48,5.4a77.15,77.15,0,0,0-5,12,2.86,2.86,0,0,1-.57,1.24,6.45,6.45,0,0,1-2.18.19c-.27-1.36,1.88-6.44,4.27-11.79,1.3-2.9,2.81-5.8,3.82-8.41C120.32,247.1,121.66,247.76,121.75,248.37Zm3.63-1.28c.72,0,.16,1.21-1.58,4.64a75.34,75.34,0,0,0-5.1,11.16c-.38,1-.82,2.22-1,2.73s-.42,1-.69,1.13a2.6,2.6,0,0,1-2,0c-.35-.44,1.52-5.48,3.35-9.35,1.61-3.26,2.74-5.88,4.13-8.89.38-.59.4-.63.79-.71a12.73,12.73,0,0,0,2.09-.69Zm-81.73.65,2.11,2.82-2.48,3.09-2.06-3Zm-.32,12.19a17.3,17.3,0,0,0-1.82,2.67c-2.7,4.49-2.77,7.81.41,9.78a3.9,3.9,0,0,0,4.2-.43c3.61-3.15.93-7.47-1.4-10.4A14.66,14.66,0,0,0,43.33,259.93Zm.13,1.15a18.9,18.9,0,0,1,3.25,4.79c1,2.7.37,4.81-1.64,5.81-3.17,1.57-6-2-4.55-5.73A19,19,0,0,1,43.46,261.08Zm88.75,5.32C132.5,267,102,274,79.57,268L65.9,287.75l78.94-.14Zm-1.16,1.4L142,286.72h-5.06l-7.21-15.44a81.27,81.27,0,0,1-11.53,2.34l2.57,13.1H117l-2.14-12.52a160.29,160.29,0,0,1-16.91.43l-2.48,12.09h-4l2.55-12c-4.37-.59-8.71-1.14-13.15-1.87l-7.44,13.88H67.84L79.51,269.3c17.42,3.49,33.49,2.67,51.54-1.5Zm78.85,2.91c-3.45,0-7.09,1.86-8.12,5.84-.37,1.26-.37,1.27-.38,12.51,0,9.3-.09,11.54-.09,11.54h-3.18v3.72h10.35V300.6h-3.43S205,289,205,281.74a10.46,10.46,0,0,1,.53-4.71c1.83-4.22,8.27-3.29,9.05.3a17.25,17.25,0,0,1,.24,4.56h3.58a31.77,31.77,0,0,0-.25-5.15c-.48-4.24-4.13-6.13-7.92-6Zm-81.61,3.91,5.72,12.1H123.18l-2-10.8Zm-46.39.88,9.47,1.23-2.44,10H76.13ZM112.83,277l1.3,9.73H97.8l1.82-9.54Z" transform="translate(-5.81 -8.49)"/>
  </g>
</svg>
