<svg xmlns="http://www.w3.org/2000/svg" viewBox="0 0 212.6 289.82">
  <defs>
    <style>
      .a {
        fill: #131f67;
      }

      .b {
        fill: #e2cf00;
      }

      .c {
        fill: #d40000;
      }
    </style>
  </defs>
  <title>KS</title>
  <g>
    <path class="a" d="M30.16,26.28H193.69l.3,261.37-164-.44s0-170.55.14-260.93ZM146.31,285.77c-6.08-11-15.71-28.88-16-29-3.56,1.89-39.85,6.72-57.31,2-6,8.93-11.83,17.76-17,26.61ZM90.58,252.91c-.91,0-1.93.57-1.74.09.11-.28.37-3.1.48-4.1.27-.45.66.72.61,1.81,0,.63.28.18,2.35.29a28.87,28.87,0,0,1,4.82.7c2.65.57,7.76.16,10-1.43,1.19-.86,1.64.07.41,1-5.52,4.16-9.9,2.58-14.7,1.88a13.1,13.1,0,0,0-2.18-.23ZM92.93,249a.86.86,0,0,0-1,0c-1.69.78-1.25-.34,0-1.48.56-.52.54-.78.12-1.33-.21-.27-.57-.31-.49-.72.37-1.79,2.89-4.48,5.7-5.69,1.17-.5,1.36.05-.12.91-2.28,1.33-3,2.47-1.73,2,2.5-.9,4.78-.27,8,1.32a3.25,3.25,0,0,0,2.11.46c.58-.48,1.09.09,1.45.39s.27.26.52.2c1.82-.42.73.73-1.76,2.53C101.21,250.65,96.36,252.13,92.93,249Zm6.85.77a16.1,16.1,0,0,0,5.4-2.87c1.65-1.44.72-1.22-1.18-.31a15.05,15.05,0,0,1-7.77,1.62c-2.59-.06-2.51-.16-2.61.16C93.29,249.45,96.86,250.6,99.78,249.73Zm-5-4.4a2.35,2.35,0,0,0,.12-1.34c-.24-.38-.75-.1-1.41.72-.4.51-.35.58,0,1L94,246c.56.23.65-.28.77-.67Zm1.13.67c.79-2.7,2.58-2.64,3.85-.07h.9c-1.85-5-5.42-2.48-5.54,0a1.5,1.5,0,0,0,.79,0Zm6.66-.46c.84-.46.72-.78-.36-1.33-.76-.39-1.16-.47-1.3-.22a3.36,3.36,0,0,0,.36,1.79C101.58,246,102.05,245.79,102.55,245.54Zm-11.8-7.67c-.16-.25-.13-.71.46-1,3.61-1.66,1-5.17-1.81-2.54a3.33,3.33,0,0,1-3.22.63c-1-.42-1-1.58.3-1.82a6.92,6.92,0,0,0,1.88-.58c4.85-2.58,7.42,3,4,4.89C91.63,237.88,90.88,238.11,90.75,237.87Zm-13.58-5.08a3,3,0,0,1-.39-5.16c1.17-.79,2.37-1,5.6.58,2.29,1.12,3.59-.09,3.53,1.22,0,.79-.08,1.59-1.41,1.78-2.16.31-3.63-2.59-6.4-2.32a1.56,1.56,0,0,0-.3,3.06C79.72,232.59,78.56,233.35,77.17,232.79Zm36.17.44c-.36.17-.53-.61-.38-1,1-2.31,1.89-4.16,2.78-6.32.71-1.73,1.19-2.48,1.51-2.47s.48.25-.07,1.32C116.36,226.87,113.34,233.42,113.34,233.23Zm-16.15-.6c-.87-.61-.73-1.52.26-.83,1.28.89,3.36-.74,2.94-2.27-.52-1.86-3-2.31-5.07-.65-3.28,2.62-6.87,2.76-6.87.71,0-.59-.08-.72,1.28-.81A10.68,10.68,0,0,0,94,227.41c4-2.41,8.23-.74,7.35,3.28a2.92,2.92,0,0,1-4.15,1.94ZM82.57,226.7c-.32,0-.91.31-1.08.18-.33-.24-.28-1-.56-1.72-.48-1.36,0-.93.84-.57a4.55,4.55,0,0,0,3.23,0,10.61,10.61,0,0,1,4.45,0,9,9,0,0,0,4.2-.28c1.67-.52,1.23-.33.95.69a6.63,6.63,0,0,1-.62,1.8,2.57,2.57,0,0,0-2.8,0,4.26,4.26,0,0,1-3.17.34,1.93,1.93,0,0,0-2.31,0c-1.33.64-1.92-.42-3.13-.48Zm25-2.83c.24-.4.58-1,.9-1.6,2.59-5.11,2.76-6.53.94-8.25-2.46-2.31-4.55-1.31-6.91,3.31-.57,1.12-.91,2-1.14,2.31s-.58.09-.73-.07,2.32-5.19,3.34-6.26c2.68-2.8,7.66-.56,7.34,3.25-.16,1.92-.52,3-2.29,6.48-.44.87-.82,1.61-1.05,2C107.13,225.56,107.32,224.29,107.56,223.87Zm-24.4-.2c.41-1.82,6.28-2.66,7.83-.27.15.23.06.22-.61,0-3-1-3.57-.93-6.43.19C83.52,223.8,83.21,223.87,83.16,223.67Zm22.4-.34a5.5,5.5,0,0,1,.55-1.5c2-3.84,2.49-4.77,1.9-5.49-1.17-1.4-2.73-.18-4.16,3.83-.54,1.5-.91,1.18-1.17,1-.5-.46,1.72-5.13,2.79-5.82,2.43-1.53,4.34.24,3.26,3.38-.83,1.41-1.52,3.59-2.3,4.73-.38.52-.88.37-.87-.08Zm-8.78-6.24c-.12-.2.11-.46,1-2.25,1.16-2.46,1.52-3.37,1-4.77a3.69,3.69,0,0,0-5.91-1.48,5.35,5.35,0,0,0-1.35,1.92,32.41,32.41,0,0,1-1.68,3.92c-.36.36-.86.43-.83-.2a20.58,20.58,0,0,1,1.75-4.3c2.69-5.8,10.43-3.12,8.62,3a15.92,15.92,0,0,1-1.91,4.43A.4.4,0,0,1,96.78,217.09ZM95,216a10.49,10.49,0,0,1,.6-1.49c1.31-3.22,1.32-4.2-.59-4.25-1.14.15-1.31.62-2.31,3.15a11.31,11.31,0,0,1-.7,1.67c-.21.27-.6.11-.76-.06-.4-.41,1.38-4.57,2.33-5.36,2.17-1.87,5,.79,3.66,3.19a16.89,16.89,0,0,1-1.51,3.32c-.32.46-.72.39-.72-.17Zm-46.23-37.5-6.59-.45c1.17,7,1.23,14.73.05,20.21a38.92,38.92,0,0,0-.72,12.18c.35,4.73,2.36,8.73,2.86,13.74.37,3.63-.44,7.42-1.16,11-1.21,6-1,6.66-.78,13.74.16,6.57-.45,6.33-.83,6a16,16,0,0,1-.1-2.6c0-1.38-.08-4.76-.16-7.1a47.45,47.45,0,0,1,.75-10.53c.77-3.46,1.64-7,1.1-10.85C42.09,219,40.56,214.17,40,209.5c-.66-5.75,1-11.52,1.5-15.7s0-11-1.09-13.92a7.46,7.46,0,0,0-1-2.23,21.25,21.25,0,0,0-3.39-.27c-.08,27.71,0,55.43,0,83.15l6.15,5.67,6.32-6Zm.45,31.79s9.38,5.37,19.73,10.66c-1-6.05,2.14-7,5.08-7.66-.71-11.68,10-9.28,11.69.86h1.06c1.87-5.06,3.71-8.55,7.95-9.39,3.29-.64,6.53,1.43,7.35,6.31-.14-.34,10.9-6.45,11.21,6.45,5-3.1,8.59-.42,10,3.52,2.12-3.22,7.42-3.36,9.12-3.59.59-.68,1.63-1.06,3.52-1,1.62-.09,3.8-1.29,4.92.18,1.71.27,3,0,4.47,1.08,1.16.88,2.45,2.83,4.38,1.49,3.68-1.77,7.82-2.57,11.11-4.69,0,0-.87-1.12-.62-1a3.74,3.74,0,0,0,1.13.83,11.69,11.69,0,0,0,2.24-1.11c-13.71-15.73-25-46.42-17.55-74.82.21-.48-.62-.67-1-.84.12-.22,2.13.07,1.28,1.88-.86,5.44-1.84,11.34-2,15.85a9.79,9.79,0,0,0,0,1c30.75,14.11,27,44.68,19.08,55.32l1.25,1.66c.55.36,24.19-13.36,23.41-13.92l4.47-2.21-.72-60-17.7-1.35s.19-.5.42-.63c.16-3.66-.17-9.07,0-13.61.07-12.94.2-17.35,0-17.7-5.46-3.58-13.6-8.81-20.44-11.34.28.08-.11,5.36-.32,5.66-6.41,2-3.43,4.64-5.8,7.43-1.59,1.74-5.32,2.07-7.11,0-2.15-2.06-3.16-6.81-3.16-6.81-3.39,3.61-2.69,8-7.23,9.61-7.29,3.6-9.61-7.17-9.19-6.92-2.79,2.68-10.63,4.86-11.48-6.46-3.53,3.23-7.48,1.63-9.16-2.35-2.15.08-4.56,1.75-6.74,2.66a16.88,16.88,0,0,1-6.53,1.38,15.57,15.57,0,0,1-6.55-.37c-1,.33-3.3-.65-4-2.06a2.78,2.78,0,0,0-3.06-1.11c-3.5,1.84-7.26,2.28-11.39,4.2-.26.18.36.52.15.45s-2.17,1-2.17,1c21,27.42,22.09,55.1,17.7,74.72-.17.68-.27,1.17.18,1.71-.66-.12-.67.08-.8-.35l2.18-16.47c.07-2,.32-1.84-1.44-2.58a34.87,34.87,0,0,1-4.5-2.17C68.55,150,62.78,145.4,60,139.61c-8-12.44-5.38-27.28.64-39L59.1,99c-17.56,8.75-27.93,18.2-27.93,18.2l.07,58.82,18.05,2.07ZM40.49,171a2.36,2.36,0,0,0-2.67-.27c-.14.12-.44.74-.53.72-.82-.21-1.38-.38-1.49-1.06l.87-1.31c.68-1,1.67-1.4,3.34-1.79.59-.13,1.49-.26,1.8-.39,1.26-.54,1.69-1.71.42-1.19-.92.26-2.22.17-2.39-.67a1.15,1.15,0,0,0-1.4-.89A12.92,12.92,0,0,0,35,165.75c-.48.29-1.39.94-1.39.94-.14.23-.67-1.41-.18-1.89a3.34,3.34,0,0,0,1.74-.15c1.49-.6,2.93-1.31,4.43-1.88,1-.38,1.05-.34.8-1a2.54,2.54,0,0,1-.07-1.52c.17-.46.15-.69-.14-.89-.68-.45-2.31,0-4.59,1.06a8.4,8.4,0,0,0-1.6.82c.29-.72.12-.85.11-1.6a4.32,4.32,0,0,0,2.52-.64,7.84,7.84,0,0,1,3-.86c.46-.05.25-1.73-.27-2.22s-1.54-.47-2.8-.1-2.53.52-3.31,1.73c-1,.92,0-1.53,1.81-2.51a22,22,0,0,0,2.91-.48c.69-.15.8-1.76-.2-2.45-.63-.54,2.28-.55,2.22-.39s-.06.78.16,1a1.91,1.91,0,0,1,1.35,1.82c1.44,2.35,2.14.88,3.13.07-.21,5.11,1.59,5.69,1.83,6-2.47,4.58-.61,4.69,1.7,5.75a4.5,4.5,0,0,1-1.46.32c-.92-.06-2.68,1-3.45,1.66-.43.36-.44.06-2.14,0a4,4,0,0,0-2.45.4c-1.44.63-1.43,1.23,0,1a2.64,2.64,0,0,1,3.14,1.88.84.84,0,0,1,0,.63c-.31-.05-1,.06-1-.09A1.89,1.89,0,0,0,40.49,171Zm2.19-6.2a.89.89,0,0,0,.12-1.29,2.54,2.54,0,0,0-2.08.22C39.85,164.45,41.45,165.59,42.68,164.83Zm.87-3.07a1.41,1.41,0,0,0,.13-1.88,1.68,1.68,0,0,0-2.77.8C40.8,161.92,42.5,162.57,43.55,161.76Zm-.62-4.22a1.24,1.24,0,0,0-1.86-1.19c-1.16.61-.46,1.88,1,1.8C42.87,158.11,42.87,158.11,42.93,157.54Zm-3.4-4.14a.74.74,0,0,0-.06,1.31C41.51,155.83,40.89,152.83,39.53,153.4Zm142.28,6.09c-.9-3.28-3.36,0-3.37,0-.08-3.36.55-4.86-2-6,2.54-3.83,2-4.36-.68-5.83.25,0,3.58-.72,4.15-2.61.12.09,5.22,1.34,5.86-1.43-1.54.69-4.57.8-4.6-2.18.28-.09,1,.06.94.16-.4,1.91,3.09,2.38,3.67.87a8.49,8.49,0,0,0,1.69.9s-1.59,2.32-3.1,2.66c-2.7.89-3.64,1.13-3.64,1.67,0,.21.44.24,1.25.4,1.68.12,1.64.48,1.86,1s.39.59.95.54a8.79,8.79,0,0,0,4.22-2.3c.16,0,.35,1.4.45,1.45,0-.23-1.35.17-3.47,1.4-1.72,1-2.39,1.15-2.61,1.42s.25.84.3,1.52-.36.86-.07,1a2,2,0,0,0,1.52,0,12.73,12.73,0,0,0,3.93-1.77c-.29.54.19,1.9.19,1.9a1.44,1.44,0,0,0-1.21-.22,30.23,30.23,0,0,1-3.2,1.19,1.66,1.66,0,0,0-.8.31c-.22.18-.18.61-.19,1.24,0,.45-.13.86.16,1a5.85,5.85,0,0,0,3.17-.31c.55-.24,1.71-.87,1.71-.87l-.36,1.88c-.49-.55-1.89-.14-2.83.22a1.06,1.06,0,0,0-.73.86,1.15,1.15,0,0,0,.75,1.41,1.94,1.94,0,0,0,.88.09c-2.43.93-2,1.26-3.37.57A5.54,5.54,0,0,1,181.81,159.49Zm2.54,0a1.51,1.51,0,0,0-1.52-.54c-.36.19-.23.59-.11.9C183,160.7,185.16,160.43,184.35,159.49Zm-1.42-2.34c.57-.75-.06-1.74-1.11-1.75a1,1,0,0,0-1.11,1C180.72,157.5,182.46,157.77,182.93,157.15Zm-1.17-2.83a1.18,1.18,0,0,0,.65-2,2.42,2.42,0,0,0-2.58-.11C178.72,153.37,180,154.8,181.76,154.32Zm.88-3.73c.62-.31.74-.84.19-1.44-1-.84-2.73-.18-2.17,1A1.47,1.47,0,0,0,182.64,150.59ZM55.7,122.32a20.32,20.32,0,0,0,2.58-1.61c.66-.36.46-.3-.38-.79-.67-.31-2-1.65-2.13-1.33A9.84,9.84,0,0,0,55.7,122.32Zm23.55,32.82c0-.64.11-1.6.1-2.31.12-1.34-.12-1-.85-.51-.54.35-1.41.88-1.75,1.05-1.35.66-1.19.7.7,1.6C79,155.68,79.22,155.61,79.25,155.14ZM77.41,152c1.28-.8,1.7-1.22,1.77-2.12s-.12-1.42-1-.7c-3.13,2.46-6.34-2.36-3.48-5A6.07,6.07,0,0,0,76,142.51c0-1.55-1.71,0-3.15,2.09-1.58,1.94-2.57,4.36-1.18,6.69C72.79,153,75.27,153.33,77.41,152Zm-7.1-3.13a5.09,5.09,0,0,1,.26-1.87c.35-.88.33-1-1.26-.25a7.88,7.88,0,0,1-1.68.37c-1.3,0-1,.4.88,1.95S70.45,150.75,70.31,148.86Zm4.43-7.45c.19-.46-.22-.64-.61-.56,0,0-.72.52-1.52,1.14-2.42,1.91-4.2,2.13-5.41.68s-.71-3.21,2-5.21c1.2-.88,1.49-.94.91-1.32s-.46-.25-2.19.92c-3.49,2.35-4.54,3.95-4.19,6.29a2.41,2.41,0,0,0,1.07,1.84C68.15,148.12,72.76,144.08,74.74,141.41Zm3.52,1.39-.21-3.24A28.15,28.15,0,0,1,70,127c-1.18-3.83-.24-11.82-.06-11.23L68,112.18a23.42,23.42,0,0,0-.59,15.64C69,132.88,72,139,78.26,142.8Zm-14.94-1.88c1.13-2.16,1.16-1.93-1-1.94-2.48,0-2.2-.33-.8,1.79C62.62,142.46,62.43,142.61,63.32,140.92Zm1.49-3c1.43-.45,1.11-.35,3-1.58,2.18-1.41,2.27-2.18.08-1.09-2.81,1.39-5.28,1-6.2-.79-.81-1.62.89-3.65,3.7-4.44,1-.27,1.46-.5,1.46-.92,0-1.27-4.76.43-6.73,2.35C56.33,135.21,59.65,139.61,64.81,138Zm-6.14-5.78c.13-.19.47-.65.79-1.14,1.34-1.55.21-1.09-1-1.51a4.61,4.61,0,0,0-1.65-.41c-.72.11.24,1.48.47,2.37C57.94,133.46,57.87,133.4,58.67,132.18Zm5.09-3.55c2.4-.24,2.65-.47,2.65-1s-.29-.4-1.5-.23c-3.2.44-5.32-.37-5.78-2.07s1.7-3.41,4.59-3.31c1.56,0,2.6-.49,1.65-1a20.12,20.12,0,0,0-5.78.07c-2.86.83-4,2.41-3.77,4.61.4,2.71,1.88,3.49,5.51,3.29C62,129,62.91,128.71,63.76,128.63Zm1.86-8.83c0-.43-.69-.49-3-.82-3-.45-4.38-3.24-2.55-4.92a4.67,4.67,0,0,1,3.25-.74c2,.36,3.22.77,3.24.1s-.58-.64-4.32-1.43c-5.66-1.19-8.77,4.34-4.24,7C59.76,120.06,65.61,120.64,65.62,119.8Zm1.4-7.91c0-.22-.18-.38-.61-.55A8.32,8.32,0,0,1,64,110.12c-1.87-1.26-2.44-3.7-1.19-5.06s-1-2.77-2.7-1.34-1.66,3.83.42,5.68C62.41,111.11,67,112.88,67,111.89Zm-9.17-.33c2-.92,3.38-.39,1.88-1.66-.85-.78-1.57-3-2.16-1.12a18.09,18.09,0,0,0-.79,3.29C56.91,112.21,56.88,112,57.85,111.56Zm69.57-4.77a4.75,4.75,0,0,1-3.2-5.63,24.11,24.11,0,0,1,1.91-4.93c1-.78.85.26,0,2.06s-1.48,3.32-1.22,4.42c.36,1.56,1,2.75,2.63,3.14a3.7,3.7,0,0,0,3-.71c1-.68,1.88-2.42,3-4.83.35-.68.82-2.77,1.4-1.5.28.66-2.05,5-2.92,6.15A4.61,4.61,0,0,1,127.42,106.79Zm13.5-1.47a4.69,4.69,0,0,0,4.14,1.19c3-1,4.3-3.81,3.18-8.28-.57-2.5-1.05-4.06-1.54-4.37-.24-.15-.5.13-.73.48s.11.75.44,1.93c1.42,5,1.05,7.21-.68,8.15-2.5,1.38-4.64-.2-5.36-3.75-.12-.54-.46-1.66-.46-1.66-.19-.49-1.74-.38-1.18,1.27C138.9,101.55,140.08,104.59,140.92,105.32Zm12.68-13c0-1.74-3.73-9.32-4-8.51a18.2,18.2,0,0,0,.12,2.46,3.15,3.15,0,0,0,.41.79c3.2,5.69,2.71,9.7-.07,10.58-1,.43-1.15.85-.73,1.29.86.93,3-.91,3.42-1.57C153.83,95.86,153.68,93.14,153.6,92.32ZM99.9,91a35.22,35.22,0,0,0,4.67-8.42c2.52-7.23,5.16-15.56,5.89-23.26.08-1,.13-2.44.18-2.57a2.9,2.9,0,0,0-1.86.11c-.2.26-.07.84-.14,1.59a104.75,104.75,0,0,1-6.28,24.56,39.06,39.06,0,0,1-4.22,8.2c-.29.42-.65.86-.79,1.11-.41.58-.11,1,.37.72A10.35,10.35,0,0,0,99.9,91Zm-4.12,2.1c3.85-5.28,6.59-11.62,8.72-19.1a116,116,0,0,0,3.24-14.74c.15-1.07.27-1.78.06-2.1a2.84,2.84,0,0,0-1.83.2c-.21.32-.07.94-.26,2.37a102.11,102.11,0,0,1-2.48,12.34C99.94,82.92,96.92,89,93,94.27c-.33.45-.61.74-.58.93s.43.25,1.06-.14A16,16,0,0,0,95.78,93.14ZM89.9,96c1.89-1.07,5.21-5.71,7.56-10.7a115.82,115.82,0,0,0,6.27-18.32,64.69,64.69,0,0,0,1.39-9.26c-.15-.49-2-.08-1.74.26,0,0-1.83,10.15-3.8,15.74C95.93,84.05,92.76,91.1,89.36,94.48L88,95.8s0,.38.3.44A2.24,2.24,0,0,0,89.9,96ZM87,95.53c4.25-2.37,9.24-13.45,13.31-27.35.69-2.38,2-10.35,2-10.35s-1.69.06-2,.42S100,60,99.52,62.87a93.29,93.29,0,0,1-8.74,24.75C89,91.13,86,94.44,84.13,95.39c-1.06.52-1.36,1.1-.59,1.15,1.29,0,1.41.31,2.35-.19Zm58.31,123.88c-3.19,0-5.9,3.05-8.32,6.88-5.13,7.86-8.59,21-9.43,28l1.94-.36c-.29.13,3.63-18.59,9.59-26.6,3.22-5.06,3.09-5.13,4.9-5.6,2.28-.58,4.12,1.89,3,3.37-.41.51-.86.14-.73-.58.4-2.29-2.94-2.73-3.88-.48-1.08,2.59,1.79,4.89,4.58,3.88,2.5-.88,3.55-4.37,1.79-6.94A4.86,4.86,0,0,0,145.33,219.41Zm-16.8-.32c-3.82,4.79-5.71,9.71-8.06,16.42a86.91,86.91,0,0,0-4.76,20.8l2.06-.27c-.07-4.84,5.25-27.88,12.72-36.51a3.6,3.6,0,0,0,.72-1.13C130.8,217.23,129,218.64,128.53,219.09Zm8.44-1.78c-4.95,4-8.9,12.88-11.51,21.06-2.82,8.83-4.09,16.92-3.88,16.92l2-.29c-.15-.51,5.53-31.63,16.06-37.3.91-.45,1.1-.91.33-1.11a4.39,4.39,0,0,0-3,.72Zm5.55,0c-10.81,1.42-17.88,34.5-18.12,37.25,0,0,0,.26,0,.26l2.16-.45,0-.15c1.49-8.46,2.93-14.38,6.3-22,2.63-5.66,6.25-12.9,11.67-13.6.44-.06.86.12.7-.39-.33-.81-2-.92-2.69-.89ZM78.07,206.91c-3.91,1-4,5.67-1.44,11.65.2.45.17.69.36.87.45.39.8-.16.85-.51a5.46,5.46,0,0,0-.57-2.34c-1.61-4.13-1.23-6.51.37-7.57,4.09-2.1,5.19,2.22,5.81,4.2.15.49.2,1.15.47,1.19a1.65,1.65,0,0,0,1.19-.18,50.63,50.63,0,0,0-1.75-5.11A4.4,4.4,0,0,0,78.07,206.91Zm-28.36,4.41,0,49.26-7.48,7c-3.21-2.75-7.43-7-7.43-7l.13-83.27-2.41-.19c-.59,35.78-.17,72.08-.19,107.93l22.12.16,18.31-28.54a3.87,3.87,0,0,0,.3-.52c.23-.55.2-1.37.09-4.41a10.21,10.21,0,0,0-.09-2.47c-.18-.29-.57-.08-.94.08s-.59.11-.39-.32c.12-.25.48-.8.8-1.31,1-1.69,1.28-2.23.93-4.1-.08-.45-.51-.84-.87-1.38-3.09-4.55-4.34-11.28-2.81-16.21.49-2.17.31-2.62-.74-4.31Zm96.85-53c-2-1-2-1-2,.94,0,1.46,0,1.82.59,1.62.79-.4,1.76-.77,2.5-1.08C149.05,159.36,147.28,158.74,146.56,158.36Zm8,5.07c-1.56-1.24-1-1.1-1.42,1.71-.27,1.69-.62,1.74,1.14,1.18,1-.35,3-.13,2.13-1.3C156.37,165,154.83,163.69,154.52,163.43ZM91.79,206.5C89.4,207.94,87,215,87,215c-8.36,1-11.87,9.22-12.24,16.07-.3,5.41-.67,11.73-.12,12.28,5.49-2.46,7.6.38,8.12-.38.24-.34-1.21-1.45-3-2.44a10.28,10.28,0,0,1-1.33-.86c-.67-.55,1.33-.07,2.59.78,1.61,1.1,1.88.87,1.18-2.33-.76-3.47-.88-3.9,1.79-5.28a7.47,7.47,0,0,0,2.45-1.87c.61-.69.77-.86.54.15-.39,1.75-2,2.51-3.35,3.22a1.92,1.92,0,0,0-1,1.69,37.43,37.43,0,0,0,1.06,5.11c.31,1,.42,2.07.66,3.12.63,2.73.67,3.26.35,5.24a9.94,9.94,0,0,0-.21,2.52l.14,1.51s-1.49-1.53-4.77-.25a6.26,6.26,0,0,1-5.55-.72A11.61,11.61,0,0,0,74,256a120.61,120.61,0,0,0,35.06,1.13,112.09,112.09,0,0,1,4.08-20.39,53.54,53.54,0,0,1,3.68-9.52,10.66,10.66,0,0,1,2.23-3c.11-.07.12-.1.12-.15s0-.17,0-.25a2.55,2.55,0,0,0-.62-1.74c-1.13-.9-2.94.26-3.53,2.26a65.63,65.63,0,0,1-3.06,6.33c-.14-.09-.47-.1-.35-.5.91-2.11,2.15-4.34,2.86-6.24,1-2.72,3.08-4.16,4.65-2.44.54.59.76,1.13,1,1.32s.44,0,.59-.19c.6-.9-.78-2.93-2.26-3.34-2.13-.58-3.73,1-6.15,6-1.39,2.92-1.64,3.65-1.86,3.42,0,0-.42,0-.29-.54a40.6,40.6,0,0,1,3.49-7c2-3.31,5.68-3.58,7.23-.71.23.39.25.91.51,1.26.48.61,1.26.49,1.45-.52-.21-.67-1.5-3.09-2.41-3.51-2.07-1.42-4.59-1.14-6.71.75-.48.43-1,1.3-2.39,4.15-2.07,4.57-2.13,4.59-2.69,3.85.83-2.22,3-5.83,3.91-8.05a2.2,2.2,0,0,0,.19-1c-.06-1.61.21-4.46-3.21-6.49-2.91-1.57-6.75.08-8.06,3.17-1,2.36-1.73,4-2.24,4.32-.71.47-.58-.19-.51-.43,1-2.13,2.43-4.29,2.66-6.45a5.88,5.88,0,0,0-9.61-5ZM61.3,97.38a80.22,80.22,0,0,1,12.46-4.61c.64-.27.74-.34.06-1.67-3-5.89,5.19-10.58,8-4.8.37.77.45,1.19.82.83A39.41,39.41,0,0,0,85,83.51c3.12-4.84,4.53-10.35,6.2-15.22a62.88,62.88,0,0,0,1.93-8.93C86.88,48.58,82.56,38.21,76,28.61l-43.38,0-.16,86.67C44.57,105.14,52.83,101.48,61.3,97.38Zm48.83-3.19c.53-.55,1-1.47,2.87-5.34.34-.69.87-1.76,1.09-2.26.29-.91,1.35-1.48.83.15a12.37,12.37,0,0,1-.64,1.46c-.63,1.12-1.22,2.5-1.67,3.41-2.41,4.83-2.3,7.64.4,9.74a5.81,5.81,0,0,0,8.49-1,8.34,8.34,0,0,0,.73-1.38,20.58,20.58,0,0,1,1.89-3.8c1-1.27,1.16.31-.34,2.73-1.71,2.77-1.74,5.78-.26,7.9a5.84,5.84,0,0,0,9,.71h0a18.42,18.42,0,0,0,3.31-6.22c.19-.57.39-1,.53-1.33.22-.52.53-.72,1.35-.87,5.57-1.07,10.25-6.78,10.91-13,.09-.84.33-2.33.41-3.22.18-1.77.18-10.93,0-11.48a.56.56,0,0,0-.62-.44,4.1,4.1,0,0,0-1.24.3c-1.84.65-2.69.82-4.46.19a3.26,3.26,0,0,0-1.23-.26c-.77.07.26,1.18,2.53,2.42,1,.53,1.74,1.24,1,1.19a34.6,34.6,0,0,1-3.34-1.67c-1.25-.76-.93.2-.28,2.73.86,3.41.36,4.36-2.33,5.7a6.61,6.61,0,0,0-1.5,1.1c-1.42,2.1-1.06.55-.34-.57,1.23-1.28.48-1.72-2-.83-2.86,1-4.16.27-5-1.32-.91-1.8.8-4.12,2.22-4.07.46,0,.38.18-.3.64a2.54,2.54,0,0,0-1.3,2.06C130.62,79.51,132,80.34,134,79a7.68,7.68,0,0,1,2.35-1.2c.69-.15,1.72.1,1.72.65a5.24,5.24,0,0,0,0,.91c.18.62,1.16-.25,1.59-.56,1.47-1.1,1.42-1.32,1-3.09-.65-2.49-1-4.77-1.61-7.29a10.8,10.8,0,0,1-.18-4.16c.1-.68.36-2.07.41-3s0-2.3,0-2.3c1.46,1.11,2.05,1.31,3.47.77a5.85,5.85,0,0,1,5.45.07c.68.33,1.31.56,1.31.56l.08-2.85s-1.71-.36-4.88-.77c-9.55-1.26-29.14-1.52-29.87-.37-.19.29-.37,2.33-.89,5.17-1.16,5.9-2.45,11.77-4.18,17.53-.36,1.17-.7,1.64-.52,1.68s.43-.44.6-.63c.92-1.07.21,1.47-1.19,4.54a2.37,2.37,0,0,0-.23.67A34.13,34.13,0,0,1,107,89c-.38.8-.69,1-.69.53.43-1.76,1.56-4,1.72-5.62-1,1.42-2.43,3.78-3.51,5.18-.2.38,0,.49.18,1,.66,1.74,2.24,1.9,3.15.32.51-.88,2.1-4.2,2.65-5.65a7.76,7.76,0,0,1,1.15-2.38c.38-.19.46.65-.22,2.07-2,4.29-2.91,6.69-3.91,7.57a1.85,1.85,0,0,1-2.86-.58c-1.26-2.07-2.34-1.38-1.18.74a3.09,3.09,0,0,0,5.36.43,65.23,65.23,0,0,0,3.39-6.61,5.92,5.92,0,0,1,.94-1.77c.75-.28-.1,1.91-2.24,6.31-.7,1.69-1.81,3.48-3.32,4-3.66.8-4.16-1.14-5.43-3.34-.62-.55-1.18.32-1,1.29a4.58,4.58,0,0,0,2.22,3,5.28,5.28,0,0,0,6.71-1.22Zm16.35,9.2a3.23,3.23,0,0,1-.12-2.18,17.69,17.69,0,0,1,1.77-4.41c1.2-.57.28,1.69.13,2-1.45,3-1.59,4.19-.23,4.54,1.16.3,1.78-.41,2.88-3.12.56-1.39.78-2,1-2.09.43-.17.63,0,.6.42a19.5,19.5,0,0,1-2.48,5.13C128.84,104.69,127.09,104.7,126.48,103.39Zm-10.89-2.32a5.79,5.79,0,0,1-2-1.3c-2.05-1.88-1.71-4.47.83-9.35.2-.38.94-1.85,1.18-2.34.42-.87.84-.53.84,0a22.88,22.88,0,0,1-1.28,2.76c-2.81,5.48-2.71,7.72,0,9s3.85.54,6-3.64c1.22-3.15,1.83-3.2,1.76-2a22.81,22.81,0,0,1-2.45,4.86C119.11,101.16,117.91,101.52,115.59,101.07Zm.2-2.65a2.87,2.87,0,0,1-.85-3.57c.56-1.09,2-5.25,2.68-5.48,1.09,0,.51.87-.84,3.43-1.6,3.39-1.54,4.3-.31,4.81s1.68-.5,3.36-4.46c.27-.63.63-1.27.85-1.14.27,0,.73.18-.15,2-.21.43-.57,1.33-1,2.17C118.42,98.61,117.12,99.24,115.79,98.42Zm18.88-7.2c-.46-.23-2.62-1.08-2.3-1.78,0-.07.16,0,.23,0a5.75,5.75,0,0,0,7-.18c.43-.38.75-.12.51.36C139.32,91.18,135.87,91.84,134.67,91.22ZM128.32,89a10.31,10.31,0,0,0,.4-1.18c.24-.89.18-1.54.39-1.43a3.92,3.92,0,0,0,3.28,0,4,4,0,0,1,3.23-.27,1.42,1.42,0,0,0,2-.18c.72-.56.73-.32,2,.13,1,.33,1.33.56,1.74.48.15,0,.47-.38.57-.36.31.05.35.94.63,1.94s.11,1.11-.69.57a5.79,5.79,0,0,0-4.07,0,4.07,4.07,0,0,1-2.59.08c-2.41-.4-4.14-.72-5.94.32C128.35,89.63,128,89.92,128.32,89Zm-6-4.4c-1.17-2.34,1.51-5.43,3.87-4.34.78.36,1.48,1.73.32,1.1-5.36-1.08-4,6.77,1.74,2.62,3.82-2.53,6.53-2.93,6.76-.47-.11.9-.91.76-1.52.84a12.84,12.84,0,0,0-4,1.26C126.7,86.49,124,87.21,122.34,84.6Zm21,1.08c-1.31-.34-2.44-.85-3.81-1.1s-2-.94-1.72-1.89,1.61-1.09,3.64.15c2.26,1.38,3.89,1.71,4.72,1.19,1.67-1,.77-2.75-.83-3.19-1.19-.33-.31-.8,1-.41,2.08.78,2.12,4.52,0,5.3A6,6,0,0,1,143.32,85.68ZM125.06,73.29A24.06,24.06,0,0,0,128.57,71c.28-.29,1-1.28.45-1-3.11,1.87-6.71.32-9.32-1-1.26-.58-1-.32-1.91-.26-.66,0-1.18.18-1.3-.28,0-.21-.41-.12-.65-.15-1-.09-.35-1.37,1.67-2.77a18.8,18.8,0,0,1,6.55-3.19A6.38,6.38,0,0,1,130,63.7c.62.6.57,1,1.13.63,1.29-.83,1.3.27.21,1.29-.74.71-.47.9.44,1.57.44.32.08.62-.16,1.08a6.65,6.65,0,0,0-.07.81c-.2,1-4.75,4.53-6.4,5.13C124,74.43,124.62,73.57,125.06,73.29Zm3.16-6.48h-.76c-.86,2.62-2.45,3.52-3.77.37l-.6.06C123.06,69.92,127.65,71.59,128.22,66.81Zm-5,2.46c-.32-.52-.67-1.72-1-1.74-.89,0-2.12.12-1.83.67C120.89,69.07,123.61,69.88,123.25,69.27Zm6.08-.47c.82-.49,1-.83.46-1.37-.69-.7-1-.34-1.27.77C128.34,69.16,128.47,69.32,129.33,68.8ZM118.24,67c5.48-2.48,7.55-2.8,9.78-2.19a7.28,7.28,0,0,0,1.26.42c1.07-.07.39-1.26-1.53-1.94-2.18-.78-3.57-.43-7.77,1.76C117.52,66.29,115.52,68.18,118.24,67Zm15.88-3a14.24,14.24,0,0,1-.5-1.49c-.1-.36-.18-.73-.29-.73a14.74,14.74,0,0,1-5.38-.21,17.79,17.79,0,0,0-10.33.35,10,10,0,0,0-1.6.77c-.22.2-.54,0-.54-.28a8.29,8.29,0,0,1,2.78-2.18,14.36,14.36,0,0,1,10.49-.87,6.74,6.74,0,0,0,5.62.1c.78-.34.23.5,0,1.6a5.46,5.46,0,0,0,.05,1.86C134.5,63.92,134.38,64.45,134.12,64Zm57.29,221.44V198.54c-14.42,10.62-41.69,21.69-41.69,21.69,3.43,7-4.13,13-8.47,5.88-4.47,5-10.62,22.53-10.83,28.35,0,0,11.87,20.71,17.67,30.93ZM112,256.79a88.21,88.21,0,0,1,4.24-20.35A68.08,68.08,0,0,1,121,225c.83-1.3.89-1.8,0-1.33a20.3,20.3,0,0,0-3.45,3.87c-3.9,8.22-5.7,18.08-7.13,25.62a32.59,32.59,0,0,0-.42,3.79Zm2.85-.36c.93-10.59,4.84-24.89,10.7-34.21.55-.89,1.23-1.66,1.21-2-.08-.91-2.34.66-4.09,3.34a89.36,89.36,0,0,0-5.42,12.57A81,81,0,0,0,113,256.68Zm5.64-.88c.59-6.1,2.49-11.71,4.08-17.32a56,56,0,0,1,7.57-16.45c1-1.46,2.11-2.82,3.2-4.21a1,1,0,0,0,.25-.6,2.63,2.63,0,0,0-1.8.4,10.37,10.37,0,0,0-2.43,2.28c-4.31,5.48-6.63,11.89-8.79,18.36a69.24,69.24,0,0,0-3.84,17.83Zm-38.71-4.68c.86-.07,1.42.1,1.67-.13s.17-.85.25-1.63c.17-1.68,0-1.59-1.06-.51-1.74,1.8-4.91,2.49-6.8,1.41-1-.55-1.62-.93-1.71-.47a1.11,1.11,0,0,0,.45,1.22C76.86,251.8,79,251.08,81.77,250.87Zm-2-1.29a6.13,6.13,0,0,0,3.12-2c.66-.94.65-1.07.15-.89-2.45,1.2-4.06,1.81-6.25,1.48-3-.45-3.09-.07-1.13,1.15C76.89,250.1,78,250.13,79.72,249.58Zm-4.35-3.75c.46-.34.57-1.72.2-1.79s-.92.6-1,1.16C74.37,245.94,74.92,246.12,75.37,245.83Zm4.59-.06.79-.07c-.41-3.45-4.16-3.6-4.85.34l.59.09c.78-3.14,3.05-3.06,3.47-.36Zm2.48-.56c1.14-.64.75-1.43-.8-1.73-1-.24-1,.59-.44,1.72.27.56.45.45,1.24,0ZM73.59,241a4.13,4.13,0,0,0-.35-1.38,20.12,20.12,0,0,1-1.91-9.88c.11-2.85.15-3.73-.45-3.73-.82.4-1.31,5.7-.26,10.11C71.36,239.22,73.64,243.08,73.59,241Zm0-4.31c-.08-1.49.24-4.83.08-5.56a4.07,4.07,0,0,0-1.1-2.05c-.5-.35-.62.33-.45,2.12C72.49,235.38,73.17,238.55,73.56,236.67ZM74,229c.32-.59.2-1.21-.53-2.62-2.83-5.52-3.2-9.3-.24-10.67.34-.16.54-.19.77-.31.93-.52.57-1.46-.82-1.07-3.87,1.07-4.63,4.68-1.37,11.36C73.45,229.05,73.7,229.52,74,229Zm.7-3.14c0-.23.15-1.13.19-1.32a15.51,15.51,0,0,0-.77-1.78c-1.09-2.78-1.11-3.94.07-4.74.39-.23.79-.24.85-.5s.08-1.07-.16-1.26a2.72,2.72,0,0,0-2.79,2c-.45,1.49,0,3.68,1.36,6.38C74.07,225.47,74.41,227,74.68,225.89Zm1.3-3.6c.91-1.83,0-4.21-1.2-3.4-.82.53-.86,1.08-.36,2.61C75,223.36,75.39,223.49,76,222.29Zm3.2-4.91c.36-.36,0-.87-.63-2.9-.58-1.74-.32-2.93.78-3.27,1.58-.39,2.14,2.19,2.47,3.27.17.84.72,1.07,1.21.49.14-.16.18-.3-.05-1.21-1-4-2.35-5.26-4.5-4.27-2,.92-1.73,3-.28,7.32.19.58.32,1,.46,1.07s.34-.3.54-.5ZM80.94,216c.47-.47.44-.26-.1-1.92-.61-1.9-.93-2.3-1.6-1.64-.4.4-.2.84.27,2.39C80,216.67,80.19,216.77,80.94,216Zm82.42-6.5c3.13-2.16,1.84-6-2.29-7.47-.49-.17-1-.38-1.19-.46-1.9-.91-3.38-1.19-3.38-.48,0,.42.57.63,2.39,1.52,2.69,1.3,3.29,2.81,2,4.72C159.9,208.73,161.69,210.3,163.36,209.53Zm2.84-4.72c.28-1.11.68-2.06.87-2.7.27-1-.07-.78-.74-.62-1.73.9-3,.41-2.13,1.64C165.13,204.77,165.9,206,166.2,204.81Zm-.21-3.87c2.15-1.29,2.63-4.64.63-6.24a7.39,7.39,0,0,0-2.32-1.19,14.6,14.6,0,0,0-6.07-.58c-.23.28-.24.7,0,.83a8.12,8.12,0,0,0,1.62.26c3,.31,4.48,1.2,4.34,3.32s-1.9,3-5.07,2.34c-1.7-.37-2.49-.19-1.81.2a16.26,16.26,0,0,0,4.28,1.43,6.65,6.65,0,0,0,4.4-.37Zm-10.35-.55c2.43-5.43,3.71-19.67-10.15-30l.45,2.84a24.9,24.9,0,0,1,8.44,24.56ZM168,190.66a17.66,17.66,0,0,1-2.71,1.63c-.66.3-.68.38.22.87a7.37,7.37,0,0,1,1.44,1c.48.52,1.05.72,1.26.53C168.21,193.85,168.48,191.18,168,190.66Zm-4.1,1c2.81-.88,4.31-2.23,4-4.48-.47-3.31-3.24-4-8.44-2.71-2.5.62-2.72,1.79-.35,1.19,3-.77,5.35.38,5,2.57-.19,1.89-1.71,3-4.38,3-1.41,0-1.84.13-1.65.64C158.25,192.21,162.76,192.05,163.92,191.68Zm-4.64-7.85c4.59-1.57,6.73-4,5.68-6.74-1.24-3.21-5.24-3.24-9.27-.25-1.88,1.37-1.59,1.88.23,1.18,2.36-1.08,3.88-1.25,4.85-.39,1.75,1.56.57,4.26-2.08,5.24-1.28.53-1.69.82-1.7,1.2C157,184.68,157.22,184.54,159.28,183.83Zm7.74-.05c.12-.95-1-4.25-1.42-3.49a6.73,6.73,0,0,1-1.1,1.62c-1.57,1.41-1.28.87.29,1.3C165.66,183.45,166.89,184.07,167,183.78Zm-12.13-7.05c4.64-2.68,6.41-6.51,4-9-2.16-2.29-5.74-1-9.07,3.2-1.53,1.9-.38,1.67,1.68-.15,2.39-2.11,5.44-1.09,5.42,1.55,0,1.12-1.6,3-3.11,3.89-.47.28-.54.7-.37,1S154,177.24,154.89,176.73Zm8.13-2.8c-.24-.72-2-3.81-2.36-3.71-.4.8-.43,1.84-.9,2.68-.65,1.27-.57,1.07,1.49,1.06C162.79,174,163,174.17,163,173.93Zm-13.64-3.5c3.9-4,4.24-8.75.59-9.84-2-.6-5.26.86-5.27,2.36,0,.94.17,1.11,1,.78,3.45-1.28,6.18,2,3,5.82-.77,1.09-.87,1.37-.64,1.6S148.53,171.31,149.38,170.43Zm42-34.48V29.06H168.56L150.43,57.28l0,7c0,.24.41.39.68.08,1-.79.63,0-.56,1.84s-.83,3.31.48,5.25c2.78,4.12,4.22,11.66,3,15.66-.44,1.5-.54,2.11-.25,3a3.23,3.23,0,0,0,1.5,2.1,163.52,163.52,0,0,1,18.83,10.38l0-50.22,7-6.68,7.39,7,.26,82.9C188.72,136.46,190.44,136.86,191.37,136Zm-4-83-6.19-5.74-6.12,5.66c0,27,.16,82.43.16,82.43l6.08.43s.44-1.26-.13-4.53c-.85-4.9-.8-10.89.58-20,.85-5.59,0-10.43-1.29-15.54a24.25,24.25,0,0,1-1-9.59c.44-4.85,1.78-8.51,1.94-15.49.09-4-.1-7.87,0-12.78.06-.66.34-.58.39.1.18,4.44.36,8.66.4,13-.14,5.64-1.52,11.45-1.67,16.61a19.14,19.14,0,0,0,1.34,9.17c2.38,6.84.81,17.36.79,17.54-1,6.74-1.75,15.35,1.66,21.8l3.3.29Zm-42.57,51c1.83-.84,2.19-2.32,1.2-5.87-.17-.64-.37-1.39-.44-1.68-.21-.88-.61-1-1.13-.27-.32.41,0,.51.46,2.47.73,2.95.3,3.93-.8,3.92s-1.74-.81-2-2.72a3.72,3.72,0,0,0-.39-1.37c-.27-.44-.58-.36-.84.13s.29,3.21,1.12,4.46,1.53,1.53,2.84.93Zm-.5-2.66c.39-.72-.09-2.52-.34-3.69-.23-.65-.5-.81-.93-.71-.65.16-.62.87-.38,2C143.12,101.19,143.38,101.49,144.3,101.2Zm5.55-4.26c2.09-1.19,2.29-3.24.89-7-.58-1.53-1.29-2.6-1.69-2.62-.15,1-.3,1.49-.12,1.87s.43.9.63,1.35c1.19,2.75.87,4.33-.28,5.19S148.89,97.25,149.85,96.94ZM81.49,95.5c4.9-1,9.32-8.89,12.1-15.89,2.54-7,5.23-14.8,5.66-21.26,0,0-1.85.09-2.08.47a10.32,10.32,0,0,0-.5,2.34,91.66,91.66,0,0,1-4.52,16,59.9,59.9,0,0,1-7.42,14.17,7.63,7.63,0,0,1-4.93,2.94,7.93,7.93,0,0,0-1.57.13c-.37.26,0,.86.94,1.1A5.23,5.23,0,0,0,81.49,95.5Zm67.5-.91c.75-.8.82-1.74,0-3.73-.23-.56-.34-.87-.62-.79-.59.16-1.28,1.71-.87,3C148,94.8,148.32,95.3,149,94.59ZM79.78,93.34a7.52,7.52,0,0,0,4.57-3.11,51.94,51.94,0,0,0,5.94-10.64c1.11-2.51,3.11-7.92,3.65-9.88,1.15-4.17,1.78-6.86,2.31-9.84a1.87,1.87,0,0,0,0-.85,3,3,0,0,0-2.2.32,99,99,0,0,1-3.45,13.57C88.64,79.69,83,90.54,80,91.05c-1.64.28-3.53-1.15-3.23-2.61.19-.9.31-1.24.76-1.47,1.06-.37,1.68.35.51.82-1.35,1.18,1.09,3,2.59,1.72,2.54-2.13-1.19-6.21-4.25-4.33-3.39,2.07-2.52,5.67-.39,7.38A4.74,4.74,0,0,0,79.78,93.34Zm24-4.87a21.28,21.28,0,0,0,4.81-8.38,128.8,128.8,0,0,0,5.27-23.7s-1.78-.18-2.18.2,0,.51-.77,5.62a98.53,98.53,0,0,1-5.84,21.25,25.9,25.9,0,0,1-2.19,4.25C101.79,89.61,102.19,90.09,103.78,88.47Zm46.44-16.23c-.19-.1-.18,0-.26,0-.28.2-.1,1.2.55,2.73,1.71,2.75,1.91,8.07,1.8,10.08a3.32,3.32,0,0,0,.08,1.48c.18.52.5,1.13,1,.11A21.11,21.11,0,0,0,152,75.24,9.27,9.27,0,0,0,150.22,72.24Zm1.32,11.64a17.21,17.21,0,0,0-.94-6.75c-.28-.6-.78-.65-.72,0,0,1.46-.15,4.23,0,5C150.63,83.93,151.21,85,151.54,83.88Zm-3.87-17h-.8c0,2.75-2.43,3.52-3.33.21l-.72.17C143.78,71.92,148.14,69.78,147.67,66.87ZM142.78,69c-.42-1.23-.25-1.67-1.31-1.12-.81.42-1.3.86-.16,1.41S143,69.72,142.78,69Zm6.13-.71c.34-.68.3-1.29-.21-1.29s-.5.31-.61,1C147.89,69.09,148.38,69.31,148.91,68.24Zm.43-4.57c.31-.1.22-.54.14-1.09-1.33-1.84-4.62-1.28-5.8-.91a2.73,2.73,0,0,1-2.63-.15c-.76-.14-.87,0-1.06.41a6.35,6.35,0,0,0-.24,2c-.05.89,0,1.31.3,1,1.21-1.09,2.62-2.45,4.67-2.53A9.5,9.5,0,0,1,149.34,63.67Zm-9,2.49c0,.37.31.14,1.12-.37,3-1.74,4.65-1.5,7.18-.67.56.19.91-.4.3-.89C145.9,61.77,142.21,63.34,140.3,66.16ZM151,54.85l16-26.36-89.07-.06L93,56.41C105.35,53.57,125.65,49.93,151,54.85Z" transform="translate(-5.81 -11.5)"/>
    <path class="b" d="M72,261c1.89-2.81,11.23,2.19,11.72,4.17,5.53-4.34,12.25-4.66,17.65.78,5.56-6.06,11.5-5.64,17.69-2.14-.69-1.37,7.91-7.41,13.14-3.57l14.14,25.11-90.58.29c5.35-8,10.09-17.57,16.24-24.64Zm-39.56-131c-.5-1.36-2.48-15.31,2.56-15.66,8.15,3.6,18.55,16.49,23.37,24.37,6,9.75,12,32.19,8.68,31.21-.48-.14,10.29,10.61,11,11.66,1.22,1.73-18.15,33.9-21.35,32.75-1-.35-7.42-4.19-7.42-4.19l.18-10.74s10.14-20,10.7-26.63c.21-2.52-7-6.83-7.3-7.7-.82-2.17-.73-10.23-4.91-13.75-2.31-1.4-4.49-.95-6.84-.66C31.62,149.17,36.54,133.2,32.42,130.09Zm159,7.16.05,4c-6.25,1.36-17.32-3.93-20.67,4.59.42,9.2,2.49,13.32,3.93,16.1,1.08,2.5,8.69-.35,11.38,2.16,7.69,9.45,5.87,22,5.94,33.34l-3.34,1.68c-23.06-13.56-40.76-55.69-43.22-67.68C145.33,123.7,166.64,99,166.64,99s7.76,4.69,7.76,4.69c.19.07-.16,32.47-.16,32.32C180.33,136.28,186.24,136.87,191.41,137.25Zm-46.85-29.62c-11.83,16.92-15.83,42.2-15.07,59.84,1.53,26.33,20.35,49.81,19.09,52-.21-.15-.71.11-.9-.06-4.33-3.84-7.36-3.17-9.58-3.2-4.23-.07-5.4,1.19-7.83,1.43-6.21.62-5.71.77-11-1.21a71.17,71.17,0,0,0-22.62-11.72c-5.68.51-14.33,3.19-17.61,1C101.84,163.84,98.43,137,74.86,93.09c2,.58,2.26,2.4,3.72,2.85,4.85,1.86,11.52,1.16,15.52-.58,4.35-2,8.45.9,8.39.81,8.56,6,18.91,9.91,24.3,12.59,1.59.82,3.6-.47,5.36-.83,3.6-.73,6.69-2.26,9.38-1.36a30.46,30.46,0,0,1,3,1.06ZM91.4,52.8c-1.15-2.16-13-24.65-13-24.65l88.19.53-13.23,21.7c-1.25,1.18-7.47,4.46-13.81-3-.11,1.07-9.4,7.67-17.39-.28-4.8,4.35-9.7,6.87-17.79,2C104.18,50.47,97.88,56.6,91.4,52.8Z" transform="translate(-5.81 -11.5)"/>
    <path class="c" d="M101.05,265.48c-8.54-8-17.44-.77-17.23-.32-3.38-3.43-6.69-6.23-11.15-4.86,0,0,0-1.2,0-1.23,13.29,2.43,33.65,3.06,57.45-1.91l1.22,2.55c-6.38-2.26-9.67.79-12.5,4.36-10.24-6.38-12.74-.79-17.82,1.41ZM121,172.56l6-.12c1.14,17.56,15.82,44.43,16.18,44.43-1-1.42-10.72-.3-10.65-.12C127.23,202.54,121.37,188.35,121,172.56ZM85.73,214.21s-2-5-3.11-7.19C89,196.2,94.17,185,96.84,172.54l4.32,0c-1.28,17.2-15.06,43.32-15.43,41.63Zm77.76-2.3c9.52-17.16,7.88-41.89-19.13-55.56,0,0,.7-18.13,2.71-18.17.45.14,12.23-.15,12.23-.15,3.08-7.56,8-16.7,15-22.87l.17,20.26c-5.13.5-8.26,2.14-9.81,6.15l-7.12,1.58c.53,20.36,8.2,39.16,30.94,56.06-5.43,4.66-24,14.13-23.94,14Zm-114-12.79.2-21.1c3.45-.75,6.17.25,9-5.92,0,0,4.78,2.26,6.37,3.1C60.64,183.18,56.78,191.71,49.52,199.12Zm45.29-37.36L95,151.05l10.18.29a20.08,20.08,0,0,0,0,10.9Zm23.23-.13c.69-3.5,1.19-7-.25-10.75l11,.19-.26,10.67Zm-21-20.95c-1.84-21-16.25-44.79-16.45-44.28,1.7.27,4.69,1.11,6.33.33a7.64,7.64,0,0,0,3.82-.08c.13-.73,13.4,30.51,11.63,44C102.18,141.09,97.5,141.12,97.07,140.68Zm25.49.19c1.55-9.71,5.57-27.46,15.05-41.86a53.8,53.8,0,0,0,3.47,7.57c-7.16,10.4-11.56,22.28-14.24,34.4Zm-65.94-5.23c-4.34-8.85-22.4-22.77-21.47-21.36,7.47-6.7,15.81-11,24.13-15.24,0,0,1.48,1.4,1.25,1.75-5.11,8.06-7.59,25.12-2.64,34.9,4.76,10.45,13.2,16.62,21.81,21.47-.66,6.53-1,11.25-2.6,17.74,0,0-5.41-2.84-9.84-4.67C66.56,157.9,64,146.87,56.62,135.64ZM104.44,49c6.37,3.88,12.07,3.47,17.59-1.79a12.93,12.93,0,0,0,17.61.53c2.94,3.3,6.76,5.13,12.35,4l-1.39,2.9c.33-1.54-38.55-4.06-57.36,1.2a15.3,15.3,0,0,1-1-2.21C93.9,53.54,99.35,55.56,104.44,49Z" transform="translate(-5.81 -11.5)"/>
    <path d="M6,11.5v2.95l2.85-.15V39.82l-3.08,0v3h8.53v-3H12.11V32.5l3.72-4.84,4.88,12.18H17.64v3H27v-3H24.38l-6.51-15.6,6.67-9.94h2.09V11.5h-9v2.8h2.82L12.11,26.49V14.3h2.23V11.5Zm71.05,16L92.81,56.7l.69-.13c21.78-4.25,39-4.84,57.56-1.58l16.47-27.23C137.56,27.42,77.09,27.45,77.09,27.45Zm1.76,1.25,87.39.09-4.92,8.06c-2.94-.91-4.58.44-5,3.26a3.74,3.74,0,0,0-1-.23,3,3,0,1,0-.83,5.89c1,.17,1.2,0,1.2,0-3.59,3-5.63,1-7.31,0a4.29,4.29,0,0,1-6.21-.11c4.28.43,5-3.86,2.9-5.49a9.1,9.1,0,0,0-.86-.75,2.59,2.59,0,0,0,.58-3.37c-1.3-2.68-5.36-2.53-6,.4a10.32,10.32,0,0,0-.24,1.34,3.27,3.27,0,0,0-2.83,5c.64,1,2.06,1.19,3.36,1.13-1.76,2.48-5.78,1.64-7.57-.41-2.84,3.34-6.08,2.93-7.7,1.14a3.52,3.52,0,0,0,2.86-1c1.73-1.59.88-4.42-1.56-5.21a3.52,3.52,0,0,0-.84-.19,4.17,4.17,0,0,0,.17-1c.61-4.93-6.78-4.45-6.07.41a2.84,2.84,0,0,0,.24.86,3.44,3.44,0,0,0-1.24.16c-4.1,1.89-1.27,7.1,1.9,5.76a11.82,11.82,0,0,1,1.24-.52c-3.93,4.87-7.23,1.42-8.1.89-2.65,3.93-7.26,1.25-7.36,1a3.83,3.83,0,0,0,2-.52,3.11,3.11,0,0,0-.16-5.59,5.56,5.56,0,0,0-2.21-.17,6.09,6.09,0,0,0,0-1.19c-1.28-4.74-7.18-2.37-5.73,1.64a2.45,2.45,0,0,0,.47.7,10.3,10.3,0,0,0-1.15.81,3,3,0,0,0,3.34,5c.42-.22.83-.69,1-.67-1.55,2.83-3.9,3.82-7.25,1.48a3.68,3.68,0,0,1-6.39.27c3.15.29,5.2-5.75-.85-5.94-.48-1.64-.45-4.14-4.29-3.71ZM58.4,32.22c-3.29,8.71-12.57,16.6-17.94,26.42-6.08,9.93-4.17,20.09,4.09,21.85,4.34.92,10-3.24,10.49-7.73.11-.91.44-1.4,1.06-1.32s.43,1.24.25,2.66c-.66,4.66-3.19,12.06-6.46,15.47H65.1c-.61-.35-6.29-7.44-5.74-16,0-1.54,0-2.05.69-2.05s.56.26.72,1.77c1,9.55,12.9,10.58,16.63,1.45,1.88-4.61-.09-12.81-5.06-19.82C68.57,48.72,62.16,41.54,58.4,32.22Zm6.7,57.36s.05,0,.06,0Zm56.42-50.53a1.26,1.26,0,1,1-1.25,1.26A1.26,1.26,0,0,1,121.52,39.05Zm19.53.15a1.34,1.34,0,1,1-1.33,1.34A1.34,1.34,0,0,1,141.05,39.2Zm-38.28,1.46a1.28,1.28,0,1,1-1.28,1.28A1.28,1.28,0,0,1,102.77,40.66Zm54.83,1.58-1.11,2C155.26,43.14,156.11,41.72,157.6,42.24ZM87.49,45l-1.11-2C88.36,43.05,87.78,44.47,87.49,45Zm33.87-1.11c7.5,8.54,14.23,6,18.62.33,1.89,4.85,6.09,8.19,13.33,4.94a23.46,23.46,0,0,1-1.54,2.14c-6.39,1.72-9.56-1.29-12-4.15-6.51,5.4-12.63,4.09-17.68-.67-4.32,5.43-11.3,6.59-17.77,2.16-3,4.36-7.2,6.12-12.53,3.94,0,0-1.13-1.78-1.23-1.89.78.65,10.6,4.72,13-5.08C106.94,51.37,118.15,51.68,121.36,43.85Zm.75,3.51c8.44,7.89,17.29,1.07,17.52.59.13.44,5,6.18,11.89,4l-1.13,1.94c-13.06-2.21-25.08-3.63-52.6.42,0,0,4.39-1.3,6.62-4.81C105.64,50.32,115.19,55.65,122.11,47.36ZM15.46,49.6a42.42,42.42,0,0,1-3.08,5.5c-4.93,7.66-5.21,8.39-5.61,11.1-1.1,5.29,5.15,7.43,7.15,3.82.89-1.53,1.45-.54,1.05.91-.25,2.54-2.84,5.48-2.84,5.42l7.57.06s-3.25-3.31-3.2-6c0-1.21.65-1.25,1.44-.16,2.26,3.12,6.47.61,6.5-3.82,0-2.72-.81-4.25-5.73-11.56-1.07-1.6-2.25-3.62-3.25-5.31Zm77.09,4.3s3.67.43,4,.5c.32.25-3.1,1.19-3.11,1.12ZM100,91.54c-.22,0-.5.25-1,.71-1,1-1.22,1.11-2.19,1.24a8.3,8.3,0,0,0-3.2,1.85,2.73,2.73,0,0,1-1.31.52l-1.53.27a3.08,3.08,0,0,0-.83.23,3,3,0,0,1-2.18.13,2.68,2.68,0,0,0-2,.09c-1.38.43-2.29.43-3,0a3.25,3.25,0,0,0-2.45-.36c-1,.32-3.65-1.25-3.65-2.18a4.56,4.56,0,0,0-1.87-1.34c-1.33-.2-13.06,4.43-13,4.7,14.4,17.78,26.52,44.87,17.39,78l-1.61-.77A119,119,0,0,0,80,156.4c-27-11.67-29.34-38.79-18.86-55.92l-1.78-1.9C53,102,46.52,103.9,30.81,117.08l.05,21.33c0,19.28,0,38.07,0,38.07,5.69.63,12,1.15,18.12,1.68,0,0-.08,19.07-.22,26.53-.12,6.31.12,5.91.12,5.91l20.45,10.78c-1.44-5.68,2.11-7.93,5.08-7.7-1.32-5.47,1.94-8,5.66-7.27,2.51.47,3.39,1.86,4.83,6.43.23.75.55,1.74.55,1.74l1.44-.05c1.79-3.85,3-8.76,7.21-9.39,5.52-.83,7.58,3,7.58,6.76,5.35-4.72,11.76-1.07,11.34,6,2.7-1.73,7.26-3.3,10.14,3.38,1.08-.23,1.63-1.44,3.15-1.81a11.17,11.17,0,0,0,1.86-.81v-.23a18.26,18.26,0,0,1,2.8-.68c1.37.51,1,.49,1.71-.42a6.67,6.67,0,0,1,3.2-.61,4,4,0,0,0,2.2-.1c1-.43,1.91-.54,2.49.11.42.47,1,.24,1.68.22,1.31-.05,3.05.48,3.59,1.65a11.25,11.25,0,0,0,2.55,1.65l1.41-.33.17-.52L161.58,215c-23.62-25.86-23-60.16-17.44-77.53l2.14,1c-1.14,5.14-2.42,10.43-2.25,18.1,21.26,9.49,31.85,34,18.95,55.39l1.36,1.76c5.37-2.25,18.86-9.83,23.52-13.94l1,.08s2.83-1.83,4.07-2.81l.17-56.77-1,.26-.18-3.32-17.53-1.39c.22-.17.39-.24.44-.57l-.1-31.43c-.65-1-15.34-9.6-20.8-11.61-.22,0-.07.37,0,1.27.27,3.08-1.81,5.82-4.22,5.83-.87,0-1,.37-1,2.14a4.72,4.72,0,0,1-3.5,5.16c-3.14,1.14-5.26-.51-7-7-.46-1.7-1.36-1.27-2.22,1.05a55,55,0,0,1-2.64,5.41,5.51,5.51,0,0,1-3,2.24,6.39,6.39,0,0,1-4.7-.24c-2.41-1.22-3.35-2.69-4-6.34-.09-.48-.41-.43-1.19.15-4.25,3.21-10.24-.1-10.21-5.65,0-1.63,0-1.69-1-.91-2.89,2.36-6.81,1.16-8.38-2.56-.37-.87-.56-1.25-.85-1.24Zm-24.47,2c.3,0,1.24,1.24,1.24,1.24A12.81,12.81,0,0,0,80,96.89c.12-.17,14.1,18.6,16.48,44.47l6.5,0c-1.21-25.14-8.15-37.22-11.33-45L94,95.67c5.23,10,11.6,30.37,11.39,48.18H94.63A97.61,97.61,0,0,0,76.47,95.42c-.67-1-1.2-1.72-1-1.9l0,0Zm-4.11,2.66,1.09,3.42a2.39,2.39,0,0,1,.46-1.1c2.12-1.92,4.15.6,3.2,4l-.65,3.12a32.29,32.29,0,0,0-3.2-1.44c-3-1.26-4-3.74-1.69-4,.38,0,1.16-.08,1.16-.08-.94-.74-3-2.43-3-2.43Zm9.93.38a6.76,6.76,0,0,0,4.53.56,6.2,6.2,0,0,1,3-.09,8.75,8.75,0,0,0,1.91-.22c6.36,13.38,10.73,29.25,11.46,43.77l-5,0A104.8,104.8,0,0,0,81.81,97.88c-.34-.51-.78-1.32-.47-1.34Zm20.9.23c1.93,0,4,2,5.06,5.12.61,1.75.85,1.65,1.68,1.36,2.11-.72,4.36,1.6,1.53,2s-1.2,5.89-1.43,6.37c-1.13.2-3.25-4.42-3.19-5.8.13-3.37-3-6.19-5-4.77-.93.67-.83,1.14-1.12.9a3.05,3.05,0,0,1,0-4,3.25,3.25,0,0,1,2.49-1.22Zm57.53,1.16s.11,4.44-.06,5.41c-.33,3-4.19,3.27-4.34.91a10,10,0,0,0-1.31,3.17l-2.74-1.88a14.27,14.27,0,0,0,2.8-2.33c-2,.16-3.16-1.6-1.8-3.09C153.82,98.41,158,98.22,159.77,97.93ZM59.17,99.34l1.21,1.36c-10.78,19.11-7,43.54,19,56.37a80.48,80.48,0,0,1-2.32,17.3l-9.6-4.66c.06-21.61-12.17-42.2-31.7-55.74A114.73,114.73,0,0,1,59.17,99.34Zm78.61.16c.45,2.52,2.84,7.09,3,6.83,0-.15-10,12.7-14.26,34.2h-3.68A120.11,120.11,0,0,1,137.78,99.5Zm30.56.6,2,1.19c-10.28,8.6-17.05,19.51-22,31.27l-2.59-1.23C153.39,114.27,161,106.69,168.34,100.1Zm2.74,1.91c.54,0,1.17.71,2.16,1.25s.73.82-1.09,2.21c-2.15,1.65-2.36,1.58-2.34-.78,0-1.56.41-2.6,1.16-2.68A.41.41,0,0,1,171.08,102Zm-2.37,2.42a.3.3,0,0,1,.27.13,10.41,10.41,0,0,1-.11,3.46c-.21.93-3,3.26-4,4.18-.4.26-.58.16-.65-.3,0-.73.1-1.7.11-2.69,0-.31-.06-.63.22-.86C166,106.75,167.92,104.48,168.71,104.43Zm5.13.76h0a10,10,0,0,1,0,3.57,7.84,7.84,0,0,1-3.51-.43C170.29,108,173.33,105.17,173.84,105.19Zm-96.25,1,.75,3.14s.21-.42.27-.51c1.48-2.27,3.29-.94,3.26,2.22a46.83,46.83,0,0,1-.91,5s-5.59-2.68-6-3.86a1.57,1.57,0,0,1,1.21-2.27,4.22,4.22,0,0,1,1.23,0L75,107.49Zm63.94.42,2.54.93c-5.29,8.6-10.74,17.09-14.71,36.46H118.73a113.36,113.36,0,0,1,9.87-34.8s2.09-.64,3.27-1c0,0-8.78,20.09-9.8,33l5.13.11c2.73-12.59,7.86-25.63,14.33-34.69Zm-20.11.31c1.43,0,2.48,1,2.4,2.73,0,1.63-.16,1.87-1.32,1.21a3.36,3.36,0,0,0-4.06.1c-.75.53-1.48,1-1.48,1s.65-2.82,1.65-3.72A4.64,4.64,0,0,1,121.42,107ZM116,111.14a9.75,9.75,0,0,1-.63,2.22s.83-.33,1.22-.51a2.78,2.78,0,0,1,3.83,2.66,3,3,0,0,1-3,2.81,2.92,2.92,0,0,1-1.77-.61c.43,2.33.51,3.41-1.19,4.58a2.94,2.94,0,0,1-4.27-2.75l.11-1.6-1.45.18a2.82,2.82,0,0,1-.85-5.58,3.82,3.82,0,0,1,2.71.76,4.46,4.46,0,0,1,.2-4.28c2-2.38,5.3-.22,5,2.12Zm35.24-3.1c.22,1.86,1,3.89.75,5.62-.31,2.22-2.2,3.54-3.68,2.1-.18-.18-.52-.55-.52-.55a10.41,10.41,0,0,0-1.08,3.24l-2.62-1.61a13.72,13.72,0,0,0,2.32-2,2,2,0,0,0,.21-.59,1.89,1.89,0,0,1-2.3-2.35c.79-2.15,4.71-3,6.92-3.86Zm18.28,1.35a33.52,33.52,0,0,1,3.7.37c.92.16.41.68-1.66,2.69-1.89,1.84-1.83,1.67-3.29,1.65-3.41-.06-4,0-2-2.13a13.19,13.19,0,0,1,2.69-2.51A2.42,2.42,0,0,1,169.49,109.39Zm-6.14.39a.15.15,0,0,1,.11,0c.23.21.15,1.18.13,2.6s0,1.51-.65,2.3c-.8,1-1.47,2-2.32,3-.72.8-.7.71-1.14-1.19s-.19-2.42,2.19-5.09C162.47,110.42,163.05,109.76,163.35,109.78Zm10.64,1,0,3.74A63.16,63.16,0,0,0,159,137.7l-2.44-1A70.79,70.79,0,0,1,174,110.83ZM113,113.09a2.11,2.11,0,1,0,2.11,2.1A2.1,2.1,0,0,0,113,113.09Zm0,.66a1.46,1.46,0,1,1-1.45,1.46A1.45,1.45,0,0,1,113,113.75Zm-78.12.89c21.93,14.07,31.77,35.88,31.72,54.62l-1.23-.55c-1.29-26.48-15.68-42.76-31.24-53.3Zm129.85.2c.5,0,1.17.08,2.15.19,1.82.1,2,.21.79,1.65-.34.39-1,1.21-1.46,1.83a5.31,5.31,0,0,1-1.29,1.36,27.48,27.48,0,0,1-4.48-.15c-.3,0,.09-.34,1.65-2.56,1.19-1.7,1.31-2.26,2.44-2.31Zm9.14.72s.43,12.07.12,19.77c-5-.19-8,1.71-9.17,5.31L159.6,138A68.18,68.18,0,0,1,173.9,115.56Zm-15.49.28c.29,0,.45.59.53,1.75.33,2.08.29,2.32-.57,3.65-.43.66-1,1.6-1.31,2.08-.5.85-.86,1.1-1,.69-.68-2.24-.9-3.63-.65-4.08.4-.74,2.26-3.39,2.53-3.74s.33-.35.46-.35Zm-125.11.22C50.93,127,63.83,145.62,64.36,168.14c0,0-3.76-1.76-6.08-3l-.12-2.19,1.23,0,.39,2.47,2.69-.08-.71-6.16-4.22.4L56.69,156l1.28-.28.71,2.25,2.74-.72L60,151.76l-4.24,1.16-1.35-3.71,1.41-.5,1.13,2.22,2.58-.9-2.43-5.5-3.89,1.84-2-3.59,1.52-.81,1.22,2.13,2.41-1.25-3-5.06-3.69,2.07-1.86-2.79,1.15-.8,1.26,1.47,2.12-1.5-3.24-4.36-3.54,2.77-2.62-3,1.21-1,1.8,1.62,2-1.76-3.86-4.2-3.37,3.07-2.51-2.18,1.23-1.36L41,127l1.66-2-4.19-3.45-3.15,3.11-3-2v-1.48a28.6,28.6,0,0,1,2.94,1.31l1.56-2.36-4.5-3Zm49.1.94.67,3.85c.63-1,1.13-1.77,2.5-1.37,1.65.67,1.67,3.15.27,6.94a11.55,11.55,0,0,1-.57,1.31,8,8,0,0,1-1.2-.63c-1-.69-2.7-1.47-3.57-2.83s-.92-3.43.74-3.26a6,6,0,0,1,1,.16L79.72,118Zm-50.07,1.14,3.05,2-.63,1.15-2.42-1.09Zm76.54.91c.88,1.24-2.23,4.88,1.84,6.34a1.44,1.44,0,0,1-.75,1.34c-2,1.45-4.85-1.19-4-3.91C106.56,121.08,108.2,119.06,108.87,119.05Zm8.44.12s1.23.89,1.48,1.13c2.26,2.17,2.29,5.29.23,6.38a2.55,2.55,0,0,1-3.44-.91.71.71,0,0,1,.68-1c1,0,1.72-1.87,1.43-3.84A16.91,16.91,0,0,0,117.31,119.17Zm26.75.72a25.93,25.93,0,0,0,.66,3.84c1.19,3.32-.33,5.33-2.56,4.22a4.43,4.43,0,0,1-.88-.87l-.22,3.8L137.9,130c.69-1.1,1.67-1.88,2.41-3.12l-.89,0c-1.89.07-2.59-2-.61-3.75a36.22,36.22,0,0,1,5.25-3.18Zm16.54.88c.38,0,.86,0,1.51,0,2,0,2.52-.27,1.64,1-.35.49-1.19,1.84-1.44,2.31-.5.93-.6,1.23-1.45,1.41a28.6,28.6,0,0,1-4,.14c-.31,0,.32-1,.66-1.7.85-1.58,1.37-2.67,2.11-3A2.32,2.32,0,0,1,160.6,120.77ZM154.39,122c.25,0,.43.42.66,1.32.54,2.09.67,2.15-.2,3.87-.43.86-1.18,2.33-1.49,2.94-.79,1.56-.83,1.55-1.33.15-.95-2.68-1-2.4.54-5.41C153.55,123,154,122,154.39,122Zm-115.69.73L41.54,125l-.81.78-1.57-1.16-2.31,2.48,3.81,3.48,3.22-3.18,2.77,2.89-.85.72-1.62-1.57-2.43,2.08,3.63,4.28L49,133l2.29,3-.94.59-1.49-1.45-2.38,1.65,3,4.16,3.72-2.13,2.12,3.48-1.17.56L52.94,141l-2.68,1.54,2.53,4.87,4-1.68,1.62,3.72-1.23.5-1-2.23-2.71,1.07,1.81,5.11,4.08-1.17,1,3.8-1.26.36-.62-2.11-2.59.62L57,160.51l4.16-.27.49,4.16-1.29,0L60,162l-2.65,0c0,.87.12,2.65.12,2.65l-1.6-.73A57.06,57.06,0,0,0,32.4,125.82l-.07-1.89,3.07,1.95s2.82-2.51,3.3-3.15Zm121.2,3.68c.88,0,.49.68-.58,2.72-1.2,2.28-1.41,2.32-3.65,2.87-2.72.66-2.64.81-1.17-2.33A8.64,8.64,0,0,1,156,127c.68-.53,2-.33,3.44-.54A2.91,2.91,0,0,1,159.9,126.41Zm-127.42.68c13.1,8.45,21.39,25.94,22.41,36.54a7.9,7.9,0,0,0-1.07-.57c-1-.45-1.23-.75-1.52-2.2a54.05,54.05,0,0,0-19.76-31.73Zm118.17,2.16c.55-.12,1.56,3.86,1.26,4.7-.21.6-2.16-.82-2.87-1.12C148.68,132.68,150.27,129.33,150.65,129.25Zm-63.19.18-.07,4.13a7,7,0,0,1,.76-.78c1-.71,2.46.28,2.52,1.5.08,1.69-.18,2.37-1.53,4.72-.42.73-1,1.65-1,1.65a30.11,30.11,0,0,1-3.35-2.88c-1.89-1.88-1.53-4.39.13-4.4a4.09,4.09,0,0,1,1.36.3,25,25,0,0,0-1.68-3.58Zm51.22,3.09a15.82,15.82,0,0,1,1.84,4.09c.94,2.83-.51,5-2.47,3.9a3.32,3.32,0,0,1-.72-.61,21.23,21.23,0,0,0,.14,3.86l-3.16-.55a24,24,0,0,0,1.86-3.44s-.2.15-1.07.15c-3.18,0-2.52-3.78,1.15-5.88.56-.31,2.43-1.52,2.43-1.52Zm18.22,0c.69,0,.36.64-.4,2.19-.84,1.72-.63,1.57-2.41.66-2.49-1.21-2.34-1.4.81-2.25a9,9,0,0,1,2-.6Zm-45.11.51c2.49,0,4.33,2.47,4,6-.63,6-.27,5.63.38,6.23,1.19,1.09-.42,1.74-1.84.7-1-.72-1.3-1.43-1.26-4.74,0-3.81-.15-4.78-1.51-4.44-.85.2-1.12.93-1,3.49.13,3.6-.11,4.51-1.48,5.66s-3.06.12-1.71-.63c.61-.69.73-1.57.49-3.75C107.54,139.71,106.46,133,111.79,133.08Zm61.59,3c.31,0,.63,0,.94,0,4.8.18,16.92,1.17,16.92,1.17l.1,3.58c-.54.33-9.58-1.05-16.24-.93-1.55,0-2.66.72-3.78.14,1.08.45,1,5.85-3.78,4.55-4-1.46-2.07-6.91,3.09-8.29A24.47,24.47,0,0,1,173.38,136.1Zm-26.68,2.4,10.36,5.11c1.45,19.44,8.17,40,31,55.56a126.85,126.85,0,0,1-23.62,13.62l-.87-.93c12.61-21.44,3.09-45.05-19-55.73a85.1,85.1,0,0,1,2.09-17.63Zm36.44,3.26c2-.08,2.5.15,2.67,1.05s.8,1.05,1.55.78c1.82-.67,2.93,2.57,1.42,4-.94.89-.77,1.23,0,1.24,1.9,0,1.84,2.5-.09,3.92-.8.58-.79.85.05,1.26,1.4.7,1.12,2.07-.66,3.2-1,.62-1,.77-.21,1,2,.55,0,3.43-2.25,2.92a3.3,3.3,0,0,0-2.63.55c-2.37,1-2.77,1.19-5.32.87-2.24-.41-3.25-1.15-3.83-3.12-1.31-4-2.73-8.44-2.75-12.82-.2-2.68,4.31-5.11,6.44-5.21,1.73-.27,3.72.36,5.61.38Zm-141.68.07a4.31,4.31,0,1,1-4.31,4.31A4.31,4.31,0,0,1,41.46,141.83Zm47.9,1.26L89,146.86s.64-.49.79-.62a1.55,1.55,0,0,1,2.49,1.57c-.13,1.29-2.35,5.11-3.24,5.91a60.47,60.47,0,0,1-3.94-4.64c-.84-1.68.31-3.44,1.85-2.69a8.58,8.58,0,0,1,.85.57l-1.12-3.57Zm-47.61.31c-1.53,0-3,1-2.78,2.23.13.53.94-.24,1.74-.74a2.16,2.16,0,0,1,2-.15c.62.23.89.8,1.25,1.24s.63.68.82.49a.76.76,0,0,0,.06-.66A2.94,2.94,0,0,0,41.75,143.4Zm116.08.58,1.54.79c2.07,27.48,16,43.64,30.57,53.26l-1.16.7A67.83,67.83,0,0,1,157.83,144Zm2.33,1.13s3.87,2,5.89,2.89l.08,2.49-1.35,0-.46-2.34-2.82.2.88,5.75,4.54-.55.63,3.47-1.54.32-.78-2.13-2.6.63,1.68,5.59,4.09-1.32,1.28,3.65-1.37.5-.88-2.14-2.69.94,2.08,5.45,4.26-1.37,1.72,3.42-1.29.57-1.24-2.12-2.55,1.31,3,5.09,3.85-2,1.79,2.73-1.41.94-1.28-1.66-2.07,1.36,3.31,4.52,3.32-2.48,2.47,2.85-1.09,1L177.91,181l-2,1.79,3.94,4.33,3.43-3,2.43,2.27-.72.75-1.63-1-2.17,2.31,4.14,3.6,3.29-3.6,2.79,2.05V192l-2.49-1.27-1.67,2.52,4.16,3.15,0,1.24c-23.76-14.18-30-36.16-31.22-52.51Zm-48.64.27c1,0,2.11.94,3.9,3,5,5.8,3.67,14.77-2.87,19.45-1,.68-1.34.62-2.5-.38-6.72-5.76-7.1-13.48-1.13-20.25,1-1.17,1.8-1.8,2.6-1.83Zm24,.8c1.23,1.89,2.79,3.84,3,6.14-.09,2.27-1.62,2.69-3.21,1.37a11.1,11.1,0,0,0,.48,3.52l-2.87-.31a9.47,9.47,0,0,0,1.17-3.2,2,2,0,0,1-3.24-1.88C131.39,149.34,133.43,147.66,135.52,146.18Zm-23.91,1.48a1.8,1.8,0,0,0-.86.48,12.44,12.44,0,0,0-3.83,5c-1.51,3.82-.53,8.13,2.87,11.48,1.72,1.7,2.33,1.58,5-1.93a10.2,10.2,0,0,0,1.31-10,11,11,0,0,0-3.32-4.32c-.55-.44-.84-.65-1.14-.63Zm55.22.71,2.22,1.09c2.84,18.74,12.06,30.18,22.38,38.06l0,1.74-2.77-2.15-3.32,3.47-2.69-2.2,1-1,1.53,1,2-2.2-3.85-3.43-3.36,2.91-2.8-2.88.85-.71,1.93,1.69,2.17-1.92-3.75-4.2L175,180.18l-2.34-3.1,1-.61,1.23,1.68,2.58-1.61-2.73-4.2-3.9,2-2-3.59,1.13-.54,1.3,2,2.42-1.16-2.44-5-4,1.32-1.46-3.9,1.14-.42,1,2.31,2.69-.87-1.83-5.33-4.11,1.16-1-3.92,1.27-.27.67,2.12,2.83-.57-1-5.08-4.21.53a37.62,37.62,0,0,1-.75-4.06l1.3-.11.41,2.24,2.83-.1Zm-55.07.41c1.54.21,3.42,3.18,3.85,4.26a9.46,9.46,0,0,1,.14,6.52,14.59,14.59,0,0,1-3.58,5.13c-.93.51-1.71.13-3-1.67-2.62-3.57-3.13-7.86-1.06-10.8,1.59-2.25,2.76-3.45,3.69-3.44Zm58.05.92,1.12.53c1.37,10.86,7.81,25.77,20.48,34.68v1.36c-9.85-7.07-18.9-19.26-21.6-36.57Zm-58.25.74c-4.41,3.33-3.71,8.53-.37,12C114.79,160.1,116.07,153.66,111.56,150.44Zm-67.32.22c2.49,0,4.06.81,4.82,2.54a15.82,15.82,0,0,1,1.58,4.59c.14.8.35,2,.47,2.69,1.29,7.28.34,10-4.08,11.16a10.26,10.26,0,0,1-4.44.14c-.34-.08-1.58-.09-2.55-.12-1.93-.06-2.51-.26-3.48-1a2.32,2.32,0,0,0-1.11-.57c-2.2-.35-2.86-2.37-1.19-3.87,1-.85,1.05-1,1-1.11a1.76,1.76,0,0,0-.9-.15c-2.23,0-2.2-2.3,0-3.94,1.07-.77,1.55-1.51.84-1.33-2,.48-2.74-2.48-.62-3.4,1.13-.63,1.94-1.16.85-1.22-.91.08-1.66-.59-1.38-1.39a3.2,3.2,0,0,1,3.27-1.51c.83.25,1.65.49,2.17.11a6,6,0,0,1,2.93-1.47,15,15,0,0,1,1.83-.1Zm73.95.56,10.23.2-.31,10-9.63-.18a12.91,12.91,0,0,0-.29-10Zm-22.91.23,9.79.12a15.29,15.29,0,0,0-.41,9.85l-9.59-.15Zm16.36,0c2.63,1.54,3.35,7.12-.3,10C107.86,157.87,108.55,153.52,111.64,151.46Zm-24.16,4.36,2.62.25-.93,3.76a2.93,2.93,0,0,1,.56-.49c3.37-1.59,3.61,2,.18,5.24-.76.72-2,1.7-2,1.7s-1-1.45-1.71-2.75-1.45-2.72-1.3-3.47a1.58,1.58,0,0,1,2.35-1.14c.4.33.88.82.88.82Zm46.87,2.76s1.1,1.13,1.77,1.86c2.32,2.54,2.72,4.91,1.55,5.63a2,2,0,0,1-2.45-.51,15.93,15.93,0,0,0,1.38,3.9l-3.46.55a22.17,22.17,0,0,0,.79-4.34,7.18,7.18,0,0,1-1,.68c-2.26.83-3.38-1.74-1.52-4.3a27.42,27.42,0,0,1,3-3.47Zm47.28,4.75a4.21,4.21,0,1,1-4.21,4.21A4.2,4.2,0,0,1,181.63,163.33Zm2.07,1.93c-.18,0-.33.45-.35,1.37-.21,1.89-1.78,2.65-3.49,1.77-.7-.35-1.29-.87-1.29-.47a4.93,4.93,0,0,0,1,1.72c1.46,1.31,5,1,4.92-2.05C184.4,166.17,184,165.19,183.7,165.26Zm-76.34,1.57a1.87,1.87,0,0,1,1.4.55c1.15.78,1.37,1.78,1.44,5.57.07,3.34,0,3.42.55,3.83,1.35,1,2.16-.52,1.78-3.91s.8-5.62,2.77-5.61c1,0,1.15.58.41,1.3s-1,1.7-.72,3.59c.62,4.82.08,7.19-1.94,8.17a3.75,3.75,0,0,1-5.32-2.82,22.55,22.55,0,0,1-.09-5.88c0-2.1,0-2.34-.74-3.54C106.39,167.28,106.77,166.87,107.36,166.83ZM54.15,168.4a3.48,3.48,0,0,1,3.11,2.17c1.76,3.62-2,6.6-5.52,6.83a139.64,139.64,0,0,1-19.29-1.59l.09-3.42c5.57.32,11.85.78,18.61,1.09-.77-3.18,1.06-5.08,3-5.08Zm31.79.7,3.37.74-2.15,3.5a2.1,2.1,0,0,1,1.71-.23c1.37.49,1.39,2.23.39,3.85-.8,1.18-3,2.59-4.56,3.45-.85-1.84-2.75-5.06-2-6.82a1.82,1.82,0,0,1,2.53-.88c.35.21,1,.54,1,.54Zm8,.1,10.26.12c-1.49,10.36-4.41,24.2-10.16,35.49l-2.41.62c5.07-11.21,8.44-21.72,10-33.48H96.47c-3,12.62-7.31,24.31-14,34.47l-3-1C86.63,194.08,92.31,181.4,93.89,169.2Zm23.39.18h11.43c2.1,21.11,9.23,35.51,19.85,49.76a2.2,2.2,0,0,1-1.07,0,6.62,6.62,0,0,0-3.76-2.63c-8.92-12.85-14.9-30.8-16.35-44.54h-6.79c.77,17.25,5.55,31.4,11.91,45.1l-3.45.63C123.94,205.42,118.34,194.75,117.28,169.38Zm17.78,2.6c.94.73,2,1.45,2.92,2.14,2.57,1.81,2.54,5.22,0,5.2l-.89,0s1,2.23,1.67,3.37c-1,.27-3.22.68-3.22.68a27.76,27.76,0,0,0,.25-4,3.13,3.13,0,0,1-.77.63c-1.66.7-3.06-.75-2.85-2.46C132.49,175.17,135.06,172,135.06,172Zm-76.35.42,5.63,2.79c-3.84,8.73-8.23,16.9-14.58,23.11l.17-20.17C53.39,178,57,178,58.71,172.4Zm38.47.31h3.46c-1.54,16.1-12.17,37.88-14.17,40.51l-.66.49s-1.36-4.94-3-6.7c6-8.1,12.29-23.65,14.33-34.3Zm24.33,0h5.23c1.63,12.83,5.59,26.69,15.64,43.52a3.32,3.32,0,0,1-1.78-.36c-1.71-1.06-2.9.34-3.93.29a8.57,8.57,0,0,0-3.51.21A118.4,118.4,0,0,1,121.51,172.71Zm-56.46,2.88,1.87.88c-4,9.29-7.61,16.67-17.12,25.73l0-2.7c6.68-6.47,11.19-15,15.29-23.91Zm2.72,1.3a24.4,24.4,0,0,1,2.72,1.33c.28.11.2.36.21.62-.36.89-1.92,1.27-2.51,1.44s-1.41.35-1.54.38c-.81.19-.55-.63.33-2.41C67.38,177.44,67.53,176.91,67.77,176.89Zm3.73,2a9.64,9.64,0,0,1,3.29,1.66c.18.53-.31,1.36-1,2.9-1.1,2.37-1.32,2.43-1.64.48-.06-.34-.39-1.44-.58-2.18C71.09,180,71,179,71.5,178.86Zm4.08,1.91s1.31.64,1.74.92c-5.86,17.54-21.45,32-21.37,31.7L53.52,212c10.38-9.37,18-20.45,22.06-31.19Zm-6.19.25c.57,0,.07.71-.69,2.4s-1,2.24-1.64,2.5a26.25,26.25,0,0,1-3.61.58c-.53.09-.31-.31.51-2,.95-1.95,1-2.35,2.51-2.76A23.62,23.62,0,0,1,69.39,181Zm2,3.49c.61,2.17.6,2.6.19,3.35-.76,1.42-1.75,3.07-2,3.52-.68,1.12-.88.88-1.28-1.84-.25-1.68-.47-2.44-.29-3.18.34-.83,1.36-2.78,1.93-3.93.83-2.44,1.27,1.86,1.47,2.08Zm10.79-1.9,3.07,1-2.41,2.91a7.9,7.9,0,0,1,1.13-.14c2.41.17,2,2.57.14,4a34.12,34.12,0,0,1-4.6,2.45c-.41-2.15-1.25-3.52-1-5.73.14-1.19.25-2.26,1.7-2.3.77,0,1.08.75,1.58,1.38Zm55.69,2.61a26.26,26.26,0,0,1,3.56,2.27c2.24,1.73,2.62,3.75.39,4.53a4.19,4.19,0,0,1-1,0,20.27,20.27,0,0,0,2.08,2.67A10.82,10.82,0,0,1,140,196s-.29-2.67-.56-3.7a2.42,2.42,0,0,1-.66.81c-2.16,1.34-3.85-1.18-2.69-4.38a17.34,17.34,0,0,1,1.79-3.52Zm-23.69.44c5.38-.13,2.23,8.69-.46,8.12,0-.08,2.22-5.22-.83-6C111.54,187.37,112.74,185.65,114.23,185.66Zm-8.83.63c1.68,0,2.89,1.17,1.3,1.91-2.52,1.17-1,4-1,5.55,0,1-2.24-.85-2.73-2.81C102.39,188.39,102.68,186.51,105.4,186.29Zm-39.79.93a1.39,1.39,0,0,1,.74.1c.16.41-.59,1.71-1.69,3.38A3.6,3.6,0,0,1,63.47,192a7.41,7.41,0,0,1-3,.42c-1.48,0-1.22,0,.42-2.56a11,11,0,0,1,1.63-2.36,18.75,18.75,0,0,1,3.12-.32Zm1.94,1.83c0,3.19,1.08,4.24.28,5.24a43.15,43.15,0,0,1-2.66,3.82c-.76.91-.67.74-.87-1.64a10.75,10.75,0,0,1-.08-3.43c.65-1.56,1.42-2.31,2.23-4,.63-1.34,1.1-1.12,1.1,0Zm42.47,1.6c1.56,0,2.53,1.68,2.45,3.21l-.06,1.46c2-.78,4.52,0,4.63,2,.19,3.35-2.28,3-4.37,2.82.21.08.52,3-.73,4.17-2,2.19-5.59-.05-4.68-3.25a6.81,6.81,0,0,0,.23-1.09,8,8,0,0,1-1.76.45c-4-.17-3.66-5.77.32-5.11a8.17,8.17,0,0,1,1.36.33l-.22-.85C106.61,192.59,107.83,190.62,110,190.65Zm79.25,1,2.14,1.23v2.38l-3-2.25Zm-128,1.59c.84,0,1.5.06,1.37.26,0,.43-1.84,3-2.93,4.16-.93,1-1.06.86-3.33.74-.89,0-1.47-.05-1.45-.28,1-1.38,2.49-3.14,3.48-4.62a15.61,15.61,0,0,1,2.86-.26Zm2.08,1.12c.16,0,.2.34.2,1.08,0,.56.08,2.29.16,3.05.15,1.36.15,1.36-.44,2.18s-1.44,1.89-2.36,2.77c-1.38,1.53-1.24,1.62-1.22-1.66,0-2.55-.18-2.55.34-3.15.29-.34,1.16-1.41,1.74-2.25.88-1.28,1.35-2,1.58-2Zm13.17.45,2.84,1.52-2.85,2.89a7.43,7.43,0,0,1,1,0c1.82.35,1.69,2.29-.15,3.74a44.72,44.72,0,0,1-5,2.12,38,38,0,0,1-.42-4.87,3.55,3.55,0,0,1,.72-2.38,1.52,1.52,0,0,1,2.15-.1,4,4,0,0,1,.8,1Zm33.53,1a2,2,0,1,0,2,2A2,2,0,0,0,110,195.8Zm31.77.47a21.22,21.22,0,0,1,5.39,2.94c1.57,1.3.83,3.45-.72,3.5-.11,0-.77-.1-.77-.1.52.8,2.29,2.76,2.29,2.76l-2.88,1.17s-.46-2.21-.81-3.46c-1,2.32-3.48.81-3.64-.63C140.24,200.34,141.14,198.27,141.78,196.27Zm-31.77.18a1.4,1.4,0,1,1-1.4,1.4A1.4,1.4,0,0,1,110,196.45Zm-54.89,2.87c1,0,2.25,0,2.81.07.43.33-.46,1.34-2.19,3.15-1.38,1.45-1.58,1.25-3.26,1.26-2.8,0-2.87,0-1.58-1.42a16,16,0,0,1,2.88-3,7.93,7.93,0,0,1,1.34-.08Zm3.42,1.41c.3-.06.22.7.17,2.41l-.08,2.91-2.19,2.1c-2.52,2.27-2.22,2.41-2.2.29a9.5,9.5,0,0,1,.36-3.61c1.1-1.33,2.25-2.51,3.5-3.78A1.19,1.19,0,0,1,58.54,200.73Zm55.52.72c.61,0,2.16,2.61,2.55,4.83.89,5.08,3.93,7.49,6.07,5.45.88-1.2,1,.11.93.73-.45,6.44-7.74,3.76-8.57-2.63-2.56,1.66-5-1.7-3.42-1.64,3.6-1.15,2.62-4.46,2.44-6.74Zm-8.44.05c.35,2.23-3.66,6-5.92,3.37-1.15-1.37-.1-4.17,1.36-2.44C102.67,203.62,104.24,202.24,105.62,201.5Zm-55.15,3.05c.83,0,2,.14,2.54.07.74.07.21.43-1.38,1.88-1.37,1.25-1.76,1.81-1.92,1.26-.08-.84,0-1.85,0-3a1.39,1.39,0,0,1,.8-.17ZM69.18,206l2.45,1.79-2.43,2.23c2.18-.1,2.37,1.94,1.55,3.08-.54.79-2.6,1.63-4.67,2l-2.25.35s0-1-.08-2.55c-.08-3.25.15-4.53,1.4-5.17a2.41,2.41,0,0,1,2.78,1.09,6.64,6.64,0,0,0,.45.75Zm-15.75.18h0c.14.19-.36,5.49-.36,5.49l-3.55-2s3.59-3.43,3.89-3.49Zm93.88.62c2.53,1.19,4.42,1,6.12,2.44a2,2,0,0,1,0,3.38,4.23,4.23,0,0,1-1.3.07,18.59,18.59,0,0,0,2.86,2.49l-3.11,1.3s-.43-2.09-.83-3.24c-.56,1.7-2.48,1.66-3.57.86-.78-.59-1.1-2.58-.73-4.3.1-.45.6-3,.6-3Zm11.37,17.26c3.21,4.52,5,8.31,5.49,14,.3,3.5.2,4.15-.63,4.14-.53,0-.76-.26-.76-.86.06-9.49-11.63-11.72-16-3.52-2.56,4.8-1.3,11.17,4.19,19.85,5,8.22,11.54,14.46,15.24,23.3,3.66-8.78,11-16.16,16.27-24.62,7.59-10.88,5-22.35-4.41-23.56-4.3-.55-9,3.75-9.55,8.21-.12,1-.33,1.29-.88,1.2-.73-.1-.46-2.07-.14-4.69a33.42,33.42,0,0,1,5.5-13.43ZM204,236.63a19.7,19.7,0,0,1,2.71,4.38,5.38,5.38,0,0,1,.3,2.41c-.2.51-.68.12-1.28-.67-1.63-2.18-4.86-1.48-6.17,1.35-1,2-.42,4.66,1.34,7.64,2.1,3.89,7.25,10.88,7.4,11.52a99,99,0,0,1,6.05-10.42c1.4-2.38,2.44-4.39,2.5-7.53-.32-3.91-5-5.52-7.08-2.49-.68,1-1.08,1.28-1.3.48-.16-.54.32-1.7.57-3a14.55,14.55,0,0,1,2.28-3.72ZM130.7,256.12C100,263.39,75.11,258.9,72.64,258l-2,2.91c-.24.5-.39,2-1.71,2.38l-2,3,.39.41-1.76,1.53.42.52-1.28,1.86-.5-.05-3,4.51.45.5-6.81,10.66,92.15,0C141.72,276.17,136,266.26,130.7,256.12Zm-.56,1.32.55,1.52c-1.53-.19-3.31-.28-5.12-.36,1.59-.33,3.19-.73,4.57-1.16Zm-5.35,1.32a15.52,15.52,0,0,0-6,4.67,15.91,15.91,0,0,0-6.35-2.81ZM73,259.5l1.31.15s-.44.34-.75.27A1.62,1.62,0,0,1,73,259.5Zm58.7.76.83,1.64c-2-1.06-10.53-3.48-13,5-2.55-3.45-13.06-8.45-18.39,2.17-1.52-2.87-10.34-11.15-18.39-.6-3.17-6.56-5.82-7.11-11.64-6.21,4.13-4,10,.16,12.42,3.55,7-5.76,12.75-4,17.83.65,6.54-7.12,13.07-5.41,17.66-1.83,3.23-4.75,6.38-6.18,12.63-4.38Zm-53.61,0c4.13.56,8.26.81,12.38,1-2.39.88-4.84,1.63-6.78,3.4A15.71,15.71,0,0,0,78.09,260.3Zm29.77.66a30.42,30.42,0,0,0-6.62,4.33,20.6,20.6,0,0,0-6.62-3.93,92.15,92.15,0,0,0,13.24-.4Zm100.46,2.31v0S208.32,263.28,208.32,263.27Zm-74,1.06s-.83.14-1.1.21a3.1,3.1,0,0,0,.9,6.1,12.27,12.27,0,0,0,1.24-.14c-.07,3.48,1,4.32,4.54,4.13l6,10.76-89-.38L62.49,276c2.85.34,4.63-1.25,4-3.66a15.06,15.06,0,0,0,2.24.54c3.22,0,4-4.92,1-5.78-.35-.09-1.21-.19-1.31-.22,1.41-3.52,5.28-1.44,6.4,0,2.49-2.05,5.26-1.13,6.44,1.53,0,0-.46-.26-.61-.37-2.93-2.14-5.65,2.3-2.78,4.34a3.94,3.94,0,0,0,.88.38,3.24,3.24,0,0,0-.67.82,3.28,3.28,0,0,0,3.8,4.76c2.22-.86,2.25-2.54,2.25-4.37,0,0,.77.06,1.46.06,2.66,0,3.43-3.38,1.79-5a4.25,4.25,0,0,0-2.6-.9c3.07-3,5.16-.93,7.32.46.33,0,3.77-4.13,7.85-.08a3.11,3.11,0,0,0-4,2.83c0,1.33,1,2.5,3.05,2.59a5.49,5.49,0,0,0-.38,1.82,3.18,3.18,0,1,0,6.25-.79,2.34,2.34,0,0,0-.68-1.05,3,3,0,1,0,1-5.86,3.08,3.08,0,0,0-2.47,1.12c2.2-4.5,6.23-3.6,7.73-1.76,2.07-1.5,4.92-3.55,8.33.1a4.56,4.56,0,0,0-2,0,2.78,2.78,0,0,0-.57,5.19,4.55,4.55,0,0,0,2.14.43,3.24,3.24,0,0,0,4.75,3.57c1.63-1,2-3.33.3-5.46,3-.13,3.24-3.82,1.54-5.11-1.34-1-2.92-.54-4.06.8-.37-1.06,2.55-4.74,6.68-2.09,2.19-1.83,4.36-2.39,6.84-.56Zm1.29,2.88,1.16,2.1A1.33,1.33,0,0,1,135.57,267.21Zm-14.93,2.13a1.31,1.31,0,1,1-1.31,1.31A1.32,1.32,0,0,1,120.64,269.34Zm-54,.08c.18.7.25,1.41-1,1.54Zm130.9.61V273h2.4l6.78,15.61-6.5,10.14H197.5v2.6h9.31v-2.6h-2.72l8.28-12.64v12.64H210v2.6h8.42v-2.6h-3.07V273h3.07V270H210V273h2.38c.06,2.53.07,4.7,0,7.23-1.18,1.58-2.41,3.5-3.71,5L203.43,273h3.38V270Zm-115.85.66a1.2,1.2,0,1,1-1.2,1.2A1.2,1.2,0,0,1,81.65,270.69Zm20,.37a1.28,1.28,0,1,1-1.28,1.27A1.27,1.27,0,0,1,101.63,271.06Z" transform="translate(-5.81 -11.5)"/>
  </g>
</svg>
