<svg xmlns="http://www.w3.org/2000/svg" viewBox="0 0 211 284.5">
  <defs>
    <style>
      .a {
        fill: #131f67;
      }

      .b {
        fill: #e2cf00;
      }

      .c {
        fill: #d40000;
      }
    </style>
  </defs>
  <title>sk</title>
  <g>
    <path class="a" d="M25,17.18H187.25l.29,256.55L24.82,273.3s0-167.41.14-256.12Zm115.24,254.7c-6-10.79-15.58-28.34-15.87-28.46-3.53,1.85-39.54,6.59-56.87,2-5.95,8.77-11.73,17.43-16.86,26.12ZM84.94,239.63c-.91,0-1.92.56-1.73.09.11-.28.37-3.05.48-4,.26-.44.65.71.6,1.78,0,.62.28.18,2.33.28a29.89,29.89,0,0,1,4.79.69c2.63.56,7.7.16,9.92-1.4,1.18-.85,1.63.07.41,1-5.48,4.08-9.83,2.53-14.59,1.84a13.07,13.07,0,0,0-2.16-.22Zm2.33-3.84a.86.86,0,0,0-1,0c-1.68.77-1.24-.33,0-1.45.55-.51.53-.77.12-1.31-.21-.26-.57-.3-.49-.7.37-1.76,2.87-4.4,5.66-5.59,1.16-.49,1.34,0-.12.89-2.27,1.31-3,2.43-1.72,2,2.48-.89,4.74-.27,7.94,1.29a3.19,3.19,0,0,0,2.09.45c.58-.47,1.08.09,1.44.39s.27.25.52.19c1.8-.41.72.72-1.75,2.49C95.48,237.41,90.67,238.86,87.27,235.79Zm6.8.76a15.9,15.9,0,0,0,5.35-2.82c1.64-1.41.72-1.2-1.17-.3A15.12,15.12,0,0,1,90.54,235c-2.57-.06-2.49-.16-2.59.15-.32,1.06,3.22,2.19,6.12,1.34Zm-5-4.32a2.29,2.29,0,0,0,.12-1.32c-.23-.37-.74-.1-1.4.71-.39.5-.34.57,0,1l.51.25c.56.22.65-.28.76-.66Zm1.13.66c.78-2.65,2.56-2.6,3.82-.07h.89c-1.84-4.91-5.38-2.44-5.5,0a1.51,1.51,0,0,0,.79,0Zm6.6-.46c.84-.45.72-.76-.35-1.3-.76-.38-1.15-.46-1.29-.22a3.25,3.25,0,0,0,.35,1.76c.31.18.78,0,1.27-.27Zm-11.7-7.52c-.16-.25-.13-.7.45-1,3.58-1.62,1-5.07-1.79-2.49a3.35,3.35,0,0,1-3.2.62c-1-.41-1-1.55.3-1.79a6.79,6.79,0,0,0,1.86-.57c4.82-2.53,7.37,2.95,4,4.8-.74.39-1.49.61-1.61.38Zm-13.48-5A2.92,2.92,0,0,1,70.29,216a3,3,0,0,1,1-1.13c1.16-.77,2.36-1,5.56.57,2.27,1.1,3.56-.08,3.5,1.2,0,.78-.08,1.56-1.4,1.75-2.14.3-3.6-2.54-6.35-2.28a1.53,1.53,0,0,0-.29,3c1.88.58.73,1.33-.65.78Zm35.89.43c-.36.17-.53-.6-.38-1,1-2.27,1.88-4.08,2.76-6.2.71-1.7,1.18-2.44,1.5-2.43s.48.25-.07,1.3c-.83,2-3.83,8.46-3.83,8.27Zm-16-.59c-.87-.6-.73-1.49.25-.81,1.27.87,3.34-.73,2.92-2.23-.52-1.83-3-2.27-5-.64-3.25,2.57-6.82,2.71-6.82.7,0-.58-.08-.71,1.27-.8a10.67,10.67,0,0,0,4.22-1.38c4-2.37,8.17-.73,7.29,3.22A2.89,2.89,0,0,1,92.14,220a2.8,2.8,0,0,1-.63-.23ZM77,213.9c-.32,0-.9.31-1.07.18-.33-.24-.28-1-.56-1.69-.47-1.33,0-.91.84-.56a4.52,4.52,0,0,0,3.2,0,10.62,10.62,0,0,1,4.42,0,9,9,0,0,0,4.16-.27c1.66-.51,1.22-.33,1,.67a6.54,6.54,0,0,1-.62,1.77,2.59,2.59,0,0,0-2.78,0,4.23,4.23,0,0,1-3.14.33,2,2,0,0,0-2.3,0c-1.31.63-1.9-.41-3.1-.47Zm24.81-2.77c.23-.4.57-1,.89-1.58,2.57-5,2.74-6.4.93-8.09-2.44-2.27-4.51-1.29-6.86,3.25-.56,1.1-.9,2-1.13,2.26s-.57.09-.72-.07a26.85,26.85,0,0,1,3.31-6.14c2.66-2.75,7.6-.55,7.29,3.19-.16,1.88-.52,2.94-2.28,6.36-.43.85-.81,1.58-1,2-.83.51-.64-.73-.4-1.14Zm-24.22-.2c.41-1.79,6.24-2.61,7.77-.27.15.23.06.22-.6,0-3-1-3.54-.91-6.38.19-.44.21-.75.28-.8.08Zm22.23-.33a5.18,5.18,0,0,1,.55-1.48c2-3.77,2.47-4.68,1.88-5.39-1.16-1.37-2.71-.17-4.13,3.76-.53,1.48-.9,1.16-1.16,1-.49-.45,1.71-5,2.77-5.71,2.41-1.5,4.31.24,3.24,3.32-.83,1.38-1.51,3.52-2.29,4.64-.37.51-.87.37-.86-.08Zm-8.71-6.13c-.12-.2.11-.45,1-2.21,1.15-2.41,1.51-3.31,1-4.68a3.67,3.67,0,0,0-5.86-1.45A5.23,5.23,0,0,0,85.88,198a32,32,0,0,1-1.67,3.85c-.35.35-.85.42-.82-.2a20.4,20.4,0,0,1,1.74-4.22c2.66-5.69,10.34-3.06,8.55,2.95a15.89,15.89,0,0,1-1.9,4.35.4.4,0,0,1-.56,0,.43.43,0,0,1-.13-.3Zm-1.78-1.07a9.74,9.74,0,0,1,.6-1.46c1.3-3.16,1.31-4.12-.59-4.17-1.13.14-1.3.6-2.29,3.09a12.38,12.38,0,0,1-.69,1.64c-.21.26-.6.11-.76-.06-.4-.4,1.37-4.49,2.31-5.26a2.43,2.43,0,0,1,3.64,3.13,16.89,16.89,0,0,1-1.5,3.26C89.72,204,89.32,204,89.32,203.4ZM43.45,166.59l-6.54-.44C38.07,173,38.13,180.61,37,186a37.8,37.8,0,0,0-.71,11.95c.34,4.65,2.34,8.57,2.84,13.49.36,3.56-.44,7.28-1.16,10.8-1.2,5.89-1,6.53-.77,13.48.16,6.45-.45,6.22-.82,5.89a14.47,14.47,0,0,1-.1-2.55c0-1.35-.08-4.67-.16-7a46.44,46.44,0,0,1,.74-10.33c.77-3.4,1.63-6.88,1.09-10.65-1.09-4.75-2.6-9.5-3.16-14.08-.66-5.64,1-11.31,1.49-15.41s0-10.8-1.08-13.66a7.37,7.37,0,0,0-1-2.19,21,21,0,0,0-3.36-.27c-.08,27.2,0,54.41,0,81.62l6.1,5.56,6.27-5.89Zm.45,31.21s9.31,5.27,19.57,10.46c-1-5.94,2.13-6.87,5-7.52-.71-11.46,9.92-9.11,11.59.84h1.06c1.85-5,3.68-8.39,7.88-9.21,3.27-.63,6.48,1.4,7.3,6.19-.14-.33,10.81-6.33,11.12,6.33,5-3,8.52-.41,9.92,3.46,2.11-3.16,7.37-3.3,9-3.53.59-.66,1.62-1,3.5-1,1.6-.09,3.77-1.26,4.88.18,1.69.26,3,0,4.43,1.06,1.15.86,2.43,2.78,4.35,1.46,3.65-1.74,7.76-2.52,11-4.6,0,0-.86-1.1-.61-1a3.73,3.73,0,0,0,1.12.81,11.43,11.43,0,0,0,2.22-1.09c-13.6-15.44-24.81-45.56-17.41-73.44.21-.47-.62-.66-1-.82a1.18,1.18,0,0,1,1.27,1.84,143.76,143.76,0,0,0-2,15.56,8,8,0,0,0,0,1c30.51,13.85,26.79,43.86,18.93,54.3l1.24,1.63c.55.35,24-13.11,23.23-13.66l4.44-2.17L185.35,126l-17.56-1.33a1.53,1.53,0,0,1,.42-.62c.15-3.59-.17-8.9,0-13.36.07-12.7.19-17,0-17.37-5.42-3.51-13.5-8.65-20.29-11.13.28.08-.1,5.26-.31,5.56-6.36,2-3.41,4.55-5.76,7.29-1.58,1.71-5.28,2-7,0-2.14-2-3.14-6.69-3.14-6.69-3.36,3.55-2.67,7.86-7.17,9.44-7.24,3.53-9.54-7-9.12-6.8-2.77,2.63-10.55,4.77-11.39-6.34-3.5,3.17-7.42,1.6-9.09-2.3-2.13.08-4.53,1.71-6.69,2.61a17,17,0,0,1-6.48,1.35,15.51,15.51,0,0,1-6.5-.36c-1,.32-3.27-.64-4-2a2.75,2.75,0,0,0-3-1.09C64.74,84.65,61,85.09,56.92,87c-.26.18.35.51.14.44a12.69,12.69,0,0,0-2.15,1c20.84,26.92,21.92,54.09,17.56,73.34-.16.67-.26,1.15.18,1.68-.65-.12-.66.08-.79-.34L74,146.9c.07-2,.32-1.8-1.43-2.53a33.75,33.75,0,0,1-4.46-2.13c-5-3.62-10.78-8.14-13.54-13.82-7.93-12.21-5.33-26.78.64-38.28L53.7,88.56C36.28,97.15,26,106.42,26,106.42l.07,57.74,17.91,2Zm-8.66-38.57a2.36,2.36,0,0,0-2.65-.26c-.14.11-.44.72-.53.7-.81-.2-1.37-.37-1.48-1l.87-1.28c.67-1,1.65-1.38,3.31-1.76.58-.13,1.48-.26,1.79-.38,1.25-.53,1.67-1.68.41-1.17-.91.25-2.2.17-2.37-.66a1.13,1.13,0,0,0-1.34-.88h0a12.57,12.57,0,0,0-3.41,1.57c-.48.28-1.38.92-1.38.92-.14.23-.67-1.38-.18-1.85A3.4,3.4,0,0,0,30,153c1.48-.59,2.9-1.29,4.39-1.85,1-.37,1-.33.8-1a2.45,2.45,0,0,1-.07-1.49c.17-.45.15-.68-.14-.87-.68-.45-2.29,0-4.56,1a8.37,8.37,0,0,0-1.58.8c.28-.71.12-.83.11-1.57a4.33,4.33,0,0,0,2.5-.63,7.86,7.86,0,0,1,3-.84c.46-.05.25-1.7-.27-2.18s-1.52-.46-2.77-.1-2.51.51-3.29,1.7c-1,.9,0-1.5,1.8-2.46a22.05,22.05,0,0,0,2.89-.48c.68-.14.79-1.72-.2-2.4-.63-.53,2.26-.54,2.2-.38a1.28,1.28,0,0,0,.16,1,1.87,1.87,0,0,1,1.34,1.78c1.43,2.31,2.12.87,3.1.07-.2,5,1.58,5.59,1.82,5.89-2.45,4.5-.61,4.61,1.69,5.65a4.59,4.59,0,0,1-1.45.31c-.92-.06-2.66,1-3.43,1.63-.42.35-.43.06-2.12,0a4,4,0,0,0-2.43.39c-1.43.62-1.42,1.21,0,1a2.63,2.63,0,0,1,3.12,1.85.83.83,0,0,1,0,.62c-.31-.05-1,.06-1-.09A1.85,1.85,0,0,0,35.24,159.23Zm2.17-6.08a.88.88,0,0,0,.15-1.23l0,0a2.51,2.51,0,0,0-2.07.22c-.86.7.73,1.82,1.95,1.07Zm.86-3a1.36,1.36,0,0,0,.13-1.84,1.68,1.68,0,0,0-2.36.08,1.73,1.73,0,0,0-.39.7c-.11,1.25,1.58,1.89,2.62,1.09ZM37.66,146a1.23,1.23,0,0,0-1.11-1.33,1.26,1.26,0,0,0-.74.16c-1.15.6-.46,1.85,1,1.77.8,0,.8,0,.86-.57Zm-3.38-4.06a.72.72,0,0,0-.35,1,.65.65,0,0,0,.29.32c2,1.13,1.41-1.81.06-1.25Zm141.18,6c-.89-3.22-3.33,0-3.34,0-.08-3.29.54-4.77-2-5.89,2.52-3.75,2-4.27-.67-5.72.24,0,3.55-.7,4.11-2.56.12.09,5.18,1.32,5.82-1.4-1.53.67-4.54.78-4.57-2.14.28-.09,1,.06.94.15-.4,1.88,3.06,2.34,3.64.86a8.39,8.39,0,0,0,1.68.88s-1.58,2.28-3.08,2.61c-2.68.88-3.61,1.11-3.61,1.64,0,.21.43.24,1.24.39,1.66.12,1.63.48,1.84,1s.39.57.95.53A8.78,8.78,0,0,0,182.6,136c.16,0,.35,1.37.45,1.42,0-.22-1.34.17-3.44,1.38-1.71,1-2.37,1.12-2.59,1.39s.24.82.29,1.49-.35.85-.06,1a2,2,0,0,0,1.5,0,12.65,12.65,0,0,0,3.9-1.73c-.28.53.19,1.86.19,1.86a1.46,1.46,0,0,0-1.2-.22,29.33,29.33,0,0,1-3.17,1.17,1.64,1.64,0,0,0-.8.31c-.22.17-.18.6-.19,1.21,0,.45-.13.85.16,1a5.93,5.93,0,0,0,3.15-.31c.54-.23,1.69-.85,1.69-.85l-.35,1.84c-.49-.54-1.88-.13-2.81.22a1,1,0,0,0-.73.84,1.14,1.14,0,0,0,.75,1.39,2,2,0,0,0,.87.08c-2.41.92-2,1.24-3.34.56a5.35,5.35,0,0,1-1.41-2.07Zm2.52,0a1.52,1.52,0,0,0-1.51-.53c-.36.19-.23.58-.11.89.28.86,2.42.6,1.62-.33Zm-1.41-2.29c.57-.74-.06-1.71-1.1-1.72a1,1,0,0,0-1.1.87v.11c0,1.11,1.73,1.38,2.2.77Zm-1.16-2.78a1.16,1.16,0,0,0,1-1.33,1.11,1.11,0,0,0-.33-.63,2.41,2.41,0,0,0-2.56-.11c-1.1,1.17.17,2.57,1.92,2.1Zm.87-3.66c.62-.31.74-.83.19-1.42-1-.82-2.71-.17-2.15,1a1.46,1.46,0,0,0,2,.46ZM50.33,111.45a19.79,19.79,0,0,0,2.56-1.58c.65-.35.45-.3-.38-.78-.66-.3-2-1.62-2.11-1.3A9.39,9.39,0,0,0,50.33,111.45Zm23.36,32.21c0-.62.11-1.57.1-2.26.12-1.32-.11-1-.84-.5-.54.34-1.4.86-1.74,1-1.34.64-1.18.68.7,1.57C73.45,144.19,73.67,144.13,73.69,143.66Zm-1.82-3.08c1.27-.78,1.69-1.2,1.76-2.08s-.12-1.39-1-.69c-3.1,2.42-6.29-2.31-3.45-4.9a6.2,6.2,0,0,0,1.29-1.64c0-1.52-1.7,0-3.13,2s-2.55,4.28-1.17,6.56C67.28,141.56,69.75,141.89,71.87,140.58Zm-7.05-3.07a5,5,0,0,1,.26-1.84c.35-.86.33-1-1.25-.24a7.94,7.94,0,0,1-1.66.36c-1.29,0-1,.39.87,1.92s1.92,1.64,1.78-.21Zm4.4-7.31c.19-.45-.22-.63-.61-.55,0,0-.71.51-1.5,1.12-2.4,1.87-4.17,2.09-5.37.66s-.71-3.15,2-5.11c1.19-.86,1.48-.92.91-1.3s-.46-.24-2.18.91c-3.46,2.3-4.5,3.87-4.15,6.17a2.37,2.37,0,0,0,1.06,1.81c3.32,2.86,7.9-1.1,9.86-3.72Zm3.49,1.36-.21-3.18a27.64,27.64,0,0,1-8-12.34c-1.17-3.76-.24-11.6-.06-11l-1.93-3.52A22.75,22.75,0,0,0,62,116.85c1.57,5,4.55,11,10.76,14.7Zm-14.82-1.84c1.12-2.12,1.15-1.9-1-1.91-2.46,0-2.19-.32-.8,1.76,1.09,1.65.91,1.79,1.79.14Zm1.48-3c1.42-.44,1.1-.34,3-1.55,2.17-1.38,2.26-2.14.08-1.07-2.79,1.36-5.24,1-6.15-.77-.8-1.59.88-3.59,3.67-4.36,1-.27,1.45-.49,1.45-.91,0-1.24-4.72.43-6.68,2.31-3.76,3.68-.46,8,4.66,6.42Zm-6.1-5.67c.13-.19.47-.64.79-1.12,1.33-1.52.21-1.07-1-1.48a4.66,4.66,0,0,0-1.64-.41c-.72.11.24,1.46.47,2.33.65,2,.58,1.9,1.37.71Zm5.06-3.49c2.38-.23,2.62-.46,2.62-1s-.28-.39-1.48-.22c-3.18.43-5.28-.37-5.74-2s1.69-3.34,4.56-3.24c1.54,0,2.58-.49,1.63-1a20.37,20.37,0,0,0-5.73.07c-2.84.82-4,2.37-3.74,4.53.39,2.66,1.86,3.42,5.46,3.23a21,21,0,0,0,2.42-.33ZM60.17,109c0-.43-.68-.48-3-.81-3-.44-4.34-3.18-2.53-4.83a4.71,4.71,0,0,1,3.23-.72c2,.35,3.19.75,3.21.09s-.57-.62-4.28-1.4c-5.62-1.17-8.71,4.26-4.21,6.87,1.75,1.08,7.55,1.65,7.56.83Zm1.39-7.77c0-.21-.18-.37-.61-.54a8.3,8.3,0,0,1-2.39-1.17c-1.85-1.23-2.42-3.63-1.18-5s-1-2.72-2.68-1.32-1.64,3.76.42,5.58c1.87,1.68,6.42,3.41,6.42,2.44Zm-9.1-.32c2-.9,3.35-.38,1.87-1.63-.85-.77-1.56-3-2.15-1.1a17.89,17.89,0,0,0-.78,3.23c.13.17.1,0,1.06-.47Zm69-4.68a4.65,4.65,0,0,1-3.17-5.53,23.37,23.37,0,0,1,1.89-4.84c1-.76.84.26,0,2s-1.47,3.26-1.21,4.34c.36,1.53,1,2.7,2.61,3.08a3.7,3.7,0,0,0,3-.69c1-.67,1.86-2.38,3-4.74.35-.67.82-2.72,1.39-1.48.28.65-2,4.91-2.89,6a4.61,4.61,0,0,1-4.57,1.83Zm13.4-1.45A4.66,4.66,0,0,0,139,95.9c3-1,4.27-3.74,3.16-8.13-.57-2.45-1-4-1.53-4.28-.24-.15-.49.12-.72.47s.11.73.43,1.89c1.41,4.91,1,7.08-.67,8-2.48,1.35-4.6-.2-5.32-3.68-.12-.53-.46-1.63-.46-1.63-.18-.48-1.72-.37-1.17,1.25.17,1.27,1.34,4.26,2.18,5ZM147.47,82c0-1.7-3.7-9.14-4-8.35a16.35,16.35,0,0,0,.12,2.42,3.32,3.32,0,0,0,.4.77c3.18,5.59,2.69,9.52-.06,10.39-1,.42-1.15.83-.73,1.26.85.91,3-.89,3.39-1.54,1.08-1.44.93-4.11.85-4.92ZM94.18,80.71a34.68,34.68,0,0,0,4.64-8.27c2.5-7.09,5.12-15.27,5.84-22.83.08-1,.13-2.39.18-2.52a2.83,2.83,0,0,0-1.84.11c-.2.25-.07.82-.14,1.56a102.69,102.69,0,0,1-6.23,24.11,38.43,38.43,0,0,1-4.19,8c-.29.42-.65.85-.79,1.09-.4.57-.1,1,.37.71A10,10,0,0,0,94.18,80.71ZM90.1,82.77c3.82-5.18,6.54-11.41,8.65-18.75A111.9,111.9,0,0,0,102,49.55c.15-1,.27-1.74.06-2.06a2.89,2.89,0,0,0-1.81.2c-.21.31-.07.92-.26,2.32a100.08,100.08,0,0,1-2.46,12.12c-3.27,10.65-6.26,16.61-10.15,21.79-.33.44-.61.72-.58.91s.43.25,1-.14a15.27,15.27,0,0,0,2.29-1.88Zm-5.84,2.85c1.88-1.05,5.17-5.61,7.5-10.51a112.09,112.09,0,0,0,6.22-18A60.65,60.65,0,0,0,99.36,48c-.14-.48-2-.08-1.72.26,0,0-1.82,10-3.77,15.45C90.25,73.89,87.1,80.81,83.73,84.12l-1.35,1.3s0,.37.29.43A2.25,2.25,0,0,0,84.26,85.62Zm-2.88-.47C85.6,82.83,90.55,72,94.59,58.31c.69-2.34,2-10.16,2-10.16s-1.68.06-2,.41-.31,1.72-.78,4.54a91,91,0,0,1-8.67,24.29c-1.77,3.45-4.75,6.69-6.6,7.63-1.05.51-1.35,1.08-.59,1.13,1.28,0,1.4.3,2.33-.19Zm57.86,121.6c-3.16,0-5.85,3-8.25,6.75-5.09,7.72-8.53,20.61-9.36,27.48l1.92-.35c-.28.13,3.61-18.25,9.52-26.11,3.2-5,3.07-5,4.86-5.5,2.26-.56,4.09,1.86,3,3.31-.41.5-.85.14-.73-.57.4-2.24-2.91-2.68-3.85-.47-1.07,2.54,1.78,4.8,4.55,3.81,2.48-.86,3.52-4.29,1.78-6.81a4.82,4.82,0,0,0-3.4-1.54Zm-16.67-.32c-3.79,4.7-5.66,9.53-8,16.12A84.29,84.29,0,0,0,109.85,243l2.05-.27c-.07-4.75,5.21-27.36,12.62-35.83a3.62,3.62,0,0,0,.71-1.11c-.39-1.15-2.17.23-2.64.67Zm8.38-1.74c-4.91,3.92-8.83,12.64-11.42,20.67-2.8,8.66-4.06,16.61-3.85,16.61l2-.29c-.15-.5,5.49-31.05,15.94-36.61.9-.44,1.09-.89.32-1.09A4.34,4.34,0,0,0,131,204.69Zm5.5,0c-10.72,1.39-17.74,33.86-18,36.56v.25l2.15-.44v-.15c1.48-8.3,2.91-14.11,6.25-21.59,2.61-5.55,6.2-12.66,11.58-13.35.44-.06.85.12.69-.38-.32-.8-2-.9-2.67-.87ZM72.52,194.48c-3.88,1-4,5.56-1.42,11.43.19.44.16.68.35.86.45.38.8-.16.85-.5a5.39,5.39,0,0,0-.57-2.3c-1.6-4.05-1.22-6.39.37-7.43,4.06-2.06,5.15,2.18,5.76,4.12.15.48.2,1.13.47,1.17a1.63,1.63,0,0,0,1.18-.18,49.45,49.45,0,0,0-1.74-5A4.39,4.39,0,0,0,72.52,194.48Zm-28.14,4.33v48.35L37,254c-3.18-2.7-7.37-6.87-7.37-6.87l.13-81.74-2.39-.18c-.59,35.12-.17,70.75-.19,105.94l22,.15,18.17-28a3.2,3.2,0,0,0,.29-.51c.23-.54.2-1.35.09-4.33a9.8,9.8,0,0,0-.09-2.42c-.18-.29-.56-.08-.93.07s-.59.11-.39-.31c.12-.24.48-.78.8-1.29,1-1.65,1.27-2.18.92-4-.08-.44-.51-.82-.86-1.35-3.07-4.47-4.31-11.08-2.79-15.91.48-2.13.31-2.58-.74-4.24Zm96.1-52c-2-1-2-1-2,.92,0,1.43,0,1.78.58,1.59.79-.39,1.75-.76,2.48-1.06,1.39-.43-.36-1-1.08-1.42Zm7.94,5c-1.55-1.22-1-1.08-1.41,1.68-.27,1.66-.61,1.71,1.13,1.16,1-.35,3-.13,2.12-1.28,0,0-1.57-1.26-1.88-1.52ZM86.14,194.08c-2.37,1.41-4.76,8.34-4.76,8.34-8.29,1-11.77,9.05-12.14,15.77-.3,5.31-.67,11.52-.12,12.06,5.45-2.42,7.54.37,8.06-.38.24-.33-1.2-1.42-3-2.39a10.22,10.22,0,0,1-1.32-.85c-.66-.54,1.32-.07,2.57.77,1.6,1.08,1.87.85,1.17-2.29-.75-3.4-.87-3.83,1.78-5.18a7.32,7.32,0,0,0,2.43-1.84c.6-.67.76-.84.53.15-.38,1.72-2,2.46-3.32,3.16a1.89,1.89,0,0,0-1,1.66,36.11,36.11,0,0,0,1,5c.31,1,.42,2,.66,3.06.62,2.68.66,3.2.34,5.14a10.31,10.31,0,0,0-.21,2.48l.14,1.48s-1.48-1.5-4.73-.25a6.28,6.28,0,0,1-5.51-.7,11.24,11.24,0,0,0-.3,3.37,120.68,120.68,0,0,0,34.78,1.11,109.23,109.23,0,0,1,4-20,53.15,53.15,0,0,1,3.65-9.35,10.46,10.46,0,0,1,2.22-2.94c.11-.07.12-.1.12-.15v-.24a2.54,2.54,0,0,0-.62-1.71c-1.12-.89-2.92.25-3.5,2.22a66,66,0,0,1-3,6.21c-.14-.09-.47-.1-.35-.49.91-2.07,2.14-4.26,2.84-6.13,1-2.67,3.06-4.08,4.62-2.39.53.58.75,1.11,1,1.29s.43,0,.58-.18c.6-.89-.77-2.88-2.24-3.28-2.11-.57-3.7,1-6.1,5.89-1.38,2.87-1.63,3.58-1.85,3.36,0,0-.41,0-.28-.53a38.45,38.45,0,0,1,3.46-6.87c2-3.25,5.63-3.52,7.17-.7.23.38.25.89.51,1.23.47.6,1.25.49,1.44-.51-.21-.65-1.49-3-2.39-3.44-2.06-1.39-4.56-1.12-6.66.74-.48.42-1,1.27-2.37,4.07-2.06,4.48-2.12,4.5-2.67,3.78.82-2.18,3-5.72,3.88-7.9a2.24,2.24,0,0,0,.19-1c-.06-1.58.2-4.37-3.19-6.37-2.89-1.54-6.7.08-8,3.12-1,2.31-1.71,3.92-2.22,4.24-.7.46-.58-.19-.51-.43,1-2.09,2.42-4.21,2.64-6.33a5.78,5.78,0,0,0-5.35-6.21,5.86,5.86,0,0,0-4.18,1.31ZM55.88,87a81,81,0,0,1,12.37-4.53c.63-.26.73-.33.06-1.63-3-5.79,5.15-10.39,7.93-4.72.37.76.45,1.17.82.82a39.53,39.53,0,0,0,2.34-3.55c3.1-4.75,4.5-10.16,6.15-14.94a62.63,62.63,0,0,0,1.92-8.77c-6.2-10.58-10.49-20.76-17-30.18h-43l-.16,85.07C39.28,94.59,47.48,91,55.88,87Zm48.46-3.13c.52-.54,1-1.44,2.84-5.24.34-.68.87-1.73,1.08-2.22.29-.89,1.34-1.45.83.15a10.76,10.76,0,0,1-.64,1.43c-.62,1.1-1.21,2.45-1.65,3.35-2.4,4.74-2.29,7.5.39,9.56a5.81,5.81,0,0,0,8.13-.62c.11-.11.2-.24.3-.36a8.84,8.84,0,0,0,.72-1.36,19.76,19.76,0,0,1,1.88-3.73c1-1.25,1.15.3-.34,2.68-1.7,2.72-1.73,5.67-.26,7.75a5.84,5.84,0,0,0,8.07,1.43,5.45,5.45,0,0,0,.86-.73h0a18.16,18.16,0,0,0,3.29-6.1,12.69,12.69,0,0,1,.52-1.31c.22-.51.53-.71,1.34-.85,5.53-1,10.17-6.66,10.83-12.76.09-.83.32-2.29.4-3.16.18-1.74.18-10.73,0-11.27a.55.55,0,0,0-.61-.43,4,4,0,0,0-1.23.29c-1.83.64-2.67.81-4.43.19a3.18,3.18,0,0,0-1.22-.26c-.76.07.26,1.16,2.51,2.38,1,.52,1.73,1.21,1,1.17a36.35,36.35,0,0,1-3.31-1.64c-1.24-.75-.92.19-.28,2.68.86,3.34.36,4.28-2.31,5.59a6.59,6.59,0,0,0-1.49,1.08c-1.41,2.06-1.05.54-.33-.56,1.22-1.26.47-1.69-2-.81-2.84,1-4.13.26-5-1.3-.9-1.77.79-4,2.2-4,.46,0,.38.17-.3.62a2.52,2.52,0,0,0-1.29,2c-.21,1.91,1.16,2.72,3.14,1.41a7.76,7.76,0,0,1,2.33-1.18c.69-.15,1.71.1,1.71.64a4.41,4.41,0,0,0,0,.89c.18.61,1.15-.24,1.58-.55,1.45-1.08,1.41-1.29,1-3-.65-2.44-1-4.68-1.6-7.16a10.38,10.38,0,0,1-.18-4.08c.1-.67.36-2,.41-2.94s0-2.26,0-2.26c1.45,1.09,2,1.28,3.44.75a5.87,5.87,0,0,1,5.41.07,13.07,13.07,0,0,0,1.3.55l.08-2.79s-1.7-.36-4.84-.76c-9.48-1.24-28.92-1.49-29.64-.36-.19.28-.37,2.28-.88,5.07C107,57.58,105.69,63.34,104,69c-.36,1.15-.7,1.61-.52,1.65s.43-.44.6-.62c.91-1,.21,1.44-1.18,4.45a2.25,2.25,0,0,0-.23.66,32.82,32.82,0,0,1-1.42,3.6c-.38.79-.69,1-.69.52.43-1.72,1.55-3.92,1.71-5.51-1,1.39-2.41,3.71-3.48,5.08-.2.38,0,.48.18,1,.65,1.71,2.22,1.87,3.12.32a58.92,58.92,0,0,0,2.63-5.55,7.65,7.65,0,0,1,1.14-2.33c.38-.19.46.63-.21,2-2,4.21-2.89,6.57-3.88,7.43a1.85,1.85,0,0,1-2.84-.57c-1.25-2-2.32-1.36-1.17.73a3.09,3.09,0,0,0,4.07,1.47,3.18,3.18,0,0,0,1.25-1,66.41,66.41,0,0,0,3.36-6.49,5.85,5.85,0,0,1,.93-1.74c.75-.27-.1,1.88-2.22,6.2-.7,1.65-1.8,3.41-3.3,3.92-3.63.79-4.12-1.12-5.38-3.28-.62-.54-1.17.32-1,1.27a4.46,4.46,0,0,0,2.21,2.94,5.28,5.28,0,0,0,6.66-1.19Zm16.22,9a3.15,3.15,0,0,1-.12-2.14,17.35,17.35,0,0,1,1.76-4.33c1.19-.56.27,1.66.12,2-1.43,3-1.57,4.12-.22,4.46,1.15.29,1.76-.4,2.85-3.06.56-1.37.78-2,1-2.05.42-.17.62,0,.59.41a18.65,18.65,0,0,1-2.46,5C122.9,94.14,121.16,94.15,120.56,92.87Zm-10.81-2.28a5.75,5.75,0,0,1-2-1.27c-2-1.85-1.7-4.39.82-9.18.2-.37.93-1.82,1.17-2.3.42-.85.84-.52.84,0a23.9,23.9,0,0,1-1.27,2.71c-2.79,5.38-2.69,7.58,0,8.83s3.82.53,6-3.57c1.21-3.09,1.82-3.14,1.75-2a23,23,0,0,1-2.43,4.77C113.25,90.68,112.05,91,109.75,90.59ZM110,88a2.79,2.79,0,0,1-.84-3.5c.55-1.07,2-5.16,2.66-5.38,1.08,0,.5.85-.84,3.36-1.58,3.33-1.52,4.23-.3,4.73s1.66-.5,3.33-4.38c.27-.62.63-1.25.84-1.12s.73.18-.15,2c-.2.42-.56,1.31-1,2.13C112.56,88.18,111.27,88.8,110,88Zm18.73-7.07c-.45-.22-2.59-1.06-2.28-1.74,0-.07.16,0,.23,0a5.76,5.76,0,0,0,7-.18c.42-.37.74-.12.5.35C133.3,80.88,129.88,81.53,128.68,80.92Zm-6.3-2.18a9.2,9.2,0,0,0,.4-1.15c.24-.88.18-1.52.39-1.41a3.92,3.92,0,0,0,3.25,0,4,4,0,0,1,3.21-.26,1.42,1.42,0,0,0,2-.18c.72-.55.73-.31,2,.13,1,.32,1.32.55,1.72.47.15,0,.47-.37.57-.35.31.05.35.92.62,1.9s.11,1.09-.68.56a5.85,5.85,0,0,0-4,0,4.11,4.11,0,0,1-2.57.08c-2.39-.39-4.11-.71-5.89.31C122.41,79.36,122.07,79.65,122.38,78.74Zm-5.95-4.31c-1.16-2.3,1.5-5.33,3.84-4.26.77.35,1.47,1.69.32,1.08-5.32-1.06-4,6.64,1.72,2.57,3.8-2.49,6.48-2.88,6.71-.46-.11.88-.9.74-1.51.82a12.52,12.52,0,0,0-4,1.24c-2.77.86-5.45,1.57-7.1-1Zm20.84,1.06c-1.3-.34-2.42-.84-3.78-1.08s-2-.93-1.71-1.86,1.6-1.07,3.61.15c2.24,1.35,3.86,1.68,4.69,1.17,1.65-1,.76-2.7-.83-3.13-1.18-.33-.31-.79,1-.41,2.07.77,2.11,4.44,0,5.2A6,6,0,0,1,137.27,75.49ZM119.15,63.32a24,24,0,0,0,3.48-2.24c.28-.29,1-1.26.45-1-3.09,1.83-6.66.31-9.25-1-1.25-.57-1-.31-1.89-.25-.66,0-1.18.18-1.29-.28,0-.2-.41-.11-.65-.14-1-.09-.35-1.35,1.66-2.72a18.56,18.56,0,0,1,6.5-3.13,6.36,6.36,0,0,1,5.89,1.32c.62.59.57,1,1.12.62,1.28-.81,1.29.26.21,1.27-.73.69-.47.88.44,1.54.43.31.08.61-.16,1.06a7,7,0,0,0-.07.79c-.2,1-4.71,4.45-6.35,5C118.1,64.44,118.71,63.6,119.15,63.32ZM122.28,57h-.75c-.85,2.58-2.43,3.46-3.74.37l-.6.06C117.16,60,121.72,61.66,122.28,57Zm-5,2.42c-.31-.51-.66-1.69-1-1.71-.88,0-2.1.12-1.81.66.49.85,3.19,1.65,2.83,1.05Zm6-.46c.81-.48,1-.82.45-1.35s-1-.33-1.26.76,0,1.1.84.59Zm-11-1.77c5.44-2.43,7.49-2.75,9.71-2.15a6.77,6.77,0,0,0,1.25.41c1.06-.07.38-1.23-1.52-1.9-2.16-.77-3.54-.42-7.71,1.73C111.67,56.45,109.68,58.31,112.38,57.15Zm15.76-2.94a15,15,0,0,1-.5-1.47c-.1-.35-.18-.71-.28-.71a15,15,0,0,1-5.34-.21,17.89,17.89,0,0,0-10.25.34,10.53,10.53,0,0,0-1.59.76.33.33,0,0,1-.54-.27,8.1,8.1,0,0,1,2.76-2.14,14.38,14.38,0,0,1,10.41-.86,6.75,6.75,0,0,0,5.58.1c.77-.33.23.49,0,1.57a5.12,5.12,0,0,0,.05,1.83C128.52,54.13,128.4,54.65,128.14,54.21ZM185,271.56v-85.3c-14.3,10.43-41.36,21.29-41.36,21.29,3.4,6.87-4.1,12.76-8.41,5.77-4.43,4.91-10.53,22.12-10.74,27.83,0,0,11.78,20.33,17.53,30.36Zm-78.79-28.12a85.38,85.38,0,0,1,4.21-20,66.1,66.1,0,0,1,4.72-11.23c.82-1.27.88-1.76,0-1.3a19.91,19.91,0,0,0-3.42,3.8c-3.87,8.07-5.66,17.74-7.08,25.14a31.34,31.34,0,0,0-.41,3.72Zm2.83-.36c.92-10.39,4.8-24.43,10.62-33.57.54-.88,1.22-1.63,1.2-2-.08-.89-2.33.65-4.06,3.28a87.1,87.1,0,0,0-5.38,12.34,79,79,0,0,0-4.22,20.17Zm5.59-.86c.59-6,2.48-11.49,4-17a54.81,54.81,0,0,1,7.51-16.15c1-1.43,2.1-2.76,3.18-4.13a1,1,0,0,0,.25-.59,2.68,2.68,0,0,0-1.79.4A10.22,10.22,0,0,0,125.4,207c-4.28,5.38-6.58,11.67-8.72,18a67,67,0,0,0-3.81,17.51Zm-38.4-4.59c.85-.07,1.4.09,1.65-.13s.17-.84.25-1.6c.17-1.65,0-1.56-1-.5-1.73,1.77-4.87,2.44-6.75,1.38-1-.54-1.61-.91-1.7-.46a1.11,1.11,0,0,0,.45,1.2c2.26,1,4.39.31,7.14.11Zm-2-1.27a6.15,6.15,0,0,0,3.1-2c.65-.93.64-1.05.15-.88-2.44,1.18-4,1.78-6.21,1.46-3-.45-3.06-.07-1.12,1.13a4.3,4.3,0,0,0,4,.25Zm-4.32-3.68c.46-.33.57-1.69.2-1.76s-.91.59-1,1.14c-.26.73.29.9.73.62Zm4.56-.06.78-.07c-.4-3.38-4.12-3.53-4.81.34L71,233c.77-3.08,3-3,3.44-.35Zm2.46-.55c1.13-.63.74-1.4-.79-1.7-1-.23-1,.58-.44,1.69.27.55.45.44,1.23,0Zm-8.84-4.13a4,4,0,0,0-.35-1.36,19.54,19.54,0,0,1-1.89-9.69c.11-2.8.15-3.66-.45-3.66-.81.39-1.3,5.59-.26,9.92C65.87,226.19,68.13,230,68.08,227.94Zm0-4.23c-.08-1.46.24-4.74.08-5.46a4,4,0,0,0-1.09-2c-.5-.34-.62.32-.45,2.08.37,4.1,1,7.21,1.43,5.37Zm.41-7.55c.31-.58.19-1.19-.53-2.57-2.81-5.42-3.18-9.13-.24-10.47.34-.16.54-.19.77-.31.92-.51.56-1.43-.82-1.05-3.84,1.05-4.59,4.59-1.36,11.15C67.94,216.21,68.19,216.67,68.49,216.16Zm.69-3.08a12.69,12.69,0,0,1,.19-1.3A14.16,14.16,0,0,0,68.6,210c-1.08-2.73-1.1-3.87.07-4.66.39-.22.79-.23.85-.49s.08-1-.16-1.23a2.69,2.69,0,0,0-2.77,2c-.45,1.46,0,3.61,1.35,6.26.62.82,1,2.32,1.22,1.23Zm1.29-3.54c.9-1.79,0-4.13-1.19-3.33-.81.52-.85,1.06-.36,2.56.56,1.85.94,2,1.55.8Zm3.18-4.81c.35-.36,0-.86-.63-2.85-.58-1.71-.32-2.88.77-3.21,1.57-.38,2.13,2.15,2.45,3.21.17.82.72,1.05,1.21.48.13-.16.17-.29,0-1.19-1-3.92-2.34-5.16-4.47-4.19s-1.72,3-.28,7.19c.19.57.32,1,.46,1.05s.34-.3.54-.49Zm1.72-1.33c.47-.46.44-.25-.1-1.88-.6-1.87-.92-2.26-1.59-1.61-.39.39-.19.82.27,2.34C74.44,204.06,74.63,204.16,75.37,203.4ZM157.15,197c3.11-2.12,1.83-5.89-2.27-7.33-.49-.17-1-.37-1.18-.45-1.89-.9-3.35-1.17-3.35-.47,0,.41.56.61,2.37,1.49,2.67,1.27,3.26,2.76,2,4.63-1,1.37.8,2.92,2.45,2.16Zm2.82-4.63c.28-1.09.67-2,.86-2.65.27-1-.07-.77-.73-.61-1.72.88-3,.4-2.11,1.61.92,1.64,1.68,2.84,2,1.68Zm-.21-3.8c2.14-1.27,2.61-4.56.63-6.13a7.27,7.27,0,0,0-2.31-1.16,14.59,14.59,0,0,0-6-.57c-.23.27-.24.68,0,.81a8.07,8.07,0,0,0,1.61.26c3,.3,4.44,1.17,4.31,3.26s-1.89,2.94-5,2.29c-1.69-.36-2.48-.18-1.8.2a16.19,16.19,0,0,0,4.25,1.4,6.61,6.61,0,0,0,4.36-.36Zm-10.27-.54c2.41-5.33,3.68-19.31-10.07-29.45l.45,2.79a24.3,24.3,0,0,1,8.37,24.11Zm12.27-9.52a17.83,17.83,0,0,1-2.69,1.6c-.66.29-.68.37.22.85a7.32,7.32,0,0,1,1.42,1c.48.51,1,.71,1.25.52C162,181.66,162.23,179,161.76,178.53Zm-4.07,1c2.79-.86,4.27-2.19,4-4.4-.47-3.25-3.22-3.92-8.38-2.66-2.48.61-2.7,1.76-.34,1.17,3-.76,5.3.37,5,2.52-.19,1.86-1.7,3-4.35,3-1.4,0-1.83.13-1.64.63.17.33,4.65.17,5.8-.19Zm-4.61-7.71c4.56-1.54,6.68-3.92,5.64-6.61-1.23-3.15-5.2-3.18-9.2-.25-1.86,1.35-1.58,1.85.23,1.16,2.34-1.06,3.85-1.23,4.81-.38,1.74,1.53.57,4.18-2.06,5.14-1.27.52-1.68.81-1.69,1.18,0,.62.25.48,2.29-.22Zm7.68,0c.12-.94-1-4.18-1.4-3.43a6.74,6.74,0,0,1-1.1,1.59c-1.55,1.38-1.27.85.29,1.28.88.25,2.1.86,2.21.58Zm-12-6.92c4.6-2.63,6.36-6.39,4-8.84-2.15-2.25-5.7-1-9,3.14-1.52,1.87-.38,1.64,1.66-.14,2.38-2.08,5.4-1.07,5.38,1.52,0,1.1-1.59,2.94-3.08,3.81a.72.72,0,0,0-.37,1c.17.29.57,0,1.46-.46Zm8.07-2.75c-.24-.71-2-3.74-2.35-3.64-.39.78-.42,1.8-.89,2.63-.64,1.24-.57,1,1.48,1,1.55.06,1.76.22,1.76,0Zm-13.54-3.44c3.87-3.92,4.21-8.59.59-9.66-2-.59-5.22.85-5.23,2.32,0,.92.17,1.09,1,.77,3.42-1.26,6.13,2,3,5.71-.77,1.07-.87,1.34-.64,1.57s.49.18,1.33-.69Zm41.67-33.84V19.91H162.31l-18,27.7v6.87c0,.24.41.38.68.08,1-.78.62,0-.56,1.81s-.82,3.24.48,5.15c2.76,4,4.19,11.44,3,15.37-.43,1.47-.53,2.07-.24,2.94a3.17,3.17,0,0,0,1.48,2.07,163.12,163.12,0,0,1,18.69,10.18V42.79l6.94-6.56,7.34,6.87.26,81.37c0,.86,1.66,1.25,2.58.41Zm-4-81.47-6.15-5.63-6.07,5.55c0,26.5.16,80.91.16,80.91l6,.42s.44-1.23-.13-4.44c-.84-4.81-.79-10.69.58-19.63.84-5.49,0-10.24-1.28-15.26a23.62,23.62,0,0,1-1-9.41c.43-4.76,1.76-8.35,1.92-15.21.09-3.92-.1-7.72,0-12.54.06-.65.34-.57.39.1.18,4.36.36,8.5.4,12.76-.14,5.53-1.51,11.24-1.66,16.3a18.58,18.58,0,0,0,1.33,9c2.36,6.72.8,17,.78,17.22-1,6.61-1.73,15.07,1.65,21.4l3.27.28ZM138.73,93.4c1.81-.83,2.17-2.28,1.19-5.76-.17-.63-.37-1.37-.44-1.65-.21-.87-.6-1-1.12-.27-.32.41,0,.5.46,2.43.72,2.89.29,3.86-.8,3.85s-1.72-.8-2-2.67a3.56,3.56,0,0,0-.39-1.35c-.27-.43-.58-.35-.83.13s.28,3.15,1.11,4.38,1.52,1.5,2.82.91Zm-.5-2.61c.39-.71-.09-2.48-.34-3.62-.23-.64-.49-.8-.92-.7-.64.16-.62.85-.38,2,.48,2.28.74,2.57,1.65,2.29Zm5.51-4.18c2.07-1.17,2.27-3.18.88-6.87-.58-1.51-1.28-2.56-1.68-2.58-.15,1-.29,1.47-.12,1.84s.43.88.63,1.32c1.18,2.7.86,4.25-.28,5.1s-.38,1.42.58,1.12ZM75.92,85.12c4.86-1,9.25-8.72,12-15.59,2.52-6.87,5.19-14.53,5.62-20.87,0,0-1.84.09-2.06.46a9.65,9.65,0,0,0-.5,2.3,88.47,88.47,0,0,1-4.49,15.7A58.5,58.5,0,0,1,79.13,81a7.59,7.59,0,0,1-4.89,2.89,8.2,8.2,0,0,0-1.56.12c-.36.26,0,.85.94,1.08A5,5,0,0,0,75.92,85.12Zm67-.89c.75-.78.82-1.71,0-3.66-.22-.55-.33-.85-.61-.78-.59.16-1.27,1.68-.86,2.95.49,1.7.81,2.19,1.48,1.49ZM74.22,83a7.48,7.48,0,0,0,4.54-3,50.65,50.65,0,0,0,5.89-10.44c1.1-2.47,3.09-7.78,3.62-9.7a97,97,0,0,0,2.29-9.66,1.67,1.67,0,0,0,0-.83,3,3,0,0,0-2.18.31A96.74,96.74,0,0,1,85,63C83,69.61,77.42,80.26,74.44,80.76c-1.63.27-3.5-1.13-3.21-2.57.19-.88.31-1.21.76-1.44,1.05-.36,1.67.35.5.81-1.34,1.16,1.09,2.94,2.57,1.69,2.52-2.1-1.18-6.1-4.21-4.25-3.37,2-2.5,5.56-.39,7.24A4.73,4.73,0,0,0,74.22,83ZM98,78.22A20.85,20.85,0,0,0,102.81,70,125.41,125.41,0,0,0,108,46.74s-1.77-.18-2.17.19,0,.5-.76,5.52a95.89,95.89,0,0,1-5.8,20.86,25.4,25.4,0,0,1-2.17,4.17C96.06,79.34,96.46,79.81,98,78.22Zm46.08-15.93c-.18-.09-.17,0-.25,0-.28.2-.1,1.18.54,2.68,1.7,2.7,1.9,7.92,1.79,9.9a3.1,3.1,0,0,0,.08,1.45c.18.51.49,1.11,1,.11a20.51,20.51,0,0,0-1.38-11.19A9,9,0,0,0,144.11,62.29Zm1.31,11.43a16.63,16.63,0,0,0-.93-6.63c-.28-.59-.77-.63-.71,0,0,1.44-.15,4.16,0,4.91.74,1.77,1.32,2.82,1.64,1.72ZM141.58,57h-.79c0,2.7-2.41,3.46-3.3.21l-.72.17c.95,4.57,5.28,2.47,4.81-.39Zm-4.85,2.08c-.41-1.2-.25-1.64-1.3-1.1-.8.42-1.29.85-.16,1.39S137,59.82,136.73,59.11Zm6.08-.69c.34-.67.3-1.27-.2-1.27s-.5.3-.61,1c-.2,1.07.29,1.29.81.24Zm.43-4.49c.31-.1.22-.53.14-1.07-1.32-1.8-4.58-1.26-5.76-.89a2.73,2.73,0,0,1-2.6-.15c-.76-.14-.87,0-1.06.4a6.22,6.22,0,0,0-.23,2c0,.87,0,1.28.29,1,1.2-1.07,2.6-2.41,4.64-2.49a9.54,9.54,0,0,1,4.58,1.2Zm-8.93,2.45c0,.36.31.13,1.11-.37,3-1.71,4.62-1.47,7.13-.66.55.19.9-.39.29-.87-3-2.46-6.67-.92-8.57,1.85Zm10.58-11.16,15.87-25.87-88.37-.06,15,27.47C99.59,44,119.73,40.4,144.89,45.22Z" transform="translate(-0.78 -2.68)"/>
    <path class="b" d="M66.5,247.57c1.88-2.76,11.14,2.15,11.63,4.09,5.49-4.26,12.16-4.57,17.51.77,5.52-6,11.41-5.54,17.56-2.1-.69-1.35,7.84-7.28,13-3.51l14,24.65-89.87.28C55.7,263.9,60.4,254.51,66.5,247.57ZM27.25,119c-.5-1.34-2.46-15,2.54-15.37,8.08,3.53,18.4,16.18,23.19,23.92,6,9.57,11.9,31.59,8.61,30.63-.48-.14,10.21,10.42,10.91,11.45,1.21,1.69-18,33.27-21.18,32.14-1-.34-7.36-4.11-7.36-4.11l.18-10.54S54.2,167.48,54.75,161c.21-2.48-6.94-6.71-7.24-7.56-.81-2.13-.72-10-4.87-13.5-2.29-1.37-4.46-.93-6.79-.64-9.42-1.47-4.53-17.14-8.62-20.19ZM185,126l.05,3.92c-6.2,1.34-17.18-3.86-20.51,4.51.42,9,2.48,13.07,3.9,15.8,1.08,2.45,8.63-.34,11.3,2.12,7.63,9.28,5.82,21.59,5.89,32.72l-3.31,1.65c-22.89-13.31-40.45-54.66-42.89-66.43-.18-7.51,21-31.75,21-31.75l7.7,4.6c.19.07-.16,31.87-.16,31.73,6,.26,11.9.84,17,1.21ZM138.53,96.94c-11.74,16.61-15.71,41.42-15,58.74,1.52,25.84,20.2,48.89,19,51-.21-.15-.71.11-.9-.06-4.29-3.77-7.3-3.11-9.5-3.14-4.2-.07-5.36,1.17-7.77,1.4-6.16.61-5.67.76-10.92-1.19A71.07,71.07,0,0,0,91,192.23c-5.64.5-14.22,3.13-17.47,1,22.59-41,19.21-67.35-4.18-110.45,2,.57,2.24,2.35,3.69,2.8,4.81,1.82,11.43,1.14,15.4-.57,4.32-2,8.38.88,8.32.79,8.5,5.89,18.77,9.73,24.12,12.36,1.57.8,3.57-.46,5.31-.81,3.58-.72,6.64-2.22,9.31-1.34a30.88,30.88,0,0,1,3,1ZM85.75,43.21C84.61,41.09,72.85,19,72.85,19l87.51.52-13.13,21.3c-1.24,1.16-7.41,4.38-13.7-3-.11,1-9.33,7.53-17.26-.27-4.76,4.27-9.62,6.74-17.65,2C98.43,40.93,92.18,46.94,85.75,43.21Z" transform="translate(-0.78 -2.68)"/>
    <path class="c" d="M95.33,252c-8.48-7.86-17.31-.76-17.1-.32-3.35-3.36-6.64-6.11-11.06-4.77v-1.2c13.18,2.38,33.38,3,57-1.88l1.21,2.5c-6.33-2.21-9.59.78-12.4,4.28-10.16-6.26-12.64-.77-17.68,1.39Zm19.79-91.21,5.95-.12c1.14,17.24,15.7,43.61,16.06,43.61-1-1.39-10.64-.29-10.57-.11C121.3,190.19,115.49,176.26,115.12,160.76Zm-35,40.88s-2-4.9-3.08-7C83.37,184,88.5,173,91.15,160.74h4.28c-1.27,16.89-14.94,42.52-15.31,40.86Zm77.16-2.25c9.45-16.85,7.82-41.12-19-54.54,0,0,.69-17.79,2.69-17.83.45.13,12.13-.15,12.13-.15,3.06-7.42,7.94-16.39,14.89-22.45l.17,19.89c-5.09.49-8.2,2.1-9.74,6l-7.06,1.56c.52,20,8.13,38.43,30.7,55-5.39,4.57-23.82,13.87-23.76,13.74ZM44.17,186.83l.19-20.71c3.43-.73,6.13.25,8.93-5.81,0,0,4.75,2.22,6.32,3-4.38,7.84-8.21,16.21-15.41,23.48ZM89.1,150.16l.22-10.51,10.1.28a19.65,19.65,0,0,0,0,10.7Zm23.05-.13c.69-3.43,1.18-6.87-.24-10.55l10.91.19-.26,10.47ZM91.32,129.47C89.49,108.86,75.19,85.51,75,86c1.69.26,4.66,1.09,6.29.32a7.6,7.6,0,0,0,3.79-.08c.12-.71,13.29,30,11.54,43.19-.16.43-4.81.46-5.23,0Zm25.29.19c1.54-9.53,5.53-27,14.93-41.09A52.67,52.67,0,0,0,135,96c-7.11,10.21-11.47,21.87-14.13,33.77Zm-65.43-5.14c-4.31-8.68-22.23-22.35-21.3-21,7.41-6.58,15.68-10.8,23.94-15,0,0,1.47,1.37,1.24,1.72C50,98.23,47.53,115,52.44,124.57c4.72,10.26,13.1,16.32,21.64,21.08-.65,6.41-1,11-2.58,17.41,0,0-5.37-2.79-9.76-4.58-.64-12.11-3.18-22.93-10.5-34Zm47.51-85c6.32,3.81,12,3.41,17.45-1.75a13,13,0,0,0,17.48.52c2.91,3.24,6.7,5,12.25,3.92L144.49,45c.33-1.51-38.25-4-56.91,1.18a15.77,15.77,0,0,1-1-2.17C88.23,43.94,93.64,45.92,98.69,39.48Z" transform="translate(-0.78 -2.68)"/>
    <path d="M1,2.68V5.57l2.83-.15v25H.78v3H9.25v-3H7.08V23.29l3.69-4.75,4.84,12h-3v2.95h9.29V30.49h-2.6L12.79,15.18l6.62-9.76h2.07V2.68H12.55V5.42h2.8l-8.27,12v-12H9.29V2.68Zm70.5,15.7L87.15,47l.68-.13c21.62-4.17,38.7-4.75,57.12-1.55l16.34-26.73c-29.74-.33-89.74-.3-89.74-.3Zm1.75,1.23,86.71.08-4.88,7.92c-2.92-.9-4.55.43-5,3.2a3.82,3.82,0,0,0-1-.23,3,3,0,0,0-3.66,2.05,2.93,2.93,0,0,0,2.07,3.62,2.87,2.87,0,0,0,.77.11c1,.17,1.19,0,1.19,0-3.56,3-5.58,1-7.25,0a4.29,4.29,0,0,1-6,0l-.14-.15c4.24.43,5-3.79,2.87-5.39a8.58,8.58,0,0,0-.85-.73,2.53,2.53,0,0,0,.58-3.31c-1.29-2.63-5.32-2.48-6,.39a10.13,10.13,0,0,0-.23,1.32,3.21,3.21,0,0,0-2.81,4.91c.63,1,2,1.16,3.33,1.11-1.75,2.43-5.73,1.61-7.51-.41-2.82,3.28-6,2.88-7.64,1.12a3.51,3.51,0,0,0,2.84-1c1.71-1.56.87-4.34-1.55-5.11a3.44,3.44,0,0,0-.83-.19,4.09,4.09,0,0,0,.16-1c.61-4.84-6.72-4.37-6,.4a3.17,3.17,0,0,0,.24.85,3.41,3.41,0,0,0-1.23.15c-4.07,1.86-1.26,7,1.88,5.66a9.51,9.51,0,0,1,1.24-.51c-3.9,4.78-7.18,1.39-8,.87-2.63,3.86-7.21,1.23-7.31,1a3.84,3.84,0,0,0,2-.51,3,3,0,0,0,1.3-4.12,3.08,3.08,0,0,0-1.46-1.37,5.58,5.58,0,0,0-2.19-.16,5.72,5.72,0,0,0,0-1.17c-1.27-4.65-7.13-2.33-5.69,1.61a2.64,2.64,0,0,0,.47.69,8.91,8.91,0,0,0-1.14.79,2.94,2.94,0,0,0-.83,4.09,3,3,0,0,0,4.14.82h0c.42-.22.83-.68,1-.66-1.53,2.78-3.87,3.75-7.19,1.45a3.67,3.67,0,0,1-6.34.27c3.13.28,5.16-5.65-.84-5.83C82,30.69,82,28.23,78.2,28.66ZM53,23c-3.27,8.55-12.48,16.3-17.8,25.93-6,9.75-4.14,19.72,4,21.45,4.31.9,9.93-3.18,10.41-7.59.11-.89.44-1.37,1-1.29s.43,1.22.25,2.61C50.32,68.69,47.81,76,44.56,79.3H59.65C59.05,79,53.41,72,54,63.6c0-1.51,0-2,.68-2s.56.25.72,1.73c1,9.38,12.8,10.39,16.5,1.43,1.86-4.53-.09-12.58-5-19.46C63.1,39.21,56.74,32.16,53,23Zm6.64,56.3h0Zm56-49.59A1.24,1.24,0,1,1,114.4,31h0A1.23,1.23,0,0,1,115.64,29.72Zm19.38.14a1.32,1.32,0,0,1,1.33,1.31,1.33,1.33,0,0,1-2.65,0h0A1.33,1.33,0,0,1,135,29.86ZM97,31.3a1.26,1.26,0,1,1-1.27,1.25h0A1.26,1.26,0,0,1,97,31.3Zm54.41,1.55-1.1,2C149.12,33.73,150,32.34,151.44,32.85ZM81.87,35.56l-1.1-2C82.73,33.64,82.16,35,81.87,35.56Zm33.61-1.09c7.44,8.38,14.12,5.89,18.47.32,1.88,4.76,6.05,8,13.23,4.85a22.52,22.52,0,0,1-1.53,2.1c-6.34,1.69-9.48-1.27-11.9-4.07-6.46,5.3-12.54,4-17.55-.66-4.28,5.33-11.21,6.47-17.63,2.12-3,4.28-7.14,6-12.43,3.87,0,0-1.12-1.75-1.22-1.86.77.64,10.51,4.63,12.9-5,3.35,5.65,14.47,6,17.66-1.73Zm.74,3.44c8.38,7.75,17.16,1.05,17.39.58.13.43,5,6.07,11.79,3.93l-1.12,1.9c-13-2.17-24.88-3.56-52.19.41,0,0,4.36-1.27,6.57-4.72,1.22.77,10.7,6,17.56-2.14ZM10.4,40.07a40.5,40.5,0,0,1-3.06,5.4C2.45,53,2.17,53.71,1.78,56.37c-1.09,5.19,5.11,7.29,7.09,3.74.88-1.5,1.44-.53,1,.9C9.67,63.5,7.1,66.39,7.1,66.33l7.51.06s-3.23-3.25-3.18-5.89c0-1.19.65-1.23,1.43-.16,2.24,3.06,6.42.6,6.45-3.75,0-2.67-.8-4.17-5.69-11.35-1.06-1.57-2.23-3.55-3.22-5.21Zm76.49,4.22s3.64.42,4,.49c.32.25-3.08,1.17-3.09,1.1Zm7.39,36.95c-.21,0-.49.24-1,.69-1,1-1.21,1.09-2.17,1.22A8.23,8.23,0,0,0,87.94,85a2.78,2.78,0,0,1-1.3.51l-1.51.26a3.29,3.29,0,0,0-.83.23,3,3,0,0,1-2.16.13,2.69,2.69,0,0,0-2,.08,3.49,3.49,0,0,1-3,0,3.28,3.28,0,0,0-2.43-.35c-1,.32-3.63-1.23-3.63-2.14a4.42,4.42,0,0,0-1.85-1.31c-1.32-.2-13,4.34-12.9,4.61,14.29,17.45,26.31,44,17.26,76.56l-1.6-.76a115.85,115.85,0,0,0,2.41-17.89C47.65,133.45,45.33,106.83,55.73,90L54,88.15c-6.31,3.35-12.74,5.22-28.33,18.16l.05,20.93v37.37c5.65.62,11.91,1.13,18,1.65,0,0-.08,18.72-.22,26-.12,6.19.12,5.8.12,5.8l20.29,10.58c-1.43-5.57,2.1-7.78,5-7.56-1.31-5.37,1.93-7.85,5.62-7.13,2.49.46,3.36,1.82,4.79,6.31.23.73.55,1.71.55,1.71l1.43,0c1.77-3.78,3-8.6,7.15-9.22,5.48-.81,7.52,2.95,7.52,6.64,5.31-4.64,11.67-1,11.25,5.89,2.68-1.7,7.21-3.24,10.06,3.31,1.08-.22,1.62-1.41,3.13-1.77a11.23,11.23,0,0,0,1.85-.8v-.22a17.47,17.47,0,0,1,2.77-.67c1.36.5,1,.48,1.7-.41a6.55,6.55,0,0,1,3.18-.6,4,4,0,0,0,2.18-.1c1-.42,1.89-.53,2.47.11.42.46,1,.23,1.67.21,1.3-.05,3,.47,3.56,1.62a10.8,10.8,0,0,0,2.53,1.62l1.4-.32.17-.51,11.52-4.32c-23.44-25.38-22.83-59-17.31-76.1l2.12,1c-1.13,5-2.4,10.24-2.23,17.77,21.1,9.31,31.61,33.37,18.81,54.36l1.34,1.73c5.33-2.21,18.72-9.65,23.34-13.68l1,.08s2.81-1.8,4-2.76l.17-55.72-1,.25-.18-3.26-17.39-1.36c.21-.17.38-.24.43-.56l-.1-30.85c-.64-1-15.22-9.42-20.63-11.39-.22,0-.07.36,0,1.24.26,3-1.8,5.71-4.19,5.72-.87,0-1,.37-1,2.1A4.64,4.64,0,0,1,139.14,96c-3.11,1.12-5.22-.5-6.94-6.87-.46-1.67-1.35-1.25-2.21,1a52.23,52.23,0,0,1-2.61,5.31,5.54,5.54,0,0,1-3,2.2,6.44,6.44,0,0,1-4.67-.24c-2.39-1.2-3.32-2.64-4-6.22-.09-.47-.41-.42-1.18.15-4.22,3.15-10.17-.1-10.14-5.55,0-1.6,0-1.66-1-.89-2.87,2.31-6.76,1.14-8.31-2.52-.37-.85-.56-1.22-.85-1.21ZM70,83.2c.3,0,1.23,1.22,1.23,1.22a13.06,13.06,0,0,0,3.21,2.07c.12-.17,14,18.26,16.35,43.65h6.45C96,105.46,89.15,93.61,86,86l2.33-.68c5.19,9.82,11.51,29.81,11.3,47.29H89a95.27,95.27,0,0,0-18-47.53c-.67-1-1.19-1.69-1-1.87h0Zm-4.07,2.61L67,89.17a2.25,2.25,0,0,1,.45-1.08c2.11-1.89,4.12.59,3.18,3.92L70,95.08a33.31,33.31,0,0,0-3.17-1.42c-3-1.23-4-3.67-1.68-3.92.38,0,1.15-.08,1.15-.08-.93-.73-3-2.39-3-2.39Zm9.85.37a6.71,6.71,0,0,0,4.49.55,6.14,6.14,0,0,1,3-.08,9.38,9.38,0,0,0,1.9-.22c6.31,13.13,10.64,28.71,11.37,43h-5A102.17,102.17,0,0,0,76.23,87.46c-.33-.5-.77-1.3-.46-1.31Zm20.74.23c1.91,0,4,2,5,5,.6,1.71.84,1.62,1.66,1.33,2.1-.71,4.33,1.57,1.52,2s-1.19,5.79-1.42,6.26c-1.12.19-3.22-4.34-3.16-5.7.13-3.3-3-6.07-5-4.68-.93.66-.83,1.12-1.11.88a3,3,0,0,1,0-3.92,3.23,3.23,0,0,1,2.47-1.2Zm57.08,1.14s.11,4.36-.06,5.31c-.33,2.94-4.16,3.21-4.31.89a9.88,9.88,0,0,0-1.3,3.11L145.22,95A13.84,13.84,0,0,0,148,92.73c-2,.16-3.13-1.57-1.78-3,1.48-1.72,5.62-1.91,7.38-2.19ZM53.77,88.89,55,90.23C44.27,109,48,133,73.82,145.56a77.9,77.9,0,0,1-2.3,17L62,158c.06-21.21-12.08-41.42-31.46-54.71A114.44,114.44,0,0,1,53.77,88.89Zm78,.16c.45,2.47,2.82,7,3,6.7,0-.14-9.92,12.47-14.15,33.57H117A117.05,117.05,0,0,1,131.77,89.05Zm30.32.59,2,1.17c-10.2,8.44-16.92,19.15-21.83,30.69l-2.57-1.21C147.26,103.55,154.81,96.11,162.09,89.64Zm2.72,1.87c.54,0,1.16.7,2.15,1.23s.72.81-1.09,2.17c-2.13,1.62-2.34,1.55-2.32-.77,0-1.53.41-2.55,1.15-2.63h.11Zm-2.35,2.38a.29.29,0,0,1,.27.13,10.15,10.15,0,0,1-.11,3.39c-.21.92-3,3.2-4,4.11-.4.25-.57.15-.64-.3,0-.71.09-1.67.1-2.64,0-.3-.05-.62.22-.84C159.77,96.17,161.68,93.94,162.46,93.89Zm5.09.75h0a9.8,9.8,0,0,1,0,3.5,7.9,7.9,0,0,1-3.48-.42c0-.33,3-3.1,3.48-3.08Zm-95.5,1,.74,3.08s.21-.41.27-.5c1.47-2.23,3.26-.92,3.23,2.18a45.56,45.56,0,0,1-.9,4.91s-5.55-2.64-6-3.79a1.54,1.54,0,0,1,.68-2.08,1.56,1.56,0,0,1,.52-.15,4.16,4.16,0,0,1,1.22,0l-2.38-2.38Zm63.44.41,2.52.91c-5.25,8.44-10.65,16.78-14.59,35.79H112.87a110.32,110.32,0,0,1,9.79-34.16l3.25-1s-8.72,19.72-9.73,32.39l5.09.11c2.71-12.36,7.8-25.16,14.22-34Zm-20,.3A2.33,2.33,0,0,1,117.92,99c0,1.6-.16,1.84-1.31,1.19a3.38,3.38,0,0,0-4,.1c-.74.52-1.47,1-1.47,1s.65-2.77,1.64-3.65a4.61,4.61,0,0,1,2.79-1.22Zm-5.38,4.15a9.15,9.15,0,0,1-.63,2.17s.83-.32,1.22-.5a2.76,2.76,0,0,1,3.59,1.5,2.66,2.66,0,0,1,.21,1.12,3,3,0,0,1-3,2.75,2.88,2.88,0,0,1-1.76-.6c.43,2.29.51,3.35-1.18,4.5a2.93,2.93,0,0,1-3.92-1.26,2.89,2.89,0,0,1-.32-1.44l.11-1.57-1.43.18A2.8,2.8,0,0,1,99.88,105a2.76,2.76,0,0,1,2.34-3.16,3.81,3.81,0,0,1,2.69.75,4.35,4.35,0,0,1,.2-4.21c2-2.33,5.26-.21,5,2.09Zm35-3c.21,1.83,1,3.82.74,5.52-.31,2.18-2.18,3.47-3.65,2.06l-.52-.54a10.3,10.3,0,0,0-1.07,3.18l-2.6-1.58a13.94,13.94,0,0,0,2.3-2,2,2,0,0,0,.21-.58,1.88,1.88,0,0,1-2.29-1.32,1.85,1.85,0,0,1,0-1c.78-2.11,4.67-2.94,6.87-3.79Zm18.13,1.33a32.51,32.51,0,0,1,3.68.36c.91.16.4.67-1.65,2.64-1.88,1.81-1.82,1.64-3.27,1.62-3.38-.06-4,0-2-2.09a13,13,0,0,1,2.67-2.46,1.86,1.86,0,0,1,.52-.07Zm-6.09.38a.2.2,0,0,1,.11,0c.23.21.15,1.16.13,2.55s0,1.49-.64,2.26c-.8,1-1.46,2-2.31,3-.71.78-.69.69-1.13-1.17s-.19-2.38,2.18-5c.76-1,1.33-1.61,1.63-1.59Zm10.56,1v3.67a62,62,0,0,0-14.9,22.76l-2.43-1a69.48,69.48,0,0,1,17.31-25.39Zm-60.55,2.27a2.07,2.07,0,1,0,2.1,2.07h0a2.08,2.08,0,0,0-2.09-2.06Zm0,.65a1.43,1.43,0,1,1-1.44,1.44h0a1.43,1.43,0,0,1,1.43-1.43Zm-77.51.87c21.76,13.81,31.52,35.22,31.47,53.61L59.92,157c-1.28-26-15.56-42-31-52.31Zm128.84.2c.5,0,1.16.08,2.13.18,1.81.1,2,.21.79,1.62-.34.39-1,1.19-1.45,1.8A5.06,5.06,0,0,1,158.7,109a26.49,26.49,0,0,1-4.45-.14c-.29,0,.09-.34,1.64-2.52,1.18-1.66,1.3-2.21,2.42-2.26Zm9.07.7s.43,11.85.12,19.41c-5-.19-7.94,1.68-9.1,5.21l-5.18-2.59a66.81,66.81,0,0,1,14.19-22Zm-15.37.28c.29,0,.45.58.53,1.72.32,2,.28,2.27-.57,3.58-.43.65-1,1.57-1.3,2-.49.84-.85,1.08-1,.68-.68-2.2-.89-3.56-.65-4,.4-.72,2.25-3.32,2.51-3.67s.33-.34.46-.34Zm-124.14.22c17.52,10.73,30.32,29,30.85,51.11,0,0-3.73-1.72-6-2.94l-.12-2.15H54l.39,2.42,2.67-.07-.71-6.05-4.19.39-.84-3.51,1.27-.28.7,2.21,2.72-.71-1.41-5.38-4.2,1.13-1.34-3.64,1.4-.49,1.12,2.18,2.56-.88-2.41-5.4-3.86,1.81-2-3.53,1.51-.79,1.21,2.09L51,131.6l-3-5-3.67,2-1.84-2.74,1.14-.79,1.25,1.44,2.1-1.47-3.21-4.28-3.51,2.72-2.6-2.94,1.2-1,1.78,1.59,2-1.73-3.83-4.12-3.35,3L33,116.24l1.22-1.34L35.74,116l1.65-2-4.16-3.39-3.12,3.06-3-2v-1.45a26.16,26.16,0,0,1,2.92,1.29l1.54-2.32-4.46-2.94Zm48.72.92.67,3.78c.62-1,1.12-1.74,2.48-1.35,1.63.66,1.65,3.09.26,6.81a12.26,12.26,0,0,1-.56,1.29,7.46,7.46,0,0,1-1.19-.62c-1-.68-2.68-1.44-3.54-2.78s-.92-3.36.73-3.2a6.59,6.59,0,0,1,1,.16l-2.47-3.11Zm-49.68,1.12,3,2-.63,1.13-2.4-1.07Zm76,.89c.87,1.22-2.22,4.79,1.82,6.22a1.41,1.41,0,0,1-.74,1.32c-2,1.42-4.82-1.17-4-3.84.62-1.71,2.25-3.69,2.92-3.7Zm8.37.12s1.22.87,1.47,1.11c2.24,2.13,2.27,5.19.23,6.26a2.55,2.55,0,0,1-3.42-.89.7.7,0,0,1,.36-.93.87.87,0,0,1,.32-.06c1,0,1.7-1.83,1.42-3.76a16.55,16.55,0,0,0-.35-1.73Zm26.54.7a23.78,23.78,0,0,0,.66,3.77c1.18,3.26-.33,5.24-2.54,4.15a4.48,4.48,0,0,1-.88-.86l-.21,3.73-3.11-.86c.68-1.08,1.66-1.85,2.39-3.06h-.88c-1.88.06-2.57-2-.61-3.69a37.59,37.59,0,0,1,5.21-3.12Zm16.41.87h1.5c2,0,2.5-.27,1.63,1-.35.48-1.18,1.81-1.43,2.27-.5.91-.59,1.2-1.44,1.38a29.22,29.22,0,0,1-4,.14c-.3,0,.32-1,.66-1.67.84-1.55,1.36-2.62,2.09-2.94a2.27,2.27,0,0,1,1-.16Zm-6.13,1.21c.25,0,.43.41.66,1.29.53,2,.66,2.11-.2,3.8l-1.48,2.89c-.78,1.53-.82,1.52-1.32.14-.94-2.63-1-2.35.54-5.31C147.42,112.12,147.86,111.14,148.25,111.14Zm-114.79.71,2.82,2.23-.81.77-1.55-1.14-2.3,2.43,3.78,3.42,3.2-3.12,2.75,2.83-.85.71-1.6-1.54-2.41,2,3.6,4.2,3.59-2.75L46,124.88l-.93.58L43.54,124l-2.36,1.62,3,4.09,3.69-2.1,2.1,3.42-1.16.55-1.2-1.83-2.66,1.52,2.51,4.78,4-1.65L53,138.08l-1.22.49-1-2.19-2.69,1.05,1.8,5L54,141.3,55,145l-1.25.35-.61-2.07-2.57.61,1.1,5,4.13-.26.48,4.08H55l-.36-2.35H52c0,.85.12,2.6.12,2.6l-1.58-.72a56,56,0,0,0-23.29-37.4L27.14,113l3.05,1.91S33,112.48,33.46,111.85Zm120.26,3.61c.87,0,.49.67-.58,2.67-1.19,2.24-1.4,2.28-3.62,2.82-2.7.65-2.62.8-1.16-2.29a8.63,8.63,0,0,1,1.49-2.62c.67-.52,2-.32,3.41-.53A3.59,3.59,0,0,1,153.72,115.46Zm-126.43.67c13,8.3,21.22,25.46,22.23,35.87a7.16,7.16,0,0,0-1.06-.56c-1-.44-1.22-.74-1.51-2.16a53,53,0,0,0-19.6-31.15Zm117.25,2.12c.55-.12,1.55,3.79,1.25,4.61-.21.59-2.14-.8-2.85-1.09C142.59,121.62,144.16,118.33,144.54,118.25Zm-62.7.18-.07,4a6.06,6.06,0,0,1,.76-.76c1-.7,2.44.27,2.5,1.47.08,1.66-.18,2.32-1.52,4.63-.42.72-1,1.62-1,1.62a29,29,0,0,1-3.33-2.83c-1.87-1.84-1.52-4.3.13-4.31a4.18,4.18,0,0,1,1.35.29A24,24,0,0,0,79,119.08Zm50.82,3a15.37,15.37,0,0,1,1.83,4c.93,2.77-.51,4.9-2.45,3.82a3,3,0,0,1-.72-.6,20.84,20.84,0,0,0,.14,3.79l-3.13-.54a23.9,23.9,0,0,0,1.84-3.37,2.22,2.22,0,0,1-1.06.14c-3.15,0-2.5-3.71,1.14-5.77.56-.3,2.41-1.49,2.41-1.49Zm18.08,0c.69,0,.36.63-.39,2.15-.84,1.69-.63,1.54-2.4.65-2.47-1.19-2.32-1.38.81-2.21A9,9,0,0,1,150.74,121.46ZM106,122c2.47,0,4.3,2.43,4,5.89-.62,5.89-.27,5.53.38,6.12,1.18,1.07-.42,1.7-1.83.68-1-.7-1.29-1.4-1.25-4.65,0-3.74-.15-4.69-1.5-4.36-.84.2-1.11.92-1,3.43.13,3.53-.11,4.42-1.47,5.55s-3,.12-1.69-.61c.6-.68.72-1.55.48-3.69-.31-1.8-1.39-8.39,3.9-8.31Zm61.11,3H168c4.76.17,16.79,1.14,16.79,1.14l.1,3.52c-.54.32-9.51-1-16.12-.91-1.54,0-2.64.7-3.75.13,1.07.45,1,5.75-3.75,4.47-4-1.43-2.05-6.78,3.07-8.14a22.42,22.42,0,0,1,2.72-.14Zm-26.47,2.35,10.28,5c1.44,19.08,8.11,39.26,30.76,54.53a125.73,125.73,0,0,1-23.44,13.37l-.86-.91c12.51-21.05,3.07-44.22-18.85-54.7a82.65,82.65,0,0,1,2.07-17.31Zm36.16,3.2c2-.08,2.48.15,2.65,1s.79,1,1.54.77c1.8-.66,2.9,2.52,1.4,3.92-.93.88-.76,1.21,0,1.22,1.89,0,1.83,2.46-.08,3.85-.8.57-.79.83.05,1.24,1.38.68,1.11,2-.66,3.14-1,.61-1,.75-.21,1,2,.54,0,3.36-2.23,2.86a3.35,3.35,0,0,0-2.61.54c-2.35,1-2.75,1.17-5.28.86-2.22-.4-3.22-1.13-3.8-3.06-1.3-3.93-2.71-8.29-2.73-12.59-.2-2.63,4.28-5,6.39-5.11,1.72-.27,3.69.35,5.57.37Zm-140.58.07a4.23,4.23,0,1,1-4.28,4.23h0a4.25,4.25,0,0,1,4.28-4.16Zm47.53,1.24-.36,3.77s.63-.48.78-.61a1.56,1.56,0,0,1,2.17.2,1.51,1.51,0,0,1,.3,1.34c-.13,1.27-2.33,5-3.21,5.8a58.25,58.25,0,0,1-3.91-4.55c-.83-1.65.31-3.38,1.84-2.64a7.57,7.57,0,0,1,.84.55l-1.11-3.5Zm-47.24.3c-1.52,0-3,1-2.76,2.19.13.52.93-.24,1.72-.73a2.19,2.19,0,0,1,2-.14c.61.22.88.78,1.24,1.21s.62.67.81.49a.75.75,0,0,0,.06-.65,2.91,2.91,0,0,0-3.06-2.3Zm115.18.57,1.52.78c2.06,27,15.88,42.83,30.34,52.27l-1.16.69a66.41,66.41,0,0,1-30.7-53.65Zm2.31,1.11s3.84,2,5.84,2.84l.08,2.44h-1.34l-.46-2.3-2.79.2.87,5.64,4.5-.54.63,3.41-1.53.31-.77-2.09-2.58.62,1.66,5.49,4.06-1.3,1.27,3.59-1.36.49-.87-2.1-2.67.92,2.07,5.35,4.22-1.35,1.71,3.36-1.28.56L164,157.21l-2.53,1.28,3,5,3.82-2,1.77,2.68-1.4.92-1.27-1.63-2,1.34,3.28,4.43,3.3-2.43,2.45,2.8-1.08,1-1.69-1.57-2,1.75,3.91,4.25,3.41-2.94,2.41,2.23-.72.73-1.61-1-2.16,2.27,4.11,3.53,3.27-3.53,2.76,2v1.47l-2.47-1.24-1.65,2.47,4.12,3.09v1.22c-23.57-13.92-29.76-35.49-31-51.54Zm-48.27.27c1,0,2.1.92,3.87,2.94,5,5.69,3.65,14.5-2.84,19.09-1,.67-1.33.61-2.48-.37-6.67-5.66-7.05-13.23-1.13-19.88,1-1.15,1.79-1.77,2.58-1.79Zm23.82.78c1.22,1.86,2.77,3.77,3,6-.08,2.23-1.6,2.64-3.18,1.34a10.68,10.68,0,0,0,.48,3.46l-2.85-.31a9.3,9.3,0,0,0,1.16-3.14,2,2,0,0,1-2.79-.27,2,2,0,0,1-.43-1.57c.54-2.37,2.56-4,4.64-5.47Zm-23.73,1.45a1.88,1.88,0,0,0-.85.47,12.28,12.28,0,0,0-3.8,4.91c-1.5,3.75-.53,8,2.85,11.27,1.7,1.67,2.31,1.55,5-1.89a9.93,9.93,0,0,0,1.3-9.82A10.86,10.86,0,0,0,107,137c-.54-.43-.83-.64-1.13-.62Zm54.8.7,2.2,1.07c2.82,18.39,12,29.62,22.2,37.36v1.71L182.26,175l-3.3,3.41-2.67-2.16,1-1,1.52,1,2-2.16L177,170.7l-3.34,2.85-2.77-2.83.84-.69,1.91,1.66,2.16-1.89-3.72-4.12-3.35,2.56-2.32-3,1-.6,1.22,1.65,2.56-1.58-2.71-4.12-3.87,2-2-3.52,1.12-.53,1.29,2,2.4-1.14L165,154.37l-4,1.3-1.45-3.83,1.13-.41,1,2.27,2.67-.86-1.82-5.23-4.08,1.14-1-3.85,1.26-.26.66,2.08,2.81-.56-1-5-4.18.52a35.74,35.74,0,0,1-.74-4l1.29-.11.41,2.2,2.8-.1Zm-54.65.4c1.53.21,3.4,3.12,3.82,4.18a9.21,9.21,0,0,1,.14,6.4,14.26,14.26,0,0,1-3.55,5c-.92.5-1.7.13-3-1.64-2.6-3.5-3.1-7.72-1-10.6,1.58-2.21,2.74-3.39,3.66-3.38Zm57.6.91,1.11.52c1.36,10.66,7.75,25.29,20.32,34v1.33c-9.77-6.94-18.75-18.9-21.43-35.89Zm-57.8.72c-4.37,3.27-3.68,8.37-.36,11.78,3.57-2.23,4.84-8.55.36-11.71ZM39,139.2c2.47,0,4,.79,4.78,2.49a15.6,15.6,0,0,1,1.57,4.51c.14.78.34,2,.46,2.64,1.28,7.14.34,9.81-4.05,10.95a10.37,10.37,0,0,1-4.4.14c-.34-.08-1.57-.09-2.53-.12-1.92-.06-2.49-.26-3.45-1a2.3,2.3,0,0,0-1.11-.56c-2.18-.34-2.83-2.33-1.18-3.8,1-.83,1.05-1,1-1.09a1.84,1.84,0,0,0-.9-.15c-2.21,0-2.18-2.25,0-3.86,1.06-.76,1.54-1.49.84-1.31-2,.47-2.72-2.43-.62-3.34,1.12-.61,1.93-1.13.84-1.19-.9.07-1.64-.58-1.36-1.37a3.19,3.19,0,0,1,3.24-1.48c.82.25,1.64.48,2.15.11a6,6,0,0,1,2.91-1.45,15.73,15.73,0,0,1,1.82-.09Zm73.37.55,10.15.19-.3,9.82-9.56-.18a12.52,12.52,0,0,0-.29-9.81ZM89.6,140l9.71.12a14.85,14.85,0,0,0-.4,9.67l-9.52-.15Zm16.23,0c2.61,1.51,3.33,7-.29,9.82-3.46-3.45-2.77-7.72.29-9.74Zm-24,4.28,2.6.25-.92,3.69a2.79,2.79,0,0,1,.55-.48c3.35-1.56,3.59,2,.18,5.14-.75.71-2,1.67-2,1.67s-1-1.42-1.7-2.7-1.44-2.67-1.29-3.41a1.56,1.56,0,0,1,1.78-1.3,1.39,1.39,0,0,1,.55.19c.4.32.88.8.88.8ZM128.37,147s1.09,1.11,1.75,1.83c2.31,2.49,2.7,4.82,1.54,5.52a2,2,0,0,1-2.43-.5,15.77,15.77,0,0,0,1.37,3.83l-3.43.54a22,22,0,0,0,.78-4.26,7.47,7.47,0,0,1-1,.67c-2.24.81-3.36-1.71-1.51-4.22a26.1,26.1,0,0,1,3-3.41Zm46.91,4.66a4.1,4.1,0,1,0,0,.08Zm2.05,1.9c-.17,0-.32.44-.34,1.34-.21,1.86-1.77,2.6-3.47,1.74-.69-.34-1.28-.85-1.28-.46a4.92,4.92,0,0,0,1,1.69c1.45,1.28,5,1,4.88-2-.09-1.33-.49-2.29-.79-2.22Zm-75.74,1.54a1.85,1.85,0,0,1,1.39.54c1.14.76,1.36,1.75,1.42,5.47.07,3.27,0,3.35.55,3.76,1.34,1,2.14-.51,1.77-3.84s.79-5.52,2.75-5.51c1,0,1.14.57.4,1.28s-1,1.67-.71,3.52c.61,4.73.08,7.06-1.93,8a3.74,3.74,0,0,1-5-1.74,4,4,0,0,1-.32-1,22.29,22.29,0,0,1-.09-5.77c0-2.06,0-2.3-.73-3.47-.51-.71-.13-1.11.46-1.15Zm-52.8,1.62a3.46,3.46,0,0,1,3.09,2.13c1.74,3.55-2,6.48-5.48,6.7A139.28,139.28,0,0,1,27.26,164l.09-3.35c5.52.31,11.76.76,18.46,1.07C45.05,158.54,46.86,156.68,48.79,156.68Zm31.54.69,3.35.72-2.14,3.44a2.12,2.12,0,0,1,1.7-.23c1.36.48,1.38,2.19.39,3.78-.8,1.16-3,2.54-4.53,3.39-.84-1.81-2.73-5-2-6.7a1.81,1.81,0,0,1,2.37-.93l.14.07c.35.21,1,.53,1,.53Zm7.94.09,10.18.12c-1.48,10.17-4.37,23.76-10.08,34.84L86,193c5-11,8.37-21.32,9.92-32.87H90.78C87.8,172.55,83.53,184,76.89,194l-3-1c7.11-11.14,12.74-23.58,14.31-35.56Zm23.21.18h11.34c2.08,20.72,9.16,34.86,19.7,48.84a2.15,2.15,0,0,1-1.07,0,6.54,6.54,0,0,0-3.73-2.58c-8.85-12.61-14.78-30.23-16.22-43.72h-6.74c.77,16.93,5.51,30.82,11.82,44.27l-3.42.62c-5.12-12-10.68-22.53-11.73-47.43Zm17.64,2.55c.93.72,2,1.43,2.9,2.1,2.55,1.78,2.52,5.13,0,5.11h-.88s1,2.19,1.65,3.31c-1,.26-3.19.66-3.19.66a27.07,27.07,0,0,0,.25-3.92,3,3,0,0,1-.77.61c-1.65.69-3-.73-2.83-2.41.27-2.33,2.82-5.44,2.82-5.44Zm-75.76.42L59,163.34c-3.81,8.57-8.17,16.59-14.47,22.69l.17-19.8c3.39-.13,7-.13,8.66-5.62Zm38.18.3H95c-1.53,15.8-12.08,37.18-14.06,39.76l-.66.48s-1.35-4.85-3-6.57c6-8,12.19-23.22,14.22-33.67Zm24.14,0h5.19c1.61,12.59,5.54,26.2,15.51,42.72a3.35,3.35,0,0,1-1.76-.36c-1.7-1-2.88.34-3.9.29a8.69,8.69,0,0,0-3.48.2,115.07,115.07,0,0,1-11.61-42.85Zm-56,2.83,1.86.86c-4,9.12-7.55,16.36-17,25.26V187.2c6.63-6.35,11.11-14.72,15.17-23.46Zm2.7,1.27a24,24,0,0,1,2.7,1.31c.28.11.2.35.21.61-.36.87-1.9,1.24-2.49,1.41s-1.4.34-1.53.37c-.8.19-.54-.62.33-2.36.35-.8.5-1.32.73-1.34Zm3.7,2a9.63,9.63,0,0,1,3.27,1.62c.18.52-.31,1.34-1,2.85-1.09,2.33-1.31,2.39-1.63.47-.06-.33-.39-1.41-.58-2.14-.52-1.72-.61-2.7-.12-2.83Zm4,1.87s1.3.63,1.73.9C66,187,50.55,201.16,50.63,200.87l-2.47-1.4c10.3-9.19,17.86-20.07,21.89-30.61ZM64,169.1c.57,0,.07.69-.68,2.35s-1,2.2-1.63,2.46a25.62,25.62,0,0,1-3.58.56c-.53.09-.31-.3.5-2,1-1.91,1-2.31,2.49-2.71a23.92,23.92,0,0,1,2.85-.75Zm2,3.42c.6,2.13.59,2.55.18,3.29-.75,1.39-1.73,3-2,3.45-.68,1.1-.87.87-1.27-1.8-.25-1.65-.47-2.4-.29-3.12.34-.82,1.35-2.73,1.92-3.86.82-2.4,1.26,1.83,1.46,2Zm10.7-1.86,3,1-2.39,2.85a8.35,8.35,0,0,1,1.12-.13c2.39.16,2,2.52.14,3.92A34.35,34.35,0,0,1,74,180.69c-.4-2.11-1.24-3.46-1-5.63.14-1.16.25-2.22,1.69-2.25.76,0,1.07.73,1.56,1.35Zm55.26,2.56a25.3,25.3,0,0,1,3.53,2.23c2.22,1.69,2.6,3.68.39,4.44a4.1,4.1,0,0,1-1,0,19.31,19.31,0,0,0,2.06,2.62,10.73,10.73,0,0,1-2.93,1.26s-.28-2.62-.55-3.63a2.29,2.29,0,0,1-.66.79c-2.14,1.32-3.82-1.16-2.67-4.3a17.34,17.34,0,0,1,1.78-3.45Zm-23.51.43c5.34-.13,2.22,8.53-.45,8,0-.08,2.2-5.12-.83-5.89-1.39-.43-.2-2.12,1.28-2.11Zm-8.76.62c1.67,0,2.87,1.15,1.29,1.87-2.5,1.15-1,3.93-1,5.45,0,1-2.22-.83-2.71-2.76-.57-2.53-.29-4.38,2.41-4.59Zm-39.48.91a1.4,1.4,0,0,1,.73.1c.16.4-.58,1.68-1.67,3.32A3.59,3.59,0,0,1,58,179.84a7.57,7.57,0,0,1-3,.42c-1.47,0-1.21,0,.42-2.52a10.87,10.87,0,0,1,1.61-2.31,19.06,19.06,0,0,1,3.1-.32Zm1.93,1.8c0,3.13,1.07,4.16.27,5.14a40.78,40.78,0,0,1-2.64,3.75c-.75.89-.66.73-.86-1.61a10.59,10.59,0,0,1-.08-3.37c.65-1.53,1.41-2.26,2.21-3.92.63-1.32,1.1-1.1,1.1,0Zm42.14,1.57c1.54,0,2.51,1.65,2.43,3.15l-.06,1.43c2-.76,4.48,0,4.59,2,.19,3.29-2.26,2.95-4.33,2.77.2.08.51,2.95-.73,4.1-2,2.15-5.55-.05-4.64-3.19a7.84,7.84,0,0,0,.23-1.07,8.16,8.16,0,0,1-1.75.44c-4-.17-3.63-5.67.32-5a7.82,7.82,0,0,1,1.35.33l-.22-.84c-.58-2.19.63-4.12,2.79-4.09Zm78.63,1,2.12,1.21v2.33l-3-2.21Zm-127,1.56c.84,0,1.49.06,1.36.26a17.53,17.53,0,0,1-2.9,4.08c-.93,1-1.06.84-3.31.72-.88,0-1.46,0-1.44-.27,1-1.35,2.47-3.08,3.46-4.53a14.9,14.9,0,0,1,2.83-.26Zm2.07,1.1c.16,0,.2.33.2,1.06,0,.55.08,2.25.16,3,.14,1.34.14,1.34-.44,2.14a20.42,20.42,0,0,1-2.34,2.72c-1.37,1.5-1.23,1.59-1.21-1.63,0-2.5-.18-2.5.33-3.09.29-.33,1.16-1.38,1.73-2.21.87-1.25,1.34-2,1.57-2Zm13.07.44,2.81,1.49L71,187a8.17,8.17,0,0,1,1,0c1.8.34,1.68,2.25-.15,3.67a44.81,44.81,0,0,1-5,2.08,38.22,38.22,0,0,1-.42-4.78,3.43,3.43,0,0,1,.72-2.33,1.52,1.52,0,0,1,2.13-.11h0a3.74,3.74,0,0,1,.79,1Zm33.27,1a2,2,0,1,0,2,2,2,2,0,0,0-2-2h-.09Zm31.52.46a21.29,21.29,0,0,1,5.35,2.89c1.56,1.28.82,3.39-.72,3.43-.11,0-.76-.09-.76-.09.52.78,2.27,2.71,2.27,2.71l-2.86,1.14s-.45-2.16-.8-3.39c-1,2.28-3.45.79-3.61-.62-.44-2.11.45-4.14,1.09-6.11Zm-31.52.18a1.38,1.38,0,1,1-1.39,1.37h0a1.37,1.37,0,0,1,1.34-1.41Zm-54.47,2.82c1,0,2.23,0,2.79.07.43.32-.46,1.31-2.17,3.09-1.37,1.42-1.57,1.23-3.24,1.23-2.78,0-2.85,0-1.57-1.39a15.61,15.61,0,0,1,2.86-2.94,7.43,7.43,0,0,1,1.33-.08Zm3.4,1.38c.29-.06.21.69.16,2.37l-.08,2.85-2.17,2.06c-2.5,2.23-2.2,2.37-2.18.29a9.21,9.21,0,0,1,.36-3.54c1.09-1.31,2.23-2.47,3.47-3.71a1.16,1.16,0,0,1,.4-.36Zm55.08.71c.61,0,2.15,2.56,2.53,4.74.89,5,3.9,7.35,6,5.35.87-1.18,1,.11.92.71-.45,6.33-7.68,3.7-8.5-2.58-2.54,1.63-5-1.67-3.4-1.61,3.58-1.12,2.6-4.37,2.42-6.61Zm-8.37.05c.35,2.19-3.63,5.89-5.87,3.31-1.15-1.35-.1-4.1,1.35-2.4,1.55,1.13,3.11-.23,4.48-1Zm-54.72,3c.82,0,2,.14,2.52.07.73.07.21.42-1.37,1.85-1.36,1.22-1.75,1.77-1.91,1.23-.08-.82,0-1.81,0-2.94a1.4,1.4,0,0,1,.8-.17Zm18.52,1.38,2.43,1.76-2.41,2.19c2.17-.1,2.35,1.9,1.54,3-.54.78-2.58,1.6-4.63,2l-2.24.34s0-1-.07-2.5c-.08-3.19.14-4.45,1.38-5.08a2.42,2.42,0,0,1,2.76,1.07,7,7,0,0,0,.45.74Zm-15.62.18h0c.13.19-.36,5.39-.36,5.39l-3.52-2s3.56-3.37,3.86-3.43Zm93.15.61c2.51,1.17,4.38,1,6.07,2.4a1.93,1.93,0,0,1,.61,2.7,1.78,1.78,0,0,1-.61.61,4.29,4.29,0,0,1-1.29.07,18.44,18.44,0,0,0,2.84,2.45l-3.09,1.27s-.43-2.05-.82-3.18c-.56,1.67-2.46,1.63-3.54.85-.78-.58-1.1-2.54-.73-4.23.1-.44.6-2.94.6-2.94Zm11.28,16.94c3.18,4.44,5,8.16,5.45,13.74.29,3.44.19,4.08-.63,4.07-.53,0-.75-.26-.75-.85.06-9.31-11.54-11.5-15.88-3.45-2.54,4.71-1.29,11,4.16,19.48,5,8.07,11.45,14.19,15.12,22.87,3.63-8.62,10.91-15.86,16.14-24.16,7.53-10.68,5-21.94-4.37-23.13-4.27-.54-8.93,3.68-9.48,8.06-.12,1-.33,1.27-.87,1.18-.73-.1-.46-2-.14-4.61a32.56,32.56,0,0,1,5.46-13.18Zm45,12.34a19.77,19.77,0,0,1,2.69,4.3,5.12,5.12,0,0,1,.29,2.36c-.19.5-.67.12-1.27-.65-1.61-2.14-4.82-1.46-6.12,1.32-1,2-.42,4.58,1.33,7.5,2.08,3.82,7.19,10.68,7.34,11.31a97.1,97.1,0,0,1,6-10.23c1.39-2.34,2.42-4.31,2.48-7.39-.32-3.84-5-5.42-7-2.44-.67,1-1.07,1.25-1.29.47-.16-.53.32-1.67.57-2.95a14.08,14.08,0,0,1,2.26-3.65Zm-72.73,19.13c-30.47,7.14-55.16,2.73-57.61,1.85l-2,2.85c-.24.49-.39,2-1.7,2.34l-2,2.94.39.4-1.75,1.51.42.51L59.26,257l-.5-.05-3,4.43.45.49-6.76,10.46h91.44C135.68,262.46,130,252.73,124.75,242.78Zm-.56,1.3.55,1.49c-1.52-.19-3.29-.28-5.08-.36C121.23,244.89,122.82,244.5,124.19,244.08Zm-5.31,1.29a15.41,15.41,0,0,0-5.95,4.58,16,16,0,0,0-6.3-2.75Zm-51.39.73,1.3.14s-.43.34-.74.27A1.88,1.88,0,0,1,67.49,246.1Zm58.25.74.82,1.61c-2-1-10.45-3.41-12.9,4.91-2.53-3.39-13-8.29-18.24,2.13-1.51-2.82-10.26-10.94-18.25-.59-3.15-6.44-5.78-7-11.55-6.09,4.1-3.93,9.92.15,12.32,3.48,7-5.65,12.65-3.93,17.69.64,6.49-7,13-5.31,17.53-1.8,3.2-4.66,6.33-6.06,12.53-4.3Zm-53.2,0c4.1.55,8.2.8,12.29,1-2.37.87-4.8,1.6-6.73,3.34a15.68,15.68,0,0,0-5.56-4.28Zm29.54.65a30.78,30.78,0,0,0-6.57,4.25A20.58,20.58,0,0,0,89,247.88,92.84,92.84,0,0,0,102.08,247.49Zm99.68,2.27h0v0Zm-73.42,1s-.83.14-1.09.21a3,3,0,0,0-2.22,3.7,3.07,3.07,0,0,0,3.11,2.28c.41,0,.82-.07,1.23-.13-.07,3.41,1,4.24,4.5,4.05l6,10.56-88.31-.37,5.54-8.81c2.83.34,4.6-1.22,4-3.59a15.39,15.39,0,0,0,2.23.53c3.19,0,4-4.83,1-5.67-.35-.09-1.2-.19-1.3-.22,1.4-3.45,5.24-1.41,6.35,0a3.89,3.89,0,0,1,6.39,1.5s-.46-.25-.61-.36c-2.9-2.1-5.6,2.26-2.75,4.26a3.74,3.74,0,0,0,.87.37,3.25,3.25,0,0,0-.67.81,3.21,3.21,0,0,0,1.23,4.39,3.31,3.31,0,0,0,2.54.28c2.21-.84,2.24-2.49,2.24-4.29,0,0,.76.06,1.45.06,2.64,0,3.4-3.32,1.77-4.91a4.21,4.21,0,0,0-2.58-.88c3-2.95,5.12-.91,7.27.45.32,0,3.74-4.05,7.78-.08A3.09,3.09,0,0,0,90.39,257a3,3,0,0,0-.12.73c0,1.3,1,2.45,3,2.54a5.51,5.51,0,0,0-.38,1.79,3.16,3.16,0,0,0,6.31.07,3.09,3.09,0,0,0-.1-.85,2.3,2.3,0,0,0-.68-1,3,3,0,0,0,3.73-1.92,2.94,2.94,0,0,0-1.94-3.7,3.11,3.11,0,0,0-.8-.13,3.07,3.07,0,0,0-2.45,1.1c2.19-4.42,6.18-3.53,7.67-1.73,2.06-1.47,4.88-3.48,8.27.1a4.46,4.46,0,0,0-2,0,2.72,2.72,0,0,0-.56,5.09,4.56,4.56,0,0,0,2.12.43,3.19,3.19,0,0,0,2.38,3.83,3.26,3.26,0,0,0,2.33-.33c1.62-1,2-3.27.3-5.36,3-.13,3.22-3.75,1.53-5-1.33-1-2.9-.53-4,.78-.37-1,2.53-4.65,6.63-2,2.17-1.8,4.33-2.35,6.79-.55Zm1.28,2.83,1.15,2.06a1.32,1.32,0,0,1-1.41-1.22,1.26,1.26,0,0,1,.22-.8Zm-14.82,2.09a1.29,1.29,0,1,1,0,2.57,1.3,1.3,0,0,1-1.3-1.29h0a1.3,1.3,0,0,1,1.26-1.24Zm-53.58.08c.18.68.25,1.38-1,1.51Zm129.89.59v3h2.38l6.73,15.32-6.45,9.95H191v2.56h9.24v-2.56h-2.7l8.21-12.4v12.4h-2.35v2.56h8.35v-2.56h-3V259.35h3v-3h-8.35v3h2.36c.06,2.48.07,4.61,0,7.09-1.17,1.56-2.39,3.44-3.68,4.91l-5.2-12h3.36v-3Zm-115,.65a2.59,2.59,0,1,1-.08,0ZM96,257.4a1.26,1.26,0,1,1-1.27,1.26h0a1.26,1.26,0,0,1,1.17-1.21Z" transform="translate(-0.78 -2.68)"/>
  </g>
</svg>
