<svg xmlns="http://www.w3.org/2000/svg" viewBox="0 0 211 284.5">
  <defs>
    <style>
      .a {
        fill: #e2cf00;
      }

      .b {
        fill: #131f67;
      }

      .c {
        fill: #d40000;
      }
    </style>
  </defs>
  <title>sq</title>
  <g>
    <path class="a" d="M96.89,271.2l23-41.68a124,124,0,0,0,12.06,3.8c-6.26,16.16,0,37.5,0,37.5S96.87,271.16,96.89,271.2ZM33.58,200c-1.31-17.71-1.35-34.83,1.59-49,.06-.22-8.23-4.91-7.37-5.51,1.32-.83,17.63-9.27,17.63-9.27a4.13,4.13,0,0,0,2.06.53c.74-.08,1.43-.75,1.15-1.45a20.16,20.16,0,0,1-1.17-10.14,15.48,15.48,0,0,1,3.14-6.74c3.08-3.65,10.11-1.72,12.14-1.78,1.3,0,5.22-13.62-1-16.14-1.72-.69-5.67,8.57-2.92,10.66.41.3-5.52-3.1-10.05-5.13a6.09,6.09,0,0,1-2.69-3.47c-.53-2.33,6.94-6.8,5.48-9.43-2.14-3.83-7.66-9.54-10-8C39.32,87.09,34,91.21,34,94c1.66,5,5.89,5.37,8.12,10.11a63.37,63.37,0,0,0,4.64,5.34c-1.54,2.32,1,6.39,1.06,5.76l-19.42-8.35s4.44,33.12-.25,38c-.49.52,4.15-1.3,4.23-1C33.82,145.63,49.47,155.49,54,159c7.94-11,10.85-15.84,21.11-25.57,2.25-1.85,7.26-5.22,10.13-9.26a14.15,14.15,0,0,0,2.85-9.76c-.54-3.67-.87-6.18-3.16-9.11C79.61,98.58,71.2,92.13,71.34,92l2.88-2.31S84.59,98.18,89,104.45c3,4.21,1.64,9,4.19,9.9.61.21,4.8-.13,6.18.12.16,0,30.51,21.26,25,22.48-7.61,1.69-19.76.59-19.76.59-8.66-8.39-12.9-11.15-18-8.52,0,0-13.09,11.35-20.65,20.24-4.31,5.06-7.94,11.4-10.78,15.47-1.11,1.58-15-11.66-14.89-10.08,2.06,14.41,3.25,31.77,1.65,43.55-1.09,9.94-2.59,20.76-3.27,29.93a8,8,0,0,1,4.12,0,2.64,2.64,0,0,1,1.75,2.2c.51,4.39-5.19,3.36-5.32,2.95l3.17,6.77s-5,8.45-4.8,8.07c.09-.22-4.48-7.49-4.48-7.49s3.47-6.07,3.91-7.34c.25-.76-5,2.52-5.42-2.22s5.75-3.5,5.47-2.95c-.74-9.84-2.4-19.93-3.45-28.18Zm74.3,22c.13-.11-13.12-5.27-25.29-4.78-4.29-1.66-11.28-3.39-16-.31a167.81,167.81,0,0,1-14.38-11.24c1.28,0,6.11-30.79,9.27-41.52-1.41-13.31,11.55-13.3,12.67-2.64,14,14.3,31,29.08,48.63,43.63-2.79,5.75-12.9,10.14-15,16.86Zm30.51-94.23C122.51,111.72,89.18,83,89.18,83l15.58-15.07c8.19,2.42,16.6,4.43,26.09,4.52,0,0,10.42,4.69,16,0l14.38,11.3s-6,31.09-9.46,41.94c.07,4.29-1.57,9.54-5.85,10.31C142.21,136.65,139.39,131.52,138.39,127.79Zm32.14-37.22c1.67-10.11,2-17.47,3.16-29.25-7.18,2.07-7.08-7.51,0-5l-3.27-7.13,4.84-8,4.37,7.63-3.83,6.76c7.94.39,6,7.7-.81,5.91,1.3,11.29,4.14,22.7,4,33.87,2.46,17.91-3,42.83-2.12,43.42L184.6,144l-1.33,39L171,177.7l-3.64,2.43c1.16,2.29,2.65,4.49,3.15,7,0,0,8.43,6.89,7.27,9,.53.32-6,8.85-7.94,8.69-3.67-.42-7.94-5.1-9.13-8.44s7.57-6.64,6.48-9.1c-1.29-3-4.58-4.35-7.48-5.21a12.71,12.71,0,0,1-6-4.33s-1.56,12.45-3.06,11.46c-6-4-1.9-16.72-.78-16.37a48.23,48.23,0,0,0,5.74.89c11,1.14,10.22-12.2,8.09-18.68-.53-1.54.3-1.55.24-1.57-.5-.17,1.78-.05,3.71-.61C173,151.3,181.13,146,181.13,146a193.12,193.12,0,0,1-22.9-15.16s-6.3,10.64-13.76,18C139,154.21,138.15,156,129.06,163c-.18.14-6.89,8.09-3.69,17.37,2.73,8,15.87,16.55,15.79,17.12l-2.59,2.45c.1.15-18.61-11.5-18.18-24,0-.47-8.51-.64-8.51-.64L87.33,152.6l20.85-.09,10.72,8.68,6.71.35c.44.37.68-1.76,6.58-6.12,11.29-8.33,25.26-29.73,25.26-29.73L172.24,136c-.73-15.46-3.26-32.08-1.73-45.41Zm-53.8-73.06S101.38,46,92.91,59.53L81,56.15C86,43,81.21,18,80,17.33Z" transform="translate(-0.76 -2.37)"/>
    <path class="b" d="M25.13,15.85,26,273.12l161.19-.06-.47-257.21Zm112,186.39a140.07,140.07,0,0,1,22.28-17.08c2.75-1.63,3.58-1.86,4.65-.9,1.76,1.58,2.85,3,2.28,4.07a3.45,3.45,0,0,1-.54.67l-4.23-1.51,1.37,4.75c-3.8,1.53-3.73,5.6-.06,7.76l-2.53,5.75,5.88-2.56c.21,1.26,4.4,4.29,7,0l5.3,2.57-1.82-6.47c1.73-1.64,2.75-4.27,0-6.68l1.26-5-4.79,1.54c-1.2-1.62-1.89-1.51-2.17-2a7.64,7.64,0,0,0-.89-3.31,21.26,21.26,0,0,0-2.12-3c-.38-.62-.08-.68,1.84-1.7.89-.49,1.64-1,1.64-1s9.41,4.68,13.25,6.46l.22,86.21-51.66-.15c-5.8-17.18-1.63-32-.09-38.29-2.71-.22-16.68-4.7-17.09-6.25,5.52-8.71,13-16.63,21-23.86ZM36.63,227.36c-6.74-2.15-6.81,5.9-3.37,6.5a5.88,5.88,0,0,0,3.22-.15c.35.07-4,6.74-4,6.74s3.5,6.32,5.19,9l5.3-9.32-3.46-6.42c5.43,2.74,8.23-5.42,2.54-6.5a6.25,6.25,0,0,0-2.9.5l3-27.93c2.41,1.62,6.82,4.92,6.82,4.92,1,15.39.27,28.22,8.94,50.61L58,270.89H28.17l-.12-81.44,5.21,3.7c.12.46-.82.16-.31,5.81.45,5.12,2,14,3.68,28.38ZM143.69,18.23a6.73,6.73,0,0,1,.42,1.52c1.21,4,5.4,8.78,8.75,10,1.17.44,1.62,1.11,1,1.78-.85.85-4.38-1.47-6.95-4.47-2.36-2.72-4-5-4.29-6.7a4.78,4.78,0,0,1-.15-2.19.72.72,0,0,1,1-.21A.76.76,0,0,1,143.69,18.23Zm4.16-.43c.45,0,1.05.52,1.4,1.45a11.07,11.07,0,0,0,4.31,5.4c.56.39.79,1,.5,1.31a.67.67,0,0,1-.4.22c-1.64.47-5.95-4.49-6.31-7.57C147.28,17.94,147.52,17.8,147.85,17.8Zm5.38.06c.88,0,1.29,1.8.79,2.75-.33.29-1.05-.16-1.69-1.35C151.77,18.25,152,17.86,153.23,17.86Zm-3,0c.19,0,.6-.1.81.17.33,1.87,1.76,3.22,2.89,4.3.19.35.28,1.09-.14,1.29-1,.43-4-2.95-4-4.92,0-.51.19-.8.46-.81ZM146.48,19a14.54,14.54,0,0,0,5.84,7.63c1.63,1,2.25,1.6,1.5,2.13a1.3,1.3,0,0,1-.42.22c-3.8-1.44-8.47-6.89-8.63-10.75.88-1,1.61.15,1.75.8ZM133.31,33.8a16.45,16.45,0,0,0-6.44,1.35c-2.76,1.23-3.45,2.06-3.05,2.37s2.07-.55,3-.66c4.83-1.19,8.14-1.48,11.28-.12,2.42,1,2.44.56.81-1.18-1.14-1.21-3.25-1.71-5.52-1.7Zm17,2.61c1.59,0,3.22.36,3.8,1.1.44,2.38-.76,1.28-1.72.81a8.35,8.35,0,0,0-4.5-1c-1,.15-1,.1-.44-.21a6.06,6.06,0,0,1,2.86-.74Zm-18.86.93c-4.56.35-6.13,2.63-9.07,5-1.21.91-.94,1.62.53,1.37,1.82-.29,2.55-.22,5,.62,2.71.92,4.64,1.29,6.13.73,2.82-1.07,2.57-.89-1.45,3-2.15,1.72-1.28,1.63.89.15,1.62-1.28,2.72-2.1,3.06-2.79.17-.34.18-1.56.49-1.56,1,0,.49-1.26-.44-1.8-.62-.43-.48-.88.32-1.71,1.24-1.3.81-1.88-.54-1.07-.23.13-.35-.27-1.17-.76a6.71,6.71,0,0,0-3.79-1.13ZM134.72,39c1.11.93.64,1.18-1.76,1.15a17.59,17.59,0,0,0-6.18,1c-2.74.9-2.9.92-1.3-.44,2.24-1.77,6.73-3.69,9.26-1.64ZM149,38.24a5.48,5.48,0,0,1,2.87.59c2.31,1.25,2.81,2.34.26,1.46a9.73,9.73,0,0,0-5.27-.07c-1.54.42-1.8.57-1.6-.25s1.92-1.63,3.76-1.67Zm-18.05,3.7c.54,2.71,2.61,1.82,2.81.19h.76c-.32,2.17-3.3,3.93-4.46-.19.25,0,1.33.07.89,0Zm16.5,0H148c.37,2.07,2.32,2.75,3.16.16h.72c-.54,4.43-5.16,2.32-4.41-.05Zm-18.08.2c.37.13.54,1.14.47,1.42-.13.55-2,0-2.33-.59.4-.29,1.3-.93,1.87-.72Zm24.81.46v.76c-.85.2-1.19.67-2,.51a2.86,2.86,0,0,1,.43-1.71A1.37,1.37,0,0,1,154.14,42.6Zm-18.39.88a1.85,1.85,0,0,1-.91.32c-.09-.72-.21-1.53.71-1.54a.71.71,0,0,1,.61.79.69.69,0,0,1-.37.53Zm10.52-1.2c.31,0,.69.8.74,1.27-.1.75-2,.45-2-.3a2.15,2.15,0,0,1,1.28-.87ZM129.13,71c-1.45-.72-12.44-7.34-15.26-19l-.55,1.2c1.19,2.8,3,7.34,3,7.34-.07-.38.45,3,1.57,8.85A7.13,7.13,0,0,1,116,69c-1.45-5.35-1.79-9.54-3-14.75l-.53,1.46S114,65.14,115,68.8a15.94,15.94,0,0,1-1.68-.29c-.87-3.94-1.53-6.62-2.35-10.59l-.74,1a61.43,61.43,0,0,1,2,9.29,6.16,6.16,0,0,1-2.18-.56s-1.11-5.7-1.26-5.78a2.74,2.74,0,0,0-.59,1,22.79,22.79,0,0,1,.89,4.48,19.48,19.48,0,0,1-2.8-.81,4.92,4.92,0,0,0-1,1.24c.42,1.81,25.64,5.74,24.12,4.24,0,.16,11.13,4.82,17.33.86,0,0,10.81,7.93,15,11.1,0,.37,1.46,2,3,3.12L169,90.33c1.24,1,1.74.25,1.93-1.55.22-2,1.69-15.52,2-18.4,1.29-9.72,1.29-9.61-.19-9.17-2.29.69-4.33-.2-4.33-2.51a3.11,3.11,0,0,1,2.17-3.13,5.34,5.34,0,0,1,1.64-.14c.3.06.84.09.9.1.73,0-2.81-6.38-2.81-6.38s3.38-6,5-8.17l4.36,7.87-3.57,6.88c6.95-.51,6.28,8.17-.54,5.25v2.39c.07-.73.06-1.36.3-1.5,6.6,2.48,7.94-7.06.84-6.63,1.17-2,2.47-4.11,3.69-6.34l-5.15-9.3-5.82,9.59,2.93,6a5,5,0,0,0-1.89,0c-4.3.88-3.38,7.75,1.54,6.81a7.71,7.71,0,0,0,1.41-.53l-3.17,28.06s-.32.25-1.59-.66c-1.48-1-4.57-3.33-4.77-3.57,1.11-17.94-3.42-36.82-8.59-48.64-.33-.9-.13-18.69-.13-18.69l29.32.07.11,82.68c-1.53-1-3.19-2.22-4.77-3.32a1.36,1.36,0,0,1-.56-1.56c-.52,1.11-.21,1.58-.21,1.58l6.48,5.12-.26,81.37s-10.45-5.35-16.87-7.87c-2.9-1.18-3-.84-3-.84s2,4.55,1.47,5.38c1.38,1.32,3.7,4.08,3.82,6.78a8.69,8.69,0,0,1,2.51,2.72l3.88-1.38-.87,4c4.13,2.87.15,6.73-.62,6.37a42.7,42.7,0,0,1,2.24,5.64c-.65,0-3.92-1.8-4.84-2.22-2.36,4.63-6.37.74-6.4.06l-4.43,2,1.56-5c-2.85-1.73-4.79-4.33-.16-7.15l-1.07-3.93,3.8,1.48s.71-1.13,1.26-2c-1.43-6.14-10.78-5-13.79-10.5a80.46,80.46,0,0,1-1.49,9.39c-.3,6.59-5-.08-5-7.05,0-1.57,2-6.88,2.67-7.13.7-.1,7.37,3.1,11.86-.08,2-2.1,5.56-8,2.18-17.28-1.12-2.14,2.13-2.41,3.18-1.69,0,0,9.75-5.06,14.16-7.48-7.39-4-22.75-14.76-22.74-15.24-2.05,3.23-4.39,5.9-7.7,10.48-5.35,6.25-9.53,12.18-16.31,17.17-9.55,6.88-11.79,13.82-9.13,21.95,1.08,3.52,3.25,7.09,6.8,8.32,1.81,1.81,9.07,8.63,9.07,8.63-12.12,10.94-20.44,19.93-26.28,29.87,5,2.57,16.81,6.29,16.81,6.29-4.41,14.53-2.41,26.08.5,37.67,0,0-34.49,0-52.38-.51a5.55,5.55,0,0,1-2.11-.08c-.07-1.3,3.22-4.86,4.2-4.36.5-.49,1.54-.74,1.35-1.33-2.46-.29-6.21,3.94-6.36,5.69H75.54c-.3-.27,2.67-7.14,8.64-7.69-.07.24.79-.53.15-.87-7,.82-10.19,8.45-9.93,8.56H73.27a14.13,14.13,0,0,1,12.08-10.21s1.15-.4.85-1.06c-7.87,1.35-11.79,4.73-13.67,11.27H71.11c1-6.64,7.94-12.45,15.69-12.26.25-.15.54-.33.41-1.09-8.64,1-12.9,3.82-16.49,11.17-3.18-8.16-12-12-12.11-12.07s-.21-2.29.28-2.19c7.53,2.7,10.4-3.77,10.09-7.54a32.27,32.27,0,0,0-.76-6.27,26.73,26.73,0,0,1-1-5.67c0-1.16.41-1.39,1.28-1.78,1.61-.73,2.62-3.35,2.26-3.67-.82,1.91-3,2.24-4,3.52-.8,1.05-.45,2.73,1,8.58.88,3.56-.16,2-2.2.81l-1.36-.76c.91.93,1.88,1.81,2.81,2.72.83.75.37,1.22-.83.78-1.72-.85-5-.49-6.31.58-.49.35-.67.31-.8,0-.56-9.07.41-14.66,3.44-21.47,2-4.64,4.88-8.11,8.78-8.36a25.12,25.12,0,0,1,14.67,4.49c6,4.05,11.91,10.21,12.51,17.76a3.85,3.85,0,0,0,.66-1c.27-.89-.73-3.59-2.3-6.72-.29-2.35-1.1-6.48-1.74-9.26a2,2,0,0,1,1.82.25c1.1,4.62,1.89,8.21,2.83,14.38,0,.6.79-.89.79-1.29-.13-.92-2.73-13-2.68-12.73,0-.42,2.47.13,2.13.51,0,0,1.86,10.14,2,9.83l.64-.86s-1.78-7.41-1.56-8.85c.15-.22,1.53.22,2,.46.54.73.9,3.37,1.13,5.17.63.48.76-.9.71-1.28-.46-.7-1-3.39-.57-3.53a5.22,5.22,0,0,1,2.16.79c.36.31,1.73-1.57,1.38-1.91a76.57,76.57,0,0,0-23.92-4.58c-1.64,0-2.29-.23-4.81-1.13-6.42-2.29-11.72,0-12.51.72C58.68,211.49,49.93,204,43,199.18a3.58,3.58,0,0,0-1.19-.33c-1.08,8.31-1.9,18-2.84,25.74-.39,3.06-.43,3.3-.29,3.38a.45.45,0,0,0,.46-.09c2.29-.84,4.37-.29,5.47,1.75a3.15,3.15,0,0,1-4.78,3.47c-1-.51-1.16-.41-.69.58.79,1.76,3.11,6.39,3.11,6.39s-3.12,6.29-4.7,8c-1.53-2.45-3.49-4.92-4.34-7.63,1.21-2.34,3.49-5.35,4.2-7.65a1.92,1.92,0,0,0-1.15.21c-4,1.87-4.62-1.65-4.56-2.95.09-2.57,2.36-3.12,5.63-1.92C33.75,204.8,33,191.5,33.9,192.93a69.81,69.81,0,0,1-6.41-5.09l-.19-170L78.54,18c5.22,13.88,3.83,30.56.66,39.26a51.47,51.47,0,0,1,17.47,5.9C86,78.65,69.2,95.44,51,106.18c-1,.46-4.42-1.62-4.81-3.7-.09-.47.17-1.42.72-1.4,1.34.43,2.63,1,4,1.54,0,0-1.82-4.51-.93-5.2a8,8,0,0,0,1.4-1.07,3.63,3.63,0,0,0-.18-5,5.77,5.77,0,0,0-1.57-1.12s1.28-3.53,1.91-5.2l-5,1.66c-1.62-2.25-4.63-4-6.85-.64-.42.88-.33.74-3.46-.62-1.77-.78-2.86-1.21-2.86-1.21.67,2,1.53,3.79,2.29,6.06-3.48,2.2-2.68,5.9.24,7l-1.53,5s3.28-1.22,5.06-1.7a9.56,9.56,0,0,1,2,3A12.77,12.77,0,0,0,45.1,109a25.51,25.51,0,0,1-5,2.87l7.4,3c-.47-1.56-1.44-2.7-1.54-4.66-.09-1.68-.19-1.71-1.28-2.85-1.77-1.5-2-3.47-3-5.19a5.78,5.78,0,0,1-1.79-2.22c-1.13.11-3.67,1.36-4.15.92-.58-.63,1-3.83.85-4.14-1.3-.11-5-3-.61-6L34.6,85.59s3.3,1.43,4.88,2.23c1.1-5.08,6.09-2.65,6.94-.46,0,0,4-1.28,3.73-.24s-.76,3.29-.76,3.29c3.56,3.13,2.82,4.67-.07,6.71a18.92,18.92,0,0,0,.66,4.24,32.72,32.72,0,0,0-3.34-1.26c-.53.52-1.13,1.48-1,2,.9,3.93,5.82,5.06,13.1,9.09.26-2.55,2-6,2.23-9.11.13-2.23.21-2.27,1.79-1.55,4.18,3,2.91,11.2,1.38,14.57-.89,1.9-1,1.85-2.8,1.3a17.88,17.88,0,0,0-9.07.34c-3.27,1.32-4.8,8.54-4.84,10.73a14.79,14.79,0,0,0,1.21,6.72c.45,1.65-.39,3-1.89,2.47-.34-.1-1.13-.4-1.13-.4l-14.09,7.23L34.2,145s-2-1.16-.75-1.78L45.53,137c2.24.87,2,1.05,3.4-.45a2.34,2.34,0,0,1,2.48-.8c7.12.68,10.28-.36,11.51-3.32.18-.44.11-.42.83-.78A2.9,2.9,0,0,0,65.81,129c0-.78.37-.88,1-1.42a2.73,2.73,0,0,0,.63-3.58c-.32-.61-.57-.79-.43-1.43a3.84,3.84,0,0,0-1.2-3.34c-1.19-1.34-1.18-1.12,1-3.18,4.39-4.13,8.25-7.29,12.51-11,2.92-2.56,2.6-2.38,3.75-1.21a17.3,17.3,0,0,1,4,16.94c-.09.27-.13.24.08,0,1.19-1.33,1.22-8,.2-11-1.23-3.65-2.42-5.55-6.49-9.11-2.55-2.28-9.47-8.85-9.47-8.85,10-8.65,20.78-19.39,26.85-29.3-3.12-3.32-17.59-6.37-17.59-6.37,1.8-3.7,5.36-20.35-.73-38.79l52,.6,1.85.12.43-.14c.49-.13.74.22.62.77-.38,1.41-2.47,4.7-4,4.44-.65-.26-.47,1-.76,1.51,2.31-.29,5-3.21,5.72-6.1.37-.6.61-.71,1-.59s.32.54-.15,2c-1.45,3.49-4.4,6.73-7.82,6.4l-.44,1.19c4.62-.07,8.19-4.35,9.24-7.56.74-1.91.77-2.17,1.51-2,.61.56.23,1.37,0,2-2.32,7.35-8.69,9.3-11.91,9-.38,0-.45.3-.33.91,6.82.45,12.25-5.38,13-10.37.38-1.39,1-1.86,1.4-1.22a2.93,2.93,0,0,1,0,1.66c-1.86,7.87-10.35,12.36-15.53,11.08-.24-.22-.63.87-.07,1.25,10.47-.38,13.7-5.73,16.09-10.46,2.84,4.26,5.17,8.64,12,11.22,0,0,.68,1.49.15,1.82-.29.18-.72.09-1.34,0-8.32-1.33-11.07,6.37-7.53,17.88,1,3.15.53,2.67-1.53,4.64-1,1-1.46,2.6-1.2,2.64.35-.2.47-.74,1.34-1.45.36-.3,1.14-.6,1.71-1,1.54-.88,1.52-1.48,1-3.58-.42-1.55-1.46-6.28-1.46-6.76,0-.9.21-.8,1.36,0,1.58,1.17,2.5,1.09.56-.41a7.83,7.83,0,0,1-1.46-1.36c-.3-.44-.12-.74.51-.54a9.12,9.12,0,0,0,8.11-.85c.32,7.59-.75,19.11-7.16,27.34-5,5.48-14.35,1.34-17.86-.39Zm7.54-17.45a4,4,0,0,0-1.31.39c-1.89,1.07-1.44,4.92.62,5.39a3.87,3.87,0,0,0,3-.34,4.69,4.69,0,0,1,2.32-.57c.69.28.91-.32,1.06-1,.31-1.51-2.19-1.54-4.17,0-2.52,2-4.45-1-2.08-3.13C136.88,53.8,136.86,53.55,136.67,53.55Zm-19.56,8.14,2.11,2.42,1.33,5.77a3.75,3.75,0,0,1-1.78-.31,70.55,70.55,0,0,1-1.66-7.87Zm28.78,1.46h-.07a3.81,3.81,0,0,1-1,.26c-.32,0-.8-.17-1.13-.15a7.12,7.12,0,0,0-2,.41.89.89,0,0,1-.81,0,4.89,4.89,0,0,0-3.31.07,2.61,2.61,0,0,1-2.12,0c-.26-.13-.52-.46-.57-.41a16.83,16.83,0,0,0-.59,2.35c0,.22-.16.59-.06.63s.49-.3,1-.54c1-.48,2-.44,3.91,0,2.32.58,3.23.41,4.61-.29a3.24,3.24,0,0,1,2.48-.48c.18,0,.65.29.71.22a5.44,5.44,0,0,0-.52-1.47C146.12,63.32,146,63.13,145.89,63.15Zm-25.07,2.6a22.81,22.81,0,0,0,3.18,2.7l-.06,1.84a10.41,10.41,0,0,1-2.36-.2C121.34,69.37,120.27,65.76,120.82,65.75ZM137.61,67a2.07,2.07,0,0,0,.62.29c3.24,1.21-.15.9-.48,2.06,0,.1.15.11.31,0a13,13,0,0,1,5.08-.48c1.61.54,1.71.17.16-.63-1.13-.44.24-.74.7-1.13,1-.61.3-.86-.92-.28a6,6,0,0,1-4.39,0,4,4,0,0,0-1.07-.45c-.41,0-.2.42,0,.55Zm-12.79,2.07,1.89,1.48-2-.19Zm-43.07,37a.7.7,0,1,0,0,1.4.7.7,0,0,0,.71-.69h0a.69.69,0,0,0-.68-.7Zm2.54.7-8.73,4.11,2.31.76V114l2.12-.67.9,2.2Zm.38,2a.69.69,0,1,0,.7.69h0a.7.7,0,0,0-.67-.72h0Zm-11.06,4.2a.69.69,0,1,0,0,1.38h0a.69.69,0,1,0,0-1.38Zm2.69,1.28-9.81,4.41,2.9.87-.76,3,2.36-1,1.32,2Zm.29,2.12a.69.69,0,1,0,0,1.38h0a.69.69,0,0,0,0-1.38Zm-19.44.44c3.68,0,7.81,1.39,9.22,4.51.38,1.56-1.17,2.5-4.47,1.59-5.47-1.48-6.49-1.65-5.59-.73a2.5,2.5,0,0,0,1.18.7,29.33,29.33,0,0,0,7.13,1.39c1.46-.2,2.48.48,2.11,1.7-.42,1.38-2.32,2-5.19,1.54a40.92,40.92,0,0,1-5.6-1c-1.26-.38-1.31-.35-.7.53.3.47.33.83.8.92a39.64,39.64,0,0,1,5.86.43c3.22.29,3.73,1.19,1.36,2.58-1.13.66-4.49.48-6.41-.21-1.36-.48-4.5-1.18-3.29-.23.29.22.19.78.69,1,1.66.23,6.35.55,7.08,1.2.48.43-.58,1.5-2.78,2.07-3.29.62-8.22.35-9.52-.53-2.4-4.85-1.11-12.78,2.66-15.92a9.41,9.41,0,0,1,5.46-1.5Zm21.59,2.54a.69.69,0,0,0,0,1.38.71.71,0,0,0,.7-.69.69.69,0,0,0-.7-.69Zm2.91.74-10.11,5,2.55.75-.6,3,2.37-1,1.44,2Zm.08,2.44a.7.7,0,1,0,.7.7h0a.7.7,0,0,0-.68-.72h0Zm5.88,5.9c-4.48,4.33-9.54,7.75-14.15,11.95h1L77,138.1l70.83-.22-1.66,2.39.7.31a24.06,24.06,0,0,0,2-3.26c-15.56,0-27.57,0-44.66.12-3.11-3.05-6.41-5.9-9.65-8.85Zm-21.53,2.73a.69.69,0,1,0-.16,1.38.43.43,0,0,0,.16,0,.69.69,0,0,0,0-1.38Zm92.46.53c6.12,4.49,13.37,10,19.39,13.28,2.4,1.05,2.17,1.4-.28,2.54-2.4,1.49-6.41,3.4-9.75,5.07-1.45.54-2.08-.17-3.1,0a2,2,0,0,0-1.4.9c-.72,1-.53.92-4.39.75s-5.52-.09-6.35.33-2.2,1.8-2.2,2.38a1.68,1.68,0,0,1-1.25,1.51,2.31,2.31,0,0,0-2,2.1,3.74,3.74,0,0,1-1.25,1.71,2.57,2.57,0,0,0-.69,3,2.28,2.28,0,0,1,.26,1.73c-.26,3.13-.47,2.86,2.91,5.18l-17.29,14.93c-.41.32-.52.29-.88,0a13.55,13.55,0,0,1-4.43-6.69c-2.92-8,.65-14.51,5.39-18.53,1.64-1.38,3.85-3.05,4.47-3.46,8.94-7.49,16.7-18.14,22.82-26.75Zm-89.87.58-9.93,4.62,3.19.53-.62,2.73,2.3-.86,1.22,2.29Zm.6,2.16a.69.69,0,1,0,0,1.38h0a.69.69,0,1,0,0-1.38Zm90.56,3-1.12-2.63s-3.11,7.63-3.78,10.2l10.4-5.25-3.32-.61.37-2.95Zm-112.9.47a.7.7,0,1,0,.69.71v0a.69.69,0,0,0-.69-.69Zm3,.63S42.6,142,39.28,143.45l3.1.64L41.84,147,44.66,146l1.13,3Zm.39,2.25a.69.69,0,0,0-.69.69h0a.7.7,0,0,0,1.39,0,.71.71,0,0,0-.7-.7Zm104.08.51a.68.68,0,0,0-.69.68.7.7,0,0,0,1.39,0h0a.68.68,0,0,0-.66-.71h0Zm12,.62-3.5,9.64,9.47-4.73-2.57-.69v-2.39l-2.12.61Zm-111.88,2.3a.69.69,0,0,0-.69.69.7.7,0,0,0,1.39,0h0A.69.69,0,0,0,54.58,144.21Zm103.55.17a.69.69,0,1,0,0,1.38.69.69,0,0,0,0-1.38Zm-100.65.71-10,4.85,3.1.72-.34,3.11,2.54-1.43,1.37,2.83Zm.64,2a.67.67,0,0,0-.67.68h0a.7.7,0,0,0,1.39,0,.73.73,0,0,0-.73-.67Zm104.31.61a.69.69,0,0,0-.69.69.7.7,0,0,0,1.39,0h0a.69.69,0,0,0-.71-.67Zm-13.82,3.17-.93-2.59L144,157.84l10-4.52-3.17-.74.07-2.47Zm-10.14-2c-.11,0-.21,0-.21.1a30.92,30.92,0,0,1-2.55,2.69l-29.47.27,2.45.66c3.87,3.07,9.93,8.49,9.93,8.49l7.31-.29c4-3.93,10.13-6.88,12.84-11.8a.45.45,0,0,0-.31-.1Zm27.62,2a.69.69,0,1,0,0,1.37h0a.69.69,0,0,0,.69-.69A.68.68,0,0,0,166.09,150.84Zm-22.75,3.32a.68.68,0,0,0-.69.68h0A.69.69,0,1,0,144,155a.43.43,0,0,0,0-.16.67.67,0,0,0-.7-.66h0Zm15,1c2.11,0,4.14.06,4.67.47,3.27,2.72,1.72,15.45-2.4,17-4.52,1-7.63,1.2-11.55-1.36-1.12-.54-3.32-2.16-2.89-3.5.58-1.65,2.2-1.53,6.83-.1,1.69.52,2.62.42,3,.09s-.13-.65-1-.65a21.71,21.71,0,0,1-3.09-.74,12.06,12.06,0,0,0-3.41-.77c-1.92-.11-2.47-.19-2.47-1.35,0-2.16,3-2.45,8.64-1.18a14.63,14.63,0,0,0,2.19.32c.2.08-.43-.72-.54-1.2-.21-.17-.57-.25-1.52-.29-3.6-.34-6.59-.59-6.66-1.05-.32-2.3,4.35-2.95,9.17-1.08,1.24.47,1.27.27,1.26-.08,0-.66-2.09-1.82-5.16-1.79s-2.56-1.47-.11-2.6c.84-.38,2.86-.18,5-.19Zm-11.53,2.46a.7.7,0,1,0,.79.78.71.71,0,0,0-.62-.78ZM136,162.36l-.62-2.56-4.06,10,10.24-5.16-3.37-.63.29-2.11Zm-5.22,4a.69.69,0,0,0-.69.69.7.7,0,0,0,1.39,0h0a.69.69,0,0,0-.71-.66ZM141,169.23l-.87-2.44-3.44,8.72,8.73-3.87-2.57-.7.36-2.63Zm-6.95,0a.7.7,0,0,0-.72.69.72.72,0,0,0,.7.71.7.7,0,0,0,.71-.69v0a.69.69,0,0,0-.71-.64Zm2.24,3.33a.69.69,0,1,0,.69.7v0a.69.69,0,0,0-.71-.63Zm-4.41,2.14-3,8.25,8.21-3.93-2.4-.79s.13-1.86-.1-1.77-1.68.48-1.68.48Zm7.31,1a.69.69,0,1,0,.69.69h0A.69.69,0,0,0,139.22,175.68Zm-10.92,3.94a.69.69,0,1,0,.7.69h0a.69.69,0,0,0-.67-.69Zm3.14,3.18a.69.69,0,0,0,0,1.38.71.71,0,0,0,.7-.69.69.69,0,0,0-.7-.69Zm-43.26,38c-.38.06-1.35-.83-1.54-1.24a1.67,1.67,0,0,1,1.44.22C88.33,220,88.52,220.64,88.18,220.8Zm3-.59c-.13,1,.5,2.82.38,3.26-.33.15-2-1.58-2.36-2a7.49,7.49,0,0,1,0-1.64,2.39,2.39,0,0,1,2,.35Zm3,.5c.35,2.23,1.34,5.82,1.18,7A20.86,20.86,0,0,1,93,225.1a17.86,17.86,0,0,1-.79-4.81,2.72,2.72,0,0,1,2,.42Zm-19.7-.25a7.53,7.53,0,0,1-3.57.86c-1.15,0-3.14-.59-3-.45.52.93,1.89.44,1.92,1-.35.6-1.25.54-1.71,1.11-.09.16.14.29.77.22a9.71,9.71,0,0,1,6.8-.1c.49.1.17-.36,0-.49a2.79,2.79,0,0,0-1.21-.49c-2-.37-1.14-.56.22-1.16,1-.37,1.24-1.25-.29-.55Zm4.4,2.84a11.55,11.55,0,0,0-1.69.65,6,6,0,0,1-4.09-.08,3.79,3.79,0,0,0-3.44.43,2.77,2.77,0,0,1-2.78.37c-1-.57-1-.38-.5,1,.13.34-.12,1.39.32,1.63s.71-.42,1-.51,1.85.62,2.74-.16c1.59-.57,2.07.36,3.16.27,1.78-.62,2.9-1.27,4.42-.07.1-.45.45-2.95,1-3.49a.09.09,0,0,0-.12,0Zm-3.25,7.07c-1.29,0-2,.8-3.63.65a1.21,1.21,0,0,0-1.47.89,1.18,1.18,0,0,0,.26,1.08c.39.6.91.7,2.72-.11.73-.35,1.77-1.08,2.37-1,1.76.18,2.18,1.86.72,3.29-.71.42-.72.88-.5.88a2.54,2.54,0,0,0,2-1.47c.74-2.18-.57-4.17-2.48-4.13Zm5.75,10.1a10.07,10.07,0,0,0-4.91,3.47c-.77,1.2-1.5,2.56-1,3.23a12.44,12.44,0,0,1,1.11,1.38c.1.29-.32.52-.65.88-1.47,1.63-1.12,1.71.93.66,1-.53,1.53-.75,2.21-.57a11.2,11.2,0,0,0,6.12-.46c.76-.28,1.5-.65,1.56-.46-3.06,3.33-6.88,2.49-8.24,2.29a.82.82,0,0,0-.42,0,3.31,3.31,0,0,0,1.23.88c1.41.62,4.79,0,6.9-1.56,4.18-2.72,6.48-5.3,3.19-4.22-1.51.5-2.08.41-3.91-.41-2.74-1.23-4.86-1.59-7.13-.8-2.88,1-.67-1.37,2.57-3.4.71-.45.8-1,.38-1Zm-15.59,7h-1c-.68-2.29-2.34-2.29-3.06,0l-.81,0c.79-2.87,3.77-3.46,4.84,0Zm17.11.19h-.73c-.43-1.39-2-2.6-3.06-.33l-.51-.1c.89-3.64,4.44-1.61,4.3.4ZM78,245.58c.46,0,.57.51.06,1.32-.36.58-.79.54-1.22.1s-.36-.45.06-.83a1.83,1.83,0,0,1,1.1-.56Zm5.33,0a3.83,3.83,0,0,1,1,.29c1.09.37,1.34.67.89,1.11a1.56,1.56,0,0,1-1.67.33c0-.55-.56-1-.58-1.53,0-.1.17-.15.37-.15Zm-17.18,0c.76,0,1.78.41,1.71.84s-.83.79-1.45.84c-.41.05-.39-.12-.5-.4a8.87,8.87,0,0,1-.3-.86c-.13-.42.16-.34.54-.35Zm-5.2.15s-.42,1.26-.61,1.7c-1.59-.09-1.44-.79-.69-1.29A2.88,2.88,0,0,1,61,245.73Zm-1.23,3a6.2,6.2,0,0,1,1.14.42,12.23,12.23,0,0,0,5.58,0c.88-.2,1.28-.47,1.48-.34s0,1.11-1.28,1.66a8.19,8.19,0,0,1-6,0c-1.63-.83-1.81-1.71-.88-1.69Zm-.43,1.8a7.06,7.06,0,0,0,4.82,1.12c2.76-.1,3.25-.45.92.77-2.14,1.13-5.46.93-6.09-.29-.41-.6-.13-1.43.35-1.49Zm13.36,1.64h0c.22,1.47,2.72,2.82,4,3.14,2.56,1.12,6.6,0,9.65-1.29,2.22-1,3-2.39.37-1.58-4.26,1.32-9.61,1.42-12.3.4a8.28,8.28,0,0,0-1.62-.68Zm-14,5.53C64,258.84,70.43,267,70.41,270.56H68.68c-2.62-9-9.43-10.93-10.13-11.47-.31-1.11.08-1.37.06-1.34Zm-.09,2.4a16.77,16.77,0,0,1,9.55,10.62H66.25a14.19,14.19,0,0,0-7.7-8.77A4.13,4.13,0,0,1,58.55,260.05Zm0,2.78c3.25,1,6.12,5.19,7,7.87H63.86c-1.15-2.95-2.78-4.85-5.37-5.9a4.67,4.67,0,0,1,.06-2Zm0,2.88A7.16,7.16,0,0,1,63,270.63h-1.5a8.35,8.35,0,0,0-3-3.47v-1.45Zm.15,2.46c.17-.1,2.45,2,2.06,2.5h-2.1c0-.63,0-2.53,0-2.53Z" transform="translate(-0.76 -2.37)"/>
    <path class="c" d="M116.77,17.9c-3.87,7.43-23.71,40.86-23.92,42l5.09,2.24,24.68-44.09S117.49,17.9,116.77,17.9Zm58.26,28L172.69,49l2,3.53,2-3.49ZM84.36,79.37s-7.12,7-9.93,10.28c6,5.9,17.4,13.33,17.49,24.75H99.8L125.3,137s23.08.16,23.52.07,8.66-11.76,8.66-11.76l14.64,10.58s-.7-11.39-1.26-18.37c-.18-4.66-.34-7.53,3.11-9.6-4.73-2.23-4.43-6.34-1-9.35-1.15-1.58-2.85-1.87-3.11-7.44a15.43,15.43,0,0,0-2.31-1.88l-1,.84c-3,2.7-5.1,5.46-5.44,7.26-.65,3.41,2.85,5.75,4.88,3.25.56-.7,1.07-.51,1.07.42,0,1.86-2.36,3-4.36,2a2.74,2.74,0,0,0-.92-.33c-.07.08,2,5.06,2.54,6.17a13.29,13.29,0,0,1,1.48,5.59c.08,2.06,0,2.31-.93,5.9-.92,3.36-.49,5.35,1.15,5.35.91,0,.88.87,0,1.19-2,.68-3.21-.76-3.28-3.84,0-1.87-.07-1.92-1-1.47-3.38,1.58-7.05-1.24-5.46-4.18.34-.62.74-.42.94.47a2.61,2.61,0,0,0,2.83,2.37h0c3.64,0,5.17-5.12,3.07-10.25-.42-1-.64-1-1.18.33-.88,2-2.33,2.65-3.54,1.46-.39-.41-.59-1-.31-1.08H159c2.12-.07,2.86-2.11,1.87-5.18a26,26,0,0,1-1.27-4.65,8.75,8.75,0,0,1,1-6.17,26.68,26.68,0,0,1,3-3.31c1.57-1.59,3-2.8,3-2.8s-.8-.68-1.88-1.49c-2.29-1.7-2.69-2-2.69-2s-10.85,29.51-10.08,41c-1.38,15.16-12.62,11-13.45.47Zm-.49,4.43c3.71-.06,6.15,4.8,7.55,14.89.47,3.34,2.52,8,4,9.12,3.76,2.8,9.65.64,9.66-3.53,0-5.18-7.35-6-7.46-.77,0,1.22-.66,1.27-1.26.11a3.79,3.79,0,0,1,1-3.93c.67-.63.62-.75-.67-1.45-4.46-2.45-6.37-6.09-4-7.65,1-.68,2.47.18,1.82,1.09-1,1.43-1,1.66-.18,2.85,1,1.34,2.12,2,4.86,2.81a23.57,23.57,0,0,1,3.74,1.28,5.89,5.89,0,0,1,3.44,7.49c-.26.71-.51,1.41-.56,1.56-.11.32.07.32,2.27,0,3.47-.47,7.34.76,9.25,3a10.58,10.58,0,0,1,1.86,6,15.24,15.24,0,0,0,.3,2.12c.16.74.37,2,.47,2.79.91,7.5,7.21,11.34,9.92,6,1.72-3.32-2.24-6.65-4.27-3.58-.7,1.09-1.44.58-1-.69.79-2.5,4-3,6.08-.82a5.87,5.87,0,0,1,1.15,5.34c-.29.86-.26.92.37.69a5.63,5.63,0,0,1,4.83.92c2.09,2.24,1.67,4.92-.92,5.78a2.21,2.21,0,0,1-2.89-1.15,1.55,1.55,0,0,1-.08-.23c-.2-1,.47-1.26,1-.42,1,1.57,3.11.3,2.61-1.55-.58-2.1-2.39-2.54-5.75-1.4-5.33,1.82-7,1.66-9.59-.85-1.83-1.8-2.52-3.34-3-6.77-.55-3.77-.6-3.87-1.54-3.08-4.52,3.81-10.47-2-6.65-5.72,1.18-1.17,2.05-.15,1,1.16-1.56,1.91.47,4.57,3,3.94,4.62-1.14,3.68-7.87-1.32-9.4-1.52-.47-5.71-.27-8.93.42-8.93,2-12.9-1.83-14.81-14.15a41.54,41.54,0,0,0-1.32-5.61c-1-3.66-4.46-5.66-6.33-3.66-1.5,1.59-.71,3.73,1.38,3.74s1.44,1.42-.73,1.61c-3.76.33-4.41-5.91-.81-7.65a5.93,5.93,0,0,1,2.55-.63ZM34.82,86.09,36,90.5l4.7,1.3-1.47-4.2ZM46.73,87.4l-1.24,4L49,90.54l1.16-4.16ZM85,93.94a1.33,1.33,0,1,1-1.34,1.33h0A1.34,1.34,0,0,1,85,93.94h0ZM40.16,96.33,36.5,97.59l-.71,3.17,3.85-1Zm8.74,1-3-.51.83,3.26,3.18,1.29Zm129.93-.25-1.93,1.48c5.61,4.84-.44,9.49-.63,9.18,4.06,2.66,3.33,6.88,2.81,10.7-1,6.88-1.33,13.33-2.38,20.36a54.81,54.81,0,0,0,8.13,4.63c.06,0,0-41.21,0-41.21Zm-69.24,6.21a1.33,1.33,0,1,1,0,2.66,1.34,1.34,0,0,1-1.35-1.32v0a1.33,1.33,0,0,1,1.34-1.3Zm-82,3.38.22,38.54,8-14.23-5.52-6.33,4.78-5Zm78.22,5.9a1.33,1.33,0,1,1-1.33,1.34h0a1.33,1.33,0,0,1,1.32-1.34h0ZM124,116.49a1.33,1.33,0,1,1-1.33,1.34h0a1.33,1.33,0,0,1,1.32-1.35h0Zm52.25,42.85,5.89,6-4.6,5.7,7.25,12.21-.11-37.77ZM27.51,146.7l.28,41.37,6.31,4.56,1.62-1.51c-4.06-4.3-1.63-7.51,1.43-9.36-5.41-1.25-3.77-8.37-3.44-11.67-.17-6.12,2.09-13.1,1.4-19Zm36.34,5.74L54.8,164.93s-9.92-7.46-14.95-10.82c.54,5.39,1,12.27,1.69,18.07,1.63,8.46-2.6,8.61-2.64,9.41,6.72,5.06,1.08,9.79.07,9.55,3.58,2,3.29,7.81,3.29,7.81l1.69,1s.56-.34.79-.45a15.08,15.08,0,0,0,5.46-6.7c1.15-3.87-2.24-7.08-4.37-4.14-1,1.44-1.88.48-1-1.18A3.31,3.31,0,0,1,49,185.91c.8.42.62-.67-.6-3.71a35,35,0,0,1-1.31-4.38,12.9,12.9,0,0,1,.62-7.5c1.39-3.85.9-6.28-1.34-6.49-1.19-.12-1.31-.48-.34-1,2.16-1.22,4.26.51,4.17,3.44,0,1.58,0,1.61.83,1.28,4.27-1.7,7.65,2.69,4.66,6.07-.92,1-1.49.37-.89-1,.93-2.13,0-3.66-2.12-3.68-3.16,0-4.91,4.3-3.67,9,.39,1.49.45,1.51,1.5.51s1.62-1.16,2.34-1c1.49.44,1.89,2,.46,1.82-2.46-.33-3.11,2.22-1.72,6.76,1.85,6,0,10.93-5.47,14.42a7.69,7.69,0,0,0-.72.51,36.43,36.43,0,0,0,6.19,4.51l9.93-39.71c-.08-1.11-.22-2.22-.41-3.32,0-10.67,10-11.69,13.18-2a22.16,22.16,0,0,0,1.9,3.31l52.31,46s9.77-9.35,9.64-9.6c-7.43-7.4-17.45-12.65-17.81-24.4-1.77-.06-7.72,0-7.72,0L87.18,152.8c-7.94,0-15.06-.51-23.34-.27Zm14.25.87c1.39,0,2.8.67,2.8,1.82,0,1-.67,1.23-1.23.43-.77-1.13-1.69-1.22-2.6-.27-2.56,2.67,1.41,5.1,6,3.66,2.79-.87,4.13-1.11,5.17-.9,4.3.85,6.38,3.73,6.75,9.35.18,2.85.18,2.84,1.42,1.71a4.78,4.78,0,0,1,6.71-.05,4.68,4.68,0,0,1,1.39,2.88,3.82,3.82,0,0,1-3.39,3.94c-.71,0-.6-.73.17-1.08a2.84,2.84,0,0,0,1-3.91,2.93,2.93,0,0,0-.89-.93c-2.36-1.48-5.46.83-5.42,4,0,3.85,3,5.63,8.68,5.3.85,0,3-.15,4.69-.21,2.74-.12,5.68-.63,8.47,1.45,2.92,2.3,4.87,6.89,5.69,13.51,1.31,8.14,2.32,10.32,5.08,10.52a2.9,2.9,0,0,0,3-2.74v-.13a2.14,2.14,0,0,0-2.43-1.8l-.23,0c-1.38.45-1.67-1-.3-1.61,1.89-.77,4.2.73,4.7,3.08.31,1.38-1.26,4-2.89,4.67-4.28,1.71-7.32-1.8-8.32-9.62a46.31,46.31,0,0,0-2.07-9.08c-2.08-5.65-5.48-8-9.19-6.3-4.21,1.92-3.38,8.16,1.08,8.11,2.44.19,3-1.59,3-3.5.06-1.4,1.67-.08,1.81.88a4.34,4.34,0,0,1-1.88,3.32c-1.5,1-1,1,.58,1.34,4.17.77,7.27,6.23,4.77,8.09-1.29.77-2.67-.38-1.77-1.51,1.43-1.79-1-4.63-5.38-5.58-5.76-1.25-8.05-5.5-6-9.84.69-1.45.75-1.41-2.06-1.25-6.17.35-8.37-.5-10.44-4.05-.63-1.07-.9-2.5-1-5.35-.25-5.1-.72-8.24-1.36-9.14-3.21-4.4-9.93-3.08-9,1.79A2.76,2.76,0,0,0,86.1,167a2.79,2.79,0,0,0,2-1.07c1.37-1.4,2-.1.67,1.37-3.22,3.54-8.84-.59-7.17-5.28.38-1.07.43-1-1.64-1.09-4.61-.14-6.8-4-3.83-6.82A3,3,0,0,1,78.1,153.31ZM89.21,170a1.33,1.33,0,1,1-1.34,1.32A1.33,1.33,0,0,1,89.21,170Zm18.51,4.7a1.33,1.33,0,1,1-1.33,1.34h0a1.33,1.33,0,0,1,1.33-1.29Zm-4,8.64a1.33,1.33,0,1,1-1.34,1.33,1.34,1.34,0,0,1,1.34-1.33Zm58.82,5.16.86,3.93,3.06.8L166,189.9Zm10.73,1.35-.06,2.33,2.73.31,1-4Zm-45.8,3.51a1.33,1.33,0,1,1-1.33,1.33h0a1.31,1.31,0,0,1,1.32-1.32Zm39.23,5.44-3.2.87L162,204.12l4.1-1.48Zm6.27.39.4,3.27,4,1.77L176,199.59Zm-58.23,27.87-24.58,44,6.7-.09,23.2-41.49ZM37.58,237.74l-2.17,2.86L37.47,244l2.36-3.35Z" transform="translate(-0.76 -2.37)"/>
    <path d="M10.91,2.37A7.13,7.13,0,0,0,4,8.32,42,42,0,0,0,3.64,15c-.1,6.28-.16,5.78-.16,5.78L.76,20.66,1,24.15h2.9a8.75,8.75,0,0,0,0,2.17c.22,4.92,1,6.68,3.81,8,1.9.89,5.43.88,7-.35,1-.6,1.07-.6,2.21.1a5.16,5.16,0,0,0,4.43.68l-.06-3.58c-3.84-.06-4.34-1-3.34-3.42a4.08,4.08,0,0,0,.11-.93c.29-3.93.17-17.4-.28-19A7.19,7.19,0,0,0,10.91,2.37Zm-.32,3.52A3.8,3.8,0,0,1,14,8.55c.67,1.82.66,1.66.86,12.87.1,5.53-.14,5.5-.14,5.5a16.51,16.51,0,0,0-7.79-5.85V15.9c-.06-5.63,0-6.84.86-8.31a3.2,3.2,0,0,1,2.8-1.7ZM79.25,16.8c4.52,13.57,5,26.94,1,39.8,2.23.11,12,2.58,17.34,5.9-1,2.53-16.2,21.06-26.52,29.41,3,2.88,6.16,5.76,9.55,8.93,5.14,4.83,6.95,8.15,7.28,14.41a17.24,17.24,0,0,1-3.08,9.4,21.23,21.23,0,0,1-6.16,5.59c-2.88,1.89-7.1,6-12.41,12-2,2.29-5.43,6.46-8.25,10.44-1.08,1.45-4.22,6-4.22,6-10.47-8.51-21.73-15.08-22-15,0,0,11.36-6,13.74-7.22,1.84,1.17,4.33.16,3.13-2.4a17.44,17.44,0,0,1,2.13-16c.68-1,2.3-1.61,5-1.79,1.14-.07,2.36,0,3.56,0a5.88,5.88,0,0,1,2.26.52c2.14,1.16,2.57-.34,3.91-5.36s-.83-11.31-3.91-11.31c-.73,0-1.12.26-1,2a5.35,5.35,0,0,1-.57,2.89,20.48,20.48,0,0,0-1.41,6.07c.45.09-2.84-3.23-8-4.55-3.35-.4-5.06-4.55-5-4.56a7.27,7.27,0,0,1,.94-1.56,23.12,23.12,0,0,0,3.65,1.58s-.32-1.66-.44-2.11c-.63-2.31-.6-2.67.31-3.15,2.23-1.19,2.47-3.32.72-5.26a3.6,3.6,0,0,0-1.4-1.07l1.24-4.4s-1,.22-1.81.46c-2.35.7-2.17.73-3.17-.4-2.16-2.45-5.48-2-6,.84a6.84,6.84,0,0,1-.19.81l-5-2.4A50,50,0,0,0,36,90.26c-4.36,3.36-.67,6.33.52,6.65,0,0-1,3.21-1.37,4.55l4.91-1.4a4.76,4.76,0,0,0,2,2.28c.27,2.75,2.4,4.92,3.87,6.29a5,5,0,0,1,.09,1.64c-.32,1.6,1.32,4.12,1.6,4.28-6.76-2.74-13.8-6-20.6-9.25l.43,82.77s1.59,1.4,4.72,3.63c1.51,1.07,1.51,1.08,1.19,2.31-.41,1.62-.3,2.87,1.09,13.57.74,5.67,1.55,11.54,2.28,16.8.28,2,.32,3.15.32,3.15-1.5-.69-3.69-.76-4.81.5a3.38,3.38,0,0,0,2.36,5.68,3,3,0,0,0,1.67-.61,1.1,1.1,0,0,1,.8,0l-4.26,7.5,5,8.27,5-8.85-3.6-7a1.63,1.63,0,0,1,.84.2,4.87,4.87,0,0,0,1.58.46c2.51,0,3-1.13,3.3-3.16,0-2.63-2.12-3.82-5-2.83a4.14,4.14,0,0,1-1,.2l3-28.87,1.63,1.19.53-.28-1.42-1.21c.31-4.62-1.23-6.27-2.9-7.39,5.56-3.13,3.16-8.08-.54-9.61,0,0,2.4-1.4,2.89-2.85s.25-3.37-.21-7c-.35-5.66-1.58-17.35-1.58-17.35,4.85,3.63,9.85,7.51,14.54,11.18l9.4-12.94,22.66.15s17.22,15.49,25.89,23.39l7.48.07s.08.8.16,1.32c.71,7.65,5.89,12.91,10.6,16.59,1.93,1.71,6.67,6.21,6.67,6.21l-8.8,8.79-54-47.76s-.26-.7-.36-1.12c-1.25-5.06-4.62-7.17-7.7-6.82s-6,3.52-5.84,8.85a17.94,17.94,0,0,0,.33,2.3l-9.85,40.66s-4-2.95-6.07-4.42l-.46.27,5.76,4.3.43-.19,1.64,1.27.12.86c5.05,3.41,13.6,9.75,13.6,9.75,4-2.95,8.28-2,12.53-.86a21.18,21.18,0,0,0,4.73,1,72.11,72.11,0,0,1,23.51,4.59L79,271.67l53.91.11c-2.66-10.41-5.48-21-.44-38.72-5.32-1.08-17.14-5.76-17.14-5.76s0-.26.45-.87c2.18-3.1,7.71-11.5,12.9-16.35.63-.45,9.66-9.13,9.75-9.4a2.09,2.09,0,0,1,.61-1c.84-.55,3-2.61,3-2.61l-11.3-9.71a3,3,0,0,1-.66-.14c-1.57-.88-4.42-5.75-5.12-9-1.62-7.5,1.37-13.45,9.76-19.54,8.21-5.57,23.77-27.18,23.82-27.66,8.39,6.88,14.89,10.44,22.32,15-4.46,2.54-8.09,4.24-11.21,5.9-2,1.14-2.3,1.39-4,.9-1.94,0-2.6.76-2.1,2.41,3,4.6,1.67,15.3-2.3,17.35a11.42,11.42,0,0,1-9.55.3c-2.14-.68-2.11-.69-3.06,1.23-2.1,4.43-2.23,8.14-.3,12.38,1.59,3.41,4,4.92,4.23.37.18-2.7,1.37-5.85,1.33-8.74a14.05,14.05,0,0,0,7.94,4.92c2.65.4,5.46,3.7,5.37,5a8.82,8.82,0,0,0-1.06,1.59c-1.29-.42-4.08-1.59-4.08-1.59l1.18,4.16a3.18,3.18,0,0,1-.77.47c-2.63,1.33-2.46,4.92.3,6.36.57.29.61.43.37,1.19-.35,1.71-1.1,2.86-1.51,4.55a18.14,18.14,0,0,0,3.52-1.43l1.24-.56.75.79c1.63,1.72,3.58,1.71,5.3,0l.77-.8,2.2,1.09,2.6,1.25s-1.19-4.56-1.41-5.08a1.36,1.36,0,0,0-.54-.64c-.3-.11-.25-.18.53-.79,2-1.55,2.18-3.7.49-5.33a6.47,6.47,0,0,1-.72-.76l1-4.23-4.25,1.4a4.67,4.67,0,0,0-2.42-2.35c-.07-1.91-.31-3.88-3.62-6.89,1.12-1-.21-3.45-1.3-4.92,1.85.62,6.52,2.58,6.52,2.58h.7l2.23,1,.26.4s7,3.27,10.21,4.81V101.94a14.5,14.5,0,0,0-1.62-1.31c-1.47-1.1-1.78-1.31-3.64-2.54-1.51-1-1.4-1-1.09-2.14.35-1.31.34-3.12-.12-6.5-.36-2.5-1.63-11.28-2.51-18.37-.62-4.92-.77-6.07-.93-6.89a11.21,11.21,0,0,1,0-2.95c7,3,7.59-7,.54-5.64,1.35-2.69,2.48-3.93,3.63-6.81-1.47-3.14-4.71-8.44-4.71-8.44l-5.15,8.85,3,6.15c-3.48-.62-5.34,1.9-4.69,4.15a3,3,0,0,0,3.67,2,3.66,3.66,0,0,0,.62-.25c1.31-.51,1.31-.64.15,9.11-.35,2.88-1.88,16.35-2.09,18.36-.14,1.35-.23,1.72-.78,1.43A13.18,13.18,0,0,1,168,88.92l-.43.38c.68.54,1.47,1.24,2.28,2-.19,3.56-.11,5.64,2.89,7.38-5.44,3.37-2.26,8.56.93,9.31-1.91.49-3.78,3-3.33,7.73l1.55,19.86-14.74-10.82L148.55,137H125.72L100,114s-5.64-.08-7.94-.14c.27-.12-.49-7.1-4.21-11.66-4-4.76-13.24-12.62-13.23-12.63l9.71-9.7,54.25,48.39s.27,1.38.41,2c1.81,7.64,10.58,8.1,12.45.32A20.85,20.85,0,0,0,152,126a18,18,0,0,1,.61-2.83c2.92-11.34,5.4-21.12,8.27-32,.39-1.49.81-3.17.93-3.71.47-2.2.4-2.19,2.73-.45,1.43,1.06,2,1.45,2,1.45L167,88c-1.6-1.23-4.34-3.18-4.34-3.18V84c-8.81-6.25-10.63-7.87-15.88-12-4.05,3.52-9.82,2.1-13.45.85-.93-.37-3.22-1-3.22-1a77,77,0,0,1-24.44-4.14l28.87-50.93h-11l-.39.43h-5.8v-.43ZM185.7,184.34ZM112.15,18l4,.08L92.76,59.34l-2.48-1s.22-.12.22-1.86a5.16,5.16,0,0,0-1.27-3.77c-.71-1-1-1,1.07-.73a5.46,5.46,0,0,0,6-4.82,5.37,5.37,0,0,0-.44-2.77c-.65-1.38-.56-1.46,1.17-1.63a5.48,5.48,0,0,0,3.24-9.41c-.7-.63-.39-1,.91-.75,4.11.87,7.28-3.64,5.66-7.17-.54-1-.05-1.15.69-1.25a5.73,5.73,0,0,0,4.6-6.26ZM80.67,18H99c-2.47,3.73,1.87,5.9,2.43,5.68-4,2.13-2.86,5.14-.82,6.17s5,.1,4.16-4.23l1-.43c1,1.06,1.9,7.67-5.36,6.75-1.29-.16-2,1-.91,1.7,5.75,6.54-3.18,9.42-3.63,8.32V40.8c2.43.44,5.54-2.65,2.81-5.41-1.55-1.56-6-.8-5.27,3.94-2.65-3.94-5.55-2.75-6.32-.67a3.08,3.08,0,0,0,1.77,4,3.15,3.15,0,0,0,1,.22c-3,2.46-1.51,5.19.51,5.79,2.24.67,4.54-.24,3.92-4.27,0-.38.81-.25.88-.27,2.32,5.72-3.22,7.86-6.21,6.64-1.11-.42-1.7,1.27-.51,2.13,1.78,1.32,1.23,5.07,1,5.11a50.71,50.71,0,0,0-7.94-2.09,70.27,70.27,0,0,0-.84-38Zm29.15,0h1.65c0,2.35-1,5.23-5,5.68a7.06,7.06,0,0,0-.19-1.89c1.52-.33,3.53.09,3.59-3.78Zm7.21.13h5.28L97.5,61.73l-4-2Zm-13,3.3a1.68,1.68,0,1,1,0,3.35h0a1.68,1.68,0,1,1,0-3.35Zm-51.72.77c-4,10.22-11.61,16.41-17.17,26.65-5.82,10.44-3.16,19.43,5,21.1,4.33.88,9.38-3.3,10-7.87.15-1.08.34-1.4.86-1.4.74,0,.66,1.9.19,4.46A31.6,31.6,0,0,1,46,78.6l14.25-.12a24.49,24.49,0,0,1-5.64-13.84c-.35-3.11-.09-4.49.91-3.93.34.18.42.49.57,2.1a7.68,7.68,0,0,0,8.28,7A7.8,7.8,0,0,0,67.28,69c6.59-3.46,6.41-9.92,4.89-14.64C67.65,42,57.56,33.89,52.31,22.16ZM8.77,26a34.7,34.7,0,0,1,4.57,4.5,4.26,4.26,0,0,1-4.41.65C7.74,30.53,7.22,29,7.1,26.48,7,25.06,7.54,25,8.77,26Zm2.06,13.49a77.51,77.51,0,0,1-4.5,8.19C5,50.22,1.56,54.59,2.47,58.12s5,4.59,7.08,1.78c1-1.32,1.19-1.16,1.16.31,0,2.82-1.52,4.41-2.63,5.8h7.2c-1.53-1.81-2.9-3.32-3.06-5.78,0-1,.28-1.61.95-.6.73.71,1.37,2,3.39,1.66s4-3.08,3.51-5.7c-.56-3-2.48-6-4.41-8.6A85,85,0,0,1,10.83,39.52Zm82.63.91A1.56,1.56,0,1,1,91.9,42h0a1.54,1.54,0,0,1,1.55-1.55Zm81.68,1.24,4.2,7.25-4.8,8.41-4-8.07Zm-.08,2.47-3,4.82,2.69,4.92,3-4.71Zm.06,2.07,1.53,2.95-1.86,3L173.24,49Zm-4.07,9.84a2.57,2.57,0,0,1,1,.2c2.83,1.18,1.93,5.44-1.09,5.18a3.37,3.37,0,0,1-1.3-.49c-2.08-1.74-.82-4.92,1.4-4.91Zm6.95.08a2.71,2.71,0,0,1,1.36,5,3,3,0,0,1-3.87-1,2.86,2.86,0,0,1,1.06-3.74,3,3,0,0,1,1.41-.35ZM174.56,61c.25,0,.52,1.21.77,3.28.09.75.32,2.63.53,4.16.39,3.3.8,6.36,1.13,9.54.07.62.24,2,.38,3,1.44,10.31,1.76,13.61,1.42,14.48-.9,3.08-5.13,3.32-6.95,1.53-1.33-1.35-1.53-2.84-1-6.7.31-2.24.43-3.36,1.32-11.88.21-2,.52-4.66.68-5.91.35-3.33.77-6.46,1.23-9.75.11-1.19.27-1.73.44-1.72ZM105.2,68.64s13.56,4.42,23.82,4.23a8.3,8.3,0,0,1,3.65.59c1.12.36,2.88.85,3.91,1.09A14.85,14.85,0,0,0,145,74c.38-.16,1-.64,1.53-.46.36.1.87.79.87.79-9,2.38-30.16,2-43.32-3.55ZM174.86,70c-.05,0-.11.09-.18.19-.22.34,0,2.62.79,9.84C177,93.84,177,94.15,175.13,95.6c-.94.72-1.08,1-.64,1.26s.31.19,1,0c1.59-.45,2.26-1.71,2.24-4.27a43.42,43.42,0,0,0-.65-7c-.22-1.67-.5-4-.64-5.22-1-8.58-1.28-10.37-1.59-10.32Zm-71,1.45c13.5,4.79,27.61,6.15,44.66,3.56l2.36,1.56-.56.13.25,2.33,2.89-.46s1.56,1.24,2.72,2c-15.15,4.59-39.64,3.79-54.74-2.85a9.61,9.61,0,0,1-.92-.59,5.3,5.3,0,0,1,1.13-1.72l2.75.79.8-2.5L103.06,73Zm3.54,3-.88,2.46L110.34,78l.65-2.51Zm5.9,1.52-.52,2.8,3.87.71.49-2.73Zm6.39,1.36-.31,2.7,4.11.43.25-2.73Zm28.21,0-3.49.39.22,2.37,3.53-.42Zm-6.16.69-3.46.3.12,2.48,3.48-.21ZM126.1,78v2.65l3.55.12V78.09Zm9.77.34h-3.28v2.51h3.32Zm-38,.44c.35,0,1.16.76,1.49,1.64.67,1.71.36,3.62-.66,4.25-1.4.86-3-.49-2.09-1.7a1.53,1.53,0,0,1,.62-.48c.71-.23.88-1.35.49-3.3-.06-.22,0-.34.15-.34Zm5.23.66a95,95,0,0,0,48.29,2.86s-8.1,32.76-8.27,32.78Zm-7.15.1c.76,0,.9,1.28.21,2-.89.89-2.57.18-2.23-.92a3.71,3.71,0,0,1,2-1Zm4.2.75c.15,0,.45.31,1,1,1.64,2.19,1.77,4.63.3,5.75-1.73,1.31-3-.73-1.55-2.5.38-.45.42-1.31.21-3.18-.13-.63-.11-1,.05-1Zm56.66.8a3.68,3.68,0,0,1,1.19.46c1.05.5,1.41,1.25.91,1.85-.73.88-2.74-.86-2.36-2,0-.11.11-.2.23-.2Zm-1.58,1.13c.27,0,.68.51,1.17,1.48a1.6,1.6,0,0,0,1,1c1.25.44,1.48,1.72.39,2.1s-2.09-.44-2.63-2.51c-.36-1.29-.26-2,.08-2Zm-52.27,1c.18,0,.53.4,1.08,1.19,1.63,2.39,1.07,7-1,8a1.68,1.68,0,0,1-2.27-.34c-1.06-1.06-.8-1.89.79-2.47,1.34-.5,1.77-2,1.36-4.76-.17-1.12-.17-1.66,0-1.67Zm7.78.76c10,8.16,19,16.9,30.6,27.11,2.76-8.41,6.78-25.87,6.79-25.93C147.73,85.52,128.65,88.2,110.77,84Zm37.39,1.21Zm6.2-1.16a6.26,6.26,0,0,1,.91,2.35c.25,1,1.24,2.71,1.62,2.77,2,.33,2.8,1.42,1.83,2.39-.71.7-2.25.3-3-.78-1.41-2.07-2.38-6.76-1.38-6.76ZM43,85.13a2.62,2.62,0,0,1,2.65,2.27c.33,1.78-.69,3.08-1.54,2.88s-1.25-1.81-1.25-1.81a7.12,7.12,0,0,1-.6,1.79c-.85,1.27-2.6-.61-2.29-2.43A3.09,3.09,0,0,1,43,85.13Zm71,.46a120.13,120.13,0,0,0,33.18.65l-6.1,23.54Zm-8.21,0c.16,0,.49.3,1,.84,1.68,1.77,2.17,4.23,1.08,5.45-.67.74-1.12.83-1.83.34-.91-.62-1-1.54-.15-2s.84-1.26.23-2.9c-.45-1.21-.57-1.79-.34-1.77Zm-70.9.61,4,1.63,1.42,3.33-4-1Zm15,.44L48.76,90,45.7,91.09l1.19-3.58Zm103.57.7c.15,0,.37.41.63,1.27.65,2.15.93,2.69,1.54,3a1.1,1.1,0,0,1,.7,1.4,1.08,1.08,0,0,1-.59.65c-.58.27-.77.21-1.19-.33a8,8,0,0,1-1.26-3.94c-.09-1.26,0-2,.17-2Zm-44.2,1.49c.12,0,.28.16.53.45,1.54,1.82,1.71,4.61.33,5.44s-3.21-.85-2-1.82c.11-.09.34-.28.54-.42s.35-.39.38-2c0-1.14.12-1.63.26-1.64ZM121,89l19,17.11L144.4,89.2a138.62,138.62,0,0,1-23.32-.13Zm-46.65.85c6,6.29,13.9,11.37,15.73,17.62a20.6,20.6,0,0,1-6.94,24.29,73.19,73.19,0,0,0-12.09,10.82c-5.78,6.1-9.64,12.79-13.51,17.61-.66.81-2.38,3.37-2.38,3.37s-.85,1-3.66-1.39c-7.51-6.6-15.37-11.39-23.38-16l3.4-1.88A154.71,154.71,0,0,1,54,159.78s5.95-8.6,7.84-11.07c2.75-3.53,4.68-5.81,7.24-8.55,6.54-8,13.29-10.65,16.11-14.7a17.48,17.48,0,0,0,.9-19c-3.34-5.74-9.83-9.67-14.14-14.41Zm57,.47h7.43s-1.09.9-1.92,1.45c-.53.35-1.14.31-2.29-.18s-3.27-1.24-3.27-1.24Zm8.51,0,1.73.05a27.24,27.24,0,0,1-4.36,4.09c-.22.09-.34.13-.87,0-3.55-1.17-6.81-2.65-10.27-4h3.09s1.47.48,3.71,1.39c2.55,1,3.21,1.38,4.2.74s1.68-1.59,2.73-2.19Zm3.51,0-.62,2.26a44.62,44.62,0,0,1-4.88,4.22c-.42.2-.4.24-2.19-.45-6.6-2.54-9.8-4.2-9.8-4.2L124.57,91s1.72.49,2.86.93c.77.3,2.09.81,3,1.11s2.7,1.09,4,1.57c2.86,1.13,2.7,1.15,5.44-1.24a43.89,43.89,0,0,1,3.53-3Zm-100.06.2,2.88,3.28L42.37,97l-2.89-3.39Zm109.37,0a13.71,13.71,0,0,0,2.18,3.72c.82.77,1,1.36.54,1.79-1.26.77-1.47-.47-1.87-1.29-.72-1.38-1.57-3.3-.9-4.17ZM48.5,90.88h.13c3.07,0,3.8,4.54.9,5.62a2.8,2.8,0,0,1-2.87-.42c-.62-.62-.71-1.14-.29-1.47a5.36,5.36,0,0,1,2.26-.5,17.67,17.67,0,0,1-2.08-.83c-1.27-.72-.17-2.33,1.85-2.4Zm63.29,0c.18,0,.47.35.89,1.05,1.56,2.54,1.47,7.37-.14,8.59a1.87,1.87,0,0,1-2.6-.23c-.92-1-.63-2.05.75-2.65s1.59-1.89,1-5.1c-.19-1.12-.17-1.68,0-1.66ZM37.2,91a2.48,2.48,0,0,1,2.17,1.13c.31.52.17.91-.45,1.18a18,18,0,0,1-2.16.56,12.88,12.88,0,0,1,2.2.55c1,.46,1,1.3-.57,2-2.92,1.38-5.69-2.4-3.28-4.56a3.22,3.22,0,0,1,2-.77Zm77.1,1.82h.07a2.65,2.65,0,0,1,1.26,1.08c1.75,2.29,2.05,5.74.56,6.41s-2.69-.76-1.56-2c.79-.9.69-2.23-.37-4.86-.23-.3-.2-.51,0-.53Zm37.71.11c.14,0,.39.54.79,1.66.89,2.45,1.65,3.48,2.57,3.48a1.26,1.26,0,0,1,1.26,1.26,1.23,1.23,0,0,1-.42.93c-1.8,1.24-4.14-1.8-4.31-5.61-.06-1.08-.06-1.65.06-1.66Zm-9.47,1.22-.53,2s-1.22,1.18-2.1,2c-1.38,1.18-1.72,1.41-2.82,1-1.68-.58-3.36-1.1-5.11-1.63l-4.06-3.33,9.27,3.58s.8.24,1.08,0c1.17-1.18,2.5-2.11,4.23-3.55ZM151.29,96c.11,0,.23.12.31.48.42,1.89,1,3.26,1.54,3.47a1,1,0,0,1,.7,1.2.62.62,0,0,1-.07.19c-.79,1.64-2.87-1.25-2.87-4-.05-.72.14-1.25.34-1.32Zm-33.46.13c.12,0,.3.17.59.45,1.28,1.27,1.67,4.77.63,5.79-1.49,1.48-3.07-.71-1.62-2.25.37-.4.37-.43.28-2.23-.11-1.19-.12-1.68.07-1.7Zm-77.63.35-1,3.3-3.21.81.75-2.71ZM44,96.8a1.38,1.38,0,0,1,.85.3,2.87,2.87,0,0,1,.77,3.83,2.78,2.78,0,0,1-3,1.32,2.64,2.64,0,0,1-2.55-2.72v-.07a2.74,2.74,0,0,1,.91-2c.39-.27.7-.16,1,.38s.82,1.73.82,1.73a9.82,9.82,0,0,1,.2-1.87,1,1,0,0,1,.93-.8Zm2.44.28,2.33.79.91,3.13-2.59-1Zm132.25.59a26.09,26.09,0,0,1,3.83,2.77c.8.63,2.14,1.82,2.14,1.82l-.09,40.8s-6.25-3.35-7.06-4.14c-.43-.46-.22-1.75-.07-4.07.73-6.1,1-10.82,1.83-16.41.54-6.3,1.76-8.11-2.49-10.82,4.58-2.85,3.29-7.28.42-9.12Zm-37.3.15L141,99.69c-1.5,2.56-2.85,2.42-5.15,1.24L133,98.66a39.46,39.46,0,0,1,4.5,1.48,1.56,1.56,0,0,0,1.8-.46c.74-.63,1.27-1.1,2.08-1.8Zm-20.52,1c.93,1,1.18,2,1.1,4.49-.18,1.75-.1,3.06-1.56,4a2.4,2.4,0,0,1-2.48,0c-1.32-.87-.59-2.61,1.13-2.7,1.09,0,1.54-3.54.92-5.75-.09-.34-.07-.57.1-.59a1.36,1.36,0,0,1,.74.57Zm29.41-.12c.21,0,.58.53.81,1.4a3.18,3.18,0,0,0,1.48,2.33c.9.47,1.2,1.35.61,1.86-1.15,1-2.33-.2-2.71-2.85-.06-.24-.59-2.67-.24-2.68Zm24.76.43a3.85,3.85,0,0,1,4,3.65v.33a4.19,4.19,0,0,1-2.47,3.81c-3.78,1.1-5.85-1.41-5.81-3.85a4.1,4.1,0,0,1,4.24-3.93h0Zm-52,1.47c2.17,2.15,2.27,6.73.15,6.73-2.54-.83-.55-2.32-.51-2.7a9.71,9.71,0,0,0-.54-4.07C122.07,99.67,122.85,100.33,123.06,100.58Zm52.07-.21c-.46,0-.42.44.4,1.15a2,2,0,0,1-1.13,3.68c-.88,0-1.1.59-.33.89,3,1.18,5-3.28,2.34-5.14a2.66,2.66,0,0,0-1.25-.58Zm-113.44.56c2.39.81,3.21,5.32,3.3,6.88.11,2.77-1.19,7.29-2.35,8.2-3,2.34-4.42-5.9-1.85-11.27a3.31,3.31,0,0,0,.41-2.11c-.11-1.08.08-1.72.49-1.73Zm78.9.44a15.19,15.19,0,0,1-.62,2.09c-.37.85-.64.88-1.5.15-.48-.41-1.27-1.25-1.27-1.25.74.11,1.41.51,2.05.19a3.44,3.44,0,0,0,1.34-1.14Zm9.06.07c.17,0,.39.47.68,1.41.78,2.55,1.47,3.51,2.52,3.51a1.31,1.31,0,0,1,.46,2.57,2.21,2.21,0,0,1-1.56,0c-1.15-.31-2.72-4.16-2.5-6.11.11-.91.23-1.35.4-1.34ZM44.57,103c.62,0,.87.29,1.24,1.05a6.5,6.5,0,0,0,2.45,2.43c2.23,1.09,4.59,2,6.82,3,2.87,1.42,5.45,5.81,3.68,6.26a6.58,6.58,0,0,1-2,.1,3.56,3.56,0,0,1-.94-1.07,12.2,12.2,0,0,0-7.53-5.18c-2.67-.68-5.05-3.93-5.57-5.46-.14-.41-.14-.71.22-.82a8.51,8.51,0,0,1,1.65-.35Zm81,.27c.12,0,.3.13.56.41,1.59,1.68,1.79,4.76.36,5.64s-2.9-.62-1.68-2c.53-.59.53-.59.53-2.35C125.35,103.77,125.38,103.26,125.58,103.23Zm23.09,2c.2,0,.47.53.82,1.55.49,1.46.56,1.58,1.12,1.86,1,.48,1.11,1.21.4,1.9-1.29,1.29-2.6-.78-2.6-4.12,0-.82.09-1.21.26-1.2Zm-20.73.22a2.15,2.15,0,0,1,.7.57c2,2.29,1.56,7.64-.62,8.44-.72.27-.94.28-1.38.09-1.62-.7-1.42-2.39.56-3.46,1.49-.81.44-5.62.74-5.65Zm-99.35,1.7,8,3.93s2.19,4.58,3.2,6.3c.7,1.19,2.1,2.36.66,3.14-2.41,1.63-3.78,2.55-3.76,3.56,0,.81,1,1.65,2.41,3.25,2,2.3,2,1.77.16,5.29-1.37,2.46-2.54,8-2.54,8l-8.1,4.14a49.67,49.67,0,0,1,8.42-14,38.13,38.13,0,0,1-6.42-5.95,47.11,47.11,0,0,1,5.41-5.44,35.54,35.54,0,0,1-7.47-12.23Zm101.47.06h0c.34,0,1.1.85,1.78,2.19.87,1.71,1,3.87.17,4.64-1.33,1.33-3.07-.37-1.82-1.79.88-.63.64-2.2-.05-3.85-.28-.79-.28-1.17-.08-1.2ZM27.71,108a73.48,73.48,0,0,0,6.81,11.36l-5.22,5.43a55.28,55.28,0,0,0,6.29,6.14c-3.36,3.7-5.56,8.85-7.77,13.77Zm120.09.1c.18,0,.44.54.7,1.61.34,1.36.57,1.7,1.36,2,1.26.54,1.29,1.75,0,2.18a1.78,1.78,0,0,1-1.66-.88,6.46,6.46,0,0,1-.69-3c-.1-1.3,0-2,.22-1.94Zm28.95.82c2,.54,2.69,2.5,2.3,6.13-.52,4.85-1.12,10.26-1.61,14.76-.58,5.14-.9,7.87-1,8-.41.64-.47-1.78-.18-4.46.44-3.85.68-7.21,1.06-11.06.83-8.53.63-11.24-.93-12-1.2-.61-1.72-.24-.84.58,1.7,1.3,1.65,1.84-.16,22.88-.19,2.19-.27,3.72-.27,3.72l-2.3-1.42s-.17-1.8-.39-4.52c-.52-5.14-.83-10.6-1.17-15.51-.37-5.25.62-7.08,3.91-7.21a5.13,5.13,0,0,1,1.6.16Zm-42.35,3c.24.68,1.39,5.9-1.54,4.37a1,1,0,0,1-.55-1.38,1.08,1.08,0,0,1,.3-.4c.65-.75.79-1.81.48-3.33a15.39,15.39,0,0,0-.44-1.7c.55.19,1.66,2.27,1.73,2.43Zm-87.1-1.63A13.9,13.9,0,0,1,54.24,114c1.1,1.14,1,2.07-.66,2.17s-1.68.51-2.46-.16a4.1,4.1,0,0,0-1.82-1.06c-2.47-.38-3.73-4.92-2-4.64Zm100,1.35a12.55,12.55,0,0,1,.5,1.82c.38,1.64,1.51,2.85,2.54,2.7.68-.07,1.62.13,1.72,1a1.34,1.34,0,0,1-.91,1.64,2.39,2.39,0,0,1-2.53-.55c-1.55-1.48-2.47-6.11-1.34-6.61Zm-11.91.07c.88.33,2,3.16,2.14,5.39,0,1.6-.26,3.62-1.64,4.39a1.57,1.57,0,0,1-2.15-.45l-.06-.1a1.65,1.65,0,0,1,.63-2.25l.26-.12c1.24-.55,1.64-3,.89-5.47,0-.41-.67-1.56-.07-1.39Zm-94.71,1.16,6.54,3.28A16,16,0,0,0,45,120,28.47,28.47,0,0,1,40.69,112.87Zm97.1,1.12a3.34,3.34,0,0,1,.82.67c1.63,1.56,2.34,4.41,1.35,5.45-.79.82-2.17.78-2.4-.1a3.56,3.56,0,0,1,.58-1.61A5.25,5.25,0,0,0,138,115c-.16-.53-.35-1-.21-1Zm-45.42.65,7.39.25L124.51,137l-2.33,0L99.44,116.39H92.37Zm-42.56,3.93a17.49,17.49,0,0,0-1.86,15c1.31,3.54-1.56,3.75-2.74,1.42a15.84,15.84,0,0,1-1.15-8c.39-5.21,2.82-10.44,4.76-11.07s1.54,1.92,1,2.62Zm101.41,10.7c-.76,3.48-2.14,5.2-4.12,5.9-8.08,3-11.59-13.2-4.1-17.06,7.19-2.28,9.25,6.61,8.26,11.2ZM92,118.75l7,.15c6.35,5.72,13.18,11.06,20,18h-3.26l-1.19-1.12c-6.15-5.44-10.69-9.84-16.62-14.93l-6.22-.17Zm53.17,1.07c-3.78.15-4.08,5.21-4,7.12.27,2.77,1.38,6.89,5,6.53,2.6-.26,3.8-3.31,3.56-7-.27-3.44-1.68-6.7-4.55-6.69ZM91.3,121.5l6.12.13c5.39,4.67,11.08,9.72,16.74,15.3h-2.67s-.69-.66-.9-.88c-4.59-4.1-9.24-8.67-13.69-12.36l-6.34-.25Zm53.9.2c1.07.4,1.25,3,.31,4-.63.73-2.1-.65-2.24-2.41a1.54,1.54,0,0,1,1.95-1.63Zm-101,.32a31,31,0,0,0-1,5.57l-2.55-3.21Zm103,3.11a1.12,1.12,0,1,1-1.13,1.12h0a1.14,1.14,0,0,1,1.13-1.13h0Zm-51.36.56L108,137.05h-3.48l-10-9-6.34-.24,1.24-2.14Zm47.38.19a1.13,1.13,0,1,1,0,2.25A1.14,1.14,0,0,1,142,127h0a1.13,1.13,0,0,1,1.13-1.12h0Zm14.51,0a236.32,236.32,0,0,0,26.63,18,11.39,11.39,0,0,1-3.19,1.7c-7.84-4.27-17.16-10.31-22.93-15.21-5.46,8-15.93,22.42-25.25,29.11-5.88,4.16-8.84,9.3-8.82,15.31,0,6.2,2.23,10.25,8.4,15.33,4,3.29,8.32,7.47,8.32,7.47l-2.28,2c-.38,0-6.67-5.42-13-11.74-3.44-3.46-5-11.14-4.43-15.23.8-5.6,2.69-9.62,8-13.94a57.63,57.63,0,0,0,6-4.61c16.66-17.69,22.61-28.12,22.61-28.12Zm-11.16,2.88c.64,1.28,1,3-1,3.08-1.17.07-1.83-1.86-.82-3.58.78-1.33,1.47-.17,1.83.53Zm-58.67-.29,6.57.2s6.49,5.6,9.77,8.7h22c12.12,0,22.07,0,22.13.11a13.27,13.27,0,0,1-1.57,2.43H74.11s4.49-3.94,6.09-5.07A36.2,36.2,0,0,0,87.84,128.47Zm-44.52,2.71A25.61,25.61,0,0,0,45,136.3l-5,2.64a58.14,58.14,0,0,1,3.36-7.78ZM183.4,145.63a55.8,55.8,0,0,1-6.74,12.4c-.64.8-1.07,1.42-1.07,1.42l6.19,5.9L176.41,171a34.51,34.51,0,0,1,7,11.66,46.93,46.93,0,0,1-6.81-3.19c-.85-2.11-1.71-4.34-2.66-6.27-2.2-4.39-2.17-3.93-.38-5.26,2.62-1.89,3.39-2.33,2.72-3.28-.48-.67-3.56-4.31-3.75-4.42s-.16-.72.37-1.57a48.92,48.92,0,0,0,4.16-9.84Zm1.17.23.15,36.95c-2.21-4.41-4.51-8.92-7.07-11.74-.1-.19,5.6-5.71,5.6-5.71-2.1-1.9-3.32-3.05-6.23-5.71,2.84-4.08,5.08-9.38,7.58-13.81Zm-156.74,1.3,7.09,4.08c-.38,5.21-.84,12-1.58,19-.6,5.42-.85,7.92.11,9.43a11.7,11.7,0,0,0,3,2.28c-3.72,1.5-5.16,5.9-1,9.2-.51.4-1,.82-1.46,1.26l-5.82-4.3ZM138.74,149a41.65,41.65,0,0,1-6.67,6.26,43.35,43.35,0,0,0-6.62,5.47s-4.16,0-6.94-.13L108.76,152s.35-.13-12.9,0c-17.14.13-31,0-31,0l2-2.72Zm34.74,1.69a30.27,30.27,0,0,1-4.34,8.53,20.15,20.15,0,0,0-1.58-5.47Zm-137.67,1,.86.6s-.51,6.38-.68,8.24c-.29,3.46-.44,6.57-.74,10.08-.62,6.93-.52,8,.87,9,1.06.78,1.79.43.85-.57a2.78,2.78,0,0,1-.81-2,28.22,28.22,0,0,1,.07-5.28c1.05-18.44,1.27-19.06,1.3-19.07l2.16,1.43c-.11.29,2,18.58,1.73,23.13-.24,5.32-7.46,4.14-7.8.19-.15-.9,1.23-15.83,1.23-15.83Zm58.92,1.07,2.83.08,17.48,16,6,.12-.53,2h-5.75Zm10.84,0h2.74l10,9,6.16.1-1.17,1.73-6.13-.17Zm-3.42,0L117,166l5,.26-.78,1.81-6-.17L98.63,152.8Zm-14.26,0H91l23.13,20.66,6,.11-.08,1.86h-7.3Zm77.83.58c1.21.31,1.82,1.48,2.68,5.83,1,5.07-1.17,13.3-3.9,14.84-1.41,1.1-3-.06-2-1.5,3.26-4.68,3.69-12.33,1.76-16.61-.52-1.36.06-2.78,1.47-2.54Zm-98.13.77c7.4.09,9.3,15.13,2,17.23-4.73.7-7.16-3.54-7.84-7.36-.77-4.73,1.35-10,5.85-9.85Zm-4.08,9c.44,3,2.33,6.47,5.08,6.18,3.6-.4,4-5.17,3.7-7.57-.44-3-2.05-5.52-4.63-5.67C63.84,155.88,63.19,160.84,63.51,163.16Zm4-5.9c1,0,1.79,1.35,1.51,3-.19,1.1-.6,2.45-1.84,1.53a4.45,4.45,0,0,1-1-3.21,1.38,1.38,0,0,1,1.33-1.31Zm101.9,3.47,3.47,4-4,2.74a18.5,18.5,0,0,0,.5-6.67ZM70,161.1a1.12,1.12,0,1,1-1.14,1.12h0A1.14,1.14,0,0,1,70,161.14Zm-4,.68a.95.95,0,1,0,0,.05Zm2.28,1.45a2.5,2.5,0,0,1,1.23,1.19c.75,1.11.85,2.52.32,3.1-1.1,1.29-2.79-.09-2.58-2.06.15-1.45.53-2.33,1-2.18Zm9.68,4.4c1.63,0,2.09,1.88.69,2.82-.9.6-1.11,2.56-.55,5.27.46,2,.22,2.26-1,.5-2-3.15-1.46-8.54.86-8.54Zm-3.79,1c1.43-.05,1.89,1,1.06,1.85-.49.54-.44,2,.1,3.11.77,1.68.59,2.19-.85.58-2-2-1.94-5.35-.3-5.45Zm94.09.83a36.77,36.77,0,0,1,4.35,8l-6.95-3.18Zm-102.3,8.63c-.5-.56-.74-2.41-1.15-3.19-.31-1-.58-1.49-1.1-1.46-3,.25-2.83-2.56-1.13-3.09C66.05,169.24,67.34,177.65,65.92,178.07Zm14.67-2.82c-.49,1.46-.13,2.34,0,3.93.09.71.13.91-.46.36-1.4-1.21-2.16-5.35-.89-6.12C80.91,172.37,81.43,174.11,80.59,175.25Zm70.15-2a2.07,2.07,0,0,1,1.85,1.47c.55,1.4.5,4.84.23,6.66-.43,2.8-1.11,5.37-1.39,7.29-1,1.17-3.44-3-3.66-6.22-.39-2.59.51-7.95,2.52-9.09A1.15,1.15,0,0,1,150.74,173.28Zm9.45.44c.62,0,.48.18.92.64a3.58,3.58,0,0,0,2,1.2c2,.62,4.22,3.4,3.36,4.24-.67.53-2.5-.47-3.12-.68l-1.87-.63c-1.68-.57-4.1-3.64-3.34-4.25a4.77,4.77,0,0,1,2.06-.53Zm-4.89.52c1.24,0,1.58.31,2.29,1.64,1,2,3,3.35,5.87,4.15,3.63,1.1,6.76,3.19,6.61,7.05a9.46,9.46,0,0,0-2.6.33,7.92,7.92,0,0,0-5.66-4.92c-5-1.12-9.58-6.12-8.27-8.1a3.52,3.52,0,0,1,1.76-.18Zm-85.68.24,42.9,37c-18.1-6.65-34.73-6.52-50.78-4Zm18.3,2.45c-.08,1.15-1.68,1.4-2,1.68-.79.69-.69,2.69-.34,5,.25,1.4-.09,1.34-.84.25a8.57,8.57,0,0,1-.41-7.29c1.12-2.55,3.72-1.27,3.61.34Zm-24.68-1.82c1.64.18,2.1,2.39,2.17,3.87,0,2-.59,2-.91,0-.15-.87-.43-1.2-1.13-1.41C61.77,177.09,61.67,175.11,63.24,175.11Zm19.94,2.27c-.42.47-.43,2.61,0,4.06.2.79-.18.85-.73.22-1.78-2.06-2-5.56-.3-6.23,1.34-.35,1.69,1.27,1.06,2Zm-18.56,4.14c0,2.06-.44,2.25-1.07.27a2.43,2.43,0,0,0-.64-1c-1.17-.8-1.38-1.42-.7-2.09,1.66-1.34,2.39,2.26,2.41,2.87Zm6.27-1.81L65.07,204.3c14.31-1.2,20.84-1.44,36.12,1.52Zm17.35.4c.87.21,1.17,1.35.16,2.42-.34.43-.66,1.08-.24,2.82.55,2.38-.39,1.61-1.53-.63C85.89,183.29,86.23,179.62,88.24,180.11Zm-27.4.08c1.56,0,3,2.5,3,5.24,0,2.21-.3,2-1.13-.07-.58-1.4-1-1.9-2.11-2.26-1.92-.68-1.75-2.91.26-2.91Zm10.51.71,27,23.31a114.81,114.81,0,0,0-32.38-.58Zm22.43.87c2.12,0,3,2.6.36,3.5-1.55.53-.89,3.63-.6,5.47.11.7-.11.75-.56.13-1.63-2.4-2.54-8.39.8-9.1Zm-2.85,2.95a2.88,2.88,0,0,0-.16,2.4c.68,2.5.86,2.95-.57,1.69-1.51-1.57-2.16-4.7-.9-5.62C90.72,182.14,92,183.31,90.93,184.72Zm-53.25-2c2.5,0,4.33,1.6,4.23,3.83A4,4,0,0,1,38,190.73h-.06a4,4,0,0,1-4.19-3.7,2.62,2.62,0,0,1,0-.28,3.74,3.74,0,0,1,3.5-4h.44Zm0,1a3,3,0,0,0-1.57,5.46c1,.73,1.83.53,1-.26a2.51,2.51,0,0,1-.32-3.56,2.61,2.61,0,0,1,1.41-.85c1-.21.63-.81-.55-.81Zm34.86.63-3.45,16.56c7-1.08,15.57-.75,22.15-.14ZM60.92,185c1.72-.08,2.23,2.47,2.24,3.49,0,1.32-.16,2-.4,1.3-.58-1.67-1.15-2.58-1.77-2.58a1.64,1.64,0,0,1-.89-.51,1,1,0,0,1,0-1.39,1,1,0,0,1,.82-.3Zm11.91.67,2.28,1.9c-1.46-.64-2.71,1-2.71,1Zm23.39,3.12c-.67.82-.66,2.55-.15,4.58.15.56-.39.13-.93-.53a5.46,5.46,0,0,1-1.31-3.94c.19-3.12,4.14-2.52,2.37-.1Zm-35.94-1.47c1.47.16,2,3.2,2,4.12s-.26,1.61-.45,1c-.38-1.27-1.16-3.1-1.84-3.52C58.81,188.23,59.14,187.42,60.28,187.32Zm112.57,3.4a2.82,2.82,0,0,1-1.08,2.53c-.67.36-1.09-.13-1.5-1.37-.29-.9-.4-1.26-.4-1.26s-.25,1.14-.33,1.38c-.54,1.57-2.26,1.59-3-.17-.77-2.05,1.38-4.17,3-4.09a3.18,3.18,0,0,1,3.26,2.95Zm-98.22-2.25a13.93,13.93,0,0,1,2.52.88l2,1.75s-1.84-.78-2.49-1c-1.54-.54-1.51-.54-2.75.47s-2.35,1.8-2.35,1.8l.4-2.25S73.84,188.47,74.63,188.47ZM61.53,194c.29,2.37-.38,2.56-1,.3-.56-2-1.1-2.64-2-2.64a1.48,1.48,0,0,1-.76-2.83c3-.82,3.71,4.22,3.84,5.17Zm101.23-5.22,2.72,1.26.58,2.8-2.51-.62Zm-61.08.26a1.59,1.59,0,1,1,1.34,2.88,1.42,1.42,0,0,1-.4.12c-1.23.29-1.22,2.17-.88,4.92.08.63.25,1.38.21,1.48-.18.5-.8-.25-1.64-2-1.26-3.2-.87-6.76,1.37-7.38Zm75,0-.76,3.24-2.3-.16-.09-2ZM99,191.1c-1.28,1.81-.13,3.49.14,4.92,0,.82-1,0-1.64-1.19-1.29-2.5-1.36-4.52-.2-5.43,1.67-1,2.41.7,1.74,1.67Zm-23.58-.48a9,9,0,0,1,2.32.73l3.19,1.27,3,2.58-4.39-1.7c-4-1.7-3.46-1.76-6.67.66-.92.7-1.89,1.5-1.89,1.5l.39-2.08a29.46,29.46,0,0,1,2.72-2.27c.65-.46,1-.69,1.39-.69Zm-37.71,1c2.07-.06,3.43,1.57,4,3.4a9.18,9.18,0,0,1,0,3.05c-1.44,10.88-2.06,21-3.38,31-.16.47-.34.3-.55-.57-1.53-9.13-2.52-19.15-3.8-28.2-.29-3.37-1.17-7.79,3.14-8.65a3.05,3.05,0,0,1,.67-.07Zm-.13,1.2a2.94,2.94,0,0,0-2.37,1.46c-.8,1.64-.59,5,.9,15,.13.84.3,2.23.39,3.09a21.52,21.52,0,0,0,.87,5.16c.49.74.55-.05.2-2.65-.18-1.33-.42-3.35-.54-4.51-.67-4.74-.82-8.11-1.23-12.44-.2-2.12.66-3.7,2.28-4.12.87-.23.92-.62.11-.88a1.58,1.58,0,0,0-.61-.08Zm137.21.13a2.95,2.95,0,0,1,1.18,5.7c-1.1.55-3,.28-3.4-.59a1,1,0,0,1,.45-1.32l.12,0a11.83,11.83,0,0,1,1.65-.66s-1.6-.3-2-1.06c-1-1.62.81-2,2-2Zm-114,4.54c0,.8-.44.46-.54,0a6.2,6.2,0,0,0-1.59-2.66c-.68-.55-.85-1.3-.38-1.76C60,191.53,60.74,197,60.75,197.48Zm102.81-4.55a3.59,3.59,0,0,1,2.5.9c.86.86.81,1.18-.63,1.7l-1.18.45s.65.26,1.13.4c1.38.45,1.31,1.25,0,2.19-1.73,1.28-4.51-.42-4.47-2.67a2.72,2.72,0,0,1,2.47-3Zm6.4,0,2.73,3-3.2,3.35L166.44,196Zm-94.07.29H76c.86,0,2.23.59,5.59,2l4,1.58,3,2.65a57.51,57.51,0,0,1-5.57-2c-.32-.15-1-.44-1.53-.64s-1.84-.7-2.91-1.13c-2.3-.92-2.33-.93-3.11-.28-.32.28-1.14.91-1.79,1.4l-2.09,1.5c-.61.46-1.38,1.16-1.38,1.16l.49-2.56c.39-.35.79-.68,1.21-1l2.38-1.81c.7-.52,1.06-.84,1.65-.87Zm29.71,2.24c.08.53,0,.64-.58,1.26-.78.79-.88,2.09-.32,3.76a4.86,4.86,0,0,1,.31,1.05c-.82.82-3-4.34-2.47-5.9.61-1.84,2.65-1.87,3.06-.2Zm-47.5.23A1.69,1.69,0,0,1,59.64,197c.91,2.48.35,5.52-.56,2.68a5.35,5.35,0,0,0-1-1.57c-.32-.34-1.05-.73-1-1.28.07-.75.47-1.12,1-1.14Zm18.51.07a5.75,5.75,0,0,1,1.72.54c.79.32,3,1,4.26,1.53,2,.75,4,1.74,4,1.74l-4.4-.28s-1.51-.5-2.4-.87c-3.24-1.32-3.06-1.32-4.67-.1-.58.44-1.3,1.14-1.3,1.14l-2.26.12a22,22,0,0,1,2.58-2.24c.51-.36,1.19-.89,1.52-1.16a1.4,1.4,0,0,1,1-.46Zm34.65.86a1.57,1.57,0,0,1,1.85,1.21,1.51,1.51,0,0,1,0,.47,2.28,2.28,0,0,1-2,1.81,13.44,13.44,0,0,0-.52,5.91c.31,1.42-.29,1.45-.91.08-1-2.19-2.54-8.78,1.54-9.5Zm-3.52,2.43a4.89,4.89,0,0,0-.41,3.4c.32,1.55.39,2-.5,1-1.73-2.28-2-5.9-.39-6.33a1.22,1.22,0,0,1,1.3,1.93Zm-51.61-1.69c2.69.41,3.48,4.92,3.11,6.89-.72,2.35-.69.75-.94-.23-.65-2.36-1.42-3.65-2.24-3.79-2.2-.36-1.89-3.2.07-2.89Zm20.61.89h.13c.89.14,3.26.87,2.24,1.12h-3.5c-.68,0,.44-1.1,1.13-1.15Zm94.2.74c.34,0,.8.37,1.35.92,1.24,1.25.69,3.23-1,4.21a3.06,3.06,0,0,1-4.15-1.06,3,3,0,0,1-.05-3c.79-1.45,1.76-1.19,2.57.87.15.25,0-.26.28-.88s.6-1.09.94-1.12Zm-4.43.15-.79,3.16-3.22,1.53,1.17-3.93Zm6.69.54,2.56.2,1.43,4.11-3.69-1.56ZM112.66,202c1.86.07,2,1.82,1,2.58a3,3,0,0,0-.68,2.71,10,10,0,0,0,.17,1.39c0,.28-.26.24-.58-.11-2-2.13-1.7-6.65.11-6.57Zm-56.39.68c1.18,0,2.52,3.36,1.86,4.63-.41.76-.81.58-1-.3a1.86,1.86,0,0,0-1.43-1.66c-1.39-.44-.93-2.67.54-2.67Zm59.8,2a1.15,1.15,0,0,1,.16,2.06c-.63.46-.79.83-.89,2,.21,2.75-1.36,1-1.51-1.5-.08-1.36.67-3.39,2.24-2.6Zm-60.79.84c.85,0,1.85,1.52,1.63,2.39-.11.7-.49.58-1,.06a3.88,3.88,0,0,0-.86-.38,1,1,0,0,1-.83-1.22,1,1,0,0,1,1.07-.85Zm24.09,1.16c11.47,0,23.39,1.76,33.29,5.68l-.81,1.45-2.6-.89-.9,2.34,2.15.81-1,2.15c-11.7-3.8-24.31-6.65-45.26-3.57-1-.72-3-2.13-3-2.13l1.68-.37-.22-2.31-4.23.75-1.24-1.28a93.32,93.32,0,0,1,22.08-2.63Zm38.44.52c1.09,0,1.78,1.22,1,1.74-.56.36-1.81.46-2.06.16-.62-.64.14-2,1-1.92Zm-40.11,1.4,0,2.39,3.45-.11.08-2.27Zm6,.05V211l3.36.11.15-2.3Zm-8.77.16-3.4.23.11,2.19,3.37-.15Zm15.17.36L90,211.48l3.42.37.25-2.3Zm-21.48.12-3.42.42.29,2.27,3.31-.37Zm28.07.73-.33,2.37,3.18.46.42-2.24Zm55.86.69a33.19,33.19,0,0,1,4,6.32,28.39,28.39,0,0,1,2.18,10.36c0,2-1.38,1.57-1.67-.48-1.19-8.64-11.67-9.94-15.8-2a13.64,13.64,0,0,0-.7,8.25c2,11.14,16.15,21.9,20.59,33.57,8.34-16.92,15.65-19.55,19.45-33.34,3.05-10.59-7.35-18.47-14.89-11.61A9.53,9.53,0,0,0,163,227c-.32,2.48-1.43,2.1-1.54.06s.89-6.29,2.21-10a27.42,27.42,0,0,1,3.16-6.34Zm-49.55.64-.31,2.39,3.23.68.44-2.23Zm-22.9,2.75a81.58,81.58,0,0,1,28.78,4.92,13.76,13.76,0,0,1-1.44,2.53,77.44,77.44,0,0,0-22.83-4.64,11.85,11.85,0,0,1-4-.47c-5.2-1.7-9.78-2.43-14,.07l-1.73-1.21a97.74,97.74,0,0,1,15.19-1.21ZM197.62,223s.6.81,1,1.26c1.67,2,2.68,5.54,1.59,5.54-.28,0-.41-.25-.82-.63-1.48-2.18-4.46-1.43-5.61.19a6.7,6.7,0,0,0-.4,6.31c3,6.1,8.7,13,8.6,13.85,3.06-6.76,5.56-8.66,7.83-13.62a8,8,0,0,0,.19-5.77c-.86-2.57-5-3.74-6.52-1.06-.49.82-.88,1-1.21.72-.67-.67.5-4.34,1.87-5.85a11.09,11.09,0,0,0,.7-1ZM34.73,227.81c2.46,0,3.63,3.77,1,5.33a2.63,2.63,0,0,1-2.35,0,2.76,2.76,0,0,1,.2-5.1A2.89,2.89,0,0,1,34.73,227.81Zm80.3.13c.89.53,4.13,2,4.13,2L96.34,270.79H90.82Zm-73.59.1a2.77,2.77,0,1,1-.1,5.53C38.57,233.41,37.37,228.49,41.44,228Zm78.47,2.12c.61.34,2.83.7,3,1.12a5.2,5.2,0,0,1-.13,1.18,5.94,5.94,0,0,0,1,3.88c1.3,1.79-.11,1-1.41,1-3-.73-6.67,3.23-5.25,7.3.33.91.27,1-1.31,1.45a5.63,5.63,0,0,0-3.91,7,5.74,5.74,0,0,0,.5,1.2c.9,1.74.93,1.65-.65,1.78-4.37.37-6.95,4.2-5.06,8.13.27.61.1.77-.86,1-3,.54-4.31,3-4.69,5.72h-4Zm3.78,1.45,7.57,2c-3.15,10.59-3.58,22.9.21,37.15h-17.4c2.42-2.15,1.47-5.13-1.36-5.78,2.74-1.56,2.74-5.71-.54-6.21-2.89-.44-4.39,2.28-3.1,5l-1.24.34a5.62,5.62,0,0,1-.68-1.06c-1.09-3.15,1.19-6.28,5.08-6.27,2.41,0,2.9-.66,1.57-2.13a4.73,4.73,0,0,1,0-6.73,4.79,4.79,0,0,1,1.47-1,2.67,2.67,0,0,1,2.27-.22l.07,1.73s-.57.06-1,.13c-3.42.54-2.79,5.9.69,5.9a3.3,3.3,0,0,0,3.29-3.31,1.62,1.62,0,0,0,0-.22v-1.44c1.76,2.95,4.78,3.19,6.06.77,1.51-2.85-1.24-4.64-4-4.35a9.47,9.47,0,0,1,1-.56,3,3,0,0,0,1.43-4A3.06,3.06,0,0,0,121,240a3,3,0,0,0-1.49,3.91,8,8,0,0,0,.39.91l-1.33.32a1.76,1.76,0,0,1-.43-.43c-2.27-3.51,1.37-7.39,5.95-6.51,1.68.53,1.62-.63.68-1.66-1-1.51-1.77-3.2-1-4.92ZM38.1,233.13l4,7-4.45,8-4.4-7.48Zm-.4,3.62-2.76,3.76,2.71,4.33,2.56-4.38Zm-.12,1.41,1.8,2.39-1.81,2.95-1.78-2.74Zm82.16,7.51a1.51,1.51,0,1,1-1.52,1.5h0a1.51,1.51,0,0,1,1.48-1.54h.06Zm82.61,8.26a8.68,8.68,0,0,0-3.73,1c-1.41.73-1.41.72-2,.36a4.6,4.6,0,0,0-3.26-1.09c-.94,0-1.59.05-1.59.05l.13,3.6c3.26-.09,4.15,1,3.46,2.95-.7.89-.54,13.58-.31,18.46a8.19,8.19,0,0,0,2.51,6.08c2.33,2.05,6.45,1.89,8.84.19a7.5,7.5,0,0,0,2.7-5c.16-4,.07-8,.07-11.95h2.58V265l-2.52-.14s0,.1-.08-2.57c.18-5.59-2.72-8.25-6.57-8.4Zm-.21,3.62c2.14.15,3,1,3.49,2.79a6.07,6.07,0,0,1,.19,3.28c-.48.77-2.32-.57-4.73-3.49-.81-1-1.17-1.48-1.17-1.48a2.36,2.36,0,0,1,2.24-1.14Zm-3.86,4.84c2.22,1.88,2.52,3.79,7.74,5.61,0,0,.14-.2.06,6.1-.1,7-.52,8.38-2.64,8.95a3.55,3.55,0,0,1-4.32-2.1c-.78-1.81-1-6.06-.94-14.15,0-3,.12-4.45.12-4.45ZM109,264.49a1.56,1.56,0,1,1-1.56,1.57h0a1.56,1.56,0,0,1,1.53-1.6h0Zm-2.37,1.05a3.36,3.36,0,0,0,.34,2c-2.26.14-2.85,1.85-3.07,3.3h-2c.28-4.93,4.6-5,4.74-5.31Z" transform="translate(-0.76 -2.37)"/>
  </g>
</svg>
