<svg xmlns="http://www.w3.org/2000/svg" viewBox="0 0 212.6 289.2">
  <defs>
    <style>
      .a {
        fill: #e2cf00;
      }

      .b {
        fill: #131f67;
      }

      .c {
        fill: #d40000;
      }
    </style>
  </defs>
  <title>QS</title>
  <g>
    <path class="a" d="M102.63,285.11l23.21-42.37A126.29,126.29,0,0,0,138,246.6c-6.31,16.43,0,38.12,0,38.12S102.61,285.07,102.63,285.11ZM38.84,212.7c-1.32-18-1.36-35.41,1.6-49.82.06-.23-8.29-5-7.43-5.61,1.33-.84,17.77-9.42,17.77-9.42a4.12,4.12,0,0,0,2.07.54c.75-.08,1.45-.76,1.16-1.48a20.72,20.72,0,0,1-1.18-10.3A15.84,15.84,0,0,1,56,129.75c3.1-3.71,10.18-1.75,12.23-1.81,1.31,0,5.26-13.84-1-16.41-1.73-.7-5.71,8.72-2.94,10.84.41.31-5.56-3.15-10.13-5.21a6.22,6.22,0,0,1-2.71-3.53c-.53-2.37,7-6.92,5.53-9.59-2.16-3.89-7.72-9.7-10.11-8.11-2.25,2-7.62,6.19-7.58,9,1.67,5.1,5.94,5.45,8.18,10.27a64.63,64.63,0,0,0,4.68,5.43c-1.55,2.36,1,6.5,1.07,5.86L33.65,118s4.47,33.67-.25,38.65c-.5.53,4.18-1.32,4.26-1,1.42,1.8,17.19,11.82,21.71,15.43,8-11.18,10.94-16.1,21.27-26,2.27-1.88,7.32-5.3,10.21-9.41a14.46,14.46,0,0,0,2.87-9.92c-.54-3.73-.87-6.29-3.18-9.26-5.32-6.88-13.8-13.44-13.65-13.56l2.9-2.35s10.45,8.63,14.87,15c3,4.28,1.65,9.19,4.22,10.07.62.21,4.84-.14,6.23.12.16,0,30.74,21.61,25.19,22.85-7.67,1.72-19.91.6-19.91.6-8.73-8.53-13-11.33-18.16-8.66,0,0-13.19,11.54-20.81,20.58-4.34,5.14-8,11.59-10.86,15.73-1.12,1.6-15.13-11.86-15-10.25,2.08,14.65,3.27,32.3,1.66,44.27C46.12,221,44.61,232,43.93,241.32a8,8,0,0,1,4.15,0,2.67,2.67,0,0,1,1.76,2.24c.52,4.46-5.23,3.42-5.36,3l3.2,6.88s-5,8.59-4.84,8.21c.09-.23-4.52-7.62-4.52-7.62s3.5-6.17,3.94-7.46c.26-.77-5,2.56-5.46-2.26s5.8-3.56,5.52-3c-.75-10-2.42-20.26-3.48-28.65Zm74.86,22.41c.13-.11-13.22-5.36-25.48-4.86-4.32-1.69-11.37-3.45-16.07-.31a170.1,170.1,0,0,1-14.49-11.43c1.29,0,6.16-31.31,9.34-42.21-1.42-13.54,11.64-13.53,12.77-2.69,14.06,14.54,31.27,29.57,49,44.36-2.82,5.85-13,10.31-15.09,17.14Zm30.74-95.8c-16-16.34-49.58-45.54-49.58-45.54l15.7-15.32c8.25,2.46,16.72,4.51,26.29,4.6,0,0,10.5,4.76,16.07,0l14.49,11.48s-6,31.61-9.54,42.64c.08,4.37-1.58,9.7-5.89,10.49C148.29,148.32,145.45,143.1,144.44,139.31Zm32.39-37.84c1.68-10.28,2-17.76,3.18-29.74-7.23,2.11-7.13-7.63,0-5.07l-3.29-7.25,4.87-8.17L186,59l-3.86,6.88c8,.39,6.08,7.82-.82,6,1.31,11.48,4.17,23.08,4,34.44,2.48,18.21-3,43.54-2.13,44.14l7.81,5.37-1.34,39.62-12.33-5.4-3.67,2.47c1.17,2.33,2.67,4.57,3.18,7.1,0,0,8.49,7,7.32,9.16.54.32-6,9-8,8.83-3.7-.42-8-5.18-9.2-8.58s7.63-6.75,6.53-9.25c-1.3-3-4.61-4.42-7.53-5.3a12.75,12.75,0,0,1-6.07-4.4s-1.57,12.66-3.08,11.65c-6.07-4.08-1.92-17-.79-16.64a50.28,50.28,0,0,0,5.78.91c11.05,1.15,10.3-12.41,8.16-19-.54-1.56.3-1.57.24-1.59-.51-.18,1.79-.05,3.74-.62,5.36-1.58,13.57-7,13.57-7a194.75,194.75,0,0,1-23.08-15.41s-6.34,10.82-13.86,18.32c-5.48,5.47-6.37,7.33-15.53,14.36-.18.14-6.94,8.22-3.72,17.66,2.76,8.08,16,16.82,15.91,17.4l-2.61,2.49c.11.15-18.75-11.69-18.31-24.42,0-.48-8.58-.65-8.58-.65L93,164.53l21-.09,10.81,8.83,6.76.35c.44.38.68-1.79,6.63-6.22,11.37-8.47,25.45-30.23,25.45-30.23l14.9,10.47c-.74-15.72-3.28-32.62-1.74-46.17ZM122.62,27.19s-15.47,29-24,42.72l-12-3.44c5-13.36.21-38.82-1.06-39.46Z" transform="translate(-5.81 -11.8)"/>
    <path class="b" d="M30.32,25.5l.91,261.56L193.64,287,193.17,25.5ZM143.19,215a141.64,141.64,0,0,1,22.45-17.36c2.77-1.66,3.61-1.9,4.69-.92,1.77,1.61,2.87,3,2.3,4.14a3.86,3.86,0,0,1-.55.68L167.82,200l1.38,4.83c-3.83,1.56-3.76,5.7-.06,7.89l-2.55,5.85,5.92-2.6c.22,1.28,4.44,4.36,7.06,0l5.34,2.61L183.07,212c1.75-1.67,2.78-4.34,0-6.79l1.27-5.12-4.82,1.56c-1.21-1.65-1.91-1.53-2.19-2a7.71,7.71,0,0,0-.9-3.37,22.55,22.55,0,0,0-2.13-3.07c-.38-.63-.08-.69,1.85-1.73.9-.49,1.65-1,1.65-1s9.49,4.76,13.36,6.57l.22,87.64-52.05-.15c-5.85-17.47-1.65-32.57-.1-38.93-2.73-.22-16.8-4.78-17.22-6.35,5.57-8.86,13.14-16.91,21.16-24.26ZM41.91,240.54c-6.79-2.19-6.86,6-3.39,6.61a5.91,5.91,0,0,0,3.24-.15c.35.07-4.06,6.85-4.06,6.85s3.53,6.42,5.23,9.15l5.34-9.48L44.78,247c5.47,2.78,8.3-5.52,2.56-6.61a6.18,6.18,0,0,0-2.92.51l3-28.4c2.43,1.65,6.88,5,6.88,5,1,15.65.27,28.69,9,51.46l.09,15.84h-30L33.27,202l5.25,3.76c.12.47-.83.16-.32,5.91.46,5.2,2,14.22,3.71,28.85ZM149.78,27.92a6.9,6.9,0,0,1,.43,1.55c1.22,4.05,5.44,8.92,8.81,10.2,1.18.44,1.64,1.12,1,1.8-.86.87-4.41-1.49-7-4.54-2.38-2.77-4-5.07-4.32-6.81a4.91,4.91,0,0,1-.16-2.23A.73.73,0,0,1,149.78,27.92Zm4.2-.43c.45,0,1.05.52,1.41,1.47a11.18,11.18,0,0,0,4.34,5.49c.56.4.79,1,.5,1.33a.71.71,0,0,1-.4.23c-1.65.47-6-4.57-6.36-7.7-.07-.68.17-.82.51-.82Zm5.42.06c.88,0,1.3,1.83.79,2.79-.33.3-1.06-.16-1.7-1.37C157.93,27.94,158.15,27.55,159.4,27.55Zm-3,0c.2,0,.61-.11.82.17.33,1.9,1.77,3.27,2.91,4.37.19.36.28,1.11-.14,1.31-1,.44-4-3-4-5C156,27.88,156.18,27.59,156.45,27.58Zm-3.81,1.2a14.78,14.78,0,0,0,5.89,7.75c1.64,1,2.27,1.63,1.51,2.17a1.25,1.25,0,0,1-.42.22c-3.83-1.46-8.54-7-8.7-10.93C151.76,26.92,152.49,28.12,152.64,28.78Zm-13.26,15a16.59,16.59,0,0,0-6.49,1.37c-2.78,1.26-3.48,2.1-3.08,2.41s2.09-.56,3-.67c4.86-1.21,8.2-1.5,11.36-.12,2.44,1.06,2.46.57.82-1.2C143.79,44.31,141.66,43.8,139.38,43.81Zm17.11,2.66c1.61,0,3.25.36,3.83,1.11.45,2.42-.76,1.31-1.73.83a8.31,8.31,0,0,0-4.53-1c-1,.15-1,.1-.45-.21a6,6,0,0,1,2.88-.75Zm-19,.94c-4.59.36-6.18,2.68-9.14,5.07-1.22.93-.94,1.65.54,1.4,1.83-.3,2.57-.23,5.07.63,2.73.93,4.68,1.31,6.18.74,2.84-1.09,2.59-.91-1.46,3-2.17,1.75-1.29,1.66.9.15,1.63-1.3,2.74-2.13,3.08-2.84.17-.34.18-1.58.49-1.58,1,0,.5-1.28-.44-1.83-.62-.44-.48-.9.32-1.74,1.25-1.32.82-1.91-.54-1.09-.23.13-.35-.27-1.18-.77a6.76,6.76,0,0,0-3.82-1.15Zm3.31,1.72c1.11.94.64,1.2-1.78,1.17a17.73,17.73,0,0,0-6.22,1c-2.77.92-2.93.94-1.31-.44C133.69,49,138.22,47.05,140.77,49.13Zm14.34-.8a5.44,5.44,0,0,1,2.9.6c2.32,1.27,2.83,2.38.26,1.48a9.69,9.69,0,0,0-5.31-.07c-1.55.43-1.82.58-1.61-.26C151.61,49.05,153.26,48.37,155.11,48.33Zm-18.18,3.76c.54,2.75,2.63,1.85,2.83.19h.76c-.32,2.21-3.32,4-4.49-.19.25,0,1.34.07.9,0Zm16.62,0,.56,0c.37,2.1,2.33,2.79,3.18.16H158C157.45,56.69,152.8,54.55,153.55,52.14Zm-18.22.2c.38.13.55,1.16.48,1.44-.13.56-2,0-2.35-.59C133.84,52.78,134.75,52.13,135.33,52.34Zm25,.47v.77c-.85.2-1.2.68-2,.52a2.88,2.88,0,0,1,.43-1.74,1.36,1.36,0,0,1,1.57.45Zm-18.53.89a1.83,1.83,0,0,1-.91.33c-.09-.73-.21-1.56.71-1.57A.72.72,0,0,1,141.82,53.7Zm10.6-1.22c.32,0,.7.82.75,1.29-.1.77-2,.46-2-.3C151.18,53.15,152,52.48,152.42,52.48ZM135.11,81.57c-1.46-.73-12.53-7.46-15.37-19.36l-.56,1.22c1.2,2.85,3,7.47,3,7.47-.07-.39.45,3.1,1.58,9a7.44,7.44,0,0,1-1.91-.33c-1.46-5.44-1.8-9.7-3-15l-.53,1.49s1.54,9.55,2.58,13.28a16.84,16.84,0,0,1-1.7-.3c-.87-4-1.54-6.73-2.36-10.77l-.75,1a63.9,63.9,0,0,1,2,9.45,6.18,6.18,0,0,1-2.2-.57s-1.12-5.8-1.27-5.88a2.84,2.84,0,0,0-.6,1,22.88,22.88,0,0,1,.9,4.55A21,21,0,0,1,112.1,77a5,5,0,0,0-1,1.26c.43,1.84,25.84,5.83,24.31,4.31,0,.16,11.21,4.9,17.46.87,0,0,10.89,8.07,15.14,11.29,0,.37,1.47,2.08,3,3.17l4.31,3.32c1.25,1,1.75.26,1.94-1.57.22-2,1.7-15.78,2-18.71,1.3-9.88,1.3-9.77-.2-9.32-2.3.7-4.36-.2-4.36-2.55a3.16,3.16,0,0,1,2.19-3.18,5.12,5.12,0,0,1,1.65-.15c.3.06.85.09.91.1.73,0-2.83-6.48-2.83-6.48s3.4-6.06,5-8.31l4.4,8-3.6,7c7-.52,6.33,8.3-.54,5.34,0,0,0,2.62,0,2.43.07-.75.06-1.39.3-1.53,6.65,2.52,8-7.18.84-6.74,1.18-2,2.49-4.18,3.72-6.45l-5.19-9.45-5.86,9.75,2.95,6.08a5.06,5.06,0,0,0-1.9,0c-4.34.89-3.41,7.88,1.55,6.92a7.12,7.12,0,0,0,1.42-.54l-3.2,28.53s-.32.26-1.6-.67c-1.49-1.06-4.6-3.39-4.8-3.63,1.12-18.24-3.45-37.43-8.66-49.45-.33-.92-.13-19-.13-19l29.54.07.11,84.06c-1.54-1-3.21-2.26-4.8-3.38a1.39,1.39,0,0,1-.57-1.58c-.52,1.12-.21,1.6-.21,1.6l6.53,5.21-.26,82.72s-10.53-5.43-17-8c-2.92-1.2-3-.85-3-.85s2.06,4.63,1.48,5.47c1.39,1.34,3.73,4.15,3.85,6.89a8.81,8.81,0,0,1,2.53,2.77l3.91-1.41-.88,4.07c4.16,2.92.15,6.84-.62,6.48a44.12,44.12,0,0,1,2.25,5.73c-.65,0-3.95-1.83-4.87-2.26-2.38,4.71-6.42.76-6.45.07l-4.47,2,1.58-5.09c-2.88-1.75-4.83-4.4-.17-7.26l-1.07-4,3.83,1.51s.71-1.15,1.26-2c-1.44-6.24-10.86-5.06-13.89-10.67a83.37,83.37,0,0,1-1.5,9.54c-.3,6.7-5-.08-5-7.16,0-1.6,2-7,2.69-7.25.71-.1,7.43,3.15,11.95-.08,2.06-2.14,5.6-8.15,2.2-17.57-1.13-2.18,2.14-2.45,3.2-1.72,0,0,9.83-5.14,14.27-7.61-7.45-4.09-22.92-15-22.91-15.49-2.07,3.28-4.43,6-7.76,10.66-5.39,6.35-9.6,12.38-16.44,17.45-9.62,7-11.87,14.05-9.19,22.32,1.08,3.58,3.27,7.21,6.85,8.46,1.82,1.84,9.14,8.77,9.14,8.77-12.22,11.12-20.6,20.26-26.48,30.37,5,2.61,16.93,6.39,16.93,6.39-4.44,14.78-2.42,26.52.51,38.3,0,0-34.75,0-52.78-.52a5.55,5.55,0,0,1-2.13-.08c-.07-1.32,3.25-4.94,4.24-4.43.5-.5,1.55-.75,1.36-1.35-2.48-.3-6.26,4-6.41,5.78H81.12c-.31-.27,2.69-7.26,8.7-7.82-.07.25.8-.54.15-.88-7,.83-10.26,8.59-10,8.7H78.83A14.27,14.27,0,0,1,91,274.19s1.16-.41.86-1.08c-7.93,1.38-11.88,4.81-13.78,11.46H76.65c1-6.75,8-12.66,15.81-12.46.25-.16.55-.34.42-1.11-8.71,1-13,3.88-16.62,11.36-3.2-8.3-12.09-12.24-12.2-12.28s-.21-2.32.28-2.22c7.59,2.74,10.48-3.84,10.17-7.67a32.83,32.83,0,0,0-.77-6.37,27.58,27.58,0,0,1-1.06-5.77c0-1.18.42-1.41,1.29-1.81,1.63-.74,2.64-3.4,2.28-3.73-.83,1.94-3,2.28-4.06,3.58-.81,1.07-.45,2.78,1,8.72.88,3.62-.16,2-2.22.83l-1.37-.78c.92.95,1.89,1.84,2.83,2.77.84.76.37,1.24-.83.79-1.74-.86-5.08-.5-6.36.59-.5.36-.68.32-.81,0-.56-9.22.41-14.9,3.47-21.83,2-4.71,4.91-8.24,8.84-8.49s9.63,1.06,14.79,4.56c6.07,4.12,12,10.38,12.6,18.06a4.21,4.21,0,0,0,.67-1.05c.27-.91-.74-3.65-2.32-6.83-.29-2.39-1.11-6.59-1.76-9.42a2,2,0,0,1,1.84.26c1.11,4.69,1.9,8.34,2.85,14.62,0,.61.8-.91.8-1.31-.14-.94-2.75-13.23-2.7-12.95,0-.42,2.48.13,2.14.52,0,0,1.88,10.31,2,10l.64-.88s-1.79-7.53-1.57-9c.15-.22,1.54.23,2,.47.55.74.91,3.43,1.14,5.26.64.49.77-.92.72-1.3-.46-.72-1-3.45-.58-3.59a5.11,5.11,0,0,1,2.18.8c.36.32,1.74-1.6,1.39-1.94a76.53,76.53,0,0,0-24.1-4.66c-1.65,0-2.31-.23-4.85-1.15-6.47-2.33-11.81,0-12.6.73-7.89-5.48-16.71-13.15-23.73-18a3.71,3.71,0,0,0-1.2-.34C46,220,45.18,229.87,44.23,237.72c-.39,3.11-.43,3.36-.29,3.44s.37,0,.46-.09c2.31-.86,4.4-.3,5.51,1.78.55,3-2.06,5-4.81,3.53-1-.52-1.17-.42-.7.58.8,1.79,3.13,6.5,3.13,6.5s-3.14,6.4-4.73,8.14c-1.54-2.49-3.52-5-4.37-7.75,1.21-2.38,3.51-5.44,4.23-7.78a1.9,1.9,0,0,0-1.16.21c-4,1.9-4.66-1.67-4.6-3,.1-2.61,2.38-3.17,5.68-1.95-3.57-23.73-4.33-37.25-3.42-35.79a72.26,72.26,0,0,1-6.46-5.18L32.51,27.57l51.63.08C89.4,41.76,88,58.72,84.8,67.56a51.62,51.62,0,0,1,17.61,6c-10.77,15.79-27.68,32.86-46,43.78-1,.47-4.45-1.65-4.85-3.76-.09-.48.18-1.45.73-1.43,1.35.44,2.65,1,4,1.57,0,0-1.83-4.59-.94-5.29a7.64,7.64,0,0,0,1.41-1.08,3.71,3.71,0,0,0-.18-5.1A5.66,5.66,0,0,0,55,101.11s1.29-3.59,1.93-5.28l-5.08,1.68c-1.64-2.28-4.67-4.05-6.91-.65-.42.9-.33.76-3.48-.63C39.68,95.44,38.58,95,38.58,95c.67,2,1.54,3.86,2.3,6.16-3.5,2.24-2.7,6,.25,7.12l-1.55,5.09s3.31-1.24,5.1-1.72a9.64,9.64,0,0,1,2,3.09,13.05,13.05,0,0,0,3.77,5.51,26.07,26.07,0,0,1-5,2.91l7.45,3c-.47-1.58-1.45-2.74-1.55-4.73-.09-1.71-.19-1.74-1.29-2.9C48.28,117,48,115,47,113.25A5.83,5.83,0,0,1,45.2,111c-1.14.11-3.7,1.38-4.18.93-.59-.64,1-3.89.85-4.21-1.31-.11-5-3-.61-6.14l-1.39-5.17s3.32,1.45,4.91,2.26c1.11-5.16,6.14-2.69,7-.46,0,0,4-1.31,3.75-.25s-.76,3.35-.76,3.35c3.59,3.18,2.84,4.74-.07,6.82a19.13,19.13,0,0,0,.66,4.31A33,33,0,0,0,52,111.16c-.54.53-1.14,1.5-1,2,.91,4,5.86,5.14,13.2,9.24.26-2.59,2-6.14,2.25-9.26.13-2.27.21-2.31,1.8-1.58,4.21,3,2.93,11.39,1.39,14.82-.9,1.93-1,1.88-2.82,1.32a17.93,17.93,0,0,0-9.14.34c-3.29,1.35-4.84,8.69-4.88,10.91a15.24,15.24,0,0,0,1.22,6.84c.46,1.67-.39,3-1.9,2.51-.34-.1-1.14-.41-1.14-.41l-14.2,7.35,2.68,1.57s-2-1.18-.75-1.81l12.17-6.36c2.26.89,2,1.07,3.43-.46a2.33,2.33,0,0,1,2.49-.81c7.18.69,10.36-.36,11.6-3.37.18-.45.11-.43.84-.8a2.93,2.93,0,0,0,2.07-2.68c0-.79.38-.9,1-1.44a2.8,2.8,0,0,0,.64-3.64c-.33-.62-.58-.81-.44-1.46a3.9,3.9,0,0,0-1.21-3.39c-1.2-1.37-1.19-1.14,1.06-3.24,4.42-4.2,8.31-7.41,12.61-11.21,2.94-2.6,2.62-2.42,3.77-1.23a17.68,17.68,0,0,1,4,17.22c-.09.28-.13.25.09,0,1.19-1.35,1.22-8.15.2-11.16-1.24-3.71-2.44-5.64-6.54-9.26-2.57-2.32-9.54-9-9.54-9C87,93.91,97.88,83,104,72.92c-3.14-3.37-17.72-6.48-17.72-6.48,1.81-3.76,5.4-20.68-.74-39.43l52.37.61,1.87.12.43-.14c.5-.13.75.22.63.78-.39,1.43-2.49,4.78-4,4.51-.66-.26-.48,1-.77,1.54,2.33-.3,5.07-3.26,5.76-6.2.38-.61.62-.72,1-.6s.32.55-.15,2c-1.46,3.55-4.43,6.84-7.88,6.51l-.44,1.21c4.65-.07,8.25-4.43,9.31-7.69.74-1.94.77-2.21,1.52-2,.61.57.23,1.39,0,2.07-2.34,7.47-8.76,9.46-12,9.14-.38,0-.45.31-.33.93,6.87.45,12.34-5.47,13.11-10.55.38-1.41,1-1.89,1.41-1.24a3.13,3.13,0,0,1,0,1.69c-1.88,8-10.43,12.57-15.65,11.27-.24-.23-.64.88-.07,1.27,10.55-.39,13.8-5.83,16.21-10.64,2.86,4.33,5.21,8.79,12.08,11.41,0,0,.69,1.51.15,1.85-.29.18-.72.09-1.35,0-8.38-1.35-11.15,6.48-7.59,18.18,1,3.2.54,2.71-1.54,4.72-1,1-1.47,2.64-1.21,2.68.36-.2.48-.75,1.35-1.47.37-.31,1.15-.61,1.73-1,1.55-.9,1.53-1.51,1-3.64-.42-1.58-1.47-6.38-1.47-6.87,0-.92.21-.82,1.37,0,1.6,1.19,2.52,1.11.57-.42a7.83,7.83,0,0,1-1.47-1.38c-.31-.45-.12-.75.51-.55a9.1,9.1,0,0,0,8.17-.87c.32,7.72-.75,19.43-7.21,27.8-5,5.57-14.46,1.36-18-.4Zm7.6-17.74a4.06,4.06,0,0,0-1.32.4c-1.9,1.09-1.45,5,.63,5.48a3.86,3.86,0,0,0,3-.35,4.72,4.72,0,0,1,2.34-.58c.69.29.91-.32,1.06-1,.32-1.54-2.2-1.57-4.2,0-2.54,2-4.48-1-2.09-3.19C142.92,64.09,142.9,63.83,142.71,63.83ZM123,72.11l2.13,2.46,1.34,5.86a3.69,3.69,0,0,1-1.8-.31,73.49,73.49,0,0,1-1.67-8Zm29,1.48a.11.11,0,0,0-.07,0,3.63,3.63,0,0,1-1,.27c-.32,0-.8-.18-1.14-.16a7.48,7.48,0,0,0-2,.42.92.92,0,0,1-.82,0,4.88,4.88,0,0,0-3.33.07,2.57,2.57,0,0,1-2.14,0c-.26-.13-.52-.47-.57-.42a17.22,17.22,0,0,0-.6,2.39c0,.23-.16.6-.06.64s.5-.3,1-.54c1-.49,2-.45,3.94,0,2.34.58,3.25.41,4.64-.3a3.27,3.27,0,0,1,2.5-.49c.18,0,.66.3.72.23s-.22-.81-.53-1.5C152.23,73.76,152.15,73.57,152,73.59Zm-25.26,2.64a22.87,22.87,0,0,0,3.2,2.75l-.06,1.87a10.21,10.21,0,0,1-2.37-.2C127.26,79.92,126.19,76.25,126.74,76.23Zm16.92,1.26a2.26,2.26,0,0,0,.62.29c3.27,1.23-.15.92-.48,2.09,0,.11.15.12.31.06a12.92,12.92,0,0,1,5.12-.49c1.62.55,1.72.17.16-.64-1.14-.45.24-.76.71-1.15,1-.62.3-.88-.93-.29a5.88,5.88,0,0,1-4.42,0,4.11,4.11,0,0,0-1.08-.45c-.42,0-.2.42,0,.55Zm-12.89,2.1,1.91,1.5-2-.19Zm-43.4,37.64a.71.71,0,1,0,.7.71A.7.7,0,0,0,87.37,117.23Zm2.56.71-8.79,4.18,2.32.77,0,2.41,2.14-.68.91,2.24Zm.39,2a.7.7,0,1,0,.7.7A.7.7,0,0,0,90.32,119.91Zm-11.15,4.27a.7.7,0,1,0,0,1.4.7.7,0,1,0,0-1.4Zm2.71,1.3L72,130l2.92.88-.77,3,2.38-1,1.33,2Zm.29,2.16a.7.7,0,1,0,0,1.4.7.7,0,0,0,0-1.4Zm-19.58.45c3.71,0,7.87,1.41,9.29,4.58.38,1.59-1.18,2.54-4.51,1.62-5.51-1.51-6.54-1.68-5.63-.74a2.55,2.55,0,0,0,1.19.71,29.27,29.27,0,0,0,7.18,1.41c1.48-.2,2.5.49,2.13,1.73-.42,1.4-2.34,2-5.23,1.56a41.09,41.09,0,0,1-5.64-1.06c-1.27-.39-1.32-.36-.71.54.31.47.34.84.81.93a38.8,38.8,0,0,1,5.9.44c3.25.29,3.76,1.21,1.37,2.62-1.13.67-4.52.49-6.45-.21-1.38-.49-4.54-1.2-3.32-.24.29.23.19.8.7,1,1.67.23,6.39.56,7.13,1.22.48.44-.59,1.53-2.8,2.1-3.32.63-8.28.36-9.59-.53-2.42-4.94-1.12-13,2.68-16.19A9.36,9.36,0,0,1,62.59,128.09Zm21.75,2.58a.7.7,0,0,0,0,1.4.7.7,0,1,0,0-1.4Zm2.93.75-10.18,5.07,2.57.77-.61,3,2.39-1,1.45,2Zm.08,2.48a.71.71,0,1,0,.71.7A.71.71,0,0,0,87.35,133.9Zm5.93,6c-4.52,4.4-9.61,7.88-14.26,12.15l1,0,2.53-2.29,71.36-.22-1.67,2.43.71.31a24.81,24.81,0,0,0,2-3.31c-15.68,0-27.78,0-45,.12-3.13-3.1-6.45-6-9.72-9ZM71.59,142.7a.71.71,0,1,0,0,1.41.71.71,0,0,0,0-1.41Zm93.16.54c6.16,4.57,13.47,10.18,19.53,13.51,2.42,1.06,2.19,1.42-.28,2.58-2.42,1.51-6.46,3.45-9.82,5.15-1.46.55-2.1-.17-3.13,0a2,2,0,0,0-1.41.92c-.72,1-.53.93-4.42.76s-5.56-.09-6.4.34-2.21,1.83-2.21,2.42a1.72,1.72,0,0,1-1.26,1.53,2.34,2.34,0,0,0-2,2.14,3.81,3.81,0,0,1-1.26,1.73,2.62,2.62,0,0,0-.69,3.07,2.36,2.36,0,0,1,.26,1.76c-.26,3.18-.48,2.91,2.93,5.27l-17.42,15.18c-.41.32-.53.29-.89,0a13.78,13.78,0,0,1-4.46-6.8c-2.94-8.1.65-14.76,5.43-18.84,1.65-1.41,3.88-3.1,4.5-3.52C150.76,162.83,158.58,152,164.75,143.24Zm-90.56.59-10,4.7,3.21.54-.62,2.78,2.32-.88,1.23,2.33Zm.61,2.2a.7.7,0,1,0,0,1.4.7.7,0,0,0,0-1.4Zm91.25,3.08-1.13-2.67s-3.14,7.75-3.81,10.37l10.48-5.34-3.35-.62.38-3Zm-113.76.48a.71.71,0,1,0,.7.7A.7.7,0,0,0,52.29,149.59Zm3.05.64s-7.41,3.48-10.76,5l3.13.65-.55,3L50,157.8l1.14,3Zm.4,2.29a.7.7,0,0,0-.7.71.7.7,0,0,0,1.4,0A.71.71,0,0,0,55.74,152.52Zm104.87.51a.7.7,0,1,0,.7.7A.7.7,0,0,0,160.61,153Zm12.12.63-3.53,9.81,9.54-4.81-2.59-.7v-2.43l-2.13.62ZM60,156a.7.7,0,1,0,.7.7A.7.7,0,0,0,60,156Zm104.33.18a.7.7,0,0,0,0,1.4.7.7,0,1,0,0-1.4Zm-101.41.72-10.1,4.93,3.13.73-.34,3.16,2.55-1.45,1.38,2.88Zm.64,2.08a.68.68,0,0,0-.67.7.7.7,0,1,0,1.4,0A.74.74,0,0,0,63.55,159Zm105.11.62a.7.7,0,1,0,.7.7A.7.7,0,0,0,168.66,159.62Zm-13.93,3.23-.94-2.64-3.74,9.67,10.06-4.6-3.19-.75L157,162Zm-10.22-2.09c-.11,0-.21,0-.21.1a29.89,29.89,0,0,1-2.57,2.74l-29.69.27,2.47.67c3.9,3.12,10,8.63,10,8.63l7.37-.29c4.08-4,10.21-7,12.94-12A.49.49,0,0,0,144.51,160.76Zm27.83,2a.7.7,0,1,0,0,1.4.7.7,0,0,0,0-1.4Zm-22.92,3.38a.69.69,0,0,0-.69.69.7.7,0,1,0,1.39,0A.69.69,0,0,0,149.42,166.14Zm15.07,1c2.13,0,4.18.06,4.71.47,3.29,2.77,1.73,15.71-2.42,17.34-4.55,1-7.69,1.22-11.64-1.39-1.12-.54-3.34-2.19-2.91-3.55.59-1.68,2.22-1.56,6.88-.11,1.71.53,2.64.43,3.08.1s-.13-.66-1-.66a20.88,20.88,0,0,1-3.11-.76,12.38,12.38,0,0,0-3.44-.78c-1.93-.11-2.49-.19-2.49-1.37,0-2.2,3.07-2.49,8.71-1.2a14.1,14.1,0,0,0,2.2.32c.21.08-.43-.73-.54-1.22-.21-.17-.57-.25-1.53-.29-3.63-.35-6.64-.6-6.71-1.07-.32-2.34,4.38-3,9.24-1.1,1.25.48,1.28.28,1.27-.08,0-.67-2.11-1.85-5.2-1.82s-2.58-1.49-.11-2.64c.84-.39,2.88-.18,5-.19Zm-11.61,2.5a.71.71,0,0,0,0,1.41.71.71,0,1,0,0-1.41Zm-10.81,4.84-.63-2.61-4.09,10.17,10.32-5.25-3.4-.64.29-2.14Zm-5.26,4.09a.7.7,0,1,0,.7.7A.7.7,0,0,0,136.81,178.58Zm10.28,2.89-.87-2.48-3.47,8.86,8.8-3.93-2.59-.71.36-2.68Zm-7,0a.71.71,0,1,0,.7.7A.71.71,0,0,0,140.08,181.49Zm2.26,3.39a.7.7,0,1,0,.69.69A.69.69,0,0,0,142.34,184.88ZM137.91,187l-3,8.39,8.27-4-2.41-.8s.13-1.89-.1-1.8-1.7.49-1.7.49Zm7.37,1a.7.7,0,1,0,.7.7A.7.7,0,0,0,145.28,188Zm-11,4a.7.7,0,1,0,.7.7A.7.7,0,0,0,134.31,192Zm3.16,3.24a.7.7,0,0,0,0,1.4.7.7,0,1,0,0-1.4ZM93.85,233.87c-.38.06-1.36-.84-1.55-1.26a1.69,1.69,0,0,1,1.45.22C94,233.08,94.2,233.71,93.85,233.87Zm3-.6c-.14,1,.5,2.87.38,3.31-.33.16-2-1.6-2.38-2a8,8,0,0,1,0-1.67A2.42,2.42,0,0,1,96.85,233.27Zm3,.51c.35,2.27,1.35,5.92,1.19,7.15a20.73,20.73,0,0,1-2.35-2.69,18.15,18.15,0,0,1-.8-4.89,2.72,2.72,0,0,1,2,.43ZM80,233.52a7.51,7.51,0,0,1-3.6.88c-1.16,0-3.16-.6-3-.46.52.95,1.9.45,1.93,1.07-.35.61-1.26.55-1.72,1.13-.09.16.14.29.78.22a9.69,9.69,0,0,1,6.85-.1c.49.1.17-.37,0-.5a2.89,2.89,0,0,0-1.22-.5c-2-.37-1.15-.57.22-1.18,1-.37,1.25-1.27-.29-.56Zm4.43,2.89a12.07,12.07,0,0,0-1.7.66,6,6,0,0,1-4.12-.08,3.82,3.82,0,0,0-3.47.44,2.77,2.77,0,0,1-2.8.37c-1-.57-1-.38-.5,1,.13.35-.12,1.41.32,1.66s.71-.43,1-.52,1.86.63,2.76-.16c1.6-.58,2.08.36,3.18.27,1.8-.63,2.92-1.29,4.46-.07.1-.46.45-3,1-3.55a.11.11,0,0,0-.12,0Zm-3.27,7.19c-1.3,0-2,.81-3.66.66a1.23,1.23,0,0,0-1.22,2c.39.61.92.72,2.74-.11.74-.35,1.78-1.1,2.39-1,1.77.18,2.2,1.89.72,3.34-.71.43-.72.89-.5.89a2.57,2.57,0,0,0,2-1.49c.74-2.22-.58-4.24-2.5-4.2Zm5.79,10.27A10.14,10.14,0,0,0,82,257.4c-.77,1.22-1.51,2.6-1,3.28s1,1.1,1.11,1.4-.32.53-.65.9c-1.48,1.65-1.13,1.74.94.67,1-.54,1.54-.76,2.22-.58a11.21,11.21,0,0,0,6.17-.47c.77-.28,1.51-.66,1.57-.47-3.08,3.39-6.93,2.54-8.3,2.33-.24-.06-.42,0-.42,0s.39.52,1.24.9c1.42.63,4.82,0,6.95-1.59,4.21-2.76,6.53-5.39,3.21-4.29-1.52.51-2.09.42-3.94-.42-2.76-1.25-4.89-1.61-7.18-.81-2.9,1-.68-1.39,2.59-3.46.71-.45.8-1,.38-1ZM71.24,261h-1c-.69-2.33-2.36-2.33-3.09,0l-.81-.06c.79-2.91,3.79-3.51,4.87,0Zm17.24.19-.73,0c-.44-1.41-2-2.65-3.09-.34l-.51-.1c.9-3.7,4.47-1.64,4.33.41Zm-4.86-2.13c.46,0,.57.52.06,1.35-.37.59-.8.54-1.23.1s-.37-.46.06-.85A1.9,1.9,0,0,1,83.62,259.09Zm5.37,0a4,4,0,0,1,1,.3c1.1.37,1.35.68.9,1.13a1.56,1.56,0,0,1-1.68.33c0-.56-.57-1-.59-1.55C88.62,259.17,88.79,259.11,89,259.11Zm-17.31,0c.76,0,1.79.42,1.72.86s-.84.8-1.46.85c-.42.05-.4-.12-.51-.41s-.23-.6-.3-.87C71,259.06,71.29,259.14,71.68,259.13Zm-5.24.16s-.43,1.28-.62,1.72c-1.6-.09-1.45-.8-.69-1.31a2.77,2.77,0,0,1,1.31-.41Zm-1.24,3a6.25,6.25,0,0,1,1.15.42,12.25,12.25,0,0,0,5.62,0c.88-.2,1.29-.48,1.49-.34s0,1.12-1.29,1.68a8.12,8.12,0,0,1-6.09,0c-1.64-.84-1.82-1.73-.88-1.71Zm-.44,1.83a7.08,7.08,0,0,0,4.86,1.13c2.78-.1,3.28-.45.93.79-2.16,1.15-5.5.94-6.14-.3C64,265.06,64.28,264.22,64.76,264.16Zm13.47,1.66h0c.22,1.5,2.74,2.87,4,3.19,2.57,1.14,6.65,0,9.72-1.31,2.24-1,3.05-2.43.37-1.6-4.29,1.34-9.68,1.44-12.39.4a8.66,8.66,0,0,0-1.63-.69Zm-14.14,5.62c5.38,1.21,11.88,9.5,11.86,13.13H74.21C71.57,275.35,64.7,273.35,64,272.8c-.31-1.13.08-1.39.06-1.36ZM64,273.77a17,17,0,0,1,9.62,10.8H71.76A14.38,14.38,0,0,0,64,275.66a4.3,4.3,0,0,1,0-1.89Zm0,2.83c3.27,1,6.16,5.28,7,8H69.35c-1.16-3-2.8-4.93-5.41-6A4.85,4.85,0,0,1,64,276.6Zm0,2.93a7.25,7.25,0,0,1,4.51,5H67A8.53,8.53,0,0,0,64,281C64,280.68,64,279.53,64,279.53Zm.15,2.5c.17-.1,2.47,2,2.08,2.54H64.11C64.09,283.93,64.07,282,64.1,282Z" transform="translate(-5.81 -11.8)"/>
    <path class="c" d="M122.66,27.59c-3.9,7.55-23.89,41.54-24.1,42.72l5.13,2.27,24.86-44.82s-5.16-.17-5.89-.17ZM181.36,56,179,59.24l2,3.58,2-3.54ZM90,90.08s-7.17,7.13-10,10.45c6,6,17.53,13.56,17.62,25.17l7.94,0,25.69,23s23.26.17,23.7.07,8.73-11.95,8.73-11.95l14.75,10.75s-.71-11.57-1.27-18.67c-.18-4.74-.34-7.66,3.13-9.76-4.76-2.27-4.46-6.45-1-9.51-1.16-1.6-2.88-1.9-3.14-7.56a15.22,15.22,0,0,0-2.33-1.91l-1,.85c-3.06,2.75-5.14,5.55-5.48,7.38-.66,3.47,2.87,5.85,4.91,3.31.57-.72,1.08-.52,1.08.42,0,1.89-2.38,3-4.39,2a2.68,2.68,0,0,0-.93-.34c-.07.08,2,5.15,2.56,6.27a13.61,13.61,0,0,1,1.49,5.69c.08,2.09,0,2.35-.94,6-.92,3.41-.49,5.43,1.16,5.43.92,0,.89.89,0,1.21-2,.7-3.23-.77-3.3-3.9,0-1.9-.07-1.95-1-1.49-3.4,1.6-7.1-1.26-5.5-4.25.34-.63.74-.43.95.47a2.64,2.64,0,0,0,2.86,2.41c3.67,0,5.21-5.2,3.09-10.42-.42-1-.64-1-1.19.34-.88,2.07-2.35,2.69-3.56,1.48-.4-.41-.6-1.07-.32-1.1l.89,0c2.14-.07,2.88-2.14,1.88-5.26a27.46,27.46,0,0,1-1.28-4.73,9,9,0,0,1,1-6.27,27.69,27.69,0,0,1,3-3.37c1.59-1.61,3-2.84,3-2.84s-.81-.7-1.9-1.52c-2.3-1.73-2.71-2-2.71-2s-10.93,30-10.15,41.71c-1.39,15.41-12.72,11.15-13.56.48Zm-.49,4.51c3.74-.07,6.2,4.88,7.61,15.13.47,3.4,2.54,8.15,4,9.28,3.79,2.84,9.72.65,9.73-3.59,0-5.27-7.4-6.06-7.52-.79,0,1.24-.66,1.3-1.27.12a3.9,3.9,0,0,1,1-4c.68-.64.63-.76-.67-1.47-4.5-2.49-6.42-6.2-4-7.78,1-.69,2.49.18,1.83,1.11-1,1.45-1,1.68-.18,2.89,1,1.37,2.14,2,4.9,2.86a23.12,23.12,0,0,1,3.76,1.3,6,6,0,0,1,3.47,7.62c-.26.72-.51,1.43-.56,1.58-.11.33.07.33,2.28,0,3.5-.47,7.4.78,9.32,3a10.89,10.89,0,0,1,1.88,6.09,15.16,15.16,0,0,0,.3,2.16c.16.75.37,2,.47,2.83.92,7.63,7.27,11.53,10,6.15,1.73-3.38-2.26-6.77-4.3-3.64-.71,1.1-1.45.59-1-.71.8-2.54,4-3,6.13-.83a6,6,0,0,1,1.15,5.43c-.29.87-.26.93.38.7a5.59,5.59,0,0,1,4.86.94c2.11,2.27,1.69,5-.92,5.87a2.22,2.22,0,0,1-3-1.4c-.2-1,.48-1.28,1-.43,1,1.6,3.13.31,2.63-1.57-.58-2.14-2.41-2.59-5.79-1.43-5.37,1.85-7.1,1.69-9.67-.86-1.84-1.83-2.53-3.4-3-6.88-.55-3.84-.6-3.94-1.55-3.13-4.55,3.87-10.55-2-6.7-5.82,1.19-1.19,2.07-.15,1,1.18-1.57,1.94.47,4.65,3,4,4.66-1.15,3.71-8-1.33-9.55-1.53-.48-5.75-.28-9,.43-9,2-13-1.87-14.92-14.39a43.13,43.13,0,0,0-1.33-5.7c-1-3.73-4.49-5.76-6.38-3.73-1.51,1.62-.71,3.8,1.39,3.81s1.45,1.44-.73,1.63c-3.79.34-4.45-6-.82-7.77A5.84,5.84,0,0,1,89.53,94.59ZM40.09,96.91l1.18,4.49L46,102.72l-1.48-4.27Zm12,1.34-1.25,4.06,3.54-.87,1.16-4.23Zm38.51,6.65a1.35,1.35,0,1,1-1.35,1.35A1.35,1.35,0,0,1,90.61,104.9Zm-45.13,2.42-3.69,1.29-.71,3.22,3.87-1Zm8.81,1-3-.52.84,3.32,3.2,1.31Zm130.91-.25-1.94,1.5c5.65,4.92-.45,9.65-.64,9.33,4.09,2.71,3.36,7,2.83,10.88-1,7-1.34,13.56-2.4,20.7a55.39,55.39,0,0,0,8.2,4.71c.06,0,0-41.9,0-41.9Zm-69.76,6.31a1.35,1.35,0,1,1-1.34,1.34A1.34,1.34,0,0,1,115.44,114.4Zm-82.65,3.44L33,157l8.09-14.47-5.57-6.43,4.82-5.14Zm78.82,6a1.35,1.35,0,1,1-1.34,1.35A1.35,1.35,0,0,1,111.61,123.8Zm18.38,4a1.35,1.35,0,1,1-1.34,1.35A1.35,1.35,0,0,1,130,127.8Zm52.65,43.57,5.94,6.1-4.64,5.79,7.31,12.41-.12-38.4ZM32.72,158.53,33,200.59l6.36,4.64L41,203.7c-4.1-4.38-1.65-7.64,1.44-9.52-5.46-1.27-3.8-8.51-3.47-11.87C38.8,176.09,41.08,169,40.38,163Zm36.62,5.84-9.12,12.7s-10-7.59-15.06-11c.54,5.48,1,12.47,1.7,18.37,1.64,8.6-2.62,8.75-2.66,9.57,6.77,5.14,1.09,9.95.07,9.71,3.61,2,3.31,7.94,3.31,7.94l1.71,1s.56-.34.79-.46a15.13,15.13,0,0,0,5.5-6.81c1.16-3.93-2.25-7.19-4.4-4.21-1,1.47-1.89.49-1-1.2a3.33,3.33,0,0,1,4.21-1.58c.8.43.62-.68-.61-3.77a36.13,36.13,0,0,1-1.32-4.46,13.2,13.2,0,0,1,.63-7.62c1.4-3.92.9-6.39-1.35-6.6-1.2-.12-1.32-.49-.35-1,2.18-1.24,4.3.52,4.21,3.5,0,1.61,0,1.64.83,1.3,4.3-1.73,7.71,2.74,4.7,6.17-.93,1-1.5.38-.9-1,.94-2.17,0-3.72-2.14-3.74-3.18,0-4.94,4.37-3.69,9.19.39,1.51.45,1.53,1.51.52s1.63-1.18,2.36-1c1.5.45,1.9,2.05.46,1.85-2.48-.34-3.13,2.26-1.73,6.87,1.86,6.12,0,11.11-5.52,14.66-.28.17-.72.52-.72.52A36.74,36.74,0,0,0,57,218.38L67,178a33.55,33.55,0,0,0-.41-3.37c0-10.85,10.11-11.89,13.28-2a23.05,23.05,0,0,0,1.91,3.36l52.71,46.77s9.84-9.51,9.71-9.76c-7.48-7.53-17.58-12.86-17.94-24.81-1.79-.06-7.78.05-7.78.05l-25.63-23.5c-8,0-15.18-.52-23.52-.28Zm14.36.88c1.4,0,2.82.69,2.82,1.86,0,1-.68,1.25-1.24.43-.78-1.15-1.7-1.24-2.62-.27-2.58,2.71,1.42,5.18,6,3.72,2.81-.89,4.17-1.13,5.21-.92,4.34.87,6.43,3.8,6.8,9.51.19,2.9.19,2.89,1.44,1.74a4.78,4.78,0,0,1,8.16,2.88,3.87,3.87,0,0,1-3.42,4c-.71,0-.6-.74.17-1.1a2.9,2.9,0,0,0,.12-4.92c-2.37-1.5-5.5.85-5.46,4.11,0,3.91,3,5.72,8.75,5.39.85,0,3-.15,4.72-.22,2.76-.12,5.73-.64,8.54,1.48,2.94,2.34,4.9,7,5.73,13.73,1.32,8.28,2.34,10.5,5.12,10.7a2.92,2.92,0,0,0,3.05-2.92,2.16,2.16,0,0,0-2.68-1.78c-1.39.46-1.68-1-.3-1.63,1.9-.79,4.23.74,4.74,3.13.31,1.4-1.27,4.07-2.92,4.74-4.31,1.74-7.37-1.82-8.38-9.78a47.16,47.16,0,0,0-2.09-9.23c-2.09-5.74-5.52-8.11-9.26-6.4-4.24,1.95-3.4,8.29,1.09,8.24,2.46.2,3-1.61,3-3.55.06-1.43,1.68-.09,1.82.89a4.4,4.4,0,0,1-1.89,3.37c-1.52,1-1,1,.58,1.37,4.2.78,7.32,6.33,4.81,8.22-1.3.79-2.69-.38-1.79-1.53,1.44-1.82-1-4.71-5.42-5.68-5.8-1.27-8.11-5.59-6-10,.69-1.47.75-1.43-2.08-1.27-6.22.35-8.43-.51-10.52-4.12-.63-1.09-.91-2.54-1-5.44-.25-5.18-.72-8.38-1.37-9.29-3.23-4.47-10-3.13-9.12,1.82a2.79,2.79,0,0,0,5,1.53c1.38-1.42,2-.1.68,1.4-3.25,3.6-8.91-.6-7.23-5.37.39-1.09.44-1.05-1.65-1.11-4.64-.14-6.85-4.11-3.86-6.93A3.07,3.07,0,0,1,83.7,165.25Zm11.19,17a1.35,1.35,0,1,1-1.35,1.35A1.36,1.36,0,0,1,94.89,182.29Zm18.65,4.78a1.35,1.35,0,1,1-1.34,1.35A1.35,1.35,0,0,1,113.54,187.07Zm-4,8.79a1.35,1.35,0,1,1-1.35,1.35A1.34,1.34,0,0,1,109.54,195.86Zm59.27,5.24.86,4,3.09.81-.49-3.41Zm10.81,1.37-.06,2.37,2.75.32,1-4.07ZM133.47,206a1.35,1.35,0,1,1-1.34,1.35A1.34,1.34,0,0,1,133.47,206ZM173,211.53l-3.23.89-1.55,4.49,4.13-1.5Zm6.32.4.4,3.32,4,1.8-1.35-4.74Zm-58.68,28.34L95.88,285l6.75-.09L126,242.73ZM42.87,251.09,40.68,254l2.08,3.41L45.14,254Z" transform="translate(-5.81 -11.8)"/>
    <path d="M16,11.8a7.21,7.21,0,0,0-7,6.05,43.83,43.83,0,0,0-.33,6.74c-.1,6.38-.16,5.87-.16,5.87l-2.74-.07L6,33.94l2.92,0a9.56,9.56,0,0,0,0,2.21c.23,5,1,6.79,3.84,8.13,1.92.91,5.47.9,7.07-.36,1-.61,1.07-.61,2.22.11a5.22,5.22,0,0,0,4.47.69l-.06-3.64c-3.87-.06-4.38-1-3.37-3.48a4.19,4.19,0,0,0,.11-.94c.29-4,.17-17.69-.28-19.31A7.26,7.26,0,0,0,16,11.8Zm-.33,3.58a3.83,3.83,0,0,1,3.45,2.7c.68,1.85.67,1.69.87,13.09.1,5.62-.14,5.59-.14,5.59A16.68,16.68,0,0,0,12,30.81s0,.27,0-5.26c-.06-5.72,0-6.95.86-8.44a3.2,3.2,0,0,1,2.82-1.73ZM84.86,26.47c4.55,13.8,5,27.39,1,40.46,2.25.11,12.06,2.63,17.47,6-1,2.57-16.32,21.41-26.72,29.9,3,2.93,6.21,5.86,9.63,9.08,5.17,4.91,7,8.29,7.33,14.65a17.66,17.66,0,0,1-3.1,9.56,21.6,21.6,0,0,1-6.21,5.68c-2.9,1.92-7.15,6.07-12.5,12.18-2,2.33-5.47,6.57-8.32,10.61-1.08,1.48-4.25,6.06-4.25,6.06C48.64,162,37.3,155.32,37,155.37c0,0,11.44-6.1,13.84-7.34,1.85,1.19,4.36.17,3.15-2.44a17.89,17.89,0,0,1,2.15-16.31c.68-1,2.32-1.63,5-1.81,1.15-.08,2.37,0,3.58-.06a6,6,0,0,1,2.28.53c2.16,1.18,2.59-.34,3.94-5.45S70.1,111,67,111c-.73,0-1.13.26-1,2.07a5.5,5.5,0,0,1-.57,2.94,20.8,20.8,0,0,0-1.42,6.17c.45.09-2.86-3.29-8.07-4.63-3.38-.4-5.1-4.62-5-4.63a7.34,7.34,0,0,1,.95-1.59,22.82,22.82,0,0,0,3.67,1.61s-.32-1.69-.44-2.15c-.63-2.35-.6-2.71.31-3.2,2.25-1.21,2.49-3.38.73-5.35a3.71,3.71,0,0,0-1.41-1.09L56,96.68s-1,.22-1.83.47c-2.36.71-2.18.74-3.19-.41-2.18-2.49-5.52-2-6,.86a8,8,0,0,1-.2.82l-5-2.44a50.9,50.9,0,0,0,1.45,5.17c-4.4,3.42-.68,6.44.52,6.76,0,0-1,3.27-1.38,4.63l4.95-1.42a4.87,4.87,0,0,0,2,2.32c.27,2.79,2.42,5,3.9,6.39a5.23,5.23,0,0,1,.09,1.67c-.32,1.62,1.33,4.19,1.61,4.35-6.81-2.79-13.9-6.13-20.75-9.41l.43,84.15s1.6,1.43,4.76,3.69c1.52,1.09,1.52,1.1,1.2,2.35-.42,1.65-.31,2.92,1.1,13.8.74,5.76,1.56,11.73,2.29,17.08.28,2,.32,3.2.32,3.2-1.51-.7-3.71-.77-4.84.51A3.44,3.44,0,0,0,39.81,247a3,3,0,0,0,1.68-.62,1,1,0,0,1,.8,0L38,254l5,8.41,5-9-3.63-7.12a1.65,1.65,0,0,1,.85.21,4.75,4.75,0,0,0,1.59.46c2.53,0,3-1.14,3.32-3.21,0-2.67-2.13-3.88-5.05-2.87a4.45,4.45,0,0,1-1,.2l3.07-29.35,1.64,1.21.54-.29-1.43-1.23c.31-4.7-1.24-6.37-2.92-7.51,5.6-3.18,3.18-8.22-.55-9.77,0,0,2.42-1.42,2.91-2.9.41-1.33.25-3.43-.21-7.16-.35-5.75-1.59-17.64-1.59-17.64,4.89,3.69,9.92,7.64,14.65,11.37l9.47-13.16,22.83.16s17.35,15.75,26.09,23.78l7.54.07s.08.81.16,1.34c.71,7.78,5.93,13.13,10.68,16.87,1.94,1.74,6.72,6.31,6.72,6.31l-8.87,8.94L80.44,173.56s-.26-.71-.36-1.14c-1.26-5.14-4.66-7.29-7.76-6.93s-6,3.58-5.88,9a17.53,17.53,0,0,0,.33,2.33l-9.93,41.34s-4-3-6.11-4.49l-.47.27,5.81,4.37.43-.19,1.65,1.29.13.88c5.08,3.46,13.7,9.91,13.7,9.91,4.06-3,8.34-2,12.62-.87a20.89,20.89,0,0,0,4.77,1A72.3,72.3,0,0,1,113.06,235L84.55,285.59l54.32.11c-2.68-10.58-5.52-21.33-.44-39.37-5.36-1.09-17.27-5.85-17.27-5.85s0-.27.45-.89c2.2-3.15,7.77-11.69,13-16.62.63-.46,9.73-9.28,9.82-9.56a2.14,2.14,0,0,1,.62-1c.84-.56,3.07-2.66,3.07-2.66l-11.38-9.87a2.82,2.82,0,0,1-.67-.14c-1.58-.89-4.45-5.85-5.16-9.17-1.63-7.63,1.38-13.67,9.84-19.87,8.27-5.66,23.95-27.63,24-28.12,8.45,7,15,10.62,22.49,15.21-4.5,2.58-8.16,4.31-11.3,6-2,1.16-2.32,1.41-4.05.92-1.95,0-2.62.77-2.12,2.45,3,4.67,1.69,15.55-2.31,17.64a11.44,11.44,0,0,1-9.63.3c-2.15-.69-2.12-.7-3.08,1.25-2.11,4.5-2.25,8.28-.3,12.59,1.6,3.46,4,5,4.26.37.18-2.74,1.38-5.94,1.34-8.88a14.13,14.13,0,0,0,8,5c2.67.41,5.5,3.76,5.41,5.12-.73.74-1,1.68-1.07,1.62-1.3-.43-4.11-1.62-4.11-1.62l1.19,4.23a3.25,3.25,0,0,1-.77.48c-2.65,1.35-2.48,5,.3,6.47.57.29.61.43.37,1.21-.35,1.74-1.11,2.9-1.52,4.62,0,0,.38,0,3.55-1.45l1.25-.57.75.8c1.64,1.75,3.61,1.74,5.34,0l.78-.81,2.21,1.11c2.07,1,2.62,1.27,2.62,1.27s-1.2-4.64-1.42-5.17a1.34,1.34,0,0,0-.54-.65c-.3-.11-.25-.18.53-.8,2-1.58,2.2-3.76.5-5.42a7,7,0,0,1-.73-.77l1-4.3-4.28,1.42a4.75,4.75,0,0,0-2.44-2.39c-.07-1.94-.31-3.94-3.65-7,1.13-1-.21-3.51-1.31-5,1.87.63,6.57,2.62,6.57,2.62l.71,0,2.24,1.07.26.4s7.05,3.33,10.29,4.89c0-.18,0-3.66,0-42,0-22.86,0-41.66,0-41.78a13.15,13.15,0,0,0-1.63-1.33c-1.48-1.12-1.79-1.34-3.67-2.59-1.52-1-1.41-1-1.1-2.17.36-1.33.35-3.17-.12-6.61-.36-2.54-1.64-11.47-2.53-18.68-.62-5-.77-6.17-.93-7a11.17,11.17,0,0,1,0-3c7.08,3.07,7.64-7.1.54-5.73,1.36-2.74,2.5-4,3.66-6.93-1.48-3.19-4.75-8.58-4.75-8.58l-5.19,9,3.05,6.25c-3.51-.63-5.38,1.93-4.73,4.22A3,3,0,0,0,179,71.71c1.32-.52,1.32-.65.15,9.26-.35,2.93-1.89,16.63-2.1,18.67-.14,1.37-.23,1.75-.79,1.45a13.41,13.41,0,0,1-1.94-1.3l-.43.39c.68.55,1.48,1.26,2.29,2-.19,3.62-.11,5.73,2.91,7.5-5.48,3.43-2.27,8.71.94,9.47-1.92.5-3.81,3-3.35,7.86l1.56,20.19-14.85-11-8.71,12.47-23,0-25.89-23.36s-5.68-.08-8-.14c.27-.12-.49-7.22-4.24-11.86-4.07-4.84-13.34-12.83-13.33-12.84L90,90.61l54.67,49.2s.27,1.4.41,2c1.82,7.77,10.66,8.24,12.54.33a21.36,21.36,0,0,0,.54-4.61,18.12,18.12,0,0,1,.61-2.88c2.94-11.53,5.44-21.47,8.33-32.54.4-1.52.82-3.22.94-3.77.47-2.24.4-2.23,2.75-.46,1.44,1.08,2,1.47,2,1.47l.45-.48c-1.61-1.25-4.37-3.24-4.37-3.24l0-.84c-8.88-6.36-10.71-8-16-12.21-4.08,3.58-9.9,2.13-13.55.86-.94-.37-3.25-1-3.25-1a77.28,77.28,0,0,1-24.62-4.21l29.08-51.78H129.4l-.39.44h-5.85l0-.44ZM192.11,196.8s0,0,0,0ZM118,27.64l4,.08-23.53,42-2.5-1s.22-.12.22-1.89A5.27,5.27,0,0,0,94.91,63c-.71-1-1-1,1.08-.74a5.52,5.52,0,0,0,5.63-7.72c-.65-1.4-.56-1.49,1.18-1.66a5.59,5.59,0,0,0,3.26-9.57c-.7-.64-.39-1,.92-.76,4.14.89,7.34-3.7,5.7-7.29-.54-1-.05-1.17.7-1.27,3.55-.84,4.75-3.62,4.63-6.36Zm-31.71,0h18.42c-2.48,3.79,1.89,6,2.45,5.77-4,2.17-2.88,5.23-.82,6.28s5,.1,4.19-4.31l1-.43c1,1.08,1.91,7.8-5.4,6.86-1.3-.16-2,1-.92,1.73C111,50.19,102,53.12,101.55,52l0-1.13c2.45.45,5.58-2.7,2.83-5.5-1.56-1.59-6.08-.81-5.31,4-2.67-4-5.59-2.79-6.37-.68A3.16,3.16,0,0,0,95.5,53c-3,2.5-1.53,5.28.51,5.89,2.26.68,4.57-.24,3.95-4.34,0-.39.82-.26.89-.28,2.33,5.82-3.25,8-6.26,6.76-1.12-.43-1.71,1.29-.52,2.16,1.8,1.34,1.24,5.16,1,5.2a50.82,50.82,0,0,0-8-2.13,72.1,72.1,0,0,0-.84-38.6Zm29.37,0h1.66c0,2.39-1,5.32-5.08,5.77a7.11,7.11,0,0,0-.19-1.92C113.58,31.16,115.61,31.58,115.67,27.65Zm7.26.13,5.32,0-25,44.38-4-2.06Zm-13.11,3.36a1.7,1.7,0,1,1,0,3.4,1.7,1.7,0,0,1,0-3.4Zm-52.11.78C53.7,42.3,46,48.59,40.4,59c-5.86,10.62-3.18,19.76,5.09,21.45,4.36.9,9.45-3.35,10.1-8,.16-1.1.35-1.42.87-1.42.75,0,.67,1.93.19,4.53A32.12,32.12,0,0,1,51.32,89.3l14.36-.12A25,25,0,0,1,60,75.11c-.35-3.17-.09-4.57.92-4,.34.18.42.5.57,2.14a7.76,7.76,0,0,0,11.3,6.29c6.64-3.52,6.46-10.09,4.93-14.88C73.17,52.09,63,43.84,57.71,31.92ZM13.84,35.85a35,35,0,0,1,4.61,4.58,4.3,4.3,0,0,1-4.45.66c-1.2-.66-1.72-2.2-1.84-4.78C12.1,34.87,12.6,34.8,13.84,35.85Zm2.08,13.72a79.42,79.42,0,0,1-4.54,8.32c-1.39,2.56-4.8,7-3.89,10.59,1.06,3.72,5,4.66,7.14,1.81,1-1.34,1.2-1.18,1.17.31,0,2.87-1.54,4.49-2.65,5.9l7.25,0c-1.54-1.84-2.92-3.38-3.08-5.88,0-1,.28-1.63.95-.61.74.72,1.38,2.06,3.42,1.69s4-3.13,3.54-5.79c-.57-3.1-2.5-6.14-4.45-8.75A85,85,0,0,1,15.92,49.57Zm83.25.92a1.58,1.58,0,1,1-1.57,1.58A1.57,1.57,0,0,1,99.17,50.49Zm82.3,1.26,4.23,7.37-4.83,8.55-4-8.2Zm-.08,2.51-3,4.91,2.71,5,3.07-4.79Zm.06,2.11,1.54,3-1.87,3-1.56-3.19Zm-4.1,10a2.73,2.73,0,0,1,1,.21c2.85,1.2,1.94,5.53-1.1,5.26a3.26,3.26,0,0,1-1.31-.5C173.84,69.58,175.11,66.34,177.35,66.35Zm7,.08a2.76,2.76,0,0,1,1.37,5.14,3,3,0,0,1-3.9-1,2.92,2.92,0,0,1,1.07-3.8A3.05,3.05,0,0,1,184.31,66.43Zm-3.46,4.95c.25,0,.52,1.23.77,3.33.09.76.33,2.67.54,4.23.39,3.35.8,6.47,1.14,9.7.07.63.24,2,.38,3,1.45,10.48,1.77,13.83,1.43,14.72-.91,3.13-5.17,3.37-7,1.55-1.34-1.37-1.54-2.88-1-6.81.31-2.27.43-3.41,1.33-12.08.21-2,.52-4.73.68-6,.36-3.39.78-6.57,1.24-9.92C180.52,71.91,180.68,71.36,180.85,71.38ZM111,79.17s13.66,4.5,24,4.3a8.42,8.42,0,0,1,3.68.6c1.13.37,2.9.87,3.94,1.11a14.76,14.76,0,0,0,8.51-.57c.39-.16,1-.65,1.55-.47.36.11.87.81.87.81-9.1,2.42-30.39,2-43.65-3.61Zm70.19,1.43c-.05,0-.11.09-.18.19-.22.35,0,2.66.79,10,1.58,14,1.57,14.32-.34,15.79-.94.73-1.09,1-.64,1.28s.31.2,1,0c1.61-.45,2.28-1.73,2.26-4.34a44.91,44.91,0,0,0-.65-7.12c-.22-1.7-.51-4.08-.65-5.31C181.73,82.37,181.49,80.55,181.18,80.6Zm-71.57,1.47c13.6,4.87,27.82,6.25,45,3.62L157,87.28l-.57.13.26,2.37,2.91-.47s1.57,1.26,2.74,2c-15.27,4.67-39.94,3.86-55.16-2.9a7.9,7.9,0,0,1-.92-.6,5.45,5.45,0,0,1,1.13-1.74l2.78.8.8-2.54-2.12-.77Zm3.57,3-.89,2.5,3.88,1.15.66-2.55Zm5.94,1.55-.52,2.84,3.9.72.49-2.77ZM125.57,88l-.31,2.74,4.14.44.25-2.78ZM154,88l-3.52.39.22,2.41,3.56-.42Zm-6.21.7L144.3,89l.12,2.53,3.51-.22Zm-15.73,0v2.69l3.58.13,0-2.74Zm9.84.34h-3.3l0,2.56h3.34Zm-38.25.45c.35,0,1.17.78,1.5,1.67.67,1.74.36,3.68-.67,4.32-1.41.87-3.07-.5-2.1-1.73a1.57,1.57,0,0,1,.62-.49c.72-.23.89-1.37.5-3.35C103.44,89.69,103.51,89.56,103.65,89.56Zm5.27.67a94.84,94.84,0,0,0,48.65,2.91s-8.16,33.31-8.33,33.33Zm-7.21.1c.77,0,.91,1.31.21,2-.89.9-2.59.18-2.24-.94a3.77,3.77,0,0,1,2-1.07Zm4.23.77c.16,0,.46.31,1,1,1.65,2.23,1.78,4.71.3,5.85-1.74,1.33-3-.74-1.56-2.54.38-.46.43-1.33.21-3.23C105.76,91.46,105.78,91.11,105.94,91.1Zm57.09.81a3.51,3.51,0,0,1,1.2.47c1.06.51,1.42,1.27.92,1.88-.74.89-2.76-.87-2.38-2.07C162.82,92,162.88,91.91,163,91.91Zm-1.59,1.15c.27,0,.69.52,1.18,1.5a1.6,1.6,0,0,0,1,1c1.26.45,1.49,1.75.39,2.14s-2.1-.45-2.65-2.56C161,93.76,161.1,93,161.44,93.06ZM108.78,94c.18,0,.53.4,1.08,1.21,1.65,2.43,1.08,7.1-1,8.18a1.69,1.69,0,0,1-2.29-.35c-1.07-1.07-.81-1.92.79-2.51,1.35-.5,1.79-2,1.37-4.84-.17-1.13-.17-1.68,0-1.69Zm7.83.77c10.06,8.29,19.14,17.18,30.84,27.56,2.78-8.55,6.83-26.3,6.84-26.36C153.85,96.33,134.63,99.06,116.61,94.77ZM154.29,96s0,0,0,0Zm6.24-1.18a6.45,6.45,0,0,1,.92,2.39c.25,1,1.25,2.75,1.63,2.82,2,.33,2.83,1.44,1.85,2.42-.72.72-2.27.31-3-.79C160.5,99.56,159.53,94.79,160.53,94.79ZM48.33,95.94A2.65,2.65,0,0,1,51,98.25c.33,1.81-.69,3.13-1.55,2.92s-1.26-1.84-1.26-1.84a6.86,6.86,0,0,1-.61,1.82c-.85,1.29-2.62-.62-2.3-2.47a3.12,3.12,0,0,1,3.08-2.74Zm71.57.47a120.5,120.5,0,0,0,33.43.66L147.18,121Zm-8.27,0c.16,0,.49.3,1,.85,1.7,1.8,2.19,4.3,1.09,5.54-.67.75-1.13.84-1.84.35-.92-.63-1-1.57-.15-2s.84-1.28.23-2.94c-.45-1.23-.58-1.82-.34-1.8Zm-71.44.62,4,1.65,1.43,3.39-4-1Zm15.13.44-1.19,3.37L51.05,102l1.2-3.64Zm104.36.71c.15,0,.37.42.63,1.3.66,2.18.94,2.73,1.55,3a1.12,1.12,0,0,1,.12,2.08c-.59.27-.78.21-1.2-.34a8.07,8.07,0,0,1-1.27-4C159.42,98.94,159.49,98.22,159.68,98.22Zm-44.54,1.52c.12,0,.29.16.54.46,1.55,1.85,1.72,4.68.33,5.53s-3.23-.87-2.06-1.85c.11-.09.35-.29.55-.43s.35-.4.38-2C114.9,100.25,115,99.75,115.14,99.74Zm11.81.2,19.15,17.4,4.4-17.22A138.59,138.59,0,0,1,127,99.94Zm-47,.87c6,6.39,14,11.56,15.85,17.91a21.06,21.06,0,0,1-7,24.7,74.08,74.08,0,0,0-12.18,11c-5.82,6.2-9.71,13-13.61,17.9-.66.82-2.4,3.43-2.4,3.43s-.85,1-3.69-1.42c-7.56-6.71-15.48-11.58-23.55-16.22l3.42-1.91a155.31,155.31,0,0,1,22.64,15.67s6-8.74,7.9-11.25c2.77-3.59,4.72-5.91,7.3-8.69,6.59-8.14,13.39-10.83,16.23-14.95a17.91,17.91,0,0,0,.91-19.3c-3.37-5.83-9.91-9.83-14.25-14.65Zm57.43.47h7.49s-1.1.92-1.94,1.48c-.53.36-1.15.31-2.31-.18S137.33,101.28,137.33,101.28Zm8.58,0,1.74.06a27.72,27.72,0,0,1-4.39,4.15c-.23.1-.35.14-.88,0-3.58-1.19-6.86-2.69-10.35-4.11l3.11,0s1.49.48,3.74,1.41c2.57,1.07,3.24,1.4,4.23.75S144.86,101.89,145.91,101.28Zm3.53,0-.62,2.3a43.73,43.73,0,0,1-4.92,4.29c-.42.21-.4.25-2.21-.45-6.65-2.59-9.87-4.27-9.87-4.27l-1.35-1.2s1.73.49,2.88.94c.78.31,2.11.82,3,1.13s2.72,1.11,4,1.6c2.88,1.14,2.72,1.17,5.48-1.26A42.66,42.66,0,0,1,149.44,101.28Zm-100.82.21,2.9,3.33-3.87,3.26-2.92-3.45Zm110.2,0c.67,1.25,1.12,2.73,2.2,3.78.82.78,1,1.38.54,1.82-1.27.78-1.48-.48-1.88-1.31C159,104.34,158.15,102.38,158.82,101.5Zm-105,.33H54c3.1,0,3.83,4.62.91,5.72a2.79,2.79,0,0,1-2.89-.43c-.63-.63-.72-1.16-.29-1.49a5.34,5.34,0,0,1,2.27-.51,17.31,17.31,0,0,1-2.09-.85c-1.28-.73-.17-2.36,1.86-2.44Zm63.77,0c.18,0,.48.36.9,1.07,1.57,2.58,1.48,7.49-.14,8.73a1.87,1.87,0,0,1-2.62-.23c-.93-1-.64-2.08.75-2.69s1.61-1.92,1.06-5.19c-.19-1.14-.17-1.71,0-1.69Zm-75.15.08A2.48,2.48,0,0,1,44.67,103q.48.8-.45,1.2a16,16,0,0,1-2.18.57,12.88,12.88,0,0,1,2.22.56c1.05.47,1,1.32-.57,2-2.95,1.41-5.74-2.43-3.31-4.63A3.2,3.2,0,0,1,42.41,101.92Zm77.68,1.85h.07a2.66,2.66,0,0,1,1.27,1.09c1.76,2.33,2.07,5.84.57,6.52s-2.72-.77-1.58-2.07c.8-.92.7-2.27-.37-4.94C119.9,104,119.93,103.79,120.09,103.77Zm38,.11c.14,0,.39.55.79,1.68.9,2.5,1.67,3.54,2.59,3.54a1.28,1.28,0,0,1,.85,2.23c-1.81,1.26-4.17-1.83-4.34-5.7C158,104.47,158,103.89,158.12,103.88Zm-9.54,1.24-.54,2s-1.23,1.2-2.11,2c-1.4,1.2-1.74,1.44-2.85,1.07-1.69-.59-3.38-1.12-5.15-1.66l-4.09-3.38,9.34,3.64s.81.24,1.09,0C145.5,107.53,146.84,106.58,148.58,105.12Zm8.81,1.91c.11,0,.23.12.31.49.43,1.92,1,3.31,1.56,3.52a1,1,0,0,1,.63,1.42c-.8,1.67-2.89-1.27-2.89-4.06C157,107.61,157.19,107.07,157.39,107Zm-33.71.13c.12,0,.3.17.59.46,1.29,1.29,1.68,4.85.64,5.89-1.5,1.5-3.1-.73-1.64-2.29.38-.41.38-.44.29-2.27C123.5,107.68,123.49,107.18,123.68,107.16Zm-78.22.36-1,3.35-3.23.83.75-2.76Zm3.86.34a1.37,1.37,0,0,1,.85.31A2.92,2.92,0,0,1,51,112,2.78,2.78,0,0,1,48,113.34a2.67,2.67,0,0,1-2.57-2.83,2.8,2.8,0,0,1,.92-2.08c.39-.27.7-.16,1,.39s.83,1.76.83,1.76a10.24,10.24,0,0,1,.2-1.9A1,1,0,0,1,49.32,107.86Zm2.46.29,2.34.8.92,3.18-2.61-1Zm133.25.6a26.84,26.84,0,0,1,3.86,2.81c.8.64,2.15,1.85,2.15,1.85L191,154.83s-6.29-3.4-7.11-4.21c-.43-.46-.22-1.77-.07-4.13.74-6.2,1-11,1.84-16.69.55-6.4,1.78-8.24-2.5-11,4.61-2.89,3.31-7.4.42-9.27Zm-37.58.15-.43,1.9c-1.51,2.6-2.87,2.46-5.19,1.26L139,109.69a40.25,40.25,0,0,1,4.54,1.51,1.56,1.56,0,0,0,1.81-.47C146.1,110.09,146.63,109.61,147.45,108.9Zm-20.68,1c.94,1,1.19,2,1.11,4.56-.18,1.78-.1,3.11-1.57,4.11a2.41,2.41,0,0,1-2.5,0c-1.33-.89-.6-2.66,1.14-2.75,1.1,0,1.55-3.6.92-5.84-.09-.35-.07-.58.11-.6A1.34,1.34,0,0,1,126.77,109.9Zm29.63-.13c.22,0,.59.54.82,1.43a3.25,3.25,0,0,0,1.49,2.37c.91.47,1.21,1.37.62,1.89-1.16,1.06-2.35-.21-2.73-2.9C156.58,112.26,156.05,109.79,156.4,109.77Zm24.95.44a3.89,3.89,0,0,1,4.06,4.05,4.24,4.24,0,0,1-2.49,3.87c-3.81,1.12-5.89-1.43-5.85-3.91a4.14,4.14,0,0,1,4.28-4ZM129,111.65c2.18,2.18,2.28,6.84.15,6.84-2.56-.85-.56-2.36-.52-2.75a10,10,0,0,0-.54-4.14C128,110.72,128.79,111.39,129,111.65Zm52.46-.22c-.46,0-.42.45.41,1.17a2.08,2.08,0,0,1-1.14,3.74c-.89,0-1.11.6-.34.91,3,1.2,5-3.34,2.36-5.23A2.73,2.73,0,0,0,181.49,111.43ZM67.16,112c2.41.82,3.24,5.41,3.33,7,.11,2.81-1.2,7.41-2.37,8.33-3,2.38-4.45-6-1.86-11.45a3.49,3.49,0,0,0,.41-2.15c-.11-1.1.08-1.75.49-1.76Zm79.5.45a15.58,15.58,0,0,1-.62,2.12c-.38.87-.65.9-1.52.16-.48-.42-1.28-1.27-1.28-1.27.75.11,1.43.51,2.07.19A3.49,3.49,0,0,0,146.66,112.49Zm9.13.07c.17,0,.39.48.68,1.43.79,2.6,1.49,3.57,2.54,3.57a1.33,1.33,0,0,1,.47,2.61,2.17,2.17,0,0,1-1.57,0c-1.16-.31-2.75-4.22-2.52-6.21C155.5,113,155.62,112.55,155.79,112.56ZM49.91,114.07c.63,0,.88.29,1.25,1.06a6.51,6.51,0,0,0,2.47,2.47c2.25,1.11,4.63,2,6.87,3.09,2.89,1.45,5.49,5.91,3.71,6.37a6.65,6.65,0,0,1-2,.1,3.6,3.6,0,0,1-.94-1.09,12.28,12.28,0,0,0-7.59-5.26c-2.69-.7-5.09-4-5.61-5.56-.14-.41-.14-.72.22-.83a7.93,7.93,0,0,1,1.66-.35Zm81.63.27c.12,0,.3.13.56.42,1.6,1.7,1.8,4.84.36,5.73s-2.92-.63-1.69-2c.53-.6.53-.6.53-2.39C131.3,114.89,131.34,114.37,131.54,114.34Zm23.26,2c.2,0,.48.54.83,1.58.49,1.48.56,1.6,1.13,1.89,1,.49,1.11,1.23.4,1.93-1.3,1.31-2.62-.79-2.62-4.19C154.54,116.72,154.63,116.32,154.8,116.33Zm-20.89.23a2.09,2.09,0,0,1,.71.58c2,2.32,1.57,7.76-.62,8.58-.73.27-.95.28-1.4.09-1.63-.71-1.43-2.43.57-3.52C134.67,121.48,133.61,116.59,133.91,116.56Zm-100.1,1.72,8.09,4s2.21,4.66,3.23,6.41c.7,1.21,2.11,2.39.66,3.19-2.43,1.65-3.81,2.59-3.79,3.62,0,.82,1,1.67,2.43,3.3,2,2.34,2,1.8.16,5.38-1.38,2.5-2.56,8.17-2.56,8.17l-8.16,4.21a50.53,50.53,0,0,1,8.49-14.27,38.16,38.16,0,0,1-6.47-6.05,47.41,47.41,0,0,1,5.45-5.53,36.08,36.08,0,0,1-7.53-12.44Zm102.24.07h0c.34,0,1.11.86,1.79,2.22.88,1.74,1,3.94.18,4.72-1.34,1.35-3.1-.38-1.84-1.82.89-.64.65-2.24-.05-3.91C135.85,118.76,135.85,118.38,136.05,118.35Zm-103.13.78a75.13,75.13,0,0,0,6.87,11.55l-5.26,5.52a56.13,56.13,0,0,0,6.33,6.24c-3.38,3.76-5.6,9-7.82,14Zm121,.1c.19,0,.45.55.71,1.64.34,1.38.57,1.73,1.37,2.07,1.27.55,1.3,1.78.05,2.22a1.79,1.79,0,0,1-1.67-.9,6.57,6.57,0,0,1-.7-3.07C153.58,119.88,153.7,119.21,153.9,119.23Zm29.17.83c2,.55,2.71,2.55,2.32,6.24-.52,4.93-1.13,10.43-1.62,15-.58,5.23-.91,8-1,8.16-.41.65-.47-1.81-.18-4.54.44-3.91.69-7.33,1.07-11.24.84-8.68.63-11.43-.94-12.23-1.21-.62-1.73-.25-.84.59,1.71,1.32,1.66,1.87-.17,23.26-.19,2.22-.27,3.78-.27,3.78l-2.32-1.44s-.17-1.83-.39-4.6c-.52-5.22-.83-10.78-1.18-15.77-.37-5.34.63-7.2,3.94-7.33a5.41,5.41,0,0,1,1.61.16Zm-42.67,3.1c.25.7,1.4,6-1.55,4.45a1.07,1.07,0,0,1-.25-1.81c.65-.76.8-1.84.48-3.39-.2-1-.44-1.73-.44-1.73C139.21,120.89,140.33,123,140.4,123.16Zm-87.76-1.65a14,14,0,0,1,7,3.75c1.1,1.16,1,2.1-.67,2.21s-1.69.51-2.48-.17a4.19,4.19,0,0,0-1.83-1.08c-2.49-.38-3.76-5-2-4.71Zm100.77,1.37a13.51,13.51,0,0,1,.51,1.85c.38,1.67,1.52,2.9,2.55,2.75.69-.08,1.64.13,1.74,1a1.37,1.37,0,0,1-.92,1.67,2.39,2.39,0,0,1-2.55-.56C153.2,128.1,152.27,123.39,153.41,122.88Zm-12,.07c.89.34,2,3.21,2.16,5.48,0,1.63-.26,3.68-1.66,4.46a1.56,1.56,0,0,1-2.22-.55,1.68,1.68,0,0,1,.89-2.41c1.25-.56,1.66-3.1.9-5.57,0-.41-.67-1.58-.07-1.41ZM46,124.14l6.59,3.34a16,16,0,0,0-2.23,3.9A29,29,0,0,1,46,124.14Zm97.84,1.14a3.53,3.53,0,0,1,.83.68c1.64,1.59,2.35,4.48,1.36,5.54-.8.84-2.19.79-2.42-.1a3.65,3.65,0,0,1,.58-1.64,5.35,5.35,0,0,0-.1-3.46C143.93,125.76,143.74,125.28,143.88,125.28Zm-45.77.66,7.45.25,24.94,22.46-2.35-.05-22.91-20.88-7.13,0Zm-42.88,4a17.94,17.94,0,0,0-1.87,15.27c1.32,3.59-1.57,3.81-2.76,1.44a16.15,16.15,0,0,1-1.16-8.12c.39-5.3,2.84-10.62,4.79-11.26s1.56,1.95,1,2.67Zm102.18,10.87c-.76,3.54-2.16,5.29-4.15,6-8.14,3-11.68-13.42-4.13-17.34C156.33,127.15,158.41,136.19,157.41,140.85ZM97.66,130.12l7,.15c6.4,5.82,13.28,11.25,20.13,18.33H121.5l-1.2-1.14c-6.19-5.53-10.77-10-16.74-15.18l-6.27-.17Zm53.57,1.09c-3.8.15-4.11,5.29-4,7.24.28,2.81,1.4,7,5,6.63,2.62-.26,3.83-3.36,3.59-7.07C155.55,134.51,154.13,131.2,151.23,131.21ZM97,132.91l6.16.14c5.43,4.74,11.17,9.88,16.87,15.55h-2.69s-.7-.67-.91-.89c-4.62-4.17-9.31-8.82-13.79-12.57l-6.39-.25Zm54.31.21c1.07.4,1.25,3,.31,4.11-.64.74-2.12-.67-2.26-2.45A1.56,1.56,0,0,1,151.33,133.12Zm-101.81.32a31.67,31.67,0,0,0-1,5.67l-2.57-3.27Zm103.76,3.16a1.14,1.14,0,1,1-1.14,1.14A1.14,1.14,0,0,1,153.28,136.6Zm-51.75.57,12.28,11.55-3.5,0-10.07-9.12-6.39-.24,1.25-2.18Zm47.74.2a1.14,1.14,0,1,1-1.14,1.14A1.14,1.14,0,0,1,149.27,137.37Zm14.62,0a238.79,238.79,0,0,0,26.83,18.3,11.65,11.65,0,0,1-3.21,1.73c-7.9-4.35-17.29-10.49-23.11-15.47-5.5,8.09-16.05,22.8-25.44,29.6-5.92,4.23-8.9,9.45-8.88,15.56,0,6.31,2.24,10.42,8.46,15.59,4,3.34,8.38,7.59,8.38,7.59l-2.3,2c-.38,0-6.72-5.51-13.13-11.94C128,196.81,126.4,189,127,184.85c.81-5.7,2.71-9.78,8.11-14.18a57.66,57.66,0,0,0,6-4.68C157.89,148,163.89,137.4,163.89,137.4Zm-11.24,2.93c.64,1.3,1,3-1,3.13-1.18.07-1.85-1.89-.83-3.64C151.59,138.44,152.28,139.61,152.65,140.33ZM93.51,140l6.62.2s6.54,5.7,9.84,8.85h22.19c12.21,0,22.24.05,22.3.11a13.87,13.87,0,0,1-1.58,2.47l-73.2,0s4.52-4,6.13-5.15A36.56,36.56,0,0,0,93.51,140Zm-44.86,2.76a26.62,26.62,0,0,0,1.71,5.2l-5.09,2.69A58.16,58.16,0,0,1,48.65,142.74Zm141.14,14.69A56.51,56.51,0,0,1,183,170.05c-.64.82-1.07,1.45-1.07,1.45l6.23,6-5.41,5.74a35.18,35.18,0,0,1,7,11.85,46.83,46.83,0,0,1-6.86-3.24c-.85-2.14-1.72-4.41-2.68-6.37-2.21-4.47-2.18-4-.38-5.35,2.64-1.92,3.42-2.37,2.74-3.34-.48-.68-3.59-4.38-3.78-4.49s-.16-.73.37-1.6a49.88,49.88,0,0,0,4.2-10Zm1.18.23.16,37.57c-2.23-4.49-4.55-9.07-7.13-11.94-.1-.19,5.64-5.8,5.64-5.8-2.11-1.94-3.34-3.11-6.27-5.81C186.23,167.55,188.49,162.16,191,157.66ZM33.05,159l7.14,4.15c-.38,5.3-.85,12.25-1.59,19.31-.61,5.51-.86,8.05.11,9.58a11.8,11.8,0,0,0,3.06,2.32c-3.75,1.53-5.2,6-1,9.36A18.22,18.22,0,0,0,39.3,205l-5.86-4.38Zm111.75,1.9a42.43,42.43,0,0,1-6.72,6.37,42.92,42.92,0,0,0-6.67,5.56s-4.2,0-7-.13l-9.82-8.76s.35-.13-13,0c-17.27.14-31.27,0-31.27,0l2-2.76Zm35,1.72a31,31,0,0,1-4.37,8.67c-.44-1.91-.68-3.93-1.6-5.56Zm-138.71,1,.86.61s-.51,6.48-.68,8.38c-.3,3.51-.45,6.67-.75,10.24C39.9,189.9,40,191,41.4,192c1.07.8,1.8.44.85-.58a2.82,2.82,0,0,1-.81-2,28.45,28.45,0,0,1,.07-5.37c1.06-18.74,1.28-19.37,1.31-19.38L45,166.12c-.12.29,2,18.89,1.74,23.51-.24,5.41-7.52,4.21-7.86.2-.15-.92,1.24-16.1,1.24-16.1Zm59.36,1.09,2.85.08L120.92,181l6,.13-.53,2h-5.8Zm10.92,0h2.77l10.08,9.14,6.21.1-1.18,1.76-6.18-.18Zm-3.44,0,14.91,13.44,5.08.26-.79,1.84-6-.17-16.75-15.34Zm-14.37,0h3.09l23.31,21,6.1.11-.09,1.89-7.35,0Zm78.42.59c1.22.31,1.83,1.5,2.7,5.92,1,5.16-1.18,13.52-3.93,15.09-1.42,1.12-3-.06-2-1.52,3.28-4.76,3.71-12.54,1.77-16.89C170,166.52,170.58,165.07,172,165.32Zm-98.87.78c7.45.09,9.37,15.38,2,17.52-4.76.71-7.21-3.6-7.9-7.49C66.44,171.3,68.57,166,73.11,166.1ZM69,175.27c.44,3.07,2.34,6.58,5.11,6.28,3.63-.4,4.09-5.25,3.73-7.69-.44-3-2.06-5.62-4.66-5.77C69.33,167.87,68.67,172.91,69,175.27Zm4-6c1,0,1.8,1.37,1.52,3.09-.19,1.12-.61,2.49-1.86,1.56a4.55,4.55,0,0,1-1-3.27C71.79,169.94,72.17,169.34,73,169.32Zm102.67,3.53,3.5,4.05-4,2.78A18.76,18.76,0,0,0,175.68,172.85Zm-100.14.37a1.14,1.14,0,1,1-1.14,1.14A1.14,1.14,0,0,1,75.54,173.22Zm-4.07.7a1.14,1.14,0,1,1-1.15,1.14A1.14,1.14,0,0,1,71.47,173.92Zm2.3,1.47A2.57,2.57,0,0,1,75,176.55c.76,1.13.86,2.56.32,3.15-1.1,1.31-2.81-.09-2.6-2.09.15-1.48.54-2.37,1-2.22Zm9.76,4.47c1.64,0,2.1,1.92.69,2.87-.91.61-1.12,2.6-.55,5.36.46,2,.22,2.3-1,.51C80.67,185.34,81.19,179.86,83.53,179.86Zm-3.82,1c1.44-.05,1.9,1,1.06,1.88-.49.55-.44,2,.11,3.16.77,1.71.59,2.23-.86.59C78,184.39,78.05,181,79.71,180.9Zm94.8.84a37.13,37.13,0,0,1,4.38,8.18l-7-3.24ZM71.42,190.43c-.5-.57-.74-2.45-1.15-3.25-.32-1-.59-1.51-1.11-1.48-3,.25-2.85-2.6-1.14-3.14C71.56,181.45,72.85,190,71.42,190.43Zm14.79-2.87c-.5,1.49-.14,2.38,0,4,.09.72.13.92-.47.36-1.41-1.23-2.17-5.44-.89-6.22C86.53,184.63,87.05,186.4,86.21,187.56Zm70.68-2a2.08,2.08,0,0,1,1.86,1.49c.56,1.43.51,4.92.23,6.77-.43,2.85-1.12,5.46-1.4,7.41-1,1.19-3.46-3-3.69-6.32-.39-2.63.52-8.08,2.54-9.24A1.2,1.2,0,0,1,156.89,185.56Zm9.52.45c.62,0,.48.18.93.65a3.62,3.62,0,0,0,2,1.22c2,.63,4.25,3.45,3.39,4.31-.68.54-2.52-.48-3.15-.69l-1.88-.65c-1.69-.57-4.13-3.7-3.37-4.32A4.88,4.88,0,0,1,166.41,186Zm-4.93.52c1.25,0,1.59.32,2.31,1.67,1.06,2,3,3.41,5.91,4.22,3.66,1.12,6.82,3.24,6.66,7.17a9.42,9.42,0,0,0-2.62.33,8,8,0,0,0-5.7-5c-5-1.14-9.65-6.22-8.33-8.23a3.5,3.5,0,0,1,1.77-.19Zm-86.33.25,43.23,37.65c-18.24-6.77-35-6.63-51.17-4.12Zm18.44,2.49c-.08,1.17-1.69,1.42-2,1.71-.8.7-.7,2.73-.35,5.1.26,1.42-.09,1.36-.84.25-1.32-2-1.29-5.4-.42-7.41,1.13-2.59,3.75-1.29,3.64.35Zm-24.87-1.85c1.66.18,2.12,2.43,2.19,3.93,0,2.06-.59,2-.92,0-.15-.88-.43-1.22-1.14-1.43C67.24,189.43,67.14,187.42,68.72,187.42Zm20.09,2.31c-.42.47-.43,2.65,0,4.12.21.81-.18.87-.73.23-1.79-2.1-2-5.66-.3-6.34,1.35-.35,1.7,1.29,1.07,2Zm-18.7,4.21c0,2.09-.44,2.28-1.07.27a2.59,2.59,0,0,0-.65-1.07c-1.18-.81-1.39-1.44-.7-2.12C69.36,189.65,70.09,193.31,70.11,193.94Zm6.32-1.85-5.86,25c14.42-1.21,21-1.46,36.39,1.55Zm17.48.41c.88.22,1.18,1.37.16,2.46-.34.44-.66,1.1-.24,2.87.56,2.42-.39,1.64-1.54-.64-.74-1.46-.4-5.19,1.62-4.69Zm-27.6.08c1.57,0,3,2.54,3,5.33,0,2.25-.3,2.08-1.14-.07-.58-1.42-1.06-1.93-2.13-2.3C64.11,194.85,64.28,192.58,66.31,192.58Zm10.59.72L104.05,217a115.08,115.08,0,0,0-32.63-.59Zm22.6.89c2.13,0,3,2.64.36,3.56-1.56.54-.9,3.69-.61,5.56.11.71-.11.76-.56.13C97.05,201,96.13,194.91,99.5,194.19Zm-2.88,3a3,3,0,0,0-.16,2.44c.69,2.54.87,3-.57,1.72-1.52-1.6-2.18-4.78-.91-5.72,1.43-1.06,2.71.12,1.64,1.56Zm-53.65-2c2.52,0,4.36,1.62,4.26,3.89a4.08,4.08,0,0,1-4,4.22A4,4,0,0,1,39,199.25,3.8,3.8,0,0,1,43,195.19Zm0,1c-2.88,0-4,3.79-1.58,5.55,1,.75,1.84.54,1-.26A2.57,2.57,0,0,1,43.48,197c1-.22.64-.83-.55-.83Zm35.12.64-3.47,16.84c7.1-1.1,15.69-.76,22.32-.14Zm-11.7.64c1.73-.08,2.24,2.51,2.25,3.55,0,1.34-.16,2-.4,1.32-.58-1.69-1.16-2.62-1.78-2.62a1.64,1.64,0,0,1-.9-.52A1,1,0,0,1,66.35,197.48Zm12,.68,2.29,1.94c-1.47-.65-2.73,1-2.73,1Zm23.56,3.18c-.67.83-.66,2.59-.15,4.65.15.57-.39.14-.93-.54a5.54,5.54,0,0,1-1.32-4C99.74,198.27,103.72,198.88,101.93,201.34Zm-36.21-1.5c1.48.16,2,3.26,2,4.19s-.27,1.64-.46,1.05c-.38-1.29-1.17-3.15-1.85-3.58-1.17-.73-.84-1.56.31-1.66Zm113.42,3.46a2.86,2.86,0,0,1-1.08,2.57c-.68.37-1.1-.13-1.51-1.39-.3-.92-.41-1.28-.41-1.28s-.25,1.16-.33,1.4c-.54,1.6-2.28,1.62-3-.17-.78-2.09,1.39-4.24,3.06-4.16a3.2,3.2,0,0,1,3.28,3ZM80.2,201a13.71,13.71,0,0,1,2.54.9l2,1.78s-1.85-.8-2.5-1c-1.56-.55-1.53-.55-2.78.48s-2.36,1.83-2.36,1.83l.4-2.29S79.4,201,80.2,201ZM67,206.58c.29,2.41-.38,2.61-1,.31-.56-2-1.11-2.69-2.06-2.69a1.5,1.5,0,0,1-.77-2.87c3-.84,3.74,4.29,3.87,5.25Zm102-5.3,2.74,1.28.58,2.84-2.53-.63Zm-61.54.26a1.61,1.61,0,1,1,.94,3.05c-1.24.29-1.23,2.21-.88,5,.08.64.25,1.41.21,1.51-.18.51-.81-.26-1.66-2.05-1.26-3.25-.87-6.87,1.39-7.5Zm75.53,0-.76,3.29-2.32-.16-.09-2Zm-78.24,2.14c-1.28,1.84-.13,3.54.15,5,0,.83-1,0-1.66-1.21-1.3-2.54-1.37-4.6-.2-5.52C104.72,200.94,105.47,202.66,104.8,203.64ZM81,203.19a8.8,8.8,0,0,1,2.33.74l3.22,1.29,3,2.62s-2.6-1-4.42-1.73c-4.08-1.72-3.49-1.78-6.72.68-.93.71-1.91,1.52-1.91,1.52l.4-2.11a26.16,26.16,0,0,1,2.74-2.31c.65-.47,1-.7,1.4-.7Zm-38,1c2.09-.06,3.46,1.6,4,3.46a9.21,9.21,0,0,1,0,3.1c-1.45,11.06-2.08,21.32-3.41,31.56-.16.48-.34.3-.55-.58-1.54-9.28-2.54-19.47-3.83-28.67-.29-3.43-1.18-7.92,3.17-8.8a3.11,3.11,0,0,1,.67-.07Zm-.13,1.22a3,3,0,0,0-2.39,1.49c-.8,1.67-.59,5.06.91,15.22.13.85.3,2.26.39,3.14a22.14,22.14,0,0,0,.88,5.24c.49.76.55-.05.2-2.69-.18-1.35-.42-3.41-.54-4.58-.68-4.82-.83-8.25-1.24-12.65-.21-2.16.66-3.76,2.29-4.19.88-.23.93-.63.11-.9a1.73,1.73,0,0,0-.61-.08Zm138.25.14a3,3,0,0,1,1.19,5.79c-1.11.56-3,.29-3.43-.6a1,1,0,0,1,.58-1.39,11.59,11.59,0,0,1,1.66-.67s-1.61-.31-2.07-1.08c-1-1.65.82-2,2.07-2ZM66.21,210.16c0,.81-.44.47-.54,0a6.29,6.29,0,0,0-1.6-2.7c-.69-.56-.86-1.32-.38-1.79C65.46,204.11,66.2,209.66,66.21,210.16Zm103.59-4.62a3.55,3.55,0,0,1,2.52.91c.87.87.82,1.2-.63,1.73-.71.26-1.19.46-1.19.46s.65.26,1.14.4c1.39.46,1.32,1.27,0,2.23-1.74,1.3-4.55-.43-4.51-2.72A2.76,2.76,0,0,1,169.8,205.54Zm6.45,0L179,208.6,175.78,212l-3.07-3.36Zm-94.78.29h.12c.87,0,2.25.6,5.63,2l4,1.61,3,2.69a57.73,57.73,0,0,1-5.62-2c-.32-.15-1-.45-1.54-.65s-1.85-.71-2.93-1.15c-2.32-.93-2.35-.94-3.13-.28-.33.28-1.15.92-1.81,1.42L77.09,211c-.62.46-1.39,1.17-1.39,1.17l.49-2.6a15,15,0,0,1,1.22-1l2.4-1.84c.7-.53,1.07-.86,1.66-.89Zm29.94,2.28c.08.54,0,.65-.59,1.28-.79.8-.89,2.12-.32,3.82a5,5,0,0,1,.31,1.07c-.83.83-3-4.41-2.49-6,.62-1.87,2.67-1.9,3.09-.2Zm-47.87.23a1.72,1.72,0,0,1,1.56,1.31c.91,2.52.35,5.61-.57,2.73a5.47,5.47,0,0,0-1-1.6c-.32-.34-1.05-.74-1-1.3C62.6,208.72,63,208.34,63.54,208.32Zm18.66.07a5.89,5.89,0,0,1,1.73.55c.79.33,3,1.07,4.29,1.56,2,.76,4,1.77,4,1.77L87.79,212s-1.52-.51-2.42-.88c-3.27-1.34-3.08-1.34-4.71-.1-.58.44-1.31,1.15-1.31,1.15l-2.27.13a20.91,20.91,0,0,1,2.6-2.28c.51-.37,1.2-.91,1.53-1.18a1.4,1.4,0,0,1,1-.47Zm34.91.88A1.58,1.58,0,0,1,119,211a2.31,2.31,0,0,1-2,1.84,13.7,13.7,0,0,0-.53,6c.32,1.45-.29,1.48-.91.09C114.51,216.7,113,210,117.11,209.27Zm-3.55,2.47a5,5,0,0,0-.41,3.45c.32,1.58.39,2-.51,1-1.74-2.32-2-6-.39-6.43A1.24,1.24,0,0,1,113.56,211.74Zm-52-1.72c2.71.42,3.51,5,3.13,7-.72,2.39-.69.77-.94-.23-.66-2.4-1.43-3.71-2.26-3.85-2.22-.37-1.91-3.26.07-2.94Zm20.77.9h.13c.89.15,3.28.89,2.25,1.14l-3.52,0c-.69,0,.44-1.12,1.14-1.17Zm94.91.76c.34,0,.81.37,1.36.93,1.25,1.27.7,3.29-1,4.28a3.05,3.05,0,0,1-4.23-4.08c.8-1.48,1.77-1.21,2.59.88.15.25,0-.26.28-.9S176.85,211.71,177.19,211.68Zm-4.46.15-.8,3.21-3.24,1.56,1.18-4Zm6.74.55,2.58.2,1.44,4.18-3.72-1.59Zm-61,2.36c1.87.07,2.06,1.85,1,2.62a3.1,3.1,0,0,0-.69,2.76c0,.59.17,1.32.17,1.41,0,.28-.26.24-.58-.11-2-2.17-1.72-6.76.11-6.68Zm-56.82.69c1.19,0,2.54,3.41,1.88,4.71-.42.77-.82.58-1-.31a1.89,1.89,0,0,0-1.44-1.69c-1.4-.44-.94-2.71.54-2.71Zm60.25,2.06a1.18,1.18,0,0,1,.17,2.1c-.64.46-.8.84-.9,2.07.21,2.8-1.37,1-1.52-1.52-.08-1.39.67-3.45,2.25-2.65Zm-61.25.86c.86,0,1.87,1.54,1.65,2.43-.12.71-.5.59-1,.06a3.37,3.37,0,0,0-.87-.39,1.06,1.06,0,0,1,.24-2.1Zm24.28,1.18c11.55-.05,23.56,1.78,33.54,5.77l-.82,1.47-2.62-.9-.9,2.38,2.16.82-1,2.19c-11.78-3.87-24.49-6.76-45.6-3.63-1-.73-3-2.17-3-2.17l1.69-.37-.22-2.35-4.26.76-1.25-1.3a93,93,0,0,1,22.25-2.67Zm38.73.52c1.1,0,1.79,1.24,1,1.77-.57.37-1.83.47-2.08.17C122,221.36,122.77,220,123.65,220.05ZM83.29,221.5l-.05,2.43,3.48-.11.08-2.31Zm6.08.05,0,2.39,3.38.11.16-2.34Zm-8.84.16-3.42.23.11,2.23,3.39-.15Zm15.29.37-.09,2.31,3.44.38.25-2.34Zm-21.65.12-3.44.43.29,2.3,3.34-.37Zm28.29.74-.33,2.41,3.2.47.42-2.28Zm56.28.7a33.43,33.43,0,0,1,4.06,6.43A29,29,0,0,1,165,240.6c0,2-1.39,1.6-1.68-.49-1.2-8.78-11.76-10.1-15.92-2a14,14,0,0,0-.71,8.39c2,11.32,16.27,22.26,20.75,34.13,8.4-17.21,15.77-19.88,19.59-33.9,3.08-10.77-7.4-18.78-15-11.8a9.7,9.7,0,0,0-2.81,5.23c-.32,2.52-1.44,2.14-1.55.06s.9-6.39,2.23-10.14a27.71,27.71,0,0,1,3.18-6.45Zm-49.92.65-.32,2.43,3.26.69.44-2.26Zm-23.08,2.8a81.51,81.51,0,0,1,29,5,13.84,13.84,0,0,1-1.45,2.57,77.16,77.16,0,0,0-23-4.71,12.2,12.2,0,0,1-4-.48c-5.24-1.73-9.86-2.47-14.12.07l-1.74-1.23a97.06,97.06,0,0,1,15.3-1.23Zm118.38,9s.61.82,1,1.28c1.68,2,2.7,5.63,1.6,5.63-.28,0-.41-.25-.82-.64-1.5-2.22-4.5-1.45-5.66.19a6.89,6.89,0,0,0-.4,6.42c3,6.2,8.77,13.27,8.67,14.08,3.08-6.87,5.6-8.81,7.89-13.85a8.18,8.18,0,0,0,.19-5.86c-.87-2.62-5.08-3.81-6.57-1.08-.5.83-.89,1.07-1.22.73-.68-.68.5-4.41,1.88-5.95a11.5,11.5,0,0,0,.71-1ZM40,241c2.48,0,3.66,3.83,1,5.42a2.67,2.67,0,0,1-2.37,0,2.82,2.82,0,0,1,.2-5.19A2.87,2.87,0,0,1,40,241Zm80.91.13c.89.54,4.16,2,4.16,2l-23,41.56-5.56,0Zm-74.15.1a2.81,2.81,0,1,1-.1,5.62c-2.79-.16-4-5.16.1-5.62Zm79.06,2.16c.62.34,2.85.71,3,1.14a5.11,5.11,0,0,1-.14,1.19,6.14,6.14,0,0,0,1,3.95c1.31,1.82-.11,1-1.42,1-3-.75-6.72,3.28-5.29,7.42.33.92.27,1-1.32,1.47a5.74,5.74,0,0,0-3.43,8.32c.9,1.77.93,1.68-.66,1.81-4.4.37-7,4.27-5.1,8.26.28.62.1.79-.86,1-3,.55-4.35,3.06-4.73,5.81l-4,0Zm3.81,1.47,7.63,2.08c-3.17,10.77-3.61,23.29.21,37.77H119.94c2.44-2.18,1.48-5.21-1.37-5.87,2.76-1.59,2.76-5.81-.55-6.32-2.91-.44-4.42,2.32-3.12,5.1l-1.25.34a5.75,5.75,0,0,1-.68-1.07c-1.1-3.21,1.2-6.39,5.12-6.38,2.42,0,2.92-.67,1.58-2.16a4.84,4.84,0,0,1,1.48-7.86,2.68,2.68,0,0,1,2.29-.23l.07,1.76s-.58.06-1,.13c-3.45.55-2.81,6,.69,6a3.34,3.34,0,0,0,3.31-3.59v-1.46c1.77,3,4.81,3.24,6.1.78,1.53-2.9-1.24-4.72-4-4.42,0,0,.58-.38,1-.57a3.07,3.07,0,1,0-4.15-1.57,8.29,8.29,0,0,0,.39.93l-1.34.33a2.15,2.15,0,0,1-.43-.44c-2.29-3.57,1.38-7.51,6-6.62,1.69.54,1.63-.64.68-1.69-1-1.53-1.78-3.25-1-5Zm-86.24,1.55,4,7.06-4.48,8.13L38.48,254Zm-.4,3.68-2.78,3.82,2.73,4.4,2.58-4.45Zm-.12,1.43,1.81,2.43-1.82,3-1.79-2.79Zm82.78,7.63a1.53,1.53,0,1,1-1.53,1.53A1.53,1.53,0,0,1,125.67,259.11Zm83.24,8.4a8.75,8.75,0,0,0-3.76,1.05c-1.42.74-1.42.73-2,.37a4.6,4.6,0,0,0-3.29-1.11c-.95,0-1.6.05-1.6.05l.13,3.66c3.28-.09,4.18,1,3.49,3-.71.9-.55,13.8-.32,18.77a8.44,8.44,0,0,0,2.53,6.18c2.35,2.08,6.5,1.92,8.91.19a7.63,7.63,0,0,0,2.72-5.07c.16-4.05.07-8.1.07-12.15l2.6,0,0-3.67-2.54-.15s0,.11-.08-2.61c.18-5.68-2.74-8.39-6.62-8.54Zm-.21,3.68c2.15.16,3,1,3.51,2.84.35,1.31.49,2.85.19,3.33-.48.79-2.33-.58-4.76-3.54-.82-1-1.18-1.51-1.18-1.51A2.39,2.39,0,0,1,208.7,271.19Zm-3.89,4.92c2.23,1.92,2.54,3.86,7.8,5.71,0,0,.14-.21.06,6.2-.1,7.07-.53,8.52-2.66,9.1a3.57,3.57,0,0,1-4.36-2.14c-.78-1.84-1-6.16-.94-14.38C204.72,277.62,204.81,276.11,204.81,276.11Zm-89.93,2.14a1.58,1.58,0,1,1-1.57,1.58A1.58,1.58,0,0,1,114.88,278.25Zm-2.39,1.07a3.5,3.5,0,0,0,.35,2c-2.28.14-2.88,1.88-3.1,3.35h-2C108,279.7,112.35,279.59,112.49,279.32Z" transform="translate(-5.81 -11.8)"/>
  </g>
</svg>
